<svg xmlns="http://www.w3.org/2000/svg" width="80.004" height="80" viewBox="0 0 80.004 80"><g transform="translate(-0.002 -0.008)"><g transform="translate(23.435 0.008)"><path d="M199.983.008H151.544a1.563,1.563,0,1,0,0,3.125H194.4a6.521,6.521,0,0,0-.975,3.437V27.037a1.563,1.563,0,1,0,3.125,0V22.2h8.437a1.563,1.563,0,0,0,1.563-1.563V6.57A6.57,6.57,0,0,0,199.983.008ZM203.42,19.07h-6.875V6.57a3.437,3.437,0,1,1,6.875,0Z" transform="translate(-149.981 -0.008)" fill="#0b0539"/></g><g transform="translate(3.85 27.401)"><path d="M99.082,211.6,88.875,201.4a18.124,18.124,0,1,0-33.208-1.464l-1.829,1.829-7.523-7.523a1.563,1.563,0,0,0-2.21,0L42.348,196V181.727a1.563,1.563,0,0,0-3.125,0V199.12L25.095,213.248a1.563,1.563,0,1,0,2.21,2.21L39.223,203.54V214.8H32.349a1.563,1.563,0,0,0-1.563,1.563v5a6.57,6.57,0,0,0,6.562,6.563H84.224a6.57,6.57,0,0,0,6.563-6.563v-1.341a5.8,5.8,0,0,0,4.073,1.645h.029A5.914,5.914,0,0,0,99.082,211.6ZM72.591,178.443A15,15,0,1,1,59.413,200.6l9.03-9.03v3.545a1.563,1.563,0,1,0,3.125,0v-7.5A1.563,1.563,0,0,0,70,186.052H62.5a1.563,1.563,0,1,0,0,3.125h3.909l-8.277,8.277A15,15,0,0,1,72.59,178.437ZM37.348,224.8a3.442,3.442,0,0,1-3.437-3.438v-3.437H77.662V219.8a.955.955,0,0,0,.008.151.955.955,0,0,1-.008.151v1.26a6.521,6.521,0,0,0,.975,3.438Zm50.314-3.438a3.438,3.438,0,1,1-6.875,0V220.1a.955.955,0,0,0-.008-.151.955.955,0,0,1,.008-.151v-3.437a1.563,1.563,0,0,0-1.563-1.563H42.348V200.414l2.863-2.863,7.523,7.523a1.562,1.562,0,0,0,2.21,0l2.185-2.185a18.111,18.111,0,0,0,23.38,6.855l7.154,7.154Zm9.181-3.641a2.785,2.785,0,0,1-1.969.819H94.86a2.7,2.7,0,0,1-1.927-.79l-9.668-9.668a18.281,18.281,0,0,0,3.943-3.935l9.664,9.664a2.768,2.768,0,0,1-.029,3.909Z" transform="translate(-24.637 -175.318)" fill="#0b0539"/></g><g transform="translate(0 8.445)"><path d="M40.019,72.443H38.593V61.975a1.563,1.563,0,0,0-1.563-1.563H29.855a1.563,1.563,0,0,0-1.563,1.563V72.443H25.781V55.569a1.563,1.563,0,0,0-1.563-1.563H17.343a1.563,1.563,0,0,0-1.563,1.563V72.443h-2.5V65.568A1.563,1.563,0,0,0,11.717,64H4.844a1.563,1.563,0,0,0-1.563,1.563v6.875H1.563a1.563,1.563,0,0,0,0,3.125H40.02a1.563,1.563,0,0,0,0-3.125Zm-29.863,0H6.406V67.131h3.75Zm12.5,0h-3.75V57.131h3.75Zm12.812,0h-4.05V63.537h4.05Z" transform="translate(0 -54.006)" fill="#0b0539"/></g><g transform="translate(39.062 8.445)"><path d="M263.658,54.006h-12.1a1.563,1.563,0,1,0,0,3.125h12.1a1.563,1.563,0,0,0,0-3.125Z" transform="translate(-249.992 -54.006)" fill="#0b0539"/></g><g transform="translate(58.895 8.445)"><path d="M379.584,54.463a1.562,1.562,0,1,0,.458,1.1,1.562,1.562,0,0,0-.458-1.1Z" transform="translate(-376.917 -54.005)" fill="#0b0539"/></g><g transform="translate(42.552 15.32)"><path d="M276.449,98h-2.562a1.563,1.563,0,0,0,0,3.125h2.562a1.563,1.563,0,0,0,0-3.125Z" transform="translate(-272.324 -98.005)" fill="#0b0539"/></g><g transform="translate(51.165 15.32)"><path d="M336.742,98h-7.729a1.563,1.563,0,0,0,0,3.125h7.729a1.563,1.563,0,0,0,0-3.125Z" transform="translate(-327.451 -98.005)" fill="#0b0539"/></g><g transform="translate(0.001 68.721)"><path d="M2.676,440.221a1.562,1.562,0,1,0,.458,1.1,1.562,1.562,0,0,0-.458-1.1Z" transform="translate(-0.009 -439.763)" fill="#0b0539"/></g><g transform="translate(41.926 36.137)"><path d="M9.794,0A9.794,9.794,0,1,1,0,9.794,9.794,9.794,0,0,1,9.794,0ZM3.306,14.482l-.116-.163-.815.567.116.163Zm-.869.6-.109-.155-.147.1.109.155Zm.373-.7a.349.349,0,0,0,.163-.225.435.435,0,0,0-.062-.3.448.448,0,0,0-.14-.171.25.25,0,0,0-.163-.062.283.283,0,0,0-.163.039.283.283,0,0,0-.155.256,1.129,1.129,0,0,0,.039.225.582.582,0,0,1,.031.194c-.008.023-.016.047-.039.054a.058.058,0,0,1-.07,0,.251.251,0,0,1-.1-.1.164.164,0,0,1-.031-.124.173.173,0,0,1,.07-.1l-.09-.181a.274.274,0,0,0-.14.194.462.462,0,0,0,.062.287.52.52,0,0,0,.124.155.276.276,0,0,0,.147.062.315.315,0,0,0,.147-.031.264.264,0,0,0,.132-.179.5.5,0,0,0-.023-.248,1.035,1.035,0,0,1-.039-.163.157.157,0,0,1,0-.085.079.079,0,0,1,.039-.047.132.132,0,0,1,.109,0,.243.243,0,0,1,.109.109.214.214,0,0,1,.031.147.211.211,0,0,1-.093.132l.109.155ZM2.522,13.17l-.078-.186-.753.334-.116-.272-.155.07.318.722.155-.07L1.777,13.5l.745-.326Zm-.5-1.327-.823.683.062.2,1.063.062-.062-.2-.241-.008L1.9,12.2l.186-.155-.062-.2Zm-.256.473-.31.241.388.016-.078-.256Zm.217-.574-.031-.186-.636.109.567-.5-.031-.2-.978.171.031.186L1.56,11.2l-.582.512.031.194.978-.163ZM.815,10.834l.986-.07-.023-.334a1.993,1.993,0,0,0-.023-.241.338.338,0,0,0-.054-.132.278.278,0,0,0-.109-.078.394.394,0,0,0-.132-.023.253.253,0,0,0-.147.062.249.249,0,0,0-.078.147.268.268,0,0,0-.093-.093.255.255,0,0,0-.132-.031.231.231,0,0,0-.116.039.206.206,0,0,0-.078.085.253.253,0,0,0-.031.109,1.334,1.334,0,0,0,0,.179l.031.38Zm.155-.217L1.2,10.6l-.008-.132a1.194,1.194,0,0,0-.016-.147.182.182,0,0,0-.039-.078.131.131,0,0,0-.078-.023.1.1,0,0,0-.07.031.119.119,0,0,0-.031.078c0,.023,0,.078.008.171l.008.116Zm.388-.023.264-.016-.016-.186a1.2,1.2,0,0,0-.016-.14.113.113,0,0,0-.047-.07.156.156,0,0,0-.085-.023.131.131,0,0,0-.078.023.107.107,0,0,0-.039.062.641.641,0,0,0,0,.179l.016.171Zm-.6-.861.528.016a1.168,1.168,0,0,0,.248-.008.207.207,0,0,0,.109-.054.229.229,0,0,0,.085-.116.493.493,0,0,0,.039-.217.7.7,0,0,0-.023-.194.307.307,0,0,0-.078-.116.211.211,0,0,0-.124-.062A.909.909,0,0,0,1.3,8.956L.78,8.94l-.008.2.551.016a.85.85,0,0,1,.171.016.148.148,0,0,1,.085.054.208.208,0,0,1,.031.132.222.222,0,0,1-.039.132.133.133,0,0,1-.1.054.527.527,0,0,1-.163,0L.768,9.53l-.008.2ZM1.8,8.754l.132-.683L1.77,8.04l-.093.489-.8-.155-.039.194.962.186Zm-.69-1.49.939.326.109-.318q.058-.186.07-.233a.282.282,0,0,0,0-.14.463.463,0,0,0-.07-.116.292.292,0,0,0-.116-.07.214.214,0,0,0-.155,0,.318.318,0,0,0-.132.1.343.343,0,0,0-.047-.124A.218.218,0,0,0,1.6,6.612.2.2,0,0,0,1.482,6.6a.241.241,0,0,0-.1.047.19.19,0,0,0-.07.085q-.023.047-.07.163L1.11,7.26Zm.225-.14.217.078.039-.124c.023-.078.039-.116.047-.14a.107.107,0,0,0-.008-.085A.144.144,0,0,0,1.568,6.8a.132.132,0,0,0-.078,0,.089.089,0,0,0-.054.062,1.52,1.52,0,0,0-.062.163l-.039.1Zm.373.132.248.085.062-.179a.634.634,0,0,0,.039-.132.114.114,0,0,0-.016-.085.169.169,0,0,0-.07-.054.291.291,0,0,0-.078-.008.121.121,0,0,0-.062.047.957.957,0,0,0-.07.163l-.054.163Zm-.225-1.04.481.225a.979.979,0,0,0,.233.085.23.23,0,0,0,.124-.008.225.225,0,0,0,.124-.07.767.767,0,0,0,.124-.179.494.494,0,0,0,.054-.186.376.376,0,0,0-.023-.14.279.279,0,0,0-.085-.109A1.578,1.578,0,0,0,2.29,5.71l-.473-.217-.085.179.5.233a1.11,1.11,0,0,1,.147.078.112.112,0,0,1,.054.085A.217.217,0,0,1,2.41,6.2a.172.172,0,0,1-.093.1.2.2,0,0,1-.116.016c-.023-.008-.078-.031-.155-.062L1.552,6.03l-.07.186ZM1.5,6.038l.07-.147-.147-.07-.07.147Zm.124-.264.07-.147-.147-.07-.07.147Zm1.343-.256.109-.171-.349-.225L2.437,4.5l-.124.2.2.4-.458-.016-.124.194.683.008.349.233ZM2.553,4.346l.411.334a.963.963,0,0,0,.21.14.322.322,0,0,0,.124.023.316.316,0,0,0,.14-.039A.531.531,0,0,0,3.6,4.657a.417.417,0,0,0,.093-.171.29.29,0,0,0,.008-.14.269.269,0,0,0-.062-.124,1.524,1.524,0,0,0-.186-.171l-.4-.326-.124.155.427.341a.619.619,0,0,1,.124.116.124.124,0,0,1,.031.093.253.253,0,0,1-.163.2.155.155,0,0,1-.116-.016,1.193,1.193,0,0,1-.132-.1l-.419-.326-.124.155Zm.062-.171.1-.124-.124-.1-.1.124ZM2.8,3.95l.1-.124-.124-.1-.1.124Zm1.166.25.147-.14-.2-.217.008-.233.52.155.186-.179-.7-.171.008-.536-.194.186.008.6-.31-.326-.147.14.675.722Zm.5-.924a.374.374,0,0,0,.241.14A.449.449,0,0,0,5,3.322a.491.491,0,0,0,.155-.155A.332.332,0,0,0,5.2,3a.268.268,0,0,0-.054-.155.323.323,0,0,0-.124-.109.311.311,0,0,0-.147-.023,1.424,1.424,0,0,0-.217.062.589.589,0,0,1-.186.054A.1.1,0,0,1,4.41,2.8a.075.075,0,0,1-.008-.07A.243.243,0,0,1,4.5,2.619a.225.225,0,0,1,.124-.047.159.159,0,0,1,.109.062l.155-.124a.3.3,0,0,0-.21-.124.43.43,0,0,0-.279.093.593.593,0,0,0-.14.14.28.28,0,0,0-.047.155.217.217,0,0,0,.047.14.259.259,0,0,0,.186.109.535.535,0,0,0,.241-.047c.078-.031.132-.047.155-.054A.173.173,0,0,1,4.92,2.91a.09.09,0,0,1,.054.039.128.128,0,0,1,.016.109.247.247,0,0,1-.093.116.274.274,0,0,1-.147.047.255.255,0,0,1-.14-.078l-.14.132ZM5,3.632a.325.325,0,0,0,.116-.07.272.272,0,0,0,.124-.147.109.109,0,0,0-.016-.109A.111.111,0,0,0,5.13,3.26a.178.178,0,0,0-.124.047.407.407,0,0,0-.085.078l.023.062a.236.236,0,0,1,.062-.062.124.124,0,0,1,.062-.023.043.043,0,0,1,.039.023.051.051,0,0,1,.008.047.168.168,0,0,1-.062.07,1.293,1.293,0,0,1-.109.07Zm.44-.652.66-.365-.078-.147-.481.272-.132-.233.435-.241-.078-.147-.435.241-.109-.194.466-.256L5.61,1.763l-.644.349.473.869Zm.823-.45.186-.085-.179-.4.357-.163.179.4L6.993,2.2l-.4-.908L6.4,1.374l.155.357L6.2,1.894l-.155-.357-.186.085.4.908Zm.916-.38.194-.062-.31-.939-.194.062.31.939Zm-.318-.993L7.039,1.1,6.985.931,6.806.986l.054.171Zm.683.861.194-.047-.093-.4.039-.008a.815.815,0,0,1,.1-.016.125.125,0,0,1,.07.023,1.046,1.046,0,0,1,.132.116l.186.179L8.4,1.811l-.163-.163a1.535,1.535,0,0,0-.147-.132.46.46,0,0,0-.124-.054.307.307,0,0,0,.171-.132.273.273,0,0,0,.023-.194A.31.31,0,0,0,8.087,1a.245.245,0,0,0-.132-.07.7.7,0,0,0-.233.023l-.411.093.233.978Zm.062-.6.147-.031a.715.715,0,0,0,.171-.054.1.1,0,0,0,.047-.054.132.132,0,0,0,0-.078.113.113,0,0,0-.047-.07.139.139,0,0,0-.085-.023.652.652,0,0,0-.14.031l-.155.039.062.241ZM8.832.768l.07.986.334-.023a1.993,1.993,0,0,0,.241-.023.338.338,0,0,0,.132-.054.278.278,0,0,0,.078-.109.394.394,0,0,0,.023-.132.253.253,0,0,0-.062-.147A.249.249,0,0,0,9.5,1.187a.268.268,0,0,0,.093-.093A.255.255,0,0,0,9.624.962.231.231,0,0,0,9.585.846.206.206,0,0,0,9.5.768.253.253,0,0,0,9.391.737a1.334,1.334,0,0,0-.179,0Zm.21.155.016.225L9.19,1.14a1.194,1.194,0,0,0,.147-.016.182.182,0,0,0,.078-.039.131.131,0,0,0,.023-.078.1.1,0,0,0-.031-.07A.119.119,0,0,0,9.329.908c-.023,0-.078,0-.171.008L9.042.924Zm.031.388.016.264.186-.016a1.2,1.2,0,0,0,.14-.016.113.113,0,0,0,.07-.047.156.156,0,0,0,.023-.085.131.131,0,0,0-.023-.078A.107.107,0,0,0,9.422,1.3a.641.641,0,0,0-.179,0l-.171.016Zm.83.4.753.054.016-.163L10.12,1.56l.016-.272.5.031.016-.163-.5-.031.016-.217L10.7.947l.016-.171L9.988.722,9.9,1.707Zm.924.062.691.124.031-.163-.489-.085L11.2.838,11.005.807l-.179.962Zm.823.163.73.194.047-.163-.536-.14.07-.264.481.132.047-.163L12.006,1.4l.054-.21.52.14.047-.163-.706-.2-.272.962Zm1.25-.652-.357.924.349.132a1.167,1.167,0,0,0,.171.047.516.516,0,0,0,.163-.023.417.417,0,0,0,.163-.124.529.529,0,0,0,.1-.186.715.715,0,0,0,.054-.233.47.47,0,0,0-.031-.186.379.379,0,0,0-.109-.14.69.69,0,0,0-.171-.085L12.9,1.281Zm.132.225-.233.613.14.054a.32.32,0,0,0,.116.031.191.191,0,0,0,.093-.008.21.21,0,0,0,.085-.07.776.776,0,0,0,.085-.163.716.716,0,0,0,.047-.171.4.4,0,0,0-.016-.109.22.22,0,0,0-.07-.078.9.9,0,0,0-.147-.07l-.1-.031ZM13.45,2.6l.179.093.45-.885L13.9,1.715Zm.489-.931.163.085.085-.163-.163-.085Zm.078,1.242.171.109.212-.35.613-.3-.194-.124-.4.21L14.428,2l-.2-.124v.683l-.21.349Zm.543.373.6.466.1-.132-.435-.341.163-.21.4.3.1-.132-.4-.3.132-.171.419.326.1-.132-.582-.45-.6.776Zm.924.334a.4.4,0,0,0-.1.264.482.482,0,0,0,.14.272.529.529,0,0,0,.179.132.327.327,0,0,0,.171.023A.311.311,0,0,0,16.1,4.09a.316.316,0,0,0,0-.147.8.8,0,0,0-.1-.2.421.421,0,0,1-.078-.179.088.088,0,0,1,.023-.062.1.1,0,0,1,.07-.023.292.292,0,0,1,.124.07.161.161,0,0,1,.023.233l.147.14a.276.276,0,0,0,.085-.225.389.389,0,0,0-.14-.256.532.532,0,0,0-.163-.116.264.264,0,0,0-.287.054.247.247,0,0,0-.078.2.572.572,0,0,0,.085.233.935.935,0,0,1,.078.147.12.12,0,0,1,.016.085.079.079,0,0,1-.031.054.115.115,0,0,1-.1.031.266.266,0,0,1-.132-.078.3.3,0,0,1-.07-.14.269.269,0,0,1,.054-.155l-.147-.14Zm.427.924.132.147.745-.652-.132-.147-.745.652Zm.792-.683.124.14.132-.116-.124-.14Zm-.078,1.087a.383.383,0,0,0-.147.241.4.4,0,0,0,.085.287.608.608,0,0,0,.147.163.273.273,0,0,0,.163.054.305.305,0,0,0,.163-.047.255.255,0,0,0,.109-.116.239.239,0,0,0,.023-.147,1.246,1.246,0,0,0-.054-.217.723.723,0,0,1-.047-.194.065.065,0,0,1,.031-.054.075.075,0,0,1,.07-.008.228.228,0,0,1,.1.093.167.167,0,0,1,.039.124.159.159,0,0,1-.062.109l.116.163a.294.294,0,0,0,.132-.2.418.418,0,0,0-.085-.279.615.615,0,0,0-.132-.147.28.28,0,0,0-.155-.047.268.268,0,0,0-.14.039.254.254,0,0,0-.116.186.63.63,0,0,0,.039.241c.031.078.047.132.054.155a.157.157,0,0,1,0,.085.063.063,0,0,1-.039.047.108.108,0,0,1-.109.008.271.271,0,0,1-.116-.1.223.223,0,0,1-.039-.147.23.23,0,0,1,.085-.14l-.116-.147Zm.241.993.093.179.334-.179.062.116a1.058,1.058,0,0,0,.109.179.212.212,0,0,0,.093.07.325.325,0,0,0,.124.031.274.274,0,0,0,.147-.047.3.3,0,0,0,.14-.14.261.261,0,0,0,.016-.171.9.9,0,0,0-.1-.217l-.147-.287-.869.466Zm.823-.21-.248.132.054.093a.764.764,0,0,0,.085.132.128.128,0,0,0,.147.016.11.11,0,0,0,.062-.07.189.189,0,0,0,0-.093c-.008-.023-.031-.07-.062-.132l-.039-.078Zm.023.854a.556.556,0,0,0-.31.241.474.474,0,0,0-.016.373.451.451,0,0,0,.241.287.5.5,0,0,0,.4,0,.529.529,0,0,0,.318-.248.474.474,0,0,0,.016-.373.439.439,0,0,0-.109-.186.374.374,0,0,0-.124-.093.591.591,0,0,0-.155-.047.816.816,0,0,0-.256.047Zm.078.194a.369.369,0,0,0-.217.155.238.238,0,0,0-.016.217A.244.244,0,0,0,17.7,7.3a.41.41,0,0,0,.272-.008.369.369,0,0,0,.217-.155A.262.262,0,0,0,18.2,6.92a.257.257,0,0,0-.147-.163.373.373,0,0,0-.272.016ZM17.6,7.809,17.633,8l.4-.078.008.039a.557.557,0,0,1,.008.1.139.139,0,0,1-.031.07.785.785,0,0,1-.124.132l-.186.186.047.233.171-.155c.07-.062.109-.109.14-.14a.464.464,0,0,0,.062-.124.351.351,0,0,0,.124.179.275.275,0,0,0,.194.031.326.326,0,0,0,.147-.07.221.221,0,0,0,.07-.132.9.9,0,0,0-.016-.233l-.078-.411-.978.179Zm.6.085.031.147a.464.464,0,0,0,.047.171.1.1,0,0,0,.054.047.239.239,0,0,0,.078.008.243.243,0,0,0,.078-.039.139.139,0,0,0,.023-.085A1.46,1.46,0,0,0,18.484,8l-.031-.155L18.2,7.9Zm-.38,1.273.008.2.3-.008.171.155-.458.287.008.256.59-.411.4.357-.008-.272-.458-.388.442-.016-.008-.2-.986.039Zm.978,1.079-.528-.039a1.291,1.291,0,0,0-.248,0,.366.366,0,0,0-.116.047.258.258,0,0,0-.093.109.6.6,0,0,0-.047.21.505.505,0,0,0,.016.194.324.324,0,0,0,.07.124.292.292,0,0,0,.116.07,1.226,1.226,0,0,0,.248.031l.52.039.016-.2-.543-.039c-.078-.008-.132-.016-.171-.023a.142.142,0,0,1-.078-.054.178.178,0,0,1-.023-.132.224.224,0,0,1,.047-.132.162.162,0,0,1,.1-.054c.023,0,.078,0,.163.008l.536.039.016-.194ZM17.7,11.16l-.147.683.163.031.1-.489.8.171.039-.194-.955-.2Zm.753,1.133-.5-.163a1.894,1.894,0,0,0-.248-.062.251.251,0,0,0-.124.023.372.372,0,0,0-.116.085.494.494,0,0,0-.1.194.663.663,0,0,0-.031.194.3.3,0,0,0,.039.132.236.236,0,0,0,.1.093,2.34,2.34,0,0,0,.233.093l.5.163.062-.186-.52-.171a.886.886,0,0,1-.155-.062.107.107,0,0,1-.062-.078.2.2,0,0,1,.008-.132A.184.184,0,0,1,17.6,12.3a.178.178,0,0,1,.109-.031.683.683,0,0,1,.163.047l.512.163.062-.186Zm.008.179-.047.155.155.047.054-.155-.163-.047Zm-.093.272-.054.155.155.047.054-.155Zm-.3.644-.885-.45-.155.3c-.054.116-.093.186-.1.217a.3.3,0,0,0-.016.14.255.255,0,0,0,.054.124.259.259,0,0,0,.1.085.273.273,0,0,0,.155.023.224.224,0,0,0,.14-.085.255.255,0,0,0,.031.132.268.268,0,0,0,.093.093.16.16,0,0,0,.116.023.253.253,0,0,0,.109-.031.243.243,0,0,0,.085-.07.859.859,0,0,0,.085-.155l.186-.349Zm-.241.1-.2-.1-.062.116a1.284,1.284,0,0,0-.062.132.112.112,0,0,0-.008.085.138.138,0,0,0,.054.062.094.094,0,0,0,.078.008.1.1,0,0,0,.062-.054c.008-.016.039-.07.078-.147l.062-.1Zm-.349-.179-.233-.116-.085.163a.57.57,0,0,0-.054.124.159.159,0,0,0,0,.085.12.12,0,0,0,.062.062.14.14,0,0,0,.078.016.107.107,0,0,0,.07-.039.552.552,0,0,0,.093-.155l.07-.14Zm.085,1.032-.45-.279a.889.889,0,0,0-.225-.116.222.222,0,0,0-.124-.008.319.319,0,0,0-.132.054.5.5,0,0,0-.14.163.565.565,0,0,0-.078.179.274.274,0,0,0,.008.14.339.339,0,0,0,.078.116,1.128,1.128,0,0,0,.2.147l.442.279.109-.171-.466-.287a.7.7,0,0,1-.14-.093.177.177,0,0,1-.047-.093.167.167,0,0,1,.039-.124.228.228,0,0,1,.1-.093.151.151,0,0,1,.116,0A1.393,1.393,0,0,1,17,14.24l.458.287.1-.186Zm-.039.171-.085.14.14.085.085-.14Zm-.155.248-.085.14.14.085.085-.14ZM8.545,18.937V17.68h-.2a.474.474,0,0,1-.155.2A.973.973,0,0,1,7.98,18v.217a.914.914,0,0,0,.318-.178v.9Zm.373-.3a.372.372,0,0,0,.116.233.346.346,0,0,0,.241.078.416.416,0,0,0,.334-.155.761.761,0,0,0,.132-.5.716.716,0,0,0-.124-.481A.39.39,0,0,0,9.3,17.67a.4.4,0,0,0-.3.118.463.463,0,0,0,0,.606.343.343,0,0,0,.256.116.3.3,0,0,0,.233-.109.544.544,0,0,1-.07.287.162.162,0,0,1-.132.07.124.124,0,0,1-.093-.031.177.177,0,0,1-.047-.109l-.225.023Zm.551-.52a.246.246,0,0,0-.054-.179.175.175,0,0,0-.124-.062.117.117,0,0,0-.109.054.264.264,0,0,0-.047.171.288.288,0,0,0,.047.179.145.145,0,0,0,.124.054.14.14,0,0,0,.116-.054.255.255,0,0,0,.047-.163Zm.435.52a.372.372,0,0,0,.116.233.346.346,0,0,0,.241.078A.416.416,0,0,0,10.6,18.8a.761.761,0,0,0,.132-.5.716.716,0,0,0-.124-.481.39.39,0,0,0-.318-.147.4.4,0,0,0-.3.116.463.463,0,0,0-.008.6.332.332,0,0,0,.256.116.3.3,0,0,0,.233-.109.544.544,0,0,1-.07.287.162.162,0,0,1-.132.07.124.124,0,0,1-.093-.031.177.177,0,0,1-.047-.109l-.225.023Zm.551-.52a.246.246,0,0,0-.054-.179.175.175,0,0,0-.124-.062.117.117,0,0,0-.109.054.264.264,0,0,0-.047.171.288.288,0,0,0,.047.179.145.145,0,0,0,.124.054.14.14,0,0,0,.116-.054A.255.255,0,0,0,10.455,18.122Zm.846-.442a.351.351,0,0,0-.287.132.8.8,0,0,0-.124.512.789.789,0,0,0,.116.5.375.375,0,0,0,.3.14.345.345,0,0,0,.287-.124.8.8,0,0,0,.124-.512.815.815,0,0,0-.124-.512.354.354,0,0,0-.3-.132Zm0,.194a.1.1,0,0,0-.078.031.2.2,0,0,0-.054.1,1.422,1.422,0,0,0-.023.31,1.293,1.293,0,0,0,.023.3.2.2,0,0,0,.054.109.138.138,0,0,0,.078.031.1.1,0,0,0,.078-.031.2.2,0,0,0,.054-.1,1.421,1.421,0,0,0,.023-.31,1.293,1.293,0,0,0-.023-.3.2.2,0,0,0-.054-.109A.138.138,0,0,0,11.3,17.874ZM9.794,2.212a7.582,7.582,0,1,0,7.583,7.582A7.582,7.582,0,0,0,9.794,2.212Z" fill="#0b0539" fill-rule="evenodd"/><path d="M71.415,50.64h.295s.008.023.008-.256v-.9h0l.225-1.583h.07l.248,1.467h0a2.474,2.474,0,0,1,.031.264c0,.078.008,1,.008,1v-.008l.574.008.016-.978h0l.031-.3.225-1.451h.062l.225,1.475h0a1.378,1.378,0,0,1,.031.241l.023,1.017v-.008l.31.008v.225l-.31.427-.008,1.125h.559V51.4h0s.039-.334.062-.466l.2-1.374h.054l.194,1.374h0l.062.6c0,.279.016.861.016.861h.295v.3l-.295.357v.978h0a1.256,1.256,0,0,1,1-.621,1.046,1.046,0,0,1,1.04.73h0l-2.049.023.008,1.024h0a1.431,1.431,0,0,1,1.2-.582,1.243,1.243,0,0,1,1.226.846H74.643l-.008.016s.295,2.584-2.181,2.623c-.186-.008-2.072-.217-1.932-2.615h0L68,55.514h0a1.3,1.3,0,0,1,1.288-.924,1.355,1.355,0,0,1,1.187.66h.039l-.008-1.094-2.018-.023h0A1.08,1.08,0,0,1,69.5,53.45a1.052,1.052,0,0,1,.97.6h0l.039-.008v-.97l-.287-.357v-.3h.287l.016-1h0s.039-.419.054-.512.186-1.327.186-1.327h.078l.21,1.327h0a5.22,5.22,0,0,1,.062.66c-.008.2.008.861.008.861h.58V51.3l-.295-.427.008-.233Zm.916.652v1.125h.559V51.292l-.287-.279-.272.279Zm-1.2,1.785v1.529a2.13,2.13,0,0,1,.605-.427l-.008-1.1-.318-.31-.279.31Zm1.2,0,.016.939a2.355,2.355,0,0,1,.52.008l.016-.947-.287-.3-.264.3Zm1.156,1.141a1.852,1.852,0,0,1,.536.388V53.077l-.279-.31-.272.31.016,1.141Zm-2,1.2H72.5l-.5-.869-.5.869Zm1.18-.008h1.009l-.5-.869-.5.869Zm-1.793,1.079h1.009l-.5-.869-.5.869ZM72.1,56.46h1.009l-.5-.869-.5.869Zm1.218,0h1.009l-.5-.869-.5.869ZM72.7,57.485h1l-.5-.869Zm-1.2,0h1.009l-.5-.869-.5.869Zm-2.98-1.7a3.466,3.466,0,0,0,.6,2.421,3.921,3.921,0,0,0,3.267,1.847h0V58.5h0a2.58,2.58,0,0,1-2.266-2.716H69.8v.3l-.264.008v-.3l-.38.008-.008.3-.241.008V55.79l-.388-.008Zm4.3,2.685v1.575h0a3.96,3.96,0,0,0,3.811-3.609,4.808,4.808,0,0,0-.016-.66h-.349l.008.31h-.287V55.77l-.334.008-.008.31L75.4,56.1v-.33h-.373v-.008A2.484,2.484,0,0,1,72.82,58.47Z" transform="translate(-62.722 -44.182)" fill="#0b0539" fill-rule="evenodd"/></g></g></svg>