<svg xmlns="http://www.w3.org/2000/svg" width="117.971" height="99.94" viewBox="0 0 117.971 99.94"><g transform="translate(-0.111)"><g transform="translate(26.744 53.881)"><path d="M16.4,16.9,1.4,8.3A2.411,2.411,0,0,1,2.6,3.7h0a4.312,4.312,0,0,0,2.7-.6,4.939,4.939,0,0,0,2-1.8V1.2A2.66,2.66,0,0,1,10.7.3h0L24.8,8.4l.2.1h0a5.3,5.3,0,0,1,2.1,2.1,6.083,6.083,0,0,1,.8,2.7V33.4a5.8,5.8,0,0,1-11.6,0Z" fill="#0b0539"/></g><g transform="translate(45.321 24.112)"><path d="M2.5,0,0,12.9l3.9,2.9c.1,0,.2.1.3.1h.1c.4.1.9.2,1.4.3A7.719,7.719,0,0,0,7.2,16l11-2.4a4.468,4.468,0,0,0,2.8-2,4.651,4.651,0,0,0-1.4-6.3,4.486,4.486,0,0,0-3.4-.6L6.3,7Z" fill="#0b0539" fill-rule="evenodd"/></g><g transform="translate(0 50.018)"><path d="M14.3,21.2,19.5.6c0-.2.1-.4.1-.6A5.638,5.638,0,0,0,20,1.2a10.856,10.856,0,0,0,5.9,6,26.136,26.136,0,0,0,4.6.8,143.975,143.975,0,0,1-6.6,19.6,2.092,2.092,0,0,1-.4.6h0L10.3,43.6c0,.1-.1.1-.1.2h0a5.531,5.531,0,0,1-3.9,2,5.952,5.952,0,0,1-4.2-1.4,5.665,5.665,0,0,1-.7-7.9c0-.1.1-.1.1-.2h0Z" fill="#0b0539"/></g><g transform="translate(35.395)"><path d="M10.2,0A10.25,10.25,0,1,1,0,10.3,10.459,10.459,0,0,1,3,3,10.224,10.224,0,0,1,10.2,0Z" fill="#0b0539"/></g><g transform="translate(40.707 35.551)"><path d="M4.9.4A.864.864,0,0,0,4.3.1L4.2,0A1.346,1.346,0,0,0,2.7.8V.9L0,7.2a1.8,1.8,0,0,0,.2,1L.6,9A20.969,20.969,0,0,0,3,13.1l.3.2h.1l6.5,5.2c.1.1.2.1.2.2a4.623,4.623,0,0,0,3.2.9,5.219,5.219,0,0,0,3-1.6l.2-.2a4.623,4.623,0,0,0,.9-3.2,5.219,5.219,0,0,0-1.6-3c-.1-.1-.2-.1-.2-.2L9.9,7l-.1-.2A35.349,35.349,0,0,0,7.4,3.4c-.8-1-1.6-2-2.5-3Z" fill="#0b0539" fill-rule="evenodd"/></g><g transform="translate(78.764 58.394)"><path d="M1.7,38.7A5.835,5.835,0,0,1,0,34.6V16.1a5.291,5.291,0,0,1,.9-3,5.775,5.775,0,0,1,2.1-2L17.3.6c.1,0,.1-.1.2-.1a2.426,2.426,0,0,1,3.4.6h0l-2,1.4,2-1.4.6.9a7.993,7.993,0,0,0,1.3,1.3,4.594,4.594,0,0,0,1.6.7h.4a2.361,2.361,0,0,1,1.4,3.1h0a5.854,5.854,0,0,1-1,1.7A5.263,5.263,0,0,1,23.8,10L11.6,19.1V34.5a5.957,5.957,0,0,1-5.9,5.8,5.946,5.946,0,0,1-4-1.6Z" fill="#0b0539"/></g><g transform="translate(63.13 27.993)"><path d="M37.6,38.7a9.924,9.924,0,0,1-4.5-3.6l-2.6-3.7c-.1.1-.2.2-.2.3a5.957,5.957,0,0,1-2.1,1.4h-.1l-20.3,8a.6.6,0,0,1-.4.1,5.526,5.526,0,0,1-4-.1A5.3,5.3,0,0,1,.5,38.3c-.1-.1-.1-.3-.2-.4a5.526,5.526,0,0,1,.1-4A5.849,5.849,0,0,1,3.3,31c.1-.1.3-.1.4-.2l17.8-7.1,1-3.9-2.8-4A10.518,10.518,0,0,1,18,8.3a10.126,10.126,0,0,1,18.3-4L49.8,23.5a9.1,9.1,0,0,1,1.6,3.8,10.887,10.887,0,0,1,.1,3.6v.3h0l3.4,34.1v.1h0v.1h0a5.368,5.368,0,0,1-1.1,4.1,5.762,5.762,0,0,1-8.1,1.2,6.215,6.215,0,0,1-2.2-3.5c0-.1-.1-.3-.1-.4h0L40.7,39.3A8.149,8.149,0,0,1,37.6,38.7Z" fill="#0b0539"/></g><g transform="translate(74.337 8.589)"><path d="M10.2,0A10.25,10.25,0,1,1,0,10.3,10.459,10.459,0,0,1,3,3,10.224,10.224,0,0,1,10.2,0Z" fill="#0b0539"/></g><g transform="translate(63.687 29.907)"><path d="M4.9,11.7a4.908,4.908,0,0,0-3.1.9,4.381,4.381,0,0,0-1.7,3A4.582,4.582,0,0,0,4,20.7h.1c2.3.3,4.6.7,6.9.8a12.62,12.62,0,0,0,3.9-.3,8.449,8.449,0,0,0,2.7-1.3c1.3-.8,2.5-1.8,3.8-2.7.3-.2,2.5-7.4,2.8-7.7l-1.5-2,2-1.5.6.8L23.9,5A6.079,6.079,0,0,1,23,3.2a6.448,6.448,0,0,1-.3-2V1.1A1.11,1.11,0,0,0,21.6,0a2.353,2.353,0,0,0-.8.2,2.036,2.036,0,0,0-.7.6l-.6.6-.1.1L13.2,12.2l-8.3-.5Z" fill="#0b0539" fill-rule="evenodd"/></g><g transform="translate(19.187 18.984)"><path d="M23.8.7h0a9.78,9.78,0,0,1,5.3,12.8L18.9,37.9A9.977,9.977,0,0,1,6,43.2H6A9.78,9.78,0,0,1,.7,30.4L10.9,6A9.977,9.977,0,0,1,23.8.7Z" fill="#0b0539" fill-rule="evenodd"/></g></g></svg>