<svg xmlns="http://www.w3.org/2000/svg" width="111.988" height="100.002" viewBox="0 0 111.988 100.002"><g transform="translate(0 0.002)"><path d="M103.4,90.4a5.463,5.463,0,0,1-7.8-.7L63,51,52.4,57.9a6.472,6.472,0,0,0-2.7,7c4.9,17.3,4.9,17.7,4.9,18.7A5.445,5.445,0,0,1,49,89.1a5.584,5.584,0,0,1-5.5-4.7c-.1-.6-.9-3.5-4.5-16.5a17.33,17.33,0,0,1,7.3-19.3l2.4-1.5a75.173,75.173,0,0,1-18,6.2,3.4,3.4,0,0,1-1,.1h-.4L19.4,82.8a.758.758,0,0,1-.2.4,4.4,4.4,0,0,1-2.4,2.6L6,90.1a4.671,4.671,0,0,1-1.7.3A4.268,4.268,0,0,1,0,86.1a4.312,4.312,0,0,1,2.7-4l10.8-4.4a4.132,4.132,0,0,1,3.6.2l8.8-26a5.645,5.645,0,0,1-1.7-3,5.558,5.558,0,0,1,4.4-6.5h0c.2,0,.3-.1.5-.1l2.4-7.1a14.972,14.972,0,0,1-7.2-9.8A14.575,14.575,0,0,1,27.2,13c3.3-4.1,9.7-6.6,15.2-7.7a13.339,13.339,0,0,0,.7,11.2c-3.2.9-6.2,2.3-7.2,3.4a4.011,4.011,0,0,0-.8,3.2A3.644,3.644,0,0,0,37,25.7a5.5,5.5,0,0,1,2.4,7.4,5.422,5.422,0,0,1-4.3,3l-1.8,5.1c10.5-3.2,21.8-10.1,24.1-13a12.206,12.206,0,0,0,2.4-5,13.726,13.726,0,0,0,8.9-9.1,13.683,13.683,0,0,1,2.1,5.5c.6,3.5.3,8.9-4.6,15.3a16.605,16.605,0,0,1-1.3,1.4l38.9,46.2a5.312,5.312,0,0,1-.4,7.9ZM55.5,20.3A10.151,10.151,0,1,0,45.2,10.1,10.158,10.158,0,0,0,55.5,20.3Zm56,76.6-3.6-4a1.786,1.786,0,0,0-2.6-.1,1.871,1.871,0,0,0-.1,2.6l3.6,4a1.816,1.816,0,0,0,1.4.6,2.106,2.106,0,0,0,1.3-.5,1.973,1.973,0,0,0,0-2.6ZM56,88l-6.6,4.4a1.36,1.36,0,0,1-1.7-.1L46.5,91A1.84,1.84,0,1,0,44,93.7L45.3,95a5,5,0,0,0,3.5,1.4,4.678,4.678,0,0,0,2.8-.9l6.6-4.4a1.782,1.782,0,0,0,.5-2.5h0A2.072,2.072,0,0,0,56,88Z" fill="#0b0539"/></g></svg>