<svg xmlns="http://www.w3.org/2000/svg" width="128.316" height="100.1" viewBox="0 0 128.316 100.1"><path d="M61.5,0c.3.3.8.2,1.1.3A6.748,6.748,0,0,1,67.8,4c.2.3.4.7.6,1a1.142,1.142,0,0,0,1.5.6H70a3.5,3.5,0,0,1,4.5,2.6c.1.4-.1,1.1.3,1.3.8.2,1.4.9,2.3.8h.6a5.044,5.044,0,0,1,4.4,1.9,31.5,31.5,0,0,1,4.5,6.9H82.8a31.825,31.825,0,0,1,1.6,3.2H79.8a.576.576,0,0,1-.6-.6,2.332,2.332,0,0,0-2.6-1.9c-.1,0-.3.1-.4.1a2.719,2.719,0,0,1-.9,0c-.5.1-.8-.1-.8-.7-.1-.9-.6-1-1.4-1-1.8.1-1.8,0-1.6,1.7a6.6,6.6,0,0,1,.1,1.4c.1,1.5.1,1.5,1.6,1.7,2.7.3,5.3.6,8,1,2.3.4,4.5-.3,6.7-.8A91.312,91.312,0,0,1,106,21.1a38.844,38.844,0,0,0,12.6-2.2,4.742,4.742,0,0,0,2.6-2c1-1.7,2.1-3.4,3.1-5.1a11.977,11.977,0,0,0,1.5-4.5c.1-.4.1-.9.5-1,.6,0,.6.6.7,1a14.7,14.7,0,0,1-.6,5.9,6.373,6.373,0,0,0-.2.7v.4c.5-.2.7-.7,1.1-1,.2-.2.4-.3.6-.2a.33.33,0,0,1,0,.5,6.83,6.83,0,0,1-1.7,2.8,11.18,11.18,0,0,0-1.9,2.9,3.782,3.782,0,0,1-2.8,2.4,5.667,5.667,0,0,0-2.3,1.2,14.8,14.8,0,0,1-5.1,2.3c-1.3.3-1.5.7-1.1,2,.5,1.5,1.1,3,1.7,4.6a10.3,10.3,0,0,1,.6,3.5,2.241,2.241,0,0,1-2.2,2.3h-.3a5.547,5.547,0,0,1-2.8-.7c-3.1-1.9-6.5-1.9-9.9-1.7-4.9.3-9.7.8-14.6,1.2a2.977,2.977,0,0,0-2.8,2.3,23.151,23.151,0,0,0-.7,6.9q0,3.3.3,6.6a1.482,1.482,0,0,0,.8,1.2,40.446,40.446,0,0,0,10.7,3.4c3.2.7,6.5,1.4,9.7,2.1a4.971,4.971,0,0,1,2.9,1.8A24.8,24.8,0,0,1,111.5,74c.2,2.1.3,4.3.4,6.5a2.271,2.271,0,0,0,.6,1.6,14.087,14.087,0,0,1,2.2,4.2,3.059,3.059,0,0,1-1.7,4c-.2.1-.4.1-.6.2-.1.1-.3.1-.6.2.7.5,1.3,1,1.9,1.4a46.982,46.982,0,0,1,5.3,3.8l.6.6A1.439,1.439,0,0,1,120,98c-.2.6-.8.7-1.4.8a17.573,17.573,0,0,1-7.9-.9c-2.5-.9-5-1.7-7.5-2.5a5.45,5.45,0,0,1-2.4-1.2,1.747,1.747,0,0,0-1.7-.3,5.744,5.744,0,0,1-6.6-4.6,4.869,4.869,0,0,1-.1-1.2,22.155,22.155,0,0,1,.5-4.5,1.531,1.531,0,0,0-.2-1.3c-.9-1.5-1.7-3-2.6-4.5A4.9,4.9,0,0,0,88.4,76a71.708,71.708,0,0,1-6.9-4.3,3.972,3.972,0,0,0-4.2-.3,17.507,17.507,0,0,1-10.8,1.7,5.784,5.784,0,0,1-3.4-1.4,1.561,1.561,0,0,0-1.8-.4,20.5,20.5,0,0,0-7.1,3.5,14.135,14.135,0,0,1-3.4,1.9,22.787,22.787,0,0,0-6.1,4.6,3.418,3.418,0,0,0-.9,2.9,10.335,10.335,0,0,1-4.1,9.9,5.173,5.173,0,0,1-4.3,1.1,5.951,5.951,0,0,0-4.1.9,45.978,45.978,0,0,1-9.5,3.8,5.7,5.7,0,0,1-1.3.1c-2.1-.2-2.8-1.7-1.6-3.4a15.371,15.371,0,0,1,1.7-1.9c.9-.8,1.8-1.6,2.7-2.5A8.641,8.641,0,0,1,20.2,89a5.738,5.738,0,0,1,.1-6.4,12.192,12.192,0,0,1,3.1-3.3,4.281,4.281,0,0,0,1.4-1.6c2.6-4.5,4.6-9.2,6.8-13.8A13.351,13.351,0,0,1,35,59.5a5.884,5.884,0,0,1,3.7-1.4c4.3-.5,8.6-1,12.9-1.6h.2c1.7-.3,1.9-.5,1.2-2.1-2-4.5-3.9-9.1-5.8-13.6a8.407,8.407,0,0,0-6.7-5.2c-4.5-.8-9-1.8-13.5-2.4a40.7,40.7,0,0,0-5-.3,7.3,7.3,0,0,0-3.5.9,11.589,11.589,0,0,1-4,1.6c-2.1.4-3.3-.6-3.2-2.7a7.646,7.646,0,0,1,1.1-3.2c1-1.8,2.1-3.7,3.2-5.5.3-.6.4-.8-.3-1.1a56.134,56.134,0,0,0-9.8-3.2A7.066,7.066,0,0,1,3,18.6c-.5-.3-1.1-.7-1.1-1.4C1.8,15.2.7,13.6-.3,12v-.8a1.575,1.575,0,0,1,1.3.4c.2.2.4.6.7.4s.1-.6,0-.8A20.747,20.747,0,0,1,2,4.1c.1-.5.2-1.4.7-1.4.6,0,.5.9.5,1.4a18.918,18.918,0,0,0,2.7,9A6.87,6.87,0,0,0,9,16.3a26.562,26.562,0,0,0,8.8,1.8,38.269,38.269,0,0,1,8.9,1.3c5.8,1.6,11.7,3.1,17.5,4.7a4.126,4.126,0,0,0,2.9-.2A14.628,14.628,0,0,1,52,22.4a.809.809,0,0,0,.9-.8,6.039,6.039,0,0,0-1.8-4.4c-.9-.8-.6-1.1-.2-1.8a2.458,2.458,0,0,0,.5-2.7c-1.3-2.9-.7-5.6.9-8.2.1-.2.3-.4.2-.5-.2-1.9,1.1-2.5,2.4-3.2a19.164,19.164,0,0,1,3.2-.9C59.4,0,60.4,0,61.5,0Z" transform="translate(0.301 0.1)" fill="#0b0539"/></svg>