<svg xmlns="http://www.w3.org/2000/svg" viewBox="0 0 30 30">
  <defs>
    <style>
      .cls-1 {
        fill: #fff;
      }
    </style>
  </defs>
  <g id="Group_2462" data-name="Group 2462" transform="translate(-1539 -71.4)">
    <path id="Path_7345" data-name="Path 7345" class="cls-1" d="M1553.432,71.4a15.468,15.468,0,0,0-11.432,6c4.53-2.888,10.269-3.562,12-3.712A14.57,14.57,0,0,0,1553.432,71.4Zm10.2,20.5c.722-2.269,2.729-9.872-.094-17.137a15.16,15.16,0,0,0-3.151-1.866A26.589,26.589,0,0,1,1560,89.944,34.4,34.4,0,0,0,1563.635,91.9Zm-10.137-10a18.773,18.773,0,0,0-14.264,6.188.862.862,0,0,1-.234.178,15.4,15.4,0,0,0,1.454,5.128c3.723-4.031,10.25-6.572,12.426-7.35C1553,85.434,1553.292,83.878,1553.5,81.9Zm5.12,6.5c.779-2.222,2.8-9.319-.262-16.491a16.042,16.042,0,0,0-3.245-.506c1.622,5.344.3,12.422-.113,14.372C1555.561,86.222,1556.884,87.262,1558.618,88.4Zm-4.7-8.616a31.032,31.032,0,0,0,.009-4.387c-1.885.169-10.147,1.191-14.048,6.188a.976.976,0,0,1-.235.206A14.872,14.872,0,0,0,1539,85.4,20.987,20.987,0,0,1,1553.92,79.781ZM1542.976,93.4a14.719,14.719,0,0,0-1.407,1.341.252.252,0,0,1-.075.066,15.265,15.265,0,0,0,15,6.394A25.385,25.385,0,0,1,1542.976,93.4Zm6.518-4.275a28.466,28.466,0,0,0,14.939,7.772,14.713,14.713,0,0,0,2.073-2.494c-5.458-1.163-11.132-5.672-12.717-7A41.983,41.983,0,0,0,1549.494,89.128ZM1565.877,77.4A31.383,31.383,0,0,1,1565,92.672a14.512,14.512,0,0,0,2.307.666.635.635,0,0,1,.188.066,15.535,15.535,0,0,0-1.622-16Zm-17.921,12.5a30.138,30.138,0,0,0-3.46,2.1,24.214,24.214,0,0,0,16.064,7.9,14.5,14.5,0,0,0,2.448-1.425A30.485,30.485,0,0,1,1547.956,89.9Z" transform="translate(0 0)"/>
  </g>
</svg>
