<svg xmlns="http://www.w3.org/2000/svg" width="181" height="180.95" viewBox="0 0 181 180.95">
  <g id="buzpateni" transform="translate(-1247.546 300.674)">
    <g id="Group_3388" data-name="Group 3388" transform="translate(-5701.464 -2702.821)">
      <g id="Group_3095" data-name="Group 3095">
        <path id="Path_10858" data-name="Path 10858" d="M7043.913,2542.405a.386.386,0,0,1,.428-.339l.016,0a22.705,22.705,0,0,0,5.729-.12c3.286-.364,6.521.562,6.408,4.75a.384.384,0,0,1-.394.372.315.315,0,0,1-.055-.006c-.665-.119-2.318-.189-6.277.447C7045.187,2548.245,7043.544,2545.561,7043.913,2542.405Z" fill="#142266"/>
        <path id="Path_10859" data-name="Path 10859" d="M7040.332,2541.885a.385.385,0,0,0,.489.241l.011,0a22.681,22.681,0,0,1,5.632-1.056c3.291-.317,6.269-1.884,5.3-5.962a.384.384,0,0,0-.464-.282.373.373,0,0,0-.051.016c-.626.254-2.23.66-6.236.849C7040.387,2535.905,7039.328,2538.871,7040.332,2541.885Z" fill="#142266"/>
      </g>
      <g id="Group_3096" data-name="Group 3096">
        <path id="Path_10860" data-name="Path 10860" d="M7057.862,2540.045a.385.385,0,0,1,.349-.42h.016a22.808,22.808,0,0,0,5.579-1.308c3.138-1.039,6.5-.807,7.256,3.314a.385.385,0,0,1-.31.446.442.442,0,0,1-.053.006c-.675.021-2.307.3-6.048,1.741C7060.325,2545.487,7058.161,2543.207,7057.862,2540.045Z" fill="#142266"/>
        <path id="Path_10861" data-name="Path 10861" d="M7054.255,2540.278a.386.386,0,0,0,.528.137l.014-.008a22.734,22.734,0,0,1,5.289-2.2c3.153-.993,5.74-3.146,3.945-6.933a.384.384,0,0,0-.513-.181.391.391,0,0,0-.046.027c-.56.378-2.044,1.109-5.923,2.127C7053.065,2534.42,7052.646,2537.539,7054.255,2540.278Z" fill="#142266"/>
      </g>
      <g id="Group_3097" data-name="Group 3097">
        <path id="Path_10862" data-name="Path 10862" d="M7071.019,2534.835a.386.386,0,0,1,.253-.484l.016,0a22.813,22.813,0,0,0,5.185-2.439c2.854-1.669,6.186-2.14,7.786,1.733a.384.384,0,0,1-.211.5.4.4,0,0,1-.05.017c-.656.161-2.194.77-5.553,2.96C7074.566,2539.65,7071.966,2537.865,7071.019,2534.835Z" fill="#142266"/>
        <path id="Path_10863" data-name="Path 10863" d="M7067.538,2535.815a.386.386,0,0,0,.545.023l.012-.011a22.668,22.668,0,0,1,4.716-3.255c2.877-1.627,4.96-4.271,2.417-7.6a.383.383,0,0,0-.537-.071.387.387,0,0,0-.041.036c-.469.486-1.769,1.51-5.351,3.312C7065.157,2530.332,7065.4,2533.469,7067.538,2535.815Z" fill="#142266"/>
      </g>
      <g id="Group_3098" data-name="Group 3098">
        <path id="Path_10864" data-name="Path 10864" d="M7082.807,2527a.387.387,0,0,1,.148-.526l.014-.007a22.8,22.8,0,0,0,4.564-3.464c2.444-2.226,5.6-3.379,7.976.076a.383.383,0,0,1-.1.532c-.016.01-.032.02-.048.028-.608.294-1.986,1.21-4.816,4.05C7087.272,2530.977,7084.366,2529.771,7082.807,2527Z" fill="#142266"/>
        <path id="Path_10865" data-name="Path 10865" d="M7079.606,2528.685a.386.386,0,0,0,.538-.088l.009-.012a22.724,22.724,0,0,1,3.936-4.164c2.476-2.19,3.964-5.209.784-7.938a.383.383,0,0,0-.573.087c-.358.573-1.417,1.844-4.546,4.352C7076.136,2523.817,7077.022,2526.837,7079.606,2528.685Z" fill="#142266"/>
      </g>
      <g id="Group_3099" data-name="Group 3099">
        <path id="Path_10866" data-name="Path 10866" d="M7092.706,2516.893a.386.386,0,0,1,.035-.545l.012-.01A22.751,22.751,0,0,0,7096.5,2512c1.928-2.685,4.781-4.47,7.818-1.584a.385.385,0,0,1,.012.543c-.013.013-.026.025-.04.036-.533.414-1.692,1.6-3.869,4.963C7097.9,2519.85,7094.806,2519.276,7092.706,2516.893Z" fill="#142266"/>
        <path id="Path_10867" data-name="Path 10867" d="M7089.925,2519.2a.386.386,0,0,0,.508-.2l.006-.014a22.725,22.725,0,0,1,2.984-4.891c1.967-2.657,2.795-5.919-.883-7.928a.383.383,0,0,0-.521.153.4.4,0,0,0-.021.047c-.231.635-1,2.1-3.542,5.2C7085.519,2515.162,7087.009,2517.932,7089.925,2519.2Z" fill="#142266"/>
      </g>
      <g id="Group_3100" data-name="Group 3100">
        <path id="Path_10868" data-name="Path 10868" d="M7100.288,2504.949a.387.387,0,0,1-.079-.541l.01-.012a22.783,22.783,0,0,0,2.761-5.021c1.327-3.028,3.746-5.367,7.318-3.175a.381.381,0,0,1,.125.526.351.351,0,0,1-.032.046c-.436.516-1.323,1.912-2.753,5.659C7105.984,2506.758,7102.838,2506.84,7100.288,2504.949Z" fill="#142266"/>
        <path id="Path_10869" data-name="Path 10869" d="M7098.049,2507.783a.386.386,0,0,0,.455-.3l0-.016a22.743,22.743,0,0,1,1.9-5.405c1.371-3.008,1.5-6.37-2.513-7.569a.382.382,0,0,0-.476.258.363.363,0,0,0-.012.054c-.094.668-.544,2.261-2.382,5.824C7092.9,2504.748,7094.937,2507.146,7098.049,2507.783Z" fill="#142266"/>
      </g>
      <g id="Group_3101" data-name="Group 3101">
        <path id="Path_10870" data-name="Path 10870" d="M7105.22,2491.681a.386.386,0,0,1-.19-.511l.008-.015a22.781,22.781,0,0,0,1.656-5.486c.669-3.237,2.548-6.029,6.5-4.626a.383.383,0,0,1,.231.49.446.446,0,0,1-.022.05c-.319.6-.9,2.146-1.516,6.108C7111.169,2492.272,7108.108,2493,7105.22,2491.681Z" fill="#142266"/>
        <path id="Path_10871" data-name="Path 10871" d="M7103.619,2494.923a.386.386,0,0,0,.382-.39v-.016a22.741,22.741,0,0,1,.737-5.682c.716-3.228.145-6.544-4.032-6.884a.385.385,0,0,0-.412.355.462.462,0,0,0,0,.052c.047.674-.062,2.325-1.119,6.193C7097.951,2493.023,7100.443,2494.947,7103.619,2494.923Z" fill="#142266"/>
      </g>
      <g id="Group_3102" data-name="Group 3102">
        <path id="Path_10872" data-name="Path 10872" d="M7107.287,2477.682a.387.387,0,0,1-.292-.462l0-.015a22.769,22.769,0,0,0,.48-5.71c-.019-3.306,1.239-6.427,5.394-5.877a.383.383,0,0,1,.328.43.348.348,0,0,1-.011.055c-.188.649-.43,2.286-.213,6.29C7113.228,2477.022,7110.387,2478.375,7107.287,2477.682Z" fill="#142266"/>
        <path id="Path_10873" data-name="Path 10873" d="M7106.4,2481.185a.386.386,0,0,0,.292-.461l0-.015a22.725,22.725,0,0,1-.461-5.711c.029-3.306-1.219-6.431-5.375-5.894a.384.384,0,0,0-.33.431.289.289,0,0,0,.011.053c.186.649.423,2.287.193,6.29C7100.456,2480.507,7103.293,2481.869,7106.4,2481.185Z" fill="#142266"/>
      </g>
      <g id="Group_3103" data-name="Group 3103">
        <path id="Path_10874" data-name="Path 10874" d="M7106.4,2463.56a.387.387,0,0,1-.381-.392v-.015a22.757,22.757,0,0,0-.718-5.685c-.706-3.229-.124-6.544,4.054-6.87a.384.384,0,0,1,.411.355.484.484,0,0,1,0,.053c-.049.674.054,2.325,1.1,6.2C7112.073,2461.679,7109.575,2463.594,7106.4,2463.56Z" fill="#142266"/>
        <path id="Path_10875" data-name="Path 10875" d="M7106.254,2467.172a.387.387,0,0,0,.191-.512l-.007-.014a22.711,22.711,0,0,1-1.639-5.49c-.658-3.24-2.529-6.037-6.483-4.648a.383.383,0,0,0-.234.488.362.362,0,0,0,.023.052c.317.6.889,2.149,1.5,6.113C7100.308,2467.747,7103.362,2468.486,7106.254,2467.172Z" fill="#142266"/>
      </g>
      <g id="Group_3104" data-name="Group 3104">
        <path id="Path_10876" data-name="Path 10876" d="M7102.592,2449.931a.386.386,0,0,1-.454-.3l0-.016a22.792,22.792,0,0,0-1.884-5.411c-1.362-3.012-1.482-6.375,2.537-7.562a.382.382,0,0,1,.475.259.51.51,0,0,1,.012.055c.092.669.536,2.263,2.364,5.833C7107.756,2446.912,7105.706,2449.3,7102.592,2449.931Z" fill="#142266"/>
        <path id="Path_10877" data-name="Path 10877" d="M7103.2,2453.494a.386.386,0,0,0,.081-.54l-.01-.013a22.78,22.78,0,0,1-2.744-5.03c-1.318-3.032-3.729-5.379-7.307-3.2a.382.382,0,0,0-.125.528.325.325,0,0,0,.031.044c.434.517,1.317,1.917,2.734,5.668C7097.5,2455.29,7100.646,2455.38,7103.2,2453.494Z" fill="#142266"/>
      </g>
      <g id="Group_3105" data-name="Group 3105">
        <path id="Path_10878" data-name="Path 10878" d="M7096.036,2437.39a.386.386,0,0,1-.507-.2l-.006-.014a22.718,22.718,0,0,0-2.968-4.9c-1.958-2.663-2.775-5.928.91-7.925a.384.384,0,0,1,.52.156.394.394,0,0,1,.022.05c.229.635,1,2.1,3.524,5.214C7100.454,2433.364,7098.951,2436.129,7096.036,2437.39Z" fill="#142266"/>
        <path id="Path_10879" data-name="Path 10879" d="M7097.373,2440.749a.386.386,0,0,0-.034-.545l-.012-.01a22.729,22.729,0,0,1-3.73-4.35c-1.919-2.692-4.766-4.487-7.813-1.609a.383.383,0,0,0-.014.542c.013.013.026.025.04.037.532.416,1.687,1.6,3.853,4.976C7092.169,2443.691,7095.265,2443.126,7097.373,2440.749Z" fill="#142266"/>
      </g>
      <g id="Group_3106" data-name="Group 3106">
        <path id="Path_10880" data-name="Path 10880" d="M7087.015,2426.486a.387.387,0,0,1-.538-.093l-.009-.013a22.742,22.742,0,0,0-3.922-4.177c-2.469-2.2-3.947-5.222-.758-7.94a.384.384,0,0,1,.541.045c.011.014.022.028.032.043.356.574,1.411,1.849,4.531,4.367C7090.5,2421.63,7089.6,2424.646,7087.015,2426.486Z" fill="#142266"/>
        <path id="Path_10881" data-name="Path 10881" d="M7089.022,2429.5a.386.386,0,0,0-.147-.526l-.013-.007a22.792,22.792,0,0,1-4.553-3.479c-2.437-2.234-5.594-3.4-7.976.05a.382.382,0,0,0,.1.532.355.355,0,0,0,.048.029c.607.3,1.982,1.216,4.8,4.066C7084.544,2433.453,7087.454,2432.256,7089.022,2429.5Z" fill="#142266"/>
      </g>
      <g id="Group_3107" data-name="Group 3107">
        <path id="Path_10882" data-name="Path 10882" d="M7075.926,2417.7a.388.388,0,0,1-.546.022l-.011-.011a22.765,22.765,0,0,0-4.7-3.271c-2.872-1.637-4.946-4.287-2.392-7.609a.382.382,0,0,1,.537-.069.292.292,0,0,1,.041.037c.468.487,1.764,1.516,5.34,3.329C7078.325,2412.223,7078.076,2415.359,7075.926,2417.7Z" fill="#142266"/>
        <path id="Path_10883" data-name="Path 10883" d="M7078.514,2420.222a.387.387,0,0,0-.252-.485l-.016,0a22.807,22.807,0,0,1-5.177-2.456c-2.848-1.678-6.178-2.16-7.792,1.708a.383.383,0,0,0,.207.5.486.486,0,0,0,.053.018c.655.163,2.192.777,5.544,2.978C7074.956,2425.026,7077.555,2423.25,7078.514,2420.222Z" fill="#142266"/>
      </g>
      <g id="Group_3108" data-name="Group 3108">
        <path id="Path_10884" data-name="Path 10884" d="M7063.249,2411.405a.386.386,0,0,1-.529.134l-.014-.008a22.678,22.678,0,0,0-5.282-2.221c-3.15-1-5.729-3.165-3.922-6.946a.385.385,0,0,1,.513-.179.488.488,0,0,1,.046.027c.559.379,2.041,1.116,5.916,2.146C7064.458,2405.551,7064.867,2408.671,7063.249,2411.405Z" fill="#142266"/>
        <path id="Path_10885" data-name="Path 10885" d="M7066.3,2413.337a.386.386,0,0,0-.348-.421h-.015a22.8,22.8,0,0,1-5.574-1.326c-3.135-1.05-6.493-.829-7.266,3.29a.384.384,0,0,0,.308.447.436.436,0,0,0,.054.006c.675.024,2.306.3,6.042,1.76C7063.825,2418.776,7066,2416.5,7066.3,2413.337Z" fill="#142266"/>
      </g>
      <g id="Group_3109" data-name="Group 3109">
        <path id="Path_10886" data-name="Path 10886" d="M7035.4,2542.405a.387.387,0,0,0-.429-.339l-.015,0a22.706,22.706,0,0,1-5.729-.12c-3.286-.364-6.521.562-6.408,4.75a.383.383,0,0,0,.394.372.326.326,0,0,0,.055-.006c.665-.119,2.318-.189,6.277.447C7034.128,2548.245,7035.771,2545.561,7035.4,2542.405Z" fill="#142266"/>
        <path id="Path_10887" data-name="Path 10887" d="M7038.982,2541.885a.386.386,0,0,1-.49.241l-.01,0a22.7,22.7,0,0,0-5.632-1.056c-3.291-.317-6.269-1.884-5.3-5.962a.384.384,0,0,1,.464-.282.486.486,0,0,1,.051.016c.626.254,2.23.66,6.236.849C7038.931,2535.905,7039.986,2538.871,7038.982,2541.885Z" fill="#142266"/>
      </g>
      <g id="Group_3110" data-name="Group 3110">
        <path id="Path_10888" data-name="Path 10888" d="M7021.452,2540.045a.386.386,0,0,0-.349-.42h-.016a22.8,22.8,0,0,1-5.579-1.308c-3.138-1.039-6.5-.807-7.256,3.314a.384.384,0,0,0,.309.446.455.455,0,0,0,.054.006c.675.021,2.306.3,6.047,1.741C7018.989,2545.487,7021.154,2543.207,7021.452,2540.045Z" fill="#142266"/>
        <path id="Path_10889" data-name="Path 10889" d="M7025.06,2540.278a.387.387,0,0,1-.529.137l-.013-.008a22.769,22.769,0,0,0-5.289-2.2c-3.153-.993-5.74-3.146-3.945-6.933a.383.383,0,0,1,.512-.181.4.4,0,0,1,.047.027c.56.378,2.044,1.109,5.923,2.127C7026.249,2534.42,7026.668,2537.539,7025.06,2540.278Z" fill="#142266"/>
      </g>
      <g id="Group_3111" data-name="Group 3111">
        <path id="Path_10890" data-name="Path 10890" d="M7008.295,2534.835a.387.387,0,0,0-.254-.484l-.015,0a22.774,22.774,0,0,1-5.185-2.439c-2.854-1.669-6.186-2.14-7.786,1.733a.383.383,0,0,0,.21.5.442.442,0,0,0,.051.017c.656.161,2.194.77,5.553,2.96C7004.752,2539.65,7007.346,2537.865,7008.295,2534.835Z" fill="#142266"/>
        <path id="Path_10891" data-name="Path 10891" d="M7011.775,2535.815a.387.387,0,0,1-.546.023l-.011-.011a22.694,22.694,0,0,0-4.716-3.255c-2.877-1.627-4.96-4.271-2.417-7.6a.383.383,0,0,1,.537-.071.517.517,0,0,1,.041.036c.469.486,1.769,1.51,5.351,3.312C7014.16,2530.332,7013.918,2533.469,7011.775,2535.815Z" fill="#142266"/>
      </g>
      <g id="Group_3112" data-name="Group 3112">
        <path id="Path_10892" data-name="Path 10892" d="M6996.51,2527a.387.387,0,0,0-.148-.526l-.014-.007a22.768,22.768,0,0,1-4.564-3.464c-2.444-2.226-5.6-3.379-7.976.076a.382.382,0,0,0,.1.532.352.352,0,0,0,.048.028c.608.294,1.986,1.21,4.817,4.05C6992.044,2530.977,6994.954,2529.771,6996.51,2527Z" fill="#142266"/>
        <path id="Path_10893" data-name="Path 10893" d="M6999.71,2528.685a.387.387,0,0,1-.539-.088l-.008-.012a22.707,22.707,0,0,0-3.936-4.164c-2.476-2.19-3.964-5.209-.784-7.938a.383.383,0,0,1,.573.087c.358.573,1.417,1.844,4.546,4.352C7003.179,2523.817,7002.293,2526.837,6999.71,2528.685Z" fill="#142266"/>
      </g>
      <g id="Group_3113" data-name="Group 3113">
        <path id="Path_10894" data-name="Path 10894" d="M6986.606,2516.893a.386.386,0,0,0-.036-.545l-.012-.01a22.751,22.751,0,0,1-3.744-4.338c-1.928-2.685-4.781-4.47-7.818-1.584a.384.384,0,0,0-.012.543.377.377,0,0,0,.04.036c.534.414,1.692,1.6,3.869,4.963C6981.414,2519.85,6984.506,2519.276,6986.606,2516.893Z" fill="#142266"/>
        <path id="Path_10895" data-name="Path 10895" d="M6989.39,2519.2a.385.385,0,0,1-.508-.2l-.006-.014a22.763,22.763,0,0,0-2.984-4.891c-1.967-2.657-2.794-5.919.884-7.928a.384.384,0,0,1,.521.153.335.335,0,0,1,.021.047c.231.635,1,2.1,3.541,5.2C6993.8,2515.162,6992.3,2517.932,6989.39,2519.2Z" fill="#142266"/>
      </g>
      <g id="Group_3114" data-name="Group 3114">
        <path id="Path_10896" data-name="Path 10896" d="M6979.026,2504.949a.388.388,0,0,0,.079-.541l-.01-.012a22.764,22.764,0,0,1-2.761-5.021c-1.328-3.028-3.746-5.367-7.318-3.175a.382.382,0,0,0-.126.526.491.491,0,0,0,.033.046c.436.516,1.323,1.912,2.753,5.659C6973.326,2506.758,6976.477,2506.84,6979.026,2504.949Z" fill="#142266"/>
        <path id="Path_10897" data-name="Path 10897" d="M6981.266,2507.783a.386.386,0,0,1-.455-.3l0-.016a22.763,22.763,0,0,0-1.9-5.405c-1.371-3.008-1.5-6.37,2.513-7.569a.382.382,0,0,1,.476.258.549.549,0,0,1,.012.054c.094.668.544,2.261,2.383,5.824C6986.416,2504.748,6984.382,2507.146,6981.266,2507.783Z" fill="#142266"/>
      </g>
      <g id="Group_3115" data-name="Group 3115">
        <path id="Path_10898" data-name="Path 10898" d="M6974.1,2491.681a.386.386,0,0,0,.189-.511l-.007-.015a22.781,22.781,0,0,1-1.656-5.486c-.669-3.237-2.548-6.029-6.5-4.626a.382.382,0,0,0-.232.489.328.328,0,0,0,.022.051c.319.6.9,2.146,1.516,6.108C6968.146,2492.272,6971.209,2493,6974.1,2491.681Z" fill="#142266"/>
        <path id="Path_10899" data-name="Path 10899" d="M6975.7,2494.923a.387.387,0,0,1-.383-.39v-.016a22.74,22.74,0,0,0-.736-5.682c-.716-3.228-.146-6.544,4.031-6.884a.383.383,0,0,1,.411.352.346.346,0,0,1,0,.055c-.047.674.062,2.325,1.12,6.193C6981.364,2493.023,6978.872,2494.947,6975.7,2494.923Z" fill="#142266"/>
      </g>
      <g id="Group_3116" data-name="Group 3116">
        <path id="Path_10900" data-name="Path 10900" d="M6972.027,2477.682a.387.387,0,0,0,.292-.462l0-.015a22.678,22.678,0,0,1-.48-5.71c.019-3.306-1.239-6.427-5.394-5.877a.383.383,0,0,0-.329.43c0,.019.007.037.012.055.188.649.43,2.286.213,6.29C6966.086,2477.022,6968.927,2478.375,6972.027,2477.682Z" fill="#142266"/>
        <path id="Path_10901" data-name="Path 10901" d="M6972.92,2481.185a.387.387,0,0,1-.293-.461l0-.015a22.7,22.7,0,0,0,.461-5.711c-.029-3.306,1.219-6.431,5.375-5.894a.384.384,0,0,1,.33.431.5.5,0,0,1-.011.053c-.186.649-.423,2.287-.193,6.29C6978.859,2480.507,6976.022,2481.869,6972.92,2481.185Z" fill="#142266"/>
      </g>
      <g id="Group_3117" data-name="Group 3117">
        <path id="Path_10902" data-name="Path 10902" d="M6972.914,2463.56a.386.386,0,0,0,.38-.392v-.015a22.757,22.757,0,0,1,.718-5.685c.706-3.229.124-6.544-4.054-6.87a.383.383,0,0,0-.411.353.52.52,0,0,0,0,.055c.049.674-.055,2.325-1.1,6.2C6967.243,2461.679,6969.741,2463.594,6972.914,2463.56Z" fill="#142266"/>
        <path id="Path_10903" data-name="Path 10903" d="M6973.062,2467.172a.387.387,0,0,1-.191-.512l.007-.014a22.8,22.8,0,0,0,1.639-5.49c.659-3.24,2.529-6.037,6.483-4.648a.381.381,0,0,1,.233.488.31.31,0,0,1-.022.052c-.317.6-.889,2.149-1.5,6.113C6979.012,2467.747,6975.954,2468.486,6973.062,2467.172Z" fill="#142266"/>
      </g>
      <g id="Group_3118" data-name="Group 3118">
        <path id="Path_10904" data-name="Path 10904" d="M6976.722,2449.931a.386.386,0,0,0,.454-.3l0-.016a22.706,22.706,0,0,1,1.884-5.411c1.362-3.012,1.482-6.375-2.537-7.562a.382.382,0,0,0-.475.259.265.265,0,0,0-.012.055c-.092.669-.536,2.263-2.364,5.833C6971.563,2446.912,6973.608,2449.3,6976.722,2449.931Z" fill="#142266"/>
        <path id="Path_10905" data-name="Path 10905" d="M6976.112,2453.494a.385.385,0,0,1-.081-.54l.01-.013a22.78,22.78,0,0,0,2.744-5.03c1.318-3.032,3.729-5.379,7.307-3.2a.382.382,0,0,1,.126.526.309.309,0,0,1-.032.046c-.434.517-1.316,1.917-2.734,5.668C6981.814,2455.29,6978.668,2455.38,6976.112,2453.494Z" fill="#142266"/>
      </g>
      <g id="Group_3119" data-name="Group 3119">
        <path id="Path_10906" data-name="Path 10906" d="M6983.279,2437.39a.386.386,0,0,0,.507-.2l.006-.014a22.679,22.679,0,0,1,2.968-4.9c1.958-2.663,2.775-5.928-.91-7.925a.382.382,0,0,0-.519.156.255.255,0,0,0-.022.05c-.229.635-1,2.1-3.525,5.214C6978.86,2433.364,6980.363,2436.129,6983.279,2437.39Z" fill="#142266"/>
        <path id="Path_10907" data-name="Path 10907" d="M6981.941,2440.749a.386.386,0,0,1,.034-.545l.012-.01a22.729,22.729,0,0,0,3.73-4.35c1.919-2.692,4.766-4.487,7.813-1.609a.382.382,0,0,1,.012.542.469.469,0,0,1-.039.037c-.532.416-1.686,1.6-3.853,4.976C6987.145,2443.691,6984.049,2443.126,6981.941,2440.749Z" fill="#142266"/>
      </g>
      <g id="Group_3120" data-name="Group 3120">
        <path id="Path_10908" data-name="Path 10908" d="M6992.3,2426.486a.387.387,0,0,0,.538-.093l.009-.013a22.742,22.742,0,0,1,3.922-4.177c2.469-2.2,3.947-5.222.758-7.94a.384.384,0,0,0-.541.045.309.309,0,0,0-.032.043c-.356.574-1.411,1.849-4.532,4.367C6988.815,2421.63,6989.71,2424.646,6992.3,2426.486Z" fill="#142266"/>
        <path id="Path_10909" data-name="Path 10909" d="M6990.293,2429.5a.386.386,0,0,1,.146-.526l.014-.007a22.829,22.829,0,0,0,4.553-3.479c2.437-2.234,5.594-3.4,7.976.05a.383.383,0,0,1-.1.533.277.277,0,0,1-.046.028c-.607.3-1.983,1.216-4.8,4.066C6994.772,2433.453,6991.861,2432.256,6990.293,2429.5Z" fill="#142266"/>
      </g>
      <g id="Group_3121" data-name="Group 3121">
        <path id="Path_10910" data-name="Path 10910" d="M7003.39,2417.7a.386.386,0,0,0,.545.022l.012-.011a22.752,22.752,0,0,1,4.7-3.271c2.872-1.637,4.946-4.287,2.392-7.609a.383.383,0,0,0-.539-.067.263.263,0,0,0-.039.035c-.468.487-1.764,1.516-5.34,3.329C7000.991,2412.223,7001.239,2415.359,7003.39,2417.7Z" fill="#142266"/>
        <path id="Path_10911" data-name="Path 10911" d="M7000.8,2420.222a.386.386,0,0,1,.252-.485l.016,0a22.807,22.807,0,0,0,5.177-2.456c2.848-1.678,6.179-2.16,7.792,1.708a.383.383,0,0,1-.207.5c-.018.007-.035.013-.053.018-.655.163-2.192.777-5.544,2.978C7004.359,2425.026,7001.761,2423.25,7000.8,2420.222Z" fill="#142266"/>
      </g>
      <g id="Group_3122" data-name="Group 3122">
        <path id="Path_10912" data-name="Path 10912" d="M7016.066,2411.405a.387.387,0,0,0,.529.134l.014-.008a22.678,22.678,0,0,1,5.282-2.221c3.15-1,5.729-3.165,3.922-6.946a.385.385,0,0,0-.513-.179.488.488,0,0,0-.046.027c-.559.379-2.041,1.116-5.916,2.146C7014.857,2405.551,7014.448,2408.671,7016.066,2411.405Z" fill="#142266"/>
        <path id="Path_10913" data-name="Path 10913" d="M7013.009,2413.337a.386.386,0,0,1,.348-.421h.016a22.806,22.806,0,0,0,5.574-1.326c3.135-1.05,6.493-.829,7.266,3.29a.381.381,0,0,1-.306.446.34.34,0,0,1-.056.007c-.675.024-2.305.3-6.042,1.76C7015.49,2418.776,7013.317,2416.5,7013.009,2413.337Z" fill="#142266"/>
      </g>
    </g>
    <g id="Group_3389" data-name="Group 3389" transform="translate(-5701.464 -2702.821)">
      <g id="Group_3124" data-name="Group 3124">
        <path id="Path_10914" data-name="Path 10914" d="M7039.511,2562.664l-76.121-77.573-2.5,10.058,78.621,80.121,78.621-80.121-2.5-10.058Z" fill="#e65416"/>
        <path id="Path_10915" data-name="Path 10915" d="M7115.632,2485.09l-2.833-11.4c-31.187-3.9-51.662-17.144-63.632-28.04a99.134,99.134,0,0,1-9.656-10.114,99.3,99.3,0,0,1-9.656,10.114c-11.97,10.9-32.444,24.144-63.632,28.04l-2.833,11.4,76.121,77.573Z" fill="#b5311b"/>
      </g>
      <path id="Path_10916" data-name="Path 10916" d="M7121.954,2463.321c-62.61-4.005-82.444-46.74-82.444-46.74s-19.835,42.735-82.444,46.74l-8.056,31.144,90.5,88.632,90.5-88.632Zm-161.066,31.828,5.334-21.457c31.188-3.9,51.662-17.144,63.632-28.04a99.266,99.266,0,0,0,9.656-10.114,99.217,99.217,0,0,0,9.656,10.114c11.97,10.9,32.444,24.144,63.632,28.04l5.334,21.457-78.621,80.121Z" fill="#142266"/>
    </g>
    <g id="Path_7334" data-name="Path 7334" transform="translate(-5701.464 -2702.821)">
      <path id="Path_306" data-name="Path 306" d="M6982.9,2506.9a64.233,64.233,0,0,0,30.231,5.907h0a53.468,53.468,0,0,0,9.034-1.305c9.047-2.136,15.561-5.624,21.827-9,7.658-4.1,15.558-8.341,28.869-10.571,1.986-.341,7.035-1.153,7.86-1.2l.318-.019a3.087,3.087,0,0,0,2.687-1.949l.11-.294c.331-.852,3.165-8.915-4.02-24.758-6.122-13.508-5.226-23.12-5.186-23.474l.037-.449a3.057,3.057,0,0,0-2.237-3.351L7042,2427.823a2.707,2.707,0,0,0-1.025-.1,2.949,2.949,0,0,0-1.438.468,3.126,3.126,0,0,0-1.408,2.034l-.095.549a100.16,100.16,0,0,1-3.626,12.937l5.928,1.693a2.874,2.874,0,0,1,1.962,3.527,2.825,2.825,0,0,1-2.553,2.07,2.951,2.951,0,0,1-.93-.1l-6.384-1.826c-.835,2.031-1.761,4.132-2.782,6.239l5.727,2.568a2.858,2.858,0,0,1,1.436,3.78v0a2.805,2.805,0,0,1-2.417,1.677,2.723,2.723,0,0,1-1.32-.241l-6.12-2.737a69.441,69.441,0,0,1-3.968,6.118l4.449,3.028a2.844,2.844,0,1,1-3.159,4.731l-4.912-3.32a43.4,43.4,0,0,1-5.887,5.465l3.478,3.309a2.84,2.84,0,1,1-3.829,4.194c-.023-.02-.045-.041-.067-.063l-4.491-4.276a129.859,129.859,0,0,1-16.547,7.792c-8.962,3.569-12.852,5.655-11.067,16.928l.047.253a3.149,3.149,0,0,0,1.665,2.3Zm107.391,12.986a.967.967,0,0,0-.863-.588c-1.728-.121-5.646-.143-11.029-.112-1.616-.383-4.077-1.611-4.3-5.433l-.377-6.339,5.491-.326,3.776-12.052-.1.006a6.67,6.67,0,0,1-1.762.361l-.318.019c-.7.073-5.084.749-7.418,1.144a74.655,74.655,0,0,0-16.519,4.594l.432,7.263,7.9-.47c-.091,3.3-1.247,9.568-8.771,11.614-9.668.192-20.328.441-30.505.727a8.306,8.306,0,0,1-2.353-4.687c-.252.047-.47.127-.721.171a57.26,57.26,0,0,1-6.18,1.07,8.137,8.137,0,0,1-1.466,3.731c-6.139.174-11.862.354-16.763.485l-.19.012c-.476.028-2.959.077-3.937-1.428-.6-.924-.519-2.3.206-4.041-2.065-.453-3.945-.98-5.6-1.489l-5.164,7.435a1.011,1.011,0,0,0,.04,1.213c1.032,1.281,4.463,4.337,13.587,5.106,7.01.57,37.306-1,61.462-2.44,14.095-.839,25.708-1.593,27.9-1.758a1.071,1.071,0,0,0,.53-.192,15.074,15.074,0,0,0,2.938-2.54,1.218,1.218,0,0,0,.073-1.057Z" fill="none" stroke="#142266" stroke-width="17"/>
      <path id="Path_307" data-name="Path 307" d="M6982.9,2506.9a64.233,64.233,0,0,0,30.231,5.907h0a53.468,53.468,0,0,0,9.034-1.305c9.047-2.136,15.561-5.624,21.827-9,7.658-4.1,15.558-8.341,28.869-10.571,1.986-.341,7.035-1.153,7.86-1.2l.318-.019a3.087,3.087,0,0,0,2.687-1.949l.11-.294c.331-.852,3.165-8.915-4.02-24.758-6.122-13.508-5.226-23.12-5.186-23.474l.037-.449a3.057,3.057,0,0,0-2.237-3.351L7042,2427.823a2.707,2.707,0,0,0-1.025-.1,2.949,2.949,0,0,0-1.438.468,3.126,3.126,0,0,0-1.408,2.034l-.095.549a100.16,100.16,0,0,1-3.626,12.937l5.928,1.693a2.874,2.874,0,0,1,1.962,3.527,2.825,2.825,0,0,1-2.553,2.07,2.951,2.951,0,0,1-.93-.1l-6.384-1.826c-.835,2.031-1.761,4.132-2.782,6.239l5.727,2.568a2.858,2.858,0,0,1,1.436,3.78v0a2.805,2.805,0,0,1-2.417,1.677,2.723,2.723,0,0,1-1.32-.241l-6.12-2.737a69.441,69.441,0,0,1-3.968,6.118l4.449,3.028a2.844,2.844,0,1,1-3.159,4.731l-4.912-3.32a43.4,43.4,0,0,1-5.887,5.465l3.478,3.309a2.84,2.84,0,1,1-3.829,4.194c-.023-.02-.045-.041-.067-.063l-4.491-4.276a129.859,129.859,0,0,1-16.547,7.792c-8.962,3.569-12.852,5.655-11.067,16.928l.047.253a3.149,3.149,0,0,0,1.665,2.3Zm107.391,12.986a.967.967,0,0,0-.863-.588c-1.728-.121-5.646-.143-11.029-.112-1.616-.383-4.077-1.611-4.3-5.433l-.377-6.339,5.491-.326,3.776-12.052-.1.006a6.67,6.67,0,0,1-1.762.361l-.318.019c-.7.073-5.084.749-7.418,1.144a74.655,74.655,0,0,0-16.519,4.594l.432,7.263,7.9-.47c-.091,3.3-1.247,9.568-8.771,11.614-9.668.192-20.328.441-30.505.727a8.306,8.306,0,0,1-2.353-4.687c-.252.047-.47.127-.721.171a57.26,57.26,0,0,1-6.18,1.07,8.137,8.137,0,0,1-1.466,3.731c-6.139.174-11.862.354-16.763.485l-.19.012c-.476.028-2.959.077-3.937-1.428-.6-.924-.519-2.3.206-4.041-2.065-.453-3.945-.98-5.6-1.489l-5.164,7.435a1.011,1.011,0,0,0,.04,1.213c1.032,1.281,4.463,4.337,13.587,5.106,7.01.57,37.306-1,61.462-2.44,14.095-.839,25.708-1.593,27.9-1.758a1.071,1.071,0,0,0,.53-.192,15.074,15.074,0,0,0,2.938-2.54,1.218,1.218,0,0,0,.073-1.057Z" fill="#e65416"/>
    </g>
    <g id="Group_3391" data-name="Group 3391" transform="translate(-5701.464 -2702.821)">
      <ellipse id="Ellipse_224" data-name="Ellipse 224" cx="17.219" cy="9.559" rx="17.219" ry="9.559" transform="translate(7092.471 2549.093)" fill="#142266"/>
      <ellipse id="Ellipse_225" data-name="Ellipse 225" cx="17.219" cy="9.559" rx="17.219" ry="9.559" transform="translate(6952.056 2549.093)" fill="#142266"/>
      <ellipse id="Ellipse_226" data-name="Ellipse 226" cx="10.228" cy="5.678" rx="10.228" ry="5.678" transform="translate(6962.393 2553.88)" fill="#dc2648"/>
      <ellipse id="Ellipse_227" data-name="Ellipse 227" cx="10.228" cy="5.678" rx="10.228" ry="5.678" transform="translate(7096.117 2553.88)" fill="#dc2648"/>
      <path id="Path_10918" data-name="Path 10918" d="M7039.365,2526.474c-27.589,0-55.178,5.5-82.768,6.093a4.807,4.807,0,0,0-4.7,4.811v19.99a5.888,5.888,0,0,0,5.881,5.893l.155,0c27.142-.735,54.285-6.06,81.427-6.06s54.285,5.326,81.427,6.06a5.887,5.887,0,0,0,6.034-5.736c0-.052,0-.1,0-.155v-19.99a4.805,4.805,0,0,0-4.7-4.811C7094.543,2531.976,7066.954,2526.474,7039.365,2526.474Z" fill="#142266"/>
      <g id="Group_52" data-name="Group 52">
        <g id="Group_51" data-name="Group 51">
          <g id="Group_50" data-name="Group 50">
            <path id="Path_308" data-name="Path 308" d="M6996.532,2553.132q-3.662.344-7.317.748-.916-8.295-1.832-16.59,3.791-.419,7.584-.775,1.475,1.173,2.934,2.356.207,2.341.414,4.681c-.32.374-.641.748-.96,1.122q.573.477,1.144.956.206,2.33.411,4.661Q6997.714,2551.707,6996.532,2553.132Zm-1.725-12.516q-.518-.406-1.038-.811-1.4.137-2.793.28.186,1.793.371,3.585,1.4-.144,2.792-.28.418-.5.838-.991Q6994.891,2541.506,6994.807,2540.616Zm.812,8.517q-.084-.882-.168-1.763-.5-.417-1.006-.834-1.386.135-2.774.278.186,1.793.371,3.585,1.367-.142,2.732-.275Q6995.194,2549.629,6995.619,2549.133Z" fill="#fff"/>
            <path id="Path_309" data-name="Path 309" d="M7011.026,2549.381q-1.231,1.386-2.452,2.777-2.36.16-4.718.343-1.407-1.2-2.829-2.393-.586-7.014-1.174-14.028,1.636-.137,3.273-.262.483,6.292.966,12.586c.328.277.655.556.982.834l1.823-.132c.284-.323.566-.646.851-.968q-.432-6.3-.866-12.593,1.638-.114,3.277-.214Q7010.593,2542.355,7011.026,2549.381Z" fill="#fff"/>
            <path id="Path_310" data-name="Path 310" d="M7022.011,2537.931q-2.666,5.288-5.2,10.6,2.748-.135,5.5-.237.059,1.569.116,3.137-4.567.17-9.132.43-.059-1.569-.115-3.138,2.508-5.336,5.141-10.644-2.9.13-5.8.295-.09-1.588-.182-3.176,4.775-.273,9.552-.449Z" fill="#fff"/>
            <path id="Path_311" data-name="Path 311" d="M7037.21,2544.887q-2.118.009-4.236.039.042,3.12.086,6.238-1.583.021-3.165.054-.174-8.343-.346-16.687,3.806-.078,7.612-.1,1.362,1.3,2.71,2.608,0,2.6,0,5.206Q7038.531,2543.563,7037.21,2544.887Zm-.559-4.064q-.007-1.17-.013-2.339-.48-.441-.961-.879-1.4.011-2.8.031.029,2.064.056,4.129,1.39-.019,2.779-.03Q7036.18,2541.279,7036.651,2540.823Z" fill="#fff"/>
            <path id="Path_312" data-name="Path 312" d="M7048.7,2551.216c-.064-.388-.125-.776-.189-1.164q-1.544-.03-3.089-.051-.123.579-.247,1.156-1.6-.019-3.209-.029,1.706-8.335,3.531-16.658,1.738.023,3.477.058,1.548,8.377,2.974,16.766Q7050.325,2551.249,7048.7,2551.216Zm-.764-4.315q-.417-2.295-.841-4.588-.5,2.277-.992,4.558C7046.714,2546.879,7047.324,2546.89,7047.936,2546.9Z" fill="#fff"/>
            <path id="Path_313" data-name="Path 313" d="M7060.836,2538.081q-1.509-.069-3.019-.128-.265,6.759-.531,13.519-1.583-.062-3.164-.113.219-6.762.437-13.523-1.521-.048-3.041-.088.04-1.579.082-3.16,4.69.122,9.38.336Q7060.908,2536.5,7060.836,2538.081Z" fill="#fff"/>
            <path id="Path_314" data-name="Path 314" d="M7072.274,2552.307q-4.969-.358-9.948-.609.421-8.335.839-16.67,5.158.259,10.312.632-.113,1.577-.228,3.153-3.492-.252-6.987-.452-.1,1.8-.206,3.6,1.616.093,3.231.2-.1,1.577-.2,3.154-1.6-.1-3.209-.2-.1,1.8-.206,3.6,3.419.2,6.833.442Q7072.388,2550.731,7072.274,2552.307Z" fill="#fff"/>
            <path id="Path_315" data-name="Path 315" d="M7084.251,2553.33q-1.546-.152-3.092-.294-1.434-4.248-2.935-8.488-.342,4.086-.685,8.17-1.58-.134-3.159-.254.641-8.321,1.28-16.641,1.615.125,3.23.259,1.526,4.23,2.984,8.47.374-4.071.746-8.143,1.635.15,3.27.312Q7085.069,2545.025,7084.251,2553.33Z" fill="#fff"/>
            <path id="Path_316" data-name="Path 316" d="M7088.07,2536.941q1.634.17,3.267.349-.915,8.3-1.831,16.59-1.575-.174-3.152-.337Q7087.21,2545.242,7088.07,2536.941Z" fill="#fff"/>
          </g>
        </g>
        <circle id="Ellipse_6" data-name="Ellipse 6" cx="1.866" cy="1.866" r="1.866" transform="translate(7087.816 2533.479) rotate(-30.853)" fill="#fff"/>
      </g>
    </g>
    <path id="Path_344" data-name="Path 344" d="M7075.431,2458.794s8.752,14.037,8.091,22.211-2.807,9-8.091,9.083c-7.6.825-9.743,1.734-9.743,1.734S7084.431,2484.473,7075.431,2458.794Z" transform="translate(-5701.464 -2702.821)" fill="#b5311b"/>
    <path id="Path_345" data-name="Path 345" d="M7004.463,2483.551s-15.089,5.56-19.544,8.807-2.034,11.67-2.034,11.67S6981.729,2492.138,7004.463,2483.551Z" transform="translate(-5701.464 -2702.821)" fill="#fff"/>
    <path id="Path_346" data-name="Path 346" d="M7003.049,2508.939s12.052,3.3,44.749-11.007a84.794,84.794,0,0,1,14.987-5.663s-12.565.615-30.62,8.863S7003.049,2508.939,7003.049,2508.939Z" transform="translate(-5701.464 -2702.821)" fill="#b5311b"/>
    <path id="Path_347" data-name="Path 347" d="M7042.4,2430.994s17.819,9.372,29.882,9.173c0,0-1.66,3.553,0,10.429A82.185,82.185,0,0,1,7042.4,2430.994Z" transform="translate(-5701.464 -2702.821)" fill="#b5311b"/>
    <path id="Path_348" data-name="Path 348" d="M7025.122,2465.23l2.185-3.841s.534,1.569,5.719,2.987C7033.026,2464.376,7026.485,2463.578,7025.122,2465.23Z" transform="translate(-5701.464 -2702.821)" fill="#fff"/>
    <path id="Path_349" data-name="Path 349" d="M7031.847,2454.675l1.268-4.233s.872,1.41,6.243,1.628C7039.358,2452.07,7032.805,2452.76,7031.847,2454.675Z" transform="translate(-5701.464 -2702.821)" fill="#fff"/>
    <path id="Path_350" data-name="Path 350" d="M7015.928,2475.077l3.284-2.957s.012,1.658,4.487,4.636C7023.7,2476.756,7017.742,2473.939,7015.928,2475.077Z" transform="translate(-5701.464 -2702.821)" fill="#fff"/>
    <path id="Path_351" data-name="Path 351" d="M6986.494,2519.647s5.46,11.642,49.3,4.624C7035.8,2524.271,6988.63,2534.262,6986.494,2519.647Z" transform="translate(-5701.464 -2702.821)" fill="#fff"/>
    <path id="Path_352" data-name="Path 352" d="M7082.757,2520.088a56.857,56.857,0,0,1,6.16,0c.716.22-1.828,2.44-2.056,2.486C7086.861,2522.574,7087.69,2520.473,7082.757,2520.088Z" transform="translate(-5701.464 -2702.821)" fill="#fff"/>
    <path id="Path_353" data-name="Path 353" d="M7057.513,2501.73s16.431-5.835,22.982-5.45c0,0-2.147,6.3-2.037,9.386C7078.458,2505.666,7073.807,2499.721,7057.513,2501.73Z" transform="translate(-5701.464 -2702.821)" fill="#b5311b"/>
  </g>
</svg>
