<svg xmlns="http://www.w3.org/2000/svg" width="109.818" height="100.032" viewBox="0 0 109.818 100.032"><g transform="translate(6.445 9.678)"><path d="M19.6,0H3.2A3.159,3.159,0,0,0,0,3.2,3.244,3.244,0,0,0,3.2,6.5H19.5a3.159,3.159,0,0,0,3.2-3.2A3.1,3.1,0,0,0,19.6,0Z" fill="#0b0539"/></g><g transform="translate(6.445 35.485)"><path d="M19.6,0H3.2A3.159,3.159,0,0,0,0,3.2,3.309,3.309,0,0,0,3.2,6.5H19.5a3.159,3.159,0,0,0,3.2-3.2A3.1,3.1,0,0,0,19.6,0Z" fill="#0b0539"/></g><g transform="translate(0 22.582)"><path d="M19.6,0H3.2A3.159,3.159,0,0,0,0,3.2,3.244,3.244,0,0,0,3.2,6.5H19.5a3.159,3.159,0,0,0,3.2-3.2A3.1,3.1,0,0,0,19.6,0Z" fill="#0b0539"/></g><g transform="translate(42.115 19.354)"><path d="M61.4,19.4H41.9V6.5A6.487,6.487,0,0,0,35.4,0a6.362,6.362,0,0,0-4.5,1.9L5.1,27.7a6.458,6.458,0,0,0,0,9.1L19.9,51.6l-18,18A6.435,6.435,0,0,0,11,78.7L33.6,56.1a6.458,6.458,0,0,0,0-9.1L18.8,32.3,29,22v3.8a6.532,6.532,0,0,0,6.4,6.5h26a6.4,6.4,0,0,0,6.3-6.6,6.274,6.274,0,0,0-6.3-6.3Z" fill="#0b0539"/></g><g transform="translate(32.426 4.832)"><path d="M27.8,1.1a6.355,6.355,0,0,0-8.1.8L1.9,19.6a6.435,6.435,0,0,0,9,9.2l.1-.1,14-14,4.7,3.4L36,11.8a13.4,13.4,0,0,1,3.7-2.5Z" fill="#0b0539"/></g><g transform="translate(3.443 54.906)"><path d="M39.2,5.8A12.95,12.95,0,0,1,35.9,0L1.9,34.1a6.435,6.435,0,1,0,9,9.2l.1-.1L43.8,10.4Z" fill="#0b0539"/></g><g transform="translate(77.559)"><circle cx="9.7" cy="9.7" r="9.7" transform="translate(0 0)" fill="#0b0539"/></g></svg>