<svg xmlns="http://www.w3.org/2000/svg" width="181" height="180.95" viewBox="0 0 181 180.95">
  <g id="bengelli" transform="translate(-1456.72 300.674)">
    <g id="Group_3388" data-name="Group 3388" transform="translate(-5701.464 -2702.821)">
      <g id="Group_3095" data-name="Group 3095">
        <path id="Path_10858" data-name="Path 10858" d="M7253.087,2542.405a.386.386,0,0,1,.428-.339l.016,0a22.705,22.705,0,0,0,5.729-.12c3.286-.364,6.521.562,6.408,4.75a.384.384,0,0,1-.4.372.3.3,0,0,1-.054-.006c-.665-.119-2.318-.189-6.277.447C7254.361,2548.245,7252.718,2545.561,7253.087,2542.405Z" fill="#142266"/>
        <path id="Path_10859" data-name="Path 10859" d="M7249.506,2541.885a.386.386,0,0,0,.489.241l.011,0a22.685,22.685,0,0,1,5.632-1.056c3.291-.317,6.269-1.884,5.3-5.962a.384.384,0,0,0-.464-.282.359.359,0,0,0-.051.016c-.626.254-2.23.66-6.236.849C7249.561,2535.905,7248.5,2538.871,7249.506,2541.885Z" fill="#142266"/>
      </g>
      <g id="Group_3096" data-name="Group 3096">
        <path id="Path_10860" data-name="Path 10860" d="M7267.036,2540.045a.384.384,0,0,1,.349-.42h.016a22.808,22.808,0,0,0,5.579-1.308c3.138-1.039,6.5-.807,7.256,3.314a.385.385,0,0,1-.31.446.42.42,0,0,1-.053.006c-.675.021-2.307.3-6.048,1.741C7269.5,2545.487,7267.335,2543.207,7267.036,2540.045Z" fill="#142266"/>
        <path id="Path_10861" data-name="Path 10861" d="M7263.429,2540.278a.385.385,0,0,0,.528.137l.014-.008a22.73,22.73,0,0,1,5.289-2.2c3.152-.993,5.74-3.146,3.944-6.933a.383.383,0,0,0-.512-.181.435.435,0,0,0-.046.027c-.561.378-2.044,1.109-5.923,2.127C7262.239,2534.42,7261.82,2537.539,7263.429,2540.278Z" fill="#142266"/>
      </g>
      <g id="Group_3097" data-name="Group 3097">
        <path id="Path_10862" data-name="Path 10862" d="M7280.193,2534.835a.387.387,0,0,1,.253-.484l.016,0a22.8,22.8,0,0,0,5.185-2.439c2.854-1.669,6.186-2.14,7.786,1.733a.384.384,0,0,1-.211.5.434.434,0,0,1-.05.017c-.656.161-2.194.77-5.553,2.96C7283.74,2539.65,7281.14,2537.865,7280.193,2534.835Z" fill="#142266"/>
        <path id="Path_10863" data-name="Path 10863" d="M7276.712,2535.815a.386.386,0,0,0,.545.023l.012-.011a22.681,22.681,0,0,1,4.716-3.255c2.877-1.627,4.96-4.271,2.417-7.6a.382.382,0,0,0-.537-.071.282.282,0,0,0-.041.036c-.469.486-1.769,1.51-5.351,3.312C7274.331,2530.332,7274.57,2533.469,7276.712,2535.815Z" fill="#142266"/>
      </g>
      <g id="Group_3098" data-name="Group 3098">
        <path id="Path_10864" data-name="Path 10864" d="M7291.981,2527a.386.386,0,0,1,.148-.526l.014-.007a22.81,22.81,0,0,0,4.564-3.464c2.444-2.226,5.6-3.379,7.976.076a.383.383,0,0,1-.1.532.517.517,0,0,1-.047.028c-.608.294-1.986,1.21-4.816,4.05C7296.446,2530.977,7293.54,2529.771,7291.981,2527Z" fill="#142266"/>
        <path id="Path_10865" data-name="Path 10865" d="M7288.78,2528.685a.386.386,0,0,0,.538-.088l.009-.012a22.658,22.658,0,0,1,3.936-4.164c2.476-2.19,3.964-5.209.784-7.938a.38.38,0,0,0-.573.087c-.358.573-1.417,1.844-4.546,4.352C7285.31,2523.817,7286.2,2526.837,7288.78,2528.685Z" fill="#142266"/>
      </g>
      <g id="Group_3099" data-name="Group 3099">
        <path id="Path_10866" data-name="Path 10866" d="M7301.88,2516.893a.386.386,0,0,1,.034-.545l.013-.01a22.821,22.821,0,0,0,3.744-4.338c1.928-2.685,4.781-4.47,7.818-1.584a.384.384,0,0,1,.011.543.366.366,0,0,1-.039.036c-.533.414-1.692,1.6-3.869,4.963C7307.074,2519.85,7303.98,2519.276,7301.88,2516.893Z" fill="#142266"/>
        <path id="Path_10867" data-name="Path 10867" d="M7299.1,2519.2a.385.385,0,0,0,.508-.2l.006-.014a22.707,22.707,0,0,1,2.984-4.891c1.967-2.657,2.795-5.919-.883-7.928a.383.383,0,0,0-.521.153.507.507,0,0,0-.021.047c-.231.635-1,2.1-3.542,5.2C7294.693,2515.162,7296.183,2517.932,7299.1,2519.2Z" fill="#142266"/>
      </g>
      <g id="Group_3100" data-name="Group 3100">
        <path id="Path_10868" data-name="Path 10868" d="M7309.462,2504.949a.387.387,0,0,1-.079-.541l.01-.012a22.763,22.763,0,0,0,2.761-5.021c1.327-3.028,3.746-5.367,7.318-3.175a.382.382,0,0,1,.125.526.486.486,0,0,1-.032.046c-.436.516-1.323,1.912-2.753,5.659C7315.158,2506.758,7312.012,2506.84,7309.462,2504.949Z" fill="#142266"/>
        <path id="Path_10869" data-name="Path 10869" d="M7307.223,2507.783a.387.387,0,0,0,.455-.3l0-.016a22.742,22.742,0,0,1,1.9-5.405c1.371-3.008,1.5-6.37-2.513-7.569a.382.382,0,0,0-.476.258.241.241,0,0,0-.012.054c-.094.668-.544,2.261-2.382,5.824C7302.073,2504.748,7304.111,2507.146,7307.223,2507.783Z" fill="#142266"/>
      </g>
      <g id="Group_3101" data-name="Group 3101">
        <path id="Path_10870" data-name="Path 10870" d="M7314.394,2491.681a.385.385,0,0,1-.19-.511l.008-.015a22.826,22.826,0,0,0,1.656-5.486c.669-3.237,2.548-6.029,6.5-4.626a.383.383,0,0,1,.231.49c-.006.017-.014.033-.022.05-.319.6-.9,2.146-1.516,6.108C7320.343,2492.272,7317.282,2493,7314.394,2491.681Z" fill="#142266"/>
        <path id="Path_10871" data-name="Path 10871" d="M7312.793,2494.923a.386.386,0,0,0,.382-.39v-.016a22.764,22.764,0,0,1,.737-5.682c.716-3.228.145-6.544-4.032-6.884a.385.385,0,0,0-.412.355.462.462,0,0,0,0,.052c.047.674-.062,2.325-1.119,6.193C7307.125,2493.023,7309.617,2494.947,7312.793,2494.923Z" fill="#142266"/>
      </g>
      <g id="Group_3102" data-name="Group 3102">
        <path id="Path_10872" data-name="Path 10872" d="M7316.461,2477.682a.387.387,0,0,1-.292-.462l0-.015a22.746,22.746,0,0,0,.48-5.71c-.019-3.306,1.239-6.427,5.394-5.877a.383.383,0,0,1,.328.43.3.3,0,0,1-.011.055c-.188.649-.43,2.286-.213,6.29C7322.4,2477.022,7319.561,2478.375,7316.461,2477.682Z" fill="#142266"/>
        <path id="Path_10873" data-name="Path 10873" d="M7315.572,2481.185a.386.386,0,0,0,.292-.461l0-.015a22.725,22.725,0,0,1-.461-5.711c.029-3.306-1.219-6.431-5.375-5.894a.383.383,0,0,0-.33.431.336.336,0,0,0,.011.053c.186.649.423,2.287.193,6.29C7309.63,2480.507,7312.467,2481.869,7315.572,2481.185Z" fill="#142266"/>
      </g>
      <g id="Group_3103" data-name="Group 3103">
        <path id="Path_10874" data-name="Path 10874" d="M7315.572,2463.56a.387.387,0,0,1-.381-.392v-.015a22.8,22.8,0,0,0-.718-5.685c-.706-3.229-.124-6.544,4.054-6.87a.383.383,0,0,1,.41.355.321.321,0,0,1,0,.053c-.049.674.054,2.325,1.1,6.2C7321.247,2461.679,7318.749,2463.594,7315.572,2463.56Z" fill="#142266"/>
        <path id="Path_10875" data-name="Path 10875" d="M7315.428,2467.172a.388.388,0,0,0,.191-.512l-.007-.014a22.71,22.71,0,0,1-1.639-5.49c-.658-3.24-2.529-6.037-6.483-4.648a.383.383,0,0,0-.234.488.426.426,0,0,0,.023.052c.317.6.889,2.149,1.5,6.113C7309.482,2467.747,7312.536,2468.486,7315.428,2467.172Z" fill="#142266"/>
      </g>
      <g id="Group_3104" data-name="Group 3104">
        <path id="Path_10876" data-name="Path 10876" d="M7311.766,2449.931a.388.388,0,0,1-.455-.3l0-.016a22.793,22.793,0,0,0-1.884-5.411c-1.362-3.012-1.482-6.375,2.537-7.562a.382.382,0,0,1,.475.259c0,.018.009.036.012.055.092.669.536,2.263,2.364,5.833C7316.93,2446.912,7314.88,2449.3,7311.766,2449.931Z" fill="#142266"/>
        <path id="Path_10877" data-name="Path 10877" d="M7312.376,2453.494a.386.386,0,0,0,.081-.54l-.01-.013a22.779,22.779,0,0,1-2.744-5.03c-1.318-3.032-3.729-5.379-7.307-3.2a.382.382,0,0,0-.125.528.325.325,0,0,0,.031.044c.434.517,1.317,1.917,2.734,5.668C7306.674,2455.29,7309.82,2455.38,7312.376,2453.494Z" fill="#142266"/>
      </g>
      <g id="Group_3105" data-name="Group 3105">
        <path id="Path_10878" data-name="Path 10878" d="M7305.21,2437.39a.386.386,0,0,1-.507-.2l-.006-.014a22.718,22.718,0,0,0-2.968-4.9c-1.958-2.663-2.775-5.928.91-7.925a.384.384,0,0,1,.52.156c.008.016.015.033.022.05.229.635,1,2.1,3.524,5.214C7309.628,2433.364,7308.125,2436.129,7305.21,2437.39Z" fill="#142266"/>
        <path id="Path_10879" data-name="Path 10879" d="M7306.547,2440.749a.386.386,0,0,0-.034-.545l-.012-.01a22.764,22.764,0,0,1-3.73-4.35c-1.919-2.692-4.766-4.487-7.813-1.609a.383.383,0,0,0-.014.542c.012.013.026.025.04.037.532.416,1.687,1.6,3.853,4.976C7301.343,2443.691,7304.439,2443.126,7306.547,2440.749Z" fill="#142266"/>
      </g>
      <g id="Group_3106" data-name="Group 3106">
        <path id="Path_10880" data-name="Path 10880" d="M7296.189,2426.486a.387.387,0,0,1-.538-.093l-.009-.013a22.776,22.776,0,0,0-3.922-4.177c-2.469-2.2-3.947-5.222-.758-7.94a.384.384,0,0,1,.541.045c.011.014.022.028.032.043.356.574,1.411,1.849,4.531,4.367C7299.674,2421.63,7298.779,2424.646,7296.189,2426.486Z" fill="#142266"/>
        <path id="Path_10881" data-name="Path 10881" d="M7298.2,2429.5a.386.386,0,0,0-.147-.526l-.013-.007a22.8,22.8,0,0,1-4.553-3.479c-2.437-2.234-5.594-3.4-7.976.05a.383.383,0,0,0,.1.532.429.429,0,0,0,.048.029c.607.3,1.982,1.216,4.8,4.066C7293.718,2433.453,7296.628,2432.256,7298.2,2429.5Z" fill="#142266"/>
      </g>
      <g id="Group_3107" data-name="Group 3107">
        <path id="Path_10882" data-name="Path 10882" d="M7285.1,2417.7a.388.388,0,0,1-.546.022l-.011-.011a22.752,22.752,0,0,0-4.7-3.271c-2.872-1.637-4.946-4.287-2.392-7.609a.382.382,0,0,1,.537-.069.322.322,0,0,1,.041.037c.468.487,1.764,1.516,5.34,3.329C7287.5,2412.223,7287.25,2415.359,7285.1,2417.7Z" fill="#142266"/>
        <path id="Path_10883" data-name="Path 10883" d="M7287.688,2420.222a.387.387,0,0,0-.252-.485l-.016,0a22.784,22.784,0,0,1-5.177-2.456c-2.848-1.678-6.178-2.16-7.792,1.708a.382.382,0,0,0,.207.5.446.446,0,0,0,.053.018c.655.163,2.192.777,5.544,2.978C7284.13,2425.026,7286.729,2423.25,7287.688,2420.222Z" fill="#142266"/>
      </g>
      <g id="Group_3108" data-name="Group 3108">
        <path id="Path_10884" data-name="Path 10884" d="M7272.423,2411.405a.386.386,0,0,1-.529.134l-.014-.008a22.674,22.674,0,0,0-5.282-2.221c-3.15-1-5.729-3.165-3.922-6.946a.385.385,0,0,1,.513-.179.389.389,0,0,1,.046.027c.559.379,2.041,1.116,5.916,2.146C7273.632,2405.551,7274.041,2408.671,7272.423,2411.405Z" fill="#142266"/>
        <path id="Path_10885" data-name="Path 10885" d="M7275.476,2413.337a.386.386,0,0,0-.348-.421h-.015a22.785,22.785,0,0,1-5.574-1.326c-3.135-1.05-6.493-.829-7.266,3.29a.384.384,0,0,0,.308.447.458.458,0,0,0,.054.006c.675.024,2.306.3,6.042,1.76C7273,2418.776,7275.176,2416.5,7275.476,2413.337Z" fill="#142266"/>
      </g>
      <g id="Group_3109" data-name="Group 3109">
        <path id="Path_10886" data-name="Path 10886" d="M7244.579,2542.405a.387.387,0,0,0-.429-.339l-.015,0a22.706,22.706,0,0,1-5.729-.12c-3.286-.364-6.521.562-6.408,4.75a.383.383,0,0,0,.394.372.326.326,0,0,0,.055-.006c.665-.119,2.318-.189,6.277.447C7243.3,2548.245,7244.945,2545.561,7244.579,2542.405Z" fill="#142266"/>
        <path id="Path_10887" data-name="Path 10887" d="M7248.156,2541.885a.386.386,0,0,1-.49.241l-.01,0a22.693,22.693,0,0,0-5.632-1.056c-3.291-.317-6.269-1.884-5.3-5.962a.383.383,0,0,1,.464-.282.422.422,0,0,1,.051.016c.626.254,2.23.66,6.236.849C7248.1,2535.905,7249.16,2538.871,7248.156,2541.885Z" fill="#142266"/>
      </g>
      <g id="Group_3110" data-name="Group 3110">
        <path id="Path_10888" data-name="Path 10888" d="M7230.626,2540.045a.386.386,0,0,0-.349-.42h-.016a22.787,22.787,0,0,1-5.579-1.308c-3.138-1.039-6.5-.807-7.256,3.314a.384.384,0,0,0,.309.446.455.455,0,0,0,.054.006c.675.021,2.306.3,6.047,1.741C7228.163,2545.487,7230.328,2543.207,7230.626,2540.045Z" fill="#142266"/>
        <path id="Path_10889" data-name="Path 10889" d="M7234.234,2540.278a.387.387,0,0,1-.529.137l-.013-.008a22.769,22.769,0,0,0-5.289-2.2c-3.153-.993-5.74-3.146-3.945-6.933a.383.383,0,0,1,.512-.181.505.505,0,0,1,.047.027c.56.378,2.044,1.109,5.923,2.127C7235.423,2534.42,7235.842,2537.539,7234.234,2540.278Z" fill="#142266"/>
      </g>
      <g id="Group_3111" data-name="Group 3111">
        <path id="Path_10890" data-name="Path 10890" d="M7217.469,2534.835a.387.387,0,0,0-.254-.484l-.015,0a22.755,22.755,0,0,1-5.185-2.439c-2.854-1.669-6.187-2.14-7.787,1.733a.385.385,0,0,0,.211.5c.017.007.033.012.05.017.656.161,2.194.77,5.553,2.96C7213.926,2539.65,7216.52,2537.865,7217.469,2534.835Z" fill="#142266"/>
        <path id="Path_10891" data-name="Path 10891" d="M7220.949,2535.815a.387.387,0,0,1-.546.023l-.011-.011a22.71,22.71,0,0,0-4.716-3.255c-2.877-1.627-4.96-4.271-2.417-7.6a.383.383,0,0,1,.537-.071.443.443,0,0,1,.041.036c.469.486,1.769,1.51,5.351,3.312C7223.334,2530.332,7223.092,2533.469,7220.949,2535.815Z" fill="#142266"/>
      </g>
      <g id="Group_3112" data-name="Group 3112">
        <path id="Path_10892" data-name="Path 10892" d="M7205.684,2527a.387.387,0,0,0-.148-.526l-.014-.007a22.754,22.754,0,0,1-4.564-3.464c-2.444-2.226-5.6-3.379-7.976.076a.384.384,0,0,0,.148.56c.608.294,1.986,1.21,4.817,4.05C7201.218,2530.977,7204.128,2529.771,7205.684,2527Z" fill="#142266"/>
        <path id="Path_10893" data-name="Path 10893" d="M7208.884,2528.685a.386.386,0,0,1-.539-.088l-.008-.012a22.741,22.741,0,0,0-3.936-4.164c-2.476-2.19-3.964-5.209-.784-7.938a.38.38,0,0,1,.573.087c.358.573,1.417,1.844,4.546,4.352C7212.353,2523.817,7211.467,2526.837,7208.884,2528.685Z" fill="#142266"/>
      </g>
      <g id="Group_3113" data-name="Group 3113">
        <path id="Path_10894" data-name="Path 10894" d="M7195.78,2516.893a.387.387,0,0,0-.036-.545l-.012-.01a22.768,22.768,0,0,1-3.744-4.338c-1.928-2.685-4.781-4.47-7.818-1.584a.384.384,0,0,0-.012.543.334.334,0,0,0,.04.036c.534.414,1.692,1.6,3.869,4.963C7190.588,2519.85,7193.68,2519.276,7195.78,2516.893Z" fill="#142266"/>
        <path id="Path_10895" data-name="Path 10895" d="M7198.564,2519.2a.385.385,0,0,1-.508-.2l-.006-.014a22.763,22.763,0,0,0-2.984-4.891c-1.967-2.657-2.794-5.919.884-7.928a.382.382,0,0,1,.52.153.513.513,0,0,1,.022.047c.231.635,1,2.1,3.541,5.2C7202.97,2515.162,7201.475,2517.932,7198.564,2519.2Z" fill="#142266"/>
      </g>
      <g id="Group_3114" data-name="Group 3114">
        <path id="Path_10896" data-name="Path 10896" d="M7188.2,2504.949a.387.387,0,0,0,.079-.541l-.01-.012a22.784,22.784,0,0,1-2.761-5.021c-1.328-3.028-3.746-5.367-7.318-3.175a.382.382,0,0,0-.126.526.5.5,0,0,0,.033.046c.436.516,1.323,1.912,2.753,5.659C7182.5,2506.758,7185.651,2506.84,7188.2,2504.949Z" fill="#142266"/>
        <path id="Path_10897" data-name="Path 10897" d="M7190.44,2507.783a.386.386,0,0,1-.455-.3l0-.016a22.785,22.785,0,0,0-1.9-5.405c-1.371-3.008-1.5-6.37,2.513-7.569a.382.382,0,0,1,.476.258.363.363,0,0,1,.012.054c.094.668.544,2.261,2.383,5.824C7195.59,2504.748,7193.556,2507.146,7190.44,2507.783Z" fill="#142266"/>
      </g>
      <g id="Group_3115" data-name="Group 3115">
        <path id="Path_10898" data-name="Path 10898" d="M7183.269,2491.681a.386.386,0,0,0,.189-.511l-.007-.015a22.716,22.716,0,0,1-1.656-5.486c-.669-3.237-2.548-6.029-6.5-4.626a.385.385,0,0,0-.233.489c.007.017.014.034.023.051.319.6.9,2.146,1.516,6.108C7177.32,2492.272,7180.383,2493,7183.269,2491.681Z" fill="#142266"/>
        <path id="Path_10899" data-name="Path 10899" d="M7184.871,2494.923a.388.388,0,0,1-.383-.39v-.016a22.74,22.74,0,0,0-.736-5.682c-.716-3.228-.146-6.544,4.031-6.884a.383.383,0,0,1,.411.352.346.346,0,0,1,0,.055c-.047.674.062,2.325,1.12,6.193C7190.538,2493.023,7188.046,2494.947,7184.871,2494.923Z" fill="#142266"/>
      </g>
      <g id="Group_3116" data-name="Group 3116">
        <path id="Path_10900" data-name="Path 10900" d="M7181.2,2477.682a.387.387,0,0,0,.292-.462l0-.015a22.678,22.678,0,0,1-.48-5.71c.019-3.306-1.239-6.427-5.394-5.877a.383.383,0,0,0-.329.43.349.349,0,0,0,.012.055c.188.649.43,2.286.213,6.29C7175.26,2477.022,7178.1,2478.375,7181.2,2477.682Z" fill="#142266"/>
        <path id="Path_10901" data-name="Path 10901" d="M7182.094,2481.185a.388.388,0,0,1-.293-.461l0-.015a22.725,22.725,0,0,0,.461-5.711c-.029-3.306,1.219-6.431,5.375-5.894a.384.384,0,0,1,.33.431c0,.018-.006.035-.011.053-.186.649-.423,2.287-.193,6.29C7188.033,2480.507,7185.2,2481.869,7182.094,2481.185Z" fill="#142266"/>
      </g>
      <g id="Group_3117" data-name="Group 3117">
        <path id="Path_10902" data-name="Path 10902" d="M7182.088,2463.56a.386.386,0,0,0,.38-.392v-.015a22.757,22.757,0,0,1,.718-5.685c.706-3.229.124-6.544-4.054-6.87a.383.383,0,0,0-.411.353.52.52,0,0,0,0,.055c.049.674-.055,2.325-1.1,6.2C7176.417,2461.679,7178.915,2463.594,7182.088,2463.56Z" fill="#142266"/>
        <path id="Path_10903" data-name="Path 10903" d="M7182.236,2467.172a.387.387,0,0,1-.191-.512l.007-.014a22.777,22.777,0,0,0,1.639-5.49c.659-3.24,2.529-6.037,6.483-4.648a.382.382,0,0,1,.233.488.359.359,0,0,1-.022.052c-.317.6-.889,2.149-1.5,6.113C7188.186,2467.747,7185.128,2468.486,7182.236,2467.172Z" fill="#142266"/>
      </g>
      <g id="Group_3118" data-name="Group 3118">
        <path id="Path_10904" data-name="Path 10904" d="M7185.9,2449.931a.387.387,0,0,0,.454-.3l0-.016a22.706,22.706,0,0,1,1.884-5.411c1.362-3.012,1.482-6.375-2.537-7.562a.383.383,0,0,0-.476.259.348.348,0,0,0-.011.055c-.092.669-.536,2.263-2.364,5.833C7180.737,2446.912,7182.782,2449.3,7185.9,2449.931Z" fill="#142266"/>
        <path id="Path_10905" data-name="Path 10905" d="M7185.286,2453.494a.385.385,0,0,1-.081-.54l.01-.013a22.78,22.78,0,0,0,2.744-5.03c1.318-3.032,3.729-5.379,7.307-3.2a.382.382,0,0,1,.126.526.355.355,0,0,1-.032.046c-.434.517-1.316,1.917-2.734,5.668C7190.988,2455.29,7187.842,2455.38,7185.286,2453.494Z" fill="#142266"/>
      </g>
      <g id="Group_3119" data-name="Group 3119">
        <path id="Path_10906" data-name="Path 10906" d="M7192.453,2437.39a.386.386,0,0,0,.507-.2l.006-.014a22.7,22.7,0,0,1,2.968-4.9c1.958-2.663,2.775-5.928-.91-7.925a.382.382,0,0,0-.519.156.288.288,0,0,0-.022.05c-.229.635-1,2.1-3.526,5.214C7188.034,2433.364,7189.537,2436.129,7192.453,2437.39Z" fill="#142266"/>
        <path id="Path_10907" data-name="Path 10907" d="M7191.115,2440.749a.386.386,0,0,1,.034-.545l.012-.01a22.8,22.8,0,0,0,3.73-4.35c1.919-2.692,4.766-4.487,7.813-1.609a.383.383,0,0,1,.012.542.4.4,0,0,1-.039.037c-.532.416-1.686,1.6-3.853,4.976C7196.319,2443.691,7193.223,2443.126,7191.115,2440.749Z" fill="#142266"/>
      </g>
      <g id="Group_3120" data-name="Group 3120">
        <path id="Path_10908" data-name="Path 10908" d="M7201.474,2426.486a.387.387,0,0,0,.538-.093l.009-.013a22.742,22.742,0,0,1,3.922-4.177c2.469-2.2,3.947-5.222.758-7.94a.384.384,0,0,0-.541.045.313.313,0,0,0-.032.043c-.356.574-1.411,1.849-4.532,4.367C7197.989,2421.63,7198.884,2424.646,7201.474,2426.486Z" fill="#142266"/>
        <path id="Path_10909" data-name="Path 10909" d="M7199.467,2429.5a.387.387,0,0,1,.146-.526l.014-.007a22.832,22.832,0,0,0,4.553-3.479c2.437-2.234,5.594-3.4,7.976.05a.383.383,0,0,1-.1.533.3.3,0,0,1-.046.028c-.607.3-1.983,1.216-4.8,4.066C7203.946,2433.453,7201.035,2432.256,7199.467,2429.5Z" fill="#142266"/>
      </g>
      <g id="Group_3121" data-name="Group 3121">
        <path id="Path_10910" data-name="Path 10910" d="M7212.564,2417.7a.386.386,0,0,0,.545.022l.012-.011a22.709,22.709,0,0,1,4.7-3.271c2.872-1.637,4.946-4.287,2.392-7.609a.383.383,0,0,0-.539-.067.29.29,0,0,0-.039.035c-.468.487-1.764,1.516-5.34,3.329C7210.165,2412.223,7210.413,2415.359,7212.564,2417.7Z" fill="#142266"/>
        <path id="Path_10911" data-name="Path 10911" d="M7209.976,2420.222a.386.386,0,0,1,.252-.485l.016,0a22.823,22.823,0,0,0,5.177-2.456c2.848-1.678,6.179-2.16,7.792,1.708a.383.383,0,0,1-.207.5c-.018.007-.035.013-.053.018-.655.163-2.192.777-5.544,2.978C7213.533,2425.026,7210.935,2423.25,7209.976,2420.222Z" fill="#142266"/>
      </g>
      <g id="Group_3122" data-name="Group 3122">
        <path id="Path_10912" data-name="Path 10912" d="M7225.24,2411.405a.386.386,0,0,0,.529.134l.014-.008a22.648,22.648,0,0,1,5.282-2.221c3.15-1,5.729-3.165,3.922-6.946a.384.384,0,0,0-.513-.179.389.389,0,0,0-.046.027c-.559.379-2.041,1.116-5.916,2.146C7224.031,2405.551,7223.622,2408.671,7225.24,2411.405Z" fill="#142266"/>
        <path id="Path_10913" data-name="Path 10913" d="M7222.183,2413.337a.385.385,0,0,1,.348-.421h.016a22.8,22.8,0,0,0,5.574-1.326c3.135-1.05,6.493-.829,7.266,3.29a.382.382,0,0,1-.307.446.328.328,0,0,1-.055.007c-.675.024-2.3.3-6.042,1.76C7224.664,2418.776,7222.491,2416.5,7222.183,2413.337Z" fill="#142266"/>
      </g>
    </g>
    <g id="Group_3389" data-name="Group 3389" transform="translate(-5701.464 -2702.821)">
      <g id="Group_3124" data-name="Group 3124">
        <path id="Path_10914" data-name="Path 10914" d="M7248.685,2562.664l-76.121-77.573-2.5,10.058,78.621,80.121,78.621-80.121-2.5-10.058Z" fill="#e65416"/>
        <path id="Path_10915" data-name="Path 10915" d="M7324.806,2485.09l-2.833-11.4c-31.187-3.9-51.662-17.144-63.632-28.04a99.24,99.24,0,0,1-9.656-10.114,99.3,99.3,0,0,1-9.656,10.114c-11.97,10.9-32.444,24.144-63.632,28.04l-2.833,11.4,76.121,77.573Z" fill="#b5311b"/>
      </g>
      <path id="Path_10916" data-name="Path 10916" d="M7331.128,2463.321c-62.61-4.005-82.444-46.74-82.444-46.74s-19.835,42.735-82.444,46.74l-8.056,31.144,90.5,88.632,90.5-88.632Zm-161.066,31.828,5.334-21.457c31.188-3.9,51.662-17.144,63.632-28.04a99.324,99.324,0,0,0,9.656-10.114,99.159,99.159,0,0,0,9.656,10.114c11.97,10.9,32.444,24.144,63.632,28.04l5.334,21.457-78.621,80.121Z" fill="#142266"/>
    </g>
    <g id="Group_55" data-name="Group 55" transform="translate(-5701.464 -2702.821)">
      <g id="Group_53" data-name="Group 53">
        <path id="Path_317" data-name="Path 317" d="M7232.229,2486.807a75.657,75.657,0,0,1,22.925,6.92c3.455,1.615,7.1,3.73,9.983,5.345,2.88,1.692,5.837,3.229,8.793,4.729l-17.97-35.6-3.8-6.69-13.4-23.529a6.908,6.908,0,1,0-11.981,6.882l14.822,26.028-3.8,3.383-22.655,12.956-.538.308A52.473,52.473,0,0,1,7232.229,2486.807Z" fill="none" stroke="#142266" stroke-linejoin="round" stroke-width="15"/>
        <path id="Path_318" data-name="Path 318" d="M7268.17,2479.809a15.069,15.069,0,1,0-.012-.021Z" fill="none" stroke="#142266" stroke-linejoin="round" stroke-width="15"/>
        <path id="Path_319" data-name="Path 319" d="M7316.783,2496.535c-2.111,7.036-5.452,13.572-10.214,16.955-4.646,3.379-9.907,3.572-15.744,2.422a73.577,73.577,0,0,1-17.7-6.69c-2.992-1.5-5.913-3.038-8.793-4.767-2.88-1.654-6.563-3.765-10.022-5.345a78.268,78.268,0,0,0-22.925-6.918,50.359,50.359,0,0,0-24.806,2.806,43.789,43.789,0,0,0-19.277,14.918c-4.569,6.458-7.722,13.61-8.525,21.108,8.87-11.766,20.2-20.224,31.986-22.184,11.711-2.153,23.922,1.384,35.749,6.959,3.073,1.384,5.684,2.806,9.063,4.651,3.418,1.73,6.912,3.383,10.521,4.806,7.218,2.768,14.975,5.075,23.538,5.116a33.83,33.83,0,0,0,13.017-2.346,23.519,23.519,0,0,0,10.6-8.419A28.734,28.734,0,0,0,7316.783,2496.535Z" fill="none" stroke="#142266" stroke-linejoin="round" stroke-width="15"/>
      </g>
      <g id="Group_54" data-name="Group 54">
        <path id="Path_320" data-name="Path 320" d="M7232.229,2486.807a75.657,75.657,0,0,1,22.925,6.92c3.455,1.615,7.1,3.73,9.983,5.345,2.88,1.692,5.837,3.229,8.793,4.729l-17.97-35.6-3.8-6.69-13.4-23.529a6.908,6.908,0,1,0-11.981,6.882l14.822,26.028-3.8,3.383-22.655,12.956-.538.308A52.473,52.473,0,0,1,7232.229,2486.807Z" fill="#e65416"/>
        <path id="Path_321" data-name="Path 321" d="M7268.17,2479.809a15.069,15.069,0,1,0-.012-.021Z" fill="#e65416"/>
        <path id="Path_322" data-name="Path 322" d="M7316.783,2496.535c-2.111,7.036-5.452,13.572-10.214,16.955-4.646,3.379-9.907,3.572-15.744,2.422a73.577,73.577,0,0,1-17.7-6.69c-2.992-1.5-5.913-3.038-8.793-4.767-2.88-1.654-6.563-3.765-10.022-5.345a78.268,78.268,0,0,0-22.925-6.918,50.359,50.359,0,0,0-24.806,2.806,43.789,43.789,0,0,0-19.277,14.918c-4.569,6.458-7.722,13.61-8.525,21.108,8.87-11.766,20.2-20.224,31.986-22.184,11.711-2.153,23.922,1.384,35.749,6.959,3.073,1.384,5.684,2.806,9.063,4.651,3.418,1.73,6.912,3.383,10.521,4.806,7.218,2.768,14.975,5.075,23.538,5.116a33.83,33.83,0,0,0,13.017-2.346,23.519,23.519,0,0,0,10.6-8.419A28.734,28.734,0,0,0,7316.783,2496.535Z" fill="#e65416"/>
      </g>
    </g>
    <g id="Group_3391" data-name="Group 3391" transform="translate(-5701.464 -2702.821)">
      <ellipse id="Ellipse_224" data-name="Ellipse 224" cx="17.219" cy="9.559" rx="17.219" ry="9.559" transform="translate(7301.645 2549.093)" fill="#142266"/>
      <ellipse id="Ellipse_225" data-name="Ellipse 225" cx="17.219" cy="9.559" rx="17.219" ry="9.559" transform="translate(7161.23 2549.093)" fill="#142266"/>
      <ellipse id="Ellipse_226" data-name="Ellipse 226" cx="10.228" cy="5.678" rx="10.228" ry="5.678" transform="translate(7171.567 2553.88)" fill="#dc2648"/>
      <ellipse id="Ellipse_227" data-name="Ellipse 227" cx="10.228" cy="5.678" rx="10.228" ry="5.678" transform="translate(7305.291 2553.88)" fill="#dc2648"/>
      <path id="Path_10918" data-name="Path 10918" d="M7248.539,2526.474c-27.589,0-55.178,5.5-82.768,6.093a4.807,4.807,0,0,0-4.7,4.811v19.99a5.888,5.888,0,0,0,5.881,5.893l.155,0c27.142-.735,54.285-6.06,81.427-6.06s54.285,5.326,81.427,6.06a5.887,5.887,0,0,0,6.034-5.736c0-.052,0-.1,0-.155v-19.99a4.806,4.806,0,0,0-4.7-4.811C7303.717,2531.976,7276.128,2526.474,7248.539,2526.474Z" fill="#142266"/>
    </g>
    <path id="Path_354" data-name="Path 354" d="M7182.01,2521.712s11.522-34.266,49.985-27.661C7232,2494.051,7192.066,2494.051,7182.01,2521.712Z" transform="translate(-5701.464 -2702.821)" fill="#fff"/>
    <path id="Path_355" data-name="Path 355" d="M7251.467,2516.391s43.432,26.929,59.635,2.844C7311.1,2519.235,7285.65,2533.363,7251.467,2516.391Z" transform="translate(-5701.464 -2702.821)" fill="#b5311b"/>
    <path id="Path_356" data-name="Path 356" d="M7236.357,2485.546s15.275.813,34.514,15.187C7270.871,2500.733,7247.834,2480.757,7236.357,2485.546Z" transform="translate(-5701.464 -2702.821)" fill="#b5311b"/>
    <path id="Path_357" data-name="Path 357" d="M7231.54,2435.536s-8.959,2.066-1.562,13.46C7229.978,2449,7226.091,2441.507,7231.54,2435.536Z" transform="translate(-5701.464 -2702.821)" fill="#fff"/>
    <path id="Path_358" data-name="Path 358" d="M7289.567,2462.665s10.163,8.092.841,18.888c-4.984,5.723-15.779,4.264-19.523-.617C7270.885,2480.936,7295.842,2483.93,7289.567,2462.665Z" transform="translate(-5701.464 -2702.821)" fill="#b5311b"/>
    <path id="Path_359" data-name="Path 359" d="M7286.274,2460.589s-5.224-2.817-12.233,1.078A28.551,28.551,0,0,1,7286.274,2460.589Z" transform="translate(-5701.464 -2702.821)" fill="#fff"/>
    <g id="Group_100" data-name="Group 100" transform="translate(-5701.464 -2702.821)">
      <path id="Path_514" data-name="Path 514" d="M7208.814,2553.68q-3.661.341-7.317.744-.915-8.3-1.831-16.59,3.8-.42,7.6-.773,1.474,1.174,2.936,2.359.2,2.342.407,4.682c-.321.373-.643.747-.963,1.121q.574.479,1.144.957.2,2.331.4,4.661Q7210,2552.257,7208.814,2553.68Zm-1.712-12.519-1.039-.811q-1.4.135-2.8.279.183,1.793.368,3.585,1.4-.144,2.8-.279l.841-.99Q7207.185,2542.053,7207.1,2541.161Zm.8,8.518q-.082-.88-.167-1.762-.5-.419-1.006-.835-1.387.135-2.776.277l.369,3.584q1.365-.14,2.733-.272Q7207.482,2550.175,7207.906,2549.679Z" fill="#fff"/>
      <path id="Path_515" data-name="Path 515" d="M7216.452,2549.867q.118,1.577.235,3.153-1.58.117-3.159.247l-.258-3.151Q7214.862,2549.986,7216.452,2549.867Z" fill="#fff"/>
      <path id="Path_516" data-name="Path 516" d="M7234.016,2552.081q-4.98.17-9.954.453-.477-8.331-.953-16.663,5.169-.3,10.342-.471.052,1.579.107,3.16-3.5.117-7.006.293.09,1.8.179,3.6,1.617-.081,3.236-.15.068,1.579.134,3.159-1.607.069-3.213.148.09,1.8.179,3.6,3.42-.171,6.842-.286Q7233.961,2550.5,7234.016,2552.081Z" fill="#fff"/>
      <path id="Path_517" data-name="Path 517" d="M7246.022,2551.843q-1.55.009-3.1.029-1.868-4.076-3.807-8.133.09,4.1.178,8.2-1.583.034-3.166.08-.24-8.341-.483-16.683,1.623-.048,3.245-.083,1.961,4.047,3.857,8.111-.054-4.088-.108-8.176,1.644-.023,3.289-.032Q7245.975,2543.5,7246.022,2551.843Z" fill="#fff"/>
      <path id="Path_518" data-name="Path 518" d="M7258.174,2549.33q-1.345,1.276-2.675,2.562-2.364-.039-4.727-.051-1.312-1.312-2.641-2.619-.006-5.732-.011-11.464,1.362-1.307,2.739-2.607,2.457.012,4.911.053,1.337,1.328,2.66,2.665-.029,1.326-.059,2.654-1.625-.036-3.25-.06c.006-.4.012-.8.018-1.2l-.923-.919c-.624-.007-1.248-.015-1.871-.02q-.473.45-.943.9-.027,4.277-.055,8.555.456.456.908.913.913.009,1.828.02.462-.449.928-.894c.007-.463.014-.927.021-1.39-.74-.011-1.483-.021-2.223-.028q.015-1.581.031-3.161,2.735.027,5.469.088Q7258.243,2546.328,7258.174,2549.33Z" fill="#fff"/>
      <path id="Path_519" data-name="Path 519" d="M7270.182,2552.382q-4.978-.252-9.956-.387.226-8.343.455-16.685,5.173.142,10.344.4-.079,1.58-.16,3.157-3.5-.177-7.006-.3-.062,1.8-.125,3.6,1.619.055,3.238.124-.066,1.579-.133,3.159-1.608-.069-3.214-.124-.063,1.8-.125,3.6,3.423.117,6.842.291Q7270.261,2550.8,7270.182,2552.382Z" fill="#fff"/>
      <path id="Path_520" data-name="Path 520" d="M7280.255,2553.01q-3.979-.294-7.964-.516.461-8.332.924-16.665c1.1.061,2.189.126,3.285.195q-.425,6.75-.849,13.5,2.42.153,4.838.332Q7280.374,2551.434,7280.255,2553.01Z" fill="#fff"/>
      <path id="Path_521" data-name="Path 521" d="M7290.316,2553.876q-3.975-.389-7.954-.7.658-8.319,1.317-16.638,1.639.129,3.28.272-.582,6.74-1.167,13.478,2.418.21,4.832.446Q7290.469,2552.305,7290.316,2553.876Z" fill="#fff"/>
      <path id="Path_522" data-name="Path 522" d="M7294.127,2537.485q1.64.168,3.276.349-.916,8.3-1.832,16.59-1.575-.174-3.152-.336Q7293.272,2545.786,7294.127,2537.485Z" fill="#fff"/>
    </g>
    <circle id="Ellipse_14" data-name="Ellipse 14" cx="1.866" cy="1.866" r="1.866" transform="translate(1592.219 -168.969) rotate(-30.853)" fill="#fff"/>
  </g>
</svg>
