<svg xmlns="http://www.w3.org/2000/svg" viewBox="0 0 130 130">
  <defs>
    <style>
      .cls-1 {
        fill: #fff;
      }

      .cls-2 {
        fill: #ed6b06;
      }

      .cls-2, .cls-3 {
        fill-rule: evenodd;
      }

      .cls-3 {
        fill: #2e2479;
      }
    </style>
  </defs>
  <g id="Group_2491" data-name="Group 2491" transform="translate(7.719 7.711)">
    <ellipse id="Ellipse_4" data-name="Ellipse 4" class="cls-1" cx="64.422" cy="64.422" rx="64.422" ry="64.422" transform="translate(-7.15 -7.118)"/>
    <path id="Path_13" data-name="Path 13" class="cls-2" d="M65,0A65,65,0,1,1,0,65,65,65,0,0,1,65,0ZM21.941,96.109l-.773-1.082-5.408,3.76.773,1.082,5.408-3.76Zm-5.769,3.966-.721-1.03-.979.67.721,1.03.979-.67Zm2.472-4.635a2.317,2.317,0,0,0,1.082-1.494,2.888,2.888,0,0,0-.412-1.957,2.975,2.975,0,0,0-.927-1.133,1.662,1.662,0,0,0-1.082-.412,1.877,1.877,0,0,0-1.082.258,2.109,2.109,0,0,0-.773.721,2.13,2.13,0,0,0-.258.979,7.49,7.49,0,0,0,.258,1.494,3.865,3.865,0,0,1,.206,1.288c-.052.155-.1.309-.258.361a.386.386,0,0,1-.464,0,1.663,1.663,0,0,1-.67-.67,1.092,1.092,0,0,1-.206-.824,1.145,1.145,0,0,1,.464-.67l-.618-1.185a1.821,1.821,0,0,0-.927,1.288,3.067,3.067,0,0,0,.412,1.906,3.448,3.448,0,0,0,.824,1.03,1.829,1.829,0,0,0,.979.412,2.09,2.09,0,0,0,.979-.206,1.753,1.753,0,0,0,.876-1.185,3.285,3.285,0,0,0-.155-1.648,6.869,6.869,0,0,1-.258-1.082,1.039,1.039,0,0,1,0-.567.527.527,0,0,1,.258-.309.878.878,0,0,1,.721,0,1.61,1.61,0,0,1,.721.721,1.418,1.418,0,0,1,.206.979,1.4,1.4,0,0,1-.618.876l.721,1.03ZM16.739,87.4l-.515-1.236-5,2.215-.773-1.8-1.03.464,2.112,4.79,1.03-.464-.773-1.8L16.739,87.4Zm-3.3-8.807L7.983,83.13,8.4,84.469l7.056.412-.412-1.339-1.6-.052-.824-2.524,1.236-1.03L13.443,78.6Zm-1.7,3.142-2.06,1.6,2.575.1-.515-1.7Zm1.442-3.811-.206-1.236-4.223.721,3.76-3.348-.206-1.339L5.82,73.859,6.026,75.1l4.326-.773-3.863,3.4L6.7,79.009l6.49-1.082ZM5.408,71.9l6.541-.464-.155-2.215a13.23,13.23,0,0,0-.155-1.6,2.244,2.244,0,0,0-.361-.876,1.848,1.848,0,0,0-.721-.515,2.616,2.616,0,0,0-.876-.155,1.678,1.678,0,0,0-.979.412,1.65,1.65,0,0,0-.515.979,1.775,1.775,0,0,0-.618-.618,1.693,1.693,0,0,0-.876-.206,1.533,1.533,0,0,0-.773.258,1.37,1.37,0,0,0-.515.567,1.677,1.677,0,0,0-.206.721,8.851,8.851,0,0,0,0,1.185L5.408,71.9Zm1.03-1.442,1.494-.1-.052-.876a7.921,7.921,0,0,0-.1-.979,1.207,1.207,0,0,0-.258-.515A.87.87,0,0,0,7,67.833a.653.653,0,0,0-.464.206.787.787,0,0,0-.206.515c0,.155,0,.515.052,1.133l.052.773Zm2.575-.155,1.751-.1-.1-1.236a7.989,7.989,0,0,0-.1-.927.75.75,0,0,0-.309-.464,1.038,1.038,0,0,0-.567-.155.87.87,0,0,0-.515.155.708.708,0,0,0-.258.412,4.254,4.254,0,0,0,0,1.185l.1,1.133ZM5.048,64.588l3.5.1a7.749,7.749,0,0,0,1.648-.051,1.373,1.373,0,0,0,.721-.361,1.522,1.522,0,0,0,.567-.773,3.269,3.269,0,0,0,.258-1.442,4.637,4.637,0,0,0-.155-1.288A2.038,2.038,0,0,0,11.074,60a1.4,1.4,0,0,0-.824-.412A6.032,6.032,0,0,0,8.6,59.437l-3.451-.1L5.1,60.673l3.657.1a5.64,5.64,0,0,1,1.133.1.979.979,0,0,1,.567.361,1.377,1.377,0,0,1,.206.876,1.473,1.473,0,0,1-.258.876.88.88,0,0,1-.67.361,3.5,3.5,0,0,1-1.082,0l-3.554-.1-.052,1.339Zm6.9-6.49.876-4.532-1.082-.206L11.125,56.6,5.82,55.574l-.258,1.288L11.949,58.1ZM7.365,48.209,13.6,50.372l.721-2.112q.386-1.236.464-1.545a1.871,1.871,0,0,0,0-.927,3.074,3.074,0,0,0-.464-.773,1.939,1.939,0,0,0-.773-.464,1.42,1.42,0,0,0-1.03,0,2.107,2.107,0,0,0-.876.67,2.276,2.276,0,0,0-.309-.824,1.445,1.445,0,0,0-.721-.515,1.325,1.325,0,0,0-.773-.052,1.6,1.6,0,0,0-.67.309,1.259,1.259,0,0,0-.464.567q-.155.309-.464,1.082l-.876,2.421Zm1.494-.927L10.3,47.8l.258-.824c.155-.515.258-.773.309-.927a.709.709,0,0,0-.052-.567.954.954,0,0,0-.412-.361.873.873,0,0,0-.515,0,.589.589,0,0,0-.361.412,10.086,10.086,0,0,0-.412,1.082l-.258.67Zm2.472.876,1.648.567.412-1.185a4.207,4.207,0,0,0,.258-.876.755.755,0,0,0-.1-.567,1.122,1.122,0,0,0-.464-.361,1.932,1.932,0,0,0-.515-.052.8.8,0,0,0-.412.309,6.352,6.352,0,0,0-.464,1.082l-.361,1.082Zm-1.494-6.9,3.193,1.494a6.5,6.5,0,0,0,1.545.567,1.529,1.529,0,0,0,.824-.052,1.491,1.491,0,0,0,.824-.464,5.087,5.087,0,0,0,.824-1.185,3.276,3.276,0,0,0,.361-1.236,2.5,2.5,0,0,0-.155-.927,1.854,1.854,0,0,0-.567-.721,10.473,10.473,0,0,0-1.494-.824l-3.142-1.442-.567,1.185,3.3,1.545a7.368,7.368,0,0,1,.979.515.743.743,0,0,1,.361.567,1.441,1.441,0,0,1-.155.876,1.143,1.143,0,0,1-.618.67,1.35,1.35,0,0,1-.773.1c-.155-.052-.515-.206-1.03-.412L10.3,40.02l-.464,1.236Zm.1-1.185.464-.979-.979-.464-.464.979.979.464Zm.824-1.751.464-.979-.979-.464-.464.979.979.464Zm8.91-1.7.721-1.133-2.318-1.494-1.906-4.12-.824,1.288,1.339,2.678-3.039-.1-.824,1.288,4.532.052,2.318,1.545Zm-2.73-7.777,2.73,2.215a6.392,6.392,0,0,0,1.391.927,2.135,2.135,0,0,0,.824.155,2.1,2.1,0,0,0,.927-.258A3.521,3.521,0,0,0,23.9,30.9a2.769,2.769,0,0,0,.618-1.133,1.922,1.922,0,0,0,.052-.927,1.785,1.785,0,0,0-.412-.824,10.116,10.116,0,0,0-1.236-1.133l-2.678-2.163-.824,1.03,2.833,2.266a4.108,4.108,0,0,1,.824.773.821.821,0,0,1,.206.618A1.679,1.679,0,0,1,22.2,30.749a1.029,1.029,0,0,1-.773-.1,7.916,7.916,0,0,1-.876-.67l-2.781-2.163-.824,1.03Zm.412-1.133.67-.824-.824-.67-.67.824.824.67Zm1.236-1.494.67-.824-.824-.67-.67.824.824.67Zm7.726,1.648.979-.927L25.959,25.5l.052-1.545,3.451,1.03L30.7,23.8l-4.635-1.133.052-3.554-1.288,1.236.052,3.966-2.06-2.163-.979.927,4.481,4.79Zm3.348-6.129a2.483,2.483,0,0,0,1.6.927,2.981,2.981,0,0,0,1.906-.618,3.26,3.26,0,0,0,1.03-1.03,2.206,2.206,0,0,0,.309-1.133,1.78,1.78,0,0,0-.361-1.03,2.142,2.142,0,0,0-.824-.721,2.066,2.066,0,0,0-.979-.155,9.448,9.448,0,0,0-1.442.412,3.909,3.909,0,0,1-1.236.361.636.636,0,0,1-.412-.206.5.5,0,0,1-.052-.464,1.61,1.61,0,0,1,.618-.721,1.5,1.5,0,0,1,.824-.309,1.058,1.058,0,0,1,.721.412l1.03-.824a1.981,1.981,0,0,0-1.391-.824,2.851,2.851,0,0,0-1.854.618,3.934,3.934,0,0,0-.927.927,1.857,1.857,0,0,0-.309,1.03,1.438,1.438,0,0,0,.309.927,1.722,1.722,0,0,0,1.236.721,3.551,3.551,0,0,0,1.6-.309c.515-.206.876-.309,1.03-.361a1.15,1.15,0,0,1,.567-.052.6.6,0,0,1,.361.258.846.846,0,0,1,.1.721,1.637,1.637,0,0,1-.618.773,1.82,1.82,0,0,1-.979.309,1.7,1.7,0,0,1-.927-.515l-.927.876Zm3.5,2.369a2.155,2.155,0,0,0,.773-.464,1.8,1.8,0,0,0,.824-.979.723.723,0,0,0-.1-.721.734.734,0,0,0-.618-.309,1.184,1.184,0,0,0-.824.309,2.7,2.7,0,0,0-.567.515l.155.412a1.568,1.568,0,0,1,.412-.412.822.822,0,0,1,.412-.155.283.283,0,0,1,.258.155.341.341,0,0,1,.052.309,1.115,1.115,0,0,1-.412.464c-.206.155-.464.309-.721.464l.361.412Zm2.936-4.326,4.378-2.421-.515-.979-3.193,1.8L35.9,16.636l2.884-1.6-.515-.979-2.884,1.6-.721-1.288,3.09-1.7-.515-.979L32.964,14.01l3.142,5.769Zm5.46-2.987,1.236-.567L41.616,13.6l2.369-1.082,1.185,2.627,1.236-.515L43.728,8.6l-1.236.515,1.03,2.369-2.369,1.082L40.123,10.2l-1.236.567,2.678,6.026Zm6.078-2.524,1.288-.412L46.87,7.623l-1.288.412,2.06,6.232ZM45.531,7.674l1.185-.361-.361-1.133-1.185.361.361,1.133Zm4.532,5.717,1.288-.309L50.733,10.4l.258-.052a5.41,5.41,0,0,1,.67-.1.831.831,0,0,1,.464.155,6.939,6.939,0,0,1,.876.773l1.236,1.185L55.78,12,54.7,10.919a10.185,10.185,0,0,0-.979-.876,3.054,3.054,0,0,0-.824-.361,2.04,2.04,0,0,0,1.133-.876,1.814,1.814,0,0,0,.155-1.288,2.06,2.06,0,0,0-.515-.927,1.623,1.623,0,0,0-.876-.464,4.627,4.627,0,0,0-1.545.155l-2.73.618,1.545,6.49Zm.412-3.966.979-.206a4.744,4.744,0,0,0,1.133-.361A.692.692,0,0,0,52.9,8.5a.873.873,0,0,0,0-.515.75.75,0,0,0-.309-.464.925.925,0,0,0-.567-.155,4.328,4.328,0,0,0-.927.206l-1.03.258.412,1.6ZM58.613,5.1l.464,6.541,2.215-.155a13.23,13.23,0,0,0,1.6-.155,2.244,2.244,0,0,0,.876-.361,1.848,1.848,0,0,0,.515-.721,2.616,2.616,0,0,0,.155-.876,1.678,1.678,0,0,0-.412-.979,1.65,1.65,0,0,0-.979-.515,1.776,1.776,0,0,0,.618-.618,1.693,1.693,0,0,0,.206-.876,1.533,1.533,0,0,0-.258-.773,1.37,1.37,0,0,0-.567-.515,1.677,1.677,0,0,0-.721-.206,8.851,8.851,0,0,0-1.185,0L58.613,5.1ZM60,6.129l.1,1.494.876-.052a7.922,7.922,0,0,0,.979-.1,1.208,1.208,0,0,0,.515-.258.87.87,0,0,0,.155-.515.653.653,0,0,0-.206-.464.787.787,0,0,0-.515-.206c-.155,0-.515,0-1.133.052L60,6.129ZM60.21,8.7l.1,1.751,1.236-.1a7.988,7.988,0,0,0,.927-.1.75.75,0,0,0,.464-.309,1.038,1.038,0,0,0,.155-.567.87.87,0,0,0-.155-.515.708.708,0,0,0-.412-.258,4.254,4.254,0,0,0-1.185,0l-1.133.1Zm5.511,2.627,5,.361.1-1.082-3.657-.258.1-1.8,3.3.206.1-1.082-3.3-.206.1-1.442,3.554.258.1-1.133L66.288,4.79l-.567,6.541Zm6.129.412,4.584.824.206-1.082L73.4,10.919l.927-5.357-1.288-.206L71.85,11.743Zm5.46,1.082,4.842,1.288.309-1.082L78.906,12.1l.464-1.751,3.193.876.309-1.082-3.193-.876L80.04,7.88l3.451.927L83.8,7.726,79.112,6.438l-1.8,6.387ZM85.6,8.5l-2.369,6.129,2.318.876a7.742,7.742,0,0,0,1.133.309,3.424,3.424,0,0,0,1.082-.155,2.765,2.765,0,0,0,1.082-.824,3.509,3.509,0,0,0,.67-1.236,4.745,4.745,0,0,0,.361-1.545,3.117,3.117,0,0,0-.206-1.236,2.517,2.517,0,0,0-.721-.927,4.581,4.581,0,0,0-1.133-.567L85.6,8.5Zm.876,1.494-1.545,4.069.927.361a2.124,2.124,0,0,0,.773.206,1.268,1.268,0,0,0,.618-.052,1.391,1.391,0,0,0,.567-.464,5.152,5.152,0,0,0,.567-1.082,4.754,4.754,0,0,0,.309-1.133,2.685,2.685,0,0,0-.1-.721,1.461,1.461,0,0,0-.464-.515,5.976,5.976,0,0,0-.979-.464l-.67-.206Zm2.781,7.262,1.185.618L93.431,12l-1.185-.618-2.987,5.872ZM92.5,11.074l1.082.567.567-1.082L93.07,9.992,92.5,11.074Zm.515,8.241,1.133.721,1.442-2.318,4.069-1.957-1.288-.824L95.7,16.327l.052-3.039-1.339-.824V17l-1.391,2.318Zm3.605,2.472,3.966,3.09.67-.876-2.884-2.266,1.082-1.391,2.627,2.009.67-.876-2.627-2.009L101,18.336l2.781,2.163.67-.876-3.863-2.987-3.966,5.151ZM102.753,24a2.675,2.675,0,0,0-.67,1.751,3.2,3.2,0,0,0,.927,1.8,3.511,3.511,0,0,0,1.185.876,2.173,2.173,0,0,0,1.133.155,2.063,2.063,0,0,0,1.545-1.442,2.1,2.1,0,0,0,0-.979,5.312,5.312,0,0,0-.67-1.339,2.791,2.791,0,0,1-.515-1.185.585.585,0,0,1,.155-.412.63.63,0,0,1,.464-.155,1.935,1.935,0,0,1,.824.464,1.07,1.07,0,0,1,.155,1.545l.979.927a1.834,1.834,0,0,0,.567-1.494,2.58,2.58,0,0,0-.927-1.7,3.528,3.528,0,0,0-1.082-.773,1.752,1.752,0,0,0-1.906.361,1.642,1.642,0,0,0-.515,1.339,3.8,3.8,0,0,0,.567,1.545,6.208,6.208,0,0,1,.515.979.793.793,0,0,1,.1.567.521.521,0,0,1-.206.361.762.762,0,0,1-.67.206,1.765,1.765,0,0,1-.876-.515,1.97,1.97,0,0,1-.464-.927,1.785,1.785,0,0,1,.361-1.03L102.753,24Zm2.833,6.129.876.979,4.945-4.326-.876-.979-4.945,4.326ZM110.84,25.6l.824.927.876-.773-.824-.927-.876.773Zm-.515,7.211a2.541,2.541,0,0,0-.979,1.6,2.638,2.638,0,0,0,.567,1.906,4.038,4.038,0,0,0,.979,1.082,1.815,1.815,0,0,0,1.082.361,2.027,2.027,0,0,0,1.082-.309,1.693,1.693,0,0,0,.721-.773,1.586,1.586,0,0,0,.155-.979,8.266,8.266,0,0,0-.361-1.442,4.8,4.8,0,0,1-.309-1.288.434.434,0,0,1,.206-.361.5.5,0,0,1,.464-.052,1.511,1.511,0,0,1,.67.618,1.11,1.11,0,0,1,.258.824,1.058,1.058,0,0,1-.412.721l.773,1.082a1.949,1.949,0,0,0,.876-1.339,2.773,2.773,0,0,0-.567-1.854,4.082,4.082,0,0,0-.876-.979,1.857,1.857,0,0,0-1.03-.309,1.779,1.779,0,0,0-.927.258,1.684,1.684,0,0,0-.773,1.236,4.184,4.184,0,0,0,.258,1.6c.206.515.309.876.361,1.03a1.039,1.039,0,0,1,0,.567c-.052.155-.1.258-.258.309a.717.717,0,0,1-.721.052,1.8,1.8,0,0,1-.773-.67,1.481,1.481,0,0,1-.258-.979,1.524,1.524,0,0,1,.567-.927l-.773-.979Zm1.6,6.593.618,1.185,2.215-1.185.412.773a7.022,7.022,0,0,0,.721,1.185,1.406,1.406,0,0,0,.618.464,2.16,2.16,0,0,0,.824.206,1.82,1.82,0,0,0,.979-.309,2.008,2.008,0,0,0,.927-.927,1.73,1.73,0,0,0,.1-1.133,5.956,5.956,0,0,0-.67-1.442l-.979-1.906-5.769,3.09Zm5.46-1.391-1.648.876.361.618a5.071,5.071,0,0,0,.567.876.852.852,0,0,0,.979.1.731.731,0,0,0,.412-.464,1.255,1.255,0,0,0,0-.618c-.052-.155-.206-.464-.412-.876l-.258-.515Zm.155,5.666a3.687,3.687,0,0,0-2.06,1.6,3.144,3.144,0,0,0-.1,2.472,3,3,0,0,0,1.6,1.906,3.315,3.315,0,0,0,2.627,0A3.511,3.511,0,0,0,121.708,48a3.144,3.144,0,0,0,.1-2.472,2.914,2.914,0,0,0-.721-1.236,2.479,2.479,0,0,0-.824-.618,3.924,3.924,0,0,0-1.03-.309,5.414,5.414,0,0,0-1.7.309Zm.515,1.288a2.451,2.451,0,0,0-1.442,1.03,1.582,1.582,0,0,0-.1,1.442,1.622,1.622,0,0,0,.979,1.03,2.724,2.724,0,0,0,1.8-.052,2.451,2.451,0,0,0,1.442-1.03,1.742,1.742,0,0,0,.1-1.442,1.706,1.706,0,0,0-.979-1.082,2.473,2.473,0,0,0-1.8.1Zm-1.288,6.85.258,1.288,2.678-.515.052.258a3.7,3.7,0,0,1,.051.67.926.926,0,0,1-.206.464,5.209,5.209,0,0,1-.824.876l-1.236,1.236.309,1.545,1.133-1.03c.464-.412.721-.721.927-.927a3.079,3.079,0,0,0,.412-.824,2.329,2.329,0,0,0,.824,1.185,1.822,1.822,0,0,0,1.288.206,2.161,2.161,0,0,0,.979-.464,1.464,1.464,0,0,0,.464-.876,5.969,5.969,0,0,0-.1-1.545l-.515-2.73-6.49,1.185Zm3.966.567.206.979a3.082,3.082,0,0,0,.309,1.133.692.692,0,0,0,.361.309,1.588,1.588,0,0,0,.515.052,1.611,1.611,0,0,0,.515-.258.925.925,0,0,0,.155-.567,9.684,9.684,0,0,0-.155-.979l-.206-1.03-1.7.361Zm-2.524,8.447.052,1.339,2.009-.052,1.133,1.03-3.039,1.906.052,1.7,3.914-2.73,2.627,2.369-.052-1.8-3.039-2.575,2.936-.1-.052-1.339-6.541.258Zm6.49,7.159-3.5-.258a8.571,8.571,0,0,0-1.648,0,2.428,2.428,0,0,0-.773.309,1.713,1.713,0,0,0-.618.721,3.982,3.982,0,0,0-.309,1.391,3.353,3.353,0,0,0,.1,1.288,2.149,2.149,0,0,0,.464.824,1.939,1.939,0,0,0,.773.464,8.133,8.133,0,0,0,1.648.206l3.451.258.1-1.339-3.605-.258c-.515-.052-.876-.1-1.133-.155a.945.945,0,0,1-.515-.361,1.18,1.18,0,0,1-.155-.876,1.487,1.487,0,0,1,.309-.876,1.077,1.077,0,0,1,.67-.361c.155,0,.515,0,1.082.052l3.554.258.1-1.288Zm-7.262,6.078-.979,4.532,1.082.206.67-3.245,5.305,1.133.258-1.288-6.335-1.339Zm5,7.52L119.081,80.5a12.569,12.569,0,0,0-1.648-.412,1.665,1.665,0,0,0-.824.155,2.467,2.467,0,0,0-.773.567,3.275,3.275,0,0,0-.67,1.288,4.4,4.4,0,0,0-.206,1.288,1.958,1.958,0,0,0,.258.876,1.565,1.565,0,0,0,.67.618,15.525,15.525,0,0,0,1.545.618l3.3,1.082.412-1.236-3.451-1.133a5.881,5.881,0,0,1-1.03-.412.708.708,0,0,1-.412-.515,1.317,1.317,0,0,1,.052-.876,1.224,1.224,0,0,1,.515-.773,1.182,1.182,0,0,1,.721-.206,4.533,4.533,0,0,1,1.082.309l3.4,1.082.412-1.236Zm.052,1.185-.309,1.03,1.03.309.361-1.03-1.082-.309Zm-.618,1.8L121.5,85.6l1.03.309.361-1.03-1.03-.309Zm-2.009,4.275-5.872-2.987-1.03,2.009c-.361.773-.618,1.236-.67,1.442a1.983,1.983,0,0,0-.1.927,1.693,1.693,0,0,0,.361.824,1.72,1.72,0,0,0,.67.567,1.812,1.812,0,0,0,1.03.155,1.489,1.489,0,0,0,.927-.567,1.693,1.693,0,0,0,.206.876,1.776,1.776,0,0,0,.618.618,1.061,1.061,0,0,0,.773.155,1.677,1.677,0,0,0,.721-.206,1.61,1.61,0,0,0,.567-.464,5.7,5.7,0,0,0,.567-1.03l1.236-2.318Zm-1.6.67-1.339-.67-.412.773a8.518,8.518,0,0,0-.412.876.746.746,0,0,0-.052.567.916.916,0,0,0,.361.412.624.624,0,0,0,.515.052.689.689,0,0,0,.412-.361c.052-.1.258-.464.515-.979l.412-.67Zm-2.318-1.185-1.545-.773-.567,1.082a3.785,3.785,0,0,0-.361.824,1.058,1.058,0,0,0,0,.567.8.8,0,0,0,.412.412.929.929,0,0,0,.515.1.712.712,0,0,0,.464-.258,3.665,3.665,0,0,0,.618-1.03l.464-.927Zm.567,6.85-2.987-1.854a5.9,5.9,0,0,0-1.494-.773,1.471,1.471,0,0,0-.824-.052,2.114,2.114,0,0,0-.876.361,3.351,3.351,0,0,0-.927,1.082,3.75,3.75,0,0,0-.515,1.185,1.816,1.816,0,0,0,.051.927,2.249,2.249,0,0,0,.515.773,7.485,7.485,0,0,0,1.339.979l2.936,1.854.721-1.133-3.09-1.906a4.63,4.63,0,0,1-.927-.618,1.175,1.175,0,0,1-.309-.618,1.11,1.11,0,0,1,.258-.824,1.51,1.51,0,0,1,.67-.618,1,1,0,0,1,.773,0,9.242,9.242,0,0,1,.979.567l3.039,1.906.67-1.236Zm-.258,1.133-.567.927.927.567.567-.927-.927-.567Zm-1.03,1.648-.567.927.927.567.567-.927-.927-.567Zm-58.51,27.71V117.33H55.368a3.143,3.143,0,0,1-1.03,1.339,6.458,6.458,0,0,1-1.391.773v1.442a6.065,6.065,0,0,0,2.112-1.185v5.975Zm2.472-1.957a2.469,2.469,0,0,0,.773,1.545,2.294,2.294,0,0,0,1.6.515,2.761,2.761,0,0,0,2.215-1.03,5.053,5.053,0,0,0,.876-3.3,4.754,4.754,0,0,0-.824-3.193,2.587,2.587,0,0,0-2.112-.979,2.68,2.68,0,0,0-1.957.773,3.076,3.076,0,0,0-.052,4.017,2.279,2.279,0,0,0,1.7.773,2.006,2.006,0,0,0,1.545-.721,3.609,3.609,0,0,1-.464,1.906,1.077,1.077,0,0,1-.876.464.821.821,0,0,1-.618-.206,1.177,1.177,0,0,1-.309-.721l-1.494.155Zm3.657-3.451a1.635,1.635,0,0,0-.361-1.185,1.161,1.161,0,0,0-.824-.412.779.779,0,0,0-.721.361,1.75,1.75,0,0,0-.309,1.133,1.913,1.913,0,0,0,.309,1.185.96.96,0,0,0,.824.361.927.927,0,0,0,.773-.361,1.69,1.69,0,0,0,.309-1.082Zm2.884,3.451a2.469,2.469,0,0,0,.773,1.545,2.294,2.294,0,0,0,1.6.515,2.761,2.761,0,0,0,2.215-1.03,5.053,5.053,0,0,0,.876-3.3,4.754,4.754,0,0,0-.824-3.193,2.587,2.587,0,0,0-2.112-.979,2.68,2.68,0,0,0-1.957.773,3.076,3.076,0,0,0-.052,4.017,2.2,2.2,0,0,0,1.7.773,2.006,2.006,0,0,0,1.545-.721,3.609,3.609,0,0,1-.464,1.906,1.077,1.077,0,0,1-.876.464.821.821,0,0,1-.618-.206,1.177,1.177,0,0,1-.309-.721l-1.494.155Zm3.657-3.451a1.635,1.635,0,0,0-.361-1.185,1.161,1.161,0,0,0-.824-.412.779.779,0,0,0-.721.361,1.75,1.75,0,0,0-.309,1.133,1.913,1.913,0,0,0,.309,1.185.96.96,0,0,0,.824.361.927.927,0,0,0,.773-.361,1.69,1.69,0,0,0,.309-1.082Zm5.614-2.936a2.326,2.326,0,0,0-1.906.876,5.312,5.312,0,0,0-.824,3.4,5.237,5.237,0,0,0,.773,3.3,2.492,2.492,0,0,0,2.009.927A2.288,2.288,0,0,0,76.949,125a5.311,5.311,0,0,0,.824-3.4,5.409,5.409,0,0,0-.824-3.4,2.349,2.349,0,0,0-1.957-.876Zm0,1.288a.661.661,0,0,0-.515.206,1.344,1.344,0,0,0-.361.67,9.434,9.434,0,0,0-.155,2.06,8.581,8.581,0,0,0,.155,2.009,1.326,1.326,0,0,0,.361.721.915.915,0,0,0,.515.206.661.661,0,0,0,.515-.206,1.344,1.344,0,0,0,.361-.67,9.434,9.434,0,0,0,.155-2.06,8.583,8.583,0,0,0-.155-2.009,1.326,1.326,0,0,0-.361-.721.915.915,0,0,0-.515-.206ZM65,14.679A50.321,50.321,0,1,0,115.321,65,50.359,50.359,0,0,0,65,14.679Z" transform="translate(-7.718 -7.711)"/>
    <path id="Path_14" data-name="Path 14" class="cls-3" d="M91.022,65.905H93.01s.052.153.052-1.683V58.305h0L94.579,47.9h.471l1.674,9.64h0a15.87,15.87,0,0,1,.209,1.734c0,.51.052,6.58.052,6.58V65.8l3.872.051.1-6.427h0l.209-1.989,1.517-9.538h.419l1.517,9.691h0a8.835,8.835,0,0,1,.209,1.581l.157,6.682V65.8l2.093.051v1.479l-2.093,2.805-.052,7.4h3.767V70.9h0s.262-2.193.419-3.06l1.36-9.028h.366l1.308,9.028h0l.419,3.978c0,1.836.1,5.662.1,5.662h1.988v1.989l-1.988,2.346v6.427h0s2.459-4.183,6.749-4.08c1.413.051,5.6.357,7.011,4.795h0l-13.813.153.052,6.733h0s3.035-4.234,8.058-3.825c1.57.153,6.593.306,8.267,5.56h-16.22l-.052.1s1.988,16.985-14.7,17.24c-1.256-.051-13.97-1.428-13.028-17.189h0l-17,.2h0a8.718,8.718,0,0,1,8.685-6.07A9.22,9.22,0,0,1,84.691,96.2h.262L84.9,89.011l-13.6-.153h0a7.249,7.249,0,0,1,6.8-4.489,7.126,7.126,0,0,1,6.54,3.978h0L84.9,88.3V81.921l-1.936-2.346V77.586H84.9l.1-6.58h0s.262-2.754.366-3.366c.1-.663,1.256-8.722,1.256-8.722h.523l1.413,8.722h0a33.457,33.457,0,0,1,.419,4.336c-.052,1.326.052,5.662.052,5.662h3.924v-7.4l-1.988-2.805.052-1.53ZM97.2,70.19v7.4h3.767v-7.4l-1.936-1.836L97.2,70.19ZM89.138,81.921V91.969a14.361,14.361,0,0,1,4.081-2.805l-.052-7.243-2.145-2.04-1.884,2.04Zm8.11,0,.1,6.172a16.277,16.277,0,0,1,3.506.051l.1-6.223-1.936-1.989-1.779,1.989Zm7.8,7.5a12.481,12.481,0,0,1,3.61,2.55V81.921l-1.884-2.04-1.831,2.04.1,7.5Zm-13.5,7.855h6.8l-3.4-5.713-3.4,5.713Zm7.953-.051h6.8l-3.4-5.713-3.4,5.713Zm-12.086,7.09h6.8l-3.4-5.713-3.4,5.713Zm8.215-.153h6.8l-3.4-5.713-3.4,5.713Zm8.214,0h6.8l-3.4-5.713-3.4,5.713Zm-4.186,6.733h6.8l-3.4-5.713-3.4,5.713Zm-8.058,0h6.8L95,105.18l-3.4,5.713ZM71.506,99.722c-.628,9.844,2.878,14.129,4.029,15.914,7.953,12.6,22.027,12.139,22.027,12.139h0v-10.2h0C81.5,115.687,82.284,99.722,82.284,99.722H80.139v1.989l-1.779.051V99.773l-2.564.051-.052,1.989-1.622.051V99.773l-2.616-.051Zm28.986,17.648v10.354h0s22.6-.255,25.69-23.718a30.812,30.812,0,0,0-.1-4.336h-2.354l.052,2.04h-1.936V99.62l-2.25.051-.052,2.04-1.674.051V99.62h-2.511v-.051C115.3,99.62,116.607,115.687,100.492,117.371Z" transform="translate(-41.171 -30.549)"/>
  </g>
</svg>
