<svg xmlns="http://www.w3.org/2000/svg" width="103.07" height="100.123" viewBox="0 0 103.07 100.123"><g transform="translate(0.035)"><path d="M45.3,57.3a6.083,6.083,0,0,0,6.2,6.1,6.15,6.15,0,1,0-.1-12.3A6.211,6.211,0,0,0,45.3,57.3Zm6.2,3.1a3.222,3.222,0,0,1-3.2-3.2A3.159,3.159,0,0,1,51.5,54a3.222,3.222,0,0,1,3.2,3.2h0a3.289,3.289,0,0,1-3.2,3.2Z" fill="#0b0539"/><path d="M51.5,46.7l4.6-13H46.9Z" fill="#0b0539"/><path d="M58,88.7c-1.5-2.3-3.4-9.3.5-12.4,2.1-1.7,4.6-1.4,7.1-.5.1-3.2,1.7-13.5,4.5-15.7v0a4.725,4.725,0,0,1,2-1,7.017,7.017,0,0,1,2.5.1c-1-6.3-.9-9.5,1.2-11.5L69.6,37.5a7.6,7.6,0,0,0-7.1-3.7L57.1,49a10.012,10.012,0,1,1-13.9,2.7A8.7,8.7,0,0,1,45.9,49L40.5,33.8a7.79,7.79,0,0,0-7.1,3.7L27.2,47.7c2.1,1.9,2.2,5.1,1.2,11.5a7.487,7.487,0,0,1,2.1-.2,6.963,6.963,0,0,1,2.3,1.1h0c2.8,2.2,4.4,12.4,4.5,15.8,2.5-.9,5-1.2,7.1.4,3.9,3.1,2,10.1.5,12.4a6.589,6.589,0,0,1-2.3,2.1H60.2A7.286,7.286,0,0,1,58,88.7Z" fill="#0b0539"/><path d="M51.5,30.8A15.4,15.4,0,1,0,36.2,15.4h0A15.258,15.258,0,0,0,51.5,30.8Z" fill="#0b0539"/><path d="M26.9,78.9c-3.2-4.5-3.2-4.5-6.1-9.2-2.8-5.2-5.9-11.5-7.3-17.3a61.027,61.027,0,0,1-1.3-16.5,89.835,89.835,0,0,1,1.5-12.7,50.1,50.1,0,0,0-2.9,12.6,57.736,57.736,0,0,0,.3,16.6,81.019,81.019,0,0,0,6.1,19.2c2.7,5.3,3.2,5.9,5.8,10.5a96.537,96.537,0,0,0,6.8,9c-5-1.6-5.8,6.2-3.2,8.3,2.4,1.9,6.9-.4,7.7-1.7.9-1.4-.2-3.7-2.2-5.3a3.227,3.227,0,0,0,2.1-.8,2.987,2.987,0,0,0,.1-4.2C26.2,78.5,29.1,81.7,26.9,78.9Z" fill="#0b0539"/><path d="M15.3,20.7c1.5.6,3.4-.7,4.4-2.8.9-2.1,3-8.1,1.7-9.1-1.4-1-6.1,4.1-7.1,6.6C13.2,17.7,13.7,20.1,15.3,20.7Z" fill="#0b0539"/><path d="M16.1,25.4a2.177,2.177,0,0,0-.8.5,5.261,5.261,0,0,0-1.4,5.8,5.547,5.547,0,0,0,.6.8,2.387,2.387,0,0,0,3.4.1l.1-.1c1.4-1.4,4.6-5.6,4.1-7.3C21.7,23.6,18.1,24.3,16.1,25.4Z" fill="#0b0539"/><path d="M42,79.5c-1.5-1.2-5.5,1-6.7,2.1-1.1,1.2-.7,3.5,1.2,4.9s4.2,1.4,5.1,0S43.5,80.6,42,79.5Z" fill="#0b0539"/><path d="M18.6,47.6c.9-1.7,4.2-8.5,3.3-9.8-1.1-1.6-6.7,2.8-7.8,4.6C11.3,46,16,51.7,18.6,47.6Z" fill="#0b0539"/><path d="M17.2,58a5.6,5.6,0,0,0,2.2,6.2,2.937,2.937,0,0,0,4.1-.9,2.1,2.1,0,0,0,.4-1.1c.3-2.2,2-10.5.6-11.6C22.8,49.2,17.8,55.7,17.2,58Z" fill="#0b0539"/><path d="M29.2,79.5a3.379,3.379,0,0,0,4.2-3.7c-.5-2.5-1.5-12-3.3-12.8-2.3-1-5.7,7.7-5.5,10.5A6.125,6.125,0,0,0,29.2,79.5Z" fill="#0b0539"/><path d="M10.1,30.9a6.512,6.512,0,0,0,1.4-6.1c-.7-1.9-3.3-6.5-5-5.1C4.7,21.2,5,28.2,6,30.1,6.8,32.1,8.7,32.4,10.1,30.9Z" fill="#0b0539"/><path d="M8.9,48.6a6.7,6.7,0,0,0-.3-6.3c-1.3-1.5-6.1-8.1-7.4-6.4C-.4,37.9,3.1,47.5,4.7,49,6.1,50.7,8,50.4,8.9,48.6Z" fill="#0b0539"/><path d="M8.3,68.9c2.1,1.5,4.1.5,4.5-1.9a7.485,7.485,0,0,0-2.5-6.9C8.4,58.8,1,52.8.1,55.1-1.1,57.8,6,67.7,8.3,68.9Z" fill="#0b0539"/><path d="M18.4,77.7c-2.6-.7-12.7-5-12.9-2.1-.4,3.5,10.9,12.2,14,12.6,2.9.9,4.6-.9,4.2-3.7A9.678,9.678,0,0,0,18.4,77.7Z" fill="#0b0539"/><path d="M73.3,91A88.7,88.7,0,0,0,85.8,71.5a85.865,85.865,0,0,0,6.1-19.2,59.521,59.521,0,0,0,.5-14,56.3,56.3,0,0,0-3.1-15.2,87.284,87.284,0,0,1,1.6,15.3,58.58,58.58,0,0,1-1.4,13.9C88,58.6,85,64.6,82.2,69.6c-6.8,11-7.7,11.3-13.5,17.6a3.085,3.085,0,0,0,.1,4.2,3.227,3.227,0,0,0,2.1.8c-2,1.6-3.1,3.9-2.2,5.3s5.3,3.6,7.7,1.7,1.2-6.7.1-7.9C75.8,90.6,74.6,90.6,73.3,91Z" fill="#0b0539"/><path d="M87.7,20.7c1.5-.6,2.1-3,1-5.3-1-2.4-5.7-7.6-7.1-6.6-1.2,1,.9,7,1.7,9.1C84.3,20,86.1,21.3,87.7,20.7Z" fill="#0b0539"/><path d="M89,31.7a5.135,5.135,0,0,0-1.4-5.8c-1.5-1.3-6.3-2.6-6.9-.8-.6,1.7,2.7,5.9,4.1,7.3a2.632,2.632,0,0,0,3.6.1A1.555,1.555,0,0,0,89,31.7Z" fill="#0b0539"/><path d="M67.7,81.6c-1.1-1.2-5.2-3.3-6.7-2.1s-.5,5.7.4,7.1,3.2,1.4,5.1,0C68.3,85.1,68.8,82.8,67.7,81.6Z" fill="#0b0539"/><path d="M81.1,37.7c-.9,1.4,2.5,8.1,3.3,9.8a2.6,2.6,0,0,0,3.4,1.1,2.7,2.7,0,0,0,.8-.7,4.972,4.972,0,0,0,.3-5.7C87.8,40.5,82.2,36.1,81.1,37.7Z" fill="#0b0539"/><path d="M83.6,64.2A5.551,5.551,0,0,0,85.8,58c-.6-2.3-5.7-8.8-7.3-7.4-1.4,1.1.3,9.4.6,11.6a2.921,2.921,0,0,0,3.4,2.3A1.8,1.8,0,0,0,83.6,64.2Z" fill="#0b0539"/><path d="M72.9,63.1c-1.8.7-2.7,10.2-3.3,12.8a3.379,3.379,0,0,0,4.2,3.7,6.212,6.212,0,0,0,4.6-6C78.6,70.7,75.2,62,72.9,63.1Z" fill="#0b0539"/><path d="M97,30.3c.9-2,1.3-9-.6-10.4-1.7-1.4-4.3,3.2-5,5.1a6.786,6.786,0,0,0,1.4,6.1C94.3,32.6,96.2,32.4,97,30.3Z" fill="#0b0539"/><path d="M94,48.6c1,1.8,2.8,2.1,4.2.4,1.6-1.5,5.1-11.1,3.5-13.1-1.3-1.7-6.1,4.9-7.4,6.4A6.981,6.981,0,0,0,94,48.6Z" fill="#0b0539"/><path d="M90.2,67c.4,2.4,2.4,3.4,4.5,1.9,2.3-1.2,9.4-11,8.2-13.8-.9-2.3-8.3,3.6-10.2,5A7.485,7.485,0,0,0,90.2,67Z" fill="#0b0539"/><path d="M84.6,77.7a9.307,9.307,0,0,0-5.2,6.8c-.5,2.8,1.2,4.6,4.2,3.7,3-.5,14.4-9.1,14-12.6C97.2,72.7,87.1,76.9,84.6,77.7Z" fill="#0b0539"/></g></svg>