<svg xmlns="http://www.w3.org/2000/svg" width="181" height="180.95" viewBox="0 0 181 180.95">
  <g id="tenis" transform="translate(-4948.69 -2408.104)">
    <g id="Group_3388" data-name="Group 3388">
      <g id="Group_3095-2" data-name="Group 3095-2">
        <path id="Path_10858-2" data-name="Path 10858-2" d="M5043.593,2548.362a.388.388,0,0,1,.428-.339l.016,0a22.785,22.785,0,0,0,5.729-.12c3.286-.364,6.521.561,6.408,4.75a.384.384,0,0,1-.4.371.339.339,0,0,1-.054-.005c-.665-.119-2.318-.189-6.277.446C5044.867,2554.2,5043.224,2551.518,5043.593,2548.362Z" fill="#142266"/>
        <path id="Path_10859-2" data-name="Path 10859-2" d="M5040.012,2547.842a.385.385,0,0,0,.489.242l.011,0a22.721,22.721,0,0,1,5.632-1.056c3.291-.316,6.269-1.884,5.3-5.961a.385.385,0,0,0-.464-.283.335.335,0,0,0-.051.017c-.626.253-2.23.659-6.236.849C5040.067,2541.862,5039.008,2544.828,5040.012,2547.842Z" fill="#142266"/>
      </g>
      <g id="Group_3096-2" data-name="Group 3096-2">
        <path id="Path_10860-2" data-name="Path 10860-2" d="M5057.542,2546a.386.386,0,0,1,.349-.42h.016a22.766,22.766,0,0,0,5.579-1.308c3.138-1.039,6.5-.807,7.256,3.314a.385.385,0,0,1-.31.446.493.493,0,0,1-.053.006c-.675.021-2.307.3-6.048,1.741C5060,2551.444,5057.841,2549.164,5057.542,2546Z" fill="#142266"/>
        <path id="Path_10861-2" data-name="Path 10861-2" d="M5053.935,2546.236a.386.386,0,0,0,.528.136l.014-.008a22.765,22.765,0,0,1,5.289-2.2c3.153-.993,5.74-3.146,3.945-6.933a.385.385,0,0,0-.513-.181.44.44,0,0,0-.046.027c-.56.378-2.044,1.109-5.923,2.127C5052.745,2540.378,5052.326,2543.5,5053.935,2546.236Z" fill="#142266"/>
      </g>
      <g id="Group_3097-2" data-name="Group 3097-2">
        <path id="Path_10862-2" data-name="Path 10862-2" d="M5070.7,2540.792a.386.386,0,0,1,.253-.484l.016,0a22.794,22.794,0,0,0,5.185-2.439c2.854-1.669,6.186-2.14,7.786,1.733a.384.384,0,0,1-.211.5.414.414,0,0,1-.05.017c-.656.161-2.194.77-5.553,2.96C5074.246,2545.607,5071.646,2543.823,5070.7,2540.792Z" fill="#142266"/>
        <path id="Path_10863-2" data-name="Path 10863-2" d="M5067.218,2541.772a.386.386,0,0,0,.545.023l.012-.011a22.675,22.675,0,0,1,4.716-3.255c2.877-1.627,4.96-4.271,2.417-7.6a.383.383,0,0,0-.537-.071.273.273,0,0,0-.041.037c-.469.486-1.769,1.51-5.351,3.312C5064.837,2536.289,5065.076,2539.427,5067.218,2541.772Z" fill="#142266"/>
      </g>
      <g id="Group_3098-2" data-name="Group 3098-2">
        <path id="Path_10864-2" data-name="Path 10864-2" d="M5082.487,2532.96a.387.387,0,0,1,.148-.526l.014-.007a22.8,22.8,0,0,0,4.564-3.464c2.444-2.226,5.6-3.379,7.976.076a.383.383,0,0,1-.1.532.305.305,0,0,1-.047.028c-.608.294-1.986,1.21-4.816,4.05C5086.952,2536.934,5084.046,2535.728,5082.487,2532.96Z" fill="#142266"/>
        <path id="Path_10865-2" data-name="Path 10865-2" d="M5079.286,2534.642a.386.386,0,0,0,.538-.088l.009-.012a22.674,22.674,0,0,1,3.936-4.164c2.476-2.19,3.964-5.209.784-7.938a.383.383,0,0,0-.573.087c-.358.573-1.417,1.844-4.546,4.352C5075.816,2529.774,5076.7,2532.794,5079.286,2534.642Z" fill="#142266"/>
      </g>
      <g id="Group_3099-2" data-name="Group 3099-2">
        <path id="Path_10866-2" data-name="Path 10866-2" d="M5092.386,2522.85a.385.385,0,0,1,.035-.545l.012-.01a22.807,22.807,0,0,0,3.744-4.337c1.928-2.685,4.781-4.471,7.818-1.584a.384.384,0,0,1,.011.543.3.3,0,0,1-.039.036c-.533.414-1.692,1.6-3.869,4.963C5097.58,2525.807,5094.486,2525.233,5092.386,2522.85Z" fill="#142266"/>
        <path id="Path_10867-2" data-name="Path 10867-2" d="M5089.6,2525.16a.386.386,0,0,0,.508-.2l.006-.015a22.686,22.686,0,0,1,2.984-4.891c1.967-2.657,2.795-5.919-.883-7.928a.383.383,0,0,0-.521.154.324.324,0,0,0-.021.046c-.231.635-1,2.1-3.542,5.2C5085.2,2521.12,5086.689,2523.89,5089.6,2525.16Z" fill="#142266"/>
      </g>
      <g id="Group_3100-2" data-name="Group 3100-2">
        <path id="Path_10868-2" data-name="Path 10868-2" d="M5099.968,2510.906a.385.385,0,0,1-.079-.54l.01-.013a22.784,22.784,0,0,0,2.761-5.021c1.327-3.028,3.746-5.367,7.318-3.175a.383.383,0,0,1,.125.527.367.367,0,0,1-.032.045c-.436.516-1.323,1.913-2.753,5.659C5105.664,2512.716,5102.518,2512.8,5099.968,2510.906Z" fill="#142266"/>
        <path id="Path_10869-2" data-name="Path 10869-2" d="M5097.729,2513.74a.387.387,0,0,0,.455-.3l0-.015a22.712,22.712,0,0,1,1.9-5.405c1.371-3.008,1.5-6.37-2.513-7.57a.382.382,0,0,0-.476.258.284.284,0,0,0-.012.054c-.094.669-.544,2.261-2.382,5.825C5092.579,2510.705,5094.617,2513.1,5097.729,2513.74Z" fill="#142266"/>
      </g>
      <g id="Group_3101-2" data-name="Group 3101-2">
        <path id="Path_10870-2" data-name="Path 10870-2" d="M5104.9,2497.638a.385.385,0,0,1-.19-.511l.008-.015a22.76,22.76,0,0,0,1.656-5.486c.669-3.237,2.548-6.029,6.5-4.626a.383.383,0,0,1,.231.49.457.457,0,0,1-.022.05c-.319.6-.9,2.146-1.516,6.108C5110.849,2498.229,5107.788,2498.961,5104.9,2497.638Z" fill="#142266"/>
        <path id="Path_10871-2" data-name="Path 10871-2" d="M5103.3,2500.88a.386.386,0,0,0,.382-.39v-.016a22.74,22.74,0,0,1,.737-5.682c.716-3.227.145-6.544-4.032-6.883a.384.384,0,0,0-.412.354.479.479,0,0,0,0,.053c.047.674-.062,2.325-1.119,6.193C5097.631,2498.981,5100.123,2500.9,5103.3,2500.88Z" fill="#142266"/>
      </g>
      <g id="Group_3102-2" data-name="Group 3102-2">
        <path id="Path_10872-2" data-name="Path 10872-2" d="M5106.967,2483.639a.387.387,0,0,1-.292-.462l0-.015a22.771,22.771,0,0,0,.48-5.71c-.019-3.306,1.239-6.427,5.394-5.877a.382.382,0,0,1,.328.43.345.345,0,0,1-.011.055c-.188.649-.43,2.286-.213,6.29C5112.908,2482.979,5110.067,2484.332,5106.967,2483.639Z" fill="#142266"/>
        <path id="Path_10873-2" data-name="Path 10873-2" d="M5106.078,2487.142a.386.386,0,0,0,.292-.461l0-.015a22.726,22.726,0,0,1-.461-5.711c.029-3.306-1.219-6.431-5.375-5.894a.383.383,0,0,0-.33.431.313.313,0,0,0,.011.053c.186.649.423,2.287.193,6.29C5100.136,2486.464,5102.973,2487.826,5106.078,2487.142Z" fill="#142266"/>
      </g>
      <g id="Group_3103-2" data-name="Group 3103-2">
        <path id="Path_10874-2" data-name="Path 10874-2" d="M5106.078,2469.517a.387.387,0,0,1-.381-.392v-.015a22.756,22.756,0,0,0-.718-5.685c-.706-3.229-.124-6.544,4.054-6.87a.382.382,0,0,1,.41.355.321.321,0,0,1,0,.053c-.049.674.054,2.325,1.1,6.2C5111.753,2467.636,5109.255,2469.551,5106.078,2469.517Z" fill="#142266"/>
        <path id="Path_10875-2" data-name="Path 10875-2" d="M5105.934,2473.129a.387.387,0,0,0,.191-.512l-.007-.014a22.68,22.68,0,0,1-1.639-5.49c-.658-3.24-2.529-6.037-6.483-4.648a.382.382,0,0,0-.234.488.3.3,0,0,0,.023.052c.317.6.889,2.149,1.5,6.113C5099.988,2473.7,5103.042,2474.443,5105.934,2473.129Z" fill="#142266"/>
      </g>
      <g id="Group_3104-2" data-name="Group 3104-2">
        <path id="Path_10876-2" data-name="Path 10876-2" d="M5102.272,2455.888a.387.387,0,0,1-.455-.3l0-.016a22.792,22.792,0,0,0-1.884-5.411c-1.362-3.012-1.482-6.375,2.537-7.562a.382.382,0,0,1,.475.259.416.416,0,0,1,.012.055c.092.669.536,2.263,2.364,5.833C5107.436,2452.869,5105.386,2455.261,5102.272,2455.888Z" fill="#142266"/>
        <path id="Path_10877-2" data-name="Path 10877-2" d="M5102.882,2459.451a.386.386,0,0,0,.081-.54l-.01-.013a22.78,22.78,0,0,1-2.744-5.03c-1.318-3.032-3.729-5.379-7.307-3.2a.383.383,0,0,0-.125.528.329.329,0,0,0,.031.044c.434.517,1.317,1.917,2.734,5.668C5097.18,2461.247,5100.326,2461.337,5102.882,2459.451Z" fill="#142266"/>
      </g>
      <g id="Group_3105-2" data-name="Group 3105-2">
        <path id="Path_10878-2" data-name="Path 10878-2" d="M5095.716,2443.347a.386.386,0,0,1-.507-.2l-.006-.014a22.743,22.743,0,0,0-2.968-4.9c-1.958-2.663-2.775-5.928.91-7.925a.384.384,0,0,1,.52.157.374.374,0,0,1,.022.049c.229.635,1,2.1,3.524,5.214C5100.134,2439.321,5098.631,2442.086,5095.716,2443.347Z" fill="#142266"/>
        <path id="Path_10879-2" data-name="Path 10879-2" d="M5097.053,2446.706a.387.387,0,0,0-.034-.545l-.012-.01a22.755,22.755,0,0,1-3.73-4.35c-1.919-2.692-4.766-4.487-7.813-1.609a.384.384,0,0,0-.014.543.4.4,0,0,0,.04.036c.532.416,1.687,1.6,3.853,4.976C5091.849,2449.648,5094.945,2449.083,5097.053,2446.706Z" fill="#142266"/>
      </g>
      <g id="Group_3106-2" data-name="Group 3106-2">
        <path id="Path_10880-2" data-name="Path 10880-2" d="M5086.695,2432.443a.386.386,0,0,1-.538-.093l-.009-.013a22.742,22.742,0,0,0-3.922-4.177c-2.469-2.2-3.947-5.221-.758-7.94a.384.384,0,0,1,.541.045.514.514,0,0,1,.032.044c.356.574,1.411,1.849,4.531,4.367C5090.18,2427.587,5089.285,2430.6,5086.695,2432.443Z" fill="#142266"/>
        <path id="Path_10881-2" data-name="Path 10881-2" d="M5088.7,2435.455a.386.386,0,0,0-.147-.526l-.013-.007a22.759,22.759,0,0,1-4.553-3.479c-2.437-2.234-5.594-3.4-7.976.05a.382.382,0,0,0,.1.532.4.4,0,0,0,.048.029c.607.3,1.982,1.216,4.8,4.066C5084.224,2439.41,5087.134,2438.213,5088.7,2435.455Z" fill="#142266"/>
      </g>
      <g id="Group_3107-2" data-name="Group 3107-2">
        <path id="Path_10882-2" data-name="Path 10882-2" d="M5075.606,2423.654a.388.388,0,0,1-.546.022l-.011-.011a22.762,22.762,0,0,0-4.7-3.271c-2.872-1.637-4.946-4.287-2.392-7.609a.382.382,0,0,1,.537-.069.417.417,0,0,1,.041.037c.468.487,1.764,1.516,5.34,3.329C5078,2418.18,5077.756,2421.316,5075.606,2423.654Z" fill="#142266"/>
        <path id="Path_10883-2" data-name="Path 10883-2" d="M5078.194,2426.179a.387.387,0,0,0-.252-.485l-.016,0a22.753,22.753,0,0,1-5.177-2.456c-2.848-1.678-6.178-2.16-7.792,1.708a.383.383,0,0,0,.207.5.463.463,0,0,0,.053.018c.655.163,2.192.777,5.544,2.978C5074.636,2430.983,5077.235,2429.207,5078.194,2426.179Z" fill="#142266"/>
      </g>
      <g id="Group_3108-2" data-name="Group 3108-2">
        <path id="Path_10884-2" data-name="Path 10884-2" d="M5062.929,2417.362a.387.387,0,0,1-.529.134l-.014-.008a22.72,22.72,0,0,0-5.282-2.221c-3.15-1-5.729-3.165-3.922-6.946a.384.384,0,0,1,.513-.179.4.4,0,0,1,.046.027c.559.379,2.041,1.116,5.916,2.146C5064.138,2411.508,5064.547,2414.628,5062.929,2417.362Z" fill="#142266"/>
        <path id="Path_10885-2" data-name="Path 10885-2" d="M5065.982,2419.294a.386.386,0,0,0-.348-.421h-.015a22.772,22.772,0,0,1-5.574-1.326c-3.135-1.05-6.493-.829-7.266,3.29a.383.383,0,0,0,.308.447.511.511,0,0,0,.054.006c.675.024,2.306.3,6.042,1.76C5063.5,2424.733,5065.682,2422.456,5065.982,2419.294Z" fill="#142266"/>
      </g>
      <g id="Group_3109-2" data-name="Group 3109-2">
        <path id="Path_10886-2" data-name="Path 10886-2" d="M5035.085,2548.362a.387.387,0,0,0-.429-.339l-.015,0a22.785,22.785,0,0,1-5.729-.12c-3.286-.364-6.521.561-6.408,4.75a.383.383,0,0,0,.394.371.351.351,0,0,0,.055-.005c.665-.119,2.318-.189,6.277.446C5033.808,2554.2,5035.451,2551.518,5035.085,2548.362Z" fill="#142266"/>
        <path id="Path_10887-2" data-name="Path 10887-2" d="M5038.662,2547.842a.387.387,0,0,1-.49.242l-.01,0a22.746,22.746,0,0,0-5.632-1.056c-3.291-.316-6.269-1.884-5.3-5.961a.384.384,0,0,1,.464-.283.467.467,0,0,1,.051.017c.626.253,2.23.659,6.236.849C5038.611,2541.862,5039.666,2544.828,5038.662,2547.842Z" fill="#142266"/>
      </g>
      <g id="Group_3110-2" data-name="Group 3110-2">
        <path id="Path_10888-2" data-name="Path 10888-2" d="M5021.132,2546a.387.387,0,0,0-.349-.42h-.016a22.754,22.754,0,0,1-5.579-1.308c-3.138-1.039-6.5-.807-7.256,3.314a.384.384,0,0,0,.309.446.488.488,0,0,0,.054.006c.675.021,2.306.3,6.047,1.741C5018.669,2551.444,5020.834,2549.164,5021.132,2546Z" fill="#142266"/>
        <path id="Path_10889-2" data-name="Path 10889-2" d="M5024.74,2546.236a.388.388,0,0,1-.529.136l-.013-.008a22.809,22.809,0,0,0-5.289-2.2c-3.153-.993-5.74-3.146-3.945-6.933a.385.385,0,0,1,.512-.181.447.447,0,0,1,.047.027c.56.378,2.044,1.109,5.923,2.127C5025.929,2540.378,5026.348,2543.5,5024.74,2546.236Z" fill="#142266"/>
      </g>
      <g id="Group_3111-2" data-name="Group 3111-2">
        <path id="Path_10890-2" data-name="Path 10890-2" d="M5007.975,2540.792a.387.387,0,0,0-.254-.484l-.015,0a22.765,22.765,0,0,1-5.185-2.439c-2.854-1.669-6.186-2.14-7.786,1.733a.384.384,0,0,0,.21.5.407.407,0,0,0,.051.017c.656.161,2.193.77,5.553,2.96C5004.432,2545.607,5007.026,2543.823,5007.975,2540.792Z" fill="#142266"/>
        <path id="Path_10891-2" data-name="Path 10891-2" d="M5011.455,2541.772a.387.387,0,0,1-.546.023l-.011-.011a22.7,22.7,0,0,0-4.716-3.255c-2.877-1.627-4.96-4.271-2.417-7.6a.382.382,0,0,1,.537-.071.42.42,0,0,1,.041.037c.469.486,1.769,1.51,5.351,3.312C5013.84,2536.289,5013.6,2539.427,5011.455,2541.772Z" fill="#142266"/>
      </g>
      <g id="Group_3112-2" data-name="Group 3112-2">
        <path id="Path_10892-2" data-name="Path 10892-2" d="M4996.19,2532.96a.387.387,0,0,0-.148-.526l-.014-.007a22.788,22.788,0,0,1-4.564-3.464c-2.444-2.226-5.6-3.379-7.976.076a.383.383,0,0,0,.1.532.3.3,0,0,0,.048.028c.608.294,1.986,1.21,4.817,4.05C4991.724,2536.934,4994.634,2535.728,4996.19,2532.96Z" fill="#142266"/>
        <path id="Path_10893-2" data-name="Path 10893-2" d="M4999.39,2534.642a.387.387,0,0,1-.539-.088l-.008-.012a22.738,22.738,0,0,0-3.936-4.164c-2.476-2.19-3.964-5.209-.784-7.938a.38.38,0,0,1,.573.087c.358.573,1.417,1.844,4.546,4.352C5002.859,2529.774,5001.973,2532.794,4999.39,2534.642Z" fill="#142266"/>
      </g>
      <g id="Group_3113-2" data-name="Group 3113-2">
        <path id="Path_10894-2" data-name="Path 10894-2" d="M4986.286,2522.85a.387.387,0,0,0-.036-.545l-.012-.01a22.76,22.76,0,0,1-3.744-4.337c-1.928-2.685-4.781-4.471-7.818-1.584a.384.384,0,0,0-.012.543.313.313,0,0,0,.04.036c.534.414,1.692,1.6,3.869,4.963C4981.094,2525.807,4984.186,2525.233,4986.286,2522.85Z" fill="#142266"/>
        <path id="Path_10895-2" data-name="Path 10895-2" d="M4989.07,2525.16a.386.386,0,0,1-.508-.2l-.006-.015a22.785,22.785,0,0,0-2.984-4.891c-1.967-2.657-2.794-5.919.884-7.928a.382.382,0,0,1,.52.154.282.282,0,0,1,.022.046c.231.635,1,2.1,3.541,5.2C4993.476,2521.12,4991.981,2523.89,4989.07,2525.16Z" fill="#142266"/>
      </g>
      <g id="Group_3114-2" data-name="Group 3114-2">
        <path id="Path_10896-2" data-name="Path 10896-2" d="M4978.706,2510.906a.386.386,0,0,0,.079-.54l-.01-.013a22.783,22.783,0,0,1-2.761-5.021c-1.328-3.028-3.746-5.367-7.318-3.175a.384.384,0,0,0-.126.527c.01.015.021.03.033.045.436.516,1.323,1.913,2.753,5.659C4973.006,2512.716,4976.157,2512.8,4978.706,2510.906Z" fill="#142266"/>
        <path id="Path_10897-2" data-name="Path 10897-2" d="M4980.946,2513.74a.386.386,0,0,1-.455-.3l0-.015a22.755,22.755,0,0,0-1.9-5.405c-1.371-3.008-1.5-6.37,2.513-7.57a.383.383,0,0,1,.476.258.469.469,0,0,1,.012.054c.094.669.544,2.261,2.383,5.825C4986.1,2510.705,4984.062,2513.1,4980.946,2513.74Z" fill="#142266"/>
      </g>
      <g id="Group_3115-2" data-name="Group 3115-2">
        <path id="Path_10898-2" data-name="Path 10898-2" d="M4973.775,2497.638a.385.385,0,0,0,.189-.511l-.007-.015a22.782,22.782,0,0,1-1.656-5.486c-.669-3.237-2.548-6.029-6.5-4.626a.385.385,0,0,0-.233.489c.007.018.014.034.023.051.319.6.9,2.146,1.516,6.108C4967.826,2498.229,4970.889,2498.961,4973.775,2497.638Z" fill="#142266"/>
        <path id="Path_10899-2" data-name="Path 10899-2" d="M4975.377,2500.88a.387.387,0,0,1-.383-.39v-.016a22.717,22.717,0,0,0-.736-5.682c-.716-3.227-.146-6.544,4.031-6.883a.382.382,0,0,1,.411.352.342.342,0,0,1,0,.055c-.047.674.062,2.325,1.12,6.193C4981.044,2498.981,4978.552,2500.9,4975.377,2500.88Z" fill="#142266"/>
      </g>
      <g id="Group_3116-2" data-name="Group 3116-2">
        <path id="Path_10900-2" data-name="Path 10900-2" d="M4971.707,2483.639a.387.387,0,0,0,.292-.462l0-.015a22.68,22.68,0,0,1-.48-5.71c.019-3.306-1.239-6.427-5.394-5.877a.383.383,0,0,0-.329.43.411.411,0,0,0,.012.055c.188.649.43,2.286.213,6.29C4965.766,2482.979,4968.607,2484.332,4971.707,2483.639Z" fill="#142266"/>
        <path id="Path_10901-2" data-name="Path 10901-2" d="M4972.6,2487.142a.387.387,0,0,1-.293-.461l0-.015a22.725,22.725,0,0,0,.461-5.711c-.029-3.306,1.219-6.431,5.375-5.894a.384.384,0,0,1,.33.431.371.371,0,0,1-.011.053c-.186.649-.423,2.287-.193,6.29C4978.539,2486.464,4975.7,2487.826,4972.6,2487.142Z" fill="#142266"/>
      </g>
      <g id="Group_3117-2" data-name="Group 3117-2">
        <path id="Path_10902-2" data-name="Path 10902-2" d="M4972.594,2469.517a.386.386,0,0,0,.38-.392v-.015a22.755,22.755,0,0,1,.718-5.685c.706-3.229.124-6.544-4.054-6.87a.383.383,0,0,0-.411.353.515.515,0,0,0,0,.055c.049.674-.055,2.325-1.1,6.2C4966.923,2467.636,4969.421,2469.551,4972.594,2469.517Z" fill="#142266"/>
        <path id="Path_10903-2" data-name="Path 10903-2" d="M4972.742,2473.129a.386.386,0,0,1-.191-.512l.007-.014a22.788,22.788,0,0,0,1.639-5.49c.659-3.24,2.529-6.037,6.483-4.648a.382.382,0,0,1,.233.488.335.335,0,0,1-.022.052c-.317.6-.889,2.149-1.5,6.113C4978.692,2473.7,4975.634,2474.443,4972.742,2473.129Z" fill="#142266"/>
      </g>
      <g id="Group_3118-2" data-name="Group 3118-2">
        <path id="Path_10904-2" data-name="Path 10904-2" d="M4976.4,2455.888a.386.386,0,0,0,.454-.3l0-.016a22.707,22.707,0,0,1,1.884-5.411c1.362-3.012,1.482-6.375-2.537-7.562a.383.383,0,0,0-.476.259.347.347,0,0,0-.011.055c-.092.669-.536,2.263-2.364,5.833C4971.243,2452.869,4973.288,2455.261,4976.4,2455.888Z" fill="#142266"/>
        <path id="Path_10905-2" data-name="Path 10905-2" d="M4975.792,2459.451a.386.386,0,0,1-.081-.54l.01-.013a22.758,22.758,0,0,0,2.744-5.03c1.318-3.032,3.729-5.379,7.307-3.2a.382.382,0,0,1,.126.526.351.351,0,0,1-.032.046c-.434.517-1.316,1.917-2.734,5.668C4981.494,2461.247,4978.348,2461.337,4975.792,2459.451Z" fill="#142266"/>
      </g>
      <g id="Group_3119-2" data-name="Group 3119-2">
        <path id="Path_10906-2" data-name="Path 10906-2" d="M4982.959,2443.347a.386.386,0,0,0,.507-.2l.006-.014a22.683,22.683,0,0,1,2.968-4.9c1.958-2.663,2.775-5.928-.91-7.925a.383.383,0,0,0-.519.156.327.327,0,0,0-.022.05c-.229.635-1,2.1-3.525,5.214C4978.54,2439.321,4980.043,2442.086,4982.959,2443.347Z" fill="#142266"/>
        <path id="Path_10907-2" data-name="Path 10907-2" d="M4981.621,2446.706a.386.386,0,0,1,.034-.545l.012-.01a22.755,22.755,0,0,0,3.73-4.35c1.919-2.692,4.766-4.487,7.813-1.609a.386.386,0,0,1-.027.579c-.532.416-1.686,1.6-3.853,4.976C4986.825,2449.648,4983.729,2449.083,4981.621,2446.706Z" fill="#142266"/>
      </g>
      <g id="Group_3120-2" data-name="Group 3120-2">
        <path id="Path_10908-2" data-name="Path 10908-2" d="M4991.98,2432.443a.387.387,0,0,0,.538-.093l.009-.013a22.745,22.745,0,0,1,3.922-4.177c2.469-2.2,3.947-5.221.758-7.94a.384.384,0,0,0-.541.045.284.284,0,0,0-.032.044c-.356.574-1.411,1.849-4.532,4.367C4988.5,2427.587,4989.39,2430.6,4991.98,2432.443Z" fill="#142266"/>
        <path id="Path_10909-2" data-name="Path 10909-2" d="M4989.973,2435.455a.386.386,0,0,1,.146-.526l.014-.007a22.759,22.759,0,0,0,4.553-3.479c2.437-2.234,5.594-3.4,7.976.05a.384.384,0,0,1-.1.534.433.433,0,0,1-.046.027c-.607.3-1.983,1.216-4.8,4.066C4994.452,2439.41,4991.541,2438.213,4989.973,2435.455Z" fill="#142266"/>
      </g>
      <g id="Group_3121-2" data-name="Group 3121-2">
        <path id="Path_10910-2" data-name="Path 10910-2" d="M5003.07,2423.654a.387.387,0,0,0,.545.022l.012-.011a22.726,22.726,0,0,1,4.7-3.271c2.872-1.637,4.946-4.287,2.392-7.609a.383.383,0,0,0-.539-.067.3.3,0,0,0-.039.035c-.468.487-1.764,1.516-5.34,3.329C5000.671,2418.18,5000.919,2421.316,5003.07,2423.654Z" fill="#142266"/>
        <path id="Path_10911-2" data-name="Path 10911-2" d="M5000.482,2426.179a.386.386,0,0,1,.252-.485l.016,0a22.753,22.753,0,0,0,5.177-2.456c2.848-1.678,6.179-2.16,7.792,1.708a.383.383,0,0,1-.207.5.506.506,0,0,1-.053.018c-.655.163-2.192.777-5.544,2.978C5004.039,2430.983,5001.441,2429.207,5000.482,2426.179Z" fill="#142266"/>
      </g>
      <g id="Group_3122-2" data-name="Group 3122-2">
        <path id="Path_10912-2" data-name="Path 10912-2" d="M5015.746,2417.362a.386.386,0,0,0,.529.134l.014-.008a22.707,22.707,0,0,1,5.282-2.221c3.15-1,5.729-3.165,3.922-6.946a.385.385,0,0,0-.513-.179.4.4,0,0,0-.046.027c-.559.379-2.041,1.116-5.916,2.146C5014.537,2411.508,5014.128,2414.628,5015.746,2417.362Z" fill="#142266"/>
        <path id="Path_10913-2" data-name="Path 10913-2" d="M5012.689,2419.294a.386.386,0,0,1,.348-.421h.016a22.8,22.8,0,0,0,5.574-1.326c3.135-1.05,6.493-.829,7.266,3.29a.383.383,0,0,1-.306.447.548.548,0,0,1-.056.006c-.675.024-2.3.3-6.042,1.76C5015.17,2424.733,5013,2422.456,5012.689,2419.294Z" fill="#142266"/>
      </g>
    </g>
    <g id="Group_3389" data-name="Group 3389">
      <g id="Group_3124-2" data-name="Group 3124-2">
        <path id="Path_10914-2" data-name="Path 10914-2" d="M5039.191,2568.621l-76.121-77.573-2.5,10.058,78.621,80.121,78.621-80.121-2.5-10.058Z" fill="#e65416"/>
        <path id="Path_10915-2" data-name="Path 10915-2" d="M5115.312,2491.047l-2.833-11.4c-31.187-3.9-51.662-17.144-63.632-28.04a99.09,99.09,0,0,1-9.656-10.114,99.245,99.245,0,0,1-9.656,10.114c-11.97,10.9-32.444,24.144-63.632,28.04l-2.833,11.4,76.121,77.573Z" fill="#b5311b"/>
      </g>
      <path id="Path_10916-2" data-name="Path 10916-2" d="M5121.634,2469.278c-62.61-4.005-82.444-46.74-82.444-46.74s-19.835,42.735-82.444,46.74l-8.056,31.144,90.5,88.632,90.5-88.632Zm-161.066,31.828,5.334-21.457c31.188-3.9,51.662-17.144,63.632-28.04a99.242,99.242,0,0,0,9.656-10.114,99.088,99.088,0,0,0,9.656,10.114c11.97,10.9,32.444,24.144,63.632,28.04l5.334,21.457-78.621,80.121Z" fill="#142266"/>
    </g>
    <g id="Group_3390" data-name="Group 3390">
      <g id="Group_3129-2" data-name="Group 3129-2">
        <circle id="Ellipse_228-2" data-name="Ellipse 228-2" cx="57.687" cy="57.687" r="57.687" transform="translate(4981.502 2422.15)" fill="#142266"/>
      </g>
    </g>
    <g id="Group_3391" data-name="Group 3391">
      <ellipse id="Ellipse_224-2" data-name="Ellipse 224-2" cx="17.219" cy="9.559" rx="17.219" ry="9.559" transform="translate(5092.151 2555.05)" fill="#142266"/>
      <ellipse id="Ellipse_225-2" data-name="Ellipse 225-2" cx="17.219" cy="9.559" rx="17.219" ry="9.559" transform="translate(4951.736 2555.05)" fill="#142266"/>
      <ellipse id="Ellipse_226-2" data-name="Ellipse 226-2" cx="10.228" cy="5.678" rx="10.228" ry="5.678" transform="translate(4962.073 2559.837)" fill="#dc2648"/>
      <ellipse id="Ellipse_227-2" data-name="Ellipse 227-2" cx="10.228" cy="5.678" rx="10.228" ry="5.678" transform="translate(5095.797 2559.837)" fill="#dc2648"/>
      <path id="Path_10918-2" data-name="Path 10918-2" d="M5039.045,2532.431c-27.589,0-55.178,5.5-82.768,6.093a4.807,4.807,0,0,0-4.7,4.811v19.99a5.887,5.887,0,0,0,5.881,5.893l.155,0c27.142-.735,54.285-6.06,81.427-6.06s54.285,5.326,81.427,6.06a5.887,5.887,0,0,0,6.034-5.736c0-.052,0-.1,0-.155v-19.99a4.806,4.806,0,0,0-4.695-4.811C5094.223,2537.933,5066.634,2532.431,5039.045,2532.431Z" fill="#142266"/>
      <g id="Group_99" data-name="Group 99">
        <g id="Group_98" data-name="Group 98">
          <g id="Group_97" data-name="Group 97">
            <path id="Path_509" data-name="Path 509" d="M5021.216,2543.419q-1.66.116-3.321.252.594,7.223,1.189,14.445-1.692.14-3.381.3-.694-7.214-1.389-14.427-1.671.162-3.34.344-.185-1.685-.368-3.367,5.18-.567,10.376-.927Q5021.1,2541.73,5021.216,2543.419Z" fill="#fff"/>
            <path id="Path_510" data-name="Path 510" d="M5035.148,2557.319q-5.336.09-10.669.412-.538-8.923-1.075-17.848,5.718-.345,11.444-.442.027,1.694.056,3.386-3.855.066-7.708.245.089,1.927.179,3.856,1.769-.082,3.537-.14.054,1.692.11,3.385-1.746.057-3.49.138.089,1.927.179,3.856,3.688-.171,7.38-.234Z" fill="#fff"/>
            <path id="Path_511" data-name="Path 511" d="M5048.014,2557.439q-1.663-.059-3.324-.095-1.846-4.434-3.835-8.837-.026,4.392-.053,8.782-1.7-.011-3.392,0-.071-8.94-.137-17.88,1.8-.015,3.591,0,2.048,4.392,3.956,8.814.1-4.378.191-8.757,1.818.039,3.637.1Q5048.332,2548.5,5048.014,2557.439Z" fill="#fff"/>
            <path id="Path_512" data-name="Path 512" d="M5051.071,2539.666q1.819.081,3.636.188-.524,8.923-1.046,17.85-1.693-.1-3.388-.175Q5050.672,2548.6,5051.071,2539.666Z" fill="#fff"/>
            <path id="Path_513" data-name="Path 513" d="M5066.87,2556.016q-1.567,1.234-3.1,2.488-2.523-.252-5.049-.452-1.288-1.507-2.61-3,.1-1.419.192-2.838,1.734.117,3.463.258c-.034.428-.07.856-.1,1.283.3.349.6.7.9,1.05.654.055,1.311.114,1.965.175q.548-.437,1.1-.87.093-.954.186-1.91c-.308-.355-.615-.709-.926-1.063q-1.787-.166-3.574-.309-1.341-1.523-2.713-3.029.169-2.5.339-5,1.581-1.3,3.191-2.572,2.711.215,5.416.485,1.359,1.542,2.685,3.1-.157,1.4-.313,2.8-1.761-.2-3.522-.369.063-.639.124-1.28c-.317-.348-.637-.7-.957-1.044-.686-.064-1.368-.125-2.053-.183q-.554.439-1.106.882-.078.945-.154,1.89c.312.357.622.716.931,1.074q1.822.156,3.643.338,1.318,1.539,2.6,3.09Q5067.151,2553.515,5066.87,2556.016Z" fill="#fff"/>
          </g>
        </g>
        <circle id="Ellipse_13" data-name="Ellipse 13" cx="2.055" cy="2.055" r="2.055" transform="matrix(0.858, -0.514, 0.514, 0.858, 5050.704, 2535.977)" fill="#fff"/>
      </g>
    </g>
    <g id="Group_3387" data-name="Group 3387">
      <path id="Path_10958" data-name="Path 10958" d="M5014.835,2504.466a1.743,1.743,0,0,1,1.014-3.335l.071.023,1.378.44a69.529,69.529,0,0,0,2.052-7.708l-1.554-.234a1.737,1.737,0,0,1,.531-3.433h.026l1.612.264a72.347,72.347,0,0,0,.762-9.437h-1.5a1.729,1.729,0,0,1,0-3.458h1.466a67.7,67.7,0,0,0-.733-7.738l-1.612.264c-.088,0-.176.029-.264.029a1.707,1.707,0,0,1-1.7-1.465,1.751,1.751,0,0,1,1.437-1.993l1.524-.235a63.636,63.636,0,0,0-2.082-7.708l-1.319.44a1.656,1.656,0,0,1-.528.088,1.724,1.724,0,0,1-1.642-1.2,1.752,1.752,0,0,1,1.114-2.2l1.2-.381a63.45,63.45,0,0,0-3.606-7.708l-1.261.645a1.936,1.936,0,0,1-.792.176,1.754,1.754,0,0,1-.792-3.312l1.055-.527c-.733-1.2-1.5-2.374-2.316-3.517a49.723,49.723,0,0,0,0,78.048c.85-1.2,1.671-2.433,2.433-3.664l-1.173-.586a1.744,1.744,0,0,1,1.583-3.107h0l1.349.674a61.882,61.882,0,0,0,3.577-7.737Z" fill="#df3b0e"/>
      <path id="Path_10959" data-name="Path 10959" d="M5061.654,2519.12a1.94,1.94,0,0,1-.792.176,1.783,1.783,0,0,1-1.583-.967,1.738,1.738,0,0,1,.768-2.333l.024-.012,1.261-.645a73.649,73.649,0,0,1-4.016-8.587l-1.29.41a1.707,1.707,0,0,1-.557.088,1.738,1.738,0,0,1-.528-3.4l1.2-.381a72.049,72.049,0,0,1-2.316-8.646l-1.114.176c-.088,0-.176.029-.264.029a1.738,1.738,0,0,1-.264-3.458l1.055-.176a71.8,71.8,0,0,1-.821-10.375h-1.4a1.758,1.758,0,0,1-1.759-1.729,1.74,1.74,0,0,1,1.749-1.729h1.469a77.558,77.558,0,0,1,.821-8.676l-1.085-.176a1.734,1.734,0,0,1-1.471-1.962l0-.031a1.784,1.784,0,0,1,2.023-1.465l1.173.176a66.851,66.851,0,0,1,2.345-8.617l-1.261-.41a1.745,1.745,0,0,1-1.148-2.184l0-.016a1.773,1.773,0,0,1,2.228-1.114l1.378.44a71.092,71.092,0,0,1,4.016-8.558l-1.349-.674a1.737,1.737,0,0,1-.8-2.321l.012-.024a1.778,1.778,0,0,1,2.375-.762l1.524.762c.88-1.436,1.818-2.843,2.814-4.25a51.058,51.058,0,0,0-53.093,0c1,1.378,1.935,2.784,2.814,4.25l1.524-.762a1.778,1.778,0,0,1,2.375.762,1.739,1.739,0,0,1-.768,2.334l-.024.011-1.349.674a73.238,73.238,0,0,1,4.016,8.558l1.378-.44a1.773,1.773,0,0,1,2.228,1.114,1.744,1.744,0,0,1-1.12,2.2l-.008,0-.015.005-1.261.41a77.775,77.775,0,0,1,2.345,8.617l1.173-.176a1.751,1.751,0,0,1,.557,3.458h0l-1.085.176a70.579,70.579,0,0,1,.821,8.676h1.466a1.758,1.758,0,0,1,1.759,1.729,1.738,1.738,0,0,1-1.747,1.729h-1.413a76.164,76.164,0,0,1-.821,10.375l1.055.176a1.736,1.736,0,0,1,1.471,1.963l0,.03a1.76,1.76,0,0,1-1.73,1.465.805.805,0,0,1-.264-.029l-1.114-.176a73.839,73.839,0,0,1-2.316,8.646l1.2.381a1.738,1.738,0,0,1-.528,3.4,1.985,1.985,0,0,1-.557-.088l-1.29-.41a73.486,73.486,0,0,1-4.016,8.587l1.261.645a1.737,1.737,0,0,1,.8,2.321l-.012.024a1.783,1.783,0,0,1-1.583.967,1.929,1.929,0,0,1-.792-.176l-1.437-.7c-.909,1.495-1.906,2.96-2.932,4.4a51.105,51.105,0,0,0,53.122,0c-1.026-1.436-1.994-2.9-2.932-4.4Z" fill="#df3b0e"/>
      <path id="Path_10960" data-name="Path 10960" d="M5070.537,2441.22c-.821,1.143-1.583,2.315-2.316,3.517l1.055.528a1.742,1.742,0,0,1,.764,2.341h0a1.708,1.708,0,0,1-1.554.967,1.933,1.933,0,0,1-.792-.176l-1.261-.645a63.538,63.538,0,0,0-3.6,7.7l1.2.381a1.743,1.743,0,0,1-.528,3.4,1.631,1.631,0,0,1-.528-.088l-1.319-.439a69.556,69.556,0,0,0-2.082,7.708l1.524.235a1.735,1.735,0,0,1,1.438,1.986v.007a1.753,1.753,0,0,1-1.7,1.466.809.809,0,0,1-.264-.029l-1.612-.264a67.809,67.809,0,0,0-.733,7.738h1.466a1.729,1.729,0,0,1,0,3.458h-1.5a67.194,67.194,0,0,0,.762,9.438l1.612-.264a1.737,1.737,0,0,1,.583,3.425h-.026l-1.554.235a69.529,69.529,0,0,0,2.052,7.708l1.378-.439a1.743,1.743,0,0,1,1.156,3.289l-.071.023-1.29.41a70.969,70.969,0,0,0,3.577,7.737l1.349-.674a1.744,1.744,0,0,1,1.657,3.07l-.074.037-1.173.586c.762,1.26,1.583,2.462,2.433,3.664a49.7,49.7,0,0,0-.029-78.049Z" fill="#df3b0e"/>
      <g id="Group_3386" data-name="Group 3386">
        <path id="Path_10961" data-name="Path 10961" d="M5088.382,2470.04a55.141,55.141,0,0,0-2.023-7.1l0-.014c-.1-.274-.2-.537-.3-.8a49.772,49.772,0,0,0-15.511-20.9c-.028.037-.051.072-.079.109-.79,1.108-1.529,2.241-2.238,3.4l1.055.528a1.742,1.742,0,0,1,.764,2.341h0a1.709,1.709,0,0,1-1.554.967,1.933,1.933,0,0,1-.792-.176l-1.261-.645a63.521,63.521,0,0,0-3.6,7.7l1.2.381a1.737,1.737,0,0,1,1.194,1.715C5081.32,2450.93,5088.424,2469.989,5088.382,2470.04Z" fill="#a41f13"/>
        <path id="Path_10962" data-name="Path 10962" d="M5061.413,2459.5c.327-.2.643-.37.963-.551l-.724-.241C5061.565,2458.974,5061.5,2459.242,5061.413,2459.5Z" fill="#a41f13"/>
      </g>
      <path id="Path_10963" data-name="Path 10963" d="M5014.46,2451.68c-.062-.132-.126-.262-.188-.393-.119-.236-.276-.561-.477-.977-.1-.205-.2-.413-.3-.617l-.019-.036q-.482-.945-1-1.875l-1.261.645a1.936,1.936,0,0,1-.792.176,1.754,1.754,0,0,1-.792-3.312l1.055-.527c-.733-1.2-1.5-2.374-2.316-3.517-.575.454-1.13.923-1.679,1.4-.1.086-.2.168-.3.255q-.94.823-1.83,1.685l-.03.029a49.386,49.386,0,0,0-11.021,16c-.032.074-.061.149-.092.223q-.409.966-.779,1.947C4993.192,2462.451,5005.024,2448.82,5014.46,2451.68Z" fill="#a41f13"/>
      <path id="Path_10964" data-name="Path 10964" d="M5028.3,2528.992l.071.016a52.569,52.569,0,0,0,10.122,1.238c.354.007.709.017,1.064.017h.073a51.059,51.059,0,0,0,26.537-7.444l-.026-.038c-36.524-16.156-39.49-41.763-39.49-41.763a76.232,76.232,0,0,1-.821,10.375l1.055.176a1.736,1.736,0,0,1,1.471,1.963l0,.03a1.761,1.761,0,0,1-1.73,1.465.817.817,0,0,1-.264-.029l-1.114-.176a73.648,73.648,0,0,1-1.947,7.485c-.12.4-.241.784-.364,1.163l1.2.379a1.738,1.738,0,0,1-.528,3.4,1.982,1.982,0,0,1-.557-.088l-1.284-.408c-.505,1.292-1.022,2.489-1.542,3.613q-.963,2.118-2.058,4.173l-.226.44c-.062.121-.127.242-.19.362l1.255.642a1.738,1.738,0,0,1,.8,2.321l-.012.024a1.783,1.783,0,0,1-1.583.967,1.933,1.933,0,0,1-.792-.176l-1.429-.7c-1.543,2.514-2.94,4.4-2.94,4.4a51.09,51.09,0,0,0,14.222,5.929C5027.6,2528.832,5027.949,2528.914,5028.3,2528.992Z" fill="#a41f13"/>
      <path id="Path_10965" data-name="Path 10965" d="M5015.01,2438.323s16.789-11.229,37.707-5.009A90.643,90.643,0,0,0,5015.01,2438.323Z" fill="#fff" opacity="0.998"/>
      <path id="Path_10966" data-name="Path 10966" d="M5064.407,2437.294a3.227,3.227,0,0,0-1.612,3.031A20.8,20.8,0,0,1,5064.407,2437.294Z" fill="#fff"/>
      <path id="Path_10967" data-name="Path 10967" d="M5059.928,2445.149s-2.9,4.645-2.89,6.44C5057.038,2451.589,5056.708,2447.378,5059.928,2445.149Z" fill="#fff"/>
      <path id="Path_10968" data-name="Path 10968" d="M5030.533,2494.664s10.982,20.338,34.184,27.934C5064.717,2522.6,5038.625,2516.847,5030.533,2494.664Z" fill="#fff"/>
      <path id="Path_10969" data-name="Path 10969" d="M4996,2458.773s6.461-7.184,16.3-8.158A19.014,19.014,0,0,0,4996,2458.773Z" fill="#fff" opacity="0.51"/>
      <path id="Path_10970" data-name="Path 10970" d="M5073.829,2445.149a44.021,44.021,0,0,1,10.5,13.959S5078.61,2450.112,5073.829,2445.149Z" fill="#fff" opacity="0.51"/>
      <path id="Path_10971" data-name="Path 10971" d="M5075.6,2511.451s19.993-19.486,9.838-43.6C5085.442,2467.857,5092.107,2490.892,5075.6,2511.451Z" fill="#fff"/>
      <path id="Path_10972" data-name="Path 10972" d="M4993.543,2465.3s-8.367,30.22,12.55,49.211C5006.093,2514.507,4990.676,2501.351,4993.543,2465.3Z" fill="#fff"/>
    </g>
  </g>
</svg>
