<svg xmlns="http://www.w3.org/2000/svg" width="181" height="180.95" viewBox="0 0 181 180.95">
  <g id="masatenisi" transform="translate(316.586 300.674)">
    <g id="Group_3388" data-name="Group 3388" transform="translate(-5701.464 -2702.821)">
      <g id="Group_3095" data-name="Group 3095">
        <path id="Path_10858" data-name="Path 10858" d="M5479.781,2542.405a.386.386,0,0,1,.428-.339l.016,0a22.706,22.706,0,0,0,5.729-.12c3.286-.364,6.521.562,6.408,4.75a.384.384,0,0,1-.4.372.315.315,0,0,1-.054-.006c-.666-.119-2.318-.189-6.277.447C5481.054,2548.245,5479.412,2545.561,5479.781,2542.405Z" fill="#142266"/>
        <path id="Path_10859" data-name="Path 10859" d="M5476.2,2541.885a.385.385,0,0,0,.489.241l.011,0a22.677,22.677,0,0,1,5.631-1.056c3.291-.317,6.27-1.884,5.3-5.962a.384.384,0,0,0-.464-.282.334.334,0,0,0-.051.016c-.626.254-2.23.66-6.236.849C5476.255,2535.905,5475.195,2538.871,5476.2,2541.885Z" fill="#142266"/>
      </g>
      <g id="Group_3096" data-name="Group 3096">
        <path id="Path_10860" data-name="Path 10860" d="M5493.73,2540.045a.385.385,0,0,1,.348-.42h.017a22.81,22.81,0,0,0,5.579-1.308c3.137-1.039,6.5-.807,7.256,3.314a.385.385,0,0,1-.31.446.455.455,0,0,1-.054.006c-.675.021-2.307.3-6.048,1.741C5496.193,2545.487,5494.029,2543.207,5493.73,2540.045Z" fill="#142266"/>
        <path id="Path_10861" data-name="Path 10861" d="M5490.123,2540.278a.385.385,0,0,0,.528.137l.013-.008a22.769,22.769,0,0,1,5.289-2.2c3.153-.993,5.74-3.146,3.945-6.933a.382.382,0,0,0-.512-.181.456.456,0,0,0-.047.027c-.56.378-2.044,1.109-5.923,2.127C5488.933,2534.42,5488.513,2537.539,5490.123,2540.278Z" fill="#142266"/>
      </g>
      <g id="Group_3097" data-name="Group 3097">
        <path id="Path_10862" data-name="Path 10862" d="M5506.887,2534.835a.385.385,0,0,1,.253-.484l.016,0a22.794,22.794,0,0,0,5.185-2.439c2.854-1.669,6.186-2.14,7.786,1.733a.384.384,0,0,1-.211.5c-.017.007-.033.012-.05.017-.656.161-2.194.77-5.553,2.96C5510.434,2539.65,5507.834,2537.865,5506.887,2534.835Z" fill="#142266"/>
        <path id="Path_10863" data-name="Path 10863" d="M5503.406,2535.815a.386.386,0,0,0,.545.023l.012-.011a22.684,22.684,0,0,1,4.716-3.255c2.876-1.627,4.959-4.271,2.417-7.6a.383.383,0,0,0-.537-.071.282.282,0,0,0-.041.036c-.469.486-1.77,1.51-5.351,3.312C5501.025,2530.332,5501.264,2533.469,5503.406,2535.815Z" fill="#142266"/>
      </g>
      <g id="Group_3098" data-name="Group 3098">
        <path id="Path_10864" data-name="Path 10864" d="M5518.675,2527a.386.386,0,0,1,.148-.526l.014-.007a22.81,22.81,0,0,0,4.564-3.464c2.444-2.226,5.6-3.379,7.976.076a.382.382,0,0,1-.1.532.41.41,0,0,1-.047.028c-.608.294-1.986,1.21-4.816,4.05C5523.14,2530.977,5520.234,2529.771,5518.675,2527Z" fill="#142266"/>
        <path id="Path_10865" data-name="Path 10865" d="M5515.474,2528.685a.386.386,0,0,0,.538-.088l.009-.012a22.674,22.674,0,0,1,3.936-4.164c2.476-2.19,3.964-5.209.784-7.938a.383.383,0,0,0-.573.087c-.358.573-1.417,1.844-4.546,4.352C5512,2523.817,5512.89,2526.837,5515.474,2528.685Z" fill="#142266"/>
      </g>
      <g id="Group_3099" data-name="Group 3099">
        <path id="Path_10866" data-name="Path 10866" d="M5528.574,2516.893a.386.386,0,0,1,.034-.545l.013-.01a22.838,22.838,0,0,0,3.744-4.338c1.928-2.685,4.781-4.47,7.818-1.584a.384.384,0,0,1,.011.543.325.325,0,0,1-.039.036c-.533.414-1.692,1.6-3.869,4.963C5533.768,2519.85,5530.674,2519.276,5528.574,2516.893Z" fill="#142266"/>
        <path id="Path_10867" data-name="Path 10867" d="M5525.793,2519.2a.386.386,0,0,0,.508-.2l.006-.014a22.705,22.705,0,0,1,2.984-4.891c1.967-2.657,2.795-5.919-.883-7.928a.383.383,0,0,0-.521.153.335.335,0,0,0-.021.047c-.231.635-1,2.1-3.542,5.2C5521.387,2515.162,5522.877,2517.932,5525.793,2519.2Z" fill="#142266"/>
      </g>
      <g id="Group_3100" data-name="Group 3100">
        <path id="Path_10868" data-name="Path 10868" d="M5536.156,2504.949a.387.387,0,0,1-.079-.541l.01-.012a22.784,22.784,0,0,0,2.761-5.021c1.327-3.028,3.746-5.367,7.318-3.175a.382.382,0,0,1,.125.526.486.486,0,0,1-.032.046c-.436.516-1.323,1.912-2.753,5.659C5541.852,2506.758,5538.706,2506.84,5536.156,2504.949Z" fill="#142266"/>
        <path id="Path_10869" data-name="Path 10869" d="M5533.917,2507.783a.387.387,0,0,0,.455-.3l0-.016a22.742,22.742,0,0,1,1.9-5.405c1.371-3.008,1.5-6.37-2.513-7.569a.382.382,0,0,0-.476.258.217.217,0,0,0-.012.054c-.094.668-.544,2.261-2.382,5.824C5528.767,2504.748,5530.805,2507.146,5533.917,2507.783Z" fill="#142266"/>
      </g>
      <g id="Group_3101" data-name="Group 3101">
        <path id="Path_10870" data-name="Path 10870" d="M5541.088,2491.681a.385.385,0,0,1-.19-.511l.008-.015a22.8,22.8,0,0,0,1.656-5.486c.668-3.237,2.547-6.029,6.5-4.626a.383.383,0,0,1,.231.49c-.007.017-.014.033-.023.05-.318.6-.9,2.146-1.516,6.108C5547.037,2492.272,5543.976,2493,5541.088,2491.681Z" fill="#142266"/>
        <path id="Path_10871" data-name="Path 10871" d="M5539.487,2494.923a.386.386,0,0,0,.382-.39v-.016a22.741,22.741,0,0,1,.737-5.682c.716-3.228.145-6.544-4.032-6.884a.385.385,0,0,0-.412.355.462.462,0,0,0,0,.052c.047.674-.062,2.325-1.119,6.193C5533.819,2493.023,5536.311,2494.947,5539.487,2494.923Z" fill="#142266"/>
      </g>
      <g id="Group_3102" data-name="Group 3102">
        <path id="Path_10872" data-name="Path 10872" d="M5543.155,2477.682a.387.387,0,0,1-.292-.462l0-.015a22.769,22.769,0,0,0,.48-5.71c-.019-3.306,1.239-6.427,5.394-5.877a.383.383,0,0,1,.328.43.347.347,0,0,1-.011.055c-.188.649-.43,2.286-.213,6.29C5549.1,2477.022,5546.255,2478.375,5543.155,2477.682Z" fill="#142266"/>
        <path id="Path_10873" data-name="Path 10873" d="M5542.266,2481.185a.386.386,0,0,0,.292-.461l0-.015a22.7,22.7,0,0,1-.461-5.711c.029-3.306-1.219-6.431-5.375-5.894a.383.383,0,0,0-.33.431.334.334,0,0,0,.011.053c.186.649.423,2.287.193,6.29C5536.324,2480.507,5539.161,2481.869,5542.266,2481.185Z" fill="#142266"/>
      </g>
      <g id="Group_3103" data-name="Group 3103">
        <path id="Path_10874" data-name="Path 10874" d="M5542.266,2463.56a.387.387,0,0,1-.381-.392v-.015a22.8,22.8,0,0,0-.718-5.685c-.706-3.229-.124-6.544,4.054-6.87a.382.382,0,0,1,.41.355.321.321,0,0,1,0,.053c-.049.674.054,2.325,1.1,6.2C5547.941,2461.679,5545.443,2463.594,5542.266,2463.56Z" fill="#142266"/>
        <path id="Path_10875" data-name="Path 10875" d="M5542.122,2467.172a.388.388,0,0,0,.191-.512l-.007-.014a22.689,22.689,0,0,1-1.639-5.49c-.658-3.24-2.53-6.037-6.484-4.648a.382.382,0,0,0-.233.488.42.42,0,0,0,.022.052c.317.6.889,2.149,1.5,6.113C5536.176,2467.747,5539.23,2468.486,5542.122,2467.172Z" fill="#142266"/>
      </g>
      <g id="Group_3104" data-name="Group 3104">
        <path id="Path_10876" data-name="Path 10876" d="M5538.46,2449.931a.387.387,0,0,1-.455-.3l0-.016a22.751,22.751,0,0,0-1.885-5.411c-1.362-3.012-1.482-6.375,2.537-7.562a.383.383,0,0,1,.476.259.416.416,0,0,1,.012.055c.092.669.536,2.263,2.364,5.833C5543.623,2446.912,5541.574,2449.3,5538.46,2449.931Z" fill="#142266"/>
        <path id="Path_10877" data-name="Path 10877" d="M5539.07,2453.494a.386.386,0,0,0,.081-.54l-.01-.013a22.78,22.78,0,0,1-2.744-5.03c-1.318-3.032-3.729-5.379-7.307-3.2a.384.384,0,0,0-.126.528.46.46,0,0,0,.032.044c.434.517,1.317,1.917,2.734,5.668C5533.368,2455.29,5536.514,2455.38,5539.07,2453.494Z" fill="#142266"/>
      </g>
      <g id="Group_3105" data-name="Group 3105">
        <path id="Path_10878" data-name="Path 10878" d="M5531.9,2437.39a.386.386,0,0,1-.507-.2l-.006-.014a22.72,22.72,0,0,0-2.968-4.9c-1.958-2.663-2.775-5.928.91-7.925a.384.384,0,0,1,.52.156c.008.016.015.033.022.05.229.635,1,2.1,3.524,5.214C5536.322,2433.364,5534.819,2436.129,5531.9,2437.39Z" fill="#142266"/>
        <path id="Path_10879" data-name="Path 10879" d="M5533.241,2440.749a.387.387,0,0,0-.034-.545l-.012-.01a22.764,22.764,0,0,1-3.73-4.35c-1.919-2.692-4.766-4.487-7.813-1.609a.383.383,0,0,0-.014.542.417.417,0,0,0,.04.037c.532.416,1.687,1.6,3.853,4.976C5528.037,2443.691,5531.133,2443.126,5533.241,2440.749Z" fill="#142266"/>
      </g>
      <g id="Group_3106" data-name="Group 3106">
        <path id="Path_10880" data-name="Path 10880" d="M5522.883,2426.486a.386.386,0,0,1-.538-.093l-.009-.013a22.776,22.776,0,0,0-3.922-4.177c-2.469-2.2-3.947-5.222-.758-7.94a.384.384,0,0,1,.541.045.505.505,0,0,1,.032.043c.356.574,1.411,1.849,4.531,4.367C5526.368,2421.63,5525.473,2424.646,5522.883,2426.486Z" fill="#142266"/>
        <path id="Path_10881" data-name="Path 10881" d="M5524.89,2429.5a.387.387,0,0,0-.147-.526l-.013-.007a22.768,22.768,0,0,1-4.553-3.479c-2.437-2.234-5.594-3.4-7.976.05a.382.382,0,0,0,.1.532.4.4,0,0,0,.048.029c.607.3,1.982,1.216,4.8,4.066C5520.412,2433.453,5523.322,2432.256,5524.89,2429.5Z" fill="#142266"/>
      </g>
      <g id="Group_3107" data-name="Group 3107">
        <path id="Path_10882" data-name="Path 10882" d="M5511.794,2417.7a.388.388,0,0,1-.546.022l-.011-.011a22.762,22.762,0,0,0-4.7-3.271c-2.872-1.637-4.946-4.287-2.392-7.609a.382.382,0,0,1,.537-.069.4.4,0,0,1,.041.037c.468.487,1.764,1.516,5.34,3.329C5514.193,2412.223,5513.944,2415.359,5511.794,2417.7Z" fill="#142266"/>
        <path id="Path_10883" data-name="Path 10883" d="M5514.382,2420.222a.387.387,0,0,0-.252-.485l-.016,0a22.784,22.784,0,0,1-5.177-2.456c-2.848-1.678-6.178-2.16-7.792,1.708a.382.382,0,0,0,.207.5.515.515,0,0,0,.053.018c.655.163,2.192.777,5.544,2.978C5510.824,2425.026,5513.423,2423.25,5514.382,2420.222Z" fill="#142266"/>
      </g>
      <g id="Group_3108" data-name="Group 3108">
        <path id="Path_10884" data-name="Path 10884" d="M5499.117,2411.405a.387.387,0,0,1-.529.134l-.014-.008a22.678,22.678,0,0,0-5.282-2.221c-3.15-1-5.729-3.165-3.922-6.946a.384.384,0,0,1,.513-.179.44.44,0,0,1,.046.027c.559.379,2.041,1.116,5.916,2.146C5500.326,2405.551,5500.735,2408.671,5499.117,2411.405Z" fill="#142266"/>
        <path id="Path_10885" data-name="Path 10885" d="M5502.17,2413.337a.386.386,0,0,0-.348-.421h-.015a22.783,22.783,0,0,1-5.574-1.326c-3.135-1.05-6.493-.829-7.266,3.29a.384.384,0,0,0,.308.447.455.455,0,0,0,.054.006c.675.024,2.306.3,6.042,1.76C5499.693,2418.776,5501.87,2416.5,5502.17,2413.337Z" fill="#142266"/>
      </g>
      <g id="Group_3109" data-name="Group 3109">
        <path id="Path_10886" data-name="Path 10886" d="M5471.273,2542.405a.387.387,0,0,0-.429-.339l-.015,0a22.7,22.7,0,0,1-5.729-.12c-3.286-.364-6.521.562-6.408,4.75a.383.383,0,0,0,.394.372.338.338,0,0,0,.055-.006c.665-.119,2.318-.189,6.277.447C5470,2548.245,5471.639,2545.561,5471.273,2542.405Z" fill="#142266"/>
        <path id="Path_10887" data-name="Path 10887" d="M5474.85,2541.885a.387.387,0,0,1-.49.241l-.01,0a22.7,22.7,0,0,0-5.632-1.056c-3.291-.317-6.269-1.884-5.3-5.962a.383.383,0,0,1,.464-.282.46.46,0,0,1,.051.016c.626.254,2.23.66,6.236.849C5474.8,2535.905,5475.854,2538.871,5474.85,2541.885Z" fill="#142266"/>
      </g>
      <g id="Group_3110" data-name="Group 3110">
        <path id="Path_10888" data-name="Path 10888" d="M5457.32,2540.045a.386.386,0,0,0-.349-.42h-.016a22.787,22.787,0,0,1-5.579-1.308c-3.138-1.039-6.5-.807-7.256,3.314a.383.383,0,0,0,.309.446.436.436,0,0,0,.054.006c.675.021,2.306.3,6.047,1.741C5454.857,2545.487,5457.022,2543.207,5457.32,2540.045Z" fill="#142266"/>
        <path id="Path_10889" data-name="Path 10889" d="M5460.928,2540.278a.387.387,0,0,1-.529.137l-.013-.008a22.778,22.778,0,0,0-5.289-2.2c-3.153-.993-5.74-3.146-3.945-6.933a.383.383,0,0,1,.512-.181.449.449,0,0,1,.047.027c.56.378,2.044,1.109,5.923,2.127C5462.117,2534.42,5462.536,2537.539,5460.928,2540.278Z" fill="#142266"/>
      </g>
      <g id="Group_3111" data-name="Group 3111">
        <path id="Path_10890" data-name="Path 10890" d="M5444.163,2534.835a.387.387,0,0,0-.254-.484l-.016,0a22.8,22.8,0,0,1-5.185-2.439c-2.854-1.669-6.186-2.14-7.786,1.733a.384.384,0,0,0,.211.5.507.507,0,0,0,.05.017c.656.161,2.194.77,5.553,2.96C5440.62,2539.65,5443.214,2537.865,5444.163,2534.835Z" fill="#142266"/>
        <path id="Path_10891" data-name="Path 10891" d="M5447.643,2535.815a.387.387,0,0,1-.546.023l-.011-.011a22.694,22.694,0,0,0-4.716-3.255c-2.877-1.627-4.96-4.271-2.417-7.6a.383.383,0,0,1,.537-.071.511.511,0,0,1,.041.036c.469.486,1.769,1.51,5.351,3.312C5450.028,2530.332,5449.786,2533.469,5447.643,2535.815Z" fill="#142266"/>
      </g>
      <g id="Group_3112" data-name="Group 3112">
        <path id="Path_10892" data-name="Path 10892" d="M5432.378,2527a.387.387,0,0,0-.148-.526l-.014-.007a22.768,22.768,0,0,1-4.564-3.464c-2.444-2.226-5.6-3.379-7.976.076a.382.382,0,0,0,.1.532.391.391,0,0,0,.048.028c.608.294,1.986,1.21,4.817,4.05C5427.912,2530.977,5430.822,2529.771,5432.378,2527Z" fill="#142266"/>
        <path id="Path_10893" data-name="Path 10893" d="M5435.578,2528.685a.387.387,0,0,1-.539-.088l-.008-.012a22.738,22.738,0,0,0-3.936-4.164c-2.476-2.19-3.964-5.209-.785-7.938a.384.384,0,0,1,.541.042.289.289,0,0,1,.032.045c.359.573,1.417,1.844,4.546,4.352C5439.047,2523.817,5438.161,2526.837,5435.578,2528.685Z" fill="#142266"/>
      </g>
      <g id="Group_3113" data-name="Group 3113">
        <path id="Path_10894" data-name="Path 10894" d="M5422.474,2516.893a.387.387,0,0,0-.036-.545l-.012-.01a22.766,22.766,0,0,1-3.744-4.338c-1.928-2.685-4.781-4.47-7.818-1.584a.383.383,0,0,0-.012.543.334.334,0,0,0,.04.036c.534.414,1.692,1.6,3.869,4.963C5417.282,2519.85,5420.374,2519.276,5422.474,2516.893Z" fill="#142266"/>
        <path id="Path_10895" data-name="Path 10895" d="M5425.258,2519.2a.385.385,0,0,1-.508-.2l-.006-.014a22.785,22.785,0,0,0-2.984-4.891c-1.967-2.657-2.794-5.919.884-7.928a.382.382,0,0,1,.52.153c.008.015.015.031.022.047.231.635,1,2.1,3.541,5.2C5429.664,2515.162,5428.169,2517.932,5425.258,2519.2Z" fill="#142266"/>
      </g>
      <g id="Group_3114" data-name="Group 3114">
        <path id="Path_10896" data-name="Path 10896" d="M5414.894,2504.949a.388.388,0,0,0,.079-.541l-.01-.012a22.743,22.743,0,0,1-2.761-5.021c-1.328-3.028-3.746-5.367-7.318-3.175a.382.382,0,0,0-.126.526.5.5,0,0,0,.033.046c.436.516,1.323,1.912,2.753,5.659C5409.194,2506.758,5412.345,2506.84,5414.894,2504.949Z" fill="#142266"/>
        <path id="Path_10897" data-name="Path 10897" d="M5417.134,2507.783a.387.387,0,0,1-.456-.3l0-.016a22.785,22.785,0,0,0-1.9-5.405c-1.371-3.008-1.5-6.37,2.513-7.569a.382.382,0,0,1,.476.258.438.438,0,0,1,.012.054c.094.668.544,2.261,2.383,5.824C5422.284,2504.748,5420.25,2507.146,5417.134,2507.783Z" fill="#142266"/>
      </g>
      <g id="Group_3115" data-name="Group 3115">
        <path id="Path_10898" data-name="Path 10898" d="M5409.963,2491.681a.385.385,0,0,0,.189-.511l-.007-.015a22.738,22.738,0,0,1-1.656-5.486c-.669-3.237-2.548-6.029-6.5-4.626a.383.383,0,0,0-.233.489c.007.017.014.034.023.051.319.6.9,2.146,1.516,6.108C5404.014,2492.272,5407.077,2493,5409.963,2491.681Z" fill="#142266"/>
        <path id="Path_10899" data-name="Path 10899" d="M5411.565,2494.923a.387.387,0,0,1-.383-.39v-.016a22.763,22.763,0,0,0-.736-5.682c-.716-3.228-.146-6.544,4.031-6.884a.383.383,0,0,1,.411.352.346.346,0,0,1,0,.055c-.047.674.062,2.325,1.12,6.193C5417.232,2493.023,5414.74,2494.947,5411.565,2494.923Z" fill="#142266"/>
      </g>
      <g id="Group_3116" data-name="Group 3116">
        <path id="Path_10900" data-name="Path 10900" d="M5407.9,2477.682a.386.386,0,0,0,.291-.462l0-.015a22.678,22.678,0,0,1-.48-5.71c.019-3.306-1.239-6.427-5.394-5.877a.383.383,0,0,0-.329.43.3.3,0,0,0,.012.055c.187.649.43,2.286.213,6.29C5401.954,2477.022,5404.795,2478.375,5407.9,2477.682Z" fill="#142266"/>
        <path id="Path_10901" data-name="Path 10901" d="M5408.788,2481.185a.387.387,0,0,1-.293-.461l0-.015a22.771,22.771,0,0,0,.461-5.711c-.029-3.306,1.219-6.431,5.375-5.894a.383.383,0,0,1,.329.431.286.286,0,0,1-.01.053c-.186.649-.423,2.287-.193,6.29C5414.727,2480.507,5411.89,2481.869,5408.788,2481.185Z" fill="#142266"/>
      </g>
      <g id="Group_3117" data-name="Group 3117">
        <path id="Path_10902" data-name="Path 10902" d="M5408.782,2463.56a.386.386,0,0,0,.38-.392v-.015a22.757,22.757,0,0,1,.718-5.685c.706-3.229.124-6.544-4.054-6.87a.383.383,0,0,0-.411.353.52.52,0,0,0,0,.055c.049.674-.055,2.325-1.1,6.2C5403.111,2461.679,5405.609,2463.594,5408.782,2463.56Z" fill="#142266"/>
        <path id="Path_10903" data-name="Path 10903" d="M5408.93,2467.172a.387.387,0,0,1-.191-.512l.007-.014a22.8,22.8,0,0,0,1.639-5.49c.659-3.24,2.529-6.037,6.483-4.648a.382.382,0,0,1,.233.488.51.51,0,0,1-.022.052c-.317.6-.889,2.149-1.5,6.113C5414.88,2467.747,5411.822,2468.486,5408.93,2467.172Z" fill="#142266"/>
      </g>
      <g id="Group_3118" data-name="Group 3118">
        <path id="Path_10904" data-name="Path 10904" d="M5412.59,2449.931a.387.387,0,0,0,.454-.3l0-.016a22.707,22.707,0,0,1,1.884-5.411c1.362-3.012,1.482-6.375-2.537-7.562a.383.383,0,0,0-.476.259.347.347,0,0,0-.011.055c-.092.669-.536,2.263-2.364,5.833C5407.431,2446.912,5409.476,2449.3,5412.59,2449.931Z" fill="#142266"/>
        <path id="Path_10905" data-name="Path 10905" d="M5411.98,2453.494a.387.387,0,0,1-.082-.54l.011-.013a22.758,22.758,0,0,0,2.744-5.03c1.318-3.032,3.729-5.379,7.307-3.2a.382.382,0,0,1,.126.526.481.481,0,0,1-.032.046c-.434.517-1.316,1.917-2.734,5.668C5417.682,2455.29,5414.536,2455.38,5411.98,2453.494Z" fill="#142266"/>
      </g>
      <g id="Group_3119" data-name="Group 3119">
        <path id="Path_10906" data-name="Path 10906" d="M5419.147,2437.39a.385.385,0,0,0,.506-.2l.006-.014a22.757,22.757,0,0,1,2.968-4.9c1.958-2.663,2.776-5.928-.91-7.925a.38.38,0,0,0-.518.156.392.392,0,0,0-.023.05c-.229.635-1,2.1-3.525,5.214C5414.728,2433.364,5416.231,2436.129,5419.147,2437.39Z" fill="#142266"/>
        <path id="Path_10907" data-name="Path 10907" d="M5417.809,2440.749a.386.386,0,0,1,.034-.545l.012-.01a22.8,22.8,0,0,0,3.73-4.35c1.919-2.692,4.766-4.487,7.813-1.609a.383.383,0,0,1,.012.542c-.012.013-.025.025-.039.037-.532.416-1.686,1.6-3.853,4.976C5423.013,2443.691,5419.917,2443.126,5417.809,2440.749Z" fill="#142266"/>
      </g>
      <g id="Group_3120" data-name="Group 3120">
        <path id="Path_10908" data-name="Path 10908" d="M5428.168,2426.486a.387.387,0,0,0,.538-.093l.009-.013a22.745,22.745,0,0,1,3.922-4.177c2.469-2.2,3.947-5.222.758-7.94a.384.384,0,0,0-.541.045.313.313,0,0,0-.032.043c-.356.574-1.411,1.849-4.532,4.367C5424.683,2421.63,5425.578,2424.646,5428.168,2426.486Z" fill="#142266"/>
        <path id="Path_10909" data-name="Path 10909" d="M5426.161,2429.5a.386.386,0,0,1,.146-.526l.014-.007a22.832,22.832,0,0,0,4.553-3.479c2.437-2.234,5.594-3.4,7.976.05a.384.384,0,0,1-.1.533.3.3,0,0,1-.046.028c-.607.3-1.983,1.216-4.8,4.066C5430.64,2433.453,5427.729,2432.256,5426.161,2429.5Z" fill="#142266"/>
      </g>
      <g id="Group_3121" data-name="Group 3121">
        <path id="Path_10910" data-name="Path 10910" d="M5439.258,2417.7a.387.387,0,0,0,.545.022l.012-.011a22.7,22.7,0,0,1,4.7-3.271c2.871-1.637,4.946-4.287,2.391-7.609a.381.381,0,0,0-.538-.067.3.3,0,0,0-.04.035c-.468.487-1.764,1.516-5.339,3.329C5436.859,2412.223,5437.107,2415.359,5439.258,2417.7Z" fill="#142266"/>
        <path id="Path_10911" data-name="Path 10911" d="M5436.67,2420.222a.385.385,0,0,1,.251-.485l.017,0a22.836,22.836,0,0,0,5.177-2.456c2.848-1.678,6.179-2.16,7.792,1.708a.383.383,0,0,1-.208.5.47.47,0,0,1-.052.018c-.655.163-2.192.777-5.544,2.978C5440.227,2425.026,5437.629,2423.25,5436.67,2420.222Z" fill="#142266"/>
      </g>
      <g id="Group_3122" data-name="Group 3122">
        <path id="Path_10912" data-name="Path 10912" d="M5451.934,2411.405a.386.386,0,0,0,.529.134l.014-.008a22.666,22.666,0,0,1,5.282-2.221c3.15-1,5.729-3.165,3.922-6.946a.385.385,0,0,0-.513-.179.353.353,0,0,0-.046.027c-.559.379-2.041,1.116-5.916,2.146C5450.725,2405.551,5450.316,2408.671,5451.934,2411.405Z" fill="#142266"/>
        <path id="Path_10913" data-name="Path 10913" d="M5448.877,2413.337a.386.386,0,0,1,.347-.421h.017a22.806,22.806,0,0,0,5.574-1.326c3.135-1.05,6.493-.829,7.266,3.29a.383.383,0,0,1-.307.446.329.329,0,0,1-.055.007c-.675.024-2.305.3-6.042,1.76C5451.358,2418.776,5449.185,2416.5,5448.877,2413.337Z" fill="#142266"/>
      </g>
    </g>
    <g id="Group_3389" data-name="Group 3389" transform="translate(-5701.464 -2702.821)">
      <g id="Group_3124" data-name="Group 3124">
        <path id="Path_10914" data-name="Path 10914" d="M5475.379,2562.664l-76.121-77.573-2.5,10.058,78.621,80.121L5554,2495.149l-2.5-10.058Z" fill="#e65416"/>
        <path id="Path_10915" data-name="Path 10915" d="M5551.5,2485.09l-2.833-11.4c-31.187-3.9-51.662-17.144-63.632-28.04a99.086,99.086,0,0,1-9.656-10.114,99.347,99.347,0,0,1-9.656,10.114c-11.97,10.9-32.444,24.144-63.632,28.04l-2.833,11.4,76.121,77.573Z" fill="#b5311b"/>
      </g>
      <path id="Path_10916" data-name="Path 10916" d="M5557.822,2463.321c-62.61-4.005-82.444-46.74-82.444-46.74s-19.835,42.735-82.444,46.74l-8.056,31.144,90.5,88.632,90.5-88.632Zm-161.066,31.828,5.334-21.457c31.188-3.9,51.662-17.144,63.632-28.04a99.372,99.372,0,0,0,9.656-10.114,99.111,99.111,0,0,0,9.656,10.114c11.97,10.9,32.444,24.144,63.632,28.04l5.334,21.457-78.621,80.121Z" fill="#142266"/>
    </g>
    <g id="Path_7351" data-name="Path 7351" transform="translate(-5701.464 -2702.821)">
      <path id="Path_15" data-name="Path 15" d="M5455.9,2493.353a20.576,20.576,0,0,1,11.054,18.192v16.982a3.589,3.589,0,0,0,3.593,3.572h9.623a3.589,3.589,0,0,0,3.593-3.572v-16.982a20.521,20.521,0,0,1,11.053-18.192Zm56.759-33.873c0-21.37-16.747-38.775-37.3-38.775s-37.3,17.406-37.3,38.776a39.306,39.306,0,0,0,10.932,27.425h52.739a39.2,39.2,0,0,0,10.931-27.425Zm-9.713,43.555a9.691,9.691,0,1,0,9.743,9.691,9.692,9.692,0,0,0-9.743-9.691Z" fill="none" stroke="#142266" stroke-linecap="square" stroke-linejoin="bevel" stroke-width="19"/>
      <path id="Path_16" data-name="Path 16" d="M5455.9,2493.353a20.576,20.576,0,0,1,11.054,18.192v16.982a3.589,3.589,0,0,0,3.593,3.572h9.623a3.589,3.589,0,0,0,3.593-3.572v-16.982a20.521,20.521,0,0,1,11.053-18.192Zm56.759-33.873c0-21.37-16.747-38.775-37.3-38.775s-37.3,17.406-37.3,38.776a39.306,39.306,0,0,0,10.932,27.425h52.739a39.2,39.2,0,0,0,10.931-27.425Zm-9.713,43.555a9.691,9.691,0,1,0,9.743,9.691,9.692,9.692,0,0,0-9.743-9.691Z" fill="#df3b0e"/>
    </g>
    <g id="Group_3391" data-name="Group 3391" transform="translate(-5701.464 -2702.821)">
      <ellipse id="Ellipse_224" data-name="Ellipse 224" cx="17.219" cy="9.559" rx="17.219" ry="9.559" transform="translate(5528.339 2549.093)" fill="#142266"/>
      <ellipse id="Ellipse_225" data-name="Ellipse 225" cx="17.219" cy="9.559" rx="17.219" ry="9.559" transform="translate(5387.924 2549.093)" fill="#142266"/>
      <ellipse id="Ellipse_226" data-name="Ellipse 226" cx="10.228" cy="5.678" rx="10.228" ry="5.678" transform="translate(5398.261 2553.88)" fill="#dc2648"/>
      <ellipse id="Ellipse_227" data-name="Ellipse 227" cx="10.228" cy="5.678" rx="10.228" ry="5.678" transform="translate(5531.985 2553.88)" fill="#dc2648"/>
      <path id="Path_10918" data-name="Path 10918" d="M5475.233,2526.474c-27.589,0-55.178,5.5-82.768,6.093a4.807,4.807,0,0,0-4.7,4.811v19.99a5.888,5.888,0,0,0,5.881,5.893l.155,0c27.142-.735,54.285-6.06,81.427-6.06s54.285,5.326,81.427,6.06a5.887,5.887,0,0,0,6.034-5.736c0-.052,0-.1,0-.155v-19.99a4.806,4.806,0,0,0-4.695-4.811C5530.411,2531.976,5502.822,2526.474,5475.233,2526.474Z" fill="#142266"/>
      <g id="Group_8" data-name="Group 8">
        <g id="Group_7" data-name="Group 7">
          <g id="Group_6" data-name="Group 6">
            <path id="Path_17" data-name="Path 17" d="M5429.029,2553.62q-1.6.144-3.193.3-.333-3.439-.666-6.878-.661,2.73-1.3,5.464-1.162-2.553-2.341-5.1.357,3.437.714,6.873-1.6.165-3.19.342-.927-8.394-1.854-16.788,1.647-.183,3.3-.354,1.2,2.546,2.377,5.095.66-2.734,1.338-5.468,1.652-.159,3.3-.308Q5428.271,2545.208,5429.029,2553.62Z" fill="#fff"/>
            <path id="Path_18" data-name="Path 18" d="M5437.956,2552.894q-.149-.578-.3-1.154-1.56.112-3.119.237-.072.593-.143,1.187-1.619.129-3.238.268.948-8.557,2.009-17.114,1.75-.138,3.5-.266,2.34,8.3,4.568,16.615C5440.146,2552.74,5439.05,2552.815,5437.956,2552.894Zm-1.173-4.276q-.634-2.274-1.275-4.545-.292,2.342-.574,4.685Q5435.858,2548.686,5436.783,2548.618Z" fill="#fff"/>
            <path id="Path_19" data-name="Path 19" d="M5453.333,2549.371q-1.277,1.377-2.536,2.759-2.389.111-4.78.246-1.4-1.247-2.807-2.484-.083-1.341-.165-2.683,1.617-.1,3.234-.188.033.608.067,1.214l.973.866q.924-.049,1.847-.095l.9-.963c-.028-.6-.058-1.206-.087-1.81q-.5-.435-1-.869-1.665.081-3.331.176-1.425-1.256-2.866-2.5-.146-2.363-.29-4.726,1.278-1.4,2.571-2.8,2.47-.14,4.94-.254,1.428,1.257,2.844,2.522.056,1.332.11,2.663-1.626.067-3.252.145c-.02-.4-.039-.81-.058-1.214l-1.007-.848c-.628.032-1.257.063-1.885.1-.3.322-.6.644-.892.967.032.6.066,1.192.1,1.788q.5.443.988.887,1.686-.091,3.374-.169,1.41,1.257,2.807,2.523Q5453.235,2546.995,5453.333,2549.371Z" fill="#fff"/>
            <path id="Path_20" data-name="Path 20" d="M5462.388,2551.722q-.12-.583-.242-1.167-1.563.038-3.124.085c-.066.393-.133.787-.2,1.179q-1.621.051-3.244.11,1.362-8.5,2.836-17,1.753-.054,3.509-.1,1.934,8.4,3.754,16.818Q5464.033,2551.683,5462.388,2551.722Zm-.964-4.328q-.52-2.3-1.051-4.6-.4,2.327-.8,4.652Z" fill="#fff"/>
            <path id="Path_21" data-name="Path 21" d="M5482.533,2537.957q-1.524-.026-3.049-.04-.067,6.844-.137,13.691-1.6-.016-3.2-.023.026-6.844.05-13.691-1.534-.006-3.071,0,0-1.6-.007-3.2,4.735-.011,9.469.065Q5482.558,2536.357,5482.533,2537.957Z" fill="#fff"/>
            <path id="Path_22" data-name="Path 22" d="M5494.528,2551.99q-5.04-.2-10.078-.3.172-8.444.342-16.887,5.21.1,10.415.315-.064,1.6-.128,3.2-3.531-.141-7.061-.236-.048,1.823-.1,3.646,1.632.042,3.266.1l-.106,3.2q-1.622-.052-3.245-.1-.048,1.823-.1,3.645,3.458.092,6.917.231Q5494.591,2550.392,5494.528,2551.99Z" fill="#fff"/>
            <path id="Path_23" data-name="Path 23" d="M5506.668,2552.626q-1.567-.1-3.135-.193-1.593-4.247-3.248-8.485-.21,4.143-.421,8.285-1.6-.082-3.2-.153.376-8.436.752-16.874,1.632.073,3.264.156,1.675,4.228,3.29,8.466.24-4.131.481-8.261,1.652.1,3.306.2Q5507.212,2544.2,5506.668,2552.626Z" fill="#fff"/>
            <path id="Path_24" data-name="Path 24" d="M5509.959,2535.917q1.653.112,3.305.238-.634,8.422-1.265,16.843-1.6-.12-3.2-.23Q5509.379,2544.342,5509.959,2535.917Z" fill="#fff"/>
            <path id="Path_25" data-name="Path 25" d="M5524.441,2551.431q-1.455,1.184-2.9,2.376-2.385-.225-4.771-.427-1.211-1.429-2.432-2.854.107-1.338.213-2.679,1.614.129,3.23.267-.052.606-.1,1.212c.281.33.561.662.843.993q.922.081,1.842.165c.343-.276.684-.551,1.029-.826.055-.6.112-1.2.168-1.8l-.865-1q-1.662-.152-3.324-.293-1.236-1.443-2.488-2.879l.375-4.72q1.463-1.21,2.94-2.412,2.468.208,4.93.442,1.241,1.445,2.465,2.9-.133,1.326-.265,2.653-1.62-.162-3.243-.313.057-.606.113-1.211c-.294-.328-.586-.654-.88-.98q-.94-.087-1.88-.169l-1.02.832q-.076.892-.153,1.785.428.507.854,1.016,1.683.147,3.366.306,1.221,1.445,2.429,2.893Q5524.677,2549.064,5524.441,2551.431Z" fill="#fff"/>
            <path id="Path_26" data-name="Path 26" d="M5528.053,2537.479q1.649.172,3.3.354-.929,8.394-1.854,16.788-1.594-.176-3.19-.342Z" fill="#fff"/>
          </g>
        </g>
        <circle id="Ellipse_2" data-name="Ellipse 2" cx="1.941" cy="1.941" r="1.941" transform="translate(5509.495 2531.538) rotate(-30.945)" fill="#fff"/>
        <circle id="Ellipse_3" data-name="Ellipse 3" cx="1.941" cy="1.941" r="1.941" transform="translate(5527.823 2533.481) rotate(-30.945)" fill="#fff"/>
      </g>
    </g>
    <path id="Path_79" data-name="Path 79" d="M5481.835,2424.3s28.717,7.132,27.1,43.451C5508.933,2467.753,5508.464,2444.246,5481.835,2424.3Z" transform="translate(-5701.464 -2702.821)" fill="#fff"/>
    <path id="Path_80" data-name="Path 80" d="M5460.334,2494.482s8.835,5.078,7.927,21.014c0,0,.165-6.11,2.312-7.266C5470.573,2508.23,5468.261,2498.982,5460.334,2494.482Z" transform="translate(-5701.464 -2702.821)" fill="#b5311b"/>
    <path id="Path_81" data-name="Path 81" d="M5490.654,2494.482s-8.835,5.078-7.927,21.014c0,0-.165-6.11-2.312-7.266C5480.415,2508.23,5482.727,2498.982,5490.654,2494.482Z" transform="translate(-5701.464 -2702.821)" fill="#b5311b"/>
    <path id="Path_82" data-name="Path 82" d="M5472.489,2512.417s2.408,2.077,6,0a5.686,5.686,0,0,1,1.5,3.033c-.1,3.288,0,7.786,0,7.786a12.686,12.686,0,0,0-9.258,0v-7.659A5.784,5.784,0,0,1,5472.489,2512.417Z" transform="translate(-5701.464 -2702.821)" fill="#b5311b"/>
    <path id="Path_83" data-name="Path 83" d="M5500.488,2481.95s-35.24-1.922-49.421,0c0,0-19.713-30.114,6.254-52.573C5457.321,2429.377,5441.394,2465.827,5500.488,2481.95Z" transform="translate(-5701.464 -2702.821)" fill="#b5311b"/>
    <path id="Path_84" data-name="Path 84" d="M5503,2503.829s-8.857.327-8.9,10.031c0,5.162,6.216,8.534,10.321,7.68C5504.425,2521.54,5490.269,2512,5503,2503.829Z" transform="translate(-5701.464 -2702.821)" fill="#b5311b"/>
    <path id="Path_85" data-name="Path 85" d="M5505.623,2504.221s3.942.867,5.8,5.987A19.285,19.285,0,0,0,5505.623,2504.221Z" transform="translate(-5701.464 -2702.821)" fill="#fff"/>
  </g>
</svg>
