<svg xmlns="http://www.w3.org/2000/svg" width="78.494" height="90" viewBox="0 0 78.494 90"><defs><style>.a{fill:#ed6b06;}</style></defs><path class="a" d="M83.144,31.346a2.824,2.824,0,1,0-2.988,4.792,10.445,10.445,0,0,1,0,17.725L33.842,82.74a10.444,10.444,0,0,1-15.97-8.862V16.123a10.444,10.444,0,0,1,15.97-8.862L60.8,24.071a2.824,2.824,0,1,0,2.988-4.792L36.831,2.469a16.091,16.091,0,0,0-24.6,13.654V73.877a15.891,15.891,0,0,0,8.283,14.069,15.892,15.892,0,0,0,16.322-.416L83.144,58.654a16.091,16.091,0,0,0,0-27.308Z" transform="translate(-12.226)"/></svg>