<svg xmlns="http://www.w3.org/2000/svg" width="100.869" height="80.004" viewBox="0 0 100.869 80.004"><path d="M23929.1,914h-97.4a1.739,1.739,0,0,1-1.732-1.742l0-76.519A1.742,1.742,0,0,1,23831.7,834h97.4a1.739,1.739,0,0,1,1.734,1.742V912.26a1.741,1.741,0,0,1-1.734,1.74Zm-15.658-19.135h0v15.657h13.916V894.867h-13.916Zm-80,0h0v15.657h13.91V894.867h-13.91ZM23880.8,851a22.813,22.813,0,1,0-.029,45.626h.029a22.813,22.813,0,0,0,0-45.626Zm32.666,24.738h0v15.651h13.916V875.738Zm-80,0h0v15.651h13.91V875.738Zm80-19.129h0V872.26h13.916V856.609h-13.916Zm-80,0h0V872.26h13.91V856.609h-13.91Zm80-19.129h0v15.651h13.916v-15.65h-13.916Zm-80,0h0v15.651h13.91v-15.65h-13.91Zm50.857,57.681a.871.871,0,0,1-.7-.324,2.639,2.639,0,0,1,.018-2.359.816.816,0,0,1,.668-.306.831.831,0,0,1,.689.307,1.935,1.935,0,0,1,.289,1.2,1.848,1.848,0,0,1-.287,1.2.812.812,0,0,1-.7.282Zm-.018-2.534a.228.228,0,0,0-.18.072.493.493,0,0,0-.127.24,3.307,3.307,0,0,0-.055.721,3.006,3.006,0,0,0,.053.7.459.459,0,0,0,.131.251.3.3,0,0,0,.18.079.219.219,0,0,0,.178-.079.419.419,0,0,0,.127-.234,3.307,3.307,0,0,0,.059-.721,3.235,3.235,0,0,0-.059-.7.449.449,0,0,0-.125-.258.332.332,0,0,0-.187-.072Zm-2.42,2.516a.824.824,0,0,1-.562-.18.857.857,0,0,1-.268-.548l.523-.054a.4.4,0,0,0,.105.252.266.266,0,0,0,.221.077.365.365,0,0,0,.3-.168,1.261,1.261,0,0,0,.162-.667.711.711,0,0,1-.543.252.8.8,0,0,1-.6-.27,1.1,1.1,0,0,1,.018-1.41.953.953,0,0,1,.689-.27.909.909,0,0,1,.74.342,1.663,1.663,0,0,1,.291,1.123,1.809,1.809,0,0,1-.311,1.159.95.95,0,0,1-.76.361Zm.035-2.5a.262.262,0,0,0-.252.132.608.608,0,0,0-.107.4.687.687,0,0,0,.109.413.342.342,0,0,0,.287.127.327.327,0,0,0,.27-.126.582.582,0,0,0,.109-.378.55.55,0,0,0-.123-.415.39.39,0,0,0-.314-.151Zm-2.33,2.5a.822.822,0,0,1-.564-.18.842.842,0,0,1-.27-.547l.527-.054a.393.393,0,0,0,.111.252.256.256,0,0,0,.215.078.364.364,0,0,0,.307-.168,1.246,1.246,0,0,0,.162-.667.711.711,0,0,1-.543.252.8.8,0,0,1-.6-.27.985.985,0,0,1,.705-1.682.914.914,0,0,1,.74.342,1.686,1.686,0,0,1,.289,1.123,1.818,1.818,0,0,1-.3,1.159.969.969,0,0,1-.773.362Zm.035-2.5a.261.261,0,0,0-.254.131.6.6,0,0,0-.111.4.689.689,0,0,0,.115.413.341.341,0,0,0,.287.127.327.327,0,0,0,.27-.126.583.583,0,0,0,.111-.378.567.567,0,0,0-.127-.414.379.379,0,0,0-.316-.152Zm-1.734,2.462h-.584V893a2.061,2.061,0,0,1-.738.414v-.5a2.074,2.074,0,0,0,.486-.276,1.1,1.1,0,0,0,.359-.468h.477Zm2.906-3.634a17.67,17.67,0,1,1,17.662-17.666,17.671,17.671,0,0,1-17.662,17.666Zm-9.309-13.447h0a8.06,8.06,0,0,0,1.285,5.466l.059.094.051.079a9.179,9.179,0,0,0,7.545,4.3h.064v-3.616a6,6,0,0,1-3.166-1.269,5.471,5.471,0,0,1-1.553-2.143,7.553,7.553,0,0,1-.561-2.912h-.738v.7l-.613.018v-.7l-.889.018-.018.7-.559.018v-.739Zm15.148-.06h0a.232.232,0,0,0,0,.052,7.5,7.5,0,0,1-.588,3.133,5.189,5.189,0,0,1-4.543,3.127v3.67a10.167,10.167,0,0,0,4.039-1.085,8.57,8.57,0,0,0,3-2.5,10.092,10.092,0,0,0,1.834-4.822,9.98,9.98,0,0,0-.029-1.509v-.023h-.816l.018.721h-.666v-.739l-.781.018-.018.721-.576.018v-.757h-.871v-.024Zm-10.482-.648h0a5.986,5.986,0,0,0,1.32,4.554,5.026,5.026,0,0,0,3.178,1.535,4.924,4.924,0,0,0,3.8-1.532,6.6,6.6,0,0,0,1.277-4.572l.016-.04h5.6a2.846,2.846,0,0,0-2.758-1.961l-.1-.009q-.117-.01-.234-.01a3.4,3.4,0,0,0-2.555,1.367l-.016-2.383,4.77-.054a2.371,2.371,0,0,0-2.42-1.7h-.053a2.954,2.954,0,0,0-2.279,1.442v-2.276l.686-.829v-.709h-.686a.22.22,0,0,1,0-.062c-.025-1.138-.031-1.685-.031-1.944l-.145-1.405-.455-3.2h-.121l-.475,3.2c-.043.242-.109.787-.135.993-.008.06-.01.087-.012.088v2.348h-1.3l.023-2.619.721-1v-.523l-.721-.018v.018l-.059-2.366a3.16,3.16,0,0,0-.072-.558l-.523-3.436h-.145l-.521,3.381-.072.7-.037,2.276-1.338-.018c0-.062,0-.279-.006-.558,0-.652-.012-1.636-.012-1.755a4.586,4.586,0,0,0-.068-.589v-.023l-.578-3.417h-.162l-.527,3.688v2.1a4.736,4.736,0,0,1-.016.6h-.687l-.018.541.684,1V870.2h-1.352a.093.093,0,0,1,0-.04c-.012-.575-.031-1.6-.014-1.966a9.784,9.784,0,0,0-.139-1.491.114.114,0,0,0-.006-.047l-.492-3.087h-.18c0,.012-.078.566-.168,1.206-.115.821-.244,1.751-.264,1.881-.029.169-.09.807-.117,1.08-.006.071-.01.113-.01.115l-.035,2.33h-.668v.709l.668.829v2.258l-.09.018a2.464,2.464,0,0,0-2.26-1.405,2.513,2.513,0,0,0-2.354,1.591l4.7.054.018,2.546h-.09a3.172,3.172,0,0,0-2.715-1.538h-.055a3.042,3.042,0,0,0-2.994,2.15l5.869-.072Zm-12.834,9.039h0l-.252-.359.342-.234.252.36-.342.234Zm.469-.306h0l-.271-.378,1.9-1.321.27.378-1.9,1.321Zm34.107-.072h0l-1.027-.648a2.838,2.838,0,0,1-.469-.347.788.788,0,0,1-.18-.27.651.651,0,0,1-.02-.324,1.2,1.2,0,0,1,.18-.414,1.157,1.157,0,0,1,.328-.378.662.662,0,0,1,.3-.132.931.931,0,0,1,.127-.006.5.5,0,0,1,.162.024,2.118,2.118,0,0,1,.521.276l1.051.649-.234.432-1.068-.667-.066-.04-.076-.046a1.436,1.436,0,0,0-.2-.111.349.349,0,0,0-.268,0,.508.508,0,0,0-.234.215.386.386,0,0,0-.09.288.41.41,0,0,0,.105.216,1.742,1.742,0,0,0,.328.216l1.086.673-.258.4Zm.654-.072h0l-.324-.2.2-.324.324.2-.2.323Zm.359-.577h0l-.324-.2.2-.324.324.2-.2.329Zm-35.59-.348h0a.675.675,0,0,1-.35-.144,1.44,1.44,0,0,1-.285-.359,1.083,1.083,0,0,1-.148-.668.623.623,0,0,1,.332-.45l.217.414a.351.351,0,0,0-.09.522.6.6,0,0,0,.234.234.125.125,0,0,0,.08.027.15.15,0,0,0,.08-.027c.049-.016.072-.062.092-.126a1.464,1.464,0,0,0-.07-.45,2.555,2.555,0,0,1-.094-.529.725.725,0,0,1,.092-.342.741.741,0,0,1,.27-.252.685.685,0,0,1,.379-.09.568.568,0,0,1,.379.143,1.035,1.035,0,0,1,.33.4,1.047,1.047,0,0,1,.143.691.808.808,0,0,1-.375.523l-.26-.361a.483.483,0,0,0,.223-.306.543.543,0,0,0-.078-.348.6.6,0,0,0-.252-.252.365.365,0,0,0-.137-.028.256.256,0,0,0-.117.027.172.172,0,0,0-.092.114.384.384,0,0,0,0,.2,1.727,1.727,0,0,0,.061.281l.027.1a1.159,1.159,0,0,1,.053.577.61.61,0,0,1-.3.415.737.737,0,0,1-.363.063Zm35.576-1.381a.388.388,0,0,1-.2-.061.727.727,0,0,1-.217-.216.6.6,0,0,1-.078-.312.531.531,0,0,1-.32.2.611.611,0,0,1-.09.007.666.666,0,0,1-.273-.06.623.623,0,0,1-.24-.2.57.57,0,0,1-.125-.289.7.7,0,0,1,.037-.324,2.138,2.138,0,0,1,.123-.264l.117-.241.355-.709,2.066,1.051-.439.811a2.14,2.14,0,0,1-.2.366.655.655,0,0,1-.2.156.53.53,0,0,1-.256.078.318.318,0,0,1-.064.008Zm.123-1.418-.145.27a1.96,1.96,0,0,0-.129.265l-.014.038a.263.263,0,0,0-.02.2.3.3,0,0,0,.125.144.218.218,0,0,0,.117.031.126.126,0,0,0,.066-.012.241.241,0,0,0,.143-.127l.014-.027c.023-.042.088-.156.166-.315l.143-.234Zm-.883-.45-.2.378-.023.046-.023.044v.008a.943.943,0,0,0-.08.192.527.527,0,0,0,0,.2.3.3,0,0,0,.148.144.328.328,0,0,0,.182.036.245.245,0,0,0,.166-.089,1.352,1.352,0,0,0,.215-.361l.16-.324Zm-36.1,1.495h0l-.738-1.681.359-.162.27.637,1.754-.781.182.438-1.736.757.275.631-.365.162Zm21.531-1.243h-2.35l1.172-2.024,1.176,2.023Zm-2.787,0h-2.348l1.176-2.024,1.17,2.023Zm19.578-.6h0L23899.2,881a5.41,5.41,0,0,1-.541-.216.543.543,0,0,1-.234-.216.735.735,0,0,1-.088-.307,1.467,1.467,0,0,1,.07-.45,1.124,1.124,0,0,1,.232-.455.881.881,0,0,1,.273-.2.568.568,0,0,1,.287-.054,3.64,3.64,0,0,1,.479.115h.006l.1.027,1.172.378-.145.439-1.2-.378a1.4,1.4,0,0,0-.379-.114.414.414,0,0,0-.252.072.457.457,0,0,0-.18.276.435.435,0,0,0-.018.306.25.25,0,0,0,.143.18,2,2,0,0,0,.361.145l1.213.4-.145.431Zm.631-.234h0l-.359-.108.125-.36.361.108-.127.359Zm-37.578-.36h0l-2.473-.144-.145-.468,1.916-1.592.145.468-.439.36.295.889.559.018.143.467Zm-1.3-1.1-.721.558.9.036Zm39.115.828h0l-.359-.108.107-.36.379.108-.127.359Zm-21.891-.871H23877l1.178-2.024,1.17,2.023Zm5.682-.054h-2.355l1.178-2.024,1.176,2.023Zm-2.842,0h-2.348l1.172-2.024,1.174,2.023Zm-21.836-.865h0l-.07-.449,1.357-1.2-1.52.27-.072-.432,2.275-.4.072.468-1.32,1.177,1.482-.258.078.438-2.281.378Zm38.9-.072h0l-.377-.072.344-1.592,2.221.468-.094.45-1.859-.4-.234,1.14Zm-18.473-1.5h-2.35l1.178-2.024,1.17,2.023Zm2.75-.018h-2.354l1.176-2.024,1.176,2.022Zm18.09-.45h0l-1.207-.09a2.921,2.921,0,0,1-.584-.072.663.663,0,0,1-.266-.162.738.738,0,0,1-.166-.288,1.381,1.381,0,0,1-.035-.456,1.344,1.344,0,0,1,.107-.486.591.591,0,0,1,.217-.253.944.944,0,0,1,.273-.107,1.378,1.378,0,0,1,.24-.012c.1,0,.213,0,.338.012l1.232.09-.037.45-1.248-.09c-.2-.018-.324-.018-.379-.018a.359.359,0,0,0-.236.125.512.512,0,0,0-.105.292l-.008.015a.413.413,0,0,0,.059.306.362.362,0,0,0,.182.132c.1.02.23.037.4.054l1.266.09-.039.467Zm-41.717-.45h0l-.07-.888v-.181a1.035,1.035,0,0,1,0-.233.6.6,0,0,1,.072-.251.45.45,0,0,1,.178-.2.523.523,0,0,1,.275-.093.584.584,0,0,1,.3.072.616.616,0,0,1,.223.216.575.575,0,0,1,.178-.341.612.612,0,0,1,.348-.144.892.892,0,0,1,.3.054.657.657,0,0,1,.248.173l.006.007v.009a.7.7,0,0,1,.121.3,3.833,3.833,0,0,1,.055.559l.055.781-2.295.162Zm.559-1.429a.223.223,0,0,0-.162.072.267.267,0,0,0-.07.18,3.7,3.7,0,0,0,.016.4l.018.27.523-.036-.018-.306c-.008-.075-.014-.145-.02-.213v-.02a1.017,1.017,0,0,0-.012-.109.389.389,0,0,0-.1-.18.292.292,0,0,0-.127-.059Zm.943-.144a.307.307,0,0,0-.182.054.235.235,0,0,0-.088.132l0,.011a1.633,1.633,0,0,0,0,.414l.037.4.611-.036-.035-.432c-.006-.049-.01-.094-.014-.133v-.026a.775.775,0,0,0-.023-.164.254.254,0,0,0-.107-.162.349.349,0,0,0-.2-.06Zm22.936.613h0a4.244,4.244,0,0,0-1.248-.9l-.035-2.661.637-.721.648.721v3.561Zm-6.738,0v-3.561l.648-.721.738.721.018,2.57a4.947,4.947,0,0,0-1.4.988Zm21.963-.847h0l-.021-.6,1.068-.667-.4-.36-.709.018-.018-.474,2.3-.084.018.468-1.033.036,1.064.9.023.637-.926-.835-1.369.96Zm-17.916-.51h0a5.611,5.611,0,0,0-.693-.042c-.18,0-.354.012-.518.024l-.035-2.186.613-.7.672.7-.037,2.2Zm-20.436-.209q-.105,0-.211-.007l-1.227-.036.02-.468,1.248.036c.1.009.182.014.244.014a.47.47,0,0,0,.133-.014.31.31,0,0,0,.234-.126.531.531,0,0,0,.09-.306.469.469,0,0,0-.068-.306.323.323,0,0,0-.2-.132,2.081,2.081,0,0,0-.4-.036l-1.279-.03.018-.474,1.213.036a2.126,2.126,0,0,1,.578.054.486.486,0,0,1,.287.144.766.766,0,0,1,.182.27,1.709,1.709,0,0,1,.051.456,1.186,1.186,0,0,1-.086.5.532.532,0,0,1-.2.27.469.469,0,0,1-.254.126,2.617,2.617,0,0,1-.375.028Zm.984-2.32h0l-2.24-.432.092-.45,1.859.36.217-1.141.383.072-.309,1.591Zm37.164-.162h0l-.109-.539.434-.438a1.5,1.5,0,0,0,.295-.306.3.3,0,0,0,.072-.162,1.049,1.049,0,0,0-.016-.234l-.021-.09-.943.18-.09-.45,2.281-.414.176.955a1.866,1.866,0,0,1,.041.541.583.583,0,0,1-.166.312.764.764,0,0,1-.342.161.6.6,0,0,1-.131.014.664.664,0,0,1-.322-.086.825.825,0,0,1-.289-.419,1.46,1.46,0,0,1-.145.293l-.033.038-.027.026-.006.007c-.066.067-.146.15-.262.253l-.4.359Zm1.609-1.97-.6.126.072.342a.989.989,0,0,0,.109.4.231.231,0,0,0,.125.107.568.568,0,0,0,.18.018.548.548,0,0,0,.18-.09.329.329,0,0,0,.053-.2c-.012-.115-.029-.229-.051-.342Zm-19.285.919h-1.3v-2.619l.631-.649.672.649v2.618Zm-18.912-1.5h0l-2.187-.762.313-.847c.063-.159.121-.293.162-.378a.442.442,0,0,1,.162-.2.576.576,0,0,1,.234-.108h.006a.7.7,0,0,1,.1-.011.5.5,0,0,1,.16.03.506.506,0,0,1,.25.181.8.8,0,0,1,.109.287.86.86,0,0,1,.3-.234.379.379,0,0,1,.164-.034.712.712,0,0,1,.2.034.791.791,0,0,1,.275.168,1.018,1.018,0,0,1,.164.269.676.676,0,0,1,0,.325c-.016.068-.064.23-.16.541l-.258.744Zm-.355-1.646a.276.276,0,0,0-.15.108,2.384,2.384,0,0,0-.162.378l-.125.378.576.2.145-.414.047-.129.01-.031a.626.626,0,0,0,.037-.146.243.243,0,0,0-.037-.2.328.328,0,0,0-.164-.126.663.663,0,0,0-.186-.014Zm-.859-.218a.242.242,0,0,0-.082.014.2.2,0,0,0-.125.149,3.7,3.7,0,0,0-.145.378l-.092.234.5.18.09-.288a2.753,2.753,0,0,1,.09-.264.112.112,0,0,1,.008-.026.1.1,0,0,1,.012-.034.248.248,0,0,0-.018-.2.308.308,0,0,0-.143-.133l-.045-.006Zm37.93,1.7a1.012,1.012,0,0,1-.434-.1,1.041,1.041,0,0,1-.559-.667,1.109,1.109,0,0,1,.035-.865,1.275,1.275,0,0,1,.719-.565,1.906,1.906,0,0,1,.6-.108,1.377,1.377,0,0,1,.361.108.863.863,0,0,1,.285.216,1.039,1.039,0,0,1,.254.438,1.11,1.11,0,0,1-.035.865,1.225,1.225,0,0,1-.74.577,1.464,1.464,0,0,1-.469.1Zm.342-1.815a1.179,1.179,0,0,0-.4.081.823.823,0,0,0-.506.36.545.545,0,0,0-.035.5.566.566,0,0,0,.342.36.663.663,0,0,0,.246.049,1.423,1.423,0,0,0,.391-.066.855.855,0,0,0,.5-.36.612.612,0,0,0,.039-.5.586.586,0,0,0-.342-.378.644.644,0,0,0-.252-.044Zm-36.6-.49a.544.544,0,0,1-.111-.012,2.173,2.173,0,0,1-.543-.2l-1.123-.523.162-.432,1.137.523c.084.032.154.061.211.084h.006l.148.058a.331.331,0,0,0,.07.007.532.532,0,0,0,.2-.043.4.4,0,0,0,.217-.235.518.518,0,0,0,.055-.306.283.283,0,0,0-.129-.2,2.371,2.371,0,0,0-.34-.18l-1.158-.541.2-.414,1.105.5a3.614,3.614,0,0,1,.521.288.645.645,0,0,1,.2.252.948.948,0,0,1,.049.33,1.189,1.189,0,0,1-.123.432,1.8,1.8,0,0,1-.289.415.51.51,0,0,1-.287.162.562.562,0,0,1-.2.039Zm35.945-.462a.762.762,0,0,1-.287-.072.483.483,0,0,1-.217-.162,2.178,2.178,0,0,1-.252-.413l-.145-.277-.781.42-.215-.42,2.023-1.081.348.667a2.142,2.142,0,0,1,.234.5.654.654,0,0,1-.037.4.714.714,0,0,1-.328.324.649.649,0,0,1-.311.117Zm.02-1.411-.578.306.127.216a1.819,1.819,0,0,0,.2.311.318.318,0,0,0,.164.073.325.325,0,0,0,.178-.036.258.258,0,0,0,.145-.162.531.531,0,0,0,0-.222,2.6,2.6,0,0,0-.143-.306Zm-37.705.726h0l-.342-.168.162-.342.342.162-.162.347Zm.287-.619h0l-.342-.162.162-.342.342.162-.162.341Zm35.52-.2a.634.634,0,0,1-.381-.126,1.424,1.424,0,0,1-.34-.378.925.925,0,0,1-.2-.667.884.884,0,0,1,.344-.565l.27.342a.553.553,0,0,0-.2.33.49.49,0,0,0,.092.343.6.6,0,0,0,.268.234.311.311,0,0,0,.121.025.208.208,0,0,0,.133-.043.14.14,0,0,0,.09-.108.333.333,0,0,0,0-.2l-.008-.014c0-.007-.006-.015-.008-.023-.02-.06-.053-.172-.113-.323a1.463,1.463,0,0,1-.086-.565.567.567,0,0,1,.266-.433.646.646,0,0,1,.33-.089.664.664,0,0,1,.359.108,1.384,1.384,0,0,1,.311.341.987.987,0,0,1,.2.655.681.681,0,0,1-.3.469l-.27-.379a.375.375,0,0,0,.053-.546.48.48,0,0,0-.242-.217.193.193,0,0,0-.062-.012.189.189,0,0,0-.1.03.146.146,0,0,0-.072.126,1.441,1.441,0,0,0,.115.45,2.851,2.851,0,0,1,.119.51.534.534,0,0,1-.053.342.544.544,0,0,1-.254.269.7.7,0,0,1-.361.118Zm-32.391-.4h0l-.816-.54-1.586-.018.289-.456,1.063.036-.469-.937.289-.45.672,1.441.813.529-.254.4Zm.775-1.574a.737.737,0,0,1-.287-.054,2.175,2.175,0,0,1-.488-.324l-.961-.775.289-.366.979.763a2.9,2.9,0,0,0,.307.235.32.32,0,0,0,.168.046.5.5,0,0,0,.1-.011.6.6,0,0,0,.381-.474.292.292,0,0,0-.074-.216,1.412,1.412,0,0,0-.287-.27l-.992-.793.289-.36.938.757a3.337,3.337,0,0,1,.438.4.642.642,0,0,1,.143.294.592.592,0,0,1-.02.324.9.9,0,0,1-.219.4,1.2,1.2,0,0,1-.381.343.721.721,0,0,1-.295.091Zm29.682-.36h0l-.307-.342,1.736-1.519.3.342-1.734,1.519Zm-.494-.882a.761.761,0,0,1-.3-.061,1.3,1.3,0,0,1-.418-.307,1.132,1.132,0,0,1-.328-.63.922.922,0,0,1,.234-.613l.348.324a.577.577,0,0,0-.127.36.751.751,0,0,0,.162.324.6.6,0,0,0,.307.18.312.312,0,0,0,.234-.078.178.178,0,0,0,.07-.125.276.276,0,0,0-.031-.2,2.225,2.225,0,0,0-.184-.342,1.308,1.308,0,0,1-.2-.546.571.571,0,0,1,.18-.468.517.517,0,0,1,.307-.162.416.416,0,0,1,.123-.019.594.594,0,0,1,.234.055,1.193,1.193,0,0,1,.381.27.914.914,0,0,1,.332.6.65.65,0,0,1-.2.523l-.344-.324a.379.379,0,0,0,.092-.27.4.4,0,0,0-.143-.277.661.661,0,0,0-.289-.161.22.22,0,0,0-.164.054.217.217,0,0,0-.055.144.953.953,0,0,0,.182.42,1.912,1.912,0,0,1,.236.468.725.725,0,0,1,0,.343.725.725,0,0,1-.541.5c-.02.009-.037.018-.057.026Zm-27.631-.259h0l-1.574-1.681.342-.324.727.763-.018-1.393.451-.432-.02,1.243,1.629.4-.434.42-1.213-.36-.018.541.469.5-.342.324Zm-3.148-.054h0l-.287-.234.234-.288.293.234Zm33.1-.414h0l-.289-.324.307-.27.287.324-.3.27Zm-32.666-.108h0l-.289-.234.234-.288.295.234-.24.287Zm28.779-.468h0l-1.393-1.086,1.393-1.808,1.357,1.051-.234.306-.979-.763-.307.4.92.7-.234.306-.92-.7-.379.487,1.01.8-.234.3Zm-23.662-.27h0l-.127-.15c.088-.053.18-.108.252-.162a.379.379,0,0,0,.145-.162c.021-.033,0-.066-.01-.1l-.008-.012a.1.1,0,0,0-.088-.054.287.287,0,0,0-.145.054.492.492,0,0,0-.146.144l-.055-.144a.29.29,0,0,1,.031-.035l.035-.037a.967.967,0,0,1-.482.148.659.659,0,0,1-.07,0,.87.87,0,0,1-.557-.323l.322-.307a.6.6,0,0,0,.322.18.642.642,0,0,0,.346-.108.591.591,0,0,0,.215-.271.3.3,0,0,0-.035-.252.2.2,0,0,0-.125-.09.129.129,0,0,0-.049-.007.481.481,0,0,0-.1.016h-.014l-.033.007-.029.009h-.01l-.016.005c-.068.022-.172.055-.307.108a1.461,1.461,0,0,1-.492.113.56.56,0,0,1-.066,0,.629.629,0,0,1-.439-.252.515.515,0,0,1-.105-.33.653.653,0,0,1,.107-.36,1.249,1.249,0,0,1,.332-.324,1.067,1.067,0,0,1,.586-.219h.061a.69.69,0,0,1,.488.287l-.361.289a.374.374,0,0,0-.252-.144.521.521,0,0,0-.289.107.5.5,0,0,0-.217.253.172.172,0,0,0,.162.24,1.2,1.2,0,0,0,.434-.133,3.272,3.272,0,0,1,.5-.143h0a.708.708,0,0,1,.336.054.749.749,0,0,1,.289.258.636.636,0,0,1,.131.36.724.724,0,0,1-.113.4.981.981,0,0,1-.2.24.473.473,0,0,1,.154-.023.264.264,0,0,1,.213.108.255.255,0,0,1,.033.252.62.62,0,0,1-.289.341.761.761,0,0,1-.27.169Zm21.4-1.429h0l-.4-.252.486-.817v-1.592l.469.294-.018,1.063.941-.486.451.288-1.43.685-.5.816Zm-20.373-.09h0l-1.1-2.023,1.5-.817.182.342-1.082.6.252.45,1.01-.559.18.342-1.008.559.3.541,1.123-.631.182.342-1.539.852Zm19.07-.673h0l-.416-.216,1.045-2.06.422.216-1.051,2.059Zm-17.154-.378h0l-.941-2.113.438-.2.361.829.828-.378-.361-.829.434-.18.943,2.114-.434.18-.42-.925-.828.384.414.919-.434.2Zm15.832-.342h0a2.751,2.751,0,0,1-.4-.108l-.811-.306.828-2.15.781.288a1.61,1.61,0,0,1,.4.2.877.877,0,0,1,.252.323,1.086,1.086,0,0,1,.068.432,1.7,1.7,0,0,1-.121.547,1.261,1.261,0,0,1-.236.432.978.978,0,0,1-.379.288,1.29,1.29,0,0,1-.389.06Zm-.072-2.042-.541,1.429.324.126a.723.723,0,0,0,.27.072.242.242,0,0,0,.066.006.63.63,0,0,0,.148-.023.467.467,0,0,0,.209-.162,1.633,1.633,0,0,0,.164-.307l.033-.071a1.538,1.538,0,0,0,.1-.36l.006-.02.006-.023a.921.921,0,0,0-.037-.253.5.5,0,0,0-.164-.18,2.213,2.213,0,0,0-.342-.161Zm-13.627,1.5h0l-.721-2.191.451-.144.721,2.192-.451.144Zm12.113-.054h0l-1.7-.456.631-2.24,1.645.45-.107.384-1.213-.33-.127.492,1.123.306-.107.378-1.123-.306-.162.613,1.25.33-.109.378Zm-11.266-.252h0l-.539-2.281.959-.216a2.026,2.026,0,0,1,.439-.06.558.558,0,0,1,.1.006.574.574,0,0,1,.3.161.684.684,0,0,1,.182.324.66.66,0,0,1-.059.456.712.712,0,0,1-.4.306h.006a1.093,1.093,0,0,1,.283.124,3.548,3.548,0,0,1,.344.306l.383.378-.547.126-.434-.414a2.572,2.572,0,0,0-.3-.27.285.285,0,0,0-.16-.055.831.831,0,0,0-.146.02h-.021l-.068.012-.1.018.219.943-.453.108Zm.689-2.12a1.505,1.505,0,0,0-.324.072l-.365.09.148.565.344-.072a1.724,1.724,0,0,0,.4-.126.245.245,0,0,0,.1-.127.35.35,0,0,0,0-.185.268.268,0,0,0-.107-.163.327.327,0,0,0-.145-.046Zm8.57,1.826h0l-1.609-.288.414-2.24.451.072-.324,1.88,1.141.2-.07.377Zm-2.012-.306h0l-1.748-.126.193-2.294,1.7.126-.037.4-1.242-.09-.037.5,1.154.072-.029.384-1.16-.072-.035.631,1.279.09-.035.377Zm-4.084-.018h0l-.16-2.293.889-.072h.307a.547.547,0,0,1,.107.006.583.583,0,0,1,.254.073.464.464,0,0,1,.189.171l.008.01a.548.548,0,0,1,.018.576.612.612,0,0,1-.217.216.577.577,0,0,1,.344.186.616.616,0,0,1,.145.342.962.962,0,0,1-.057.306.673.673,0,0,1-.178.252.79.79,0,0,1-.307.126,4.587,4.587,0,0,1-.559.054l-.781.054Zm1.061-1.077a1.906,1.906,0,0,0-.262.014l-.4.036.037.613.438-.036c.063-.007.115-.011.162-.015a.807.807,0,0,0,.164-.021.26.26,0,0,0,.16-.108.344.344,0,0,0,.055-.2.311.311,0,0,0-.055-.18.247.247,0,0,0-.145-.09.65.65,0,0,0-.133,0Zm-.062-.893c-.055,0-.182,0-.4.018l-.271.018.037.523.313-.018.168-.014a.851.851,0,0,0,.174-.022.422.422,0,0,0,.18-.09.313.313,0,0,0,.057-.18.224.224,0,0,0-.074-.162.286.286,0,0,0-.2-.065Zm11.115,1.97h0l-.383-.2.2-.378.379.2-.2.378Zm-16.863-1.393h0l-.127-.4.414-.126.127.4Z" transform="translate(-23829.965 -833.996)" fill="#0b0539"/></svg>