<svg xmlns="http://www.w3.org/2000/svg" width="99.893" height="100.051" viewBox="0 0 99.893 100.051"><path d="M25.4,74.2a1.772,1.772,0,1,1,1-3.4h.1l1.4.4c.8-2.5,1.5-5.1,2.1-7.7l-1.6-.2a1.768,1.768,0,0,1,.5-3.5h0l1.6.3a74.509,74.509,0,0,0,.8-9.4H29.8A1.685,1.685,0,0,1,28.1,49a1.752,1.752,0,0,1,1.7-1.7h1.5a64.789,64.789,0,0,0-.7-7.7l-1.6.3h-.3A1.649,1.649,0,0,1,27,38.4a1.856,1.856,0,0,1,1.4-2l1.5-.2a51.587,51.587,0,0,0-2.1-7.7l-1.3.4a1.268,1.268,0,0,1-.6.1,1.621,1.621,0,0,1-1.6-1.2,1.755,1.755,0,0,1,1.1-2.2l1.2-.4A59.581,59.581,0,0,0,23,17.5l-1.3.6a1.884,1.884,0,0,1-.8.2,1.763,1.763,0,0,1-.8-3.3l1.1-.5c-.7-1.2-1.5-2.4-2.3-3.5a49.653,49.653,0,0,0-8.2,69.8A52.988,52.988,0,0,0,18.9,89a29.218,29.218,0,0,0,2.4-3.7l-1.2-.6a1.722,1.722,0,0,1,1.5-3.1h0l1.3.7a59.581,59.581,0,0,0,3.6-7.7ZM72.2,88.9a2.2,2.2,0,0,1-.8.1,1.781,1.781,0,0,1-1.6-1,1.681,1.681,0,0,1,.8-2.3h0l1.3-.6a67.163,67.163,0,0,1-4-8.6l-1.3.4a1.268,1.268,0,0,1-.6.1,1.844,1.844,0,0,1-1.8-1.7,1.743,1.743,0,0,1,1.2-1.7l1.2-.4a64.157,64.157,0,0,1-2.3-8.6l-1.1.2h-.3a1.844,1.844,0,0,1-1.8-1.7,1.649,1.649,0,0,1,1.5-1.7l1.1-.2a71.739,71.739,0,0,1-.8-10.4H61.5a1.844,1.844,0,0,1-1.8-1.7,1.685,1.685,0,0,1,1.7-1.7H63a85.225,85.225,0,0,1,.8-8.7l-1.1-.2a1.8,1.8,0,0,1-1.5-2h0a1.845,1.845,0,0,1,2-1.5l1.2.2a83.748,83.748,0,0,1,2.3-8.6l-1.3-.4A1.755,1.755,0,0,1,64.3,24h0a1.755,1.755,0,0,1,2.2-1.1l1.4.4a74.139,74.139,0,0,1,4-8.6L70.7,14a1.709,1.709,0,0,1-.8-2.3h0a1.824,1.824,0,0,1,2.4-.8l1.5.8c.9-1.4,1.8-2.8,2.8-4.3a51.181,51.181,0,0,0-53.1,0c1,1.4,1.9,2.8,2.8,4.3l1.5-.8a1.824,1.824,0,0,1,2.4.8,1.681,1.681,0,0,1-.8,2.3h0l-1.3.7a67.163,67.163,0,0,1,4,8.6l1.4-.4a1.739,1.739,0,0,1,1.1,3.3h0l-1.3.4a83.748,83.748,0,0,1,2.3,8.6l1.2-.2a1.768,1.768,0,1,1,.5,3.5h0l-1.1.2a63.951,63.951,0,0,1,.8,8.7h1.5a1.844,1.844,0,0,1,1.8,1.7,1.685,1.685,0,0,1-1.7,1.7H37.2a72.841,72.841,0,0,1-.8,10.4l1.1.2a1.8,1.8,0,0,1,1.5,2h0a1.811,1.811,0,0,1-1.7,1.5H37l-1.1-.2a83.748,83.748,0,0,1-2.3,8.6l1.2.4A1.906,1.906,0,0,1,36,75.9a1.743,1.743,0,0,1-1.7,1.2,1.268,1.268,0,0,1-.6-.1l-1.3-.4c-1.2,2.9-2.5,5.8-4,8.6l1.3.6a1.709,1.709,0,0,1,.8,2.3h0a1.781,1.781,0,0,1-1.6,1,2.354,2.354,0,0,1-.8-.2l-1.4-.7c-.9,1.5-1.9,3-2.9,4.4a51.181,51.181,0,0,0,53.1,0c-1-1.4-2-2.9-2.9-4.4ZM81.1,11c-.8,1.1-1.6,2.3-2.3,3.5l1.1.5a1.709,1.709,0,0,1,.8,2.3h0a1.781,1.781,0,0,1-1.6,1,2.354,2.354,0,0,1-.8-.2L77,17.5a59.581,59.581,0,0,0-3.6,7.7l1.2.4a1.755,1.755,0,0,1,1.1,2.2A1.839,1.839,0,0,1,74,29a.749.749,0,0,1-.5-.1l-1.3-.4c-.8,2.5-1.5,5.1-2.1,7.7l1.5.2a1.716,1.716,0,0,1,1.4,2h0a1.811,1.811,0,0,1-1.7,1.5H71l-1.6-.3a66.751,66.751,0,0,0-.7,7.7h1.5A1.685,1.685,0,0,1,71.9,49a1.752,1.752,0,0,1-1.7,1.7H68.7a58.645,58.645,0,0,0,.8,9.4l1.6-.3a1.726,1.726,0,1,1,.6,3.4h0l-1.6.2a51.587,51.587,0,0,0,2.1,7.7l1.4-.4A1.739,1.739,0,0,1,74.7,74l-1.3.4A59.581,59.581,0,0,0,77,82.1l1.3-.7a1.722,1.722,0,1,1,1.5,3.1l-1.2.6c.8,1.3,1.6,2.5,2.4,3.7A49.743,49.743,0,0,0,89.2,19a51.124,51.124,0,0,0-8.1-8Z" transform="translate(0.012 0.025)" fill="#0b0539"/></svg>