<svg xmlns="http://www.w3.org/2000/svg" width="181" height="180.95" viewBox="0 0 181 180.95">
  <g id="ozelsporcu" transform="translate(-571.013 306)">
    <g id="Group_3393" data-name="Group 3393" transform="translate(-5701.464 -2702.821)">
      <g id="Group_3388" data-name="Group 3388">
        <g id="Group_3095" data-name="Group 3095">
          <path id="Path_10858" data-name="Path 10858" d="M6367.38,2537.079a.388.388,0,0,1,.429-.339l.015,0a22.786,22.786,0,0,0,5.729-.12c3.286-.364,6.521.561,6.408,4.75a.383.383,0,0,1-.394.371.34.34,0,0,1-.055,0c-.665-.119-2.318-.189-6.277.446C6368.654,2542.919,6367.011,2540.235,6367.38,2537.079Z" fill="#142266"/>
          <path id="Path_10859" data-name="Path 10859" d="M6363.8,2536.559a.388.388,0,0,0,.49.242l.01,0a22.746,22.746,0,0,1,5.632-1.056c3.291-.316,6.269-1.884,5.3-5.961a.384.384,0,0,0-.464-.283.523.523,0,0,0-.051.017c-.626.253-2.23.659-6.236.849C6363.854,2530.579,6362.795,2533.545,6363.8,2536.559Z" fill="#142266"/>
        </g>
        <g id="Group_3096" data-name="Group 3096">
          <path id="Path_10860" data-name="Path 10860" d="M6381.329,2534.719a.387.387,0,0,1,.349-.42h.016a22.754,22.754,0,0,0,5.579-1.308c3.138-1.039,6.5-.807,7.256,3.314a.384.384,0,0,1-.309.446l-.054.006c-.675.021-2.307.3-6.048,1.741C6383.792,2540.161,6381.628,2537.881,6381.329,2534.719Z" fill="#142266"/>
          <path id="Path_10861" data-name="Path 10861" d="M6377.722,2534.953a.387.387,0,0,0,.529.136l.013-.008a22.79,22.79,0,0,1,5.289-2.2c3.153-.993,5.74-3.146,3.945-6.933a.385.385,0,0,0-.512-.181.453.453,0,0,0-.047.027c-.56.378-2.044,1.109-5.923,2.127C6376.532,2529.095,6376.113,2532.214,6377.722,2534.953Z" fill="#142266"/>
        </g>
        <g id="Group_3097" data-name="Group 3097">
          <path id="Path_10862" data-name="Path 10862" d="M6394.486,2529.509a.387.387,0,0,1,.254-.484l.015,0a22.765,22.765,0,0,0,5.185-2.439c2.854-1.669,6.186-2.14,7.786,1.733a.384.384,0,0,1-.21.5.526.526,0,0,1-.051.017c-.656.161-2.194.77-5.553,2.96C6398.033,2534.324,6395.433,2532.54,6394.486,2529.509Z" fill="#142266"/>
          <path id="Path_10863" data-name="Path 10863" d="M6391,2530.489a.387.387,0,0,0,.546.023l.011-.011a22.711,22.711,0,0,1,4.716-3.255c2.877-1.627,4.96-4.271,2.417-7.6a.382.382,0,0,0-.537-.071.42.42,0,0,0-.041.037c-.469.486-1.769,1.51-5.351,3.312C6388.624,2525.006,6388.863,2528.144,6391,2530.489Z" fill="#142266"/>
        </g>
        <g id="Group_3098" data-name="Group 3098">
          <path id="Path_10864" data-name="Path 10864" d="M6406.274,2521.677a.387.387,0,0,1,.148-.526l.014-.007a22.746,22.746,0,0,0,4.564-3.464c2.444-2.226,5.6-3.379,7.976.076a.382.382,0,0,1-.1.532.275.275,0,0,1-.048.028c-.608.294-1.986,1.21-4.816,4.05C6410.739,2525.651,6407.833,2524.445,6406.274,2521.677Z" fill="#142266"/>
          <path id="Path_10865" data-name="Path 10865" d="M6403.073,2523.359a.386.386,0,0,0,.539-.088l.008-.012a22.741,22.741,0,0,1,3.936-4.164c2.476-2.19,3.964-5.209.784-7.938a.383.383,0,0,0-.54.042.378.378,0,0,0-.033.045c-.358.573-1.417,1.844-4.546,4.352C6399.6,2518.491,6400.489,2521.511,6403.073,2523.359Z" fill="#142266"/>
        </g>
        <g id="Group_3099" data-name="Group 3099">
          <path id="Path_10866" data-name="Path 10866" d="M6416.173,2511.567a.386.386,0,0,1,.035-.545l.012-.01a22.79,22.79,0,0,0,3.744-4.337c1.928-2.685,4.781-4.471,7.818-1.584a.383.383,0,0,1,.012.543.313.313,0,0,1-.04.036c-.533.414-1.692,1.6-3.869,4.963C6421.367,2514.524,6418.273,2513.95,6416.173,2511.567Z" fill="#142266"/>
          <path id="Path_10867" data-name="Path 10867" d="M6413.392,2513.877a.386.386,0,0,0,.508-.2l.006-.015a22.785,22.785,0,0,1,2.984-4.891c1.967-2.657,2.795-5.919-.883-7.928a.382.382,0,0,0-.52.154.5.5,0,0,0-.022.046c-.231.635-1,2.1-3.542,5.2C6408.986,2509.837,6410.476,2512.607,6413.392,2513.877Z" fill="#142266"/>
        </g>
        <g id="Group_3100" data-name="Group 3100">
          <path id="Path_10868" data-name="Path 10868" d="M6423.755,2499.623a.386.386,0,0,1-.079-.54l.01-.013a22.723,22.723,0,0,0,2.761-5.021c1.327-3.028,3.746-5.367,7.318-3.175a.383.383,0,0,1,.126.527c-.01.015-.021.03-.033.045-.436.516-1.323,1.913-2.753,5.659C6429.451,2501.433,6426.305,2501.514,6423.755,2499.623Z" fill="#142266"/>
          <path id="Path_10869" data-name="Path 10869" d="M6421.516,2502.457a.388.388,0,0,0,.456-.3l0-.015a22.753,22.753,0,0,1,1.9-5.4c1.371-3.008,1.5-6.37-2.513-7.57a.383.383,0,0,0-.476.258.469.469,0,0,0-.012.054c-.094.669-.544,2.261-2.382,5.825C6416.366,2499.422,6418.4,2501.82,6421.516,2502.457Z" fill="#142266"/>
        </g>
        <g id="Group_3101" data-name="Group 3101">
          <path id="Path_10870" data-name="Path 10870" d="M6428.687,2486.355a.385.385,0,0,1-.189-.511l.007-.015a22.745,22.745,0,0,0,1.656-5.486c.669-3.237,2.548-6.029,6.5-4.626a.383.383,0,0,1,.231.49.324.324,0,0,1-.022.05c-.319.6-.9,2.146-1.516,6.108C6434.636,2486.946,6431.575,2487.678,6428.687,2486.355Z" fill="#142266"/>
          <path id="Path_10871" data-name="Path 10871" d="M6427.086,2489.6a.387.387,0,0,0,.383-.39v-.016a22.808,22.808,0,0,1,.737-5.682c.716-3.227.145-6.544-4.032-6.883a.383.383,0,0,0-.411.354.239.239,0,0,0,0,.053c.047.674-.062,2.325-1.119,6.193C6421.418,2487.7,6423.91,2489.621,6427.086,2489.6Z" fill="#142266"/>
        </g>
        <g id="Group_3102" data-name="Group 3102">
          <path id="Path_10872" data-name="Path 10872" d="M6430.754,2472.356a.387.387,0,0,1-.292-.462l0-.015a22.7,22.7,0,0,0,.48-5.71c-.019-3.306,1.239-6.427,5.394-5.877a.383.383,0,0,1,.329.43.346.346,0,0,1-.012.055c-.188.649-.43,2.286-.213,6.29C6436.695,2471.7,6433.854,2473.049,6430.754,2472.356Z" fill="#142266"/>
          <path id="Path_10873" data-name="Path 10873" d="M6429.865,2475.859a.386.386,0,0,0,.293-.461l0-.015a22.726,22.726,0,0,1-.461-5.711c.029-3.306-1.219-6.431-5.375-5.894a.383.383,0,0,0-.329.431c0,.018.006.036.01.053.186.649.423,2.287.193,6.29C6423.923,2475.181,6426.76,2476.543,6429.865,2475.859Z" fill="#142266"/>
        </g>
        <g id="Group_3103" data-name="Group 3103">
          <path id="Path_10874" data-name="Path 10874" d="M6429.865,2458.234a.386.386,0,0,1-.38-.392v-.015a22.755,22.755,0,0,0-.718-5.685c-.706-3.229-.124-6.544,4.054-6.87a.383.383,0,0,1,.411.355.479.479,0,0,1,0,.053c-.049.674.054,2.325,1.1,6.2C6435.54,2456.353,6433.042,2458.268,6429.865,2458.234Z" fill="#142266"/>
          <path id="Path_10875" data-name="Path 10875" d="M6429.721,2461.846a.386.386,0,0,0,.191-.512l-.007-.014a22.791,22.791,0,0,1-1.639-5.49c-.658-3.24-2.529-6.037-6.483-4.648a.382.382,0,0,0-.233.488.39.39,0,0,0,.022.052c.317.6.889,2.149,1.5,6.113C6423.775,2462.421,6426.829,2463.16,6429.721,2461.846Z" fill="#142266"/>
        </g>
        <g id="Group_3104" data-name="Group 3104">
          <path id="Path_10876" data-name="Path 10876" d="M6426.059,2444.6a.386.386,0,0,1-.454-.3l0-.016a22.705,22.705,0,0,0-1.884-5.411c-1.362-3.012-1.482-6.375,2.537-7.562a.383.383,0,0,1,.476.259.342.342,0,0,1,.011.055c.092.669.536,2.263,2.364,5.833C6431.223,2441.586,6429.173,2443.978,6426.059,2444.6Z" fill="#142266"/>
          <path id="Path_10877" data-name="Path 10877" d="M6426.669,2448.168a.387.387,0,0,0,.082-.54l-.011-.013a22.8,22.8,0,0,1-2.744-5.03c-1.318-3.032-3.729-5.379-7.307-3.2a.384.384,0,0,0-.125.528c.01.015.02.03.031.044.434.517,1.317,1.917,2.734,5.668C6420.967,2449.964,6424.113,2450.054,6426.669,2448.168Z" fill="#142266"/>
        </g>
        <g id="Group_3105" data-name="Group 3105">
          <path id="Path_10878" data-name="Path 10878" d="M6419.5,2432.064a.386.386,0,0,1-.507-.2l-.006-.014a22.7,22.7,0,0,0-2.968-4.9c-1.958-2.663-2.775-5.928.91-7.925a.383.383,0,0,1,.52.157.319.319,0,0,1,.022.049c.229.635,1,2.1,3.524,5.214C6423.921,2428.038,6422.418,2430.8,6419.5,2432.064Z" fill="#142266"/>
          <path id="Path_10879" data-name="Path 10879" d="M6420.84,2435.423a.386.386,0,0,0-.034-.545l-.012-.01a22.8,22.8,0,0,1-3.73-4.35c-1.919-2.692-4.766-4.487-7.813-1.609a.385.385,0,0,0-.013.543.362.362,0,0,0,.039.036c.532.416,1.687,1.6,3.853,4.976C6415.636,2438.365,6418.732,2437.8,6420.84,2435.423Z" fill="#142266"/>
        </g>
        <g id="Group_3106" data-name="Group 3106">
          <path id="Path_10880" data-name="Path 10880" d="M6410.482,2421.16a.386.386,0,0,1-.538-.093l-.009-.013a22.735,22.735,0,0,0-3.922-4.177c-2.469-2.2-3.947-5.221-.758-7.94a.384.384,0,0,1,.541.045.294.294,0,0,1,.032.044c.356.574,1.411,1.849,4.531,4.367C6413.967,2416.3,6413.072,2419.32,6410.482,2421.16Z" fill="#142266"/>
          <path id="Path_10881" data-name="Path 10881" d="M6412.489,2424.172a.386.386,0,0,0-.146-.526l-.014-.007a22.741,22.741,0,0,1-4.553-3.479c-2.437-2.234-5.594-3.4-7.976.05a.383.383,0,0,0,.1.532c.016.011.032.02.048.029.608.3,1.983,1.216,4.8,4.066C6408.011,2428.127,6410.921,2426.93,6412.489,2424.172Z" fill="#142266"/>
        </g>
        <g id="Group_3107" data-name="Group 3107">
          <path id="Path_10882" data-name="Path 10882" d="M6399.393,2412.371a.386.386,0,0,1-.545.022l-.012-.011a22.726,22.726,0,0,0-4.7-3.271c-2.872-1.637-4.946-4.287-2.392-7.609a.384.384,0,0,1,.538-.069.354.354,0,0,1,.04.037c.468.487,1.764,1.516,5.34,3.329C6401.792,2406.9,6401.543,2410.033,6399.393,2412.371Z" fill="#142266"/>
          <path id="Path_10883" data-name="Path 10883" d="M6401.981,2414.9a.386.386,0,0,0-.252-.485l-.016,0a22.782,22.782,0,0,1-5.177-2.456c-2.848-1.678-6.178-2.16-7.792,1.708a.382.382,0,0,0,.208.5.418.418,0,0,0,.052.018c.655.163,2.192.777,5.544,2.978C6398.423,2419.7,6401.022,2417.924,6401.981,2414.9Z" fill="#142266"/>
        </g>
        <g id="Group_3108" data-name="Group 3108">
          <path id="Path_10884" data-name="Path 10884" d="M6386.716,2406.079a.385.385,0,0,1-.529.134l-.014-.008a22.71,22.71,0,0,0-5.282-2.221c-3.15-1-5.729-3.165-3.922-6.946a.384.384,0,0,1,.513-.179.324.324,0,0,1,.046.027c.559.379,2.041,1.116,5.916,2.146C6387.925,2400.225,6388.334,2403.345,6386.716,2406.079Z" fill="#142266"/>
          <path id="Path_10885" data-name="Path 10885" d="M6389.769,2408.011a.385.385,0,0,0-.347-.421h-.016a22.8,22.8,0,0,1-5.574-1.326c-3.135-1.05-6.493-.829-7.266,3.29a.385.385,0,0,0,.309.447l.053.006c.675.024,2.306.3,6.042,1.76C6387.292,2413.45,6389.469,2411.173,6389.769,2408.011Z" fill="#142266"/>
        </g>
        <g id="Group_3109" data-name="Group 3109">
          <path id="Path_10886" data-name="Path 10886" d="M6358.872,2537.079a.387.387,0,0,0-.428-.339l-.016,0a22.785,22.785,0,0,1-5.729-.12c-3.286-.364-6.521.561-6.408,4.75a.384.384,0,0,0,.4.371.339.339,0,0,0,.054,0c.665-.119,2.318-.189,6.277.446C6357.6,2542.919,6359.238,2540.235,6358.872,2537.079Z" fill="#142266"/>
          <path id="Path_10887" data-name="Path 10887" d="M6362.449,2536.559a.386.386,0,0,1-.489.242l-.011,0a22.729,22.729,0,0,0-5.632-1.056c-3.291-.316-6.269-1.884-5.3-5.961a.384.384,0,0,1,.464-.283.394.394,0,0,1,.051.017c.626.253,2.23.659,6.236.849C6362.4,2530.579,6363.453,2533.545,6362.449,2536.559Z" fill="#142266"/>
        </g>
        <g id="Group_3110" data-name="Group 3110">
          <path id="Path_10888" data-name="Path 10888" d="M6344.919,2534.719a.386.386,0,0,0-.349-.42h-.016a22.764,22.764,0,0,1-5.579-1.308c-3.138-1.039-6.5-.807-7.256,3.314a.385.385,0,0,0,.31.446l.053.006c.675.021,2.306.3,6.047,1.741C6342.456,2540.161,6344.621,2537.881,6344.919,2534.719Z" fill="#142266"/>
          <path id="Path_10889" data-name="Path 10889" d="M6348.527,2534.953a.386.386,0,0,1-.528.136l-.014-.008a22.755,22.755,0,0,0-5.289-2.2c-3.153-.993-5.74-3.146-3.945-6.933a.385.385,0,0,1,.512-.181.37.37,0,0,1,.047.027c.56.378,2.044,1.109,5.923,2.127C6349.716,2529.095,6350.135,2532.214,6348.527,2534.953Z" fill="#142266"/>
        </g>
        <g id="Group_3111" data-name="Group 3111">
          <path id="Path_10890" data-name="Path 10890" d="M6331.762,2529.509a.387.387,0,0,0-.253-.484l-.016,0a22.794,22.794,0,0,1-5.185-2.439c-2.854-1.669-6.186-2.14-7.786,1.733a.384.384,0,0,0,.211.5.435.435,0,0,0,.05.017c.656.161,2.194.77,5.553,2.96C6328.219,2534.324,6330.813,2532.54,6331.762,2529.509Z" fill="#142266"/>
          <path id="Path_10891" data-name="Path 10891" d="M6335.242,2530.489a.386.386,0,0,1-.545.023l-.012-.011a22.685,22.685,0,0,0-4.716-3.255c-2.877-1.627-4.96-4.271-2.417-7.6a.383.383,0,0,1,.537-.071.273.273,0,0,1,.041.037c.469.486,1.769,1.51,5.351,3.312C6337.627,2525.006,6337.385,2528.144,6335.242,2530.489Z" fill="#142266"/>
        </g>
        <g id="Group_3112" data-name="Group 3112">
          <path id="Path_10892" data-name="Path 10892" d="M6319.977,2521.677a.386.386,0,0,0-.148-.526l-.014-.007a22.8,22.8,0,0,1-4.564-3.464c-2.444-2.226-5.6-3.379-7.976.076a.383.383,0,0,0,.1.532.333.333,0,0,0,.047.028c.608.294,1.986,1.21,4.817,4.05C6315.511,2525.651,6318.421,2524.445,6319.977,2521.677Z" fill="#142266"/>
          <path id="Path_10893" data-name="Path 10893" d="M6323.177,2523.359a.385.385,0,0,1-.538-.088l-.009-.012a22.674,22.674,0,0,0-3.936-4.164c-2.476-2.19-3.964-5.209-.784-7.938a.382.382,0,0,1,.54.042.378.378,0,0,1,.033.045c.358.573,1.417,1.844,4.546,4.352C6326.646,2518.491,6325.76,2521.511,6323.177,2523.359Z" fill="#142266"/>
        </g>
        <g id="Group_3113" data-name="Group 3113">
          <path id="Path_10894" data-name="Path 10894" d="M6310.073,2511.567a.386.386,0,0,0-.035-.545l-.013-.01a22.832,22.832,0,0,1-3.744-4.337c-1.928-2.685-4.781-4.471-7.818-1.584a.384.384,0,0,0-.011.543.3.3,0,0,0,.039.036c.534.414,1.692,1.6,3.869,4.963C6304.881,2514.524,6307.973,2513.95,6310.073,2511.567Z" fill="#142266"/>
          <path id="Path_10895" data-name="Path 10895" d="M6312.857,2513.877a.386.386,0,0,1-.508-.2l-.006-.015a22.686,22.686,0,0,0-2.984-4.891c-1.967-2.657-2.794-5.919.884-7.928a.383.383,0,0,1,.521.154.489.489,0,0,1,.021.046c.231.635,1,2.1,3.541,5.2C6317.263,2509.837,6315.768,2512.607,6312.857,2513.877Z" fill="#142266"/>
        </g>
        <g id="Group_3114" data-name="Group 3114">
          <path id="Path_10896" data-name="Path 10896" d="M6302.493,2499.623a.385.385,0,0,0,.079-.54l-.01-.013a22.784,22.784,0,0,1-2.761-5.021c-1.328-3.028-3.746-5.367-7.318-3.175a.383.383,0,0,0-.125.527c.01.015.02.03.032.045.436.516,1.323,1.913,2.753,5.659C6296.793,2501.433,6299.944,2501.514,6302.493,2499.623Z" fill="#142266"/>
          <path id="Path_10897" data-name="Path 10897" d="M6304.733,2502.457a.387.387,0,0,1-.455-.3l0-.015a22.667,22.667,0,0,0-1.9-5.4c-1.371-3.008-1.5-6.37,2.513-7.57a.382.382,0,0,1,.476.258.225.225,0,0,1,.012.054c.094.669.544,2.261,2.383,5.825C6309.883,2499.422,6307.849,2501.82,6304.733,2502.457Z" fill="#142266"/>
        </g>
        <g id="Group_3115" data-name="Group 3115">
          <path id="Path_10898" data-name="Path 10898" d="M6297.562,2486.355a.385.385,0,0,0,.19-.511l-.008-.015a22.832,22.832,0,0,1-1.656-5.486c-.669-3.237-2.548-6.029-6.5-4.626a.383.383,0,0,0-.232.489.4.4,0,0,0,.022.051c.319.6.9,2.146,1.516,6.108C6291.613,2486.946,6294.676,2487.678,6297.562,2486.355Z" fill="#142266"/>
          <path id="Path_10899" data-name="Path 10899" d="M6299.164,2489.6a.386.386,0,0,1-.382-.39v-.016a22.762,22.762,0,0,0-.736-5.682c-.716-3.227-.146-6.544,4.031-6.883a.382.382,0,0,1,.412.352.258.258,0,0,1,0,.055c-.047.674.062,2.325,1.12,6.193C6304.831,2487.7,6302.339,2489.621,6299.164,2489.6Z" fill="#142266"/>
        </g>
        <g id="Group_3116" data-name="Group 3116">
          <path id="Path_10900" data-name="Path 10900" d="M6295.494,2472.356a.387.387,0,0,0,.292-.462l0-.015a22.768,22.768,0,0,1-.48-5.71c.019-3.306-1.239-6.427-5.394-5.877a.383.383,0,0,0-.328.43.345.345,0,0,0,.011.055c.188.649.43,2.286.213,6.29C6289.553,2471.7,6292.394,2473.049,6295.494,2472.356Z" fill="#142266"/>
          <path id="Path_10901" data-name="Path 10901" d="M6296.387,2475.859a.385.385,0,0,1-.292-.461l0-.015a22.772,22.772,0,0,0,.462-5.711c-.03-3.306,1.219-6.431,5.375-5.894a.383.383,0,0,1,.329.431.314.314,0,0,1-.011.053c-.186.649-.422,2.287-.193,6.29C6302.326,2475.181,6299.489,2476.543,6296.387,2475.859Z" fill="#142266"/>
        </g>
        <g id="Group_3117" data-name="Group 3117">
          <path id="Path_10902" data-name="Path 10902" d="M6296.381,2458.234a.386.386,0,0,0,.381-.392v-.015a22.778,22.778,0,0,1,.718-5.685c.706-3.229.124-6.544-4.054-6.87a.382.382,0,0,0-.41.353.342.342,0,0,0,0,.055c.049.674-.055,2.325-1.1,6.2C6290.71,2456.353,6293.208,2458.268,6296.381,2458.234Z" fill="#142266"/>
          <path id="Path_10903" data-name="Path 10903" d="M6296.529,2461.846a.387.387,0,0,1-.191-.512l.007-.014a22.7,22.7,0,0,0,1.639-5.49c.659-3.24,2.529-6.037,6.483-4.648a.383.383,0,0,1,.234.488c-.006.018-.014.035-.022.052-.317.6-.89,2.149-1.5,6.113C6302.479,2462.421,6299.421,2463.16,6296.529,2461.846Z" fill="#142266"/>
        </g>
        <g id="Group_3118" data-name="Group 3118">
          <path id="Path_10904" data-name="Path 10904" d="M6300.189,2444.6a.387.387,0,0,0,.455-.3l0-.016a22.79,22.79,0,0,1,1.884-5.411c1.362-3.012,1.482-6.375-2.537-7.562a.382.382,0,0,0-.475.259.5.5,0,0,0-.012.055c-.092.669-.536,2.263-2.364,5.833C6295.03,2441.586,6297.075,2443.978,6300.189,2444.6Z" fill="#142266"/>
          <path id="Path_10905" data-name="Path 10905" d="M6299.579,2448.168a.387.387,0,0,1-.081-.54l.01-.013a22.76,22.76,0,0,0,2.744-5.03c1.318-3.032,3.729-5.379,7.307-3.2a.382.382,0,0,1,.127.526.5.5,0,0,1-.033.046c-.434.517-1.316,1.917-2.734,5.668C6305.281,2449.964,6302.135,2450.054,6299.579,2448.168Z" fill="#142266"/>
        </g>
        <g id="Group_3119" data-name="Group 3119">
          <path id="Path_10906" data-name="Path 10906" d="M6306.746,2432.064a.386.386,0,0,0,.507-.2l.006-.014a22.743,22.743,0,0,1,2.968-4.9c1.958-2.663,2.775-5.928-.91-7.925a.386.386,0,0,0-.541.206c-.229.635-1,2.1-3.525,5.214C6302.327,2428.038,6303.83,2430.8,6306.746,2432.064Z" fill="#142266"/>
          <path id="Path_10907" data-name="Path 10907" d="M6305.408,2435.423a.387.387,0,0,1,.034-.545l.012-.01a22.762,22.762,0,0,0,3.73-4.35c1.919-2.692,4.766-4.487,7.813-1.609a.384.384,0,0,1,.013.543.326.326,0,0,1-.04.036c-.532.416-1.686,1.6-3.853,4.976C6310.612,2438.365,6307.516,2437.8,6305.408,2435.423Z" fill="#142266"/>
        </g>
        <g id="Group_3120" data-name="Group 3120">
          <path id="Path_10908" data-name="Path 10908" d="M6315.767,2421.16a.386.386,0,0,0,.538-.093l.009-.013a22.768,22.768,0,0,1,3.922-4.177c2.469-2.2,3.947-5.221.758-7.94a.384.384,0,0,0-.541.045c-.011.014-.022.028-.032.044-.355.574-1.411,1.849-4.532,4.367C6312.282,2416.3,6313.177,2419.32,6315.767,2421.16Z" fill="#142266"/>
          <path id="Path_10909" data-name="Path 10909" d="M6313.76,2424.172a.387.387,0,0,1,.147-.526l.013-.007a22.713,22.713,0,0,0,4.553-3.479c2.437-2.234,5.594-3.4,7.976.05a.384.384,0,0,1-.1.534.505.505,0,0,1-.047.027c-.607.3-1.983,1.216-4.8,4.066C6318.239,2428.127,6315.328,2426.93,6313.76,2424.172Z" fill="#142266"/>
        </g>
        <g id="Group_3121" data-name="Group 3121">
          <g id="Path_10910" data-name="Path 10910">
            <path id="Path_156" data-name="Path 156" d="M6326.857,2412.371a.388.388,0,0,0,.546.022l.011-.011a22.752,22.752,0,0,1,4.7-3.271c2.872-1.637,4.946-4.287,2.392-7.609a.383.383,0,0,0-.539-.067.328.328,0,0,0-.039.035c-.468.487-1.764,1.516-5.34,3.329C6324.458,2406.9,6324.706,2410.033,6326.857,2412.371Z" fill="#142266"/>
          </g>
          <path id="Path_10911" data-name="Path 10911" d="M6324.269,2414.9a.387.387,0,0,1,.252-.485l.016,0a22.743,22.743,0,0,0,5.177-2.456c2.848-1.678,6.179-2.16,7.792,1.708a.382.382,0,0,1-.207.5.406.406,0,0,1-.053.018c-.655.163-2.192.777-5.544,2.978C6327.826,2419.7,6325.228,2417.924,6324.269,2414.9Z" fill="#142266"/>
        </g>
        <g id="Group_3122" data-name="Group 3122">
          <path id="Path_10912" data-name="Path 10912" d="M6339.533,2406.079a.386.386,0,0,0,.529.134l.014-.008a22.727,22.727,0,0,1,5.282-2.221c3.15-1,5.729-3.165,3.922-6.946a.384.384,0,0,0-.513-.179.391.391,0,0,0-.046.027c-.559.379-2.041,1.116-5.916,2.146C6338.324,2400.225,6337.915,2403.345,6339.533,2406.079Z" fill="#142266"/>
          <path id="Path_10913" data-name="Path 10913" d="M6336.476,2408.011a.386.386,0,0,1,.348-.421h.016a22.772,22.772,0,0,0,5.574-1.326c3.135-1.05,6.493-.829,7.266,3.29a.383.383,0,0,1-.306.447l-.056.006c-.675.024-2.3.3-6.042,1.76C6338.957,2413.45,6336.784,2411.173,6336.476,2408.011Z" fill="#142266"/>
        </g>
      </g>
      <g id="Group_3389" data-name="Group 3389">
        <g id="Group_3124" data-name="Group 3124">
          <path id="Path_10914" data-name="Path 10914" d="M6362.978,2557.338l-76.12-77.573-2.5,10.058,78.62,80.121,78.621-80.121-2.5-10.058Z" fill="#e65416"/>
          <path id="Path_10915" data-name="Path 10915" d="M6439.1,2479.764l-2.833-11.4c-31.187-3.9-51.662-17.144-63.632-28.04a99.245,99.245,0,0,1-9.656-10.114,98.985,98.985,0,0,1-9.656,10.114c-11.969,10.9-32.443,24.144-63.631,28.04l-2.833,11.4,76.12,77.573Z" fill="#b5311b"/>
        </g>
        <path id="Path_10916" data-name="Path 10916" d="M6445.421,2458c-62.61-4.005-82.444-46.74-82.444-46.74s-19.835,42.735-82.444,46.74l-8.056,31.144,90.5,88.632,90.5-88.632Zm-161.066,31.828,5.334-21.457c31.188-3.9,51.662-17.144,63.632-28.04a98.985,98.985,0,0,0,9.656-10.114,99.245,99.245,0,0,0,9.656,10.114c11.97,10.9,32.444,24.144,63.632,28.04l5.334,21.457-78.621,80.121Z" fill="#142266"/>
      </g>
      <g id="Group_38" data-name="Group 38">
        <g id="Group_36" data-name="Group 36">
          <path id="Path_157" data-name="Path 157" d="M6355.776,2484.651a6.651,6.651,0,1,0,6.64-6.676A6.652,6.652,0,0,0,6355.776,2484.651Zm6.64,3.416a3.417,3.417,0,1,1,3.409-3.424v.008a3.412,3.412,0,0,1-3.409,3.415Z" fill="none" stroke="#142266" stroke-linecap="square" stroke-linejoin="bevel" stroke-width="13"/>
          <path id="Path_158" data-name="Path 158" d="M6362.416,2473.3l4.981-14.025h-9.938Z" fill="none" stroke="#142266" stroke-linecap="square" stroke-linejoin="bevel" stroke-width="13"/>
          <path id="Path_159" data-name="Path 159" d="M6388.666,2474.331l-6.707-11.011a8.268,8.268,0,0,0-7.65-4.046l-5.816,16.386.022.114a10.739,10.739,0,0,1,2.859,14.8l.019.1a10.812,10.812,0,1,1-15.014-15.014l-5.806-16.386a8.285,8.285,0,0,0-7.65,4.046l-6.707,11.011c2.267,2,2.375,5.484,1.323,12.362a7.281,7.281,0,0,1,2.311-.2,7,7,0,0,1,2.467,1.188l.023-.023v.045c3.028,2.406,4.778,13.351,4.846,17.057,2.714-.989,5.407-1.326,7.695.472,4.2,3.327,2.108,10.9.561,13.35a6.7,6.7,0,0,1-2.512,2.316h19.047a6.942,6.942,0,0,1-2.513-2.306c-1.569-2.5-3.656-10.07.516-13.373,2.311-1.8,4.98-1.512,7.717-.5.067-3.439,1.817-14.542,4.845-16.991v-.09l.045.068a6.8,6.8,0,0,1,2.109-1.124,6.175,6.175,0,0,1,2.647.108C6386.288,2479.86,6386.4,2476.4,6388.666,2474.331Z" fill="none" stroke="#142266" stroke-linecap="square" stroke-linejoin="bevel" stroke-width="13"/>
          <path id="Path_160" data-name="Path 160" d="M6362.416,2456.083a16.625,16.625,0,1,0-16.577-16.672v.039a16.6,16.6,0,0,0,16.573,16.633Z" fill="none" stroke="#142266" stroke-linecap="square" stroke-linejoin="bevel" stroke-width="13"/>
          <path id="Path_161" data-name="Path 161" d="M6335.882,2508c-3.477-4.9-3.41-4.833-6.594-9.979-3.029-5.619-6.327-12.407-7.829-18.723a65.981,65.981,0,0,1-1.413-17.825,92.192,92.192,0,0,1,1.619-13.732,59.124,59.124,0,0,0-3.163,13.576,65.059,65.059,0,0,0,.291,17.959,90.293,90.293,0,0,0,6.574,20.746c2.871,5.709,3.454,6.338,6.236,11.351a110.7,110.7,0,0,0,7.291,9.709c-5.406-1.753-6.261,6.693-3.433,8.923,2.625,2.046,7.426-.382,8.345-1.888.965-1.483-.2-3.955-2.4-5.708a3.121,3.121,0,0,0,2.267-.854,3.31,3.31,0,0,0,.158-4.563C6335.138,2507.621,6338.211,2511.06,6335.882,2508Z" fill="none" stroke="#142266" stroke-linecap="square" stroke-linejoin="bevel" stroke-width="13"/>
          <path id="Path_162" data-name="Path 162" d="M6323.338,2445.2c1.661.607,3.7-.764,4.778-3.011.92-2.267,3.209-8.789,1.862-9.8-1.525-1.08-6.594,4.472-7.672,7.079C6321.092,2441.99,6321.679,2444.573,6323.338,2445.2Z" fill="none" stroke="#142266" stroke-linecap="square" stroke-linejoin="bevel" stroke-width="13"/>
          <path id="Path_163" data-name="Path 163" d="M6324.258,2450.238a4.839,4.839,0,0,0-.9.584,5.492,5.492,0,0,0-1.458,6.226,3.049,3.049,0,0,0,.647.832,2.62,2.62,0,0,0,3.7.111c.045-.043.089-.087.132-.133,1.458-1.484,5-6.046,4.419-7.889C6330.247,2448.283,6326.412,2449.044,6324.258,2450.238Z" fill="none" stroke="#142266" stroke-linecap="square" stroke-linejoin="bevel" stroke-width="13"/>
          <path id="Path_164" data-name="Path 164" d="M6352.188,2508.634c-1.62-1.259-5.99,1.034-7.224,2.315-1.211,1.282-.718,3.731,1.279,5.3s4.534,1.511,5.495.023C6352.7,2514.747,6353.8,2509.892,6352.188,2508.634Z" fill="none" stroke="#142266" stroke-linecap="square" stroke-linejoin="bevel" stroke-width="13"/>
          <path id="Path_165" data-name="Path 165" d="M6326.882,2474.2c.92-1.889,4.554-9.194,3.59-10.632-1.145-1.753-7.269,3.012-8.435,4.923C6319.076,2472.464,6324.079,2478.6,6326.882,2474.2Z" fill="none" stroke="#142266" stroke-linecap="square" stroke-linejoin="bevel" stroke-width="13"/>
          <path id="Path_166" data-name="Path 166" d="M6325.38,2485.459a5.829,5.829,0,0,0,2.355,6.653,3.173,3.173,0,0,0,4.845-2.068c.36-2.383,2.176-11.329.695-12.542C6331.485,2475.952,6326.052,2482.964,6325.38,2485.459Z" fill="none" stroke="#142266" stroke-linecap="square" stroke-linejoin="bevel" stroke-width="13"/>
          <path id="Path_167" data-name="Path 167" d="M6338.367,2508.7c2.782.586,4.622-1.371,4.487-4-.56-2.742-1.592-12.991-3.521-13.778-2.468-1.1-6.125,8.271-5.968,11.306A6.715,6.715,0,0,0,6338.367,2508.7Z" fill="none" stroke="#142266" stroke-linecap="square" stroke-linejoin="bevel" stroke-width="13"/>
          <path id="Path_168" data-name="Path 168" d="M6317.775,2456.173a7.1,7.1,0,0,0,1.548-6.586c-.74-2.068-3.544-6.989-5.406-5.484-2,1.6-1.638,9.148-.606,11.261C6314.186,2457.544,6316.227,2457.768,6317.775,2456.173Z" fill="none" stroke="#142266" stroke-linecap="square" stroke-linejoin="bevel" stroke-width="13"/>
          <path id="Path_169" data-name="Path 169" d="M6316.478,2475.254a7.113,7.113,0,0,0-.359-6.765c-1.368-1.664-6.55-8.788-7.941-6.946-1.681,2.136,2.086,12.523,3.769,14.16C6313.422,2477.591,6315.441,2477.233,6316.478,2475.254Z" fill="none" stroke="#142266" stroke-linecap="square" stroke-linejoin="bevel" stroke-width="13"/>
          <path id="Path_170" data-name="Path 170" d="M6315.822,2497.17c2.289,1.619,4.375.517,4.847-2.046a8.574,8.574,0,0,0-2.648-7.484c-2.085-1.416-10.071-7.845-11.037-5.349C6305.705,2485.257,6313.333,2495.889,6315.822,2497.17Z" fill="none" stroke="#142266" stroke-linecap="square" stroke-linejoin="bevel" stroke-width="13"/>
          <path id="Path_171" data-name="Path 171" d="M6326.726,2506.678c-2.782-.787-13.684-5.4-13.909-2.292-.426,3.778,11.8,13.126,15.076,13.62,3.14.989,4.98-.989,4.486-4A10.414,10.414,0,0,0,6326.726,2506.678Z" fill="none" stroke="#142266" stroke-linecap="square" stroke-linejoin="bevel" stroke-width="13"/>
          <path id="Path_172" data-name="Path 172" d="M6385.949,2521.085a96.531,96.531,0,0,0,13.528-21.061,90.218,90.218,0,0,0,6.573-20.746,65.133,65.133,0,0,0,.584-15.1,61.926,61.926,0,0,0-3.432-16.43,90.712,90.712,0,0,1,1.682,16.5,62.824,62.824,0,0,1-1.48,15.059c-1.638,6.855-4.868,13.239-7.829,18.724-7.358,11.89-8.277,12.205-14.582,18.948a3.309,3.309,0,0,0,.158,4.563,3.117,3.117,0,0,0,2.267.854c-2.2,1.753-3.365,4.225-2.4,5.709.942,1.506,5.743,3.934,8.344,1.889s1.347-7.26.109-8.519C6388.708,2520.657,6387.385,2520.612,6385.949,2521.085Z" fill="none" stroke="#142266" stroke-linecap="square" stroke-linejoin="bevel" stroke-width="13"/>
          <path id="Path_173" data-name="Path 173" d="M6401.517,2445.2c1.66-.606,2.243-3.213,1.054-5.731-1.079-2.607-6.146-8.159-7.672-7.079-1.346,1.034.943,7.556,1.863,9.8C6397.793,2444.439,6399.835,2445.81,6401.517,2445.2Z" fill="none" stroke="#142266" stroke-linecap="square" stroke-linejoin="bevel" stroke-width="13"/>
          <path id="Path_174" data-name="Path 174" d="M6402.954,2457.049a5.528,5.528,0,0,0-1.459-6.225c-1.619-1.371-6.775-2.855-7.425-.833-.6,1.843,2.939,6.406,4.42,7.889a2.725,2.725,0,0,0,4.464-.831Z" fill="none" stroke="#142266" stroke-linecap="square" stroke-linejoin="bevel" stroke-width="13"/>
          <path id="Path_175" data-name="Path 175" d="M6379.893,2510.926c-1.234-1.281-5.631-3.551-7.246-2.315-1.594,1.281-.493,6.113.448,7.619.965,1.512,3.5,1.551,5.5-.023C6380.609,2514.657,6381.1,2512.231,6379.893,2510.926Z" fill="none" stroke="#142266" stroke-linecap="square" stroke-linejoin="bevel" stroke-width="13"/>
          <path id="Path_176" data-name="Path 176" d="M6394.384,2463.567c-.965,1.461,2.67,8.766,3.589,10.632a2.722,2.722,0,0,0,4.534.45,5.5,5.5,0,0,0,.336-6.181C6401.653,2466.579,6395.528,2461.814,6394.384,2463.567Z" fill="none" stroke="#142266" stroke-linecap="square" stroke-linejoin="bevel" stroke-width="13"/>
          <path id="Path_177" data-name="Path 177" d="M6397.121,2492.112a5.829,5.829,0,0,0,2.355-6.653c-.7-2.517-6.1-9.507-7.9-7.956-1.481,1.213.336,10.182.695,12.565a3.17,3.17,0,0,0,4.846,2.044Z" fill="none" stroke="#142266" stroke-linecap="square" stroke-linejoin="bevel" stroke-width="13"/>
          <path id="Path_178" data-name="Path 178" d="M6385.522,2490.922c-1.929.787-2.961,11.036-3.522,13.778-.135,2.629,1.706,4.586,4.487,4a6.741,6.741,0,0,0,5-6.477C6391.669,2499.193,6387.99,2489.821,6385.522,2490.922Z" fill="none" stroke="#142266" stroke-linecap="square" stroke-linejoin="bevel" stroke-width="13"/>
          <path id="Path_179" data-name="Path 179" d="M6411.545,2455.566c1.009-2.113,1.39-9.665-.607-11.261-1.862-1.511-4.666,3.417-5.407,5.484a7.1,7.1,0,0,0,1.549,6.585C6408.628,2457.994,6410.647,2457.769,6411.545,2455.566Z" fill="none" stroke="#142266" stroke-linecap="square" stroke-linejoin="bevel" stroke-width="13"/>
          <path id="Path_180" data-name="Path 180" d="M6408.36,2475.255c1.032,1.978,3.051,2.316,4.509.472,1.683-1.641,5.452-12.025,3.769-14.16-1.392-1.843-6.551,5.282-7.941,6.946A7.187,7.187,0,0,0,6408.36,2475.255Z" fill="none" stroke="#142266" stroke-linecap="square" stroke-linejoin="bevel" stroke-width="13"/>
          <path id="Path_181" data-name="Path 181" d="M6404.188,2495.124c.471,2.586,2.557,3.664,4.846,2.046,2.489-1.281,10.117-11.913,8.86-14.879-.965-2.5-8.951,3.934-11.037,5.349A8.544,8.544,0,0,0,6404.188,2495.124Z" fill="none" stroke="#142266" stroke-linecap="square" stroke-linejoin="bevel" stroke-width="13"/>
          <path id="Path_182" data-name="Path 182" d="M6398.129,2506.677a10.358,10.358,0,0,0-5.652,7.328c-.494,3.012,1.346,4.966,4.486,4,3.275-.494,15.5-9.844,15.076-13.62C6411.814,2501.306,6400.912,2505.89,6398.129,2506.677Z" fill="none" stroke="#142266" stroke-linecap="square" stroke-linejoin="bevel" stroke-width="13"/>
        </g>
        <g id="Group_37" data-name="Group 37">
          <path id="Path_183" data-name="Path 183" d="M6355.776,2484.651a6.651,6.651,0,1,0,6.64-6.676A6.652,6.652,0,0,0,6355.776,2484.651Zm6.64,3.416a3.417,3.417,0,1,1,3.409-3.424v.008a3.412,3.412,0,0,1-3.409,3.415Z" fill="#e65416"/>
          <path id="Path_184" data-name="Path 184" d="M6362.416,2473.3l4.981-14.025h-9.938Z" fill="#e65416"/>
          <path id="Path_185" data-name="Path 185" d="M6388.666,2474.331l-6.707-11.011a8.268,8.268,0,0,0-7.65-4.046l-5.816,16.386.022.114a10.739,10.739,0,0,1,2.859,14.8l.019.1a10.812,10.812,0,1,1-15.014-15.014l-5.806-16.386a8.285,8.285,0,0,0-7.65,4.046l-6.707,11.011c2.267,2,2.375,5.484,1.323,12.362a7.281,7.281,0,0,1,2.311-.2,7,7,0,0,1,2.467,1.188l.023-.023v.045c3.028,2.406,4.778,13.351,4.846,17.057,2.714-.989,5.407-1.326,7.695.472,4.2,3.327,2.108,10.9.561,13.35a6.7,6.7,0,0,1-2.512,2.316h19.047a6.942,6.942,0,0,1-2.513-2.306c-1.569-2.5-3.656-10.07.516-13.373,2.311-1.8,4.98-1.512,7.717-.5.067-3.439,1.817-14.542,4.845-16.991v-.09l.045.068a6.8,6.8,0,0,1,2.109-1.124,6.175,6.175,0,0,1,2.647.108C6386.288,2479.86,6386.4,2476.4,6388.666,2474.331Z" fill="#e65416"/>
          <path id="Path_186" data-name="Path 186" d="M6362.416,2456.083a16.625,16.625,0,1,0-16.577-16.672v.039a16.6,16.6,0,0,0,16.573,16.633Z" fill="#e65416"/>
          <path id="Path_187" data-name="Path 187" d="M6335.882,2508c-3.477-4.9-3.41-4.833-6.594-9.979-3.029-5.619-6.327-12.407-7.829-18.723a65.981,65.981,0,0,1-1.413-17.825,92.192,92.192,0,0,1,1.619-13.732,59.124,59.124,0,0,0-3.163,13.576,65.059,65.059,0,0,0,.291,17.959,90.293,90.293,0,0,0,6.574,20.746c2.871,5.709,3.454,6.338,6.236,11.351a110.7,110.7,0,0,0,7.291,9.709c-5.406-1.753-6.261,6.693-3.433,8.923,2.625,2.046,7.426-.382,8.345-1.888.965-1.483-.2-3.955-2.4-5.708a3.121,3.121,0,0,0,2.267-.854,3.31,3.31,0,0,0,.158-4.563C6335.138,2507.621,6338.211,2511.06,6335.882,2508Z" fill="#e65416"/>
          <path id="Path_188" data-name="Path 188" d="M6323.338,2445.2c1.661.607,3.7-.764,4.778-3.011.92-2.267,3.209-8.789,1.862-9.8-1.525-1.08-6.594,4.472-7.672,7.079C6321.092,2441.99,6321.679,2444.573,6323.338,2445.2Z" fill="#e65416"/>
          <path id="Path_189" data-name="Path 189" d="M6324.258,2450.238a4.839,4.839,0,0,0-.9.584,5.492,5.492,0,0,0-1.458,6.226,3.049,3.049,0,0,0,.647.832,2.62,2.62,0,0,0,3.7.111c.045-.043.089-.087.132-.133,1.458-1.484,5-6.046,4.419-7.889C6330.247,2448.283,6326.412,2449.044,6324.258,2450.238Z" fill="#e65416"/>
          <path id="Path_190" data-name="Path 190" d="M6352.188,2508.634c-1.62-1.259-5.99,1.034-7.224,2.315-1.211,1.282-.718,3.731,1.279,5.3s4.534,1.511,5.495.023C6352.7,2514.747,6353.8,2509.892,6352.188,2508.634Z" fill="#e65416"/>
          <path id="Path_191" data-name="Path 191" d="M6326.882,2474.2c.92-1.889,4.554-9.194,3.59-10.632-1.145-1.753-7.269,3.012-8.435,4.923C6319.076,2472.464,6324.079,2478.6,6326.882,2474.2Z" fill="#e65416"/>
          <path id="Path_192" data-name="Path 192" d="M6325.38,2485.459a5.829,5.829,0,0,0,2.355,6.653,3.173,3.173,0,0,0,4.845-2.068c.36-2.383,2.176-11.329.695-12.542C6331.485,2475.952,6326.052,2482.964,6325.38,2485.459Z" fill="#e65416"/>
          <path id="Path_193" data-name="Path 193" d="M6338.367,2508.7c2.782.586,4.622-1.371,4.487-4-.56-2.742-1.592-12.991-3.521-13.778-2.468-1.1-6.125,8.271-5.968,11.306A6.715,6.715,0,0,0,6338.367,2508.7Z" fill="#e65416"/>
          <path id="Path_194" data-name="Path 194" d="M6317.775,2456.173a7.1,7.1,0,0,0,1.548-6.586c-.74-2.068-3.544-6.989-5.406-5.484-2,1.6-1.638,9.148-.606,11.261C6314.186,2457.544,6316.227,2457.768,6317.775,2456.173Z" fill="#e65416"/>
          <path id="Path_195" data-name="Path 195" d="M6316.478,2475.254a7.113,7.113,0,0,0-.359-6.765c-1.368-1.664-6.55-8.788-7.941-6.946-1.681,2.136,2.086,12.523,3.769,14.16C6313.422,2477.591,6315.441,2477.233,6316.478,2475.254Z" fill="#e65416"/>
          <path id="Path_196" data-name="Path 196" d="M6315.822,2497.17c2.289,1.619,4.375.517,4.847-2.046a8.574,8.574,0,0,0-2.648-7.484c-2.085-1.416-10.071-7.845-11.037-5.349C6305.705,2485.257,6313.333,2495.889,6315.822,2497.17Z" fill="#e65416"/>
          <path id="Path_197" data-name="Path 197" d="M6326.726,2506.678c-2.782-.787-13.684-5.4-13.909-2.292-.426,3.778,11.8,13.126,15.076,13.62,3.14.989,4.98-.989,4.486-4A10.414,10.414,0,0,0,6326.726,2506.678Z" fill="#e65416"/>
          <path id="Path_198" data-name="Path 198" d="M6385.949,2521.085a96.531,96.531,0,0,0,13.528-21.061,90.218,90.218,0,0,0,6.573-20.746,65.133,65.133,0,0,0,.584-15.1,61.926,61.926,0,0,0-3.432-16.43,90.712,90.712,0,0,1,1.682,16.5,62.824,62.824,0,0,1-1.48,15.059c-1.638,6.855-4.868,13.239-7.829,18.724-7.358,11.89-8.277,12.205-14.582,18.948a3.309,3.309,0,0,0,.158,4.563,3.117,3.117,0,0,0,2.267.854c-2.2,1.753-3.365,4.225-2.4,5.709.942,1.506,5.743,3.934,8.344,1.889s1.347-7.26.109-8.519C6388.708,2520.657,6387.385,2520.612,6385.949,2521.085Z" fill="#e65416"/>
          <path id="Path_199" data-name="Path 199" d="M6401.517,2445.2c1.66-.606,2.243-3.213,1.054-5.731-1.079-2.607-6.146-8.159-7.672-7.079-1.346,1.034.943,7.556,1.863,9.8C6397.793,2444.439,6399.835,2445.81,6401.517,2445.2Z" fill="#e65416"/>
          <path id="Path_200" data-name="Path 200" d="M6402.954,2457.049a5.528,5.528,0,0,0-1.459-6.225c-1.619-1.371-6.775-2.855-7.425-.833-.6,1.843,2.939,6.406,4.42,7.889a2.725,2.725,0,0,0,4.464-.831Z" fill="#e65416"/>
          <path id="Path_201" data-name="Path 201" d="M6379.893,2510.926c-1.234-1.281-5.631-3.551-7.246-2.315-1.594,1.281-.493,6.113.448,7.619.965,1.512,3.5,1.551,5.5-.023C6380.609,2514.657,6381.1,2512.231,6379.893,2510.926Z" fill="#e65416"/>
          <path id="Path_202" data-name="Path 202" d="M6394.384,2463.567c-.965,1.461,2.67,8.766,3.589,10.632a2.722,2.722,0,0,0,4.534.45,5.5,5.5,0,0,0,.336-6.181C6401.653,2466.579,6395.528,2461.814,6394.384,2463.567Z" fill="#e65416"/>
          <path id="Path_203" data-name="Path 203" d="M6397.121,2492.112a5.829,5.829,0,0,0,2.355-6.653c-.7-2.517-6.1-9.507-7.9-7.956-1.481,1.213.336,10.182.695,12.565a3.17,3.17,0,0,0,4.846,2.044Z" fill="#e65416"/>
          <path id="Path_204" data-name="Path 204" d="M6385.522,2490.922c-1.929.787-2.961,11.036-3.522,13.778-.135,2.629,1.706,4.586,4.487,4a6.741,6.741,0,0,0,5-6.477C6391.669,2499.193,6387.99,2489.821,6385.522,2490.922Z" fill="#e65416"/>
          <path id="Path_205" data-name="Path 205" d="M6411.545,2455.566c1.009-2.113,1.39-9.665-.607-11.261-1.862-1.511-4.666,3.417-5.407,5.484a7.1,7.1,0,0,0,1.549,6.585C6408.628,2457.994,6410.647,2457.769,6411.545,2455.566Z" fill="#e65416"/>
          <path id="Path_206" data-name="Path 206" d="M6408.36,2475.255c1.032,1.978,3.051,2.316,4.509.472,1.683-1.641,5.452-12.025,3.769-14.16-1.392-1.843-6.551,5.282-7.941,6.946A7.187,7.187,0,0,0,6408.36,2475.255Z" fill="#e65416"/>
          <path id="Path_207" data-name="Path 207" d="M6404.188,2495.124c.471,2.586,2.557,3.664,4.846,2.046,2.489-1.281,10.117-11.913,8.86-14.879-.965-2.5-8.951,3.934-11.037,5.349A8.544,8.544,0,0,0,6404.188,2495.124Z" fill="#e65416"/>
          <path id="Path_208" data-name="Path 208" d="M6398.129,2506.677a10.358,10.358,0,0,0-5.652,7.328c-.494,3.012,1.346,4.966,4.486,4,3.275-.494,15.5-9.844,15.076-13.62C6411.814,2501.306,6400.912,2505.89,6398.129,2506.677Z" fill="#e65416"/>
        </g>
      </g>
      <g id="Group_3391" data-name="Group 3391">
        <ellipse id="Ellipse_224" data-name="Ellipse 224" cx="17.219" cy="9.559" rx="17.219" ry="9.559" transform="translate(6415.938 2543.767)" fill="#142266"/>
        <ellipse id="Ellipse_225" data-name="Ellipse 225" cx="17.219" cy="9.559" rx="17.219" ry="9.559" transform="translate(6275.523 2543.767)" fill="#142266"/>
        <ellipse id="Ellipse_226" data-name="Ellipse 226" cx="10.228" cy="5.678" rx="10.228" ry="5.678" transform="translate(6285.86 2548.554)" fill="#dc2648"/>
        <ellipse id="Ellipse_227" data-name="Ellipse 227" cx="10.228" cy="5.678" rx="10.228" ry="5.678" transform="translate(6419.584 2548.554)" fill="#dc2648"/>
        <path id="Path_10918" data-name="Path 10918" d="M6362.833,2521.148c-27.589,0-55.178,5.5-82.768,6.093a4.806,4.806,0,0,0-4.7,4.811v19.99a5.886,5.886,0,0,0,5.881,5.893l.155,0c27.142-.735,54.285-6.06,81.427-6.06s54.285,5.326,81.427,6.06a5.888,5.888,0,0,0,6.034-5.736c0-.052,0-.1,0-.155v-19.99a4.806,4.806,0,0,0-4.695-4.811C6418.011,2526.65,6390.422,2521.148,6362.833,2521.148Z" fill="#142266"/>
        <g id="Group_41" data-name="Group 41">
          <g id="Group_40" data-name="Group 40">
            <g id="Group_39" data-name="Group 39">
              <path id="Path_209" data-name="Path 209" d="M6305.41,2547.053q-2.064.207-4.127.426-1.269-1.021-2.546-2.037-.553-5.016-1.108-10.032,1.044-1.273,2.1-2.542,2.112-.225,4.224-.436,1.3,1.026,2.589,2.058.481,5.024.966,10.046Q6306.453,2545.793,6305.41,2547.053Zm-4.964-18.086c.075.7.147,1.4.221,2.1q-1.083.114-2.166.231-.113-1.051-.228-2.1Q6299.359,2529.081,6300.446,2528.967Zm4.143,14.57-.756-7.513c-.295-.232-.593-.462-.89-.693q-.81.082-1.621.167c-.25.294-.5.587-.746.881q.4,3.746.793,7.49l.9.708q.8-.084,1.6-.165C6304.109,2544.12,6304.35,2543.828,6304.589,2543.537Zm.05-15q.1,1.053.206,2.1-1.082.107-2.165.217-.107-1.053-.214-2.1Q6303.553,2528.649,6304.639,2528.541Z" fill="#fff"/>
              <path id="Path_210" data-name="Path 210" d="M6316.725,2534.1q-2.12,4.748-4.167,9.509,2.41-.211,4.82-.405.113,1.378.221,2.756-4.013.321-8.022.695-.1-1.378-.2-2.758,2.032-4.773,4.139-9.532-2.523.213-5.041.449-.129-1.4-.26-2.79,4.143-.386,8.287-.717Q6316.614,2532.7,6316.725,2534.1Z" fill="#fff"/>
              <path id="Path_211" data-name="Path 211" d="M6328.281,2545.193q-4.378.274-8.754.612-.564-7.326-1.128-14.651,4.479-.344,8.961-.627.087,1.389.175,2.778-3.044.192-6.087.412.115,1.582.229,3.165,1.412-.1,2.822-.2l.189,2.775q-1.406.1-2.81.2.116,1.584.23,3.165,3-.218,6-.406Q6328.194,2543.8,6328.281,2545.193Z" fill="#fff"/>
              <path id="Path_212" data-name="Path 212" d="M6337.152,2544.7q-3.507.17-7.015.38-.438-7.335-.877-14.668,1.425-.085,2.849-.164.329,5.946.658,11.893,2.125-.117,4.251-.221Q6337.084,2543.309,6337.152,2544.7Z" fill="#fff"/>
              <path id="Path_213" data-name="Path 213" d="M6352.364,2541.846q-1.129,1.178-2.249,2.36-2.079.057-4.16.128-1.191-1.11-2.391-2.215-.045-1.168-.088-2.336,1.4-.054,2.806-.1c.012.353.023.705.036,1.057.276.257.554.514.829.771l1.6-.05.8-.821q-.023-.789-.045-1.576l-.848-.774q-1.445.042-2.888.092-1.214-1.118-2.433-2.231-.078-2.058-.156-4.117,1.131-1.194,2.27-2.384,2.128-.073,4.258-.132,1.211,1.117,2.413,2.239.029,1.159.056,2.319-1.406.033-2.812.073c-.011-.352-.02-.7-.03-1.057l-.855-.755c-.543.017-1.085.033-1.628.051-.264.275-.525.549-.788.824q.026.779.052,1.558.42.394.838.789,1.46-.047,2.919-.087,1.2,1.116,2.391,2.238Q6352.314,2539.777,6352.364,2541.846Z" fill="#fff"/>
              <path id="Path_214" data-name="Path 214" d="M6360.684,2538.51q-1.856.021-3.711.051.046,2.745.091,5.491-1.394.022-2.787.052-.155-7.345-.308-14.69,3.307-.071,6.617-.1,1.191,1.139,2.375,2.28.015,2.29.032,4.583Q6361.834,2537.339,6360.684,2538.51Zm-.508-3.574-.024-2.06-.841-.769q-1.222.015-2.443.036.03,1.818.059,3.636,1.215-.019,2.429-.035Q6359.764,2535.339,6360.176,2534.936Z" fill="#fff"/>
              <path id="Path_215" data-name="Path 215" d="M6371.352,2543.98q-2.071-.014-4.143-.012-1.154-1.151-2.313-2.3-.021-5.046-.04-10.092,1.172-1.155,2.35-2.306,2.121,0,4.241.014,1.181,1.156,2.354,2.32-.051,5.046-.1,10.092Q6372.521,2542.838,6371.352,2543.98Zm-.443-3.583q.021-3.776.043-7.551l-.81-.783q-.814,0-1.629,0-.419.4-.833.8,0,3.766-.005,7.532l.821.8,1.6,0Q6370.5,2540.794,6370.909,2540.4Z" fill="#fff"/>
              <path id="Path_216" data-name="Path 216" d="M6382.428,2537.9q.8,3.147,1.6,6.295-1.449-.037-2.9-.071-.759-3-1.537-5.989l-1.163-.022q-.052,2.978-.1,5.955-1.393-.024-2.787-.042.1-7.347.194-14.693,3.309.043,6.617.121,1.161,1.178,2.314,2.36-.057,2.06-.112,4.118Q6383.485,2536.911,6382.428,2537.9Zm-.675-3.319q.018-.787.036-1.576l-.815-.8q-1.221-.025-2.443-.048-.028,1.585-.056,3.173,1.215.021,2.431.047Z" fill="#fff"/>
              <path id="Path_217" data-name="Path 217" d="M6395.065,2542.282q-1.217,1.1-2.423,2.2-2.081-.084-4.16-.155-1.111-1.189-2.233-2.374.153-5.044.305-10.088,1.208-1.114,2.427-2.224,2.128.072,4.258.159,1.142,1.2,2.274,2.4c-.034.779-.07,1.557-.1,2.336q-1.415-.063-2.83-.119c.015-.353.028-.705.043-1.057q-.4-.415-.8-.83-.813-.031-1.628-.06c-.28.255-.561.511-.841.768q-.13,3.764-.262,7.528.389.413.775.826l1.6.059.853-.765c.014-.352.027-.7.042-1.057q1.4.057,2.806.119Q6395.116,2541.114,6395.065,2542.282Z" fill="#fff"/>
              <path id="Path_218" data-name="Path 218" d="M6405.721,2542.847q-1.225,1.077-2.443,2.159-2.077-.12-4.156-.226-1.092-1.207-2.193-2.412.292-6.19.586-12.38,1.426.067,2.851.142-.289,5.55-.576,11.1l.76.839c.534.028,1.07.058,1.6.088l.847-.752.633-11.095q1.424.081,2.848.169Q6406.1,2536.662,6405.721,2542.847Z" fill="#fff"/>
              <path id="Path_219" data-name="Path 219" d="M6414.446,2545.752q-3.5-.266-7.011-.492.472-7.332.946-14.663,1.425.092,2.849.19-.409,5.941-.82,11.882,2.124.147,4.246.308Q6414.551,2544.365,6414.446,2545.752Z" fill="#fff"/>
              <path id="Path_220" data-name="Path 220" d="M6422.212,2546.39c-.032-.344-.064-.688-.095-1.033q-1.356-.118-2.711-.232c-.095.333-.192.666-.288,1q-1.41-.117-2.818-.228,2.032-7.21,4.134-14.407,1.507.126,3.016.259.842,7.451,1.614,14.9Q6423.637,2546.517,6422.212,2546.39Zm-.412-3.836q-.225-2.04-.457-4.079-.574,1.969-1.146,3.942Z" fill="#fff"/>
              <path id="Path_221" data-name="Path 221" d="M6434.3,2541.29q.546,3.2,1.074,6.406-1.443-.159-2.885-.31-.513-3.049-1.04-6.1c-.387-.04-.773-.08-1.159-.118q-.3,2.962-.6,5.926-1.389-.14-2.778-.273.7-7.314,1.406-14.627,3.3.315,6.593.668,1.062,1.27,2.115,2.544-.228,2.046-.452,4.094Q6435.437,2540.395,6434.3,2541.29Zm-.4-3.363q.084-.784.166-1.569l-.747-.862q-1.217-.126-2.434-.249-.157,1.578-.317,3.157,1.211.122,2.421.248Q6433.445,2538.289,6433.9,2537.927Z" fill="#fff"/>
            </g>
          </g>
        </g>
      </g>
    </g>
    <path id="Path_222" data-name="Path 222" d="M6360.063,2425.3s13.952-2.138,15.774,13.263c.935,8.2-8.159,15.732-14.823,15.117C6361.014,2453.681,6381.733,2435.982,6360.063,2425.3Z" transform="translate(-5701.464 -2702.821)" fill="#b5311b"/>
    <path id="Path_223" data-name="Path 223" d="M6355.981,2426.4s-6.095,2.089-8.114,10.553A30.793,30.793,0,0,1,6355.981,2426.4Z" transform="translate(-5701.464 -2702.821)" fill="#fff"/>
    <path id="Path_224" data-name="Path 224" d="M6329.01,2432.992a14.906,14.906,0,0,0-6.193,6.935A30.422,30.422,0,0,1,6329.01,2432.992Z" transform="translate(-5701.464 -2702.821)" fill="#fff"/>
    <path id="Path_225" data-name="Path 225" d="M6322.281,2443.23s4.665,2.972,6.11-3.055C6328.391,2440.175,6325.831,2443.23,6322.281,2443.23Z" transform="translate(-5701.464 -2702.821)" fill="#b5311b"/>
    <path id="Path_226" data-name="Path 226" d="M6314.01,2444.518a14.343,14.343,0,0,0-.455,8.945A29.436,29.436,0,0,1,6314.01,2444.518Z" transform="translate(-5701.464 -2702.821)" fill="#fff"/>
    <path id="Path_227" data-name="Path 227" d="M6315.141,2455.994s5.273-.428,2.727-5.909C6317.868,2450.085,6317.793,2453.927,6315.141,2455.994Z" transform="translate(-5701.464 -2702.821)" fill="#b5311b"/>
    <path id="Path_228" data-name="Path 228" d="M6329.7,2449.338a12.584,12.584,0,0,0-7.037,3.5A25.819,25.819,0,0,1,6329.7,2449.338Z" transform="translate(-5701.464 -2702.821)" fill="#fff"/>
    <path id="Path_229" data-name="Path 229" d="M6321.882,2456.243s2.6,3.849,5.693-.458C6327.575,2455.785,6324.6,2457.382,6321.882,2456.243Z" transform="translate(-5701.464 -2702.821)" fill="#b5311b"/>
    <path id="Path_230" data-name="Path 230" d="M6308.975,2462.427a14.818,14.818,0,0,0,2.268,8.964A30.14,30.14,0,0,1,6308.975,2462.427Z" transform="translate(-5701.464 -2702.821)" fill="#fff"/>
    <path id="Path_231" data-name="Path 231" d="M6313.662,2475.982s5.034-2.295.878-6.784C6314.54,2469.2,6315.632,2473,6313.662,2475.982Z" transform="translate(-5701.464 -2702.821)" fill="#b5311b"/>
    <path id="Path_232" data-name="Path 232" d="M6329.491,2463.717a14.907,14.907,0,0,0-7.218,5.861A30.407,30.407,0,0,1,6329.491,2463.717Z" transform="translate(-5701.464 -2702.821)" fill="#fff"/>
    <path id="Path_233" data-name="Path 233" d="M6322.431,2474.2s3.05,2.715,4.811-1.508A6.626,6.626,0,0,1,6322.431,2474.2Z" transform="translate(-5701.464 -2702.821)" fill="#b5311b"/>
    <path id="Path_234" data-name="Path 234" d="M6332.056,2478.468a14.9,14.9,0,0,0-5.757,7.3A30.429,30.429,0,0,1,6332.056,2478.468Z" transform="translate(-5701.464 -2702.821)" fill="#fff"/>
    <path id="Path_235" data-name="Path 235" d="M6327.693,2490.871s3.571,1.981,4.363-2.525A6.627,6.627,0,0,1,6327.693,2490.871Z" transform="translate(-5701.464 -2702.821)" fill="#b5311b"/>
    <path id="Path_236" data-name="Path 236" d="M6337.155,2493.5a14.9,14.9,0,0,0-2.375,8.988A30.384,30.384,0,0,1,6337.155,2493.5Z" transform="translate(-5701.464 -2702.821)" fill="#fff"/>
    <path id="Path_237" data-name="Path 237" d="M6338.7,2507.934s4.065.4,3-4.053A6.625,6.625,0,0,1,6338.7,2507.934Z" transform="translate(-5701.464 -2702.821)" fill="#b5311b"/>
    <path id="Path_238" data-name="Path 238" d="M6309.244,2486.252a14.72,14.72,0,0,0,5.408,7.463A29.993,29.993,0,0,1,6309.244,2486.252Z" transform="translate(-5701.464 -2702.821)" fill="#fff"/>
    <path id="Path_239" data-name="Path 239" d="M6318.2,2494.905s3.843-3.967-1.677-6.6C6316.527,2488.307,6318.944,2491.429,6318.2,2494.905Z" transform="translate(-5701.464 -2702.821)" fill="#b5311b"/>
    <path id="Path_240" data-name="Path 240" d="M6315.594,2506.846a21.883,21.883,0,0,0,10.341,8.527S6319.428,2511.56,6315.594,2506.846Z" transform="translate(-5701.464 -2702.821)" fill="#fff"/>
    <path id="Path_241" data-name="Path 241" d="M6329.927,2516.515s3.922-6.767-4.79-8.572C6325.137,2507.943,6329.68,2511.46,6329.927,2516.515Z" transform="translate(-5701.464 -2702.821)" fill="#b5311b"/>
    <path id="Path_242" data-name="Path 242" d="M6345.152,2513.661s-.165-3.974,6.193-4.856C6351.345,2508.8,6348.29,2509.2,6345.152,2513.661Z" transform="translate(-5701.464 -2702.821)" fill="#fff"/>
    <path id="Path_243" data-name="Path 243" d="M6352.074,2512.229s.3,4.176-2.97,3.923A5.7,5.7,0,0,0,6352.074,2512.229Z" transform="translate(-5701.464 -2702.821)" fill="#b5311b"/>
    <path id="Path_244" data-name="Path 244" d="M6338.162,2513.454s8.133,5.285,4.169,7.982C6342.331,2521.436,6342.8,2518.9,6338.162,2513.454Z" transform="translate(-5701.464 -2702.821)" fill="#b5311b"/>
    <path id="Path_245" data-name="Path 245" d="M6319.955,2454.5a88.737,88.737,0,0,0-1.6,16.183S6319.693,2455.563,6319.955,2454.5Z" transform="translate(-5701.464 -2702.821)" fill="#fff"/>
    <path id="Path_246" data-name="Path 246" d="M6396.165,2432.992a14.906,14.906,0,0,1,6.194,6.935A30.438,30.438,0,0,0,6396.165,2432.992Z" transform="translate(-5701.464 -2702.821)" fill="#fff"/>
    <path id="Path_247" data-name="Path 247" d="M6402.894,2443.23s-4.665,2.972-6.11-3.055C6396.784,2440.175,6399.344,2443.23,6402.894,2443.23Z" transform="translate(-5701.464 -2702.821)" fill="#b5311b"/>
    <path id="Path_248" data-name="Path 248" d="M6411.165,2444.518a14.341,14.341,0,0,1,.455,8.945A29.427,29.427,0,0,0,6411.165,2444.518Z" transform="translate(-5701.464 -2702.821)" fill="#fff"/>
    <path id="Path_249" data-name="Path 249" d="M6410.034,2455.994s-5.272-.428-2.727-5.909C6407.307,2450.085,6407.382,2453.927,6410.034,2455.994Z" transform="translate(-5701.464 -2702.821)" fill="#b5311b"/>
    <path id="Path_250" data-name="Path 250" d="M6395.479,2449.338a12.581,12.581,0,0,1,7.036,3.5A25.829,25.829,0,0,0,6395.479,2449.338Z" transform="translate(-5701.464 -2702.821)" fill="#fff"/>
    <path id="Path_251" data-name="Path 251" d="M6403.293,2456.243s-2.6,3.849-5.693-.458C6397.6,2455.785,6400.571,2457.382,6403.293,2456.243Z" transform="translate(-5701.464 -2702.821)" fill="#b5311b"/>
    <path id="Path_252" data-name="Path 252" d="M6416.2,2462.427a14.822,14.822,0,0,1-2.268,8.964A30.124,30.124,0,0,0,6416.2,2462.427Z" transform="translate(-5701.464 -2702.821)" fill="#fff"/>
    <path id="Path_253" data-name="Path 253" d="M6411.513,2475.982s-5.034-2.295-.878-6.784C6410.635,2469.2,6409.543,2473,6411.513,2475.982Z" transform="translate(-5701.464 -2702.821)" fill="#b5311b"/>
    <path id="Path_254" data-name="Path 254" d="M6395.684,2463.717a14.912,14.912,0,0,1,7.219,5.861A30.426,30.426,0,0,0,6395.684,2463.717Z" transform="translate(-5701.464 -2702.821)" fill="#fff"/>
    <path id="Path_255" data-name="Path 255" d="M6402.745,2474.2s-3.051,2.715-4.812-1.508A6.628,6.628,0,0,0,6402.745,2474.2Z" transform="translate(-5701.464 -2702.821)" fill="#b5311b"/>
    <path id="Path_256" data-name="Path 256" d="M6393.119,2478.468a14.9,14.9,0,0,1,5.757,7.3A30.392,30.392,0,0,0,6393.119,2478.468Z" transform="translate(-5701.464 -2702.821)" fill="#fff"/>
    <path id="Path_257" data-name="Path 257" d="M6397.482,2490.871s-3.57,1.981-4.363-2.525A6.627,6.627,0,0,0,6397.482,2490.871Z" transform="translate(-5701.464 -2702.821)" fill="#b5311b"/>
    <path id="Path_258" data-name="Path 258" d="M6388.021,2493.5a14.894,14.894,0,0,1,2.374,8.988A30.4,30.4,0,0,0,6388.021,2493.5Z" transform="translate(-5701.464 -2702.821)" fill="#fff"/>
    <path id="Path_259" data-name="Path 259" d="M6386.479,2507.934s-4.064.4-3-4.053A6.624,6.624,0,0,0,6386.479,2507.934Z" transform="translate(-5701.464 -2702.821)" fill="#b5311b"/>
    <path id="Path_260" data-name="Path 260" d="M6415.931,2486.252a14.722,14.722,0,0,1-5.408,7.463A29.963,29.963,0,0,0,6415.931,2486.252Z" transform="translate(-5701.464 -2702.821)" fill="#fff"/>
    <path id="Path_261" data-name="Path 261" d="M6406.971,2494.905s-3.843-3.967,1.678-6.6C6408.649,2488.307,6406.231,2491.429,6406.971,2494.905Z" transform="translate(-5701.464 -2702.821)" fill="#b5311b"/>
    <path id="Path_262" data-name="Path 262" d="M6409.582,2506.846a21.889,21.889,0,0,1-10.341,8.527S6405.748,2511.56,6409.582,2506.846Z" transform="translate(-5701.464 -2702.821)" fill="#fff"/>
    <path id="Path_263" data-name="Path 263" d="M6395.248,2516.515s-3.922-6.767,4.791-8.572C6400.039,2507.943,6395.5,2511.46,6395.248,2516.515Z" transform="translate(-5701.464 -2702.821)" fill="#b5311b"/>
    <path id="Path_264" data-name="Path 264" d="M6380.023,2513.661s.165-3.974-6.193-4.856C6373.83,2508.8,6376.885,2509.2,6380.023,2513.661Z" transform="translate(-5701.464 -2702.821)" fill="#fff"/>
    <path id="Path_265" data-name="Path 265" d="M6373.1,2512.229s-.3,4.176,2.97,3.923A5.7,5.7,0,0,1,6373.1,2512.229Z" transform="translate(-5701.464 -2702.821)" fill="#b5311b"/>
    <path id="Path_266" data-name="Path 266" d="M6387.014,2513.454s-8.133,5.285-4.17,7.982C6382.844,2521.436,6382.376,2518.9,6387.014,2513.454Z" transform="translate(-5701.464 -2702.821)" fill="#b5311b"/>
    <path id="Path_267" data-name="Path 267" d="M6405.22,2454.5a88.762,88.762,0,0,1,1.6,16.183S6405.483,2455.563,6405.22,2454.5Z" transform="translate(-5701.464 -2702.821)" fill="#fff"/>
    <path id="Path_268" data-name="Path 268" d="M6356.23,2486.345s-1.4-8.367,8.175-7.762C6364.4,2478.583,6356.158,2477.975,6356.23,2486.345Z" transform="translate(-5701.464 -2702.821)" fill="#fff"/>
    <path id="Path_269" data-name="Path 269" d="M6368.506,2484.06s.188,6.807-7.542,6.523C6360.964,2490.583,6367.817,2489.84,6368.506,2484.06Z" transform="translate(-5701.464 -2702.821)" fill="#b5311b"/>
    <path id="Path_270" data-name="Path 270" d="M6366.166,2459.909s-1.093.417-4.451.048c0,0,2.122,3.585.921,11.635Z" transform="translate(-5701.464 -2702.821)" fill="#b5311b"/>
    <path id="Path_271" data-name="Path 271" d="M6375.417,2460.228s5.778,2.447,10.835,13.071c0,0-3.655-.6-1.868,11.327C6384.384,2484.626,6379.439,2461.718,6375.417,2460.228Z" transform="translate(-5701.464 -2702.821)" fill="#b5311b"/>
    <path id="Path_272" data-name="Path 272" d="M6349.191,2460.228s-5.778,2.447-10.836,13.071c0,0,3.656-.6,1.868,11.327C6340.223,2484.626,6345.169,2461.718,6349.191,2460.228Z" transform="translate(-5701.464 -2702.821)" fill="#b5311b"/>
    <path id="Path_273" data-name="Path 273" d="M6355.3,2475.886s-9.176,7.782-.548,17.767C6354.751,2493.653,6343.934,2485.485,6355.3,2475.886Z" transform="translate(-5701.464 -2702.821)" fill="#b5311b"/>
    <path id="Path_274" data-name="Path 274" d="M6369.435,2475.886s9.176,7.782.548,17.767C6369.983,2493.653,6380.8,2485.485,6369.435,2475.886Z" transform="translate(-5701.464 -2702.821)" fill="#b5311b"/>
    <path id="Path_275" data-name="Path 275" d="M6365.617,2512.26a3.8,3.8,0,0,0-5.945,0s.908-8.692-4.541-9.084c0,0,6.369-1.188-4-9.557,0,0,10.37,8.369,21.964-.121,0,0-10.653,7.18-4.588,9.7C6368.506,2503.2,6362.149,2504.755,6365.617,2512.26Z" transform="translate(-5701.464 -2702.821)" fill="#b5311b" opacity="0.28"/>
  </g>
</svg>
