<svg xmlns="http://www.w3.org/2000/svg" width="181" height="180.95" viewBox="0 0 181 180.95">
  <g id="buzhokeyi" transform="translate(43.442 300.674)">
    <g id="Group_3388" data-name="Group 3388" transform="translate(-5701.464 -2702.821)">
      <g id="Group_3095" data-name="Group 3095">
        <path id="Path_10858" data-name="Path 10858" d="M5752.925,2542.405a.387.387,0,0,1,.428-.339l.016,0a22.706,22.706,0,0,0,5.729-.12c3.286-.364,6.521.562,6.408,4.75a.384.384,0,0,1-.394.372.31.31,0,0,1-.055-.006c-.665-.119-2.318-.189-6.277.447C5754.2,2548.245,5752.556,2545.561,5752.925,2542.405Z" fill="#142266"/>
        <path id="Path_10859" data-name="Path 10859" d="M5749.344,2541.885a.385.385,0,0,0,.489.241l.011,0a22.677,22.677,0,0,1,5.632-1.056c3.291-.317,6.269-1.884,5.3-5.962a.384.384,0,0,0-.464-.282.334.334,0,0,0-.051.016c-.626.254-2.23.66-6.236.849C5749.4,2535.905,5748.34,2538.871,5749.344,2541.885Z" fill="#142266"/>
      </g>
      <g id="Group_3096" data-name="Group 3096">
        <path id="Path_10860" data-name="Path 10860" d="M5766.874,2540.045a.385.385,0,0,1,.349-.42h.016a22.8,22.8,0,0,0,5.579-1.308c3.138-1.039,6.5-.807,7.256,3.314a.385.385,0,0,1-.31.446.439.439,0,0,1-.053.006c-.675.021-2.307.3-6.048,1.741C5769.337,2545.487,5767.173,2543.207,5766.874,2540.045Z" fill="#142266"/>
        <path id="Path_10861" data-name="Path 10861" d="M5763.267,2540.278a.385.385,0,0,0,.528.137l.014-.008a22.734,22.734,0,0,1,5.289-2.2c3.153-.993,5.74-3.146,3.945-6.933a.384.384,0,0,0-.513-.181.491.491,0,0,0-.046.027c-.56.378-2.044,1.109-5.923,2.127C5762.077,2534.42,5761.658,2537.539,5763.267,2540.278Z" fill="#142266"/>
      </g>
      <g id="Group_3097" data-name="Group 3097">
        <path id="Path_10862" data-name="Path 10862" d="M5780.031,2534.835a.386.386,0,0,1,.253-.484l.016,0a22.794,22.794,0,0,0,5.185-2.439c2.854-1.669,6.186-2.14,7.786,1.733a.384.384,0,0,1-.211.5.434.434,0,0,1-.05.017c-.656.161-2.194.77-5.553,2.96C5783.578,2539.65,5780.978,2537.865,5780.031,2534.835Z" fill="#142266"/>
        <path id="Path_10863" data-name="Path 10863" d="M5776.55,2535.815a.386.386,0,0,0,.545.023l.012-.011a22.684,22.684,0,0,1,4.716-3.255c2.877-1.627,4.96-4.271,2.417-7.6a.383.383,0,0,0-.537-.071.344.344,0,0,0-.041.036c-.469.486-1.769,1.51-5.351,3.312C5774.169,2530.332,5774.408,2533.469,5776.55,2535.815Z" fill="#142266"/>
      </g>
      <g id="Group_3098" data-name="Group 3098">
        <path id="Path_10864" data-name="Path 10864" d="M5791.819,2527a.387.387,0,0,1,.148-.526l.014-.007a22.782,22.782,0,0,0,4.564-3.464c2.444-2.226,5.6-3.379,7.976.076a.383.383,0,0,1-.1.532c-.016.01-.032.02-.048.028-.608.294-1.986,1.21-4.816,4.05C5796.284,2530.977,5793.378,2529.771,5791.819,2527Z" fill="#142266"/>
        <path id="Path_10865" data-name="Path 10865" d="M5788.618,2528.685a.385.385,0,0,0,.538-.088l.009-.012a22.707,22.707,0,0,1,3.936-4.164c2.476-2.19,3.964-5.209.784-7.938a.382.382,0,0,0-.54.042.336.336,0,0,0-.033.045c-.358.573-1.417,1.844-4.546,4.352C5785.148,2523.817,5786.034,2526.837,5788.618,2528.685Z" fill="#142266"/>
      </g>
      <g id="Group_3099" data-name="Group 3099">
        <path id="Path_10866" data-name="Path 10866" d="M5801.718,2516.893a.387.387,0,0,1,.035-.545l.012-.01a22.749,22.749,0,0,0,3.744-4.338c1.928-2.685,4.781-4.47,7.818-1.584a.385.385,0,0,1,.012.543.431.431,0,0,1-.04.036c-.533.414-1.692,1.6-3.869,4.963C5806.912,2519.85,5803.818,2519.276,5801.718,2516.893Z" fill="#142266"/>
        <path id="Path_10867" data-name="Path 10867" d="M5798.937,2519.2a.385.385,0,0,0,.508-.2l.006-.014a22.686,22.686,0,0,1,2.984-4.891c1.967-2.657,2.795-5.919-.883-7.928a.383.383,0,0,0-.521.153.507.507,0,0,0-.021.047c-.231.635-1,2.1-3.542,5.2C5794.531,2515.162,5796.021,2517.932,5798.937,2519.2Z" fill="#142266"/>
      </g>
      <g id="Group_3100" data-name="Group 3100">
        <path id="Path_10868" data-name="Path 10868" d="M5809.3,2504.949a.386.386,0,0,1-.079-.541l.01-.012a22.784,22.784,0,0,0,2.761-5.021c1.327-3.028,3.746-5.367,7.318-3.175a.382.382,0,0,1,.125.526.355.355,0,0,1-.032.046c-.436.516-1.323,1.912-2.753,5.659C5815,2506.758,5811.85,2506.84,5809.3,2504.949Z" fill="#142266"/>
        <path id="Path_10869" data-name="Path 10869" d="M5807.061,2507.783a.386.386,0,0,0,.455-.3l0-.016a22.742,22.742,0,0,1,1.9-5.405c1.371-3.008,1.5-6.37-2.513-7.569a.381.381,0,0,0-.476.258.272.272,0,0,0-.012.054c-.094.668-.544,2.261-2.382,5.824C5801.911,2504.748,5803.949,2507.146,5807.061,2507.783Z" fill="#142266"/>
      </g>
      <g id="Group_3101" data-name="Group 3101">
        <path id="Path_10870" data-name="Path 10870" d="M5814.232,2491.681a.386.386,0,0,1-.19-.511l.008-.015a22.76,22.76,0,0,0,1.656-5.486c.669-3.237,2.548-6.029,6.5-4.626a.383.383,0,0,1,.231.49c-.006.017-.014.033-.022.05-.319.6-.9,2.146-1.516,6.108C5820.181,2492.272,5817.12,2493,5814.232,2491.681Z" fill="#142266"/>
        <path id="Path_10871" data-name="Path 10871" d="M5812.631,2494.923a.386.386,0,0,0,.382-.39v-.016a22.741,22.741,0,0,1,.737-5.682c.716-3.228.145-6.544-4.032-6.884a.385.385,0,0,0-.412.355.462.462,0,0,0,0,.052c.047.674-.062,2.325-1.119,6.193C5806.963,2493.023,5809.455,2494.947,5812.631,2494.923Z" fill="#142266"/>
      </g>
      <g id="Group_3102" data-name="Group 3102">
        <path id="Path_10872" data-name="Path 10872" d="M5816.3,2477.682a.387.387,0,0,1-.292-.462l0-.015a22.792,22.792,0,0,0,.48-5.71c-.019-3.306,1.239-6.427,5.394-5.877a.382.382,0,0,1,.328.43.347.347,0,0,1-.011.055c-.188.649-.43,2.286-.213,6.29C5822.24,2477.022,5819.4,2478.375,5816.3,2477.682Z" fill="#142266"/>
        <path id="Path_10873" data-name="Path 10873" d="M5815.41,2481.185a.386.386,0,0,0,.292-.461l0-.015a22.726,22.726,0,0,1-.461-5.711c.029-3.306-1.219-6.431-5.375-5.894a.383.383,0,0,0-.33.431.334.334,0,0,0,.011.053c.186.649.423,2.287.193,6.29C5809.468,2480.507,5812.305,2481.869,5815.41,2481.185Z" fill="#142266"/>
      </g>
      <g id="Group_3103" data-name="Group 3103">
        <path id="Path_10874" data-name="Path 10874" d="M5815.41,2463.56a.387.387,0,0,1-.381-.392v-.015a22.757,22.757,0,0,0-.718-5.685c-.706-3.229-.124-6.544,4.054-6.87a.384.384,0,0,1,.411.355.484.484,0,0,1,0,.053c-.049.674.054,2.325,1.1,6.2C5821.085,2461.679,5818.587,2463.594,5815.41,2463.56Z" fill="#142266"/>
        <path id="Path_10875" data-name="Path 10875" d="M5815.266,2467.172a.388.388,0,0,0,.191-.512l-.007-.014a22.689,22.689,0,0,1-1.639-5.49c-.658-3.24-2.529-6.037-6.483-4.648a.382.382,0,0,0-.234.488.315.315,0,0,0,.023.052c.317.6.889,2.149,1.5,6.113C5809.32,2467.747,5812.374,2468.486,5815.266,2467.172Z" fill="#142266"/>
      </g>
      <g id="Group_3104" data-name="Group 3104">
        <path id="Path_10876" data-name="Path 10876" d="M5811.6,2449.931a.386.386,0,0,1-.454-.3l0-.016a22.792,22.792,0,0,0-1.884-5.411c-1.362-3.012-1.482-6.375,2.537-7.562a.382.382,0,0,1,.475.259.511.511,0,0,1,.012.055c.092.669.536,2.263,2.364,5.833C5816.768,2446.912,5814.718,2449.3,5811.6,2449.931Z" fill="#142266"/>
        <path id="Path_10877" data-name="Path 10877" d="M5812.214,2453.494a.386.386,0,0,0,.081-.54l-.01-.013a22.78,22.78,0,0,1-2.744-5.03c-1.318-3.032-3.729-5.379-7.307-3.2a.383.383,0,0,0-.125.528.329.329,0,0,0,.031.044c.434.517,1.317,1.917,2.734,5.668C5806.512,2455.29,5809.658,2455.38,5812.214,2453.494Z" fill="#142266"/>
      </g>
      <g id="Group_3105" data-name="Group 3105">
        <path id="Path_10878" data-name="Path 10878" d="M5805.048,2437.39a.386.386,0,0,1-.507-.2l-.006-.014a22.739,22.739,0,0,0-2.968-4.9c-1.958-2.663-2.775-5.928.91-7.925a.384.384,0,0,1,.52.156.479.479,0,0,1,.022.05c.229.635,1,2.1,3.524,5.214C5809.466,2433.364,5807.963,2436.129,5805.048,2437.39Z" fill="#142266"/>
        <path id="Path_10879" data-name="Path 10879" d="M5806.385,2440.749a.386.386,0,0,0-.034-.545l-.012-.01a22.764,22.764,0,0,1-3.73-4.35c-1.919-2.692-4.766-4.487-7.813-1.609a.383.383,0,0,0-.014.542c.013.013.026.025.04.037.532.416,1.687,1.6,3.853,4.976C5801.181,2443.691,5804.277,2443.126,5806.385,2440.749Z" fill="#142266"/>
      </g>
      <g id="Group_3106" data-name="Group 3106">
        <path id="Path_10880" data-name="Path 10880" d="M5796.027,2426.486a.387.387,0,0,1-.538-.093l-.009-.013a22.742,22.742,0,0,0-3.922-4.177c-2.469-2.2-3.947-5.222-.758-7.94a.384.384,0,0,1,.541.045c.011.014.022.028.032.043.356.574,1.411,1.849,4.531,4.367C5799.512,2421.63,5798.617,2424.646,5796.027,2426.486Z" fill="#142266"/>
        <path id="Path_10881" data-name="Path 10881" d="M5798.034,2429.5a.386.386,0,0,0-.147-.526l-.013-.007a22.8,22.8,0,0,1-4.553-3.479c-2.437-2.234-5.594-3.4-7.976.05a.383.383,0,0,0,.1.532.4.4,0,0,0,.048.029c.607.3,1.982,1.216,4.8,4.066C5793.556,2433.453,5796.466,2432.256,5798.034,2429.5Z" fill="#142266"/>
      </g>
      <g id="Group_3107" data-name="Group 3107">
        <path id="Path_10882" data-name="Path 10882" d="M5784.938,2417.7a.388.388,0,0,1-.546.022l-.011-.011a22.762,22.762,0,0,0-4.7-3.271c-2.872-1.637-4.946-4.287-2.392-7.609a.382.382,0,0,1,.537-.069.322.322,0,0,1,.041.037c.468.487,1.764,1.516,5.34,3.329C5787.337,2412.223,5787.088,2415.359,5784.938,2417.7Z" fill="#142266"/>
        <path id="Path_10883" data-name="Path 10883" d="M5787.526,2420.222a.387.387,0,0,0-.252-.485l-.016,0a22.8,22.8,0,0,1-5.177-2.456c-2.848-1.678-6.178-2.16-7.792,1.708a.383.383,0,0,0,.207.5.478.478,0,0,0,.053.018c.655.163,2.192.777,5.544,2.978C5783.968,2425.026,5786.567,2423.25,5787.526,2420.222Z" fill="#142266"/>
      </g>
      <g id="Group_3108" data-name="Group 3108">
        <path id="Path_10884" data-name="Path 10884" d="M5772.261,2411.405a.387.387,0,0,1-.529.134l-.014-.008a22.666,22.666,0,0,0-5.282-2.221c-3.15-1-5.729-3.165-3.922-6.946a.384.384,0,0,1,.513-.179.44.44,0,0,1,.046.027c.559.379,2.041,1.116,5.916,2.146C5773.47,2405.551,5773.879,2408.671,5772.261,2411.405Z" fill="#142266"/>
        <path id="Path_10885" data-name="Path 10885" d="M5775.314,2413.337a.386.386,0,0,0-.348-.421h-.015a22.794,22.794,0,0,1-5.574-1.326c-3.135-1.05-6.493-.829-7.266,3.29a.384.384,0,0,0,.308.447.455.455,0,0,0,.054.006c.675.024,2.306.3,6.042,1.76C5772.837,2418.776,5775.014,2416.5,5775.314,2413.337Z" fill="#142266"/>
      </g>
      <g id="Group_3109" data-name="Group 3109">
        <path id="Path_10886" data-name="Path 10886" d="M5744.417,2542.405a.387.387,0,0,0-.429-.339l-.015,0a22.705,22.705,0,0,1-5.729-.12c-3.286-.364-6.521.562-6.408,4.75a.383.383,0,0,0,.394.372.326.326,0,0,0,.055-.006c.665-.119,2.318-.189,6.277.447C5743.14,2548.245,5744.783,2545.561,5744.417,2542.405Z" fill="#142266"/>
        <path id="Path_10887" data-name="Path 10887" d="M5747.994,2541.885a.387.387,0,0,1-.49.241l-.01,0a22.7,22.7,0,0,0-5.632-1.056c-3.291-.317-6.269-1.884-5.3-5.962a.384.384,0,0,1,.464-.282.46.46,0,0,1,.051.016c.626.254,2.23.66,6.236.849C5747.943,2535.905,5749,2538.871,5747.994,2541.885Z" fill="#142266"/>
      </g>
      <g id="Group_3110" data-name="Group 3110">
        <path id="Path_10888" data-name="Path 10888" d="M5730.464,2540.045a.386.386,0,0,0-.349-.42h-.016a22.787,22.787,0,0,1-5.579-1.308c-3.138-1.039-6.5-.807-7.256,3.314a.384.384,0,0,0,.309.446.436.436,0,0,0,.054.006c.675.021,2.306.3,6.047,1.741C5728,2545.487,5730.166,2543.207,5730.464,2540.045Z" fill="#142266"/>
        <path id="Path_10889" data-name="Path 10889" d="M5734.072,2540.278a.387.387,0,0,1-.529.137l-.013-.008a22.765,22.765,0,0,0-5.289-2.2c-3.153-.993-5.74-3.146-3.945-6.933a.383.383,0,0,1,.512-.181.449.449,0,0,1,.047.027c.56.378,2.044,1.109,5.923,2.127C5735.261,2534.42,5735.68,2537.539,5734.072,2540.278Z" fill="#142266"/>
      </g>
      <g id="Group_3111" data-name="Group 3111">
        <path id="Path_10890" data-name="Path 10890" d="M5717.307,2534.835a.387.387,0,0,0-.254-.484l-.015,0a22.765,22.765,0,0,1-5.185-2.439c-2.854-1.669-6.186-2.14-7.786,1.733a.384.384,0,0,0,.21.5.523.523,0,0,0,.051.017c.656.161,2.194.77,5.553,2.96C5713.764,2539.65,5716.358,2537.865,5717.307,2534.835Z" fill="#142266"/>
        <path id="Path_10891" data-name="Path 10891" d="M5720.787,2535.815a.387.387,0,0,1-.546.023l-.011-.011a22.72,22.72,0,0,0-4.716-3.255c-2.877-1.627-4.96-4.271-2.417-7.6a.382.382,0,0,1,.537-.071.443.443,0,0,1,.041.036c.469.486,1.769,1.51,5.351,3.312C5723.172,2530.332,5722.93,2533.469,5720.787,2535.815Z" fill="#142266"/>
      </g>
      <g id="Group_3112" data-name="Group 3112">
        <path id="Path_10892" data-name="Path 10892" d="M5705.522,2527a.387.387,0,0,0-.148-.526l-.014-.007a22.8,22.8,0,0,1-4.564-3.464c-2.444-2.226-5.6-3.379-7.976.076a.383.383,0,0,0,.1.532.423.423,0,0,0,.048.028c.608.294,1.986,1.21,4.817,4.05C5701.056,2530.977,5703.966,2529.771,5705.522,2527Z" fill="#142266"/>
        <path id="Path_10893" data-name="Path 10893" d="M5708.722,2528.685a.387.387,0,0,1-.539-.088l-.008-.012a22.691,22.691,0,0,0-3.936-4.164c-2.476-2.19-3.964-5.209-.784-7.938a.38.38,0,0,1,.573.087c.358.573,1.417,1.844,4.546,4.352C5712.191,2523.817,5711.305,2526.837,5708.722,2528.685Z" fill="#142266"/>
      </g>
      <g id="Group_3113" data-name="Group 3113">
        <path id="Path_10894" data-name="Path 10894" d="M5695.618,2516.893a.387.387,0,0,0-.036-.545l-.012-.01a22.766,22.766,0,0,1-3.744-4.338c-1.928-2.685-4.781-4.47-7.818-1.584a.384.384,0,0,0-.012.543.334.334,0,0,0,.04.036c.534.414,1.692,1.6,3.869,4.963C5690.426,2519.85,5693.518,2519.276,5695.618,2516.893Z" fill="#142266"/>
        <path id="Path_10895" data-name="Path 10895" d="M5698.4,2519.2a.385.385,0,0,1-.508-.2l-.006-.014a22.746,22.746,0,0,0-2.984-4.891c-1.967-2.657-2.794-5.919.884-7.928a.384.384,0,0,1,.521.153.4.4,0,0,1,.021.047c.231.635,1,2.1,3.541,5.2C5702.808,2515.162,5701.313,2517.932,5698.4,2519.2Z" fill="#142266"/>
      </g>
      <g id="Group_3114" data-name="Group 3114">
        <path id="Path_10896" data-name="Path 10896" d="M5688.038,2504.949a.388.388,0,0,0,.079-.541l-.01-.012a22.763,22.763,0,0,1-2.761-5.021c-1.328-3.028-3.746-5.367-7.318-3.175a.382.382,0,0,0-.126.526.5.5,0,0,0,.033.046c.436.516,1.323,1.912,2.753,5.659C5682.338,2506.758,5685.489,2506.84,5688.038,2504.949Z" fill="#142266"/>
        <path id="Path_10897" data-name="Path 10897" d="M5690.278,2507.783a.386.386,0,0,1-.455-.3l0-.016a22.742,22.742,0,0,0-1.9-5.405c-1.371-3.008-1.5-6.37,2.513-7.569a.382.382,0,0,1,.476.258.438.438,0,0,1,.012.054c.094.668.544,2.261,2.383,5.824C5695.428,2504.748,5693.394,2507.146,5690.278,2507.783Z" fill="#142266"/>
      </g>
      <g id="Group_3115" data-name="Group 3115">
        <path id="Path_10898" data-name="Path 10898" d="M5683.107,2491.681a.386.386,0,0,0,.189-.511l-.007-.015a22.782,22.782,0,0,1-1.656-5.486c-.669-3.237-2.548-6.029-6.5-4.626a.383.383,0,0,0-.232.489.459.459,0,0,0,.022.051c.319.6.9,2.146,1.516,6.108C5677.158,2492.272,5680.221,2493,5683.107,2491.681Z" fill="#142266"/>
        <path id="Path_10899" data-name="Path 10899" d="M5684.709,2494.923a.387.387,0,0,1-.383-.39v-.016a22.741,22.741,0,0,0-.736-5.682c-.716-3.228-.146-6.544,4.031-6.884a.383.383,0,0,1,.411.352.346.346,0,0,1,0,.055c-.047.674.062,2.325,1.12,6.193C5690.376,2493.023,5687.884,2494.947,5684.709,2494.923Z" fill="#142266"/>
      </g>
      <g id="Group_3116" data-name="Group 3116">
        <path id="Path_10900" data-name="Path 10900" d="M5681.039,2477.682a.387.387,0,0,0,.292-.462l0-.015a22.656,22.656,0,0,1-.48-5.71c.019-3.306-1.239-6.427-5.394-5.877a.383.383,0,0,0-.329.43.416.416,0,0,0,.012.055c.188.649.43,2.286.213,6.29C5675.1,2477.022,5677.939,2478.375,5681.039,2477.682Z" fill="#142266"/>
        <path id="Path_10901" data-name="Path 10901" d="M5681.932,2481.185a.387.387,0,0,1-.293-.461l0-.015a22.725,22.725,0,0,0,.461-5.711c-.029-3.306,1.219-6.431,5.375-5.894a.384.384,0,0,1,.33.431.4.4,0,0,1-.011.053c-.186.649-.423,2.287-.193,6.29C5687.871,2480.507,5685.034,2481.869,5681.932,2481.185Z" fill="#142266"/>
      </g>
      <g id="Group_3117" data-name="Group 3117">
        <path id="Path_10902" data-name="Path 10902" d="M5681.926,2463.56a.386.386,0,0,0,.38-.392v-.015a22.757,22.757,0,0,1,.718-5.685c.706-3.229.124-6.544-4.054-6.87a.383.383,0,0,0-.411.353.52.52,0,0,0,0,.055c.049.674-.055,2.325-1.1,6.2C5676.255,2461.679,5678.753,2463.594,5681.926,2463.56Z" fill="#142266"/>
        <path id="Path_10903" data-name="Path 10903" d="M5682.074,2467.172a.387.387,0,0,1-.191-.512l.007-.014a22.8,22.8,0,0,0,1.639-5.49c.659-3.24,2.529-6.037,6.483-4.648a.382.382,0,0,1,.233.488.42.42,0,0,1-.022.052c-.317.6-.889,2.149-1.5,6.113C5688.024,2467.747,5684.966,2468.486,5682.074,2467.172Z" fill="#142266"/>
      </g>
      <g id="Group_3118" data-name="Group 3118">
        <path id="Path_10904" data-name="Path 10904" d="M5685.734,2449.931a.387.387,0,0,0,.454-.3l0-.016a22.707,22.707,0,0,1,1.884-5.411c1.362-3.012,1.482-6.375-2.537-7.562a.382.382,0,0,0-.475.259.3.3,0,0,0-.012.055c-.092.669-.536,2.263-2.364,5.833C5680.575,2446.912,5682.62,2449.3,5685.734,2449.931Z" fill="#142266"/>
        <path id="Path_10905" data-name="Path 10905" d="M5685.124,2453.494a.385.385,0,0,1-.081-.54l.01-.013a22.779,22.779,0,0,0,2.744-5.03c1.318-3.032,3.729-5.379,7.307-3.2a.382.382,0,0,1,.126.526.351.351,0,0,1-.032.046c-.434.517-1.316,1.917-2.734,5.668C5690.826,2455.29,5687.68,2455.38,5685.124,2453.494Z" fill="#142266"/>
      </g>
      <g id="Group_3119" data-name="Group 3119">
        <path id="Path_10906" data-name="Path 10906" d="M5692.291,2437.39a.386.386,0,0,0,.507-.2l.006-.014a22.679,22.679,0,0,1,2.968-4.9c1.958-2.663,2.775-5.928-.91-7.925a.382.382,0,0,0-.519.156.33.33,0,0,0-.022.05c-.229.635-1,2.1-3.525,5.214C5687.872,2433.364,5689.375,2436.129,5692.291,2437.39Z" fill="#142266"/>
        <path id="Path_10907" data-name="Path 10907" d="M5690.953,2440.749a.386.386,0,0,1,.034-.545l.012-.01a22.764,22.764,0,0,0,3.73-4.35c1.919-2.692,4.766-4.487,7.813-1.609a.383.383,0,0,1,.012.542c-.012.013-.025.025-.039.037-.532.416-1.686,1.6-3.853,4.976C5696.157,2443.691,5693.061,2443.126,5690.953,2440.749Z" fill="#142266"/>
      </g>
      <g id="Group_3120" data-name="Group 3120">
        <path id="Path_10908" data-name="Path 10908" d="M5701.312,2426.486a.387.387,0,0,0,.538-.093l.009-.013a22.759,22.759,0,0,1,3.922-4.177c2.469-2.2,3.947-5.222.758-7.94a.384.384,0,0,0-.541.045.313.313,0,0,0-.032.043c-.356.574-1.411,1.849-4.532,4.367C5697.827,2421.63,5698.722,2424.646,5701.312,2426.486Z" fill="#142266"/>
        <path id="Path_10909" data-name="Path 10909" d="M5699.305,2429.5a.386.386,0,0,1,.146-.526l.014-.007a22.832,22.832,0,0,0,4.553-3.479c2.437-2.234,5.594-3.4,7.976.05a.384.384,0,0,1-.1.533.324.324,0,0,1-.046.028c-.607.3-1.983,1.216-4.8,4.066C5703.784,2433.453,5700.873,2432.256,5699.305,2429.5Z" fill="#142266"/>
      </g>
      <g id="Group_3121" data-name="Group 3121">
        <path id="Path_10910" data-name="Path 10910" d="M5712.4,2417.7a.386.386,0,0,0,.545.022l.012-.011a22.726,22.726,0,0,1,4.7-3.271c2.872-1.637,4.946-4.287,2.392-7.609a.382.382,0,0,0-.539-.067.241.241,0,0,0-.039.035c-.468.487-1.764,1.516-5.34,3.329C5710,2412.223,5710.251,2415.359,5712.4,2417.7Z" fill="#142266"/>
        <path id="Path_10911" data-name="Path 10911" d="M5709.814,2420.222a.386.386,0,0,1,.252-.485l.016,0a22.8,22.8,0,0,0,5.177-2.456c2.848-1.678,6.179-2.16,7.792,1.708a.383.383,0,0,1-.207.5c-.018.007-.035.013-.053.018-.655.163-2.192.777-5.544,2.978C5713.371,2425.026,5710.773,2423.25,5709.814,2420.222Z" fill="#142266"/>
      </g>
      <g id="Group_3122" data-name="Group 3122">
        <path id="Path_10912" data-name="Path 10912" d="M5725.078,2411.405a.386.386,0,0,0,.529.134l.014-.008a22.674,22.674,0,0,1,5.282-2.221c3.15-1,5.729-3.165,3.922-6.946a.385.385,0,0,0-.513-.179.389.389,0,0,0-.046.027c-.559.379-2.041,1.116-5.916,2.146C5723.869,2405.551,5723.46,2408.671,5725.078,2411.405Z" fill="#142266"/>
        <path id="Path_10913" data-name="Path 10913" d="M5722.021,2413.337a.385.385,0,0,1,.348-.421h.016a22.8,22.8,0,0,0,5.574-1.326c3.135-1.05,6.493-.829,7.266,3.29a.381.381,0,0,1-.306.446.34.34,0,0,1-.056.007c-.675.024-2.3.3-6.042,1.76C5724.5,2418.776,5722.329,2416.5,5722.021,2413.337Z" fill="#142266"/>
      </g>
    </g>
    <g id="Group_3389" data-name="Group 3389" transform="translate(-5701.464 -2702.821)">
      <g id="Group_3124" data-name="Group 3124">
        <path id="Path_10914" data-name="Path 10914" d="M5748.523,2562.664l-76.121-77.573-2.5,10.058,78.621,80.121,78.621-80.121-2.5-10.058Z" fill="#e65416"/>
        <path id="Path_10915" data-name="Path 10915" d="M5824.644,2485.09l-2.833-11.4c-31.187-3.9-51.662-17.144-63.632-28.04a99.192,99.192,0,0,1-9.656-10.114,99.347,99.347,0,0,1-9.656,10.114c-11.97,10.9-32.444,24.144-63.632,28.04l-2.833,11.4,76.121,77.573Z" fill="#b5311b"/>
      </g>
      <path id="Path_10916" data-name="Path 10916" d="M5830.966,2463.321c-62.61-4.005-82.444-46.74-82.444-46.74s-19.835,42.735-82.444,46.74l-8.056,31.144,90.5,88.632,90.5-88.632ZM5669.9,2495.149l5.334-21.457c31.188-3.9,51.662-17.144,63.632-28.04a99.372,99.372,0,0,0,9.656-10.114,99.217,99.217,0,0,0,9.656,10.114c11.97,10.9,32.444,24.144,63.632,28.04l5.334,21.457-78.621,80.121Z" fill="#142266"/>
    </g>
    <g id="Fill-4" transform="translate(-5701.464 -2702.821)">
      <path id="Path_86" data-name="Path 86" d="M5802.787,2521.475a6.24,6.24,0,0,1-8.771-.766l-36.579-43.386-11.882,7.74a7.091,7.091,0,0,0-2.991,7.9c5.456,19.435,5.456,19.839,5.456,20.968a6.238,6.238,0,0,1-12.409.888c-.161-.686-.97-3.912-5.047-18.509a19.562,19.562,0,0,1,8.164-21.694l2.667-1.734a84.989,84.989,0,0,1-20.129,7.016,6.054,6.054,0,0,1-1.172.122c-.161,0-.282-.041-.449-.041l-11.155,32.943a1.268,1.268,0,0,1-.2.4,4.732,4.732,0,0,1-2.708,2.863l-12.085,4.959a4.9,4.9,0,0,1-1.86.363,4.839,4.839,0,0,1-1.858-9.311l12.084-4.959a4.8,4.8,0,0,1,4.082.2l9.863-29.112a6,6,0,0,1-1.859-3.347,6.2,6.2,0,0,1,4.926-7.256l.01,0c.2-.04.363-.081.561-.121l2.708-7.984a16.866,16.866,0,0,1-8.124-11.048,16.545,16.545,0,0,1,3.274-13.951c3.679-4.6,10.832-7.379,17.016-8.629a15.2,15.2,0,0,0,.769,12.581c-3.638.968-6.993,2.541-8.043,3.79a4.11,4.11,0,0,0-.85,3.548,4.412,4.412,0,0,0,2.143,2.944,6.223,6.223,0,0,1,2.748,8.347,6.1,6.1,0,0,1-4.85,3.346l-1.981,5.766c11.8-3.629,24.493-11.29,27.034-14.637a14.04,14.04,0,0,0,2.748-5.608,15.637,15.637,0,0,0,9.984-10.2,16.373,16.373,0,0,1,2.344,6.13c.647,3.871.283,10-5.133,17.177-.4.524-.889,1.049-1.414,1.613l43.692,51.814a6.291,6.291,0,0,1-.725,8.868l0,0Zm-53.757-78.628a11.551,11.551,0,1,0-.008,0Zm62.851,85.965-4.039-4.476a2.087,2.087,0,0,0-3.111,2.782l4.038,4.476a2.086,2.086,0,0,0,1.536.685,2.131,2.131,0,0,0,1.414-.523,2.059,2.059,0,0,0,.2-2.905l-.035-.039Zm-62.244-9.959-7.4,4.919a1.475,1.475,0,0,1-1.859-.161l-1.458-1.412a2.086,2.086,0,0,0-2.87,3.029l1.459,1.411a5.548,5.548,0,0,0,3.88,1.571,5.46,5.46,0,0,0,3.113-.968l7.4-4.919a2.039,2.039,0,0,0,.588-2.822l-.027-.041a1.991,1.991,0,0,0-2.735-.666l-.1.061Z" fill="none" stroke="#142266" stroke-width="15"/>
      <path id="Path_87" data-name="Path 87" d="M5802.787,2521.475a6.24,6.24,0,0,1-8.771-.766l-36.579-43.386-11.882,7.74a7.091,7.091,0,0,0-2.991,7.9c5.456,19.435,5.456,19.839,5.456,20.968a6.238,6.238,0,0,1-12.409.888c-.161-.686-.97-3.912-5.047-18.509a19.562,19.562,0,0,1,8.164-21.694l2.667-1.734a84.989,84.989,0,0,1-20.129,7.016,6.054,6.054,0,0,1-1.172.122c-.161,0-.282-.041-.449-.041l-11.155,32.943a1.268,1.268,0,0,1-.2.4,4.732,4.732,0,0,1-2.708,2.863l-12.085,4.959a4.9,4.9,0,0,1-1.86.363,4.839,4.839,0,0,1-1.858-9.311l12.084-4.959a4.8,4.8,0,0,1,4.082.2l9.863-29.112a6,6,0,0,1-1.859-3.347,6.2,6.2,0,0,1,4.926-7.256l.01,0c.2-.04.363-.081.561-.121l2.708-7.984a16.866,16.866,0,0,1-8.124-11.048,16.545,16.545,0,0,1,3.274-13.951c3.679-4.6,10.832-7.379,17.016-8.629a15.2,15.2,0,0,0,.769,12.581c-3.638.968-6.993,2.541-8.043,3.79a4.11,4.11,0,0,0-.85,3.548,4.412,4.412,0,0,0,2.143,2.944,6.223,6.223,0,0,1,2.748,8.347,6.1,6.1,0,0,1-4.85,3.346l-1.981,5.766c11.8-3.629,24.493-11.29,27.034-14.637a14.04,14.04,0,0,0,2.748-5.608,15.637,15.637,0,0,0,9.984-10.2,16.373,16.373,0,0,1,2.344,6.13c.647,3.871.283,10-5.133,17.177-.4.524-.889,1.049-1.414,1.613l43.692,51.814a6.291,6.291,0,0,1-.725,8.868l0,0Zm-53.757-78.628a11.551,11.551,0,1,0-.008,0Zm62.851,85.965-4.039-4.476a2.087,2.087,0,0,0-3.111,2.782l4.038,4.476a2.086,2.086,0,0,0,1.536.685,2.131,2.131,0,0,0,1.414-.523,2.059,2.059,0,0,0,.2-2.905l-.035-.039Zm-62.244-9.959-7.4,4.919a1.475,1.475,0,0,1-1.859-.161l-1.458-1.412a2.086,2.086,0,0,0-2.87,3.029l1.459,1.411a5.548,5.548,0,0,0,3.88,1.571,5.46,5.46,0,0,0,3.113-.968l7.4-4.919a2.039,2.039,0,0,0,.588-2.822l-.027-.041a1.991,1.991,0,0,0-2.735-.666l-.1.061Z" fill="#e65416"/>
    </g>
    <g id="Group_3391" data-name="Group 3391" transform="translate(-5701.464 -2702.821)">
      <ellipse id="Ellipse_224" data-name="Ellipse 224" cx="17.219" cy="9.559" rx="17.219" ry="9.559" transform="translate(5801.483 2549.093)" fill="#142266"/>
      <ellipse id="Ellipse_225" data-name="Ellipse 225" cx="17.219" cy="9.559" rx="17.219" ry="9.559" transform="translate(5661.068 2549.093)" fill="#142266"/>
      <ellipse id="Ellipse_226" data-name="Ellipse 226" cx="10.228" cy="5.678" rx="10.228" ry="5.678" transform="translate(5671.405 2553.88)" fill="#dc2648"/>
      <ellipse id="Ellipse_227" data-name="Ellipse 227" cx="10.228" cy="5.678" rx="10.228" ry="5.678" transform="translate(5805.129 2553.88)" fill="#dc2648"/>
      <path id="Path_10918" data-name="Path 10918" d="M5748.377,2526.474c-27.589,0-55.178,5.5-82.768,6.093a4.807,4.807,0,0,0-4.7,4.811v19.99a5.888,5.888,0,0,0,5.881,5.893l.155,0c27.142-.735,54.285-6.06,81.427-6.06s54.285,5.326,81.427,6.06a5.887,5.887,0,0,0,6.034-5.736c0-.052,0-.1,0-.155v-19.99a4.8,4.8,0,0,0-4.695-4.811C5803.555,2531.976,5775.966,2526.474,5748.377,2526.474Z" fill="#142266"/>
      <g id="Group_22" data-name="Group 22">
        <g id="Group_21" data-name="Group 21">
          <g id="Group_20" data-name="Group 20">
            <path id="Path_88" data-name="Path 88" d="M5707.076,2553.694q-3.561.336-7.118.73-.891-8.072-1.782-16.142,3.68-.405,7.368-.755,1.434,1.141,2.854,2.291.2,2.277.406,4.554c-.312.365-.621.729-.931,1.093q.557.463,1.111.929.2,2.266.405,4.534Q5708.225,2552.308,5707.076,2553.694Zm-1.684-12.178c-.335-.263-.673-.525-1.009-.787q-1.357.134-2.715.274.182,1.743.361,3.487,1.359-.141,2.716-.274.406-.482.814-.964Q5705.475,2542.384,5705.392,2541.516Zm.795,8.287c-.056-.571-.11-1.143-.165-1.714q-.488-.406-.978-.812-1.35.132-2.7.272.181,1.743.362,3.488,1.327-.138,2.657-.268Q5705.775,2550.286,5706.187,2549.8Z" fill="#fff"/>
            <path id="Path_89" data-name="Path 89" d="M5721.173,2550.029q-1.2,1.348-2.382,2.706-2.295.157-4.59.339-1.371-1.165-2.754-2.324-.577-6.825-1.155-13.649,1.589-.134,3.18-.258.477,6.123.954,12.245.48.4.956.81c.593-.044,1.183-.089,1.774-.131l.824-.943q-.429-6.126-.859-12.252,1.592-.111,3.184-.213Q5720.739,2543.195,5721.173,2550.029Z" fill="#fff"/>
            <path id="Path_90" data-name="Path 90" d="M5731.831,2538.866q-2.576,5.151-5.034,10.327,2.675-.138,5.35-.244.062,1.527.121,3.052-4.443.177-8.883.439-.059-1.525-.118-3.053,2.427-5.2,4.976-10.365-2.815.132-5.633.3-.09-1.547-.182-3.092,4.639-.275,9.28-.457Q5731.77,2537.318,5731.831,2538.866Z" fill="#fff"/>
            <path id="Path_91" data-name="Path 91" d="M5749.226,2551.64q-1.53,0-3.06.019-.031-3.289-.062-6.581-1.8.017-3.6.048.057,3.291.113,6.581-1.54.027-3.079.064-.194-8.118-.389-16.235,1.594-.037,3.188-.066l.114,6.581q1.811-.031,3.626-.048l-.063-6.582q1.583-.015,3.168-.02Q5749.2,2543.521,5749.226,2551.64Z" fill="#fff"/>
            <path id="Path_92" data-name="Path 92" d="M5758.4,2551.705q-2.29-.039-4.579-.055-1.263-1.279-2.541-2.553.009-5.577.016-11.154,1.313-1.271,2.64-2.532,2.37.017,4.74.057,1.3,1.295,2.6,2.595-.126,5.576-.252,11.151Q5759.709,2550.456,5758.4,2551.705Zm-.451-3.965q.067-4.173.133-8.345l-.894-.873q-.907-.014-1.816-.022-.469.435-.937.872-.033,4.162-.068,8.325c.3.3.6.593.9.89l1.778.021Q5757.5,2548.175,5757.953,2547.74Z" fill="#fff"/>
            <path id="Path_93" data-name="Path 93" d="M5772.732,2552.171q-1.581-.075-3.16-.141-.765-3.89-1.56-7.776-.876,1.373-1.744,2.748-.083,2.45-.165,4.9-1.539-.052-3.079-.093.219-8.116.439-16.234,1.593.044,3.188.1-.085,2.562-.173,5.123,1.59-2.511,3.211-5.011,1.838.074,3.675.161-1.48,2.239-2.935,4.486Q5771.616,2546.3,5772.732,2552.171Z" fill="#fff"/>
            <path id="Path_94" data-name="Path 94" d="M5784.461,2552.885q-4.838-.357-9.678-.611.426-8.108.852-16.216,5.013.262,10.019.632-.112,1.534-.226,3.068-3.395-.25-6.79-.452-.1,1.75-.207,3.5,1.57.093,3.14.2-.1,1.533-.2,3.068-1.56-.1-3.12-.2-.1,1.75-.207,3.5,3.322.2,6.645.442Q5784.574,2551.351,5784.461,2552.885Z" fill="#fff"/>
            <path id="Path_95" data-name="Path 95" d="M5797.676,2537.708q-2.232,5.373-4.388,10.765-.236,2.552-.47,5.1-1.536-.141-3.071-.272.218-2.553.435-5.107-1.162-5.687-2.405-11.368,1.656.13,3.308.271.588,2.766,1.155,5.533,1.045-2.624,2.11-5.244Q5796.012,2537.543,5797.676,2537.708Z" fill="#fff"/>
            <path id="Path_96" data-name="Path 96" d="M5799.791,2537.943q1.587.165,3.174.339-.889,8.072-1.781,16.142-1.534-.17-3.067-.329Q5798.952,2546.019,5799.791,2537.943Z" fill="#fff"/>
          </g>
        </g>
        <circle id="Ellipse_5" data-name="Ellipse 5" cx="1.866" cy="1.866" r="1.866" transform="translate(5799.472 2533.55) rotate(-30.853)" fill="#fff"/>
      </g>
    </g>
    <path id="Path_97" data-name="Path 97" d="M5764.228,2437.421s5.229,10.207-5.56,22.647A31.218,31.218,0,0,0,5764.228,2437.421Z" transform="translate(-5701.464 -2702.821)" fill="#fff"/>
    <path id="Path_98" data-name="Path 98" d="M5748.958,2421.214s-10.017-.387-10.064,10.61c0,5.85,7.022,10.429,11.675,9.461C5750.569,2441.285,5734.526,2430.478,5748.958,2421.214Z" transform="translate(-5701.464 -2702.821)" fill="#b5311b"/>
    <path id="Path_99" data-name="Path 99" d="M5751.926,2421.658s4.468.983,6.574,6.784A21.853,21.853,0,0,0,5751.926,2421.658Z" transform="translate(-5701.464 -2702.821)" fill="#fff"/>
    <path id="Path_100" data-name="Path 100" d="M5724.211,2467.753s24.066-4.892,31.6-21.515l-1.528,9.495S5739.286,2466.723,5724.211,2467.753Z" transform="translate(-5701.464 -2702.821)" fill="#b5311b"/>
    <path id="Path_101" data-name="Path 101" d="M5733.017,2437.421s-4.566.508-8.806,5.426a4.638,4.638,0,0,0,0-4.082S5725.5,2439.132,5733.017,2437.421Z" transform="translate(-5701.464 -2702.821)" fill="#b5311b"/>
    <path id="Path_102" data-name="Path 102" d="M5731.916,2427.755s-16.722,3.881-15.874,15.526C5716.042,2443.281,5715.381,2434.287,5731.916,2427.755Z" transform="translate(-5701.464 -2702.821)" fill="#fff"/>
    <path id="Path_103" data-name="Path 103" d="M5688.193,2514.893s.112,6.158,4.56,4.955,14.062-7.17,14.062-7.17S5689.47,2521.994,5688.193,2514.893Z" transform="translate(-5701.464 -2702.821)" fill="#b5311b"/>
    <path id="Path_104" data-name="Path 104" d="M5705.571,2508.343s-1.076-2.532-11.393,3.138C5694.178,2511.481,5702.126,2507.737,5705.571,2508.343Z" transform="translate(-5701.464 -2702.821)" fill="#fff"/>
    <path id="Path_105" data-name="Path 105" d="M5758.668,2475.2s26.368,35.434,37.761,45.7c0,0-3.6-.548-3.13-13.762C5793.3,2507.132,5777.824,2498.858,5758.668,2475.2Z" transform="translate(-5701.464 -2702.821)" fill="#b5311b"/>
    <path id="Path_106" data-name="Path 106" d="M5772.98,2477.852s14.778,20.319,20.319,24.766C5793.3,2502.618,5780.466,2491.288,5772.98,2477.852Z" transform="translate(-5701.464 -2702.821)" fill="#fff"/>
    <path id="Path_107" data-name="Path 107" d="M5741.973,2474.46" transform="translate(-5701.464 -2702.821)" fill="#fff"/>
    <path id="Path_108" data-name="Path 108" d="M5756.356,2475.866s-15.155,5.615-15.559,15.853C5740.8,2491.719,5739.953,2479.5,5756.356,2475.866Z" transform="translate(-5701.464 -2702.821)" fill="#b5311b"/>
    <path id="Path_109" data-name="Path 109" d="M5742.359,2473.774s-11.782,5.479-10.562,21.565C5731.8,2495.339,5730.4,2486.325,5742.359,2473.774Z" transform="translate(-5701.464 -2702.821)" fill="#fff"/>
    <path id="Path_110" data-name="Path 110" d="M5719.641,2469.043a4.708,4.708,0,0,0-4.643,4.731c-.248,1.627,2.35,5.844,8.708,4.078C5723.706,2477.852,5711.219,2473.972,5719.641,2469.043Z" transform="translate(-5701.464 -2702.821)" fill="#b5311b"/>
  </g>
</svg>
