<svg xmlns="http://www.w3.org/2000/svg" width="120" height="100.221" viewBox="0 0 120 100.221"><path d="M118.6,10.5l-4,4.9a43.123,43.123,0,0,0-9.7,22.9,9.618,9.618,0,0,1,3,6.1c.2,2.1,0,6.8-3.5,14.9C100.2,69.1,87.2,75.4,86,76a5.8,5.8,0,0,1-3.4.9,6.364,6.364,0,0,1-3.8-1.2A127.883,127.883,0,0,1,58.9,57.4l-3-3.4c-.2-.2-.4-.5-.6-.7h0l-3-3.4A138.952,138.952,0,0,0,42.2,39.7h0C39.7,41.1,31.2,49,32,56.3A55.911,55.911,0,0,1,42.4,94.1a6.412,6.412,0,1,1-12.8-.8V93a43.074,43.074,0,0,0-3.3-20.7A55.427,55.427,0,0,1,15.5,92.8l-4,4.9a6.267,6.267,0,0,1-5,2.3A6.4,6.4,0,0,1,0,93.6a6.1,6.1,0,0,1,1.5-4.1l4-4.9a43.235,43.235,0,0,0,9.9-24.5V60A9.478,9.478,0,0,1,13,54.5c-.2-2.1,0-6.8,3.5-14.9,3.9-9,15.5-15.3,18.4-16.8l.6-.3a6.531,6.531,0,0,1,6.6.6A127.883,127.883,0,0,1,62,41.4l3,3.4c.2.2.4.5.6.7h0l3,3.4A121.524,121.524,0,0,0,78.7,59.1c2.3-1.6,6.4-4.4,8-7.5,2.5-4.7,2.1-7,2-7.4A56.026,56.026,0,0,1,77.8,5.9a6.412,6.412,0,0,1,12.8.8V7a42.205,42.205,0,0,0,3.2,20.7A55.427,55.427,0,0,1,104.6,7.2l4-4.9a6.267,6.267,0,0,1,5-2.3A6.38,6.38,0,0,1,120,6.4a6.773,6.773,0,0,1-1.4,4.1ZM56,23.2a9.943,9.943,0,1,0-11.7-7.8h0A9.918,9.918,0,0,0,56,23.2Zm8.7,52.5a9.943,9.943,0,1,0,11.7,7.8h0a9.918,9.918,0,0,0-11.7-7.8Z" transform="translate(0 0.11)" fill="#0b0539"/></svg>