<svg xmlns="http://www.w3.org/2000/svg" width="181" height="180.95" viewBox="0 0 181 180.95">
  <g id="atletizm" transform="translate(-826.205 300.674)">
    <g id="Group_3388" data-name="Group 3388" transform="translate(-5701.464 -2702.821)">
      <g id="Group_3095" data-name="Group 3095">
        <path id="Path_10858" data-name="Path 10858" d="M6622.572,2542.405a.387.387,0,0,1,.428-.339l.016,0a22.706,22.706,0,0,0,5.729-.12c3.286-.364,6.521.562,6.408,4.75a.383.383,0,0,1-.394.372.315.315,0,0,1-.055-.006c-.665-.119-2.318-.189-6.277.447C6623.846,2548.245,6622.2,2545.561,6622.572,2542.405Z" fill="#142266"/>
        <path id="Path_10859" data-name="Path 10859" d="M6618.991,2541.885a.385.385,0,0,0,.489.241l.011,0a22.685,22.685,0,0,1,5.632-1.056c3.291-.317,6.269-1.884,5.3-5.962a.384.384,0,0,0-.464-.282.373.373,0,0,0-.051.016c-.626.254-2.23.66-6.236.849C6619.046,2535.905,6617.987,2538.871,6618.991,2541.885Z" fill="#142266"/>
      </g>
      <g id="Group_3096" data-name="Group 3096">
        <path id="Path_10860" data-name="Path 10860" d="M6636.521,2540.045a.386.386,0,0,1,.349-.42h.016a22.8,22.8,0,0,0,5.579-1.308c3.138-1.039,6.5-.807,7.256,3.314a.384.384,0,0,1-.31.446.417.417,0,0,1-.053.006c-.675.021-2.307.3-6.048,1.741C6638.984,2545.487,6636.82,2543.207,6636.521,2540.045Z" fill="#142266"/>
        <path id="Path_10861" data-name="Path 10861" d="M6632.914,2540.278a.385.385,0,0,0,.528.137l.014-.008a22.734,22.734,0,0,1,5.289-2.2c3.153-.993,5.74-3.146,3.945-6.933a.383.383,0,0,0-.512-.181.373.373,0,0,0-.047.027c-.56.378-2.044,1.109-5.923,2.127C6631.724,2534.42,6631.305,2537.539,6632.914,2540.278Z" fill="#142266"/>
      </g>
      <g id="Group_3097" data-name="Group 3097">
        <path id="Path_10862" data-name="Path 10862" d="M6649.678,2534.835a.386.386,0,0,1,.253-.484l.016,0a22.794,22.794,0,0,0,5.185-2.439c2.854-1.669,6.186-2.14,7.786,1.733a.383.383,0,0,1-.211.5.46.46,0,0,1-.05.017c-.656.161-2.194.77-5.553,2.96C6653.225,2539.65,6650.625,2537.865,6649.678,2534.835Z" fill="#142266"/>
        <path id="Path_10863" data-name="Path 10863" d="M6646.2,2535.815a.386.386,0,0,0,.545.023l.012-.011a22.684,22.684,0,0,1,4.716-3.255c2.877-1.627,4.96-4.271,2.417-7.6a.383.383,0,0,0-.537-.071.344.344,0,0,0-.041.036c-.469.486-1.769,1.51-5.351,3.312C6643.816,2530.332,6644.055,2533.469,6646.2,2535.815Z" fill="#142266"/>
      </g>
      <g id="Group_3098" data-name="Group 3098">
        <path id="Path_10864" data-name="Path 10864" d="M6661.466,2527a.387.387,0,0,1,.148-.526l.014-.007a22.768,22.768,0,0,0,4.564-3.464c2.444-2.226,5.6-3.379,7.976.076a.383.383,0,0,1-.1.532.471.471,0,0,1-.048.028c-.608.294-1.986,1.21-4.816,4.05C6665.931,2530.977,6663.025,2529.771,6661.466,2527Z" fill="#142266"/>
        <path id="Path_10865" data-name="Path 10865" d="M6658.265,2528.685a.387.387,0,0,0,.539-.088l.008-.012a22.707,22.707,0,0,1,3.936-4.164c2.476-2.19,3.964-5.209.784-7.938a.383.383,0,0,0-.573.087c-.358.573-1.417,1.844-4.546,4.352C6654.795,2523.817,6655.681,2526.837,6658.265,2528.685Z" fill="#142266"/>
      </g>
      <g id="Group_3099" data-name="Group 3099">
        <path id="Path_10866" data-name="Path 10866" d="M6671.365,2516.893a.387.387,0,0,1,.035-.545l.012-.01a22.749,22.749,0,0,0,3.744-4.338c1.928-2.685,4.781-4.47,7.818-1.584a.385.385,0,0,1,.012.543.431.431,0,0,1-.04.036c-.533.414-1.692,1.6-3.869,4.963C6676.559,2519.85,6673.465,2519.276,6671.365,2516.893Z" fill="#142266"/>
        <path id="Path_10867" data-name="Path 10867" d="M6668.584,2519.2a.385.385,0,0,0,.508-.2l.006-.014a22.725,22.725,0,0,1,2.984-4.891c1.967-2.657,2.795-5.919-.883-7.928a.384.384,0,0,0-.521.153.335.335,0,0,0-.021.047c-.231.635-1,2.1-3.542,5.2C6664.178,2515.162,6665.668,2517.932,6668.584,2519.2Z" fill="#142266"/>
      </g>
      <g id="Group_3100" data-name="Group 3100">
        <path id="Path_10868" data-name="Path 10868" d="M6678.947,2504.949a.387.387,0,0,1-.079-.541l.01-.012a22.784,22.784,0,0,0,2.761-5.021c1.327-3.028,3.746-5.367,7.318-3.175a.382.382,0,0,1,.125.526.313.313,0,0,1-.032.046c-.436.516-1.323,1.912-2.753,5.659C6684.643,2506.758,6681.5,2506.84,6678.947,2504.949Z" fill="#142266"/>
        <path id="Path_10869" data-name="Path 10869" d="M6676.708,2507.783a.386.386,0,0,0,.455-.3l0-.016a22.742,22.742,0,0,1,1.9-5.405c1.371-3.008,1.5-6.37-2.513-7.569a.382.382,0,0,0-.476.258.363.363,0,0,0-.012.054c-.094.668-.544,2.261-2.382,5.824C6671.558,2504.748,6673.6,2507.146,6676.708,2507.783Z" fill="#142266"/>
      </g>
      <g id="Group_3101" data-name="Group 3101">
        <path id="Path_10870" data-name="Path 10870" d="M6683.879,2491.681a.387.387,0,0,1-.19-.511l.008-.015a22.76,22.76,0,0,0,1.656-5.486c.669-3.237,2.548-6.029,6.5-4.626a.383.383,0,0,1,.231.49c-.006.017-.014.033-.022.05-.319.6-.9,2.146-1.516,6.108C6689.828,2492.272,6686.767,2493,6683.879,2491.681Z" fill="#142266"/>
        <path id="Path_10871" data-name="Path 10871" d="M6682.278,2494.923a.388.388,0,0,0,.383-.39v-.016a22.741,22.741,0,0,1,.737-5.682c.716-3.228.145-6.544-4.032-6.884a.386.386,0,0,0-.412.355.462.462,0,0,0,0,.052c.047.674-.062,2.325-1.119,6.193C6676.61,2493.023,6679.1,2494.947,6682.278,2494.923Z" fill="#142266"/>
      </g>
      <g id="Group_3102" data-name="Group 3102">
        <path id="Path_10872" data-name="Path 10872" d="M6685.946,2477.682a.387.387,0,0,1-.292-.462l0-.015a22.769,22.769,0,0,0,.48-5.71c-.019-3.306,1.239-6.427,5.394-5.877a.381.381,0,0,1,.328.43.347.347,0,0,1-.011.055c-.188.649-.43,2.286-.213,6.29C6691.887,2477.022,6689.046,2478.375,6685.946,2477.682Z" fill="#142266"/>
        <path id="Path_10873" data-name="Path 10873" d="M6685.057,2481.185a.387.387,0,0,0,.293-.461l0-.015a22.726,22.726,0,0,1-.461-5.711c.029-3.306-1.219-6.431-5.375-5.894a.383.383,0,0,0-.33.431.5.5,0,0,0,.011.053c.186.649.423,2.287.193,6.29C6679.115,2480.507,6681.952,2481.869,6685.057,2481.185Z" fill="#142266"/>
      </g>
      <g id="Group_3103" data-name="Group 3103">
        <path id="Path_10874" data-name="Path 10874" d="M6685.057,2463.56a.386.386,0,0,1-.38-.392v-.015a22.734,22.734,0,0,0-.718-5.685c-.706-3.229-.124-6.544,4.054-6.87a.384.384,0,0,1,.411.355.484.484,0,0,1,0,.053c-.049.674.054,2.325,1.1,6.2C6690.732,2461.679,6688.234,2463.594,6685.057,2463.56Z" fill="#142266"/>
        <path id="Path_10875" data-name="Path 10875" d="M6684.913,2467.172a.388.388,0,0,0,.191-.512l-.007-.014a22.733,22.733,0,0,1-1.639-5.49c-.658-3.24-2.529-6.037-6.483-4.648a.382.382,0,0,0-.234.488.426.426,0,0,0,.023.052c.317.6.889,2.149,1.5,6.113C6678.967,2467.747,6682.021,2468.486,6684.913,2467.172Z" fill="#142266"/>
      </g>
      <g id="Group_3104" data-name="Group 3104">
        <path id="Path_10876" data-name="Path 10876" d="M6681.251,2449.931a.387.387,0,0,1-.454-.3l0-.016a22.749,22.749,0,0,0-1.884-5.411c-1.362-3.012-1.482-6.375,2.537-7.562a.382.382,0,0,1,.475.259.511.511,0,0,1,.012.055c.092.669.536,2.263,2.364,5.833C6686.415,2446.912,6684.365,2449.3,6681.251,2449.931Z" fill="#142266"/>
        <path id="Path_10877" data-name="Path 10877" d="M6681.861,2453.494a.385.385,0,0,0,.081-.54l-.01-.013a22.78,22.78,0,0,1-2.744-5.03c-1.318-3.032-3.729-5.379-7.307-3.2a.384.384,0,0,0-.125.528.45.45,0,0,0,.031.044c.434.517,1.317,1.917,2.734,5.668C6676.159,2455.29,6679.305,2455.38,6681.861,2453.494Z" fill="#142266"/>
      </g>
      <g id="Group_3105" data-name="Group 3105">
        <path id="Path_10878" data-name="Path 10878" d="M6674.695,2437.39a.386.386,0,0,1-.507-.2l-.006-.014a22.739,22.739,0,0,0-2.968-4.9c-1.958-2.663-2.775-5.928.91-7.925a.384.384,0,0,1,.52.156.479.479,0,0,1,.022.05c.229.635,1,2.1,3.524,5.214C6679.113,2433.364,6677.61,2436.129,6674.695,2437.39Z" fill="#142266"/>
        <path id="Path_10879" data-name="Path 10879" d="M6676.032,2440.749a.386.386,0,0,0-.034-.545l-.012-.01a22.764,22.764,0,0,1-3.73-4.35c-1.919-2.692-4.766-4.487-7.813-1.609a.382.382,0,0,0-.013.542.4.4,0,0,0,.039.037c.532.416,1.687,1.6,3.853,4.976C6670.828,2443.691,6673.924,2443.126,6676.032,2440.749Z" fill="#142266"/>
      </g>
      <g id="Group_3106" data-name="Group 3106">
        <path id="Path_10880" data-name="Path 10880" d="M6665.674,2426.486a.386.386,0,0,1-.538-.093l-.009-.013a22.742,22.742,0,0,0-3.922-4.177c-2.469-2.2-3.947-5.222-.758-7.94a.384.384,0,0,1,.541.045.419.419,0,0,1,.032.043c.356.574,1.411,1.849,4.531,4.367C6669.159,2421.63,6668.264,2424.646,6665.674,2426.486Z" fill="#142266"/>
        <path id="Path_10881" data-name="Path 10881" d="M6667.681,2429.5a.386.386,0,0,0-.147-.526l-.013-.007a22.8,22.8,0,0,1-4.553-3.479c-2.437-2.234-5.594-3.4-7.976.05a.383.383,0,0,0,.1.532.4.4,0,0,0,.048.029c.607.3,1.982,1.216,4.8,4.066C6663.2,2433.453,6666.113,2432.256,6667.681,2429.5Z" fill="#142266"/>
      </g>
      <g id="Group_3107" data-name="Group 3107">
        <path id="Path_10882" data-name="Path 10882" d="M6654.585,2417.7a.387.387,0,0,1-.545.022l-.012-.011a22.762,22.762,0,0,0-4.7-3.271c-2.872-1.637-4.946-4.287-2.392-7.609a.383.383,0,0,1,.537-.069.322.322,0,0,1,.041.037c.468.487,1.764,1.516,5.34,3.329C6656.984,2412.223,6656.735,2415.359,6654.585,2417.7Z" fill="#142266"/>
        <path id="Path_10883" data-name="Path 10883" d="M6657.173,2420.222a.387.387,0,0,0-.252-.485l-.016,0a22.8,22.8,0,0,1-5.177-2.456c-2.848-1.678-6.178-2.16-7.792,1.708a.383.383,0,0,0,.207.5.515.515,0,0,0,.053.018c.655.163,2.192.777,5.544,2.978C6653.615,2425.026,6656.214,2423.25,6657.173,2420.222Z" fill="#142266"/>
      </g>
      <g id="Group_3108" data-name="Group 3108">
        <path id="Path_10884" data-name="Path 10884" d="M6641.908,2411.405a.387.387,0,0,1-.529.134l-.014-.008a22.678,22.678,0,0,0-5.282-2.221c-3.15-1-5.729-3.165-3.922-6.946a.384.384,0,0,1,.513-.179.44.44,0,0,1,.046.027c.559.379,2.041,1.116,5.916,2.146C6643.117,2405.551,6643.526,2408.671,6641.908,2411.405Z" fill="#142266"/>
        <path id="Path_10885" data-name="Path 10885" d="M6644.961,2413.337a.386.386,0,0,0-.348-.421h-.015a22.8,22.8,0,0,1-5.574-1.326c-3.135-1.05-6.493-.829-7.266,3.29a.385.385,0,0,0,.308.447.455.455,0,0,0,.054.006c.675.024,2.306.3,6.042,1.76C6642.484,2418.776,6644.661,2416.5,6644.961,2413.337Z" fill="#142266"/>
      </g>
      <g id="Group_3109" data-name="Group 3109">
        <path id="Path_10886" data-name="Path 10886" d="M6614.064,2542.405a.387.387,0,0,0-.429-.339l-.015,0a22.705,22.705,0,0,1-5.729-.12c-3.286-.364-6.521.562-6.408,4.75a.383.383,0,0,0,.394.372.326.326,0,0,0,.055-.006c.665-.119,2.318-.189,6.277.447C6612.787,2548.245,6614.43,2545.561,6614.064,2542.405Z" fill="#142266"/>
        <path id="Path_10887" data-name="Path 10887" d="M6617.641,2541.885a.386.386,0,0,1-.489.241l-.011,0a22.693,22.693,0,0,0-5.632-1.056c-3.291-.317-6.269-1.884-5.3-5.962a.384.384,0,0,1,.464-.282.46.46,0,0,1,.051.016c.626.254,2.23.66,6.236.849C6617.59,2535.905,6618.645,2538.871,6617.641,2541.885Z" fill="#142266"/>
      </g>
      <g id="Group_3110" data-name="Group 3110">
        <path id="Path_10888" data-name="Path 10888" d="M6600.111,2540.045a.385.385,0,0,0-.349-.42h-.016a22.8,22.8,0,0,1-5.579-1.308c-3.138-1.039-6.5-.807-7.256,3.314a.384.384,0,0,0,.31.446.4.4,0,0,0,.053.006c.675.021,2.306.3,6.047,1.741C6597.648,2545.487,6599.813,2543.207,6600.111,2540.045Z" fill="#142266"/>
        <path id="Path_10889" data-name="Path 10889" d="M6603.719,2540.278a.387.387,0,0,1-.529.137l-.013-.008a22.73,22.73,0,0,0-5.289-2.2c-3.153-.993-5.74-3.146-3.945-6.933a.384.384,0,0,1,.512-.181.449.449,0,0,1,.047.027c.56.378,2.044,1.109,5.923,2.127C6604.908,2534.42,6605.327,2537.539,6603.719,2540.278Z" fill="#142266"/>
      </g>
      <g id="Group_3111" data-name="Group 3111">
        <path id="Path_10890" data-name="Path 10890" d="M6586.954,2534.835a.387.387,0,0,0-.254-.484l-.015,0a22.784,22.784,0,0,1-5.185-2.439c-2.854-1.669-6.186-2.14-7.786,1.733a.383.383,0,0,0,.211.5.434.434,0,0,0,.05.017c.656.161,2.194.77,5.553,2.96C6583.411,2539.65,6586,2537.865,6586.954,2534.835Z" fill="#142266"/>
        <path id="Path_10891" data-name="Path 10891" d="M6590.434,2535.815a.386.386,0,0,1-.545.023l-.012-.011a22.681,22.681,0,0,0-4.716-3.255c-2.877-1.627-4.96-4.271-2.417-7.6a.382.382,0,0,1,.537-.071.344.344,0,0,1,.041.036c.469.486,1.769,1.51,5.351,3.312C6592.819,2530.332,6592.577,2533.469,6590.434,2535.815Z" fill="#142266"/>
      </g>
      <g id="Group_3112" data-name="Group 3112">
        <path id="Path_10892" data-name="Path 10892" d="M6575.169,2527a.387.387,0,0,0-.148-.526l-.014-.007a22.8,22.8,0,0,1-4.564-3.464c-2.444-2.226-5.6-3.379-7.976.076a.384.384,0,0,0,.1.532.478.478,0,0,0,.048.028c.608.294,1.986,1.21,4.817,4.05C6570.7,2530.977,6573.613,2529.771,6575.169,2527Z" fill="#142266"/>
        <path id="Path_10893" data-name="Path 10893" d="M6578.369,2528.685a.387.387,0,0,1-.539-.088l-.008-.012a22.7,22.7,0,0,0-3.936-4.164c-2.476-2.19-3.964-5.209-.784-7.938a.38.38,0,0,1,.573.087c.358.573,1.417,1.844,4.546,4.352C6581.838,2523.817,6580.952,2526.837,6578.369,2528.685Z" fill="#142266"/>
      </g>
      <g id="Group_3113" data-name="Group 3113">
        <path id="Path_10894" data-name="Path 10894" d="M6565.265,2516.893a.386.386,0,0,0-.036-.545l-.012-.01a22.766,22.766,0,0,1-3.744-4.338c-1.928-2.685-4.781-4.47-7.818-1.584a.385.385,0,0,0-.012.543.431.431,0,0,0,.04.036c.534.414,1.692,1.6,3.869,4.963C6560.073,2519.85,6563.165,2519.276,6565.265,2516.893Z" fill="#142266"/>
        <path id="Path_10895" data-name="Path 10895" d="M6568.049,2519.2a.385.385,0,0,1-.508-.2l-.006-.014a22.746,22.746,0,0,0-2.984-4.891c-1.967-2.657-2.794-5.919.884-7.928a.384.384,0,0,1,.521.153.4.4,0,0,1,.021.047c.231.635,1,2.1,3.541,5.2C6572.455,2515.162,6570.96,2517.932,6568.049,2519.2Z" fill="#142266"/>
      </g>
      <g id="Group_3114" data-name="Group 3114">
        <path id="Path_10896" data-name="Path 10896" d="M6557.685,2504.949a.388.388,0,0,0,.079-.541l-.01-.012a22.783,22.783,0,0,1-2.761-5.021c-1.328-3.028-3.746-5.367-7.318-3.175a.382.382,0,0,0-.125.526.355.355,0,0,0,.032.046c.436.516,1.323,1.912,2.753,5.659C6551.985,2506.758,6555.136,2506.84,6557.685,2504.949Z" fill="#142266"/>
        <path id="Path_10897" data-name="Path 10897" d="M6559.925,2507.783a.386.386,0,0,1-.455-.3l0-.016a22.742,22.742,0,0,0-1.9-5.405c-1.371-3.008-1.5-6.37,2.513-7.569a.382.382,0,0,1,.476.258.438.438,0,0,1,.012.054c.094.668.544,2.261,2.383,5.824C6565.075,2504.748,6563.041,2507.146,6559.925,2507.783Z" fill="#142266"/>
      </g>
      <g id="Group_3115" data-name="Group 3115">
        <path id="Path_10898" data-name="Path 10898" d="M6552.754,2491.681a.387.387,0,0,0,.19-.511l-.008-.015a22.782,22.782,0,0,1-1.656-5.486c-.669-3.237-2.548-6.029-6.5-4.626a.383.383,0,0,0-.232.489.459.459,0,0,0,.022.051c.319.6.9,2.146,1.516,6.108C6546.805,2492.272,6549.868,2493,6552.754,2491.681Z" fill="#142266"/>
        <path id="Path_10899" data-name="Path 10899" d="M6554.356,2494.923a.386.386,0,0,1-.382-.39v-.016a22.718,22.718,0,0,0-.736-5.682c-.716-3.228-.146-6.544,4.031-6.884a.385.385,0,0,1,.412.352.515.515,0,0,1,0,.055c-.047.674.062,2.325,1.12,6.193C6560.023,2493.023,6557.531,2494.947,6554.356,2494.923Z" fill="#142266"/>
      </g>
      <g id="Group_3116" data-name="Group 3116">
        <path id="Path_10900" data-name="Path 10900" d="M6550.686,2477.682a.387.387,0,0,0,.292-.462l0-.015a22.724,22.724,0,0,1-.48-5.71c.019-3.306-1.239-6.427-5.394-5.877a.382.382,0,0,0-.328.43.3.3,0,0,0,.011.055c.188.649.43,2.286.213,6.29C6544.745,2477.022,6547.586,2478.375,6550.686,2477.682Z" fill="#142266"/>
        <path id="Path_10901" data-name="Path 10901" d="M6551.579,2481.185a.387.387,0,0,1-.293-.461l0-.015a22.725,22.725,0,0,0,.461-5.711c-.029-3.306,1.219-6.431,5.375-5.894a.384.384,0,0,1,.33.431.289.289,0,0,1-.011.053c-.186.649-.423,2.287-.193,6.29C6557.518,2480.507,6554.681,2481.869,6551.579,2481.185Z" fill="#142266"/>
      </g>
      <g id="Group_3117" data-name="Group 3117">
        <path id="Path_10902" data-name="Path 10902" d="M6551.573,2463.56a.387.387,0,0,0,.381-.392v-.015a22.757,22.757,0,0,1,.718-5.685c.706-3.229.124-6.544-4.054-6.87a.383.383,0,0,0-.411.353.52.52,0,0,0,0,.055c.049.674-.055,2.325-1.1,6.2C6545.9,2461.679,6548.4,2463.594,6551.573,2463.56Z" fill="#142266"/>
        <path id="Path_10903" data-name="Path 10903" d="M6551.721,2467.172a.387.387,0,0,1-.191-.512l.007-.014a22.754,22.754,0,0,0,1.639-5.49c.659-3.24,2.529-6.037,6.483-4.648a.383.383,0,0,1,.234.488.518.518,0,0,1-.023.052c-.317.6-.889,2.149-1.5,6.113C6557.671,2467.747,6554.613,2468.486,6551.721,2467.172Z" fill="#142266"/>
      </g>
      <g id="Group_3118" data-name="Group 3118">
        <path id="Path_10904" data-name="Path 10904" d="M6555.381,2449.931a.387.387,0,0,0,.454-.3l0-.016a22.707,22.707,0,0,1,1.884-5.411c1.362-3.012,1.482-6.375-2.537-7.562a.382.382,0,0,0-.475.259.349.349,0,0,0-.012.055c-.092.669-.536,2.263-2.364,5.833C6550.222,2446.912,6552.267,2449.3,6555.381,2449.931Z" fill="#142266"/>
        <path id="Path_10905" data-name="Path 10905" d="M6554.771,2453.494a.385.385,0,0,1-.081-.54l.01-.013a22.758,22.758,0,0,0,2.744-5.03c1.318-3.032,3.729-5.379,7.307-3.2a.383.383,0,0,1,.127.526.491.491,0,0,1-.033.046c-.434.517-1.316,1.917-2.734,5.668C6560.473,2455.29,6557.327,2455.38,6554.771,2453.494Z" fill="#142266"/>
      </g>
      <g id="Group_3119" data-name="Group 3119">
        <path id="Path_10906" data-name="Path 10906" d="M6561.938,2437.39a.386.386,0,0,0,.507-.2l.006-.014a22.718,22.718,0,0,1,2.968-4.9c1.958-2.663,2.775-5.928-.91-7.925a.382.382,0,0,0-.519.156.29.29,0,0,0-.022.05c-.229.635-1,2.1-3.525,5.214C6557.519,2433.364,6559.022,2436.129,6561.938,2437.39Z" fill="#142266"/>
        <path id="Path_10907" data-name="Path 10907" d="M6560.6,2440.749a.386.386,0,0,1,.034-.545l.012-.01a22.764,22.764,0,0,0,3.73-4.35c1.919-2.692,4.766-4.487,7.813-1.609a.384.384,0,0,1,.013.542l-.04.037c-.532.416-1.686,1.6-3.853,4.976C6565.8,2443.691,6562.708,2443.126,6560.6,2440.749Z" fill="#142266"/>
      </g>
      <g id="Group_3120" data-name="Group 3120">
        <path id="Path_10908" data-name="Path 10908" d="M6570.959,2426.486a.387.387,0,0,0,.538-.093l.009-.013a22.745,22.745,0,0,1,3.922-4.177c2.469-2.2,3.947-5.222.758-7.94a.384.384,0,0,0-.541.045.419.419,0,0,0-.032.043c-.356.574-1.411,1.849-4.532,4.367C6567.474,2421.63,6568.369,2424.646,6570.959,2426.486Z" fill="#142266"/>
        <path id="Path_10909" data-name="Path 10909" d="M6568.952,2429.5a.386.386,0,0,1,.147-.526l.013-.007a22.832,22.832,0,0,0,4.553-3.479c2.437-2.234,5.594-3.4,7.976.05a.383.383,0,0,1-.1.533.3.3,0,0,1-.046.028c-.607.3-1.983,1.216-4.8,4.066C6573.431,2433.453,6570.52,2432.256,6568.952,2429.5Z" fill="#142266"/>
      </g>
      <g id="Group_3121" data-name="Group 3121">
        <path id="Path_10910" data-name="Path 10910" d="M6582.049,2417.7a.387.387,0,0,0,.545.022l.012-.011a22.752,22.752,0,0,1,4.7-3.271c2.872-1.637,4.946-4.287,2.392-7.609a.383.383,0,0,0-.539-.067.241.241,0,0,0-.039.035c-.468.487-1.764,1.516-5.34,3.329C6579.65,2412.223,6579.9,2415.359,6582.049,2417.7Z" fill="#142266"/>
        <path id="Path_10911" data-name="Path 10911" d="M6579.461,2420.222a.387.387,0,0,1,.252-.485l.016,0a22.8,22.8,0,0,0,5.177-2.456c2.848-1.678,6.179-2.16,7.792,1.708a.383.383,0,0,1-.207.5.486.486,0,0,1-.053.018c-.655.163-2.192.777-5.544,2.978C6583.018,2425.026,6580.42,2423.25,6579.461,2420.222Z" fill="#142266"/>
      </g>
      <g id="Group_3122" data-name="Group 3122">
        <path id="Path_10912" data-name="Path 10912" d="M6594.725,2411.405a.386.386,0,0,0,.529.134l.014-.008a22.683,22.683,0,0,1,5.282-2.221c3.15-1,5.729-3.165,3.922-6.946a.385.385,0,0,0-.513-.179.433.433,0,0,0-.046.027c-.559.379-2.041,1.116-5.916,2.146C6593.516,2405.551,6593.107,2408.671,6594.725,2411.405Z" fill="#142266"/>
        <path id="Path_10913" data-name="Path 10913" d="M6591.668,2413.337a.386.386,0,0,1,.348-.421h.016a22.806,22.806,0,0,0,5.574-1.326c3.135-1.05,6.493-.829,7.266,3.29a.381.381,0,0,1-.306.446.34.34,0,0,1-.056.007c-.675.024-2.3.3-6.042,1.76C6594.149,2418.776,6591.976,2416.5,6591.668,2413.337Z" fill="#142266"/>
      </g>
    </g>
    <g id="Group_3389" data-name="Group 3389" transform="translate(-5701.464 -2702.821)">
      <g id="Group_3124" data-name="Group 3124">
        <path id="Path_10914" data-name="Path 10914" d="M6618.17,2562.664l-76.121-77.573-2.5,10.058,78.621,80.121,78.621-80.121-2.5-10.058Z" fill="#e65416"/>
        <path id="Path_10915" data-name="Path 10915" d="M6694.291,2485.09l-2.833-11.4c-31.187-3.9-51.662-17.144-63.632-28.04a99.3,99.3,0,0,1-9.656-10.114,99.24,99.24,0,0,1-9.656,10.114c-11.97,10.9-32.444,24.144-63.632,28.04l-2.833,11.4,76.121,77.573Z" fill="#b5311b"/>
      </g>
      <path id="Path_10916" data-name="Path 10916" d="M6700.613,2463.321c-62.61-4.005-82.444-46.74-82.444-46.74s-19.835,42.735-82.444,46.74l-8.056,31.144,90.5,88.632,90.5-88.632Zm-161.066,31.828,5.334-21.457c31.188-3.9,51.662-17.144,63.632-28.04a99.266,99.266,0,0,0,9.656-10.114,99.217,99.217,0,0,0,9.656,10.114c11.97,10.9,32.444,24.144,63.632,28.04l5.334,21.457-78.621,80.121Z" fill="#142266"/>
    </g>
    <g id="Group_12" data-name="Group 12" transform="translate(-5701.464 -2702.821)">
      <g id="Group_9" data-name="Group 9">
        <path id="Path_27" data-name="Path 27" d="M6563.525,2446.666h17.315a3.421,3.421,0,0,0,0-6.842h-17.315a3.421,3.421,0,0,0,0,6.842Z" fill="none" stroke="#142266" stroke-linecap="square" stroke-width="19"/>
        <path id="Path_28" data-name="Path 28" d="M6580.841,2467.192h-17.316a3.422,3.422,0,0,0,0,6.843h17.316a3.422,3.422,0,0,0,0-6.843Z" fill="none" stroke="#142266" stroke-linecap="square" stroke-width="19"/>
        <path id="Path_29" data-name="Path 29" d="M6577.427,2456.93a3.421,3.421,0,0,0-3.421-3.421H6556.69a3.421,3.421,0,0,0,0,6.842h17.316A3.421,3.421,0,0,0,6577.427,2456.93Z" fill="none" stroke="#142266" stroke-linecap="square" stroke-width="19"/>
        <path id="Path_30" data-name="Path 30" d="M6663.1,2470.614h-20.742v-13.681a6.846,6.846,0,0,0-11.666-4.835l-27.34,27.369a6.846,6.846,0,0,0,0,9.67l15.675,15.7-19.088,19.112a6.835,6.835,0,0,0,9.66,9.671l23.923-23.948a6.847,6.847,0,0,0,0-9.671l-15.676-15.7,10.845-10.857v4.007a6.829,6.829,0,0,0,6.816,6.842H6663.1a6.842,6.842,0,0,0,0-13.68Z" fill="none" stroke="#142266" stroke-linecap="square" stroke-width="19"/>
        <path id="Path_31" data-name="Path 31" d="M6599.208,2465.3l.111-.111,14.832-14.847,4.989,3.606,6.676-6.682a13.83,13.83,0,0,1,3.873-2.668l-12.6-8.763a6.833,6.833,0,0,0-8.636.867l-18.795,18.816a6.835,6.835,0,0,0,9.549,9.782Z" fill="none" stroke="#142266" stroke-linecap="square" stroke-width="19"/>
        <path id="Path_32" data-name="Path 32" d="M6598.522,2493.969a13.681,13.681,0,0,1-3.509-6.18l-36.089,36.15a6.835,6.835,0,0,0,9.548,9.783l.112-.112,34.763-34.805Z" fill="none" stroke="#142266" stroke-linecap="square" stroke-width="19"/>
        <path id="Path_33" data-name="Path 33" d="M6645.775,2450.088a10.264,10.264,0,1,0-10.253-10.264A10.259,10.259,0,0,0,6645.775,2450.088Z" fill="none" stroke="#142266" stroke-linecap="square" stroke-width="19"/>
      </g>
      <g id="Group_10" data-name="Group 10">
        <path id="Path_34" data-name="Path 34" d="M6563.525,2446.666h17.315a3.421,3.421,0,0,0,0-6.842h-17.315a3.421,3.421,0,0,0,0,6.842Z" fill="#142266"/>
        <path id="Path_35" data-name="Path 35" d="M6580.841,2467.192h-17.316a3.422,3.422,0,0,0,0,6.843h17.316a3.422,3.422,0,0,0,0-6.843Z" fill="#142266"/>
        <path id="Path_36" data-name="Path 36" d="M6577.427,2456.93a3.421,3.421,0,0,0-3.421-3.421H6556.69a3.421,3.421,0,0,0,0,6.842h17.316A3.421,3.421,0,0,0,6577.427,2456.93Z" fill="#142266"/>
        <path id="Path_37" data-name="Path 37" d="M6663.1,2470.614h-20.742v-13.681a6.846,6.846,0,0,0-11.666-4.835l-27.34,27.369a6.846,6.846,0,0,0,0,9.67l15.675,15.7-19.088,19.112a6.835,6.835,0,0,0,9.66,9.671l23.923-23.948a6.847,6.847,0,0,0,0-9.671l-15.676-15.7,10.845-10.857v4.007a6.829,6.829,0,0,0,6.816,6.842H6663.1a6.842,6.842,0,0,0,0-13.68Z" fill="#142266"/>
        <path id="Path_38" data-name="Path 38" d="M6599.208,2465.3l.111-.111,14.832-14.847,4.989,3.606,6.676-6.682a13.83,13.83,0,0,1,3.873-2.668l-12.6-8.763a6.833,6.833,0,0,0-8.636.867l-18.795,18.816a6.835,6.835,0,0,0,9.549,9.782Z" fill="#142266"/>
        <path id="Path_39" data-name="Path 39" d="M6598.522,2493.969a13.681,13.681,0,0,1-3.509-6.18l-36.089,36.15a6.835,6.835,0,0,0,9.548,9.783l.112-.112,34.763-34.805Z" fill="#142266"/>
        <path id="Path_40" data-name="Path 40" d="M6645.775,2450.088a10.264,10.264,0,1,0-10.253-10.264A10.259,10.259,0,0,0,6645.775,2450.088Z" fill="#142266"/>
      </g>
      <g id="Group_11" data-name="Group 11">
        <path id="Path_41" data-name="Path 41" d="M6563.525,2446.666h17.315a3.421,3.421,0,0,0,0-6.842h-17.315a3.421,3.421,0,0,0,0,6.842Z" fill="#e65416"/>
        <path id="Path_42" data-name="Path 42" d="M6580.841,2467.192h-17.316a3.422,3.422,0,0,0,0,6.843h17.316a3.422,3.422,0,0,0,0-6.843Z" fill="#e65416"/>
        <path id="Path_43" data-name="Path 43" d="M6577.427,2456.93a3.421,3.421,0,0,0-3.421-3.421H6556.69a3.421,3.421,0,0,0,0,6.842h17.316A3.421,3.421,0,0,0,6577.427,2456.93Z" fill="#e65416"/>
        <path id="Path_44" data-name="Path 44" d="M6663.1,2470.614h-20.742v-13.681a6.846,6.846,0,0,0-11.666-4.835l-27.34,27.369a6.846,6.846,0,0,0,0,9.67l15.675,15.7-19.088,19.112a6.835,6.835,0,0,0,9.66,9.671l23.923-23.948a6.847,6.847,0,0,0,0-9.671l-15.676-15.7,10.845-10.857v4.007a6.829,6.829,0,0,0,6.816,6.842H6663.1a6.842,6.842,0,0,0,0-13.68Z" fill="#e65416"/>
        <path id="Path_45" data-name="Path 45" d="M6599.208,2465.3l.111-.111,14.832-14.847,4.989,3.606,6.676-6.682a13.83,13.83,0,0,1,3.873-2.668l-12.6-8.763a6.833,6.833,0,0,0-8.636.867l-18.795,18.816a6.835,6.835,0,0,0,9.549,9.782Z" fill="#e65416"/>
        <path id="Path_46" data-name="Path 46" d="M6598.522,2493.969a13.681,13.681,0,0,1-3.509-6.18l-36.089,36.15a6.835,6.835,0,0,0,9.548,9.783l.112-.112,34.763-34.805Z" fill="#e65416"/>
        <path id="Path_47" data-name="Path 47" d="M6645.775,2450.088a10.264,10.264,0,1,0-10.253-10.264A10.259,10.259,0,0,0,6645.775,2450.088Z" fill="#e65416"/>
      </g>
    </g>
    <path id="Path_48" data-name="Path 48" d="M6612.5,2512.9s-12.275,10.4-13.817,15.358c0,0,4.272-.964,4.668,2.793S6603.909,2524.354,6612.5,2512.9Z" transform="translate(-5701.464 -2702.821)" fill="#b5311b"/>
    <path id="Path_49" data-name="Path 49" d="M6584.863,2512.678s-15.159,19.326-25.414,17.7C6559.449,2530.381,6568.239,2539.767,6584.863,2512.678Z" transform="translate(-5701.464 -2702.821)" fill="#b5311b"/>
    <g id="Group_3391" data-name="Group 3391" transform="translate(-5701.464 -2702.821)">
      <ellipse id="Ellipse_224" data-name="Ellipse 224" cx="17.219" cy="9.559" rx="17.219" ry="9.559" transform="translate(6671.13 2549.093)" fill="#142266"/>
      <ellipse id="Ellipse_225" data-name="Ellipse 225" cx="17.219" cy="9.559" rx="17.219" ry="9.559" transform="translate(6530.715 2549.093)" fill="#142266"/>
      <ellipse id="Ellipse_226" data-name="Ellipse 226" cx="10.228" cy="5.678" rx="10.228" ry="5.678" transform="translate(6541.052 2553.88)" fill="#dc2648"/>
      <ellipse id="Ellipse_227" data-name="Ellipse 227" cx="10.228" cy="5.678" rx="10.228" ry="5.678" transform="translate(6674.776 2553.88)" fill="#dc2648"/>
      <path id="Path_10918" data-name="Path 10918" d="M6618.024,2526.474c-27.589,0-55.178,5.5-82.768,6.093a4.807,4.807,0,0,0-4.7,4.811v19.99a5.888,5.888,0,0,0,5.881,5.893l.155,0c27.142-.735,54.285-6.06,81.427-6.06s54.285,5.326,81.427,6.06a5.887,5.887,0,0,0,6.034-5.736c0-.052,0-.1,0-.155v-19.99a4.8,4.8,0,0,0-4.695-4.811C6673.2,2531.976,6645.613,2526.474,6618.024,2526.474Z" fill="#142266"/>
      <g id="Group_16" data-name="Group 16">
        <g id="Group_15" data-name="Group 15">
          <g id="Group_14" data-name="Group 14">
            <g id="Group_13" data-name="Group 13">
              <path id="Path_50" data-name="Path 50" d="M6588.674,2551.491l-.279-1q-1.357.125-2.713.262-.05.518-.1,1.036-1.407.142-2.813.3.647-7.464,1.425-14.927,1.54-.156,3.079-.3,2.193,7.176,4.253,14.378Q6590.1,2551.361,6588.674,2551.491Zm-1.095-3.7q-.593-1.965-1.193-3.929-.216,2.041-.419,4.085Q6586.772,2547.868,6587.579,2547.791Z" fill="#fff"/>
              <path id="Path_51" data-name="Path 51" d="M6598.084,2538.834q-1.338.079-2.673.171.4,5.942.808,11.883-1.391.1-2.782.2-.456-5.938-.912-11.876-1.345.1-2.691.217-.119-1.386-.235-2.773,4.156-.352,8.318-.6Q6598,2537.444,6598.084,2538.834Z" fill="#fff"/>
              <path id="Path_52" data-name="Path 52" d="M6607.671,2550.315q-3.508.112-7.018.3-.4-7.336-.795-14.673c.972-.053,1.941-.1,2.913-.145q.27,5.949.541,11.9,2.134-.1,4.27-.166C6607.611,2548.46,6607.642,2549.388,6607.671,2550.315Z" fill="#fff"/>
              <path id="Path_53" data-name="Path 53" d="M6618.3,2550.148q-4.386,0-8.769.112-.195-7.344-.388-14.689,4.583-.122,9.17-.118l0,2.784q-3.1,0-6.2.052l.057,3.172c.955-.016,1.908-.029,2.863-.038q.012,1.392.025,2.782-1.419.014-2.839.038l.057,3.173q3.016-.054,6.033-.051Q6618.3,2548.755,6618.3,2550.148Z" fill="#fff"/>
              <path id="Path_54" data-name="Path 54" d="M6628.5,2538.4c-.891-.029-1.785-.053-2.677-.074q-.14,5.955-.279,11.908-1.393-.033-2.787-.053.089-5.955.176-11.91-1.35-.021-2.7-.029.011-1.392.019-2.783,4.169.027,8.333.159Q6628.546,2537.011,6628.5,2538.4Z" fill="#fff"/>
              <path id="Path_55" data-name="Path 55" d="M6630.531,2535.687q1.457.054,2.913.121-.337,7.339-.675,14.679-1.392-.064-2.785-.116Q6630.259,2543.029,6630.531,2535.687Z" fill="#fff"/>
              <path id="Path_56" data-name="Path 56" d="M6643.648,2539.242q-2.878,4.356-5.622,8.759,2.426.152,4.845.336-.105,1.379-.212,2.757-4.014-.309-8.033-.517.1-1.378.2-2.757,2.707-4.431,5.554-8.814-2.568-.172-5.138-.305l.144-2.8q4.242.219,8.478.546Q6643.757,2537.845,6643.648,2539.242Z" fill="#fff"/>
              <path id="Path_57" data-name="Path 57" d="M6653.271,2552.088q-1.389-.153-2.775-.294.3-2.991.608-5.981-1.036,2.217-2.048,4.439-.558-2.375-1.14-4.747-.275,2.993-.55,5.986-1.389-.127-2.78-.243.609-7.322,1.216-14.644,1.454.122,2.906.254.6,2.375,1.183,4.752,1.035-2.22,2.09-4.435,1.451.147,2.9.307Q6654.076,2544.786,6653.271,2552.088Z" fill="#fff"/>
            </g>
          </g>
        </g>
        <circle id="Ellipse_4" data-name="Ellipse 4" cx="1.866" cy="1.866" r="1.866" transform="translate(6629.545 2532.045) rotate(-30.853)" fill="#fff"/>
      </g>
    </g>
    <path id="Path_276" data-name="Path 276" d="M6648.955,2431.711s8.166,2.939,4.63,11.8c-1.9,4.7-9.025,6.106-12.445,3.819C6641.14,2447.325,6657.528,2443.841,6648.955,2431.711Z" transform="translate(-5701.464 -2702.821)" fill="#b5311b"/>
    <path id="Path_277" data-name="Path 277" d="M6646.428,2431.1s-3.905-.66-7.48,3.321A18.925,18.925,0,0,1,6646.428,2431.1Z" transform="translate(-5701.464 -2702.821)" fill="#fff"/>
    <path id="Path_278" data-name="Path 278" d="M6602.037,2444.372s7.982-7.761,9.083-8.367,3.688-.911,6.825,1.416C6617.945,2437.421,6612.426,2435.22,6602.037,2444.372Z" transform="translate(-5701.464 -2702.821)" fill="#fff"/>
    <path id="Path_279" data-name="Path 279" d="M6607.983,2454.289a12.416,12.416,0,0,0,6.178-5.572s.507,2.024,3.784,2.921c0,0-3.116-1.721-3.735-4.734C6614.21,2446.9,6612.952,2450.9,6607.983,2454.289Z" transform="translate(-5701.464 -2702.821)" fill="#b5311b"/>
    <path id="Path_280" data-name="Path 280" d="M6589.528,2462.9s3.317,6.853,11.078-.193c0,0-7.555,2.741-11.078.193" transform="translate(-5701.464 -2702.821)" fill="#b5311b"/>
    <path id="Path_281" data-name="Path 281" d="M6592.144,2454.09s-2.719,1.253-3.784,6.183A20.96,20.96,0,0,1,6592.144,2454.09Z" transform="translate(-5701.464 -2702.821)" fill="#fff"/>
    <path id="Path_282" data-name="Path 282" d="M6660.411,2483.133s6.7,2.083,8.689-5.8c0,0-4.317,5.639-8.689,5.8" transform="translate(-5701.464 -2702.821)" fill="#b5311b"/>
    <path id="Path_283" data-name="Path 283" d="M6626.794,2457.762s7.555-10.982,13.5-4.459C6640.294,2453.3,6634.4,2448.776,6626.794,2457.762Z" transform="translate(-5701.464 -2702.821)" fill="#fff"/>
    <path id="Path_284" data-name="Path 284" d="M6614.9,2498.518a12.427,12.427,0,0,0,5.573,6.178s-2.024.506-2.921,3.784c0,0,1.721-3.116,4.734-3.736C6622.291,2504.744,6618.292,2503.486,6614.9,2498.518Z" transform="translate(-5701.464 -2702.821)" fill="#b5311b"/>
    <path id="Path_285" data-name="Path 285" d="M6631.314,2478.885s-1.9-1.761-2.222-6.538a4.173,4.173,0,0,1-3.277,2.041,8.045,8.045,0,0,0,3.794-3.781A16.573,16.573,0,0,0,6631.314,2478.885Z" transform="translate(-5701.464 -2702.821)" fill="#b5311b"/>
    <path id="Path_286" data-name="Path 286" d="M6592.982,2490.872s-26.67,26.08-34.844,35.6C6558.138,2526.474,6582.7,2503.092,6592.982,2490.872Z" transform="translate(-5701.464 -2702.821)" fill="#fff"/>
    <path id="Path_287" data-name="Path 287" d="M6618.991,2465.554a200.908,200.908,0,0,0-15.644,15.8s-2.356,4.443,2.846,8.654C6606.193,2490,6601.4,2484.534,6618.991,2465.554Z" transform="translate(-5701.464 -2702.821)" fill="#b5311b"/>
  </g>
</svg>
