<svg xmlns="http://www.w3.org/2000/svg" width="70.01" height="100" viewBox="0 0 70.01 100"><g transform="translate(0.01)"><path d="M18.6,76.6v6.7c0,8.5,8,16.7,16.8,16.7H36c8.8,0,15.3-8.2,15.3-16.7V76.6H18.6ZM69.8,12,59.4.6a.845.845,0,0,0-.6-.2.367.367,0,0,0-.3.1L51.3,3.9,47.4.4a.764.764,0,0,0-.5-.2.6.6,0,0,0-.4.1L40.4,4,35.3.2C35.1.1,35,0,34.8,0s-.3.1-.4.1L29.3,3.9,23.3.2c-.1-.1-.2-.1-.4-.1a.764.764,0,0,0-.5.2L18.5,3.8,11.4.4c-.1,0-.2-.1-.3-.1a1.421,1.421,0,0,0-.6.2L.2,12a.605.605,0,0,0-.1.8l11,25.9.3.3,5.4,3.9L21,65.2a.73.73,0,0,0-.6.7v6.8c0,.4.3,2.2.8,2.2H48.8c.4,0,.8-1.8.8-2.2V66a.73.73,0,0,0-.6-.7L53.3,43l5.4-3.9.3-.3L70,12.9A1.344,1.344,0,0,0,69.8,12ZM20.2,45.9l1.5-2.2,3.7,3.1,1.1,11H22.6Zm5.9,24.4-1.3-7.8h2.5l.6,7.8Zm8.1,0H31.8l-.7-7.8h3.1v7.8Zm0-12.5H30.5l-1-11.2,2-2.8,2.6,3v11Zm4,12.5H35.8V62.5h3.1Zm1.2-12.5H35.7v-11l2.6-3.1,2,2.9Zm5.4,12.5H42l.9-7.8h3.8Zm2.6-12.5H43.5l1.1-10.9,3.7-3.2L49.8,46Z" fill="#0b0539"/></g></svg>