<svg xmlns="http://www.w3.org/2000/svg" width="181" height="180.95" viewBox="0 0 181 180.95">
  <g id="wushu" transform="translate(-2325.742 300.674)">
    <g id="Group_3388" data-name="Group 3388" transform="translate(-5701.464 -2702.821)">
      <g id="Group_3095" data-name="Group 3095">
        <path id="Path_10858" data-name="Path 10858" d="M8122.109,2542.405a.387.387,0,0,1,.428-.339l.016,0a22.706,22.706,0,0,0,5.729-.12c3.286-.364,6.521.562,6.408,4.75a.383.383,0,0,1-.394.372.3.3,0,0,1-.055-.006c-.665-.119-2.318-.189-6.277.447C8123.383,2548.245,8121.74,2545.561,8122.109,2542.405Z" fill="#142266"/>
        <path id="Path_10859" data-name="Path 10859" d="M8118.528,2541.885a.386.386,0,0,0,.489.241l.011,0a22.693,22.693,0,0,1,5.632-1.056c3.291-.317,6.269-1.884,5.3-5.962a.384.384,0,0,0-.464-.282.46.46,0,0,0-.051.016c-.626.254-2.23.66-6.236.849C8118.583,2535.905,8117.524,2538.871,8118.528,2541.885Z" fill="#142266"/>
      </g>
      <g id="Group_3096" data-name="Group 3096">
        <path id="Path_10860" data-name="Path 10860" d="M8136.058,2540.045a.385.385,0,0,1,.349-.42h.016a22.8,22.8,0,0,0,5.579-1.308c3.138-1.039,6.5-.807,7.256,3.314a.384.384,0,0,1-.31.446.417.417,0,0,1-.053.006c-.675.021-2.307.3-6.048,1.741C8138.521,2545.487,8136.357,2543.207,8136.058,2540.045Z" fill="#142266"/>
        <path id="Path_10861" data-name="Path 10861" d="M8132.451,2540.278a.385.385,0,0,0,.528.137l.014-.008a22.725,22.725,0,0,1,5.289-2.2c3.153-.993,5.74-3.146,3.945-6.933a.384.384,0,0,0-.512-.181.4.4,0,0,0-.047.027c-.56.378-2.044,1.109-5.923,2.127C8131.261,2534.42,8130.842,2537.539,8132.451,2540.278Z" fill="#142266"/>
      </g>
      <g id="Group_3097" data-name="Group 3097">
        <path id="Path_10862" data-name="Path 10862" d="M8149.215,2534.835a.387.387,0,0,1,.253-.484l.016,0a22.8,22.8,0,0,0,5.185-2.439c2.854-1.669,6.186-2.14,7.786,1.733a.383.383,0,0,1-.211.5.434.434,0,0,1-.05.017c-.656.161-2.194.77-5.553,2.96C8152.762,2539.65,8150.162,2537.865,8149.215,2534.835Z" fill="#142266"/>
        <path id="Path_10863" data-name="Path 10863" d="M8145.734,2535.815a.386.386,0,0,0,.545.023l.012-.011a22.694,22.694,0,0,1,4.716-3.255c2.877-1.627,4.96-4.271,2.417-7.6a.382.382,0,0,0-.537-.071.344.344,0,0,0-.041.036c-.469.486-1.769,1.51-5.351,3.312C8143.353,2530.332,8143.592,2533.469,8145.734,2535.815Z" fill="#142266"/>
      </g>
      <g id="Group_3098" data-name="Group 3098">
        <path id="Path_10864" data-name="Path 10864" d="M8161,2527a.387.387,0,0,1,.148-.526l.014-.007a22.782,22.782,0,0,0,4.564-3.464c2.444-2.226,5.6-3.379,7.976.076a.384.384,0,0,1-.148.56c-.608.294-1.986,1.21-4.816,4.05C8165.468,2530.977,8162.562,2529.771,8161,2527Z" fill="#142266"/>
        <path id="Path_10865" data-name="Path 10865" d="M8157.8,2528.685a.387.387,0,0,0,.539-.088l.008-.012a22.707,22.707,0,0,1,3.936-4.164c2.476-2.19,3.964-5.209.784-7.938a.38.38,0,0,0-.573.087c-.358.573-1.417,1.844-4.546,4.352C8154.332,2523.817,8155.218,2526.837,8157.8,2528.685Z" fill="#142266"/>
      </g>
      <g id="Group_3099" data-name="Group 3099">
        <path id="Path_10866" data-name="Path 10866" d="M8170.9,2516.893a.387.387,0,0,1,.035-.545l.012-.01a22.766,22.766,0,0,0,3.744-4.338c1.928-2.685,4.781-4.47,7.818-1.584a.385.385,0,0,1,.012.543.5.5,0,0,1-.04.036c-.533.414-1.692,1.6-3.869,4.963C8176.1,2519.85,8173,2519.276,8170.9,2516.893Z" fill="#142266"/>
        <path id="Path_10867" data-name="Path 10867" d="M8168.121,2519.2a.385.385,0,0,0,.508-.2l.006-.014a22.746,22.746,0,0,1,2.984-4.891c1.967-2.657,2.795-5.919-.883-7.928a.384.384,0,0,0-.521.153.507.507,0,0,0-.021.047c-.231.635-1,2.1-3.542,5.2C8163.715,2515.162,8165.205,2517.932,8168.121,2519.2Z" fill="#142266"/>
      </g>
      <g id="Group_3100" data-name="Group 3100">
        <path id="Path_10868" data-name="Path 10868" d="M8178.484,2504.949a.388.388,0,0,1-.079-.541l.01-.012a22.763,22.763,0,0,0,2.761-5.021c1.327-3.028,3.746-5.367,7.318-3.175a.382.382,0,0,1,.125.526.355.355,0,0,1-.032.046c-.436.516-1.323,1.912-2.753,5.659C8184.18,2506.758,8181.034,2506.84,8178.484,2504.949Z" fill="#142266"/>
        <path id="Path_10869" data-name="Path 10869" d="M8176.245,2507.783a.386.386,0,0,0,.455-.3l0-.016a22.742,22.742,0,0,1,1.9-5.405c1.371-3.008,1.5-6.37-2.513-7.569a.382.382,0,0,0-.476.258.438.438,0,0,0-.012.054c-.094.668-.544,2.261-2.382,5.824C8171.1,2504.748,8173.133,2507.146,8176.245,2507.783Z" fill="#142266"/>
      </g>
      <g id="Group_3101" data-name="Group 3101">
        <path id="Path_10870" data-name="Path 10870" d="M8183.416,2491.681a.387.387,0,0,1-.19-.511l.008-.015a22.782,22.782,0,0,0,1.656-5.486c.669-3.237,2.548-6.029,6.5-4.626a.383.383,0,0,1,.231.49c-.006.017-.014.033-.022.05-.319.6-.9,2.146-1.516,6.108C8189.365,2492.272,8186.3,2493,8183.416,2491.681Z" fill="#142266"/>
        <path id="Path_10871" data-name="Path 10871" d="M8181.815,2494.923a.388.388,0,0,0,.383-.39v-.016a22.764,22.764,0,0,1,.737-5.682c.716-3.228.145-6.544-4.032-6.884a.384.384,0,0,0-.411.355.232.232,0,0,0,0,.052c.047.674-.062,2.325-1.119,6.193C8176.147,2493.023,8178.639,2494.947,8181.815,2494.923Z" fill="#142266"/>
      </g>
      <g id="Group_3102" data-name="Group 3102">
        <path id="Path_10872" data-name="Path 10872" d="M8185.483,2477.682a.387.387,0,0,1-.292-.462l0-.015a22.746,22.746,0,0,0,.48-5.71c-.019-3.306,1.239-6.427,5.394-5.877a.382.382,0,0,1,.328.43.347.347,0,0,1-.011.055c-.188.649-.43,2.286-.213,6.29C8191.424,2477.022,8188.583,2478.375,8185.483,2477.682Z" fill="#142266"/>
        <path id="Path_10873" data-name="Path 10873" d="M8184.594,2481.185a.388.388,0,0,0,.293-.461l0-.015a22.725,22.725,0,0,1-.461-5.711c.029-3.306-1.219-6.431-5.375-5.894a.384.384,0,0,0-.33.431c0,.018.006.035.011.053.186.649.423,2.287.193,6.29C8178.652,2480.507,8181.489,2481.869,8184.594,2481.185Z" fill="#142266"/>
      </g>
      <g id="Group_3103" data-name="Group 3103">
        <path id="Path_10874" data-name="Path 10874" d="M8184.594,2463.56a.386.386,0,0,1-.38-.392v-.015a22.757,22.757,0,0,0-.718-5.685c-.706-3.229-.124-6.544,4.054-6.87a.383.383,0,0,1,.411.355.484.484,0,0,1,0,.053c-.049.674.054,2.325,1.1,6.2C8190.269,2461.679,8187.771,2463.594,8184.594,2463.56Z" fill="#142266"/>
        <path id="Path_10875" data-name="Path 10875" d="M8184.45,2467.172a.388.388,0,0,0,.191-.512l-.007-.014a22.754,22.754,0,0,1-1.639-5.49c-.658-3.24-2.529-6.037-6.483-4.648a.383.383,0,0,0-.234.488c.007.018.014.035.023.052.317.6.889,2.149,1.5,6.113C8178.5,2467.747,8181.558,2468.486,8184.45,2467.172Z" fill="#142266"/>
      </g>
      <g id="Group_3104" data-name="Group 3104">
        <path id="Path_10876" data-name="Path 10876" d="M8180.788,2449.931a.387.387,0,0,1-.454-.3l0-.016a22.75,22.75,0,0,0-1.884-5.411c-1.362-3.012-1.482-6.375,2.537-7.562a.382.382,0,0,1,.475.259c0,.018.009.036.012.055.092.669.536,2.263,2.364,5.833C8185.952,2446.912,8183.9,2449.3,8180.788,2449.931Z" fill="#142266"/>
        <path id="Path_10877" data-name="Path 10877" d="M8181.4,2453.494a.385.385,0,0,0,.081-.54l-.01-.013a22.76,22.76,0,0,1-2.744-5.03c-1.318-3.032-3.729-5.379-7.307-3.2a.384.384,0,0,0-.125.528.38.38,0,0,0,.031.044c.434.517,1.317,1.917,2.734,5.668C8175.7,2455.29,8178.842,2455.38,8181.4,2453.494Z" fill="#142266"/>
      </g>
      <g id="Group_3105" data-name="Group 3105">
        <path id="Path_10878" data-name="Path 10878" d="M8174.232,2437.39a.386.386,0,0,1-.507-.2l-.006-.014a22.739,22.739,0,0,0-2.968-4.9c-1.958-2.663-2.775-5.928.91-7.925a.384.384,0,0,1,.52.156.394.394,0,0,1,.022.05c.229.635,1,2.1,3.524,5.214C8178.65,2433.364,8177.147,2436.129,8174.232,2437.39Z" fill="#142266"/>
        <path id="Path_10879" data-name="Path 10879" d="M8175.569,2440.749a.386.386,0,0,0-.034-.545l-.012-.01a22.764,22.764,0,0,1-3.73-4.35c-1.919-2.692-4.766-4.487-7.813-1.609a.382.382,0,0,0-.013.542c.012.013.025.025.039.037.532.416,1.687,1.6,3.853,4.976C8170.365,2443.691,8173.461,2443.126,8175.569,2440.749Z" fill="#142266"/>
      </g>
      <g id="Group_3106" data-name="Group 3106">
        <path id="Path_10880" data-name="Path 10880" d="M8165.211,2426.486a.387.387,0,0,1-.538-.093l-.009-.013a22.742,22.742,0,0,0-3.922-4.177c-2.469-2.2-3.947-5.222-.758-7.94a.384.384,0,0,1,.541.045.419.419,0,0,1,.032.043c.356.574,1.411,1.849,4.531,4.367C8168.7,2421.63,8167.8,2424.646,8165.211,2426.486Z" fill="#142266"/>
        <path id="Path_10881" data-name="Path 10881" d="M8167.218,2429.5a.385.385,0,0,0-.147-.526l-.013-.007a22.8,22.8,0,0,1-4.553-3.479c-2.437-2.234-5.594-3.4-7.976.05a.383.383,0,0,0,.1.532.429.429,0,0,0,.048.029c.607.3,1.982,1.216,4.8,4.066C8162.74,2433.453,8165.65,2432.256,8167.218,2429.5Z" fill="#142266"/>
      </g>
      <g id="Group_3107" data-name="Group 3107">
        <path id="Path_10882" data-name="Path 10882" d="M8154.122,2417.7a.387.387,0,0,1-.545.022l-.012-.011a22.762,22.762,0,0,0-4.7-3.271c-2.872-1.637-4.946-4.287-2.392-7.609a.382.382,0,0,1,.537-.069.267.267,0,0,1,.041.037c.468.487,1.764,1.516,5.34,3.329C8156.521,2412.223,8156.272,2415.359,8154.122,2417.7Z" fill="#142266"/>
        <path id="Path_10883" data-name="Path 10883" d="M8156.71,2420.222a.387.387,0,0,0-.252-.485l-.016,0a22.8,22.8,0,0,1-5.177-2.456c-2.848-1.678-6.178-2.16-7.792,1.708a.383.383,0,0,0,.207.5.446.446,0,0,0,.053.018c.655.163,2.192.777,5.544,2.978C8153.152,2425.026,8155.751,2423.25,8156.71,2420.222Z" fill="#142266"/>
      </g>
      <g id="Group_3108" data-name="Group 3108">
        <path id="Path_10884" data-name="Path 10884" d="M8141.445,2411.405a.386.386,0,0,1-.529.134l-.014-.008a22.674,22.674,0,0,0-5.282-2.221c-3.15-1-5.729-3.165-3.922-6.946a.384.384,0,0,1,.513-.179.389.389,0,0,1,.046.027c.559.379,2.041,1.116,5.916,2.146C8142.654,2405.551,8143.063,2408.671,8141.445,2411.405Z" fill="#142266"/>
        <path id="Path_10885" data-name="Path 10885" d="M8144.5,2413.337a.386.386,0,0,0-.348-.421h-.015a22.806,22.806,0,0,1-5.574-1.326c-3.135-1.05-6.493-.829-7.266,3.29a.385.385,0,0,0,.308.447.455.455,0,0,0,.054.006c.675.024,2.306.3,6.042,1.76C8142.021,2418.776,8144.2,2416.5,8144.5,2413.337Z" fill="#142266"/>
      </g>
      <g id="Group_3109" data-name="Group 3109">
        <path id="Path_10886" data-name="Path 10886" d="M8113.6,2542.405a.387.387,0,0,0-.428-.339l-.016,0a22.705,22.705,0,0,1-5.729-.12c-3.286-.364-6.521.562-6.408,4.75a.383.383,0,0,0,.394.372.315.315,0,0,0,.055-.006c.665-.119,2.318-.189,6.277.447C8112.324,2548.245,8113.967,2545.561,8113.6,2542.405Z" fill="#142266"/>
        <path id="Path_10887" data-name="Path 10887" d="M8117.178,2541.885a.386.386,0,0,1-.489.241l-.011,0a22.693,22.693,0,0,0-5.632-1.056c-3.291-.317-6.269-1.884-5.3-5.962a.384.384,0,0,1,.464-.282.46.46,0,0,1,.051.016c.626.254,2.23.66,6.236.849C8117.127,2535.905,8118.182,2538.871,8117.178,2541.885Z" fill="#142266"/>
      </g>
      <g id="Group_3110" data-name="Group 3110">
        <path id="Path_10888" data-name="Path 10888" d="M8099.648,2540.045a.385.385,0,0,0-.349-.42h-.016a22.8,22.8,0,0,1-5.579-1.308c-3.138-1.039-6.5-.807-7.256,3.314a.384.384,0,0,0,.31.446.417.417,0,0,0,.053.006c.675.021,2.306.3,6.047,1.741C8097.185,2545.487,8099.35,2543.207,8099.648,2540.045Z" fill="#142266"/>
        <path id="Path_10889" data-name="Path 10889" d="M8103.256,2540.278a.386.386,0,0,1-.529.137l-.013-.008a22.734,22.734,0,0,0-5.289-2.2c-3.153-.993-5.74-3.146-3.945-6.933a.383.383,0,0,1,.512-.181.505.505,0,0,1,.047.027c.56.378,2.044,1.109,5.923,2.127C8104.445,2534.42,8104.864,2537.539,8103.256,2540.278Z" fill="#142266"/>
      </g>
      <g id="Group_3111" data-name="Group 3111">
        <path id="Path_10890" data-name="Path 10890" d="M8086.491,2534.835a.386.386,0,0,0-.253-.484l-.016,0a22.774,22.774,0,0,1-5.185-2.439c-2.854-1.669-6.186-2.14-7.786,1.733a.383.383,0,0,0,.211.5.434.434,0,0,0,.05.017c.656.161,2.194.77,5.553,2.96C8082.948,2539.65,8085.542,2537.865,8086.491,2534.835Z" fill="#142266"/>
        <path id="Path_10891" data-name="Path 10891" d="M8089.971,2535.815a.386.386,0,0,1-.545.023l-.012-.011a22.694,22.694,0,0,0-4.716-3.255c-2.877-1.627-4.96-4.271-2.417-7.6a.383.383,0,0,1,.537-.071.344.344,0,0,1,.041.036c.469.486,1.769,1.51,5.351,3.312C8092.356,2530.332,8092.114,2533.469,8089.971,2535.815Z" fill="#142266"/>
      </g>
      <g id="Group_3112" data-name="Group 3112">
        <path id="Path_10892" data-name="Path 10892" d="M8074.706,2527a.387.387,0,0,0-.148-.526l-.014-.007a22.782,22.782,0,0,1-4.564-3.464c-2.444-2.226-5.6-3.379-7.976.076a.384.384,0,0,0,.1.532.471.471,0,0,0,.048.028c.608.294,1.986,1.21,4.817,4.05C8070.24,2530.977,8073.15,2529.771,8074.706,2527Z" fill="#142266"/>
        <path id="Path_10893" data-name="Path 10893" d="M8077.906,2528.685a.386.386,0,0,1-.539-.088l-.008-.012a22.707,22.707,0,0,0-3.936-4.164c-2.476-2.19-3.964-5.209-.784-7.938a.38.38,0,0,1,.573.087c.358.573,1.417,1.844,4.546,4.352C8081.375,2523.817,8080.489,2526.837,8077.906,2528.685Z" fill="#142266"/>
      </g>
      <g id="Group_3113" data-name="Group 3113">
        <path id="Path_10894" data-name="Path 10894" d="M8064.8,2516.893a.386.386,0,0,0-.036-.545l-.012-.01a22.768,22.768,0,0,1-3.744-4.338c-1.928-2.685-4.781-4.47-7.818-1.584a.385.385,0,0,0-.012.543.431.431,0,0,0,.04.036c.534.414,1.692,1.6,3.869,4.963C8059.61,2519.85,8062.7,2519.276,8064.8,2516.893Z" fill="#142266"/>
        <path id="Path_10895" data-name="Path 10895" d="M8067.586,2519.2a.385.385,0,0,1-.508-.2l-.006-.014a22.725,22.725,0,0,0-2.984-4.891c-1.967-2.657-2.794-5.919.884-7.928a.384.384,0,0,1,.521.153.507.507,0,0,1,.021.047c.231.635,1,2.1,3.541,5.2C8071.992,2515.162,8070.5,2517.932,8067.586,2519.2Z" fill="#142266"/>
      </g>
      <g id="Group_3114" data-name="Group 3114">
        <path id="Path_10896" data-name="Path 10896" d="M8057.222,2504.949a.387.387,0,0,0,.079-.541l-.01-.012a22.784,22.784,0,0,1-2.761-5.021c-1.328-3.028-3.746-5.367-7.318-3.175a.382.382,0,0,0-.125.526.355.355,0,0,0,.032.046c.436.516,1.323,1.912,2.753,5.659C8051.522,2506.758,8054.673,2506.84,8057.222,2504.949Z" fill="#142266"/>
        <path id="Path_10897" data-name="Path 10897" d="M8059.462,2507.783a.386.386,0,0,1-.455-.3l0-.016a22.742,22.742,0,0,0-1.9-5.405c-1.371-3.008-1.5-6.37,2.513-7.569a.381.381,0,0,1,.476.258.363.363,0,0,1,.012.054c.094.668.544,2.261,2.383,5.824C8064.612,2504.748,8062.578,2507.146,8059.462,2507.783Z" fill="#142266"/>
      </g>
      <g id="Group_3115" data-name="Group 3115">
        <path id="Path_10898" data-name="Path 10898" d="M8052.291,2491.681a.387.387,0,0,0,.19-.511l-.008-.015a22.782,22.782,0,0,1-1.656-5.486c-.669-3.237-2.548-6.029-6.5-4.626a.386.386,0,0,0-.21.54c.319.6.9,2.146,1.516,6.108C8046.342,2492.272,8049.4,2493,8052.291,2491.681Z" fill="#142266"/>
        <path id="Path_10899" data-name="Path 10899" d="M8053.893,2494.923a.386.386,0,0,1-.382-.39v-.016a22.763,22.763,0,0,0-.736-5.682c-.716-3.228-.146-6.544,4.031-6.884a.384.384,0,0,1,.412.352.344.344,0,0,1,0,.055c-.047.674.062,2.325,1.12,6.193C8059.56,2493.023,8057.068,2494.947,8053.893,2494.923Z" fill="#142266"/>
      </g>
      <g id="Group_3116" data-name="Group 3116">
        <path id="Path_10900" data-name="Path 10900" d="M8050.223,2477.682a.387.387,0,0,0,.292-.462l0-.015a22.724,22.724,0,0,1-.48-5.71c.019-3.306-1.239-6.427-5.394-5.877a.381.381,0,0,0-.328.43.347.347,0,0,0,.011.055c.188.649.43,2.286.213,6.29C8044.282,2477.022,8047.123,2478.375,8050.223,2477.682Z" fill="#142266"/>
        <path id="Path_10901" data-name="Path 10901" d="M8051.116,2481.185a.387.387,0,0,1-.293-.461l0-.015a22.725,22.725,0,0,0,.461-5.711c-.029-3.306,1.219-6.431,5.375-5.894a.384.384,0,0,1,.33.431.336.336,0,0,1-.011.053c-.186.649-.423,2.287-.193,6.29C8057.055,2480.507,8054.218,2481.869,8051.116,2481.185Z" fill="#142266"/>
      </g>
      <g id="Group_3117" data-name="Group 3117">
        <path id="Path_10902" data-name="Path 10902" d="M8051.11,2463.56a.387.387,0,0,0,.381-.392v-.015a22.734,22.734,0,0,1,.718-5.685c.706-3.229.124-6.544-4.054-6.87a.383.383,0,0,0-.411.353.52.52,0,0,0,0,.055c.049.674-.055,2.325-1.1,6.2C8045.439,2461.679,8047.937,2463.594,8051.11,2463.56Z" fill="#142266"/>
        <path id="Path_10903" data-name="Path 10903" d="M8051.258,2467.172a.388.388,0,0,1-.191-.512l.007-.014a22.754,22.754,0,0,0,1.639-5.49c.659-3.24,2.529-6.037,6.483-4.648a.383.383,0,0,1,.234.488c-.007.018-.014.035-.023.052-.317.6-.889,2.149-1.5,6.113C8057.208,2467.747,8054.15,2468.486,8051.258,2467.172Z" fill="#142266"/>
      </g>
      <g id="Group_3118" data-name="Group 3118">
        <path id="Path_10904" data-name="Path 10904" d="M8054.918,2449.931a.387.387,0,0,0,.454-.3l0-.016a22.706,22.706,0,0,1,1.884-5.411c1.362-3.012,1.482-6.375-2.537-7.562a.382.382,0,0,0-.475.259.511.511,0,0,0-.012.055c-.092.669-.536,2.263-2.364,5.833C8049.759,2446.912,8051.8,2449.3,8054.918,2449.931Z" fill="#142266"/>
        <path id="Path_10905" data-name="Path 10905" d="M8054.308,2453.494a.386.386,0,0,1-.081-.54l.01-.013a22.76,22.76,0,0,0,2.744-5.03c1.318-3.032,3.729-5.379,7.307-3.2a.384.384,0,0,1,.127.526.5.5,0,0,1-.033.046c-.434.517-1.316,1.917-2.734,5.668C8060.01,2455.29,8056.864,2455.38,8054.308,2453.494Z" fill="#142266"/>
      </g>
      <g id="Group_3119" data-name="Group 3119">
        <path id="Path_10906" data-name="Path 10906" d="M8061.475,2437.39a.386.386,0,0,0,.507-.2l.006-.014a22.739,22.739,0,0,1,2.968-4.9c1.958-2.663,2.775-5.928-.91-7.925a.382.382,0,0,0-.519.156.469.469,0,0,0-.022.05c-.229.635-1,2.1-3.525,5.214C8057.056,2433.364,8058.559,2436.129,8061.475,2437.39Z" fill="#142266"/>
        <path id="Path_10907" data-name="Path 10907" d="M8060.137,2440.749a.386.386,0,0,1,.034-.545l.012-.01a22.764,22.764,0,0,0,3.73-4.35c1.919-2.692,4.766-4.487,7.813-1.609a.384.384,0,0,1,.013.542c-.013.013-.026.025-.04.037-.532.416-1.686,1.6-3.853,4.976C8065.341,2443.691,8062.245,2443.126,8060.137,2440.749Z" fill="#142266"/>
      </g>
      <g id="Group_3120" data-name="Group 3120">
        <path id="Path_10908" data-name="Path 10908" d="M8070.5,2426.486a.387.387,0,0,0,.538-.093l.009-.013a22.742,22.742,0,0,1,3.922-4.177c2.469-2.2,3.947-5.222.758-7.94a.384.384,0,0,0-.541.045.419.419,0,0,0-.032.043c-.356.574-1.411,1.849-4.532,4.367C8067.011,2421.63,8067.906,2424.646,8070.5,2426.486Z" fill="#142266"/>
        <path id="Path_10909" data-name="Path 10909" d="M8068.489,2429.5a.386.386,0,0,1,.147-.526l.013-.007a22.832,22.832,0,0,0,4.553-3.479c2.437-2.234,5.594-3.4,7.976.05a.384.384,0,0,1-.1.533.324.324,0,0,1-.046.028c-.607.3-1.983,1.216-4.8,4.066C8072.968,2433.453,8070.057,2432.256,8068.489,2429.5Z" fill="#142266"/>
      </g>
      <g id="Group_3121" data-name="Group 3121">
        <path id="Path_10910" data-name="Path 10910" d="M8081.586,2417.7a.387.387,0,0,0,.545.022l.012-.011a22.762,22.762,0,0,1,4.7-3.271c2.872-1.637,4.946-4.287,2.392-7.609a.383.383,0,0,0-.539-.067.26.26,0,0,0-.039.035c-.468.487-1.764,1.516-5.34,3.329C8079.187,2412.223,8079.435,2415.359,8081.586,2417.7Z" fill="#142266"/>
        <path id="Path_10911" data-name="Path 10911" d="M8079,2420.222a.387.387,0,0,1,.252-.485l.016,0a22.8,22.8,0,0,0,5.177-2.456c2.848-1.678,6.179-2.16,7.792,1.708a.383.383,0,0,1-.207.5.446.446,0,0,1-.053.018c-.655.163-2.192.777-5.544,2.978C8082.555,2425.026,8079.957,2423.25,8079,2420.222Z" fill="#142266"/>
      </g>
      <g id="Group_3122" data-name="Group 3122">
        <path id="Path_10912" data-name="Path 10912" d="M8094.262,2411.405a.386.386,0,0,0,.529.134l.014-.008a22.674,22.674,0,0,1,5.282-2.221c3.15-1,5.729-3.165,3.922-6.946a.384.384,0,0,0-.513-.179.389.389,0,0,0-.046.027c-.559.379-2.041,1.116-5.916,2.146C8093.053,2405.551,8092.644,2408.671,8094.262,2411.405Z" fill="#142266"/>
        <path id="Path_10913" data-name="Path 10913" d="M8091.205,2413.337a.386.386,0,0,1,.348-.421h.016a22.8,22.8,0,0,0,5.574-1.326c3.135-1.05,6.493-.829,7.266,3.29a.381.381,0,0,1-.306.446.34.34,0,0,1-.056.007c-.675.024-2.3.3-6.042,1.76C8093.686,2418.776,8091.513,2416.5,8091.205,2413.337Z" fill="#142266"/>
      </g>
    </g>
    <g id="Group_3389" data-name="Group 3389" transform="translate(-5701.464 -2702.821)">
      <g id="Group_3124" data-name="Group 3124">
        <path id="Path_10914" data-name="Path 10914" d="M8117.707,2562.664l-76.121-77.573-2.5,10.058,78.621,80.121,78.621-80.121-2.5-10.058Z" fill="#e65416"/>
        <path id="Path_10915" data-name="Path 10915" d="M8193.828,2485.09l-2.833-11.4c-31.187-3.9-51.662-17.144-63.632-28.04a99.347,99.347,0,0,1-9.656-10.114,99.192,99.192,0,0,1-9.656,10.114c-11.97,10.9-32.444,24.144-63.632,28.04l-2.833,11.4,76.121,77.573Z" fill="#b5311b"/>
      </g>
      <path id="Path_10916" data-name="Path 10916" d="M8200.15,2463.321c-62.61-4.005-82.444-46.74-82.444-46.74s-19.835,42.735-82.444,46.74l-8.056,31.144,90.5,88.632,90.5-88.632Zm-161.066,31.828,5.334-21.457c31.188-3.9,51.662-17.144,63.632-28.04a99.217,99.217,0,0,0,9.656-10.114,99.266,99.266,0,0,0,9.656,10.114c11.97,10.9,32.444,24.144,63.632,28.04l5.334,21.457-78.621,80.121Z" fill="#142266"/>
    </g>
    <g id="Path_7362" data-name="Path 7362" transform="translate(-5701.464 -2702.821)" fill="#e65416">
      <path d="M 8067.62841796875 2546.662109375 C 8067.265625 2546.662109375 8066.89990234375 2546.638671875 8066.5400390625 2546.59228515625 C 8063.93359375 2546.297607421875 8061.9013671875 2544.958251953125 8060.958984375 2542.91162109375 C 8060.00830078125 2540.84619140625 8060.32568359375 2538.403076171875 8061.830078125 2536.208984375 L 8061.8505859375 2536.178466796875 L 8061.8720703125 2536.1484375 C 8062.6376953125 2535.074951171875 8063.53125 2534.0927734375 8064.52978515625 2533.227294921875 C 8064.0673828125 2532.643310546875 8063.64990234375 2532.022216796875 8063.28173828125 2531.369384765625 C 8062.15673828125 2529.569091796875 8061.58447265625 2527.499267578125 8061.6259765625 2525.3740234375 C 8061.66748046875 2523.2373046875 8062.3271484375 2521.1806640625 8063.53466796875 2519.419677734375 C 8064.7734375 2517.46630859375 8066.3427734375 2515.775146484375 8068.20068359375 2514.3916015625 L 8068.20068359375 2514.3916015625 C 8068.443359375 2514.210693359375 8068.63916015625 2513.98291015625 8068.78369140625 2513.71533203125 L 8068.8095703125 2513.6669921875 L 8068.8369140625 2513.619384765625 C 8071.16259765625 2509.571533203125 8073.11669921875 2505.387939453125 8075.185546875 2500.95849609375 C 8075.759765625 2499.7294921875 8076.353515625 2498.45849609375 8076.94921875 2497.204833984375 L 8076.96826171875 2497.1650390625 L 8076.98828125 2497.125732421875 C 8078.23193359375 2494.6513671875 8079.9169921875 2492.4658203125 8081.9970703125 2490.6298828125 L 8082.05224609375 2490.5810546875 L 8082.109375 2490.534423828125 C 8084.01708984375 2488.971923828125 8086.31787109375 2488.06298828125 8088.77392578125 2487.900146484375 C 8091.33349609375 2487.574462890625 8093.9287109375 2487.2587890625 8096.4404296875 2486.953369140625 C 8098.14501953125 2486.74609375 8099.88818359375 2486.5341796875 8101.6328125 2486.3173828125 C 8099.81201171875 2482.094970703125 8097.78564453125 2477.33935546875 8095.77880859375 2472.435791015625 L 8095.77490234375 2472.425537109375 L 8095.7705078125 2472.4150390625 C 8094.94140625 2470.356201171875 8093.06201171875 2468.881103515625 8090.86572265625 2468.565185546875 L 8090.791015625 2468.554443359375 L 8090.716796875 2468.541015625 C 8089.09521484375 2468.244873046875 8087.4638671875 2467.92724609375 8085.88623046875 2467.6201171875 C 8082.02587890625 2466.86865234375 8078.37890625 2466.15869140625 8074.634765625 2465.687744140625 L 8074.60400390625 2465.683837890625 L 8074.5732421875 2465.679443359375 C 8072.919921875 2465.445556640625 8071.23828125 2465.326904296875 8069.57470703125 2465.326904296875 C 8069.45068359375 2465.326904296875 8069.32666015625 2465.32763671875 8069.2021484375 2465.328857421875 L 8069.1826171875 2465.3291015625 L 8069.16259765625 2465.3291015625 C 8068.3984375 2465.32958984375 8067.6435546875 2465.529541015625 8066.97607421875 2465.90771484375 C 8065.12646484375 2467.046630859375 8063.115234375 2467.855224609375 8060.9951171875 2468.311279296875 L 8060.9462890625 2468.322021484375 L 8060.89697265625 2468.331298828125 C 8060.28662109375 2468.446533203125 8059.6884765625 2468.505126953125 8059.119140625 2468.505126953125 C 8057.7275390625 2468.505126953125 8055.73779296875 2468.155029296875 8054.1640625 2466.48779296875 C 8053.2431640625 2465.51171875 8052.18017578125 2463.7431640625 8052.34765625 2460.860595703125 L 8052.35302734375 2460.7685546875 L 8052.3623046875 2460.677001953125 C 8052.56201171875 2458.761474609375 8053.18994140625 2456.878173828125 8054.177734375 2455.226318359375 C 8054.84130859375 2454.055419921875 8055.51708984375 2452.863037109375 8056.2060546875 2451.667724609375 C 8053.59375 2450.658447265625 8051.09326171875 2449.738525390625 8048.5126953125 2449.270751953125 L 8048.478515625 2449.2646484375 L 8048.4443359375 2449.2578125 C 8046.7939453125 2448.928955078125 8045.2626953125 2448.270751953125 8043.8916015625 2447.301025390625 C 8043.3779296875 2446.9560546875 8042.83544921875 2446.55859375 8042.32958984375 2446.005126953125 C 8041.15673828125 2444.72265625 8040.88623046875 2443.3662109375 8040.87255859375 2442.429443359375 C 8040.84130859375 2441.48681640625 8040.2626953125 2440.531982421875 8039.32470703125 2439.05859375 C 8039.14111328125 2438.77001953125 8038.95166015625 2438.471923828125 8038.76171875 2438.163330078125 L 8038.169921875 2437.19970703125 L 8038.169921875 2436.069091796875 L 8038.169921875 2435.10498046875 L 8038.169921875 2431.710693359375 L 8040.08544921875 2431.394775390625 C 8040.05029296875 2429.61083984375 8040.25341796875 2427.823486328125 8040.6953125 2426.088134765625 L 8040.70947265625 2426.032958984375 L 8040.71826171875 2426.0029296875 C 8040.72705078125 2425.9638671875 8040.7431640625 2425.88232421875 8040.755859375 2425.8212890625 C 8040.83935546875 2425.406005859375 8040.96630859375 2424.778564453125 8041.26806640625 2424.125 C 8042.03955078125 2422.45556640625 8043.619140625 2421.41845703125 8045.39111328125 2421.41845703125 C 8045.49560546875 2421.41845703125 8045.6015625 2421.422119140625 8045.70654296875 2421.429443359375 C 8047.65478515625 2421.55126953125 8049.25732421875 2422.86865234375 8049.8046875 2424.807373046875 C 8050.0244140625 2425.5859375 8050.0322265625 2426.29443359375 8050.037109375 2426.763427734375 C 8050.03759765625 2426.82373046875 8050.03857421875 2426.906494140625 8050.0400390625 2426.935546875 L 8050.04150390625 2426.962646484375 L 8050.0419921875 2426.9873046875 C 8050.15771484375 2430.11279296875 8051.0849609375 2433.171875 8052.7236328125 2435.834228515625 L 8052.73095703125 2435.846435546875 L 8052.73828125 2435.85888671875 C 8053.4462890625 2437.02783203125 8053.98779296875 2437.87060546875 8054.513671875 2438.069091796875 L 8054.53271484375 2438.076416015625 L 8054.5517578125 2438.083740234375 C 8057.53369140625 2439.244873046875 8060.66650390625 2439.902587890625 8063.86376953125 2440.0380859375 C 8067.81689453125 2440.142822265625 8071.75244140625 2440.726318359375 8075.56298828125 2441.772705078125 L 8075.57177734375 2441.775146484375 L 8075.58056640625 2441.77734375 C 8080.228515625 2443.076416015625 8084.99560546875 2444.34619140625 8089.60546875 2445.574462890625 C 8091.90478515625 2446.18701171875 8094.28271484375 2446.820556640625 8096.62060546875 2447.450927734375 L 8096.64453125 2447.457275390625 L 8096.66845703125 2447.464111328125 C 8096.77490234375 2447.494384765625 8096.8857421875 2447.509765625 8096.99755859375 2447.509765625 C 8097.15087890625 2447.509765625 8097.30029296875 2447.4814453125 8097.4423828125 2447.426025390625 C 8098.67919921875 2446.831787109375 8099.95947265625 2446.344482421875 8101.2734375 2445.9677734375 C 8101.25634765625 2445.948486328125 8101.23876953125 2445.92919921875 8101.22119140625 2445.910400390625 C 8099.92138671875 2444.7783203125 8099.2470703125 2443.46533203125 8099.2158203125 2442.00439453125 C 8099.18212890625 2440.454345703125 8099.8994140625 2439.367919921875 8100.28466796875 2438.7841796875 C 8100.3095703125 2438.746337890625 8100.3349609375 2438.70751953125 8100.36083984375 2438.667724609375 L 8100.43798828125 2438.549560546875 C 8099.60546875 2436.3984375 8099.32861328125 2434.191162109375 8099.61572265625 2431.977783203125 C 8099.86962890625 2430.023193359375 8100.5732421875 2428.04638671875 8101.7099609375 2426.093994140625 C 8101.8115234375 2424.44482421875 8102.46044921875 2422.9716796875 8103.6240234375 2421.777099609375 C 8104.701171875 2420.67138671875 8105.98779296875 2420.049560546875 8106.927734375 2419.595458984375 L 8107.103515625 2419.510498046875 L 8107.28662109375 2419.443115234375 C 8108.755859375 2418.90234375 8110.27978515625 2418.478759765625 8111.8154296875 2418.183837890625 L 8112.134765625 2418.12255859375 L 8112.45947265625 2418.113525390625 C 8113.67578125 2418.080078125 8115.0009765625 2418.080078125 8116.2822265625 2418.080078125 L 8117.85009765625 2418.080078125 L 8118.2177734375 2418.420654296875 L 8118.21923828125 2418.4208984375 L 8118.23779296875 2418.423583984375 C 8122.01806640625 2418.97216796875 8125.3291015625 2421.242431640625 8127.20947265625 2424.54296875 C 8127.443359375 2424.521240234375 8127.6787109375 2424.510498046875 8127.9140625 2424.510498046875 C 8129.73876953125 2424.510498046875 8131.54052734375 2425.17724609375 8132.98779296875 2426.38818359375 C 8134.2392578125 2427.435302734375 8135.18017578125 2428.828369140625 8135.72509765625 2430.435302734375 C 8135.76708984375 2430.43603515625 8135.80859375 2430.43701171875 8135.8505859375 2430.438232421875 C 8136.0576171875 2430.42529296875 8136.26513671875 2430.418701171875 8136.4716796875 2430.418701171875 C 8137.98876953125 2430.418701171875 8139.50927734375 2430.77587890625 8140.869140625 2431.451416015625 C 8142.1923828125 2432.10888671875 8143.36669921875 2433.070068359375 8144.2744140625 2434.236572265625 C 8146.6513671875 2436.993408203125 8148.64501953125 2440.087646484375 8150.20068359375 2443.43408203125 L 8151.095703125 2445.35986328125 C 8157.2890625 2444.19384765625 8163.59326171875 2443.578857421875 8169.8896484375 2443.5283203125 C 8174.62060546875 2443.48779296875 8179.28271484375 2442.66455078125 8183.7431640625 2441.08154296875 L 8183.82080078125 2441.053955078125 L 8183.8994140625 2441.029541015625 C 8184.267578125 2440.915771484375 8184.58056640625 2440.672607421875 8184.7822265625 2440.34423828125 C 8185.3095703125 2439.46630859375 8185.85302734375 2438.595458984375 8186.37841796875 2437.753173828125 C 8187.123046875 2436.5595703125 8187.826171875 2435.43212890625 8188.49365234375 2434.2783203125 L 8188.5087890625 2434.251953125 L 8188.5244140625 2434.225830078125 C 8189.2333984375 2433.0419921875 8189.6787109375 2431.74755859375 8189.84765625 2430.3779296875 L 8189.85009765625 2430.356689453125 L 8189.85302734375 2430.335693359375 C 8189.85595703125 2430.310302734375 8189.859375 2430.28173828125 8189.8623046875 2430.252197265625 C 8189.90234375 2429.890869140625 8189.9765625 2429.21826171875 8190.279296875 2428.49462890625 C 8190.9609375 2426.86767578125 8192.462890625 2425.79736328125 8194.1982421875 2425.701171875 L 8194.22265625 2425.699951171875 L 8194.24609375 2425.69873046875 C 8194.3173828125 2425.69580078125 8194.388671875 2425.694091796875 8194.4599609375 2425.694091796875 C 8196.326171875 2425.694091796875 8197.96484375 2426.767822265625 8198.7373046875 2428.49609375 C 8199.1005859375 2429.31005859375 8199.189453125 2430.08154296875 8199.2373046875 2430.499267578125 C 8199.421875 2432.071044921875 8199.4296875 2433.637451171875 8199.2607421875 2435.18701171875 C 8199.9111328125 2435.86083984375 8201.0087890625 2437.430908203125 8200.208984375 2439.78955078125 L 8200.2080078125 2439.79345703125 L 8200.1875 2439.85791015625 C 8199.6064453125 2441.65087890625 8198.6181640625 2443.31884765625 8197.3271484375 2444.68798828125 C 8196.6962890625 2445.4130859375 8196.16015625 2446.21533203125 8195.7314453125 2447.07568359375 C 8194.677734375 2449.733642578125 8192.330078125 2451.700439453125 8189.525390625 2452.270263671875 C 8189.1884765625 2452.3662109375 8188.876953125 2452.54052734375 8188.62109375 2452.77734375 L 8188.427734375 2452.956298828125 L 8188.21240234375 2453.108154296875 C 8186.59912109375 2454.248046875 8184.85693359375 2455.150146484375 8183.01123046875 2455.802978515625 C 8183.1337890625 2456.13623046875 8183.25927734375 2456.472900390625 8183.38720703125 2456.815673828125 C 8183.671875 2457.578857421875 8183.9658203125 2458.367919921875 8184.2509765625 2459.169921875 C 8184.9365234375 2460.989013671875 8185.25146484375 2462.89404296875 8185.18701171875 2464.83544921875 C 8185.19384765625 2466.564208984375 8184.54541015625 2468.200927734375 8183.35107421875 2469.458984375 C 8182.12158203125 2470.753662109375 8180.4619140625 2471.491943359375 8178.67724609375 2471.537841796875 L 8178.67431640625 2471.537841796875 L 8178.671875 2471.537841796875 C 8178.61669921875 2471.539306640625 8178.56201171875 2471.539794921875 8178.5068359375 2471.539794921875 C 8178.35009765625 2471.539794921875 8178.1923828125 2471.5341796875 8178.03515625 2471.523193359375 C 8176.2353515625 2471.500732421875 8174.4619140625 2471.01904296875 8172.89892578125 2470.126953125 L 8172.82373046875 2470.083984375 L 8172.75048828125 2470.037841796875 C 8170.9921875 2468.9306640625 8168.93701171875 2468.458251953125 8165.87744140625 2468.458251953125 C 8164.93310546875 2468.458251953125 8163.96240234375 2468.5009765625 8163.13671875 2468.54296875 C 8159.482421875 2468.72998046875 8155.744140625 2469.093505859375 8152.12890625 2469.44482421875 C 8150.06640625 2469.6455078125 8147.935546875 2469.852783203125 8145.8193359375 2470.02783203125 C 8145.240234375 2472.263916015625 8145.01806640625 2474.566162109375 8145.15869140625 2476.87451171875 L 8145.1669921875 2477.014892578125 L 8145.166015625 2477.155517578125 C 8145.14599609375 2479.245361328125 8145.21630859375 2481.353515625 8145.3740234375 2483.43994140625 C 8148.79345703125 2484.952880859375 8152.38623046875 2486.05224609375 8156.07177734375 2486.712646484375 L 8156.1552734375 2486.7275390625 L 8156.23828125 2486.74609375 C 8159.0244140625 2487.36865234375 8161.86572265625 2487.974365234375 8164.6142578125 2488.56005859375 C 8165.7138671875 2488.79443359375 8166.81396484375 2489.029052734375 8167.9140625 2489.26513671875 C 8170.23828125 2489.76416015625 8172.29833984375 2491.086669921875 8173.71826171875 2492.990478515625 C 8177.74755859375 2498.2451171875 8180.1279296875 2504.50830078125 8180.60546875 2511.110107421875 C 8180.8779296875 2513.744140625 8181.00146484375 2516.356201171875 8181.11767578125 2518.8857421875 C 8182.509765625 2520.739501953125 8183.56201171875 2522.798095703125 8184.24853515625 2525.0087890625 C 8184.9404296875 2526.865966796875 8184.8935546875 2528.884033203125 8184.1123046875 2530.71337890625 C 8184.00048828125 2530.974853515625 8183.8759765625 2531.22802734375 8183.73876953125 2531.472412109375 C 8185.23583984375 2532.498291015625 8186.69140625 2533.59619140625 8188.08740234375 2534.75341796875 C 8188.52490234375 2535.1142578125 8188.92626953125 2535.51708984375 8189.28369140625 2535.954345703125 C 8190.6865234375 2537.433349609375 8191.22607421875 2539.529541015625 8190.6923828125 2541.518310546875 L 8190.6376953125 2541.72216796875 L 8190.5615234375 2541.9189453125 C 8190.03955078125 2543.273681640625 8189.02001953125 2544.33154296875 8187.69091796875 2544.89794921875 C 8186.81396484375 2545.271484375 8185.99609375 2545.352294921875 8185.541015625 2545.393798828125 C 8184.6181640625 2545.49169921875 8183.68017578125 2545.541259765625 8182.7529296875 2545.541259765625 C 8179.8701171875 2545.541259765625 8177.0234375 2545.073486328125 8174.291015625 2544.15087890625 L 8174.2509765625 2544.13720703125 L 8174.2109375 2544.122802734375 C 8171.47021484375 2543.132080078125 8168.6025390625 2542.182861328125 8165.44775390625 2541.222412109375 C 8164.11572265625 2540.908203125 8162.8505859375 2540.3330078125 8161.73828125 2539.539306640625 C 8161.29541015625 2539.59375 8160.84912109375 2539.621337890625 8160.40625 2539.621337890625 C 8157.87744140625 2539.621337890625 8155.4111328125 2538.726318359375 8153.4619140625 2537.10107421875 C 8151.48779296875 2535.455322265625 8150.1591796875 2533.15283203125 8149.720703125 2530.617919921875 C 8149.59375 2529.88330078125 8149.5419921875 2529.135986328125 8149.5673828125 2528.39501953125 C 8149.5830078125 2526.517333984375 8149.78662109375 2524.643310546875 8150.1728515625 2522.81201171875 C 8149.17626953125 2521.087646484375 8148.2255859375 2519.40966796875 8147.41259765625 2517.96923828125 L 8147.37255859375 2517.89794921875 L 8147.3349609375 2517.82470703125 C 8147.24267578125 2517.644287109375 8147.10205078125 2517.49462890625 8146.9267578125 2517.39013671875 C 8144.740234375 2516.265869140625 8142.75634765625 2514.96435546875 8140.83642578125 2513.705322265625 C 8139.97607421875 2513.140869140625 8139.1630859375 2512.60791015625 8138.330078125 2512.087646484375 L 8138.1923828125 2512.001708984375 L 8138.0625 2511.90478515625 C 8137.91357421875 2511.79443359375 8137.7607421875 2511.771240234375 8137.65869140625 2511.771240234375 C 8137.5458984375 2511.771240234375 8137.4384765625 2511.798583984375 8137.33935546875 2511.852294921875 L 8137.28662109375 2511.880615234375 L 8137.23388671875 2511.9072265625 C 8133.658203125 2513.7060546875 8129.6533203125 2514.656982421875 8125.65283203125 2514.6572265625 C 8124.40087890625 2514.6572265625 8123.138671875 2514.564697265625 8121.89892578125 2514.382080078125 C 8119.91015625 2514.189208984375 8117.9833984375 2513.448486328125 8116.3720703125 2512.267822265625 C 8114.0634765625 2513.0087890625 8111.9189453125 2514.135009765625 8109.98779296875 2515.62158203125 L 8109.94287109375 2515.65625 L 8109.89697265625 2515.689453125 C 8108.43603515625 2516.749267578125 8106.85400390625 2517.64990234375 8105.19189453125 2518.36767578125 C 8102.89013671875 2519.546875 8100.82666015625 2521.099609375 8099.056640625 2522.98388671875 L 8099.03759765625 2523.00390625 L 8099.025390625 2523.016845703125 L 8099.02978515625 2523.04052734375 L 8099.03564453125 2523.075927734375 C 8099.53271484375 2526.063232421875 8099.18408203125 2529.12109375 8098.02734375 2531.91943359375 C 8096.8837890625 2534.685791015625 8095.001953125 2537.07373046875 8092.5810546875 2538.831787109375 C 8090.74169921875 2540.27490234375 8088.4482421875 2541.068359375 8086.109375 2541.068359375 C 8085.53076171875 2541.068359375 8084.94921875 2541.02001953125 8084.3779296875 2540.92431640625 C 8084.24365234375 2540.908447265625 8084.107421875 2540.900390625 8083.97216796875 2540.900390625 C 8083.33203125 2540.900390625 8082.70654296875 2541.078857421875 8082.1630859375 2541.416748046875 L 8082.06103515625 2541.480224609375 L 8081.95556640625 2541.537353515625 C 8078.052734375 2543.65087890625 8073.896484375 2545.29638671875 8069.60205078125 2546.4287109375 L 8069.51123046875 2546.452880859375 L 8069.41943359375 2546.472412109375 C 8068.8310546875 2546.598388671875 8068.228515625 2546.662109375 8067.62841796875 2546.662109375 Z" stroke="none"/>
      <path d="M 8116.2822265625 2422.080078125 C 8115.02197265625 2422.080078125 8113.73095703125 2422.080078125 8112.56982421875 2422.112060546875 C 8111.2421875 2422.366943359375 8109.93701171875 2422.72998046875 8108.66796875 2423.197021484375 C 8107.0517578125 2423.97802734375 8105.4560546875 2424.7890625 8105.72607421875 2427.044921875 C 8105.755859375 2427.22607421875 8105.5458984375 2427.466064453125 8105.42578125 2427.677001953125 C 8103.47412109375 2430.803955078125 8102.81298828125 2434.0830078125 8104.3740234375 2437.60107421875 C 8104.7900390625 2438.720947265625 8104.533203125 2439.97900390625 8103.7138671875 2440.84912109375 C 8103.205078125 2441.631103515625 8102.81396484375 2442.052001953125 8103.955078125 2442.98388671875 C 8105.3662109375 2444.389892578125 8106.13623046875 2446.31494140625 8106.0859375 2448.306884765625 C 8106.1201171875 2448.998046875 8105.544921875 2449.2080078125 8105.03515625 2449.239013671875 C 8102.97216796875 2449.5419921875 8100.966796875 2450.159912109375 8099.0908203125 2451.072021484375 C 8098.42626953125 2451.362548828125 8097.712890625 2451.509765625 8096.99755859375 2451.509765625 C 8096.521484375 2451.509765625 8096.0439453125 2451.444580078125 8095.5791015625 2451.31298828125 C 8088.55419921875 2449.4189453125 8081.4970703125 2447.583984375 8074.50390625 2445.6298828125 C 8070.990234375 2444.6650390625 8067.37109375 2444.1298828125 8063.72705078125 2444.035888671875 C 8060.0859375 2443.885009765625 8056.4951171875 2443.133056640625 8053.10009765625 2441.81103515625 C 8051.26806640625 2441.118896484375 8050.2822265625 2439.52490234375 8049.31689453125 2437.930908203125 C 8047.31298828125 2434.675048828125 8046.185546875 2430.9560546875 8046.044921875 2427.135009765625 C 8046.013671875 2426.506103515625 8046.1328125 2425.450927734375 8045.443359375 2425.4208984375 C 8045.42578125 2425.419189453125 8045.408203125 2425.41845703125 8045.3916015625 2425.41845703125 C 8044.7802734375 2425.418701171875 8044.7470703125 2426.4599609375 8044.572265625 2427.074951171875 C 8043.90625 2429.69091796875 8043.9169921875 2432.43310546875 8044.6015625 2435.0439453125 C 8044.693359375 2435.375 8044.90234375 2435.85595703125 8044.572265625 2436.06689453125 C 8044.498046875 2436.113037109375 8044.4287109375 2436.132568359375 8044.36328125 2436.132568359375 C 8044.0908203125 2436.132568359375 8043.896484375 2435.786376953125 8043.701171875 2435.615966796875 C 8043.3720703125 2435.271728515625 8042.919921875 2435.081787109375 8042.4521484375 2435.081787109375 C 8042.3583984375 2435.081787109375 8042.263671875 2435.08935546875 8042.169921875 2435.10498046875 L 8042.169921875 2436.069091796875 C 8043.37109375 2438.02392578125 8044.8125 2439.888916015625 8044.8720703125 2442.35400390625 C 8044.8720703125 2443.10693359375 8045.533203125 2443.587890625 8046.1630859375 2444.008056640625 C 8047.078125 2444.6630859375 8048.1220703125 2445.114990234375 8049.22607421875 2445.3349609375 C 8053.3701171875 2446.0859375 8057.15185546875 2447.797119140625 8061.05419921875 2449.242919921875 C 8061.98486328125 2449.60498046875 8061.89599609375 2449.905029296875 8061.47509765625 2450.596923828125 C 8060.15380859375 2452.79296875 8058.89404296875 2455.01708984375 8057.6328125 2457.242919921875 C 8056.923828125 2458.4150390625 8056.48291015625 2459.72998046875 8056.3408203125 2461.092041015625 C 8056.21240234375 2463.302978515625 8057.22705078125 2464.505126953125 8059.119140625 2464.505126953125 C 8059.439453125 2464.505126953125 8059.78466796875 2464.470703125 8060.15380859375 2464.40087890625 C 8061.84423828125 2464.037109375 8063.4580078125 2463.384033203125 8064.9267578125 2462.471923828125 C 8066.212890625 2461.72509765625 8067.6728515625 2461.330078125 8069.16015625 2461.3291015625 C 8069.29833984375 2461.32763671875 8069.4365234375 2461.326904296875 8069.57470703125 2461.326904296875 C 8071.43408203125 2461.326904296875 8073.2919921875 2461.458251953125 8075.1337890625 2461.718994140625 C 8080.6279296875 2462.409912109375 8086.001953125 2463.614013671875 8091.43505859375 2464.60595703125 C 8095.05078125 2465.1259765625 8098.1162109375 2467.531982421875 8099.48095703125 2470.9208984375 C 8101.73291015625 2476.424072265625 8104.07421875 2481.89599609375 8106.44580078125 2487.3701171875 C 8107.27978515625 2489.2939453125 8107.06982421875 2489.594970703125 8104.9990234375 2489.926025390625 C 8104.93310546875 2489.9462890625 8104.8642578125 2489.957275390625 8104.7958984375 2489.957275390625 C 8104.783203125 2489.957275390625 8104.7705078125 2489.956787109375 8104.7578125 2489.9560546875 C 8099.5341796875 2490.6220703125 8094.3408203125 2491.222900390625 8089.14697265625 2491.885009765625 C 8087.4990234375 2491.971923828125 8085.9208984375 2492.5830078125 8084.64404296875 2493.62890625 C 8082.9580078125 2495.116943359375 8081.57177734375 2496.9130859375 8080.56201171875 2498.922119140625 C 8077.88916015625 2504.544921875 8075.39794921875 2510.22900390625 8072.30517578125 2515.612060546875 C 8071.88623046875 2516.389892578125 8071.30322265625 2517.06689453125 8070.59521484375 2517.595947265625 C 8069.115234375 2518.697021484375 8067.85205078125 2520.06396484375 8066.8720703125 2521.6259765625 C 8065.26416015625 2523.924072265625 8065.205078125 2526.965087890625 8066.72119140625 2529.323974609375 C 8067.60498046875 2530.927001953125 8068.89990234375 2532.26611328125 8070.47314453125 2533.2041015625 C 8069.36181640625 2534.22412109375 8068.2822265625 2535.216064453125 8067.23095703125 2536.179931640625 C 8066.43896484375 2536.85498046875 8065.73291015625 2537.6240234375 8065.12890625 2538.470947265625 C 8063.68896484375 2540.571044921875 8064.5 2542.35107421875 8067.02099609375 2542.62109375 C 8067.22265625 2542.648681640625 8067.42578125 2542.662109375 8067.62841796875 2542.662109375 C 8067.9482421875 2542.662109375 8068.26806640625 2542.628173828125 8068.58203125 2542.56103515625 C 8072.57177734375 2541.509033203125 8076.421875 2539.985107421875 8080.05078125 2538.02001953125 C 8081.2333984375 2537.284423828125 8082.5927734375 2536.900390625 8083.97216796875 2536.900390625 C 8084.30517578125 2536.900390625 8084.6396484375 2536.922607421875 8084.97314453125 2536.968017578125 C 8085.35107421875 2537.035400390625 8085.73095703125 2537.068359375 8086.109375 2537.068359375 C 8087.57373046875 2537.068359375 8089.00732421875 2536.57177734375 8090.1669921875 2535.64111328125 C 8093.94384765625 2532.93505859375 8095.85302734375 2528.31689453125 8095.08984375 2523.73291015625 C 8094.85595703125 2522.468994140625 8095.248046875 2521.169921875 8096.14111328125 2520.2451171875 C 8098.2529296875 2517.9970703125 8100.7421875 2516.135009765625 8103.4951171875 2514.742919921875 C 8104.92822265625 2514.134033203125 8106.2880859375 2513.365966796875 8107.5478515625 2512.451904296875 C 8110.08984375 2510.4951171875 8112.98388671875 2509.044921875 8116.07421875 2508.181884765625 C 8116.31494140625 2508.08447265625 8116.56689453125 2508.037353515625 8116.81689453125 2508.037353515625 C 8117.3544921875 2508.037353515625 8117.8818359375 2508.25634765625 8118.26513671875 2508.6640625 C 8119.4140625 2509.669921875 8120.85498046875 2510.281982421875 8122.376953125 2510.408935546875 C 8123.46630859375 2510.574951171875 8124.56103515625 2510.6572265625 8125.65283203125 2510.6572265625 C 8129.03515625 2510.6572265625 8132.38720703125 2509.86767578125 8135.43603515625 2508.333984375 C 8136.1328125 2507.95703125 8136.89697265625 2507.771240234375 8137.65869140625 2507.771240234375 C 8138.64453125 2507.771240234375 8139.6259765625 2508.0830078125 8140.44921875 2508.695068359375 C 8143.2412109375 2510.43896484375 8145.8828125 2512.364013671875 8148.82421875 2513.867919921875 C 8149.7119140625 2514.35693359375 8150.43408203125 2515.10009765625 8150.89599609375 2516.0029296875 C 8151.9150390625 2517.80810546875 8152.93701171875 2519.60791015625 8153.98681640625 2521.416015625 C 8154.2880859375 2521.889892578125 8154.3759765625 2522.468994140625 8154.22802734375 2523.010009765625 C 8153.798828125 2524.803955078125 8153.578125 2526.639892578125 8153.56689453125 2528.48388671875 C 8153.546875 2528.969970703125 8153.5791015625 2529.4560546875 8153.662109375 2529.93603515625 C 8154.23876953125 2533.27001953125 8157.13427734375 2535.621337890625 8160.40576171875 2535.621337890625 C 8160.7939453125 2535.621337890625 8161.18701171875 2535.58837890625 8161.58203125 2535.52001953125 C 8161.77587890625 2535.470703125 8161.97314453125 2535.446533203125 8162.1689453125 2535.446533203125 C 8162.689453125 2535.446533203125 8163.20166015625 2535.6171875 8163.623046875 2535.94091796875 C 8164.44287109375 2536.639892578125 8165.4228515625 2537.125 8166.47509765625 2537.35400390625 C 8169.54296875 2538.285888671875 8172.56884765625 2539.27587890625 8175.57080078125 2540.361083984375 C 8177.89013671875 2541.144287109375 8180.31591796875 2541.541259765625 8182.7529296875 2541.541259765625 C 8183.55126953125 2541.541259765625 8184.3505859375 2541.498779296875 8185.14794921875 2541.4130859375 C 8185.80908203125 2541.35302734375 8186.52783203125 2541.262939453125 8186.8291015625 2540.48095703125 C 8187.009765625 2539.80810546875 8186.8017578125 2539.089111328125 8186.2890625 2538.615966796875 C 8186.06982421875 2538.326904296875 8185.81689453125 2538.06494140625 8185.537109375 2537.8349609375 C 8183.53515625 2536.175048828125 8181.4189453125 2534.656982421875 8179.203125 2533.294921875 C 8178.48291015625 2532.780029296875 8177.76220703125 2532.239013671875 8176.89208984375 2531.60693359375 C 8177.28076171875 2531.4560546875 8177.462890625 2531.39599609375 8177.64306640625 2531.3359375 C 8177.90576171875 2531.2919921875 8178.1640625 2531.218994140625 8178.412109375 2531.1201171875 C 8180.30615234375 2530.360107421875 8181.22509765625 2528.2080078125 8180.46484375 2526.31396484375 C 8179.9072265625 2524.468017578125 8179.02197265625 2522.736083984375 8177.85400390625 2521.201904296875 C 8177.40478515625 2520.64697265625 8177.15087890625 2519.9609375 8177.1298828125 2519.248046875 C 8177.01123046875 2516.662109375 8176.89013671875 2514.044921875 8176.6201171875 2511.458984375 C 8176.2099609375 2505.6240234375 8174.08984375 2500.0390625 8170.52587890625 2495.40087890625 C 8169.68505859375 2494.263916015625 8168.45703125 2493.472900390625 8167.07421875 2493.176025390625 C 8163.1708984375 2492.337890625 8159.26904296875 2491.52197265625 8155.3662109375 2490.64990234375 C 8150.9189453125 2489.85302734375 8146.59814453125 2488.468017578125 8142.51708984375 2486.530029296875 C 8141.9208984375 2486.277099609375 8141.52392578125 2485.7041015625 8141.49609375 2485.056884765625 C 8141.2509765625 2482.41796875 8141.14111328125 2479.76806640625 8141.166015625 2477.117919921875 C 8140.9951171875 2474.31396484375 8141.27978515625 2471.5009765625 8142.009765625 2468.7880859375 C 8142.3818359375 2467.219970703125 8143.76123046875 2466.096923828125 8145.3720703125 2466.051025390625 C 8151.22509765625 2465.570068359375 8157.0498046875 2464.84912109375 8162.93408203125 2464.548095703125 C 8163.919921875 2464.498046875 8164.90234375 2464.458251953125 8165.87744140625 2464.458251953125 C 8168.9990234375 2464.458251953125 8172.04443359375 2464.8662109375 8174.8818359375 2466.653076171875 C 8175.8828125 2467.224365234375 8177.015625 2467.524169921875 8178.16796875 2467.524169921875 C 8178.18310546875 2467.524169921875 8178.19873046875 2467.52392578125 8178.2138671875 2467.52392578125 C 8178.3115234375 2467.53466796875 8178.40966796875 2467.539794921875 8178.50732421875 2467.539794921875 C 8178.52978515625 2467.539794921875 8178.5517578125 2467.53955078125 8178.57421875 2467.5390625 C 8180.05517578125 2467.5009765625 8181.22509765625 2466.26904296875 8181.18603515625 2464.7880859375 C 8181.2451171875 2463.342041015625 8181.009765625 2461.89892578125 8180.4951171875 2460.547119140625 C 8179.833984375 2458.68310546875 8179.115234375 2456.87890625 8178.48388671875 2455.014892578125 C 8177.97900390625 2453.47998046875 8178.27880859375 2452.93994140625 8179.81005859375 2452.577880859375 C 8181.9990234375 2452.06689453125 8184.06884765625 2451.137939453125 8185.90478515625 2449.841064453125 C 8186.6767578125 2449.126953125 8187.6162109375 2448.62109375 8188.63720703125 2448.367919921875 C 8190.2099609375 2448.0830078125 8191.51416015625 2446.98291015625 8192.0595703125 2445.47998046875 C 8192.6669921875 2444.217041015625 8193.4443359375 2443.0439453125 8194.37109375 2441.991943359375 C 8195.287109375 2441.035888671875 8195.9736328125 2439.885009765625 8196.3818359375 2438.625 C 8196.4423828125 2438.4140625 8196.591796875 2438.14404296875 8196.3818359375 2437.962890625 C 8196.306640625 2437.90478515625 8196.232421875 2437.881103515625 8196.162109375 2437.881103515625 C 8195.978515625 2437.881103515625 8195.810546875 2438.04296875 8195.658203125 2438.174072265625 C 8195.203125 2438.535888671875 8194.962890625 2439.110107421875 8194.33203125 2439.3798828125 C 8194.3173828125 2439.218994140625 8194.3173828125 2439.05810546875 8194.33203125 2438.89794921875 C 8194.3994140625 2438.623046875 8194.478515625 2438.35205078125 8194.5732421875 2438.0849609375 C 8195.310546875 2435.785888671875 8195.546875 2433.35595703125 8195.263671875 2430.9580078125 C 8195.203125 2430.428466796875 8195.115234375 2429.694091796875 8194.458984375 2429.694091796875 C 8194.447265625 2429.694091796875 8194.43359375 2429.694580078125 8194.419921875 2429.695068359375 C 8193.8779296875 2429.72509765625 8193.8779296875 2430.4169921875 8193.8173828125 2430.867919921875 C 8193.5810546875 2432.782958984375 8192.947265625 2434.6259765625 8191.9560546875 2436.281005859375 C 8190.755859375 2438.35595703125 8189.43505859375 2440.365966796875 8188.2041015625 2442.416015625 C 8187.4951171875 2443.58203125 8186.384765625 2444.447998046875 8185.0810546875 2444.85107421875 C 8180.2119140625 2446.5791015625 8175.087890625 2447.48388671875 8169.921875 2447.528076171875 C 8162.59716796875 2447.5869140625 8155.2998046875 2448.43408203125 8148.1572265625 2450.053955078125 C 8146.048828125 2450.556884765625 8143.9208984375 2451.176513671875 8141.75830078125 2451.176513671875 C 8141.2119140625 2451.176513671875 8140.6630859375 2451.136962890625 8140.11181640625 2451.0458984375 C 8136.89892578125 2450.531982421875 8133.68701171875 2450.14208984375 8130.47509765625 2449.840087890625 C 8128.615234375 2449.655029296875 8128.615234375 2449.6240234375 8128.494140625 2447.791015625 C 8128.46484375 2447.215087890625 8128.375 2446.674072265625 8128.31494140625 2446.10302734375 C 8128.044921875 2443.998046875 8128.044921875 2444.05810546875 8130.2060546875 2443.998046875 C 8131.134765625 2443.998046875 8131.7978515625 2444.15087890625 8131.85791015625 2445.202880859375 C 8131.884765625 2445.822509765625 8132.17626953125 2446.056884765625 8132.6875 2446.056884765625 C 8132.74853515625 2446.056884765625 8132.81201171875 2446.053466796875 8132.87890625 2446.047119140625 C 8132.93359375 2446.04248046875 8132.98828125 2446.040771484375 8133.04296875 2446.040771484375 C 8133.255859375 2446.040771484375 8133.46826171875 2446.068115234375 8133.6806640625 2446.068115234375 C 8133.775390625 2446.068115234375 8133.86962890625 2446.062744140625 8133.9638671875 2446.047119140625 C 8134.11083984375 2445.998046875 8134.26220703125 2445.9609375 8134.416015625 2445.93701171875 C 8134.55859375 2445.914794921875 8134.69970703125 2445.904052734375 8134.83935546875 2445.904052734375 C 8136.1630859375 2445.904052734375 8137.3271484375 2446.868408203125 8137.537109375 2448.217041015625 C 8137.6259765625 2448.5791015625 8137.77685546875 2449 8138.31689453125 2449 L 8143.89990234375 2449 C 8143.3349609375 2447.666015625 8142.68310546875 2446.3701171875 8141.94921875 2445.1201171875 L 8146.5732421875 2445.1201171875 C 8145.16796875 2442.096923828125 8143.34912109375 2439.282958984375 8141.21728515625 2436.81640625 C 8141.1689453125 2436.760009765625 8141.1689453125 2436.760009765625 8141.1689453125 2436.760009765625 C 8140.05078125 2435.278076171875 8138.306640625 2434.418701171875 8136.4716796875 2434.418701171875 C 8136.28662109375 2434.418701171875 8136.10107421875 2434.427490234375 8135.9150390625 2434.445068359375 C 8135.79443359375 2434.4375 8135.673828125 2434.43359375 8135.55322265625 2434.43359375 C 8135.4326171875 2434.43359375 8135.31201171875 2434.4375 8135.19189453125 2434.445068359375 C 8135.1181640625 2434.453369140625 8135.0458984375 2434.457275390625 8134.97509765625 2434.457275390625 C 8134.0068359375 2434.457275390625 8133.2978515625 2433.732421875 8132.39892578125 2433.48095703125 C 8131.8291015625 2433.300048828125 8132.1591796875 2432.4580078125 8132.0087890625 2431.947021484375 C 8131.4033203125 2429.88671875 8129.7451171875 2428.510498046875 8127.9140625 2428.510498046875 C 8127.4736328125 2428.510498046875 8127.0234375 2428.590087890625 8126.5751953125 2428.759033203125 C 8126.544921875 2428.77490234375 8126.51513671875 2428.7890625 8126.48486328125 2428.802001953125 C 8126.31103515625 2428.876953125 8126.1298828125 2428.91259765625 8125.95166015625 2428.91259765625 C 8125.4296875 2428.91259765625 8124.9326171875 2428.607177734375 8124.712890625 2428.097900390625 C 8124.44189453125 2427.7041015625 8124.1728515625 2427.31298828125 8123.93212890625 2426.89208984375 C 8122.7021484375 2424.45703125 8120.36279296875 2422.77392578125 8117.6630859375 2422.382080078125 C 8117.212890625 2422.321044921875 8116.6728515625 2422.44189453125 8116.2822265625 2422.080078125 M 8116.2822265625 2414.080078125 L 8119.41796875 2414.080078125 L 8120.09765625 2414.70947265625 C 8123.8095703125 2415.56591796875 8127.0712890625 2417.657470703125 8129.369140625 2420.599853515625 C 8133.08349609375 2421.05908203125 8136.3447265625 2423.259033203125 8138.31103515625 2426.54296875 C 8141.95361328125 2427.036376953125 8145.3173828125 2428.9765625 8147.5546875 2431.94091796875 C 8149.72216796875 2434.42431640625 8151.7685546875 2437.528076171875 8153.421875 2440.898681640625 C 8158.87744140625 2440.02978515625 8164.37060546875 2439.572509765625 8169.857421875 2439.5283203125 C 8173.9384765625 2439.493408203125 8177.9638671875 2438.815185546875 8181.82958984375 2437.510986328125 L 8182.98486328125 2435.635986328125 C 8183.6787109375 2434.523193359375 8184.375 2433.41015625 8185.03125 2432.275390625 C 8185.51318359375 2431.468505859375 8185.77734375 2430.700439453125 8185.87744140625 2429.88818359375 C 8186.47314453125 2424.490966796875 8190.373046875 2421.906982421875 8193.9775390625 2421.707275390625 C 8193.98828125 2421.707275390625 8194 2421.707275390625 8194.0107421875 2421.707275390625 C 8198.36328125 2421.70703125 8202.556640625 2424.29296875 8203.212890625 2430.052490234375 C 8203.337890625 2431.119140625 8203.39453125 2432.1865234375 8203.3818359375 2433.25146484375 L 8205.8154296875 2435.1201171875 L 8203.9853515625 2441.108154296875 C 8203.216796875 2443.485595703125 8201.88671875 2445.711181640625 8200.1474609375 2447.526611328125 C 8199.931640625 2447.782958984375 8199.5595703125 2448.34375 8199.26953125 2448.947509765625 C 8198.068359375 2452.373046875 8194.421875 2455.4501953125 8190.06298828125 2456.23974609375 C 8189.43408203125 2456.8134765625 8188.74462890625 2457.331787109375 8188.00732421875 2457.7978515625 L 8188.03515625 2457.872802734375 C 8188.876953125 2460.07861328125 8189.283203125 2462.572998046875 8189.17919921875 2465.11474609375 C 8189.25830078125 2467.430908203125 8188.21728515625 2470.142822265625 8186.25146484375 2472.213134765625 C 8184.28662109375 2474.28271484375 8181.6328125 2475.463134765625 8178.77978515625 2475.536376953125 L 8178.23974609375 2475.55029296875 L 8177.34228515625 2475.476318359375 C 8177.28466796875 2475.477783203125 8177.2255859375 2475.478759765625 8177.16650390625 2475.478759765625 C 8175.45947265625 2475.478759765625 8173.04638671875 2474.81689453125 8170.916015625 2473.60107421875 C 8169.53125 2472.737548828125 8168.15771484375 2472.458251953125 8165.87744140625 2472.458251953125 C 8165.03662109375 2472.458251953125 8164.189453125 2472.49462890625 8163.33935546875 2472.537841796875 C 8159.7177734375 2472.72314453125 8156.1162109375 2473.076171875 8152.51611328125 2473.42626953125 L 8149.21240234375 2473.73046875 C 8149.11083984375 2474.71044921875 8149.0927734375 2475.670166015625 8149.1513671875 2476.631103515625 C 8149.1474609375 2478.100341796875 8149.169921875 2479.429443359375 8149.22119140625 2480.686767578125 C 8151.734375 2481.634033203125 8154.2314453125 2482.319091796875 8156.77734375 2482.775390625 L 8165.45166015625 2484.648681640625 L 8168.75390625 2485.354248046875 C 8172.0439453125 2486.060791015625 8174.9580078125 2487.939453125 8176.9580078125 2490.64404296875 C 8181.4052734375 2496.429443359375 8184.07861328125 2503.473876953125 8184.6005859375 2510.89794921875 C 8184.8203125 2512.9677734375 8184.94921875 2515.250244140625 8185.05908203125 2517.5478515625 C 8186.43896484375 2519.609619140625 8187.43994140625 2521.739501953125 8188.123046875 2524.00048828125 C 8188.80908203125 2525.64794921875 8188.9697265625 2527.810546875 8188.51416015625 2529.985107421875 C 8189.22705078125 2530.527587890625 8189.94140625 2531.094482421875 8190.6435546875 2531.676513671875 C 8191.22998046875 2532.158447265625 8191.78564453125 2532.710205078125 8192.2880859375 2533.310791015625 C 8194.572265625 2535.790283203125 8195.439453125 2539.26025390625 8194.5556640625 2542.55517578125 C 8193.6630859375 2544.995361328125 8191.57861328125 2548.86181640625 8185.87158203125 2549.38037109375 C 8184.92041015625 2549.4833984375 8183.8359375 2549.541259765625 8182.7529296875 2549.541259765625 C 8179.43408203125 2549.541259765625 8176.15673828125 2549.002685546875 8173.01123046875 2547.9404296875 C 8169.9794921875 2546.846435546875 8167.08447265625 2545.900146484375 8164.14990234375 2545.0087890625 C 8163.1103515625 2544.798583984375 8161.89208984375 2544.314208984375 8160.68798828125 2543.61865234375 C 8160.59326171875 2543.62060546875 8160.49951171875 2543.621337890625 8160.40576171875 2543.621337890625 C 8153.16552734375 2543.621337890625 8147.01416015625 2538.439453125 8145.779296875 2531.299560546875 C 8145.599609375 2530.260986328125 8145.5302734375 2529.203125 8145.57373046875 2528.154541015625 C 8145.5791015625 2526.695068359375 8145.71435546875 2525.11083984375 8145.97509765625 2523.507080078125 L 8144.25390625 2520.502197265625 C 8142.4130859375 2519.5087890625 8140.52685546875 2518.285888671875 8138.642578125 2517.05029296875 L 8137.38037109375 2516.235107421875 C 8133.58984375 2517.847900390625 8129.61962890625 2518.6572265625 8125.65283203125 2518.6572265625 C 8124.1591796875 2518.6572265625 8122.66162109375 2518.544677734375 8121.17138671875 2518.317626953125 C 8119.51220703125 2518.190673828125 8117.68359375 2517.63232421875 8115.9560546875 2516.716796875 C 8114.58984375 2517.315673828125 8113.47021484375 2517.988525390625 8112.427734375 2518.791259765625 C 8110.5029296875 2520.19189453125 8108.61083984375 2521.261474609375 8106.62353515625 2522.10595703125 C 8105.56640625 2522.655029296875 8104.359375 2523.49267578125 8103.20947265625 2524.51806640625 C 8103.6240234375 2531.49609375 8100.5234375 2538.0625 8094.826171875 2542.144287109375 C 8092.6123046875 2543.936279296875 8089.39306640625 2545.068359375 8086.109375 2545.068359375 C 8085.2646484375 2545.068359375 8084.41552734375 2544.99462890625 8083.5712890625 2544.84423828125 C 8079.677734375 2547.319580078125 8075.2236328125 2549.083251953125 8070.62158203125 2550.296630859375 L 8069.619140625 2550.56103515625 L 8067.62841796875 2550.662353515625 C 8067.0654296875 2550.662353515625 8066.501953125 2550.624267578125 8065.94189453125 2550.548095703125 C 8062.1015625 2550.139892578125 8058.87841796875 2547.956298828125 8057.32568359375 2544.584716796875 C 8055.771484375 2541.20849609375 8056.21044921875 2537.331298828125 8058.53076171875 2533.947021484375 C 8058.828125 2533.529296875 8059.13232421875 2533.13037109375 8059.4443359375 2532.748291015625 C 8056.716796875 2528.134521484375 8056.94189453125 2521.86376953125 8060.3173828125 2517.039794921875 C 8061.6083984375 2514.962890625 8063.5341796875 2512.8779296875 8065.8203125 2511.177490234375 C 8067.66650390625 2507.62744140625 8069.607421875 2503.449462890625 8071.56201171875 2499.26513671875 L 8073.3369140625 2495.487548828125 C 8074.88818359375 2492.396240234375 8076.8857421875 2489.80615234375 8079.3505859375 2487.630859375 C 8082.18798828125 2485.299560546875 8085.35205078125 2484.073974609375 8088.7255859375 2483.896240234375 L 8095.857421875 2482.995361328125 C 8094.56787109375 2479.964111328125 8093.30908203125 2476.96240234375 8092.07666015625 2473.95068359375 C 8091.76171875 2473.168701171875 8091.0859375 2472.63818359375 8090.29638671875 2472.5244140625 L 8085.12158203125 2471.54638671875 C 8081.4765625 2470.836669921875 8077.8349609375 2470.12158203125 8074.1357421875 2469.656494140625 C 8072.54248046875 2469.431884765625 8071.0595703125 2469.326904296875 8069.57470703125 2469.326904296875 C 8066.8896484375 2470.669921875 8064.43017578125 2471.663818359375 8061.8369140625 2472.221923828125 C 8060.74072265625 2472.431640625 8059.89892578125 2472.505126953125 8059.119140625 2472.505126953125 C 8056.0390625 2472.505126953125 8053.24609375 2471.343017578125 8051.2548828125 2469.233154296875 C 8049.7939453125 2467.6845703125 8048.1044921875 2464.93505859375 8048.35400390625 2460.62890625 C 8048.6142578125 2458.06494140625 8049.29931640625 2455.82470703125 8050.36767578125 2453.838134765625 C 8049.498046875 2453.576416015625 8048.642578125 2453.359619140625 8047.7998046875 2453.206787109375 C 8045.4287109375 2452.735595703125 8043.357421875 2451.838134765625 8041.505859375 2450.512939453125 C 8037.7138671875 2447.988525390625 8036.8720703125 2444.668212890625 8036.8720703125 2442.35400390625 C 8036.8662109375 2442.379638671875 8036.853515625 2442.3916015625 8036.8359375 2442.3916015625 C 8036.705078125 2442.3916015625 8036.275390625 2441.71630859375 8035.951171875 2441.20703125 L 8035.9169921875 2441.15380859375 L 8035.353515625 2440.25732421875 L 8034.169921875 2438.33056640625 L 8034.169921875 2436.069091796875 L 8034.169921875 2429.2802734375 L 8036.2021484375 2428.652587890625 C 8036.31640625 2427.448486328125 8036.5234375 2426.26513671875 8036.8193359375 2425.10107421875 C 8038.326171875 2417.633056640625 8044.671875 2417.418701171875 8045.390625 2417.41845703125 C 8048.61083984375 2417.55126953125 8053.96240234375 2419.652099609375 8054.037109375 2426.724365234375 C 8054.12939453125 2429.2763671875 8054.85205078125 2431.661376953125 8056.1298828125 2433.73779296875 C 8056.31396484375 2434.041259765625 8056.47119140625 2434.33203125 8056.64599609375 2434.59521484375 C 8059.0712890625 2435.459228515625 8061.54150390625 2435.9384765625 8064.05810546875 2436.042724609375 C 8068.22021484375 2436.149169921875 8072.4892578125 2436.780517578125 8076.6220703125 2437.91552734375 C 8081.29736328125 2439.2216796875 8085.96630859375 2440.46533203125 8090.63525390625 2441.709228515625 L 8095.19873046875 2442.93017578125 C 8095.0751953125 2441.38671875 8095.3486328125 2439.75341796875 8096.0732421875 2438.15576171875 C 8095.14404296875 2434.801025390625 8095.0009765625 2430.08984375 8097.8642578125 2424.774169921875 C 8098.353515625 2421.6513671875 8100.234375 2418.387451171875 8105.18701171875 2415.993896484375 C 8107.58203125 2415.072021484375 8109.30712890625 2414.59228515625 8111.0615234375 2414.255615234375 L 8111.69970703125 2414.133056640625 L 8112.349609375 2414.114990234375 C 8113.57958984375 2414.081298828125 8114.947265625 2414.080078125 8116.2822265625 2414.080078125 Z" stroke="none" fill="#142266"/>
    </g>
    <path id="Path_395" data-name="Path 395" d="M8108.53,2423.917s12.22-3.6,15.8,5.042C8124.328,2428.959,8119.374,2421.846,8108.53,2423.917Z" transform="translate(-5701.464 -2702.821)" fill="#fff"/>
    <g id="Group_3391" data-name="Group 3391" transform="translate(-5701.464 -2702.821)">
      <ellipse id="Ellipse_224" data-name="Ellipse 224" cx="17.219" cy="9.559" rx="17.219" ry="9.559" transform="translate(8170.667 2549.093)" fill="#142266"/>
      <ellipse id="Ellipse_225" data-name="Ellipse 225" cx="17.219" cy="9.559" rx="17.219" ry="9.559" transform="translate(8030.252 2549.093)" fill="#142266"/>
      <ellipse id="Ellipse_226" data-name="Ellipse 226" cx="10.228" cy="5.678" rx="10.228" ry="5.678" transform="translate(8040.589 2553.88)" fill="#dc2648"/>
      <ellipse id="Ellipse_227" data-name="Ellipse 227" cx="10.228" cy="5.678" rx="10.228" ry="5.678" transform="translate(8174.313 2553.88)" fill="#dc2648"/>
      <path id="Path_10918" data-name="Path 10918" d="M8117.561,2526.474c-27.589,0-55.178,5.5-82.768,6.093a4.808,4.808,0,0,0-4.7,4.811v19.99a5.888,5.888,0,0,0,5.881,5.893l.155,0c27.142-.735,54.285-6.06,81.427-6.06s54.285,5.326,81.427,6.06a5.887,5.887,0,0,0,6.034-5.736c0-.052,0-.1,0-.155v-19.99a4.8,4.8,0,0,0-4.694-4.811C8172.739,2531.976,8145.15,2526.474,8117.561,2526.474Z" fill="#142266"/>
      <g id="Group_74" data-name="Group 74">
        <g id="Group_73" data-name="Group 73">
          <path id="Path_396" data-name="Path 396" d="M8096.483,2533.136q-.391,9.39-.67,18.778-1.781.126-3.561.27-1.128-3.2-2.291-6.39-.582,3.344-1.126,6.688-1.779.165-3.557.351-1.9-9.2-3.91-18.379,1.871-.207,3.742-.392.885,4.218,1.744,8.438.733-4.374,1.528-8.745c.351-.031.7-.062,1.05-.091q1.551,4.154,3.042,8.323.1-4.295.233-8.587Q8094.594,2533.256,8096.483,2533.136Z" fill="#fff"/>
          <path id="Path_397" data-name="Path 397" d="M8111.126,2548.292q-1.446,1.494-2.87,3-2.646.078-5.291.2-1.533-1.394-3.092-2.771-.445-7.871-.889-15.74,1.876-.107,3.755-.19.319,7.061.636,14.123.535.483,1.072.969,1.028-.044,2.055-.079.5-.525,1-1.049-.226-7.065-.451-14.13,1.878-.058,3.757-.1Q8110.966,2540.412,8111.126,2548.292Z" fill="#fff"/>
          <path id="Path_398" data-name="Path 398" d="M8124.773,2548.31q-1.513,1.428-3,2.872-2.646-.036-5.294-.026-1.471-1.459-2.969-2.9-.018-1.488-.038-2.974,1.8-.023,3.612-.026,0,.673,0,1.346c.345.338.687.676,1.03,1.015q1.028,0,2.056.01l1.063-1,.024-2.005q-.527-.515-1.053-1.026-1.866-.015-3.729-.009-1.52-1.47-3.065-2.925-.033-2.621-.067-5.239,1.518-1.484,3.07-2.952,2.805-.009,5.611.028,1.534,1.485,3.04,2.983-.034,1.474-.068,2.95-1.832-.044-3.667-.064.009-.672.017-1.346l-1.079-1q-1.066-.009-2.132-.011l-1.065,1.015q0,.991,0,1.982.528.519,1.054,1.04,1.9,0,3.795.029,1.5,1.483,2.968,2.98Q8124.834,2545.679,8124.773,2548.31Z" fill="#fff"/>
          <path id="Path_399" data-name="Path 399" d="M8138.213,2551.84q-1.756-.117-3.517-.214.209-3.781.417-7.564-2.09-.114-4.184-.2-.159,3.785-.318,7.568-1.771-.074-3.544-.128.286-9.342.572-18.683,1.878.059,3.756.136l-.318,7.57q2.115.089,4.232.206.21-3.783.417-7.565,1.863.1,3.729.227Z" fill="#fff"/>
          <path id="Path_400" data-name="Path 400" d="M8152.014,2550.123q-1.634,1.291-3.241,2.6-2.637-.266-5.277-.487-1.34-1.581-2.707-3.15.582-7.86,1.166-15.721,1.875.138,3.749.3-.6,7.043-1.207,14.085.472.549.939,1.1,1.025.092,2.05.19.558-.457,1.124-.911.7-7.033,1.391-14.068,1.871.185,3.743.392Q8152.878,2542.288,8152.014,2550.123Z" fill="#fff"/>
        </g>
      </g>
    </g>
    <path id="Path_401" data-name="Path 401" d="M8131.289,2433.748s.69,1.927,5.589,1.432C8136.878,2435.18,8132.745,2436.611,8131.289,2433.748Z" transform="translate(-5701.464 -2702.821)" fill="#fff"/>
    <path id="Path_402" data-name="Path 402" d="M8139.926,2436.48s4.624,5.016,5.842,7.989A34.537,34.537,0,0,1,8139.926,2436.48Z" transform="translate(-5701.464 -2702.821)" fill="#b5311b"/>
    <path id="Path_403" data-name="Path 403" d="M8133.094,2445.1s4.059-.9,5.064,3.013c.22.688,2.862.592,3.468.344C8141.626,2448.459,8139.19,2443.684,8133.094,2445.1Z" transform="translate(-5701.464 -2702.821)" fill="#b5311b"/>
    <path id="Path_412" data-name="Path 412" d="M8069.117,2446.742a96.042,96.042,0,0,1,25.864,5.832S8089.594,2451.258,8069.117,2446.742Z" transform="translate(-5701.464 -2702.821)" fill="#fff"/>
    <path id="Path_413" data-name="Path 413" d="M8085.227,2460.941s14.612-1.543,20.333,14.256C8105.56,2475.2,8104.97,2460.391,8085.227,2460.941Z" transform="translate(-5701.464 -2702.821)" fill="#b5311b"/>
    <path id="Path_414" data-name="Path 414" d="M8194.291,2431s-.193,4.982-3,7.486C8191.291,2438.482,8194.071,2437.244,8194.291,2431Z" transform="translate(-5701.464 -2702.821)" fill="#fff"/>
    <path id="Path_415" data-name="Path 415" d="M8116.429,2503s7.293,8.7,20.449,1.431C8136.878,2504.427,8130.933,2508.721,8116.429,2503Z" transform="translate(-5701.464 -2702.821)" fill="#b5311b"/>
    <path id="Path_416" data-name="Path 416" d="M8138.824,2482.739s-1.422,8.744,17.678,10.4,18.248,18.082,18.248,18.082a18.6,18.6,0,0,0-17.34-15.523C8141.887,2494.3,8137.577,2489.262,8138.824,2482.739Z" transform="translate(-5701.464 -2702.821)" fill="#b5311b"/>
    <path id="Path_417" data-name="Path 417" d="M8080.7,2503s1.076-10.184,26.63-12.083C8107.334,2490.913,8096.144,2490.638,8080.7,2503Z" transform="translate(-5701.464 -2702.821)" fill="#b5311b"/>
    <path id="Path_418" data-name="Path 418" d="M8125.7,2440.474s-2.147,7.862,1.981,12.1c0,0-3-3.248,15.759,0,0,0-13.572-1.711-18.3,2.09C8125.146,2454.664,8121.906,2447.09,8125.7,2440.474Z" transform="translate(-5701.464 -2702.821)" fill="#b5311b"/>
  </g>
</svg>
