<svg xmlns="http://www.w3.org/2000/svg" width="181" height="180.95" viewBox="0 0 181 180.95">
  <g id="izcilik" transform="translate(-2938.925 300.674)">
    <g id="Group_3388" data-name="Group 3388" transform="translate(-5701.464 -2702.821)">
      <g id="Group_3095" data-name="Group 3095">
        <path id="Path_10858" data-name="Path 10858" d="M8735.292,2542.405a.387.387,0,0,1,.428-.339l.017,0a22.7,22.7,0,0,0,5.729-.12c3.286-.364,6.521.562,6.408,4.75a.383.383,0,0,1-.395.372.321.321,0,0,1-.055-.006c-.665-.119-2.317-.189-6.276.447C8736.566,2548.245,8734.923,2545.561,8735.292,2542.405Z" fill="#142266"/>
        <path id="Path_10859" data-name="Path 10859" d="M8731.711,2541.885a.386.386,0,0,0,.489.241l.011,0a22.689,22.689,0,0,1,5.632-1.056c3.291-.317,6.27-1.884,5.3-5.962a.384.384,0,0,0-.464-.282.452.452,0,0,0-.051.016c-.626.254-2.229.66-6.236.849C8731.766,2535.905,8730.707,2538.871,8731.711,2541.885Z" fill="#142266"/>
      </g>
      <g id="Group_3096" data-name="Group 3096">
        <path id="Path_10860" data-name="Path 10860" d="M8749.241,2540.045a.385.385,0,0,1,.349-.42h.017a22.8,22.8,0,0,0,5.578-1.308c3.139-1.039,6.5-.807,7.257,3.314a.385.385,0,0,1-.311.446.41.41,0,0,1-.053.006c-.675.021-2.307.3-6.048,1.741C8751.7,2545.487,8749.54,2543.207,8749.241,2540.045Z" fill="#142266"/>
        <path id="Path_10861" data-name="Path 10861" d="M8745.634,2540.278a.387.387,0,0,0,.529.137l.013-.008a22.742,22.742,0,0,1,5.289-2.2c3.153-.993,5.74-3.146,3.945-6.933a.383.383,0,0,0-.512-.181.463.463,0,0,0-.048.027c-.56.378-2.044,1.109-5.923,2.127C8744.444,2534.42,8744.025,2537.539,8745.634,2540.278Z" fill="#142266"/>
      </g>
      <g id="Group_3097" data-name="Group 3097">
        <path id="Path_10862" data-name="Path 10862" d="M8762.4,2534.835a.386.386,0,0,1,.253-.484l.016,0a22.781,22.781,0,0,0,5.185-2.439c2.854-1.669,6.187-2.14,7.786,1.733a.383.383,0,0,1-.211.5.426.426,0,0,1-.05.017c-.656.161-2.194.77-5.553,2.96C8765.945,2539.65,8763.345,2537.865,8762.4,2534.835Z" fill="#142266"/>
        <path id="Path_10863" data-name="Path 10863" d="M8758.917,2535.815a.386.386,0,0,0,.545.023l.012-.011a22.7,22.7,0,0,1,4.717-3.255c2.877-1.627,4.96-4.271,2.417-7.6a.383.383,0,0,0-.537-.071.31.31,0,0,0-.041.036c-.47.486-1.77,1.51-5.352,3.312C8756.536,2530.332,8756.775,2533.469,8758.917,2535.815Z" fill="#142266"/>
      </g>
      <g id="Group_3098" data-name="Group 3098">
        <path id="Path_10864" data-name="Path 10864" d="M8774.186,2527a.388.388,0,0,1,.148-.526l.014-.007a22.785,22.785,0,0,0,4.564-3.464c2.444-2.226,5.6-3.379,7.976.076a.384.384,0,0,1-.147.56c-.608.294-1.986,1.21-4.816,4.05C8778.651,2530.977,8775.745,2529.771,8774.186,2527Z" fill="#142266"/>
        <path id="Path_10865" data-name="Path 10865" d="M8770.985,2528.685a.387.387,0,0,0,.539-.088l.008-.012a22.721,22.721,0,0,1,3.936-4.164c2.477-2.19,3.964-5.209.784-7.938a.382.382,0,0,0-.54.042.539.539,0,0,0-.033.045c-.357.573-1.417,1.844-4.546,4.352C8767.515,2523.817,8768.4,2526.837,8770.985,2528.685Z" fill="#142266"/>
      </g>
      <g id="Group_3099" data-name="Group 3099">
        <path id="Path_10866" data-name="Path 10866" d="M8784.085,2516.893a.387.387,0,0,1,.035-.545l.012-.01a22.751,22.751,0,0,0,3.744-4.338c1.928-2.685,4.781-4.47,7.818-1.584a.385.385,0,0,1,.012.543.5.5,0,0,1-.04.036c-.533.414-1.692,1.6-3.869,4.963C8789.279,2519.85,8786.185,2519.276,8784.085,2516.893Z" fill="#142266"/>
        <path id="Path_10867" data-name="Path 10867" d="M8781.3,2519.2a.385.385,0,0,0,.508-.2l.007-.014a22.742,22.742,0,0,1,2.983-4.891c1.967-2.657,2.795-5.919-.883-7.928a.383.383,0,0,0-.521.153.289.289,0,0,0-.021.047c-.23.635-1,2.1-3.542,5.2C8776.9,2515.162,8778.388,2517.932,8781.3,2519.2Z" fill="#142266"/>
      </g>
      <g id="Group_3100" data-name="Group 3100">
        <path id="Path_10868" data-name="Path 10868" d="M8791.667,2504.949a.388.388,0,0,1-.079-.541l.01-.012a22.786,22.786,0,0,0,2.762-5.021c1.326-3.028,3.746-5.367,7.317-3.175a.381.381,0,0,1,.125.526.28.28,0,0,1-.032.046c-.436.516-1.322,1.912-2.753,5.659C8797.363,2506.758,8794.217,2506.84,8791.667,2504.949Z" fill="#142266"/>
        <path id="Path_10869" data-name="Path 10869" d="M8789.428,2507.783a.386.386,0,0,0,.455-.3l0-.016a22.743,22.743,0,0,1,1.9-5.405c1.371-3.008,1.5-6.37-2.513-7.569a.382.382,0,0,0-.477.258.438.438,0,0,0-.012.054c-.094.668-.544,2.261-2.382,5.824C8784.278,2504.748,8786.316,2507.146,8789.428,2507.783Z" fill="#142266"/>
      </g>
      <g id="Group_3101" data-name="Group 3101">
        <path id="Path_10870" data-name="Path 10870" d="M8796.6,2491.681a.387.387,0,0,1-.189-.511l.008-.015a22.782,22.782,0,0,0,1.656-5.486c.669-3.237,2.548-6.029,6.5-4.626a.382.382,0,0,1,.23.49c-.006.017-.014.033-.021.05-.319.6-.9,2.146-1.517,6.108C8802.548,2492.272,8799.487,2493,8796.6,2491.681Z" fill="#142266"/>
        <path id="Path_10871" data-name="Path 10871" d="M8795,2494.923a.387.387,0,0,0,.383-.39v-.016a22.719,22.719,0,0,1,.737-5.682c.716-3.228.145-6.544-4.032-6.884a.385.385,0,0,0-.411.355.309.309,0,0,0,0,.052c.047.674-.062,2.325-1.119,6.193C8789.33,2493.023,8791.822,2494.947,8795,2494.923Z" fill="#142266"/>
      </g>
      <g id="Group_3102" data-name="Group 3102">
        <path id="Path_10872" data-name="Path 10872" d="M8798.666,2477.682a.387.387,0,0,1-.292-.462l0-.015a22.747,22.747,0,0,0,.48-5.71c-.02-3.306,1.238-6.427,5.394-5.877a.382.382,0,0,1,.328.43.347.347,0,0,1-.011.055c-.188.649-.431,2.286-.213,6.29C8804.607,2477.022,8801.766,2478.375,8798.666,2477.682Z" fill="#142266"/>
        <path id="Path_10873" data-name="Path 10873" d="M8797.777,2481.185a.387.387,0,0,0,.293-.461l0-.015a22.657,22.657,0,0,1-.461-5.711c.028-3.306-1.22-6.431-5.375-5.894a.383.383,0,0,0-.33.431.5.5,0,0,0,.011.053c.186.649.423,2.287.192,6.29C8791.835,2480.507,8794.672,2481.869,8797.777,2481.185Z" fill="#142266"/>
      </g>
      <g id="Group_3103" data-name="Group 3103">
        <path id="Path_10874" data-name="Path 10874" d="M8797.777,2463.56a.386.386,0,0,1-.38-.392v-.015a22.735,22.735,0,0,0-.719-5.685c-.706-3.229-.124-6.544,4.055-6.87a.382.382,0,0,1,.41.355.484.484,0,0,1,0,.053c-.049.674.055,2.325,1.1,6.2C8803.452,2461.679,8800.954,2463.594,8797.777,2463.56Z" fill="#142266"/>
        <path id="Path_10875" data-name="Path 10875" d="M8797.633,2467.172a.387.387,0,0,0,.191-.512l-.007-.014a22.756,22.756,0,0,1-1.64-5.49c-.658-3.24-2.528-6.037-6.482-4.648a.382.382,0,0,0-.234.488.365.365,0,0,0,.023.052c.316.6.889,2.149,1.5,6.113C8791.687,2467.747,8794.741,2468.486,8797.633,2467.172Z" fill="#142266"/>
      </g>
      <g id="Group_3104" data-name="Group 3104">
        <path id="Path_10876" data-name="Path 10876" d="M8793.971,2449.931a.387.387,0,0,1-.454-.3l0-.016a22.663,22.663,0,0,0-1.884-5.411c-1.362-3.012-1.481-6.375,2.537-7.562a.381.381,0,0,1,.475.259.268.268,0,0,1,.013.055c.092.669.536,2.263,2.363,5.833C8799.135,2446.912,8797.085,2449.3,8793.971,2449.931Z" fill="#142266"/>
        <path id="Path_10877" data-name="Path 10877" d="M8794.581,2453.494a.385.385,0,0,0,.081-.54l-.01-.013a22.78,22.78,0,0,1-2.744-5.03c-1.318-3.032-3.729-5.379-7.308-3.2a.385.385,0,0,0-.125.528c.01.015.021.03.031.044.435.517,1.317,1.917,2.734,5.668C8788.879,2455.29,8792.025,2455.38,8794.581,2453.494Z" fill="#142266"/>
      </g>
      <g id="Group_3105" data-name="Group 3105">
        <path id="Path_10878" data-name="Path 10878" d="M8787.415,2437.39a.386.386,0,0,1-.507-.2l-.006-.014a22.722,22.722,0,0,0-2.969-4.9c-1.958-2.663-2.774-5.928.91-7.925a.385.385,0,0,1,.521.156.332.332,0,0,1,.021.05c.229.635,1,2.1,3.524,5.214C8791.833,2433.364,8790.33,2436.129,8787.415,2437.39Z" fill="#142266"/>
        <path id="Path_10879" data-name="Path 10879" d="M8788.752,2440.749a.386.386,0,0,0-.034-.545l-.012-.01a22.784,22.784,0,0,1-3.73-4.35c-1.919-2.692-4.766-4.487-7.812-1.609a.381.381,0,0,0-.013.542.354.354,0,0,0,.039.037c.531.416,1.687,1.6,3.853,4.976C8783.548,2443.691,8786.644,2443.126,8788.752,2440.749Z" fill="#142266"/>
      </g>
      <g id="Group_3106" data-name="Group 3106">
        <path id="Path_10880" data-name="Path 10880" d="M8778.394,2426.486a.385.385,0,0,1-.537-.093l-.01-.013a22.726,22.726,0,0,0-3.922-4.177c-2.469-2.2-3.947-5.222-.758-7.94a.384.384,0,0,1,.541.045.419.419,0,0,1,.032.043c.355.574,1.411,1.849,4.531,4.367C8781.879,2421.63,8780.984,2424.646,8778.394,2426.486Z" fill="#142266"/>
        <path id="Path_10881" data-name="Path 10881" d="M8780.4,2429.5a.386.386,0,0,0-.146-.526l-.014-.007a22.765,22.765,0,0,1-4.553-3.479c-2.437-2.234-5.595-3.4-7.977.05a.383.383,0,0,0,.1.532.4.4,0,0,0,.049.029c.606.3,1.981,1.216,4.8,4.066C8775.923,2433.453,8778.833,2432.256,8780.4,2429.5Z" fill="#142266"/>
      </g>
      <g id="Group_3107" data-name="Group 3107">
        <path id="Path_10882" data-name="Path 10882" d="M8767.3,2417.7a.386.386,0,0,1-.545.022l-.012-.011a22.752,22.752,0,0,0-4.7-3.271c-2.872-1.637-4.946-4.287-2.392-7.609a.383.383,0,0,1,.537-.069.358.358,0,0,1,.041.037c.468.487,1.764,1.516,5.34,3.329C8769.7,2412.223,8769.455,2415.359,8767.3,2417.7Z" fill="#142266"/>
        <path id="Path_10883" data-name="Path 10883" d="M8769.893,2420.222a.386.386,0,0,0-.252-.485l-.016,0a22.8,22.8,0,0,1-5.177-2.456c-2.849-1.678-6.179-2.16-7.792,1.708a.383.383,0,0,0,.207.5.478.478,0,0,0,.053.018c.655.163,2.192.777,5.544,2.978C8766.335,2425.026,8768.934,2423.25,8769.893,2420.222Z" fill="#142266"/>
      </g>
      <g id="Group_3108" data-name="Group 3108">
        <path id="Path_10884" data-name="Path 10884" d="M8754.628,2411.405a.387.387,0,0,1-.529.134l-.014-.008a22.669,22.669,0,0,0-5.282-2.221c-3.149-1-5.729-3.165-3.922-6.946a.384.384,0,0,1,.513-.179.447.447,0,0,1,.047.027c.559.379,2.041,1.116,5.916,2.146C8755.837,2405.551,8756.246,2408.671,8754.628,2411.405Z" fill="#142266"/>
        <path id="Path_10885" data-name="Path 10885" d="M8757.681,2413.337a.385.385,0,0,0-.348-.421h-.015a22.8,22.8,0,0,1-5.574-1.326c-3.135-1.05-6.493-.829-7.267,3.29a.386.386,0,0,0,.309.447.447.447,0,0,0,.054.006c.675.024,2.307.3,6.042,1.76C8755.2,2418.776,8757.381,2416.5,8757.681,2413.337Z" fill="#142266"/>
      </g>
      <g id="Group_3109" data-name="Group 3109">
        <path id="Path_10886" data-name="Path 10886" d="M8726.784,2542.405a.387.387,0,0,0-.428-.339l-.017,0a22.7,22.7,0,0,1-5.729-.12c-3.286-.364-6.521.562-6.408,4.75a.383.383,0,0,0,.394.372.321.321,0,0,0,.056-.006c.665-.119,2.317-.189,6.276.447C8725.507,2548.245,8727.15,2545.561,8726.784,2542.405Z" fill="#142266"/>
        <path id="Path_10887" data-name="Path 10887" d="M8730.361,2541.885a.386.386,0,0,1-.489.241l-.011,0a22.7,22.7,0,0,0-5.633-1.056c-3.29-.317-6.269-1.884-5.3-5.962a.384.384,0,0,1,.464-.282.467.467,0,0,1,.052.016c.626.254,2.229.66,6.235.849C8730.31,2535.905,8731.365,2538.871,8730.361,2541.885Z" fill="#142266"/>
      </g>
      <g id="Group_3110" data-name="Group 3110">
        <path id="Path_10888" data-name="Path 10888" d="M8712.831,2540.045a.386.386,0,0,0-.349-.42h-.017a22.8,22.8,0,0,1-5.579-1.308c-3.138-1.039-6.5-.807-7.256,3.314a.384.384,0,0,0,.311.446.39.39,0,0,0,.053.006c.675.021,2.306.3,6.047,1.741C8710.368,2545.487,8712.533,2543.207,8712.831,2540.045Z" fill="#142266"/>
        <path id="Path_10889" data-name="Path 10889" d="M8716.439,2540.278a.387.387,0,0,1-.529.137l-.013-.008a22.742,22.742,0,0,0-5.289-2.2c-3.153-.993-5.74-3.146-3.945-6.933a.383.383,0,0,1,.512-.181.367.367,0,0,1,.047.027c.561.378,2.044,1.109,5.923,2.127C8717.628,2534.42,8718.047,2537.539,8716.439,2540.278Z" fill="#142266"/>
      </g>
      <g id="Group_3111" data-name="Group 3111">
        <path id="Path_10890" data-name="Path 10890" d="M8699.674,2534.835a.386.386,0,0,0-.253-.484l-.016,0a22.807,22.807,0,0,1-5.186-2.439c-2.854-1.669-6.186-2.14-7.786,1.733a.384.384,0,0,0,.211.5.442.442,0,0,0,.051.017c.655.161,2.193.77,5.553,2.96C8696.131,2539.65,8698.725,2537.865,8699.674,2534.835Z" fill="#142266"/>
        <path id="Path_10891" data-name="Path 10891" d="M8703.154,2535.815a.386.386,0,0,1-.545.023l-.013-.011a22.668,22.668,0,0,0-4.716-3.255c-2.877-1.627-4.96-4.271-2.417-7.6a.383.383,0,0,1,.537-.071.387.387,0,0,1,.041.036c.469.486,1.769,1.51,5.351,3.312C8705.539,2530.332,8705.3,2533.469,8703.154,2535.815Z" fill="#142266"/>
      </g>
      <g id="Group_3112" data-name="Group 3112">
        <path id="Path_10892" data-name="Path 10892" d="M8687.889,2527a.386.386,0,0,0-.147-.526l-.015-.007a22.807,22.807,0,0,1-4.563-3.464c-2.444-2.226-5.605-3.379-7.977.076a.385.385,0,0,0,.1.532c.016.01.032.02.048.028.608.294,1.986,1.21,4.817,4.05C8683.423,2530.977,8686.333,2529.771,8687.889,2527Z" fill="#142266"/>
        <path id="Path_10893" data-name="Path 10893" d="M8691.089,2528.685a.387.387,0,0,1-.539-.088l-.008-.012a22.721,22.721,0,0,0-3.936-4.164c-2.477-2.19-3.965-5.209-.784-7.938a.382.382,0,0,1,.54.042.377.377,0,0,1,.032.045c.358.573,1.417,1.844,4.547,4.352C8694.558,2523.817,8693.672,2526.837,8691.089,2528.685Z" fill="#142266"/>
      </g>
      <g id="Group_3113" data-name="Group 3113">
        <path id="Path_10894" data-name="Path 10894" d="M8677.985,2516.893a.386.386,0,0,0-.036-.545l-.013-.01a22.746,22.746,0,0,1-3.743-4.338c-1.929-2.685-4.781-4.47-7.818-1.584a.384.384,0,0,0-.012.543.377.377,0,0,0,.04.036c.533.414,1.691,1.6,3.869,4.963C8672.793,2519.85,8675.885,2519.276,8677.985,2516.893Z" fill="#142266"/>
        <path id="Path_10895" data-name="Path 10895" d="M8680.769,2519.2a.386.386,0,0,1-.508-.2l-.006-.014a22.781,22.781,0,0,0-2.983-4.891c-1.968-2.657-2.795-5.919.884-7.928a.383.383,0,0,1,.521.153.407.407,0,0,1,.021.047c.23.635,1,2.1,3.541,5.2C8685.175,2515.162,8683.68,2517.932,8680.769,2519.2Z" fill="#142266"/>
      </g>
      <g id="Group_3114" data-name="Group 3114">
        <path id="Path_10896" data-name="Path 10896" d="M8670.405,2504.949a.388.388,0,0,0,.079-.541l-.011-.012a22.783,22.783,0,0,1-2.761-5.021c-1.328-3.028-3.746-5.367-7.318-3.175a.383.383,0,0,0-.125.526.486.486,0,0,0,.032.046c.437.516,1.323,1.912,2.753,5.659C8664.705,2506.758,8667.856,2506.84,8670.405,2504.949Z" fill="#142266"/>
        <path id="Path_10897" data-name="Path 10897" d="M8672.645,2507.783a.385.385,0,0,1-.454-.3l0-.016a22.7,22.7,0,0,0-1.9-5.405c-1.371-3.008-1.5-6.37,2.513-7.569a.382.382,0,0,1,.477.258.438.438,0,0,1,.012.054c.094.668.544,2.261,2.383,5.824C8677.795,2504.748,8675.761,2507.146,8672.645,2507.783Z" fill="#142266"/>
      </g>
      <g id="Group_3115" data-name="Group 3115">
        <path id="Path_10898" data-name="Path 10898" d="M8665.474,2491.681a.387.387,0,0,0,.19-.511l-.008-.015a22.782,22.782,0,0,1-1.656-5.486c-.669-3.237-2.548-6.029-6.5-4.626a.383.383,0,0,0-.232.489c.007.017.014.034.022.051.319.6.9,2.146,1.516,6.108C8659.525,2492.272,8662.588,2493,8665.474,2491.681Z" fill="#142266"/>
        <path id="Path_10899" data-name="Path 10899" d="M8667.076,2494.923a.386.386,0,0,1-.382-.39v-.016a22.718,22.718,0,0,0-.736-5.682c-.716-3.228-.146-6.544,4.031-6.884a.385.385,0,0,1,.412.352.515.515,0,0,1,0,.055c-.048.674.062,2.325,1.12,6.193C8672.743,2493.023,8670.251,2494.947,8667.076,2494.923Z" fill="#142266"/>
      </g>
      <g id="Group_3116" data-name="Group 3116">
        <path id="Path_10900" data-name="Path 10900" d="M8663.406,2477.682a.387.387,0,0,0,.292-.462l0-.015a22.7,22.7,0,0,1-.48-5.71c.02-3.306-1.239-6.427-5.394-5.877a.382.382,0,0,0-.328.43.347.347,0,0,0,.011.055c.188.649.43,2.286.213,6.29C8657.465,2477.022,8660.306,2478.375,8663.406,2477.682Z" fill="#142266"/>
        <path id="Path_10901" data-name="Path 10901" d="M8664.3,2481.185a.386.386,0,0,1-.292-.461l0-.015a22.7,22.7,0,0,0,.461-5.711c-.028-3.306,1.22-6.431,5.375-5.894a.384.384,0,0,1,.33.431.334.334,0,0,1-.011.053c-.187.649-.423,2.287-.193,6.29C8670.238,2480.507,8667.4,2481.869,8664.3,2481.185Z" fill="#142266"/>
      </g>
      <g id="Group_3117" data-name="Group 3117">
        <path id="Path_10902" data-name="Path 10902" d="M8664.293,2463.56a.387.387,0,0,0,.381-.392v-.015a22.78,22.78,0,0,1,.718-5.685c.706-3.229.124-6.544-4.054-6.87a.384.384,0,0,0-.411.353.52.52,0,0,0,0,.055c.049.674-.055,2.325-1.1,6.2C8658.622,2461.679,8661.12,2463.594,8664.293,2463.56Z" fill="#142266"/>
        <path id="Path_10903" data-name="Path 10903" d="M8664.441,2467.172a.387.387,0,0,1-.191-.512l.007-.014a22.756,22.756,0,0,0,1.64-5.49c.658-3.24,2.528-6.037,6.482-4.648a.383.383,0,0,1,.234.488.521.521,0,0,1-.023.052c-.316.6-.889,2.149-1.5,6.113C8670.391,2467.747,8667.333,2468.486,8664.441,2467.172Z" fill="#142266"/>
      </g>
      <g id="Group_3118" data-name="Group 3118">
        <path id="Path_10904" data-name="Path 10904" d="M8668.1,2449.931a.387.387,0,0,0,.454-.3l0-.016a22.708,22.708,0,0,1,1.885-5.411c1.361-3.012,1.481-6.375-2.537-7.562a.383.383,0,0,0-.476.259.51.51,0,0,0-.012.055c-.092.669-.536,2.263-2.364,5.833C8662.942,2446.912,8664.987,2449.3,8668.1,2449.931Z" fill="#142266"/>
        <path id="Path_10905" data-name="Path 10905" d="M8667.491,2453.494a.386.386,0,0,1-.081-.54l.01-.013a22.78,22.78,0,0,0,2.744-5.03c1.318-3.032,3.729-5.379,7.307-3.2a.382.382,0,0,1,.127.526.486.486,0,0,1-.032.046c-.435.517-1.316,1.917-2.734,5.668C8673.193,2455.29,8670.047,2455.38,8667.491,2453.494Z" fill="#142266"/>
      </g>
      <g id="Group_3119" data-name="Group 3119">
        <path id="Path_10906" data-name="Path 10906" d="M8674.658,2437.39a.386.386,0,0,0,.507-.2l.006-.014a22.757,22.757,0,0,1,2.968-4.9c1.958-2.663,2.775-5.928-.91-7.925a.382.382,0,0,0-.519.156.386.386,0,0,0-.021.05c-.229.635-1,2.1-3.525,5.214C8670.239,2433.364,8671.742,2436.129,8674.658,2437.39Z" fill="#142266"/>
        <path id="Path_10907" data-name="Path 10907" d="M8673.32,2440.749a.386.386,0,0,1,.033-.545l.013-.01a22.744,22.744,0,0,0,3.729-4.35c1.919-2.692,4.767-4.487,7.813-1.609a.382.382,0,0,1,.013.542.484.484,0,0,1-.04.037c-.532.416-1.686,1.6-3.853,4.976C8678.524,2443.691,8675.428,2443.126,8673.32,2440.749Z" fill="#142266"/>
      </g>
      <g id="Group_3120" data-name="Group 3120">
        <path id="Path_10908" data-name="Path 10908" d="M8683.679,2426.486a.387.387,0,0,0,.538-.093l.009-.013a22.731,22.731,0,0,1,3.923-4.177c2.469-2.2,3.946-5.222.758-7.94a.384.384,0,0,0-.541.045.313.313,0,0,0-.032.043c-.356.574-1.411,1.849-4.532,4.367C8680.194,2421.63,8681.089,2424.646,8683.679,2426.486Z" fill="#142266"/>
        <path id="Path_10909" data-name="Path 10909" d="M8681.672,2429.5a.386.386,0,0,1,.147-.526l.013-.007a22.829,22.829,0,0,0,4.553-3.479c2.438-2.234,5.594-3.4,7.977.05a.383.383,0,0,1-.1.533.228.228,0,0,1-.046.028c-.606.3-1.982,1.216-4.8,4.066C8686.151,2433.453,8683.24,2432.256,8681.672,2429.5Z" fill="#142266"/>
      </g>
      <g id="Group_3121" data-name="Group 3121">
        <path id="Path_10910" data-name="Path 10910" d="M8694.769,2417.7a.388.388,0,0,0,.546.022l.012-.011a22.752,22.752,0,0,1,4.7-3.271c2.872-1.637,4.945-4.287,2.392-7.609a.383.383,0,0,0-.539-.067.263.263,0,0,0-.039.035c-.468.487-1.764,1.516-5.34,3.329C8692.37,2412.223,8692.618,2415.359,8694.769,2417.7Z" fill="#142266"/>
        <path id="Path_10911" data-name="Path 10911" d="M8692.181,2420.222a.388.388,0,0,1,.252-.485l.017,0a22.8,22.8,0,0,0,5.177-2.456c2.848-1.678,6.179-2.16,7.792,1.708a.383.383,0,0,1-.207.5.478.478,0,0,1-.053.018c-.655.163-2.192.777-5.544,2.978C8695.738,2425.026,8693.14,2423.25,8692.181,2420.222Z" fill="#142266"/>
      </g>
      <g id="Group_3122" data-name="Group 3122">
        <path id="Path_10912" data-name="Path 10912" d="M8707.445,2411.405a.385.385,0,0,0,.528.134l.015-.008a22.68,22.68,0,0,1,5.281-2.221c3.15-1,5.729-3.165,3.923-6.946a.385.385,0,0,0-.514-.179c-.016.008-.03.017-.046.027-.559.379-2.041,1.116-5.916,2.146C8706.236,2405.551,8705.827,2408.671,8707.445,2411.405Z" fill="#142266"/>
        <path id="Path_10913" data-name="Path 10913" d="M8704.388,2413.337a.387.387,0,0,1,.349-.421h.016a22.794,22.794,0,0,0,5.574-1.326c3.135-1.05,6.493-.829,7.266,3.29a.381.381,0,0,1-.306.446.347.347,0,0,1-.056.007c-.676.024-2.306.3-6.042,1.76C8706.869,2418.776,8704.7,2416.5,8704.388,2413.337Z" fill="#142266"/>
      </g>
    </g>
    <g id="Group_3389" data-name="Group 3389" transform="translate(-5701.464 -2702.821)">
      <g id="Group_3124" data-name="Group 3124">
        <path id="Path_10914" data-name="Path 10914" d="M8730.89,2562.664l-76.121-77.573-2.5,10.058,78.621,80.121,78.621-80.121-2.5-10.058Z" fill="#e65416"/>
        <path id="Path_10915" data-name="Path 10915" d="M8807.011,2485.09l-2.833-11.4c-31.187-3.9-51.662-17.144-63.632-28.04a99.351,99.351,0,0,1-9.656-10.114,99.235,99.235,0,0,1-9.655,10.114c-11.971,10.9-32.444,24.144-63.633,28.04l-2.833,11.4,76.121,77.573Z" fill="#b5311b"/>
      </g>
      <path id="Path_10916" data-name="Path 10916" d="M8813.333,2463.321c-62.61-4.005-82.444-46.74-82.444-46.74s-19.835,42.735-82.443,46.74l-8.057,31.144,90.5,88.632,90.5-88.632Zm-161.066,31.828,5.334-21.457c31.188-3.9,51.662-17.144,63.633-28.04a99.261,99.261,0,0,0,9.655-10.114,99.377,99.377,0,0,0,9.656,10.114c11.97,10.9,32.444,24.144,63.632,28.04l5.334,21.457-78.621,80.121Z" fill="#142266"/>
    </g>
    <g id="Path_7364" data-name="Path 7364" transform="translate(-5701.464 -2702.821)">
      <path id="Path_465" data-name="Path 465" d="M8719.9,2535.92a5.983,5.983,0,0,1,4.076-1.4c.827-.028,1.854-.17,2.279.768a3.084,3.084,0,0,1-.057,3.245c-1.454,1.679-2.88,3.587-5.474,3.644-.913.028-1.255.712-1.482,1.474a3.872,3.872,0,0,1-6.13,1.994.99.99,0,0,1-.515-.939c.171-1.707-.627-3.618,1.056-5.067.483-.4.342-1.254.37-1.908.113-3.358.029-6.718.4-10.077.258-2.392-.711-4.84-.341-7.372-.741.085-.285,1.053-1.113,1.025-.341-1.139.486-2.107.6-3.16-.485-.228-.485.256-.536.4-.171.484-.427.342-.741.2-.485-.228-.085-.426,0-.655a.685.685,0,0,1,.172-.228c1.911-1.11,2.253-3.075,2.737-4.982a13.119,13.119,0,0,1,2.309-3.815,4.355,4.355,0,0,0,.285-4.184,35.293,35.293,0,0,1-1.653-10.589c-.086-1.451-.912-2.9-.113-4.44.227-.456-.4-.912-.771-1.282a3.73,3.73,0,0,1-.969-4.042,37.222,37.222,0,0,1,2.424-7.372c.455-.882-.456-2.135.912-2.847a18.783,18.783,0,0,0-2.167-.2,3.26,3.26,0,0,1-2.538-1.309,2.7,2.7,0,0,0-3.051-.4c-2.167.826-3.45-.341-4.732-1.623a27.326,27.326,0,0,1-3.137-3.672c-.713-1.054-2.2-1.026-2.765-2.306a7.828,7.828,0,0,1-.627-2.562,4.834,4.834,0,0,1,2.366-5.21,4.794,4.794,0,0,0,1.369-1.623,1.727,1.727,0,0,1,2.081-1.054c.2.056.627.028.657-.086.741-1.765,2.85-2.22,3.677-3.9.114-.228,0-.536,0-.826.029-.569.2-1.053.855-1.109,1.6-.17,2.566-1.341,3.706-2.249.172-.142.428-.342.428-.512.028-2.279,1.876-3.075,3.308-4.356a7.367,7.367,0,0,1,2.423-1.877c-.712-.711-1.2-1.474-2.194-1.508a.564.564,0,0,1-.372-.17c-.855-1.823-1.967-.74-3.022-.284-1.254.536-2.509,1.11-3.792,1.622-.536.228-1.254.427-1.6-.057-.4-.569.142-1.167.571-1.621a20.735,20.735,0,0,1,3.878-3.36,1.579,1.579,0,0,0,.769-1.908c-.171-.739-.312-1.474-.513-2.221a4.533,4.533,0,0,1,.513-3.956,9.136,9.136,0,0,0,.827-2.989,6.594,6.594,0,0,1,1.055-2.477,2.25,2.25,0,0,1,2.737-.882,41.02,41.02,0,0,0,6.9,1.367c1.111.142,1.6.968,2.194,1.68,1.624,1.907,1.6,1.907,3.706.655a9.44,9.44,0,0,1,2.851-1.253c.456-.114,1.026-.314,1.341.086.371.484-.057,1.025-.37,1.4a24,24,0,0,1-3.706,3.7c-.627.512-1.14.911-.114,1.537.456.284.314.769.257,1.167a1.46,1.46,0,0,0,.535,1.4c1.228,1.053,1.2,2.477,1.341,3.928.228,2.135.228,4.014-2.278,4.959-.536.2-.77,1.139-1.169,1.743-.313.512-.028.8.342,1.053a7.44,7.44,0,0,1,2.309,2.563,5.59,5.59,0,0,0,2.795,2.021,4.893,4.893,0,0,1,3.051,3.619,18.428,18.428,0,0,0,4.163,7.6c1.481,1.793,3.392,2.733,5.046,4.128a20.157,20.157,0,0,0,3.593,2.591c.57.284.854.484,1.453.2,1.084-.536,2.223-1.054,3.107.342a.507.507,0,0,0,.229.142c2.2-.37,4.362.8,6.558.028.341-.114.6-.256.684-.626.256-1.2,1.482-1.68,2-2.705.284-.57,1-.484,1.567-.427,1,.113,1.454-.228,1.568-1.282q1.072-8.626,2.224-17.2c.456-3.472.684-6.969,1.426-10.419.143-.626.229-1.31,1.083-1.168.8.142.655.8.628,1.367-.144,2.791-.342,5.58-.485,8.371a24.393,24.393,0,0,0,1.967,11.1,5.52,5.52,0,0,1,.114,4.782,5.934,5.934,0,0,0,.228,3.9,26.714,26.714,0,0,1,.827,4.356c-.627-.939-1.225-1.908-2.023-3.1-.087,1.707-.144,3.131-.2,4.557a1.169,1.169,0,0,0-.313.028c-.113-.8-.257-1.565-.371-2.363a6.37,6.37,0,0,0-.938-2.815,5.139,5.139,0,0,1-.569-2.59,13.539,13.539,0,0,0-.937-5.153c.143,2.815-1.826,5.5-.343,8.455a9.362,9.362,0,0,1,.258,6.178,1.342,1.342,0,0,1-1.084,1.167c-.806.142-.913.684-1.027,1.31-1.228,6.889-2.651,13.75-3.564,20.725-1.283,10.052-2.766,20.1-3.935,30.177-.855,7.431-2.11,14.832-3.194,22.235-.342,2.449-.656,4.9-.969,7.317-.086.768-.342,1.2-1.284,1.053-1-.17-.742-.8-.656-1.367.114-.655.229-.912-.77-.826a32.321,32.321,0,0,1-7.214-.569,1.722,1.722,0,0,1-1.055-.684,5.092,5.092,0,0,0-3.765-1.4c-.369-.028-.711.028-.711.484.028,1.081-.657,1.081-1.426,1.053-.342,0-.657.028-1,0-1.283-.028-3.165.256-3.564-.8-.655-1.743-1.768-3.645-.713-5.694a6,6,0,0,0,.086-4.959,3.341,3.341,0,0,1-.027-2.619,2.749,2.749,0,0,0-.085-2.079,82.239,82.239,0,0,0-3.165-8.341,22.482,22.482,0,0,1-1.854-12.9c.2-1.594,1.17-3.1.938-4.812-.229-1.509-1.454-2.563-1.854-4.043-.114-.4-2.168.684-2.145,1.341.113,2.163-1.083,3.753-2.025,5.523-.8,1.509-.256,3.275-.827,4.84-1.34,3.729-1.768,7.715-3.251,11.393a20.249,20.249,0,0,0-1.284,6.092A4.153,4.153,0,0,0,8719.9,2535.92Zm20.641-12.583a9.167,9.167,0,0,1,.313,3.047c.343,4.868.6,9.794,2.966,14.262.313.57.6,1.254,1.226,1.475a9.275,9.275,0,0,1,3.336,2.59,3.618,3.618,0,0,0,4.021,1,3.2,3.2,0,0,1,2.108-.142c1.341.484,1.512-.256,1.6-1.223,0-.142.056-.285.056-.428,1.34-10.277,2.993-20.525,4.391-30.8,1.8-13.381,3.735-26.733,6.018-40.027.142-.884.085-1.14-.913-1.368-2.11-.483-4.105.655-6.187.171-.341-.086-.57.284-.712.6a1.585,1.585,0,0,1-2.037.94c-.024-.009-.049-.018-.071-.028a1.641,1.641,0,0,0-1.743.512,4.689,4.689,0,0,1-2.908,1.565,9.752,9.752,0,0,1-5.845-1.451c-1.54-1.14-3.364-1.224-4.989-1.908-.285-.113-.713-.313-.938.256-.654,1.594-.341,2.221,1.027,3.5a7.481,7.481,0,0,1,2.253,3.814,47.16,47.16,0,0,0,1,5.95c.172.456.285.938-.342,1.2-.6.228-.826-.228-1.083-.626-.369-.569-.313-1.367-1-1.793a3.58,3.58,0,0,0-.114,2.7c1.228,4.44,1.056,9.024,1.769,13.494.456,2.761-.912,3.815-2.681,5.04-.193.133-.394.257-.6.37a.777.777,0,0,0-.428.938,10.326,10.326,0,0,1-.285,4.072c-.086.512-.342,1.081.028,1.509.713.768.484,1.651.535,2.562.143,2.449-.514,4.982.912,7.26a2,2,0,0,1,.114,1.537c-.307-.221-.363-.591-.792-.563Zm-24.864-55.828c-1.938-2.563-3.05-5.523-4.817-8.284a6.168,6.168,0,0,1-3.251,3.358c.342.285.535.626,1,.342a.984.984,0,0,1,1.381.164.974.974,0,0,1,.157.292,4.561,4.561,0,0,0,2.8,2.761.9.9,0,0,1,.457.512c.431,1.169,1.285,1.2,2.283.855Z" fill="none" stroke="#142266" stroke-width="14"/>
      <path id="Path_466" data-name="Path 466" d="M8719.9,2535.92a5.983,5.983,0,0,1,4.076-1.4c.827-.028,1.854-.17,2.279.768a3.084,3.084,0,0,1-.057,3.245c-1.454,1.679-2.88,3.587-5.474,3.644-.913.028-1.255.712-1.482,1.474a3.872,3.872,0,0,1-6.13,1.994.99.99,0,0,1-.515-.939c.171-1.707-.627-3.618,1.056-5.067.483-.4.342-1.254.37-1.908.113-3.358.029-6.718.4-10.077.258-2.392-.711-4.84-.341-7.372-.741.085-.285,1.053-1.113,1.025-.341-1.139.486-2.107.6-3.16-.485-.228-.485.256-.536.4-.171.484-.427.342-.741.2-.485-.228-.085-.426,0-.655a.685.685,0,0,1,.172-.228c1.911-1.11,2.253-3.075,2.737-4.982a13.119,13.119,0,0,1,2.309-3.815,4.355,4.355,0,0,0,.285-4.184,35.293,35.293,0,0,1-1.653-10.589c-.086-1.451-.912-2.9-.113-4.44.227-.456-.4-.912-.771-1.282a3.73,3.73,0,0,1-.969-4.042,37.222,37.222,0,0,1,2.424-7.372c.455-.882-.456-2.135.912-2.847a18.783,18.783,0,0,0-2.167-.2,3.26,3.26,0,0,1-2.538-1.309,2.7,2.7,0,0,0-3.051-.4c-2.167.826-3.45-.341-4.732-1.623a27.326,27.326,0,0,1-3.137-3.672c-.713-1.054-2.2-1.026-2.765-2.306a7.828,7.828,0,0,1-.627-2.562,4.834,4.834,0,0,1,2.366-5.21,4.794,4.794,0,0,0,1.369-1.623,1.727,1.727,0,0,1,2.081-1.054c.2.056.627.028.657-.086.741-1.765,2.85-2.22,3.677-3.9.114-.228,0-.536,0-.826.029-.569.2-1.053.855-1.109,1.6-.17,2.566-1.341,3.706-2.249.172-.142.428-.342.428-.512.028-2.279,1.876-3.075,3.308-4.356a7.367,7.367,0,0,1,2.423-1.877c-.712-.711-1.2-1.474-2.194-1.508a.564.564,0,0,1-.372-.17c-.855-1.823-1.967-.74-3.022-.284-1.254.536-2.509,1.11-3.792,1.622-.536.228-1.254.427-1.6-.057-.4-.569.142-1.167.571-1.621a20.735,20.735,0,0,1,3.878-3.36,1.579,1.579,0,0,0,.769-1.908c-.171-.739-.312-1.474-.513-2.221a4.533,4.533,0,0,1,.513-3.956,9.136,9.136,0,0,0,.827-2.989,6.594,6.594,0,0,1,1.055-2.477,2.25,2.25,0,0,1,2.737-.882,41.02,41.02,0,0,0,6.9,1.367c1.111.142,1.6.968,2.194,1.68,1.624,1.907,1.6,1.907,3.706.655a9.44,9.44,0,0,1,2.851-1.253c.456-.114,1.026-.314,1.341.086.371.484-.057,1.025-.37,1.4a24,24,0,0,1-3.706,3.7c-.627.512-1.14.911-.114,1.537.456.284.314.769.257,1.167a1.46,1.46,0,0,0,.535,1.4c1.228,1.053,1.2,2.477,1.341,3.928.228,2.135.228,4.014-2.278,4.959-.536.2-.77,1.139-1.169,1.743-.313.512-.028.8.342,1.053a7.44,7.44,0,0,1,2.309,2.563,5.59,5.59,0,0,0,2.795,2.021,4.893,4.893,0,0,1,3.051,3.619,18.428,18.428,0,0,0,4.163,7.6c1.481,1.793,3.392,2.733,5.046,4.128a20.157,20.157,0,0,0,3.593,2.591c.57.284.854.484,1.453.2,1.084-.536,2.223-1.054,3.107.342a.507.507,0,0,0,.229.142c2.2-.37,4.362.8,6.558.028.341-.114.6-.256.684-.626.256-1.2,1.482-1.68,2-2.705.284-.57,1-.484,1.567-.427,1,.113,1.454-.228,1.568-1.282q1.072-8.626,2.224-17.2c.456-3.472.684-6.969,1.426-10.419.143-.626.229-1.31,1.083-1.168.8.142.655.8.628,1.367-.144,2.791-.342,5.58-.485,8.371a24.393,24.393,0,0,0,1.967,11.1,5.52,5.52,0,0,1,.114,4.782,5.934,5.934,0,0,0,.228,3.9,26.714,26.714,0,0,1,.827,4.356c-.627-.939-1.225-1.908-2.023-3.1-.087,1.707-.144,3.131-.2,4.557a1.169,1.169,0,0,0-.313.028c-.113-.8-.257-1.565-.371-2.363a6.37,6.37,0,0,0-.938-2.815,5.139,5.139,0,0,1-.569-2.59,13.539,13.539,0,0,0-.937-5.153c.143,2.815-1.826,5.5-.343,8.455a9.362,9.362,0,0,1,.258,6.178,1.342,1.342,0,0,1-1.084,1.167c-.806.142-.913.684-1.027,1.31-1.228,6.889-2.651,13.75-3.564,20.725-1.283,10.052-2.766,20.1-3.935,30.177-.855,7.431-2.11,14.832-3.194,22.235-.342,2.449-.656,4.9-.969,7.317-.086.768-.342,1.2-1.284,1.053-1-.17-.742-.8-.656-1.367.114-.655.229-.912-.77-.826a32.321,32.321,0,0,1-7.214-.569,1.722,1.722,0,0,1-1.055-.684,5.092,5.092,0,0,0-3.765-1.4c-.369-.028-.711.028-.711.484.028,1.081-.657,1.081-1.426,1.053-.342,0-.657.028-1,0-1.283-.028-3.165.256-3.564-.8-.655-1.743-1.768-3.645-.713-5.694a6,6,0,0,0,.086-4.959,3.341,3.341,0,0,1-.027-2.619,2.749,2.749,0,0,0-.085-2.079,82.239,82.239,0,0,0-3.165-8.341,22.482,22.482,0,0,1-1.854-12.9c.2-1.594,1.17-3.1.938-4.812-.229-1.509-1.454-2.563-1.854-4.043-.114-.4-2.168.684-2.145,1.341.113,2.163-1.083,3.753-2.025,5.523-.8,1.509-.256,3.275-.827,4.84-1.34,3.729-1.768,7.715-3.251,11.393a20.249,20.249,0,0,0-1.284,6.092A4.153,4.153,0,0,0,8719.9,2535.92Zm20.641-12.583a9.167,9.167,0,0,1,.313,3.047c.343,4.868.6,9.794,2.966,14.262.313.57.6,1.254,1.226,1.475a9.275,9.275,0,0,1,3.336,2.59,3.618,3.618,0,0,0,4.021,1,3.2,3.2,0,0,1,2.108-.142c1.341.484,1.512-.256,1.6-1.223,0-.142.056-.285.056-.428,1.34-10.277,2.993-20.525,4.391-30.8,1.8-13.381,3.735-26.733,6.018-40.027.142-.884.085-1.14-.913-1.368-2.11-.483-4.105.655-6.187.171-.341-.086-.57.284-.712.6a1.585,1.585,0,0,1-2.037.94c-.024-.009-.049-.018-.071-.028a1.641,1.641,0,0,0-1.743.512,4.689,4.689,0,0,1-2.908,1.565,9.752,9.752,0,0,1-5.845-1.451c-1.54-1.14-3.364-1.224-4.989-1.908-.285-.113-.713-.313-.938.256-.654,1.594-.341,2.221,1.027,3.5a7.481,7.481,0,0,1,2.253,3.814,47.16,47.16,0,0,0,1,5.95c.172.456.285.938-.342,1.2-.6.228-.826-.228-1.083-.626-.369-.569-.313-1.367-1-1.793a3.58,3.58,0,0,0-.114,2.7c1.228,4.44,1.056,9.024,1.769,13.494.456,2.761-.912,3.815-2.681,5.04-.193.133-.394.257-.6.37a.777.777,0,0,0-.428.938,10.326,10.326,0,0,1-.285,4.072c-.086.512-.342,1.081.028,1.509.713.768.484,1.651.535,2.562.143,2.449-.514,4.982.912,7.26a2,2,0,0,1,.114,1.537c-.307-.221-.363-.591-.792-.563Zm-24.864-55.828c-1.938-2.563-3.05-5.523-4.817-8.284a6.168,6.168,0,0,1-3.251,3.358c.342.285.535.626,1,.342a.984.984,0,0,1,1.381.164.974.974,0,0,1,.157.292,4.561,4.561,0,0,0,2.8,2.761.9.9,0,0,1,.457.512c.431,1.169,1.285,1.2,2.283.855Z" fill="#e65416"/>
    </g>
    <path id="Path_467" data-name="Path 467" d="M8731.164,2509.932s-2.415,6.385,1.043,15.908c.872,1.816,4.234,2.388,7.037,1.651C8739.244,2527.491,8730.02,2520.28,8731.164,2509.932Z" transform="translate(-5701.464 -2702.821)" fill="#b5311b"/>
    <g id="Group_3391" data-name="Group 3391" transform="translate(-5701.464 -2702.821)">
      <ellipse id="Ellipse_224" data-name="Ellipse 224" cx="17.219" cy="9.559" rx="17.219" ry="9.559" transform="translate(8783.851 2549.093)" fill="#142266"/>
      <ellipse id="Ellipse_225" data-name="Ellipse 225" cx="17.219" cy="9.559" rx="17.219" ry="9.559" transform="translate(8643.436 2549.093)" fill="#142266"/>
      <ellipse id="Ellipse_226" data-name="Ellipse 226" cx="10.228" cy="5.678" rx="10.228" ry="5.678" transform="translate(8653.772 2553.88)" fill="#dc2648"/>
      <ellipse id="Ellipse_227" data-name="Ellipse 227" cx="10.228" cy="5.678" rx="10.228" ry="5.678" transform="translate(8787.496 2553.88)" fill="#dc2648"/>
      <path id="Path_10918" data-name="Path 10918" d="M8730.744,2526.474c-27.589,0-55.178,5.5-82.769,6.093a4.808,4.808,0,0,0-4.7,4.811v19.99a5.888,5.888,0,0,0,5.881,5.893l.154,0c27.143-.735,54.285-6.06,81.428-6.06s54.285,5.326,81.427,6.06a5.888,5.888,0,0,0,6.035-5.736c0-.052,0-.1,0-.155v-19.99a4.805,4.805,0,0,0-4.7-4.811C8785.922,2531.976,8758.333,2526.474,8730.744,2526.474Z" fill="#142266"/>
      <g id="Group_92" data-name="Group 92">
        <g id="Group_91" data-name="Group 91">
          <g id="Group_90" data-name="Group 90">
            <path id="Path_468" data-name="Path 468" d="M8698.389,2536.578q1.758-.195,3.516-.368.86,8.721,1.719,17.442-1.655.163-3.312.346Q8699.349,2545.289,8698.389,2536.578Z" fill="#fff"/>
            <path id="Path_469" data-name="Path 469" d="M8714.7,2538.572q-2.75,5.606-5.276,11.262,2.9-.223,5.8-.387.092,1.645.187,3.292-4.792.27-9.577.7c-.078-1.1-.152-2.193-.23-3.289q2.459-5.688,5.149-11.334-3.1.216-6.2.5-.151-1.665-.3-3.328,5.125-.465,10.263-.754Z" fill="#fff"/>
            <path id="Path_470" data-name="Path 470" d="M8728.157,2549.561q-1.383,1.388-2.737,2.789-2.48.052-4.963.148-1.428-1.319-2.879-2.621-.292-6.012-.582-12.024,1.378-1.44,2.784-2.868,2.635-.1,5.27-.158,1.5,1.341,2.972,2.7.016,1.395.031,2.788c-1.156.014-2.309.034-3.464.06-.01-.421-.018-.841-.029-1.261q-.521-.464-1.046-.926-1,.027-2,.06c-.323.328-.647.657-.967.985q.163,4.489.33,8.979l1,.918q.962-.031,1.927-.058.479-.489.964-.976c-.009-.42-.021-.841-.029-1.261q1.695-.039,3.389-.058Q8728.142,2548.166,8728.157,2549.561Z" fill="#fff"/>
            <path id="Path_471" data-name="Path 471" d="M8730.344,2534.762c1.178,0,2.352,0,3.529.008q-.072,8.763-.145,17.526-1.658-.013-3.323-.008Q8730.375,2543.525,8730.344,2534.762Z" fill="#fff"/>
            <path id="Path_472" data-name="Path 472" d="M8744.321,2552.58q-4.188-.191-8.375-.257.139-8.763.28-17.524,1.765.027,3.528.077-.2,7.1-.394,14.2,2.556.072,5.111.187Q8744.4,2550.921,8744.321,2552.58Z" fill="#fff"/>
            <path id="Path_473" data-name="Path 473" d="M8747.47,2535.189c1.174.063,2.352.132,3.525.209q-.57,8.745-1.14,17.489-1.661-.108-3.319-.2Q8747,2543.939,8747.47,2535.189Z" fill="#fff"/>
            <path id="Path_474" data-name="Path 474" d="M8762.517,2554q-1.7-.187-3.4-.354-.589-4.237-1.234-8.475-1.036,1.428-2.053,2.863-.226,2.634-.447,5.27-1.658-.141-3.316-.262.637-8.741,1.276-17.48,1.762.129,3.522.278-.233,2.757-.468,5.513,1.881-2.618,3.822-5.209,2.027.195,4.055.418-1.784,2.307-3.516,4.637Q8761.706,2547.6,8762.517,2554Z" fill="#fff"/>
          </g>
        </g>
        <circle id="Ellipse_10" data-name="Ellipse 10" cx="1.75" cy="1.75" r="1.75" transform="matrix(0.859, -0.513, 0.513, 0.859, 8729.589, 2531.129)" fill="#fff"/>
        <circle id="Ellipse_11" data-name="Ellipse 11" cx="1.75" cy="1.75" r="1.75" transform="matrix(0.859, -0.513, 0.513, 0.859, 8697.207, 2532.881)" fill="#fff"/>
        <circle id="Ellipse_12" data-name="Ellipse 12" cx="1.75" cy="1.75" r="1.75" transform="matrix(0.859, -0.513, 0.513, 0.859, 8747.146, 2531.129)" fill="#fff"/>
      </g>
    </g>
    <path id="Path_475" data-name="Path 475" d="M8718.877,2434.959s12.771-6.962,14.752-11.6C8733.629,2423.359,8723.5,2431.657,8718.877,2434.959Z" transform="translate(-5701.464 -2702.821)" fill="#b5311b"/>
    <path id="Path_476" data-name="Path 476" d="M8714.377,2432.992s-1.734-6.152.784-8.3C8715.161,2424.693,8713.593,2429.9,8714.377,2432.992Z" transform="translate(-5701.464 -2702.821)" fill="#fff"/>
    <path id="Path_477" data-name="Path 477" d="M8718.877,2420.364s5.7.779,6.937,2.348,2.807,2.89,4.54,1.981c0,0-1.289,1.218-3.85-.836C8724.987,2422.258,8721.478,2420.813,8718.877,2420.364Z" transform="translate(-5701.464 -2702.821)" fill="#b5311b"/>
    <path id="Path_478" data-name="Path 478" d="M8720.2,2440.134s-5.5,2.752-5.721,7.376C8714.478,2447.51,8715.024,2444.868,8720.2,2440.134Z" transform="translate(-5701.464 -2702.821)" fill="#fff"/>
    <path id="Path_479" data-name="Path 479" d="M8704.551,2463s4.665-.578,5.78-5.078A13.346,13.346,0,0,1,8704.551,2463Z" transform="translate(-5701.464 -2702.821)" fill="#b5311b"/>
    <path id="Path_480" data-name="Path 480" d="M8703.409,2456.372s-3.854,2.367-4.128,4.4.77,3.908,3.247,5.064C8702.528,2465.84,8696.694,2461.712,8703.409,2456.372Z" transform="translate(-5701.464 -2702.821)" fill="#fff"/>
    <path id="Path_481" data-name="Path 481" d="M8709.794,2470.519s3.221-.439,4.294,1.184a4.339,4.339,0,0,0,4.655,1.706s-3.39-.576-4.71-2.944S8709.794,2470.519,8709.794,2470.519Z" transform="translate(-5701.464 -2702.821)" fill="#b5311b"/>
    <path id="Path_482" data-name="Path 482" d="M8724.726,2443.86s7.362,1.444,11.546,10.8,7.591,9.58,18.716,13.089c0,0-15.131,1.29-19.745-11.969C8732.49,2449.731,8724.726,2443.86,8724.726,2443.86Z" transform="translate(-5701.464 -2702.821)" fill="#b5311b"/>
    <path id="Path_483" data-name="Path 483" d="M8740.654,2476.01s2.994,2.663,3.364,9.722C8744.019,2485.732,8742.306,2477.991,8740.654,2476.01Z" transform="translate(-5701.464 -2702.821)" fill="#b5311b"/>
    <path id="Path_484" data-name="Path 484" d="M8774.714,2457a12.285,12.285,0,0,0,.929,6.977S8773.352,2460.239,8774.714,2457Z" transform="translate(-5701.464 -2702.821)" fill="#b5311b"/>
    <path id="Path_485" data-name="Path 485" d="M8773.744,2465.709a4.563,4.563,0,0,0-1.259-3.468,6.932,6.932,0,0,1-.352-3.178s.021,3.158.991,3.591S8773.744,2465.709,8773.744,2465.709Z" transform="translate(-5701.464 -2702.821)" fill="#b5311b"/>
    <path id="Path_486" data-name="Path 486" d="M8771.345,2441.861s.432-7.6,1.119-8.366a1,1,0,0,1,.771-.239A32.99,32.99,0,0,0,8771.345,2441.861Z" transform="translate(-5701.464 -2702.821)" fill="#fff"/>
    <path id="Path_487" data-name="Path 487" d="M8772.29,2443.657s.188,7.321,2.672,10.128a3.086,3.086,0,0,1,.228,2.477,4.124,4.124,0,0,0-1.239-3.055C8772.657,2452.216,8772.29,2443.657,8772.29,2443.657Z" transform="translate(-5701.464 -2702.821)" fill="#b5311b"/>
    <path id="Path_488" data-name="Path 488" d="M8716.84,2489.179s-.439,9.964,1.6,14.312-3.083,10.129-3.083,10.129,6.937-6.193,3.826-11.23C8716.427,2494.024,8717.668,2492.9,8716.84,2489.179Z" transform="translate(-5701.464 -2702.821)" fill="#fff"/>
    <path id="Path_489" data-name="Path 489" d="M8722.895,2511.418a25.342,25.342,0,0,1-2.378,12.55S8721.134,2522.207,8722.895,2511.418Z" transform="translate(-5701.464 -2702.821)" fill="#b5311b"/>
    <path id="Path_490" data-name="Path 490" d="M8739.856,2483.62s-.431,11.9,1.7,15.48-3.523,6.3-3.523,6.3S8739.2,2505.8,8739.856,2483.62Z" transform="translate(-5701.464 -2702.821)" fill="#b5311b"/>
    <path id="Path_491" data-name="Path 491" d="M8727.315,2495.339s10.151-16.67-5.383-39.515C8721.933,2455.824,8731.719,2468.967,8727.315,2495.339Z" transform="translate(-5701.464 -2702.821)" fill="#b5311b"/>
  </g>
</svg>
