<svg xmlns="http://www.w3.org/2000/svg" width="140.039" height="99.797" viewBox="0 0 140.039 99.797"><g transform="translate(0.039 -0.178)"><path d="M23.2,72.7c5.5-3,10.7-6,16.1-8.8,10.2-5.6,20.3-11.2,30.4-16.7,1.7-.9,1.9-1.6.9-3.2-3.9-6.9-7.7-13.8-11.5-20.7-1.3-2.4-2.1-4.9-1.3-7.6,1-3.4,3-5.9,6.6-6.5,16.2-3,32.5-6,48.7-8.9a9.5,9.5,0,0,1,10.8,7.3,9.286,9.286,0,0,1-7,11.1h-.1c-4.2,1-8.4,1.6-12.7,2.4-5.9,1.1-11.9,2.3-17.9,3.2-2.2.3-2.5.7-1.4,2.7q12.75,22.8,25.3,45.7c1.3,2.4,1.3,2.4-1.3,2.9a19.045,19.045,0,0,1-11.3-1.1,23.126,23.126,0,0,0-19.9,0,17.644,17.644,0,0,1-14.9,0,23.57,23.57,0,0,0-20.1,0C36,77.3,29.6,75.9,23.2,72.7Z" fill="#0b0539"/><path d="M.2,93.6c0-1.9-.6-4.1.1-5.7.9-1.8,3.5-.7,5.2-1.5,8.1-3.9,16.1-3.6,24.2-.1,4.2,1.8,8.9,1.1,13.1-.7a22.941,22.941,0,0,1,19.5,0,19.261,19.261,0,0,0,15.6,0,23.222,23.222,0,0,1,19.3,0,19.336,19.336,0,0,0,15.8,0,22.538,22.538,0,0,1,19,0,17.669,17.669,0,0,0,6.5,1.5c1.1,0,1.5.5,1.5,1.6v9.8c0,1.2-.5,1.5-1.6,1.4a20.1,20.1,0,0,1-6.9-1.8,21.514,21.514,0,0,0-17.9,0,20.579,20.579,0,0,1-17,0,21.975,21.975,0,0,0-18.1,0,20.969,20.969,0,0,1-17,0,21.514,21.514,0,0,0-17.9,0,20.2,20.2,0,0,1-17,0,21.975,21.975,0,0,0-18.1,0,22.023,22.023,0,0,1-6.7,1.7C.6,99.9,0,99.6.1,98.3c.1-1.5.1-3.1.1-4.7Z" fill="#0b0539"/><path d="M119.6,63.3a16.007,16.007,0,0,1-16.3-15.8v-.8a16.55,16.55,0,1,1,33.1.1V47A16.539,16.539,0,0,1,119.6,63.3Z" fill="#0b0539"/></g></svg>