<svg xmlns="http://www.w3.org/2000/svg" width="1920" height="397.277" viewBox="0 0 1920 397.277">
  <path id="Union_11" data-name="Union 11" d="M-3964,397.278c43.858-21.79,93.141-42.045,147.124-60.492,5.135-2.619,41.784-22.432,42.744-54.737C-3773.1,267.6-3764.5,85.99-3764.5,85.99l7.567-5.848,4.815,1.033,2.753-2.063,35.428,7.911s4.816,179.548,4.816,181.612c0,16.51,15.133,14.1,15.133,14.1l42.307-8.754v-11.54l2.408-28.205s-1.032,0-1.032-.343.688-1.033.688-1.033V188.492s-.687,0-.687-.344.688-.687.688-.687v-3.1c0-.344-.687-.688-1.032-1.377a1.263,1.263,0,0,1-.343-1.031v-1.033s-.689-.344-.345-.687a4.591,4.591,0,0,0,.345-1.72v-1.033c0-.343,0-.343.688-.687a13.578,13.578,0,0,1,2.063-.687v-19.95a5.04,5.04,0,0,1-.687-1.376c0-.344,0-.344.344-.687a.337.337,0,0,0,.343-.344l5.16-27.861v-1.032a.337.337,0,0,1-.344-.344c0-.687.344-.687.344-.687v-.344a.337.337,0,0,1-.344-.344.337.337,0,0,1,.344-.343v-.345a.337.337,0,0,1-.344-.343.337.337,0,0,1,.344-.344V119.7a.336.336,0,0,0,.343-.344v-.688a1.206,1.206,0,0,1,.344.688c0,.344-.687.687-.687.687v2.064a.336.336,0,0,1,.343.343.337.337,0,0,1-.343.345v.343a.336.336,0,0,1,.343.344.336.336,0,0,1-.343.344v.343s.343,0,.343.688a1.2,1.2,0,0,1-.343.687v1.033l5.158,26.484h.345c.343,0,.343.344.343.688a8.821,8.821,0,0,1-.688,1.72v19.949a6.053,6.053,0,0,1,2.064.344c.688,0,.688.344.688.688v1.031a2.609,2.609,0,0,0,.343,1.377c.344.343-.343,1.032-.343,1.032v1.032a1.265,1.265,0,0,1-.344,1.033,6.414,6.414,0,0,1-1.033,1.375v2.408s.688,0,.688.344-.688.687-.688.687v44.371s.688.688.688,1.033-1.032.687-1.032.687l1.72,20.638.343-4.128a.673.673,0,0,1-.687-.687c0-.344.687-.688.687-.688v-36.46a.336.336,0,0,1-.343-.344.336.336,0,0,1,.343-.344V208.1l-1.031-1.032V205.69l-.344-.687.344-.688v-1.032a.476.476,0,0,1,0-.687l1.719-.688V185.74a1.207,1.207,0,0,1-.343-.688c0-.344-.344-.687,0-.687l.688-.344,4.471-24.421v-1.033a.336.336,0,0,1-.343-.344.336.336,0,0,1,.343-.343v-.344a.336.336,0,0,1-.343-.343c0-.345.343,0,.343,0V156.5h.344l.343-2.408.344,2.408h.345v.688h.343a.336.336,0,0,1-.343.343v.344a.336.336,0,0,1,.343.343,1.207,1.207,0,0,1-.343.689v1.031l4.471,23.39h.688v.688a1.2,1.2,0,0,1-.343.687v16.167s1.72,0,1.72.344v1.719l.343.344-.343.687v1.376l-1.033,1.377v2.751a.337.337,0,0,1,.344.344.337.337,0,0,1-.344.343v36.462l.688.343c0,.344-.688.687-.688.687l.688,9.288,4.815-2.407,3.1-.344,4.127,1.032,6.536-3.095V239.742l-.689-.687v-.688h1.033v-3.095l2.407-.344.344.687h.688v1.72l1.032-.688V227.7h.688a4.787,4.787,0,0,1,1.72-2.408,5.032,5.032,0,0,1,1.719-1.031v-.344h.344v-.344h-.344a.337.337,0,0,1,.344-.344l.345-1.72.343,1.72a.337.337,0,0,1,.344.344.337.337,0,0,1-.344.344v.344h.344v.343a4.6,4.6,0,0,1,1.72.344,7.051,7.051,0,0,1,1.719,1.72l1.376-.688v-2.407l1.032-.688V220.48a3.522,3.522,0,0,1,2.407-1.376c1.033,0,2.408-1.72,3.44-2.751a37.131,37.131,0,0,1,8.944-5.5c4.471-1.719,14.446-4.471,14.446-4.471l.344-8.944.344,8.6h1.375v-4.815h.688v-.689l.344-.687h1.033l1.375-4.128-.687-1.032s2.75-2.407,4.471-3.783,6.192-4.472,6.192-4.472a57.609,57.609,0,0,1,13.759-15.822c5.5-4.472,18.574-8.256,18.574-8.256v-1.719c0-1.376,1.718-2.064,2.063-2.752.344-.344.344-1.72.344-1.72s-.344,0-.344-.687c0-.344.688-.688.688-.688v-1.032a.336.336,0,0,1-.343-.344.336.336,0,0,1,.343-.343v-1.033s-.687,0-.687-.343a.674.674,0,0,1,.688-.688v-1.032h-.343l.343-.344v-.688h-.343l.343-.343V147.9a.336.336,0,0,1-.343-.343.337.337,0,0,1,.343-.345v0a.337.337,0,0,1,.344.345.337.337,0,0,1-.344.343v1.032h.344a.337.337,0,0,1-.344.344v.688h.344a.337.337,0,0,1-.344.343v1.033a.673.673,0,0,1,.687.687.673.673,0,0,1-.687.687v1.033a.337.337,0,0,1,.344.344.337.337,0,0,1-.344.343v.344s.687,0,.687.344c0,.687-.343.687-.343.687s0,1.377.343,1.377c.345.343,2.064.687,2.064,2.063v1.72s13.071.687,18.574,3.783a40.824,40.824,0,0,1,13.758,12.383s4.473,2.063,6.192,2.752c1.72,1.032,4.472,2.752,4.472,2.752l-.687,1.376.688,2.752a6.571,6.571,0,0,1,5.159-2.752c3.44-.344,5.16,3.095,5.16,3.095h1.032v.688l-1.032.688v9.287l3.782.343V199.5l6.88,3.1,6.535,1.375,3.784.344h1.719l1.032.344V205h-.687v.687l1.375-.344v1.032l-.687.688v2.752l1.032.343h2.063l.687.688-.687.688v2.752a8.609,8.609,0,0,1,3.095-1.376,8.663,8.663,0,0,1,2.064-.687v0h2.063c1.72.343,3.1.687,3.1.687a6.935,6.935,0,0,1,.687,2.063,6.487,6.487,0,0,0,1.033,1.377v2.407l8.6.343,2.752.344-.344-35.772s-2.063-1.719-2.063-2.064V179.2c0-.343,2.063-1.032,2.063-1.032V165.1s-.688,0-.343-.344l2.751-24.765V139.3a.336.336,0,0,1-.343-.343.336.336,0,0,1,.343-.344v-.687a.337.337,0,0,1-.343-.345.336.336,0,0,1,.343-.343v-.687a.336.336,0,0,1-.343-.344.336.336,0,0,1,.343-.344l.344-2.408.344,2.408a.337.337,0,0,1,.344.344.337.337,0,0,1-.344.344v.687a.337.337,0,0,1,.344.343.337.337,0,0,1-.344.345v.687a.337.337,0,0,1,.344.344.337.337,0,0,1-.344.343v.688l2.752,24.077-.344.344v13.414s2.064,0,2.064.344v2.407a14.947,14.947,0,0,1-2.064,2.408l2.407,45.06,3.784,2.751v-7.222l9.631-4.128V164.414a16.16,16.16,0,0,0-1.032-3.095l-1.032-1.033v-1.375a.337.337,0,0,1-.344-.345v-1.72s0-.687,1.032-1.032l2.064-.687v-14.1a.337.337,0,0,1-.344-.344.337.337,0,0,1,.344-.343V137.93h-.687v-.345l.688-.343,3.1-29.926v-.687a.337.337,0,0,1-.344-.343.337.337,0,0,1,.344-.344v-1.033a.337.337,0,0,1-.344-.343.337.337,0,0,1,.344-.344v-1.032a.337.337,0,0,1-.344-.344,1.2,1.2,0,0,1,.344-.687v-1.033a.337.337,0,0,1-.344-.343.337.337,0,0,1,.344-.344l.343-1.72.344,1.72a.338.338,0,0,1,.345.344.337.337,0,0,1-.345.343v1.033a.337.337,0,0,1,.345.343.338.338,0,0,1-.345.344v1.033a.337.337,0,0,1,.345.343.338.338,0,0,1-.345.344V105.6a.338.338,0,0,1,.345.344.338.338,0,0,1-.345.344v1.031l3.1,28.894h.687v.344l-.687.343V139.3a.337.337,0,0,1,.344.344.337.337,0,0,1-.344.344v14.1h2.064c1.031,0,1.031.687,1.031.687v1.72a1.206,1.206,0,0,1-.344.688v1.375c0,.345-.687,1.033-1.032,1.376s-.687,3.44-.687,3.44v39.211s5.847-8.255,12.726-12.726c7.223-4.473,11.694-5.5,11.694-5.5v-2.821l-.343.069v-7.222c0-.819,0-1.421.343-1.635v8.788l1.376-.275v-7.223c0-1.032-.343-1.719-1.031-1.376a.64.64,0,0,0-.345.086v-1.461h-1.031v-1.033l1.377-.687h1.031s.688-4.128,4.127-4.471,4.128,3.439,4.128,3.439h1.032l1.376.344v1.032l-.688.343v13.071s4.816-.687,11.694,2.753c12.039,5.5,18.919,17.885,18.919,17.885v10.664l8.943,2.063v15.964q8.063-.745,16.167-1.449V132.426s-.344,0-.344-.688a1.2,1.2,0,0,1,.344-.687l-1.376-1.377a3.425,3.425,0,0,1-1.376-1.72c-.344-.687,0-1.375.688-1.375a15.444,15.444,0,0,1,2.75-.688V105.941c0-.344-.343-.688-.343-1.033v-.687l-.344-.343c-.344,0-1.72-.688-1.72-1.033,0,0-.344-2.063-.344-2.407s0-.344.688-.688c.343-.344,2.063-.344,2.063-.344s-.343-3.095-.343-3.439,4.471-.688,4.471-.688V87.71s-2.063-1.032-2.063-1.72,1.031-1.032,2.063-1.376a47.055,47.055,0,0,1,5.5-.687l5.848-15.479.343-7.911,2.753.344,12.726-38.524a2.152,2.152,0,0,1-1.719-2.063,2.152,2.152,0,0,1,1.719-2.064V16.854c0-.344-1.032-1.376-1.032-1.376,0-.344.688-5.848.688-5.848,0-.344.688-.344.688-.344V8.6a.337.337,0,0,1-.344-.344,1.2,1.2,0,0,1,.344-.687V7.223a.337.337,0,0,1-.344-.344.337.337,0,0,1,.344-.344V.344a.337.337,0,0,1,.344-.344.337.337,0,0,1,.344.344V6.535a.336.336,0,0,1,.343.344.336.336,0,0,1-.343.344v.344s.343,0,.343.687-.343.344-.343.344v.687s.687,0,.687.344.688,5.848.688,5.848c0,.343-1.032,1.376-1.032,1.376v1.72a2.151,2.151,0,0,1,1.72,2.063,2.153,2.153,0,0,1-1.72,2.064l12.727,38.523,2.752-.343.343,7.911,5.849,15.478a47.06,47.06,0,0,1,5.5.688c1.032.344,2.065.688,2.065,1.376s-2.065,1.72-2.065,1.72v7.567s4.472,0,4.472.688c0,.344-.343,3.439-.343,3.439s1.72.344,2.063.344c.344.344.688,0,.688.688,0,.343-.343,2.408-.343,2.408s-1.72.688-1.72,1.032a.337.337,0,0,0-.344.344.475.475,0,0,1,0,.687c0,.344-.343.688-.343,1.033v15.37A330.571,330.571,0,0,0-3197.307,85.3c4.815-11.694,7.912-20.638,9.288-24.421v-8.6h6.535V58.13h23.389V52.281h6.535v6.536c4.816,4.815,13.071,12.727,24.421,22.358a532.576,532.576,0,0,0,72.576,52.971,390.248,390.248,0,0,0,41.964,22.165v-4.623h.688l.343,2.408h.344v1.376h.344v.343h-.344l-.344.344h-.343l.022.466a198.488,198.488,0,0,0,29.956,10.681l-.054-.482v-5.16l.344-.343v.687l.344,4.128.688-.344.687.344-.344.344-.688.687v.389q2.975.748,5.848,1.331c27.173.344,47.467-6.536,65.7-18.23,10.32-6.535,23.046-17.2,30.957-27.173v-2.407h3.095v3.095l.345,1.376h10.663c.688-1.032,1.376-1.719,2.063-2.751v-1.72h3.1v2.752c.688,2.063,7.224,20.981,13.414,33.365,5.5,11.006,10.318,21.669,11.7,24.42,1.262.181,2.525.35,3.783.515v-4.643l-.687-1.031v-1.377l1.031-1.031V167.51l-9.287-8.255h-.687v-1.033h.688v-5.847l4.127-.344h3.44V137.584h-.687V136.9l1.375-.343v-1.033l-1.72-1.032V133.8a10.672,10.672,0,0,1,2.409-.687c.343-.344,0-1.376,1.031-4.816.688-3.439,2.752-5.159,4.127-6.535a26.183,26.183,0,0,0,2.409-3.1v-3.783a1.2,1.2,0,0,1,.343-.687h1.72a3.463,3.463,0,0,0,.343-1.033c0-.344.344-2.063.344-2.063l-2.063-1.032-1.032-.688v-.687h.688v-5.16l4.471-1.032h3.1V99.061l2.751-2.064V47.811a.337.337,0,0,0-.344-.344,1.064,1.064,0,0,1-.343-.687h-.344v-.688h-.343V45.059a1.491,1.491,0,0,1-.688-1.376,1.491,1.491,0,0,1,.688-1.376v-.344l1.031-1.031v-.345h-.343c-.344,0-.344-.343-.344-.687s.344-5.16.344-5.16a.336.336,0,0,1,.343-.343v-1.72l-.343-.344c0-.343.343-5.847.343-6.191a.337.337,0,0,1,.344-.343v-.345s-.344,0-.344-.687a.337.337,0,0,1,.344-.344l.345-1.719.343,1.719a.337.337,0,0,1,.344.344c0,.687-.344.687-.344.687V25.8a.337.337,0,0,1,.344.343c0,.344.343,5.848.343,6.191s0,.344-.343.344v1.376a.336.336,0,0,1,.343.344c0,.343.344,4.816.344,5.5,0,.344,0,.687-.344.687h-.343v.345l1.031,1.031v.344a1.49,1.49,0,0,1,.689,1.376,2.4,2.4,0,0,1-.689,1.376v1.032h-.343v.688h-.344a1.065,1.065,0,0,1-.343.687l-.344.344V97l2.752,2.064V102.5h3.1l4.471,1.377v5.158h.688v1.033l-1.032.687-2.407.688a19.41,19.41,0,0,1,.343,2.407,3.458,3.458,0,0,0,.344,1.032h1.72c.343,0,.343.344.343.688v3.783s1.72,2.064,2.407,3.095c1.376,1.72,3.44,3.1,4.129,6.88.687,3.439.344,4.816,1.031,4.816a12.494,12.494,0,0,0,2.407,1.031v.688s-1.719.688-1.719,1.032v1.033l1.375.343v.688h-1.031v14.446h3.44l4.127.688v5.847h.688v1.377h-.687l-9.287,7.567v6.535l1.031,1.033v1.375l-.687,1.033v9.974l.688.688v1.032l-.687,1.033,56.754,2.063,3.095,9.631h1.72l-1.72,1.72v8.6l6.536-.344v3.784h.688l1.72-11.7a.337.337,0,0,1-.344-.343,1.2,1.2,0,0,1,.344-.688l.344-37.491h-.688l-.687-3.784a3.475,3.475,0,0,1-.343-1.032V159.6c0-.344.343-.687.343-.344l1.376.344V142.057a1.2,1.2,0,0,1-.344-.688v-1.032s-.344,0-.344-.688v-1.376s-.343,0-.343-.688v-1.031a1.505,1.505,0,0,1-.345-1.033v-2.408c0-.344.345-.344.688-.344l1.72.344.344-18.575a.337.337,0,0,1-.344-.343.337.337,0,0,1,.344-.344v-3.783h.343l3.1-28.206V80.487s-.343,0-.343-.687.343-.687.343-.687v-.688a.336.336,0,0,1-.343-.344.336.336,0,0,1,.343-.344v-.687a.336.336,0,0,1-.343-.344,1.2,1.2,0,0,1,.343-.687v-.344a.336.336,0,0,1-.343-.344.336.336,0,0,1,.343-.344V74.3s-.343,0-.343-.687a1.2,1.2,0,0,1,.343-.688v.688a.337.337,0,0,0,.344.343.337.337,0,0,0,.344-.343V72.92s.343,0,.343.688-.343.687-.343.687v.687a.336.336,0,0,1,.343.344.336.336,0,0,1-.343.344v.344a1.2,1.2,0,0,1,.343.687.336.336,0,0,1-.343.344v.687s.343,0,.343.688a.336.336,0,0,1-.343.343v.688s.343,0,.343.687-.343.689-.343.689v1.375l3.1,29.237h.343v3.783a.337.337,0,0,1,.344.344.337.337,0,0,1-.344.344l.344,18.918,1.72.343a.741.741,0,0,1,.688.688v1.719c0,.688-.345.688-.345.688V139.3a.336.336,0,0,1-.343.344v1.376c0,.687-.344.687-.344.687v1.033a.337.337,0,0,1-.344.343v17.543l1.377.344c.343,0,.343.344.343.687v2.408a1.2,1.2,0,0,1-.343.688l-.688,3.439h-.688l.344,36.116,5.5.344s1.72-3.1,4.128-3.783a6.693,6.693,0,0,1,3.44-.345v-.343h.343v-1.375a.337.337,0,0,1-.343-.345.336.336,0,0,1,.343-.344v-.687h.344v0a.336.336,0,0,1,.343.344v.687a.338.338,0,0,1,.345.345.337.337,0,0,1-.345.343v1.375h.345v.345a6.952,6.952,0,0,1,3.439,1.375c.344.345.688.345,1.031.688a7.538,7.538,0,0,1,1.72-1.032,6.7,6.7,0,0,1,3.44-.344v-.343h.343v-1.377a.336.336,0,0,1-.343-.343.336.336,0,0,1,.343-.344v-.688h.344v0a.337.337,0,0,1,.344.345v.687a.336.336,0,0,1,.343.343.336.336,0,0,1-.343.344v1.376h.343v.344a6.95,6.95,0,0,1,3.44,1.376.337.337,0,0,1,.344.344h.344v-.688h.343v-1.376a.336.336,0,0,1-.343-.343.336.336,0,0,1,.343-.344v-.688h.344v0a.337.337,0,0,1,.344.343v.689a.337.337,0,0,1,.344.343.337.337,0,0,1-.344.344v1.032a14.551,14.551,0,0,1,3.439-.688v-.343h.344v-1.377a.337.337,0,0,1-.344-.343.337.337,0,0,1,.344-.344v-.687h.344v0h.344v.687a.337.337,0,0,1,.344.344.337.337,0,0,1-.344.343v1.377h.344v.343a8.376,8.376,0,0,1,3.439,1.377c.344,0,.344.343.688.343.343-.343.688-.343,1.376-.687a6.7,6.7,0,0,1,3.439-.344v-.343h.344v-1.376a.337.337,0,0,1-.344-.344.337.337,0,0,1,.344-.345v-.687h.344v0l.343.344v.688a.338.338,0,0,1,.345.344.337.337,0,0,1-.345.343v1.376h.345v.344a6.013,6.013,0,0,1,1.719.344h.344v-.688h.344v0a.336.336,0,0,1,.343.344v.687a.337.337,0,0,1,.344.344l1.033.688a1.261,1.261,0,0,1,1.031-.344,6.685,6.685,0,0,1,3.44-.344v-.344h.343v-1.375a.337.337,0,0,1-.343-.345.336.336,0,0,1,.343-.343v-.687h.344v0l.344.343v.687a.337.337,0,0,1,.344.345.337.337,0,0,1-.344.343v1.376h.344v.344a6.95,6.95,0,0,1,3.44,1.376c.343,0,.343-.344.687-.344a6.7,6.7,0,0,1,3.44-.344V205h.343v-1.376a.336.336,0,0,1-.343-.344.336.336,0,0,1,.343-.344v-.688c0-.343.344,0,.344,0v0h.344v.688a.337.337,0,0,1,.344.344.337.337,0,0,1-.344.344V205h.344v.343a6.944,6.944,0,0,1,3.439,1.377c.344,0,.344,0,.688-.345a6.687,6.687,0,0,1,3.439-.343v-.344h.344v-1.376a.337.337,0,0,1-.344-.344.337.337,0,0,1,.344-.343v-.688c0-.343.344,0,.344,0v0l.343.344v.687a.338.338,0,0,1,.345.344.338.338,0,0,1-.345.344v1.376h.345v.343h.688a3.206,3.206,0,0,1,2.063,0v-.343h.344v-1.376a.337.337,0,0,1-.344-.344.337.337,0,0,1,.344-.344v-.687c0-.344.343,0,.343,0v0l.345.344v.687a.337.337,0,0,1,.344.344.337.337,0,0,1-.344.344v1.375h.344v.345h.688V180.237h-1.032l-.688-3.1a1.2,1.2,0,0,1-.344-.687v-2.064a.337.337,0,0,1,.344-.344l1.72.344V159.255h-.344l-.687-3.1a1.2,1.2,0,0,1-.345-.687v-2.064a.338.338,0,0,1,.345-.344h1.032v-14.1l-.344-.344v-.688s-.343,0-.343-.687V136.21a.338.338,0,0,1-.345-.344v-1.032a1.2,1.2,0,0,1-.344-.687v-2.065c0-.343,0-.343.344-.343l1.376.343.344-13.069a.337.337,0,0,1-.344-.345.337.337,0,0,1,.344-.343v-4.472l2.408-24.765V87.71s-.345,0-.345-.687a.338.338,0,0,1,.345-.344V85.99a.337.337,0,0,1-.345-.343.338.338,0,0,1,.345-.344v-.688a.338.338,0,0,1-.345-.344,1.2,1.2,0,0,1,.345-.687V82.9h0v.344a1.2,1.2,0,0,1,.343.687.336.336,0,0,1-.343.343v.688a.336.336,0,0,1,.343.344.336.336,0,0,1-.343.344v.687s.343,0,.343.688-.343.343-.343.343v1.377l2.408,25.453v3.439a.336.336,0,0,1,.343.344.336.336,0,0,1-.343.344l.343,13.07h1.377c.343,0,.343.344.343.687v2.064c0,.688-.343.688-.343.688v1.032a.337.337,0,0,1-.344.344v1.375a1.2,1.2,0,0,1-.344.688v.688a.337.337,0,0,1-.344.343v14.1h1.033c.343,0,.343.344.343.688v2.063a1.2,1.2,0,0,1-.343.687s-.344,3.1-.689,3.1h-.343v15.134l1.72.344c.343,0,.343.344.343.688v2.063a1.2,1.2,0,0,1-.343.688s-.344,3.1-.687,3.1h-1.033v18.229l5.5.688v-5.5l-.344-.344v-.344h1.72v-3.095l-.343-.344V190.9s.688,0,.688-.344c.343-.344.343-2.407,2.407-2.063,2.408.343,2.408,2.752,2.752,2.752l.687.687v.344l-.343.343v2.408l5.159.687v-5.5h-.344v-.343l3.1-.687,5.5.687h1.72s0-1.033.343-1.376l.689-.688v-1.719s-.345,0-.345-.688.345-.688.345-.688v-.687a.338.338,0,0,1-.345-.344.338.338,0,0,1,.345-.344V182.3a.337.337,0,0,1-.345-.343,3.46,3.46,0,0,1,.345-1.033v-2.063a.338.338,0,0,1-.345-.344,1.2,1.2,0,0,1,.345-.688v.344a1.2,1.2,0,0,1,.343.688.336.336,0,0,1-.343.343v1.033a3.464,3.464,0,0,1,.343,1.032.336.336,0,0,1-.343.343v1.033a.336.336,0,0,1,.343.343.336.336,0,0,1-.343.344v.688s.343,0,.343.687-.343.344-.343.344v.688l1.375.344a7.515,7.515,0,0,1,1.72-1.033l2.063.343v-1.031l-.343-.344v-.344l2.406.344a7.145,7.145,0,0,0,2.065-.688c.343-.344,2.063-2.407,2.063-2.407v-9.287l-.344-.344v-.344a1.7,1.7,0,0,0,1.031-.343c0-.345.344-1.376.344-2.064l.688-.688-.344-1.376a1.2,1.2,0,0,1-.343-.687v-1.72a.336.336,0,0,1,.343-.343h1.033V151.688l-.343-.344v-.688s-.345,0-.345-.687v-1.033a.337.337,0,0,1-.344-.343V147.9a1.2,1.2,0,0,1-.343-.688V145.5c0-.343,0-.343.343-.343h1.033V132.426a.337.337,0,0,1-.344-.345.337.337,0,0,1,.344-.343v-3.095l2.407-21.67v-1.032a.336.336,0,0,1-.343-.344.336.336,0,0,1,.343-.344v-.687a.337.337,0,0,1,.344-.344v-.688a.337.337,0,0,1-.344-.343,1.2,1.2,0,0,1,.344-.688v-1.719s-.248,0-.323-.42c.033.076.115.076.323.076v2.752a1.2,1.2,0,0,1,.343.688.336.336,0,0,1-.343.343v.687a.336.336,0,0,1,.343.344v.688a.337.337,0,0,1,.344.344.337.337,0,0,1-.344.343v1.033s2.064,22.357,2.409,22.357v3.1a.337.337,0,0,1,.344.344.337.337,0,0,1-.344.343v12.727h1.031a.337.337,0,0,1,.344.344v1.72a1.2,1.2,0,0,1-.344.687v.688a.336.336,0,0,1-.343.343v1.033a.337.337,0,0,1-.344.344v.687a.337.337,0,0,1-.344.343V165.1h1.031c.344,0,.344,0,.344.343v1.72a1.2,1.2,0,0,1-.344.687l.688.688v-1.719l6.192-1.033v-.344a.337.337,0,0,1-.344-.343v-.688a1.2,1.2,0,0,1,.688-.344h1.72c.688,0,1.032.344,2.063-1.032,1.032-1.032,2.752-4.472,5.5-6.535,3.095-2.064,5.159-3.44,7.911-4.128s5.16-1.032,5.16-1.032l.343-19.95a.336.336,0,0,1-.343-.343.336.336,0,0,1,.343-.344v-2.753l-.343-.343v-.687h.343l4.128-30.956v-1.72a.674.674,0,0,1-.688-.688.674.674,0,0,1,.688-.688.336.336,0,0,1-.343-.343.337.337,0,0,1,.343-.345V91.151a.336.336,0,0,1-.343-.344c0-.344.688-.688.688-.688v-.344a.337.337,0,0,1-.344-.343.337.337,0,0,1,.344-.344V88.4s-.344,0-.344-.687a1.2,1.2,0,0,1,.343-.687.475.475,0,0,0,0,.687.337.337,0,0,0,.344.344.337.337,0,0,0,.344-.344v-.687a1.2,1.2,0,0,1,.344.687c0,.687-.344.687-.344.687v.688a.337.337,0,0,1,.344.344.337.337,0,0,1-.344.343v.344a1.273,1.273,0,0,1,.687,1.033.336.336,0,0,1-.343.343v1.033s.343,0,.343.687a.336.336,0,0,1-.343.344v.688a.673.673,0,0,1,.688.687.673.673,0,0,1-.687.687v1.72l4.127,32.332a.337.337,0,0,1,.344.344v.688l-.344.344V133.8a.337.337,0,0,1,.344.345.337.337,0,0,1-.344.343l.344,19.262a41.311,41.311,0,0,1,6.536,3.095c2.751,1.376,4.815,3.1,7.911,5.849s5.159,6.878,6.191,8.254,1.376,1.377,2.063,1.377a3.755,3.755,0,0,0,1.721.343,1.2,1.2,0,0,1,.688.344v.344l-.344.343v2.753l4.127,2.407.344,1.376s1.032-.688,1.719-1.033a1.667,1.667,0,0,1,1.377,0v-.687l.344-.344a.337.337,0,0,0,.344-.344v-.344a.337.337,0,0,1-.344-.343.337.337,0,0,1,.344-.344v-.687a.337.337,0,0,1-.344-.344c0-.344.344,0,.344,0v-.688s-.344,0,0-.343l.343-.344.344.344v.687a.336.336,0,0,1,.343.344.336.336,0,0,1-.343.344v.687a1.2,1.2,0,0,1,.343.687.336.336,0,0,1-.343.344v.344a.337.337,0,0,0,.343.344c.344,0,.344.344.344.687v.688a5.645,5.645,0,0,1,3.44,2.408c1.376,2.064,1.376,2.752,1.376,3.095s1.032,1.033,1.032,1.033v.344h-.344v4.472l1.376,1.032v-14.1h-.343l-.688-3.1a1.2,1.2,0,0,1-.344-.687v-2.063a.337.337,0,0,1,.344-.345h1.032V156.846l-.343-.343v-.688s-.345,0-.345-.687V154.1a.336.336,0,0,1-.343-.344v-1.033a1.2,1.2,0,0,1-.344-.687v-2.063c0-.344,0-.344.344-.344h1.376l.343-17.2a.337.337,0,0,1-.343-.345.336.336,0,0,1,.343-.343V127.61l2.409-24.765v-1.376s-.344,0-.344-.687a.337.337,0,0,1,.344-.344v-.688a.337.337,0,0,1-.344-.344.337.337,0,0,1,.344-.343v-.687a.337.337,0,0,1-.344-.344,1.2,1.2,0,0,1,.344-.688V97a1.2,1.2,0,0,1,.344.687.337.337,0,0,1-.344.345v.687a.337.337,0,0,1,.344.344.337.337,0,0,1-.344.343v.688s.344,0,.344.688-.344.343-.344.343V102.5l2.407,25.453v3.44a.337.337,0,0,1,.344.344.337.337,0,0,1-.344.343l.344,17.2h1.376c.344,0,.344.344.344.688v2.063c0,.687-.344.687-.344.687v1.033a.337.337,0,0,1-.344.344v1.032a1.2,1.2,0,0,1-.344.687v.688a.336.336,0,0,1-.343.343v15.134h1.032c.344,0,.344.345.344.688v2.752a1.2,1.2,0,0,1-.344.688s-.344,3.095-.688,3.095h-.343v17.887l1.719.343c.344,0,.344.344.344.687v2.064a1.206,1.206,0,0,1-.344.688s-.344,3.095-.688,3.095v2.753l11.351,1.719,2.753,1.376v5.159l5.847.687V213.6l-.343-.344v-.343s.688,0,.688-.344c.343-.343.343-2.408,2.407-2.063s2.408,2.751,2.752,2.751v-6.534h-1.033l-.343-2.408a1.2,1.2,0,0,1-.344-.687v-1.72c0-.344,0-.344.344-.344l1.72.344V187.115h-.344l-.343-2.751a1.2,1.2,0,0,1-.345-.688v-2.063a.338.338,0,0,1,.345-.344h1.031V167.853l-.343-.343v-.687s-.344,0-.344-.688V165.1a.337.337,0,0,1-.344-.344v-.688a1.2,1.2,0,0,1-.344-.687v-1.72c0-.343,0-.343.344-.343h1.031V145.152a.336.336,0,0,1-.343-.344.336.336,0,0,1,.343-.343v-3.1l2.064-22.014v-1.032a.337.337,0,0,1-.344-.344.337.337,0,0,1,.344-.344V116.6a.336.336,0,0,1,.343-.344v-.687a.336.336,0,0,1-.343-.344,1.2,1.2,0,0,1,.343-.688v.344a1.2,1.2,0,0,1,.344.688.337.337,0,0,1-.344.344v.687a.337.337,0,0,1,.344.343v.688a.337.337,0,0,1,.344.344.337.337,0,0,1-.344.344v1.032l2.064,22.357v3.1a.337.337,0,0,1,.344.344.337.337,0,0,1-.344.343v16.167h1.031a.337.337,0,0,1,.344.344v1.72a1.2,1.2,0,0,1-.344.687v.688a.336.336,0,0,1-.343.343v1.032a.337.337,0,0,1-.344.345v.687a.337.337,0,0,1-.344.343v13.415h1.031a.337.337,0,0,1,.344.343v2.064a1.2,1.2,0,0,1-.344.688l-.343,2.751h-.344v14.791l1.375.343c.344,0,.344,0,.344.344v1.72a1.206,1.206,0,0,1-.344.688l-.343,2.407h-1.031V239.4l9.975,9.631,11.694,1.719v20.7l3.439.682V90.806l5.5,1.375c1.72-11.35,11.007-18.229,22.014-15.822l.688-16.166.688,16.51c11.008,3.1,19.949,14.1,21.669,26.141l5.848,1.376V284.107c2.191.494,4.353.987,6.536,1.487V153.407l36.115,54.346V294.21c2.294.569,4.6,1.145,6.879,1.719V270.011l36.115,8.6v11.962l30.956,7.3v16.251c82.426,24.038,155.923,52.007,218.417,83.155Zm221.168-104.565,2.408-.344V86.679l-2.408-.344Zm7.223-1.377,2.407-.343V88.055l-2.407-.344Zm7.567-1.719,2.408-.344V89.431l-2.408-.344Zm7.224-1.376,2.407-.344V90.806l-2.407-.344Zm1375.507-4.472,4.816,1.033v-6.536l-4.816-1.032Zm-7.567-1.72,4.815,1.033v-6.536l-4.815-1.032Zm-7.911-1.72,4.815,1.033v-6.536l-4.815-1.032Zm-7.568-2.063,4.815,1.033v-6.536l-4.815-1.032Zm23.045-2.752,4.816,1.032v-6.535l-4.816-1.032Zm-7.567-1.72,4.815,1.032v-6.535l-4.815-1.032Zm-41.963-1.719,8.941,2.063V127.266l-8.941-2.063Zm34.052-.344,4.815,1.032v-6.535l-4.815-1.033Zm-7.568-1.72,4.815,1.033v-6.536l-4.815-1.032Zm-43.339-1.72,8.942,2.064V123.138l-8.942-2.063Zm66.384-1.032,4.816,1.032v-6.534l-4.816-1.033Zm-7.567-1.719,4.815,1.032v-6.535l-4.815-1.033Zm-75.672-1.376,8.944,2.063V119.355l-8.944-2.063Zm67.761-.688,4.815,1.032v-6.535l-4.815-1.032Zm-7.568-1.719,4.815,1.031v-6.535l-4.815-1.032Zm-1212.469-9.631c-2.752.343-2.752,3.095-2.752,3.783v5.118l5.5-.648V255.22s.311-3.12-2.332-3.12A3.68,3.68,0,0,0-3580.825,252.125ZM-2345.312,259l4.816,1.033V253.5l-4.816-1.032Zm-1226.227-12.038c-2.752.344-2.752,3.095-2.752,3.783v8.9l5.5-.648V250.06s.313-3.119-2.333-3.119A3.916,3.916,0,0,0-3571.539,246.965Zm9.287,2.752c-2.751.343-2.751,3.1-2.751,3.783v5.119l5.5-.648v-5.159s.311-3.12-2.333-3.121A3.693,3.693,0,0,0-3562.252,249.717Zm1209.374,7.223,4.815,1.032v-6.535l-4.815-1.032Zm-7.911-1.72,4.815,1.032v-6.535l-4.815-1.032Zm-7.568-1.72,4.815,1.033V248l-4.815-1.032Zm23.045-2.752,4.816,1.032v-6.535l-4.816-1.032Zm-1250.648-6.879c-1.376,0-1.376,1.376-1.376,1.72v4.471l2.752-.343v-4.472s0-1.422-1.034-1.422A1.426,1.426,0,0,0-3595.96,243.869Zm1243.082,4.816,4.815,1.032v-6.535l-4.815-1.033Zm-7.911-1.72,4.815,1.032v-6.535l-4.815-1.033Zm-7.568-1.72,4.815,1.032v-6.535l-4.815-1.032Zm23.045-2.752,4.816,1.032v-6.534l-4.816-1.033Zm-7.567-2.064,4.815,1.033v-6.536l-4.815-1.031Zm-7.911-1.719,4.815,1.032v-6.535l-4.815-1.032Zm-7.568-1.719,4.815,1.031v-6.534l-4.815-1.033Zm-292.712-10.664v8.944l4.815.687v-8.944c0-1.375-.688-2.751-2.407-2.751a2.719,2.719,0,0,0-.517-.055A1.962,1.962,0,0,0-2661.069,226.327Zm-867.474,3.1c-1.033,0-1.376,1.032-1.376,1.719v4.434l2.752-.305v-4.816c0-.561-.23-1.123-.875-1.123A1.584,1.584,0,0,0-3528.543,229.423Zm1183.231,4.472,4.816,1.031v-6.535l-4.816-1.032Zm-326.42-8.944V233.9l4.816.687V225.64c0-1.376-.688-2.753-2.407-2.753a2.634,2.634,0,0,0-.516-.054A1.964,1.964,0,0,0-2671.732,224.952Zm-848.556,3.439c-1.032,0-1.376,1.033-1.376,1.72v4.433l2.752-.305v-4.815c0-.562-.23-1.123-.875-1.123A1.6,1.6,0,0,0-3520.288,228.391Zm8.255-1.031c-1.032,0-1.376,1.031-1.376,1.719v4.434l2.751-.306v-4.816c0-.561-.229-1.123-.874-1.123A1.589,1.589,0,0,0-3512.033,227.36Zm1159.154,4.815,4.815,1.032v-6.535l-4.815-1.032Zm-329.518-8.944v8.944h0l4.815.687V223.92c0-1.376-.687-2.752-2.407-2.752a2.622,2.622,0,0,0-.515-.055A1.965,1.965,0,0,0-2682.4,223.232Zm-821.382,3.1c-1.033,0-1.376,1.033-1.376,1.72v4.433l2.752-.305V227.36c0-.562-.23-1.124-.875-1.124A1.6,1.6,0,0,0-3503.778,226.327Zm1142.988,4.128,4.815,1.033v-6.536l-4.815-1.032Zm-332.268-8.6V230.8l4.816.689v-8.944c0-1.376-.688-2.752-2.408-2.752a2.636,2.636,0,0,0-.517-.054A1.963,1.963,0,0,0-2693.058,221.857Zm-802.465,3.438c-1.032,0-1.376,1.033-1.376,1.72v4.434l2.752-.305v-4.816c0-.561-.23-1.123-.875-1.123A1.6,1.6,0,0,0-3495.522,225.295Zm758.781,5.139c1.484.124,2.99.251,4.472.377v-7.924h-4.472Zm-845.46-10.642c-1.376,0-2.063,1.719-2.063,2.752V230.8h.344l3.783-.343v-8.6c0-1.195-.519-2.131-1.557-2.131A2.12,2.12,0,0,0-3582.2,219.792Zm94.934,4.472c-1.032,0-1.376,1.031-1.376,1.719v4.433l2.752-.305v-4.816c0-.561-.23-1.122-.875-1.122A1.574,1.574,0,0,0-3487.267,224.264Zm741.927,5.463c1.488.12,2.985.242,4.472.364v-7.547h-4.472Zm376.983-.992,4.815,1.033v-6.536l-4.815-1.032Zm-335.364-8.6v8.943l4.816.688v-8.944c0-1.376-.687-2.752-2.408-2.752a2.631,2.631,0,0,0-.517-.054A1.963,1.963,0,0,0-2703.721,220.137Zm-871.6-1.376c-1.376,0-2.064,1.719-2.064,2.751v8.256h.344l3.783-.344v-8.6c0-1.195-.518-2.13-1.557-2.13A2.066,2.066,0,0,0-3575.322,218.761Zm821.383,10.283q2.238.175,4.471.352v-7.2h-4.471Zm-725.073-5.812c-1.033,0-1.376,1.033-1.376,1.72v4.434l2.752-.306v-4.815c0-.562-.23-1.124-.875-1.124A1.6,1.6,0,0,0-3479.012,223.232Zm-89.431-5.159c-1.376,0-2.063,1.72-2.063,2.752v8.255h.343l3.783-.344v-8.6c0-1.195-.518-2.131-1.556-2.131A2.118,2.118,0,0,0-3568.443,218.072Zm854.4.688V227.7l4.815.687v-8.943c0-1.376-.687-2.752-2.407-2.752a2.633,2.633,0,0,0-.516-.054A1.963,1.963,0,0,0-2714.04,218.761Zm-847.524-1.72c-1.376,0-2.064,1.72-2.064,2.752v8.255h.344l3.784-.344v-8.6c0-1.195-.519-2.13-1.557-2.13A2.068,2.068,0,0,0-3561.563,217.041Zm780.451,10c2.759.191,5.5.384,8.255.582v-5.77l-8.255-.688Zm435.8-1.4,4.816,1.032v-6.535l-4.816-1.033ZM-3214.505,184.5v41.739c8.785-.574,17.633-1.115,26.485-1.618V181.269Q-3201.6,182.847-3214.505,184.5Zm408.972,40.95,4.471.277V220.48h-4.471Zm-8.6-.514c1.5.088,2.978.175,4.472.265v-5.068h-4.472Zm461.254-1.02,4.815,1.032v-6.535l-4.815-1.033Zm-469.853.528c1.5.084,2.974.167,4.471.253v-4.909h-4.471Zm-358.754-.188c7.759-.425,15.581-.824,23.388-1.193v-27.7h-23.388Zm321.949-1.648q13.8.609,27.517,1.333v-6.217l-1.72-.344,1.72-7.223V203.97l1.72-1.72V190.211l-.687-1.032v-1.032l.688-.687V184.87c-9.455-1.139-19.281-2.2-29.237-3.258Zm-660.752-4.884c-1.032,0-1.376,1.033-1.376,1.72v4.434l2.752-.306v-4.815c0-.562-.23-1.124-.875-1.124A1.575,1.575,0,0,0-3520.288,217.728Zm1159.5,4.472,4.815,1.032V216.7l-4.815-1.033Zm-790.771-44.716v45.28q43.887-1.986,88.742-2.793v-.522l-.344-.344v-.343l-.343-.344v-1.033h.343v-3.095a.337.337,0,0,1,.344-.343,3.463,3.463,0,0,1,1.032-.345h2.064v-1.375l-.687-.344-.345-.344-.343-.344-.344-.344v-1.376l-.344-.687c-.343-.344,0,0,0-.344v-.688a.337.337,0,0,1,.344-.343l.344-.344.343-.343v-3.1l.345-.344h3.438l.345-.344.343-.343-.688-.688h-2.063l-.344-.344V200.53h1.033a8.819,8.819,0,0,0,1.72-.688v-1.031h.343l.344,2.751h7.567V200.53l-.687-.344V199.5l1.72-.344,1.376.344v1.032h-.344v1.032h2.063v-.687h-.343v-.688l1.031-.344,1.032.344v.688h-.343v1.032h1.032c1.719,0,5.5.344,5.847.344v.344h1.376l.344-3.44h1.033l7.222-.343,1.032-3.1h-.343a2.668,2.668,0,0,0,1.031-.343c1.032-.344,2.407-.687,2.407-.687l.344-3.784c.688-1.376,2.407-2.064,4.471-2.408a7.775,7.775,0,0,1,3.784.343v.688l.688,2.064h1.031l.345-2.753v-2.063l-.345-.344v-.343l.345-.344-.6-12.751q-9.281-.2-18.664-.32-8.2-.133-16.333-.131C-3083.323,172.538-3118.615,174.49-3151.56,177.484Zm-360.473,35.772c-1.376,0-1.72,1.377-1.72,2.408v6.88l3.784-.344v-7.223a1.621,1.621,0,0,0-1.548-1.787A2.136,2.136,0,0,0-3512.033,213.256Zm636.331,8.683c4.35.17,8.735.35,13.07.537v-33.3h-13.07Zm-74.3-26.568a1.836,1.836,0,0,1,1.032,3.1v1.375c0,.344-1.376.688-1.376.688h1.032v.344a3.561,3.561,0,0,0,1.377.344c.687,0,1.719,0,1.376.687-.345,1.032-5.5,11.007-5.5,11.007l.343,1.376.344.344-.344,2.408v.343c0,.345-.688,1.033-.688,1.033a2.663,2.663,0,0,1-.343,1.032,1.26,1.26,0,0,1-.3.39q37.43.575,74.249,1.982V179.893c-31.7-2.6-66.009-4.717-101.915-6.007l.446,9.79.688,10.663.344,2.064.688,3.783s8.6,0,12.038.688c2.408,0,2.063,2.063,2.063,2.063,1.032,0,12.384-1.032,12.384-1.032v-.687l1.031-.344a2.689,2.689,0,0,1-1.375-1.376v-1.377a3.551,3.551,0,0,1-.344-1.375,1.536,1.536,0,0,1,1.032-1.376Zm581.641,25.109,4.815,1.032v-6.535l-4.815-1.032Zm-1138.174-8.6v9.631l4.816-.687v-9.287a2.172,2.172,0,0,0-2.407-2.407A2.846,2.846,0,0,0-3506.531,211.881Zm10.32-.687c-1.376,0-1.719,1.376-1.719,2.407v6.879l3.783-.343v-7.223a1.621,1.621,0,0,0-1.548-1.788A2.155,2.155,0,0,0-3496.211,211.193Zm9.288,2.407c-1.032,0-1.376,1.033-1.376,1.72v4.434l2.751-.306v-4.815c0-.562-.229-1.124-.875-1.124A1.605,1.605,0,0,0-3486.923,213.6Zm979.606,1.376v3.784l2.063.343v-3.783c0-.687-.344-1.032-1.033-1.376A.911.911,0,0,0-2507.317,214.976Zm162.005,2.408,4.816,1.033v-6.536l-4.816-1.032Zm-164.07,1.033v-3.783a.912.912,0,0,0-1.031-1.033.912.912,0,0,0-1.032,1.033v3.439h0Zm-4.127-.688v-3.783a.912.912,0,0,0-1.032-1.032.912.912,0,0,0-1.031,1.032v3.439h0Zm-6.192-4.472v3.44l2.064.344v-3.784a.911.911,0,0,0-1.031-1.031A.912.912,0,0,0-2519.7,213.256Zm166.823,2.408,4.815,1.033V210.16l-4.815-1.031Zm-171.293-3.095v3.784l2.063.343v-3.783c0-.687-.343-1.033-1.033-1.376A.911.911,0,0,0-2524.172,212.569Zm-843.052-7.911c-1.377,0-2.064,1.719-2.064,2.752v8.254h.344l3.783-.343v-8.6c0-1.195-.519-2.131-1.556-2.131A2.111,2.111,0,0,0-3367.224,204.658Zm1006.435,9.287,4.815,1.032v-6.535l-4.815-1.032Zm-999.556-9.975c-1.375,0-2.063,1.72-2.063,2.753v8.254h.343l3.783-.343v-8.6c0-1.195-.518-2.131-1.557-2.131A2.111,2.111,0,0,0-3360.346,203.97Zm6.879-1.032c-1.376,0-2.063,1.72-2.063,2.752v8.255h.343l3.784-.344V205c0-1.2-.519-2.131-1.557-2.131A2.117,2.117,0,0,0-3353.466,202.938Zm985.109,9.288,4.815,1.031v-6.534l-4.815-1.033Zm-978.229-9.976c-1.377,0-2.065,1.72-2.065,2.753v8.254h.345l3.783-.343v-8.6c0-1.195-.519-2.131-1.557-2.131A2.105,2.105,0,0,0-3346.586,202.25Zm605.374,10.664h3.44v-5.16h-3.44Zm-598.5-11.694c-1.376,0-2.063,1.719-2.063,2.751v8.256h.343l3.784-.345v-8.6c0-1.195-.519-2.13-1.557-2.13A2.068,2.068,0,0,0-3339.708,201.219Zm6.879-.689a2.883,2.883,0,0,0-2.063,2.753v8.255h.344l3.783-.344v-8.6c0-1.2-.519-2.131-1.557-2.131A2.114,2.114,0,0,0-3332.829,200.529Zm6.879-1.031c-1.376,0-2.064,1.72-2.064,2.751v8.256h.344l3.784-.345v-8.6c0-1.195-.519-2.13-1.557-2.13A2.068,2.068,0,0,0-3325.949,199.5Zm6.879-.687c-1.376,0-2.063,1.718-2.063,2.751v8.255h.343l3.784-.344v-8.6c0-1.195-.519-2.131-1.556-2.131A2.075,2.075,0,0,0-3319.07,198.811Zm762.222,6.534v3.44l2.063.344v-3.784a.912.912,0,0,0-1.033-1.032A.911.911,0,0,0-2556.848,205.345Zm-4.129-.343v3.439l2.064.344V205a.912.912,0,0,0-1.031-1.033A.913.913,0,0,0-2560.977,205Zm-4.127-.688v3.439l2.064.344v-3.783a.912.912,0,0,0-1.032-1.032A.913.913,0,0,0-2565.1,204.314Zm-4.471-.687v3.439l2.063.344v-3.783a.911.911,0,0,0-1.032-1.032A.911.911,0,0,0-2569.575,203.626Zm-4.127-.688v3.439l2.063.345v-3.784a.911.911,0,0,0-1.032-1.032A.912.912,0,0,0-2573.7,202.938Zm78.423-1.719v3.439l2.064.344v-3.783a.912.912,0,0,0-1.032-1.033A.912.912,0,0,0-2495.28,201.219Zm-4.126-.344v3.439l2.063.344v-3.783a.912.912,0,0,0-1.032-1.033A.912.912,0,0,0-2499.406,200.875Zm-101.813,0v3.439l2.064.344v-3.783a.913.913,0,0,0-1.032-1.033A.912.912,0,0,0-2601.219,200.875Zm97.686-.688v3.44l2.063.343v-3.783a.912.912,0,0,0-1.031-1.032A.912.912,0,0,0-2503.534,200.186Zm-102.157,0v3.44l2.064.343v-3.783a.912.912,0,0,0-1.032-1.032A.912.912,0,0,0-2605.691,200.186Zm-4.128-.687v3.439l2.064.344V199.5a.913.913,0,0,0-1.032-1.033A.913.913,0,0,0-2609.819,199.5Zm-380.766,1.032c.344,0,6.191-.344,9.631-.344l.02.019.323-5.178-.869-21.169q-14.509-.516-29.338-.847l.282,7.913.344,2.408h5.5v.343h-3.1l-.344.344c.688.344.344,1.376.344,1.376h.344v.344h-1.376l-1.033,3.1.688,5.159h2.752c5.159.343,9.287.688,11.007,1.032a5.429,5.429,0,0,1,2.752,1.032,1.7,1.7,0,0,1,.344,1.033h.344a14.973,14.973,0,0,1,1.72.343v1.033h-.344Zm-549.652-12.038c-1.377,0-2.064,1.719-2.064,2.752V199.5h.344l3.783-.344v-8.6c0-1.195-.519-2.13-1.557-2.13A2.055,2.055,0,0,0-3540.237,188.492Zm6.878-.688c-1.375,0-2.063,1.72-2.063,2.752v8.256h.343l3.783-.345v-8.6c0-1.2-.518-2.131-1.556-2.131A2.121,2.121,0,0,0-3533.359,187.8Zm6.879-1.032c-1.376,0-2.063,1.72-2.063,2.752v8.255h.344l3.783-.344v-8.6c0-1.195-.519-2.13-1.557-2.13A2.068,2.068,0,0,0-3526.48,186.772Zm6.88-.687c-1.376,0-2.065,1.719-2.065,2.751v8.256h.345l3.783-.345v-8.6c0-1.195-.519-2.13-1.557-2.13A2.063,2.063,0,0,0-3519.6,186.084Zm965.5,6.534v3.44l2.064.344v-3.784a.911.911,0,0,0-1.032-1.031A.912.912,0,0,0-2554.1,192.619Zm-4.471-.343v3.439l2.063.344v-3.783a.912.912,0,0,0-1.032-1.032A.912.912,0,0,0-2558.568,192.275Zm-954.153-7.223c-1.375,0-2.063,1.72-2.063,2.752v8.255h.343l3.783-.344v-8.6c0-1.194-.518-2.13-1.556-2.13A2.067,2.067,0,0,0-3512.721,185.052Zm950.026,6.536v3.439l2.063.344v-3.783a.912.912,0,0,0-1.032-1.033A.912.912,0,0,0-2562.7,191.588Zm-943.146-7.223a2.881,2.881,0,0,0-2.063,2.751v8.256h.344l3.783-.344v-8.6c0-1.195-.52-2.13-1.557-2.13A2.077,2.077,0,0,0-3505.842,184.364Zm941.083,10.318V190.9a.912.912,0,0,0-1.033-1.032.912.912,0,0,0-1.032,1.032v3.439h0Zm-934.2-11.351c-1.375,0-2.063,1.72-2.063,2.753v8.254h.344l3.783-.343v-8.6c0-1.194-.519-2.13-1.558-2.13A2.109,2.109,0,0,0-3498.963,183.332Zm927.668,6.879v3.44l2.063.344v-3.784a.911.911,0,0,0-1.031-1.032A.912.912,0,0,0-2571.295,190.211Zm-4.128-.343v3.439l2.064.344v-3.783a.912.912,0,0,0-1.032-1.033A.913.913,0,0,0-2575.423,189.868Zm-916.661-7.223c-1.376,0-2.063,1.72-2.063,2.751v8.256h.343l3.784-.344v-8.6c0-1.195-.52-2.13-1.557-2.13A2.071,2.071,0,0,0-3492.083,182.644Zm6.88-1.033c-1.377,0-2.064,1.72-2.064,2.753v8.254h.344l3.783-.343v-8.6c0-1.195-.519-2.131-1.557-2.131A2.1,2.1,0,0,0-3485.2,181.612Zm6.878-.687c-1.375,0-2.063,1.72-2.063,2.752v8.255h.343l3.783-.343v-8.6c0-1.195-.518-2.13-1.556-2.13A2.12,2.12,0,0,0-3478.325,180.924Zm296.84-.687v5.5h23.389v-7.912C-3166.007,178.517-3173.918,179.548-3181.485,180.237Zm306.126,3.439h13.071v-2.408c-4.127-.688-8.6-1.032-13.071-1.376Zm-468.477-11.35c-.687,0-.687.687-.687,1.719v7.223l1.72-.344V173.7c0-.849-.234-1.464-.7-1.464A.745.745,0,0,0-3343.835,172.326Zm824.479,3.439v4.815h.344l2.407.344v-4.815a1.755,1.755,0,0,0-1.376-1.72A1.26,1.26,0,0,0-2519.357,175.765Zm-339.835-13.759c3.44,7.567,6.535,14.79,7.911,17.542a117.706,117.706,0,0,0,15.135,1.376c-2.063-3.783-6.536-13.414-11.35-23.39-4.472-8.943-9.288-22.014-11.7-28.892Zm-482.236,9.974c-.687,0-.687.688-.687,1.72v7.223l1.72-.344v-7.222c0-.85-.233-1.466-.7-1.466A.755.755,0,0,0-3341.428,171.981Zm816.569,2.753v4.815h.343l2.407.344v-4.816a1.754,1.754,0,0,0-1.376-1.719A1.259,1.259,0,0,0-2524.859,174.733Zm-334.333,4.128c2.063.343,4.128.343,6.191.687-1.376-2.752-3.783-7.568-6.191-13.07Zm329.172-4.816v4.816h.344l2.407.343v-4.815a1.756,1.756,0,0,0-1.377-1.72A1.26,1.26,0,0,0-2530.019,174.045Zm-5.159-.687v4.815h.343l2.408.344V173.7a1.757,1.757,0,0,0-1.376-1.72A1.26,1.26,0,0,0-2535.178,173.358Zm-340.18,3.783c4.473.343,8.6,1.032,13.071,1.376V159.6c-.344-1.033-1.031-1.72-1.376-2.753h-11.7Zm335.02-4.472v4.815h.344l2.408.344v-4.815a1.756,1.756,0,0,0-1.377-1.72A1.26,1.26,0,0,0-2540.339,172.669Zm-5.5-.688V176.8h.344l2.407.344v-4.815a1.755,1.755,0,0,0-1.377-1.72A1.259,1.259,0,0,0-2545.841,171.981Zm-345.339-19.949c-16.166,9.975-31.989,17.2-54.69,19.606,23.389,1.376,46.091,3.1,67.417,5.159V142.4A94.742,94.742,0,0,1-2891.18,152.031ZM-2551,171.293v4.816h.344l2.408.344v-4.816a1.754,1.754,0,0,0-1.376-1.72A1.26,1.26,0,0,0-2551,171.293Zm-5.159-1.033v4.816h.343l2.408.344v-4.815a1.755,1.755,0,0,0-1.376-1.72A1.259,1.259,0,0,0-2556.161,170.261Zm-5.16-.687v4.816h.344l2.408.344v-4.816a1.756,1.756,0,0,0-1.376-1.72A1.261,1.261,0,0,0-2561.321,169.573Zm-635.987-28.2a166.429,166.429,0,0,1-17.2,21.432v11.552c8.616-.675,17.477-1.351,26.485-2.026v-45.4Q-3192.664,134.145-3197.307,141.369Zm630.828,27.517V173.7h.343l2.407.344V169.23a1.754,1.754,0,0,0-1.376-1.72A1.259,1.259,0,0,0-2566.479,168.886Zm-249.03,0v4.472h3.095V169.23a2.058,2.058,0,0,0-1.719-1.72A1.48,1.48,0,0,0-2815.509,168.886Zm-365.976,3.095c7.567-.687,15.478-1.032,23.389-1.375V126.234h-23.389Zm296.839-39.555a142.311,142.311,0,0,1-24.077,19.605c-16.166,10.318-34.052,16.854-56.753,18.229a76.43,76.43,0,0,0,12.382.345c26.486-1.376,43.34-8.944,60.882-19.95a123.775,123.775,0,0,0,13.759-10.663h-.688V126.234A71.868,71.868,0,0,1-2884.646,132.426Zm-266.915,37.834c37.835-1.719,78.767-2.408,121.075-1.719,6.229.169,12.376.337,18.481.546l-.115-2.456c-25.581-5.979-52.613-18.629-83.375-40.053-22.014-15.134-40.931-29.925-56.066-41.62Zm140.233-1.15c6.138.213,12.236.468,18.334.807a160.955,160.955,0,0,1-18.445-3.129Zm-.213-4.471a162.773,162.773,0,0,0,25.426,3.9,2.575,2.575,0,0,0,1.72-.344,194.732,194.732,0,0,1-27.419-9.964l.245,5.149,2.064.687v.345l-2.064-.345Zm-140.02-82.09c15.134,12.039,34.74,26.83,57.1,42.308,30.3,21.131,57.015,33.595,82.243,39.62l-.036-.752-3.1-.344v-.344h3.1l-.27-5.12a418.018,418.018,0,0,1-43.069-22.741,517.339,517.339,0,0,1-72.92-52.97c-10.318-8.943-18.229-16.166-23.045-20.982Zm-44.027,3.1a356.266,356.266,0,0,1-19.605,39.075v1.512a15.45,15.45,0,0,1,2.751.688c.688.343,1.033.687.688,1.375s-1.032,1.033-1.376,1.72l-1.376,1.376a1.2,1.2,0,0,1,.344.687c0,.688-.344.688-.344.688v27.339a205.592,205.592,0,0,0,26.485-36.626h.343V65.7C-3189.4,70.513-3192.147,77.392-3195.587,85.647Zm393.837,72.575,5.159.344V142.745l-5.159-.344Zm-13.07-.343,6.879.343V142.4l-6.879-.343Zm-11.351-.344,5.159.344V142.057l-5.159-.345Zm-42.651-24.421a14.952,14.952,0,0,1-2.063,2.408c2.063,5.159,4.471,11.351,6.878,16.51h2.063V128.3h-2.406C-2865.728,129.673-2867.1,131.394-2868.823,133.114Zm-6.536,6.535v12.383h9.288c-2.407-4.471-4.472-10.319-6.535-15.134A20.75,20.75,0,0,1-2875.359,139.649Zm-358.158,11.383a12.738,12.738,0,0,1,2.5.312v-3.381Q-3232.266,149.531-3233.516,151.032Zm-32.583-5.191v5.5a22.688,22.688,0,0,0,4.815-.344v-5.159c0-1.376-1.376-2.063-2.407-2.408C-3263.692,143.432-3266.1,143.777-3266.1,145.841Zm30.269,0V151h.335q2.28-2.741,4.448-5.558c-.182-1.113-1.14-1.7-2.376-2.01C-3233.423,143.432-3235.83,143.777-3235.83,145.841Zm-15.135-.345V151h4.815v-5.5a2.336,2.336,0,0,0-2.407-2.408S-3250.965,143.432-3250.965,145.5Zm375.606-8.6a14.955,14.955,0,0,0,2.408-2.063c-1.031-2.064-1.719-4.128-2.408-5.848Zm3.44-3.1c1.72-1.72,3.44-3.783,5.16-5.5h-7.223C-2873.294,130.018-2872.606,131.738-2871.918,133.8ZM-3229.3,118.667v6.192a16.728,16.728,0,0,1,4.128.344v-6.536a1.926,1.926,0,0,0-2.063-1.72A1.936,1.936,0,0,0-3229.3,118.667Zm-42.995-.343V125.2c1.376,0,2.752-.344,4.127-.344v-6.535a1.926,1.926,0,0,0-2.063-1.72A1.935,1.935,0,0,0-3272.291,118.323Zm32.676-.344v6.535h4.128v-6.535a1.926,1.926,0,0,0-2.063-1.72A1.936,1.936,0,0,0-3239.615,117.979Zm-21.669,0v6.535h4.127v-6.535a1.926,1.926,0,0,0-2.064-1.72A1.935,1.935,0,0,0-3261.284,117.979Zm11.351-.687v6.878h4.127v-6.878a1.926,1.926,0,0,0-2.064-1.72A1.935,1.935,0,0,0-3249.933,117.292Zm860.6,2.408,3.438.687V109.036l-3.438-.687Zm-6.536-1.376,3.44.688V107.661l-3.44-.688Zm-419.635-4.128v4.471h3.095v-4.128a2.059,2.059,0,0,0-1.719-1.72A1.481,1.481,0,0,0-2815.509,114.2Zm413.1,2.407,3.44.688V105.941l-3.44-.688ZM-3169.1,88.743c-3.44,7.911-7.568,16.853-12.383,26.14v1.376h23.389V79.8c-2.063-1.72-3.783-3.1-5.5-4.472C-3164.974,79.112-3167.039,83.583-3169.1,88.743Zm760.157,26.484,3.44.688V104.565l-3.44-.687Zm-6.535-1.719,3.44.687V103.189l-3.44-1.032Zm-6.535-1.377,3.439.687v-11.35l-3.439-.687Zm-759.469-.687c3.783-7.567,7.222-15.479,10.663-23.39,2.063-5.5,4.127-9.975,5.5-14.1-4.472-3.783-8.6-6.879-11.694-9.631h-4.472Zm752.934-1.033,3.439.688V99.749l-3.439-.687ZM-3229.3,92.181v6.193a16.775,16.775,0,0,1,4.128.343V92.181a1.926,1.926,0,0,0-2.063-1.719A1.935,1.935,0,0,0-3229.3,92.181Zm-42.995-.343v6.879c1.376,0,2.752-.343,4.127-.343V91.838a1.926,1.926,0,0,0-2.063-1.72A1.936,1.936,0,0,0-3272.291,91.838Zm32.676-.344V98.03h4.128V91.494a1.926,1.926,0,0,0-2.063-1.72A1.936,1.936,0,0,0-3239.615,91.494Zm-10.318-.343V98.03h4.127V91.151a1.926,1.926,0,0,0-2.064-1.72A1.935,1.935,0,0,0-3249.933,91.151Zm-11.351.343V98.03h4.127V91.494a1.926,1.926,0,0,0-2.064-1.72A1.935,1.935,0,0,0-3261.284,91.494Zm98.373-17.885a46.075,46.075,0,0,1,4.816,3.783V64.321h-1.376C-3160.158,66.385-3161.191,69.481-3162.911,73.609Zm-1.376-1.377c1.032-3.439,2.064-6.191,2.753-7.911h-12.384C-3171.166,66.385-3168.07,69.136-3164.287,72.232Zm686.551,137.585h.688v.343Zm-1166.035-90.462a1.206,1.206,0,0,1,.344-.688v.688a.337.337,0,0,0,.344.344A1.066,1.066,0,0,1-3643.771,119.355Zm1180.48-5.847a.337.337,0,0,0,.344-.345v.345Zm0,0Zm-.343-.345v-.344c0,.689.343.689.343.689C-2463.634,113.508-2463.634,113.508-2463.634,113.163Zm.687-.344v0Zm-121.074-12.382a.336.336,0,0,0,.343-.344v.344Zm-.344-.344a1.489,1.489,0,0,0,.022.269A.8.8,0,0,1-2584.365,100.093Zm.687-.344v0Zm-.687.344Zm0,0v0Zm88.743-5.159v.343a.337.337,0,0,1-.344.344S-2495.622,95.621-2495.622,94.934Zm-.344.687Zm-.344-.344v-.343c0,.687.344.687.344.687C-2496.31,95.621-2496.31,95.621-2496.31,95.277Zm.688-.687v0Zm-50.22-7.567h0Zm-86.334-5.848v.344a.336.336,0,0,1-.343.343S-2632.176,81.863-2632.176,81.175Zm-.343.687Zm-.345-.343v-.344c0,.687.345.687.345.687C-2632.864,81.863-2632.864,81.863-2632.864,81.52Zm.688-.688v0Z" transform="translate(3964)" fill="#201a4e"/>
</svg>
