<svg xmlns="http://www.w3.org/2000/svg" xmlns:xlink="http://www.w3.org/1999/xlink" width="181" height="180.95" viewBox="0 0 181 180.95">
  <defs>
    <clipPath id="clip-path">
      <path id="Path_424" data-name="Path 424" d="M8377.567,2528.948v-.224L8373.9,2491.8a1.035,1.035,0,0,0-.037-.337,11.08,11.08,0,0,0-.075-3.845,10.613,10.613,0,0,0-1.759-4.145l-14.569-20.753a10.918,10.918,0,0,0-11.843-4.294,11.1,11.1,0,0,0-4.175-21.4,10.921,10.921,0,0,0-7.823,3.248,10.788,10.788,0,1,1,8.438,19.85,1.63,1.63,0,0,0-.689.237,6.085,6.085,0,0,0-.786.6,3.467,3.467,0,0,0-.6.672l-.075.108-6.7,11.574-9.093-.56,0,.005a5.2,5.2,0,0,0-3.369,1.008,4.894,4.894,0,0,0,2.335,8.732l.022,0,.15.037c2.471.337,5.015.747,7.486.9a13.639,13.639,0,0,0,4.268-.3,11.406,11.406,0,0,0,2.957-1.419c1.378-.892,2.719-1.931,4.059-2.933l.544.773-1.048,4.181-19.314,7.692a2.287,2.287,0,0,0-.449.186,5.844,5.844,0,0,0-3.031,3.1,5.949,5.949,0,0,0-.148,4.329,2.533,2.533,0,0,0,.187.485,5.843,5.843,0,0,0,3.106,3.024,6,6,0,0,0,4.343.15,2.107,2.107,0,0,0,.449-.15l21.935-8.737c.034,0,.071-.037.109-.037a6.08,6.08,0,0,0,2.245-1.494,2.1,2.1,0,0,0,.263-.3l.715,1.015-13.587,9.927a6.237,6.237,0,0,0-2.246,2.165,5.99,5.99,0,0,0-.936,3.247v20.05a6.228,6.228,0,0,0,1.834,4.405l0-.007a6.33,6.33,0,0,0,10.744-4.437V2511.7l13.177-9.857a6.262,6.262,0,0,0,1.319-1.062l2.948,29.775a1.875,1.875,0,0,0,.074.448,6.377,6.377,0,0,0,2.434,3.771,6.278,6.278,0,0,0,8.723-1.344A6.054,6.054,0,0,0,8377.567,2528.948Z" fill="none" clip-rule="evenodd"/>
    </clipPath>
    <linearGradient id="linear-gradient" y1="0.5" x2="1" y2="0.5" gradientUnits="objectBoundingBox">
      <stop offset="0" stop-color="#b5311b"/>
      <stop offset="1" stop-color="#b5311b" stop-opacity="0"/>
    </linearGradient>
  </defs>
  <g id="gures" transform="translate(-2524.152 300.674)">
    <g id="Group_3388" data-name="Group 3388" transform="translate(-5701.464 -2702.821)">
      <g id="Group_3095" data-name="Group 3095">
        <path id="Path_10858" data-name="Path 10858" d="M8320.519,2542.405a.388.388,0,0,1,.43-.339l.015,0a22.71,22.71,0,0,0,5.729-.12c3.285-.364,6.521.562,6.407,4.75a.382.382,0,0,1-.394.372.321.321,0,0,1-.055-.006c-.665-.119-2.318-.189-6.277.447C8321.793,2548.245,8320.15,2545.561,8320.519,2542.405Z" fill="#142266"/>
        <path id="Path_10859" data-name="Path 10859" d="M8316.938,2541.885a.386.386,0,0,0,.489.241l.011,0a22.689,22.689,0,0,1,5.632-1.056c3.291-.317,6.269-1.884,5.3-5.962a.384.384,0,0,0-.464-.282.4.4,0,0,0-.051.016c-.627.254-2.23.66-6.236.849C8316.993,2535.905,8315.934,2538.871,8316.938,2541.885Z" fill="#142266"/>
      </g>
      <g id="Group_3096" data-name="Group 3096">
        <path id="Path_10860" data-name="Path 10860" d="M8334.468,2540.045a.387.387,0,0,1,.35-.42h.016a22.787,22.787,0,0,0,5.579-1.308c3.138-1.039,6.5-.807,7.256,3.314a.384.384,0,0,1-.309.446.463.463,0,0,1-.055.006c-.675.021-2.307.3-6.048,1.741C8336.931,2545.487,8334.767,2543.207,8334.468,2540.045Z" fill="#142266"/>
        <path id="Path_10861" data-name="Path 10861" d="M8330.861,2540.278a.386.386,0,0,0,.528.137l.014-.008a22.76,22.76,0,0,1,5.289-2.2c3.152-.993,5.739-3.146,3.944-6.933a.382.382,0,0,0-.512-.181.449.449,0,0,0-.047.027c-.561.378-2.044,1.109-5.923,2.127C8329.671,2534.42,8329.252,2537.539,8330.861,2540.278Z" fill="#142266"/>
      </g>
      <g id="Group_3097" data-name="Group 3097">
        <path id="Path_10862" data-name="Path 10862" d="M8347.625,2534.835a.386.386,0,0,1,.254-.484l.015,0a22.768,22.768,0,0,0,5.186-2.439c2.854-1.669,6.186-2.14,7.786,1.733a.384.384,0,0,1-.21.5.458.458,0,0,1-.052.017c-.655.161-2.193.77-5.553,2.96C8351.172,2539.65,8348.572,2537.865,8347.625,2534.835Z" fill="#142266"/>
        <path id="Path_10863" data-name="Path 10863" d="M8344.144,2535.815a.388.388,0,0,0,.547.023l.011-.011a22.694,22.694,0,0,1,4.716-3.255c2.877-1.627,4.96-4.271,2.417-7.6a.383.383,0,0,0-.537-.071.517.517,0,0,0-.041.036c-.469.486-1.769,1.51-5.351,3.312C8341.763,2530.332,8342,2533.469,8344.144,2535.815Z" fill="#142266"/>
      </g>
      <g id="Group_3098" data-name="Group 3098">
        <path id="Path_10864" data-name="Path 10864" d="M8359.413,2527a.386.386,0,0,1,.147-.526l.015-.007a22.751,22.751,0,0,0,4.563-3.464c2.444-2.226,5.605-3.379,7.977.076a.381.381,0,0,1-.1.532.324.324,0,0,1-.048.028c-.607.294-1.985,1.21-4.815,4.05C8363.878,2530.977,8360.972,2529.771,8359.413,2527Z" fill="#142266"/>
        <path id="Path_10865" data-name="Path 10865" d="M8356.212,2528.685a.387.387,0,0,0,.539-.088l.008-.012a22.727,22.727,0,0,1,3.937-4.164c2.476-2.19,3.964-5.209.783-7.938a.381.381,0,0,0-.539.042.3.3,0,0,0-.033.045c-.358.573-1.417,1.844-4.546,4.352C8352.742,2523.817,8353.628,2526.837,8356.212,2528.685Z" fill="#142266"/>
      </g>
      <g id="Group_3099" data-name="Group 3099">
        <path id="Path_10866" data-name="Path 10866" d="M8369.312,2516.893a.387.387,0,0,1,.035-.545l.013-.01A22.746,22.746,0,0,0,8373.1,2512c1.929-2.685,4.781-4.47,7.818-1.584a.382.382,0,0,1,.012.543.3.3,0,0,1-.04.036c-.532.414-1.691,1.6-3.868,4.963C8374.506,2519.85,8371.412,2519.276,8369.312,2516.893Z" fill="#142266"/>
        <path id="Path_10867" data-name="Path 10867" d="M8366.531,2519.2a.385.385,0,0,0,.508-.2l.006-.014a22.785,22.785,0,0,1,2.984-4.891c1.967-2.657,2.795-5.919-.883-7.928a.383.383,0,0,0-.521.153c-.008.015-.016.031-.022.047-.23.635-1,2.1-3.542,5.2C8362.125,2515.162,8363.615,2517.932,8366.531,2519.2Z" fill="#142266"/>
      </g>
      <g id="Group_3100" data-name="Group 3100">
        <path id="Path_10868" data-name="Path 10868" d="M8376.894,2504.949a.387.387,0,0,1-.078-.541l.01-.012a22.743,22.743,0,0,0,2.761-5.021c1.327-3.028,3.746-5.367,7.318-3.175a.383.383,0,0,1,.126.526c-.011.016-.021.031-.033.046-.437.516-1.323,1.912-2.753,5.659C8382.59,2506.758,8379.444,2506.84,8376.894,2504.949Z" fill="#142266"/>
        <path id="Path_10869" data-name="Path 10869" d="M8374.655,2507.783a.388.388,0,0,0,.456-.3l0-.016a22.784,22.784,0,0,1,1.9-5.405c1.371-3.008,1.5-6.37-2.513-7.569a.381.381,0,0,0-.476.258.311.311,0,0,0-.013.054c-.094.668-.543,2.261-2.382,5.824C8369.5,2504.748,8371.543,2507.146,8374.655,2507.783Z" fill="#142266"/>
      </g>
      <g id="Group_3101" data-name="Group 3101">
        <path id="Path_10870" data-name="Path 10870" d="M8381.826,2491.681a.385.385,0,0,1-.189-.511l.007-.015a22.694,22.694,0,0,0,1.656-5.486c.669-3.237,2.548-6.029,6.5-4.626a.383.383,0,0,1,.231.49.376.376,0,0,1-.022.05c-.318.6-.9,2.146-1.516,6.108C8387.775,2492.272,8384.714,2493,8381.826,2491.681Z" fill="#142266"/>
        <path id="Path_10871" data-name="Path 10871" d="M8380.225,2494.923a.387.387,0,0,0,.384-.39v-.016a22.809,22.809,0,0,1,.736-5.682c.716-3.228.146-6.544-4.032-6.884a.384.384,0,0,0-.41.355.463.463,0,0,0,0,.052c.047.674-.062,2.325-1.119,6.193C8374.557,2493.023,8377.049,2494.947,8380.225,2494.923Z" fill="#142266"/>
      </g>
      <g id="Group_3102" data-name="Group 3102">
        <path id="Path_10872" data-name="Path 10872" d="M8383.893,2477.682a.387.387,0,0,1-.292-.462l0-.015a22.7,22.7,0,0,0,.479-5.71c-.019-3.306,1.239-6.427,5.394-5.877a.382.382,0,0,1,.329.43.349.349,0,0,1-.012.055c-.187.649-.43,2.286-.213,6.29C8389.834,2477.022,8386.993,2478.375,8383.893,2477.682Z" fill="#142266"/>
        <path id="Path_10873" data-name="Path 10873" d="M8383,2481.185a.387.387,0,0,0,.293-.461l0-.015a22.748,22.748,0,0,1-.461-5.711c.029-3.306-1.219-6.431-5.375-5.894a.382.382,0,0,0-.329.431.493.493,0,0,0,.01.053c.187.649.423,2.287.193,6.29C8377.062,2480.507,8379.9,2481.869,8383,2481.185Z" fill="#142266"/>
      </g>
      <g id="Group_3103" data-name="Group 3103">
        <path id="Path_10874" data-name="Path 10874" d="M8383,2463.56a.386.386,0,0,1-.38-.392v-.015a22.78,22.78,0,0,0-.718-5.685c-.706-3.229-.124-6.544,4.054-6.87a.383.383,0,0,1,.411.355.484.484,0,0,1,0,.053c-.049.674.054,2.325,1.1,6.2C8388.679,2461.679,8386.181,2463.594,8383,2463.56Z" fill="#142266"/>
        <path id="Path_10875" data-name="Path 10875" d="M8382.86,2467.172a.387.387,0,0,0,.19-.512l-.007-.014a22.754,22.754,0,0,1-1.639-5.49c-.658-3.24-2.529-6.037-6.483-4.648a.381.381,0,0,0-.232.488.507.507,0,0,0,.021.052c.317.6.889,2.149,1.5,6.113C8376.914,2467.747,8379.968,2468.486,8382.86,2467.172Z" fill="#142266"/>
      </g>
      <g id="Group_3104" data-name="Group 3104">
        <path id="Path_10876" data-name="Path 10876" d="M8379.2,2449.931a.387.387,0,0,1-.454-.3l0-.016a22.749,22.749,0,0,0-1.884-5.411c-1.362-3.012-1.482-6.375,2.536-7.562a.384.384,0,0,1,.477.259.347.347,0,0,1,.011.055c.092.669.536,2.263,2.364,5.833C8384.362,2446.912,8382.312,2449.3,8379.2,2449.931Z" fill="#142266"/>
        <path id="Path_10877" data-name="Path 10877" d="M8379.808,2453.494a.386.386,0,0,0,.082-.54l-.011-.013a22.821,22.821,0,0,1-2.744-5.03c-1.317-3.032-3.729-5.379-7.307-3.2a.384.384,0,0,0-.125.528.45.45,0,0,0,.031.044c.434.517,1.316,1.917,2.733,5.668C8374.106,2455.29,8377.252,2455.38,8379.808,2453.494Z" fill="#142266"/>
      </g>
      <g id="Group_3105" data-name="Group 3105">
        <path id="Path_10878" data-name="Path 10878" d="M8372.642,2437.39a.386.386,0,0,1-.507-.2l-.006-.014a22.718,22.718,0,0,0-2.968-4.9c-1.958-2.663-2.775-5.928.91-7.925a.384.384,0,0,1,.52.156.338.338,0,0,1,.022.05c.229.635,1,2.1,3.523,5.214C8377.06,2433.364,8375.557,2436.129,8372.642,2437.39Z" fill="#142266"/>
        <path id="Path_10879" data-name="Path 10879" d="M8373.979,2440.749a.385.385,0,0,0-.033-.545l-.013-.01a22.779,22.779,0,0,1-3.729-4.35c-1.919-2.692-4.767-4.487-7.813-1.609a.385.385,0,0,0-.013.542.469.469,0,0,0,.039.037c.532.416,1.687,1.6,3.853,4.976C8368.775,2443.691,8371.871,2443.126,8373.979,2440.749Z" fill="#142266"/>
      </g>
      <g id="Group_3106" data-name="Group 3106">
        <path id="Path_10880" data-name="Path 10880" d="M8363.621,2426.486a.387.387,0,0,1-.538-.093l-.009-.013a22.759,22.759,0,0,0-3.922-4.177c-2.47-2.2-3.947-5.222-.759-7.94a.384.384,0,0,1,.541.045.25.25,0,0,1,.032.043c.356.574,1.411,1.849,4.531,4.367C8367.106,2421.63,8366.211,2424.646,8363.621,2426.486Z" fill="#142266"/>
        <path id="Path_10881" data-name="Path 10881" d="M8365.628,2429.5a.386.386,0,0,0-.146-.526l-.015-.007a22.792,22.792,0,0,1-4.553-3.479c-2.437-2.234-5.594-3.4-7.976.05a.383.383,0,0,0,.1.532c.016.011.032.02.048.029.608.3,1.983,1.216,4.8,4.066C8361.15,2433.453,8364.06,2432.256,8365.628,2429.5Z" fill="#142266"/>
      </g>
      <g id="Group_3107" data-name="Group 3107">
        <path id="Path_10882" data-name="Path 10882" d="M8352.532,2417.7a.386.386,0,0,1-.545.022l-.013-.011a22.745,22.745,0,0,0-4.7-3.271c-2.872-1.637-4.946-4.287-2.393-7.609a.384.384,0,0,1,.538-.069.285.285,0,0,1,.04.037c.468.487,1.764,1.516,5.34,3.329C8354.931,2412.223,8354.682,2415.359,8352.532,2417.7Z" fill="#142266"/>
        <path id="Path_10883" data-name="Path 10883" d="M8355.12,2420.222a.386.386,0,0,0-.251-.485l-.018,0a22.843,22.843,0,0,1-5.177-2.456c-2.848-1.678-6.178-2.16-7.792,1.708a.382.382,0,0,0,.208.5.541.541,0,0,0,.052.018c.655.163,2.192.777,5.544,2.978C8351.562,2425.026,8354.161,2423.25,8355.12,2420.222Z" fill="#142266"/>
      </g>
      <g id="Group_3108" data-name="Group 3108">
        <path id="Path_10884" data-name="Path 10884" d="M8339.855,2411.405a.387.387,0,0,1-.529.134l-.015-.008a22.644,22.644,0,0,0-5.281-2.221c-3.15-1-5.729-3.165-3.922-6.946a.384.384,0,0,1,.513-.179.353.353,0,0,1,.046.027c.559.379,2.041,1.116,5.916,2.146C8341.064,2405.551,8341.473,2408.671,8339.855,2411.405Z" fill="#142266"/>
        <path id="Path_10885" data-name="Path 10885" d="M8342.908,2413.337a.385.385,0,0,0-.348-.421h-.016a22.8,22.8,0,0,1-5.574-1.326c-3.135-1.05-6.493-.829-7.266,3.29a.385.385,0,0,0,.309.447.425.425,0,0,0,.054.006c.675.024,2.306.3,6.042,1.76C8340.431,2418.776,8342.608,2416.5,8342.908,2413.337Z" fill="#142266"/>
      </g>
      <g id="Group_3109" data-name="Group 3109">
        <path id="Path_10886" data-name="Path 10886" d="M8312.011,2542.405a.385.385,0,0,0-.428-.339l-.016,0a22.71,22.71,0,0,1-5.729-.12c-3.286-.364-6.521.562-6.408,4.75a.385.385,0,0,0,.4.372.309.309,0,0,0,.054-.006c.665-.119,2.318-.189,6.277.447C8310.734,2548.245,8312.377,2545.561,8312.011,2542.405Z" fill="#142266"/>
        <path id="Path_10887" data-name="Path 10887" d="M8315.588,2541.885a.386.386,0,0,1-.489.241l-.011,0a22.681,22.681,0,0,0-5.632-1.056c-3.291-.317-6.27-1.884-5.3-5.962a.384.384,0,0,1,.464-.282.353.353,0,0,1,.051.016c.626.254,2.23.66,6.236.849C8315.537,2535.905,8316.592,2538.871,8315.588,2541.885Z" fill="#142266"/>
      </g>
      <g id="Group_3110" data-name="Group 3110">
        <path id="Path_10888" data-name="Path 10888" d="M8298.058,2540.045a.384.384,0,0,0-.349-.42h-.016a22.8,22.8,0,0,1-5.579-1.308c-3.139-1.039-6.5-.807-7.256,3.314a.385.385,0,0,0,.31.446.431.431,0,0,0,.053.006c.676.021,2.307.3,6.047,1.741C8295.595,2545.487,8297.76,2543.207,8298.058,2540.045Z" fill="#142266"/>
        <path id="Path_10889" data-name="Path 10889" d="M8301.666,2540.278a.386.386,0,0,1-.528.137l-.014-.008a22.742,22.742,0,0,0-5.289-2.2c-3.153-.993-5.74-3.146-3.945-6.933a.385.385,0,0,1,.514-.181c.016.008.03.017.046.027.56.378,2.044,1.109,5.923,2.127C8302.855,2534.42,8303.274,2537.539,8301.666,2540.278Z" fill="#142266"/>
      </g>
      <g id="Group_3111" data-name="Group 3111">
        <path id="Path_10890" data-name="Path 10890" d="M8284.9,2534.835a.387.387,0,0,0-.253-.484l-.017,0a22.8,22.8,0,0,1-5.185-2.439c-2.854-1.669-6.187-2.14-7.786,1.733a.384.384,0,0,0,.211.5.426.426,0,0,0,.05.017c.656.161,2.194.77,5.553,2.96C8281.358,2539.65,8283.952,2537.865,8284.9,2534.835Z" fill="#142266"/>
        <path id="Path_10891" data-name="Path 10891" d="M8288.381,2535.815a.386.386,0,0,1-.545.023l-.012-.011a22.694,22.694,0,0,0-4.716-3.255c-2.877-1.627-4.96-4.271-2.417-7.6a.382.382,0,0,1,.536-.071.258.258,0,0,1,.041.036c.47.486,1.77,1.51,5.352,3.312C8290.766,2530.332,8290.524,2533.469,8288.381,2535.815Z" fill="#142266"/>
      </g>
      <g id="Group_3112" data-name="Group 3112">
        <path id="Path_10892" data-name="Path 10892" d="M8273.116,2527a.386.386,0,0,0-.148-.526l-.014-.007a22.813,22.813,0,0,1-4.564-3.464c-2.443-2.226-5.6-3.379-7.976.076a.383.383,0,0,0,.1.532c.016.01.031.02.047.028.608.294,1.986,1.21,4.817,4.05C8268.65,2530.977,8271.56,2529.771,8273.116,2527Z" fill="#142266"/>
        <path id="Path_10893" data-name="Path 10893" d="M8276.316,2528.685a.385.385,0,0,1-.538-.088l-.01-.012a22.655,22.655,0,0,0-3.936-4.164c-2.476-2.19-3.964-5.209-.784-7.938a.383.383,0,0,1,.573.087c.358.573,1.417,1.844,4.546,4.352C8279.785,2523.817,8278.9,2526.837,8276.316,2528.685Z" fill="#142266"/>
      </g>
      <g id="Group_3113" data-name="Group 3113">
        <path id="Path_10894" data-name="Path 10894" d="M8263.212,2516.893a.386.386,0,0,0-.035-.545l-.013-.01a22.855,22.855,0,0,1-3.744-4.338c-1.928-2.685-4.781-4.47-7.818-1.584a.385.385,0,0,0-.011.543.366.366,0,0,0,.039.036c.534.414,1.692,1.6,3.869,4.963C8258.02,2519.85,8261.112,2519.276,8263.212,2516.893Z" fill="#142266"/>
        <path id="Path_10895" data-name="Path 10895" d="M8266,2519.2a.386.386,0,0,1-.508-.2l-.006-.014a22.707,22.707,0,0,0-2.984-4.891c-1.967-2.657-2.794-5.919.884-7.928a.384.384,0,0,1,.521.153.4.4,0,0,1,.021.047c.231.635,1,2.1,3.541,5.2C8270.4,2515.162,8268.907,2517.932,8266,2519.2Z" fill="#142266"/>
      </g>
      <g id="Group_3114" data-name="Group 3114">
        <path id="Path_10896" data-name="Path 10896" d="M8255.632,2504.949a.387.387,0,0,0,.079-.541l-.01-.012a22.743,22.743,0,0,1-2.761-5.021c-1.328-3.028-3.746-5.367-7.318-3.175a.382.382,0,0,0-.125.526.355.355,0,0,0,.032.046c.436.516,1.322,1.912,2.753,5.659C8249.932,2506.758,8253.083,2506.84,8255.632,2504.949Z" fill="#142266"/>
        <path id="Path_10897" data-name="Path 10897" d="M8257.872,2507.783a.387.387,0,0,1-.455-.3l0-.016a22.7,22.7,0,0,0-1.9-5.405c-1.371-3.008-1.5-6.37,2.514-7.569a.381.381,0,0,1,.476.258.241.241,0,0,1,.012.054c.095.668.544,2.261,2.384,5.824C8263.022,2504.748,8260.988,2507.146,8257.872,2507.783Z" fill="#142266"/>
      </g>
      <g id="Group_3115" data-name="Group 3115">
        <path id="Path_10898" data-name="Path 10898" d="M8250.7,2491.681a.385.385,0,0,0,.189-.511l-.008-.015a22.826,22.826,0,0,1-1.656-5.486c-.669-3.237-2.548-6.029-6.5-4.626a.383.383,0,0,0-.231.489c.006.017.014.034.021.051.319.6.9,2.146,1.517,6.108C8244.752,2492.272,8247.815,2493,8250.7,2491.681Z" fill="#142266"/>
        <path id="Path_10899" data-name="Path 10899" d="M8252.3,2494.923a.386.386,0,0,1-.382-.39v-.016a22.718,22.718,0,0,0-.736-5.682c-.716-3.228-.146-6.544,4.031-6.884a.384.384,0,0,1,.412.352.258.258,0,0,1,0,.055c-.047.674.063,2.325,1.12,6.193C8257.97,2493.023,8255.478,2494.947,8252.3,2494.923Z" fill="#142266"/>
      </g>
      <g id="Group_3116" data-name="Group 3116">
        <path id="Path_10900" data-name="Path 10900" d="M8248.633,2477.682a.387.387,0,0,0,.292-.462l0-.015a22.792,22.792,0,0,1-.479-5.71c.019-3.306-1.239-6.427-5.395-5.877a.384.384,0,0,0-.328.43.265.265,0,0,0,.012.055c.188.649.43,2.286.213,6.29C8242.692,2477.022,8245.533,2478.375,8248.633,2477.682Z" fill="#142266"/>
        <path id="Path_10901" data-name="Path 10901" d="M8249.526,2481.185a.385.385,0,0,1-.292-.461l0-.015a22.794,22.794,0,0,0,.462-5.711c-.03-3.306,1.219-6.431,5.375-5.894a.384.384,0,0,1,.329.431.334.334,0,0,1-.011.053c-.187.649-.423,2.287-.192,6.29C8255.465,2480.507,8252.628,2481.869,8249.526,2481.185Z" fill="#142266"/>
      </g>
      <g id="Group_3117" data-name="Group 3117">
        <path id="Path_10902" data-name="Path 10902" d="M8249.52,2463.56a.387.387,0,0,0,.382-.392v-.015a22.78,22.78,0,0,1,.718-5.685c.707-3.229.124-6.544-4.054-6.87a.382.382,0,0,0-.41.353.345.345,0,0,0,0,.055c.049.674-.056,2.325-1.1,6.2C8243.849,2461.679,8246.347,2463.594,8249.52,2463.56Z" fill="#142266"/>
        <path id="Path_10903" data-name="Path 10903" d="M8249.668,2467.172a.387.387,0,0,1-.191-.512l.008-.014a22.754,22.754,0,0,0,1.639-5.49c.66-3.24,2.53-6.037,6.483-4.648a.382.382,0,0,1,.233.488.507.507,0,0,1-.021.052c-.317.6-.89,2.149-1.5,6.113C8255.618,2467.747,8252.56,2468.486,8249.668,2467.172Z" fill="#142266"/>
      </g>
      <g id="Group_3118" data-name="Group 3118">
        <path id="Path_10904" data-name="Path 10904" d="M8253.328,2449.931a.388.388,0,0,0,.455-.3l0-.016a22.792,22.792,0,0,1,1.884-5.411c1.362-3.012,1.482-6.375-2.537-7.562a.382.382,0,0,0-.475.259c0,.018-.009.036-.013.055-.092.669-.535,2.263-2.363,5.833C8248.169,2446.912,8250.214,2449.3,8253.328,2449.931Z" fill="#142266"/>
        <path id="Path_10905" data-name="Path 10905" d="M8252.718,2453.494a.386.386,0,0,1-.081-.54l.011-.013a22.777,22.777,0,0,0,2.743-5.03c1.318-3.032,3.729-5.379,7.308-3.2a.383.383,0,0,1,.127.526.5.5,0,0,1-.033.046c-.434.517-1.316,1.917-2.734,5.668C8258.42,2455.29,8255.274,2455.38,8252.718,2453.494Z" fill="#142266"/>
      </g>
      <g id="Group_3119" data-name="Group 3119">
        <path id="Path_10906" data-name="Path 10906" d="M8259.885,2437.39a.386.386,0,0,0,.507-.2l.007-.014a22.679,22.679,0,0,1,2.968-4.9c1.958-2.663,2.774-5.928-.91-7.925a.38.38,0,0,0-.518.156.234.234,0,0,0-.023.05c-.229.635-1,2.1-3.525,5.214C8255.466,2433.364,8256.969,2436.129,8259.885,2437.39Z" fill="#142266"/>
        <path id="Path_10907" data-name="Path 10907" d="M8258.547,2440.749a.387.387,0,0,1,.034-.545l.012-.01a22.784,22.784,0,0,0,3.73-4.35c1.919-2.692,4.766-4.487,7.813-1.609a.383.383,0,0,1,.014.542c-.013.013-.026.025-.04.037-.532.416-1.687,1.6-3.854,4.976C8263.751,2443.691,8260.655,2443.126,8258.547,2440.749Z" fill="#142266"/>
      </g>
      <g id="Group_3120" data-name="Group 3120">
        <path id="Path_10908" data-name="Path 10908" d="M8268.906,2426.486a.387.387,0,0,0,.538-.093l.009-.013a22.792,22.792,0,0,1,3.922-4.177c2.469-2.2,3.947-5.222.758-7.94a.384.384,0,0,0-.541.045c-.011.014-.021.028-.031.043-.355.574-1.411,1.849-4.531,4.367C8265.421,2421.63,8266.316,2424.646,8268.906,2426.486Z" fill="#142266"/>
        <path id="Path_10909" data-name="Path 10909" d="M8266.9,2429.5a.386.386,0,0,1,.146-.526l.013-.007a22.807,22.807,0,0,0,4.554-3.479c2.437-2.234,5.594-3.4,7.976.05a.383.383,0,0,1-.1.533.363.363,0,0,1-.047.028c-.607.3-1.983,1.216-4.8,4.066C8271.378,2433.453,8268.467,2432.256,8266.9,2429.5Z" fill="#142266"/>
      </g>
      <g id="Group_3121" data-name="Group 3121">
        <path id="Path_10910" data-name="Path 10910" d="M8280,2417.7a.388.388,0,0,0,.546.022l.011-.011a22.752,22.752,0,0,1,4.7-3.271c2.872-1.637,4.946-4.287,2.392-7.609a.382.382,0,0,0-.538-.067.263.263,0,0,0-.039.035c-.469.487-1.765,1.516-5.341,3.329C8277.6,2412.223,8277.845,2415.359,8280,2417.7Z" fill="#142266"/>
        <path id="Path_10911" data-name="Path 10911" d="M8277.408,2420.222a.386.386,0,0,1,.252-.485l.016,0a22.764,22.764,0,0,0,5.177-2.456c2.849-1.678,6.18-2.16,7.792,1.708a.382.382,0,0,1-.206.5.494.494,0,0,1-.054.018c-.654.163-2.191.777-5.544,2.978C8280.965,2425.026,8278.367,2423.25,8277.408,2420.222Z" fill="#142266"/>
      </g>
      <g id="Group_3122" data-name="Group 3122">
        <path id="Path_10912" data-name="Path 10912" d="M8292.672,2411.405a.387.387,0,0,0,.529.134l.014-.008a22.687,22.687,0,0,1,5.282-2.221c3.15-1,5.729-3.165,3.922-6.946a.384.384,0,0,0-.513-.179.353.353,0,0,0-.046.027c-.56.379-2.041,1.116-5.916,2.146C8291.463,2405.551,8291.054,2408.671,8292.672,2411.405Z" fill="#142266"/>
        <path id="Path_10913" data-name="Path 10913" d="M8289.615,2413.337a.386.386,0,0,1,.348-.421h.016a22.783,22.783,0,0,0,5.574-1.326c3.136-1.05,6.493-.829,7.267,3.29a.382.382,0,0,1-.307.446.321.321,0,0,1-.056.007c-.675.024-2.3.3-6.042,1.76C8292.1,2418.776,8289.923,2416.5,8289.615,2413.337Z" fill="#142266"/>
      </g>
    </g>
    <g id="Group_3389" data-name="Group 3389" transform="translate(-5701.464 -2702.821)">
      <g id="Group_3124" data-name="Group 3124">
        <path id="Path_10914" data-name="Path 10914" d="M8316.118,2562.664,8240,2485.091l-2.5,10.058,78.621,80.121,78.62-80.121-2.5-10.058Z" fill="#e65416"/>
        <path id="Path_10915" data-name="Path 10915" d="M8392.238,2485.09l-2.833-11.4c-31.187-3.9-51.662-17.144-63.631-28.04a99.033,99.033,0,0,1-9.656-10.114,99.351,99.351,0,0,1-9.656,10.114c-11.97,10.9-32.444,24.144-63.632,28.04l-2.833,11.4,76.121,77.573Z" fill="#b5311b"/>
      </g>
      <path id="Path_10916" data-name="Path 10916" d="M8398.56,2463.321c-62.609-4.005-82.443-46.74-82.443-46.74s-19.835,42.735-82.444,46.74l-8.056,31.144,90.5,88.632,90.5-88.632Zm-161.065,31.828,5.334-21.457c31.188-3.9,51.662-17.144,63.632-28.04a99.164,99.164,0,0,0,9.656-10.114,99.27,99.27,0,0,0,9.656,10.114c11.97,10.9,32.443,24.144,63.632,28.04l5.334,21.457-78.621,80.121Z" fill="#142266"/>
    </g>
    <g id="Group_941" data-name="Group 941" transform="translate(-5701.464 -2702.821)">
      <g id="Group_76" data-name="Group 76">
        <g id="Group_898" data-name="Group 898">
          <path id="Path_7335" data-name="Path 7335" d="M8296.633,2504.306l-16.245-9.26a2.645,2.645,0,0,1,1.31-5.04h0a5.389,5.389,0,0,0,2.958-.635,5.794,5.794,0,0,0,2.133-1.9c0-.036.038-.036.038-.074a2.686,2.686,0,0,1,3.631-1.008h0l15.31,8.737.226.108h0a6.014,6.014,0,0,1,2.321,2.315,6.413,6.413,0,0,1,.823,2.875v21.805a6.252,6.252,0,0,1-12.5,0Z" fill="none" stroke="#142266" stroke-width="14"/>
        </g>
        <g id="Group_899" data-name="Group 899">
          <path id="Path_7336" data-name="Path 7336" d="M8301.687,2453.827l-2.732,14,4.229,3.139a1.13,1.13,0,0,1,.3.149c.037,0,.073.038.148.038a7.156,7.156,0,0,0,1.5.3,6.08,6.08,0,0,0,1.647-.224l11.865-2.651a4.819,4.819,0,0,0,3.07-2.165,4.918,4.918,0,0,0-5.2-7.43l-10.781,2.39Z" fill="none" stroke="#142266" stroke-width="14"/>
        </g>
        <g id="Group_900" data-name="Group 900">
          <path id="Path_7337" data-name="Path 7337" d="M8265.413,2504.792l5.652-22.327c.037-.187.108-.411.149-.6a7.668,7.668,0,0,0,.449,1.307,11.922,11.922,0,0,0,6.438,6.494,30.132,30.132,0,0,0,4.791.9c-1.082,5.077-5.726,18.482-7.186,21.169a3.273,3.273,0,0,1-.412.672h0L8261,2529.02a.678.678,0,0,1-.149.186h0a6.212,6.212,0,0,1-4.268,2.128,6.322,6.322,0,0,1-4.53-1.531,6.169,6.169,0,0,1-.786-8.55c.038-.075.108-.15.15-.224h0Z" fill="none" stroke="#142266" stroke-width="14"/>
        </g>
        <g id="Group_901" data-name="Group 901">
          <path id="Path_7338" data-name="Path 7338" d="M8299.29,2427.729a11.1,11.1,0,1,1-7.823,3.247A10.922,10.922,0,0,1,8299.29,2427.729Z" fill="none" stroke="#142266" stroke-width="14"/>
        </g>
        <g id="Group_902" data-name="Group 902">
          <path id="Path_7339" data-name="Path 7339" d="M8299.216,2466.595a1.518,1.518,0,0,0-.6-.3l-.149-.038a1.352,1.352,0,0,0-1.609.784c0,.038-.038.075-.038.149l-2.808,6.757a1.584,1.584,0,0,0,.149,1.158l.449.9a22.327,22.327,0,0,0,2.621,4.437l.336.261c.038,0,.038.037.074.037l7,5.6c.074.075.188.15.263.224a5.039,5.039,0,0,0,3.48.933,5.422,5.422,0,0,0,3.22-1.679.688.688,0,0,0,.187-.262,5.006,5.006,0,0,0,.936-3.473,5.394,5.394,0,0,0-1.684-3.211c-.075-.075-.187-.149-.262-.224l-6.062-4.853-.108-.187c-.823-1.269-1.685-2.5-2.62-3.7a38.135,38.135,0,0,0-2.733-3.247Z" fill="none" stroke="#142266" stroke-width="14"/>
        </g>
        <g id="Group_75" data-name="Group 75">
          <g id="Group_903" data-name="Group 903">
            <path id="Path_7340" data-name="Path 7340" d="M8336.986,2532.794a6.228,6.228,0,0,1-1.834-4.405v-20.05a5.99,5.99,0,0,1,.936-3.247,6.237,6.237,0,0,1,2.246-2.165l15.534-11.35c.075-.037.107-.108.187-.149a2.655,2.655,0,0,1,3.7.628l0,.006-2.171,1.531,2.171-1.531.638.933a6.374,6.374,0,0,0,1.422,1.419,4.811,4.811,0,0,0,1.722.784l.449.108a2.647,2.647,0,0,1,1.545,3.409l-.01.026h0a6.981,6.981,0,0,1-1.082,1.83,6.318,6.318,0,0,1-1.535,1.269l-13.177,9.857v16.653a6.329,6.329,0,0,1-10.743,4.437Z" fill="none" stroke="#142266" stroke-width="14"/>
          </g>
          <g id="Group_904" data-name="Group 904">
            <path id="Path_7341" data-name="Path 7341" d="M8358.921,2499.9a10.822,10.822,0,0,1-4.871-3.883l-2.844-4.033a2.153,2.153,0,0,1-.262.3,6.092,6.092,0,0,1-2.246,1.494c-.038,0-.075.037-.109.037h0l-21.935,8.737a2.107,2.107,0,0,1-.449.15,6,6,0,0,1-4.343-.15,5.84,5.84,0,0,1-3.106-3.024,2.533,2.533,0,0,1-.187-.485,5.949,5.949,0,0,1,.148-4.329,5.847,5.847,0,0,1,3.031-3.1,2.263,2.263,0,0,1,.449-.186l19.314-7.692,1.048-4.181-3.069-4.368a10.716,10.716,0,0,1-1.8-8.14,10.955,10.955,0,0,1,19.764-4.329l14.569,20.753a10.613,10.613,0,0,1,1.759,4.145,11.08,11.08,0,0,1,.075,3.845,1.063,1.063,0,0,1,.038.337h0l3.668,36.925v.075h0v.149h0a6.054,6.054,0,0,1-1.16,4.48,6.278,6.278,0,0,1-8.723,1.344,6.371,6.371,0,0,1-2.433-3.771,1.828,1.828,0,0,1-.075-.448h0l-2.957-29.873A12.514,12.514,0,0,1,8358.921,2499.9Z" fill="none" stroke="#142266" stroke-width="14"/>
          </g>
          <g id="Group_905" data-name="Group 905">
            <path id="Path_7342" data-name="Path 7342" d="M8341.44,2437.025a11.106,11.106,0,1,1-7.823,3.248A10.921,10.921,0,0,1,8341.44,2437.025Z" fill="none" stroke="#142266" stroke-width="14"/>
          </g>
          <g id="Group_906" data-name="Group 906">
            <path id="Path_7343" data-name="Path 7343" d="M8324.108,2472.757a5.2,5.2,0,0,0-3.369,1.008,4.894,4.894,0,0,0,2.335,8.732l.022,0,.15.037c2.471.337,5.015.747,7.486.9a13.639,13.639,0,0,0,4.268-.3,11.391,11.391,0,0,0,2.957-1.419c1.386-.9,2.733-1.942,4.081-2.95.336-.262,2.657-8.028,3-8.289l-1.61-2.128,2.134-1.605.637.859-1.46-2.091a6.187,6.187,0,0,1-.937-1.942,6.828,6.828,0,0,1-.3-2.128v-.152a1.364,1.364,0,0,0-1.31-1.19,1.644,1.644,0,0,0-.823.26,6.085,6.085,0,0,0-.786.6,3.467,3.467,0,0,0-.6.672l-.075.108-6.7,11.574-9.091-.56Z" fill="none" stroke="#142266" stroke-width="14"/>
          </g>
        </g>
        <g id="Group_907" data-name="Group 907">
          <path id="Path_7344" data-name="Path 7344" d="M8296.408,2449.085h0a10.648,10.648,0,0,1,5.727,13.889l-11.006,26.323a10.7,10.7,0,0,1-13.924,5.712h0a10.648,10.648,0,0,1-5.728-13.889l11.006-26.322A10.723,10.723,0,0,1,8296.408,2449.085Z" fill="none" stroke="#142266" stroke-width="14"/>
        </g>
      </g>
      <g id="Group_78" data-name="Group 78">
        <g id="Group_898-2" data-name="Group 898">
          <path id="Path_7335-2" data-name="Path 7335" d="M8296.633,2504.306l-16.245-9.26a2.645,2.645,0,0,1,1.31-5.04h0a5.389,5.389,0,0,0,2.958-.635,5.794,5.794,0,0,0,2.133-1.9c0-.036.038-.036.038-.074a2.686,2.686,0,0,1,3.631-1.008h0l15.31,8.737.226.108h0a6.014,6.014,0,0,1,2.321,2.315,6.413,6.413,0,0,1,.823,2.875v21.805a6.252,6.252,0,0,1-12.5,0Z" fill="#e65416"/>
        </g>
        <g id="Group_899-2" data-name="Group 899">
          <path id="Path_7336-2" data-name="Path 7336" d="M8301.687,2453.827l-2.732,14,4.229,3.139a1.13,1.13,0,0,1,.3.149c.037,0,.073.038.148.038a7.156,7.156,0,0,0,1.5.3,6.08,6.08,0,0,0,1.647-.224l11.865-2.651a4.819,4.819,0,0,0,3.07-2.165,4.918,4.918,0,0,0-5.2-7.43l-10.781,2.39Z" fill="#e65416" fill-rule="evenodd"/>
        </g>
        <g id="Group_900-2" data-name="Group 900">
          <path id="Path_7337-2" data-name="Path 7337" d="M8265.413,2504.792l5.652-22.327c.037-.187.108-.411.149-.6a7.668,7.668,0,0,0,.449,1.307,11.922,11.922,0,0,0,6.438,6.494,30.132,30.132,0,0,0,4.791.9c-1.082,5.077-5.726,18.482-7.186,21.169a3.273,3.273,0,0,1-.412.672h0L8261,2529.02a.678.678,0,0,1-.149.186h0a6.212,6.212,0,0,1-4.268,2.128,6.322,6.322,0,0,1-4.53-1.531,6.169,6.169,0,0,1-.786-8.55c.038-.075.108-.15.15-.224h0Z" fill="#e65416"/>
        </g>
        <g id="Group_901-2" data-name="Group 901">
          <path id="Path_7338-2" data-name="Path 7338" d="M8299.29,2427.729a11.1,11.1,0,1,1-7.823,3.247A10.922,10.922,0,0,1,8299.29,2427.729Z" fill="#e65416"/>
        </g>
        <g id="Group_902-2" data-name="Group 902">
          <path id="Path_7339-2" data-name="Path 7339" d="M8299.216,2466.595a1.518,1.518,0,0,0-.6-.3l-.149-.038a1.352,1.352,0,0,0-1.609.784c0,.038-.038.075-.038.149l-2.808,6.757a1.584,1.584,0,0,0,.149,1.158l.449.9a22.327,22.327,0,0,0,2.621,4.437l.336.261c.038,0,.038.037.074.037l7,5.6c.074.075.188.15.263.224a5.039,5.039,0,0,0,3.48.933,5.422,5.422,0,0,0,3.22-1.679.688.688,0,0,0,.187-.262,5.006,5.006,0,0,0,.936-3.473,5.394,5.394,0,0,0-1.684-3.211c-.075-.075-.187-.149-.262-.224l-6.062-4.853-.108-.187c-.823-1.269-1.685-2.5-2.62-3.7a38.135,38.135,0,0,0-2.733-3.247Z" fill="#e65416" fill-rule="evenodd"/>
        </g>
        <g id="Group_77" data-name="Group 77">
          <g id="Group_903-2" data-name="Group 903">
            <path id="Path_7340-2" data-name="Path 7340" d="M8336.986,2532.794a6.228,6.228,0,0,1-1.834-4.405v-20.05a5.99,5.99,0,0,1,.936-3.247,6.237,6.237,0,0,1,2.246-2.165l15.534-11.35c.075-.037.107-.108.187-.149a2.655,2.655,0,0,1,3.7.628l0,.006-2.171,1.531,2.171-1.531.638.933a6.374,6.374,0,0,0,1.422,1.419,4.811,4.811,0,0,0,1.722.784l.449.108a2.647,2.647,0,0,1,1.545,3.409l-.01.026h0a6.981,6.981,0,0,1-1.082,1.83,6.318,6.318,0,0,1-1.535,1.269l-13.177,9.857v16.653a6.329,6.329,0,0,1-10.743,4.437Z" fill="#e65416"/>
          </g>
          <g id="Group_904-2" data-name="Group 904">
            <path id="Path_7341-2" data-name="Path 7341" d="M8358.921,2499.9a10.822,10.822,0,0,1-4.871-3.883l-2.844-4.033a2.153,2.153,0,0,1-.262.3,6.092,6.092,0,0,1-2.246,1.494c-.038,0-.075.037-.109.037h0l-21.935,8.737a2.107,2.107,0,0,1-.449.15,6,6,0,0,1-4.343-.15,5.84,5.84,0,0,1-3.106-3.024,2.533,2.533,0,0,1-.187-.485,5.949,5.949,0,0,1,.148-4.329,5.847,5.847,0,0,1,3.031-3.1,2.263,2.263,0,0,1,.449-.186l19.314-7.692,1.048-4.181-3.069-4.368a10.716,10.716,0,0,1-1.8-8.14,10.955,10.955,0,0,1,19.764-4.329l14.569,20.753a10.613,10.613,0,0,1,1.759,4.145,11.08,11.08,0,0,1,.075,3.845,1.063,1.063,0,0,1,.038.337h0l3.668,36.925v.075h0v.149h0a6.054,6.054,0,0,1-1.16,4.48,6.278,6.278,0,0,1-8.723,1.344,6.371,6.371,0,0,1-2.433-3.771,1.828,1.828,0,0,1-.075-.448h0l-2.957-29.873A12.514,12.514,0,0,1,8358.921,2499.9Z" fill="#e65416"/>
          </g>
          <g id="Group_905-2" data-name="Group 905">
            <path id="Path_7342-2" data-name="Path 7342" d="M8341.44,2437.025a11.106,11.106,0,1,1-7.823,3.248A10.921,10.921,0,0,1,8341.44,2437.025Z" fill="#e65416"/>
          </g>
          <g id="Group_906-2" data-name="Group 906">
            <path id="Path_7343-2" data-name="Path 7343" d="M8324.108,2472.757a5.2,5.2,0,0,0-3.369,1.008,4.894,4.894,0,0,0,2.335,8.732l.022,0,.15.037c2.471.337,5.015.747,7.486.9a13.639,13.639,0,0,0,4.268-.3,11.391,11.391,0,0,0,2.957-1.419c1.386-.9,2.733-1.942,4.081-2.95.336-.262,2.657-8.028,3-8.289l-1.61-2.128,2.134-1.605.637.859-1.46-2.091a6.187,6.187,0,0,1-.937-1.942,6.828,6.828,0,0,1-.3-2.128v-.152a1.364,1.364,0,0,0-1.31-1.19,1.644,1.644,0,0,0-.823.26,6.085,6.085,0,0,0-.786.6,3.467,3.467,0,0,0-.6.672l-.075.108-6.7,11.574-9.091-.56Z" fill="#e65416" fill-rule="evenodd"/>
          </g>
        </g>
        <g id="Group_907-2" data-name="Group 907">
          <path id="Path_7344-2" data-name="Path 7344" d="M8296.408,2449.085h0a10.648,10.648,0,0,1,5.727,13.889l-11.006,26.323a10.7,10.7,0,0,1-13.924,5.712h0a10.648,10.648,0,0,1-5.728-13.889l11.006-26.322A10.723,10.723,0,0,1,8296.408,2449.085Z" fill="#e65416" fill-rule="evenodd"/>
        </g>
      </g>
    </g>
    <g id="Group_3391" data-name="Group 3391" transform="translate(-5701.464 -2702.821)">
      <ellipse id="Ellipse_224" data-name="Ellipse 224" cx="17.219" cy="9.559" rx="17.219" ry="9.559" transform="translate(8369.077 2549.093)" fill="#142266"/>
      <ellipse id="Ellipse_225" data-name="Ellipse 225" cx="17.219" cy="9.559" rx="17.219" ry="9.559" transform="translate(8228.662 2549.093)" fill="#142266"/>
      <ellipse id="Ellipse_226" data-name="Ellipse 226" cx="10.228" cy="5.678" rx="10.228" ry="5.678" transform="translate(8239 2553.88)" fill="#dc2648"/>
      <ellipse id="Ellipse_227" data-name="Ellipse 227" cx="10.228" cy="5.678" rx="10.228" ry="5.678" transform="translate(8372.724 2553.88)" fill="#dc2648"/>
      <path id="Path_10918" data-name="Path 10918" d="M8315.972,2526.474c-27.589,0-55.178,5.5-82.768,6.093a4.807,4.807,0,0,0-4.7,4.811v19.99a5.887,5.887,0,0,0,5.881,5.893l.155,0c27.142-.735,54.285-6.06,81.427-6.06s54.285,5.326,81.427,6.06a5.888,5.888,0,0,0,6.034-5.736c0-.052,0-.1,0-.155v-19.99a4.806,4.806,0,0,0-4.694-4.811C8371.15,2531.976,8343.561,2526.474,8315.972,2526.474Z" fill="#142266"/>
      <g id="Group_81" data-name="Group 81">
        <g id="Group_80" data-name="Group 80">
          <g id="Group_79" data-name="Group 79">
            <path id="Path_404" data-name="Path 404" d="M8296.734,2548.129q-1.219,1.391-2.408,2.793-2.344.192-4.687.428-1.437-1.163-2.9-2.308-.624-5.666-1.251-11.332,1.23-1.441,2.491-2.875,2.49-.25,4.981-.455,1.485,1.181,2.948,2.378.1,1.317.19,2.634-1.639.118-3.276.257c-.032-.4-.067-.794-.1-1.19-.34-.273-.682-.545-1.021-.817q-.946.084-1.891.173-.434.494-.858.988l.832,8.467c.334.27.668.539,1,.809.608-.057,1.214-.112,1.822-.166.278-.326.554-.651.835-.976l-.117-1.378q-1.109.093-2.221.2-.145-1.564-.29-3.13,2.745-.255,5.489-.453Q8296.515,2545.149,8296.734,2548.129Z" fill="#fff"/>
            <path id="Path_405" data-name="Path 405" d="M8308.846,2547.529q-1.28,1.333-2.531,2.68-2.35.086-4.7.214-1.373-1.227-2.767-2.439-.451-6.984-.9-13.97,1.67-.106,3.342-.195.328,6.268.657,12.535.483.427.96.854.913-.044,1.825-.083.437-.469.878-.937-.243-6.271-.485-12.543,1.671-.064,3.345-.11Q8308.658,2540.531,8308.846,2547.529Zm-7.031-18.038c.039.8.082,1.591.119,2.387q-1.282.063-2.558.138l-.141-2.385Q8300.524,2529.555,8301.814,2529.491Zm4.979-.2q.04,1.194.077,2.388c-.854.028-1.705.059-2.56.094q-.05-1.192-.1-2.387Q8305.5,2529.328,8306.794,2529.287Z" fill="#fff"/>
            <path id="Path_406" data-name="Path 406" d="M8318.7,2542.984q.976,3.54,1.9,7.089-1.636-.029-3.273-.037-.918-3.367-1.881-6.73-.667,0-1.334.006.023,3.363.046,6.727-1.575.01-3.148.04-.157-8.3-.312-16.6,3.883-.073,7.764-.038,1.381,1.313,2.739,2.637-.042,2.325-.088,4.651Q8319.9,2541.854,8318.7,2542.984Zm-.837-3.737q.006-.891.013-1.781-.48-.444-.964-.886-1.422,0-2.846,0,.012,1.791.024,3.584,1.4-.009,2.809,0Q8317.381,2539.7,8317.866,2539.247Z" fill="#fff"/>
            <path id="Path_407" data-name="Path 407" d="M8332.937,2550.579q-4.947-.318-9.9-.452.221-8.3.444-16.591,5.266.141,10.521.48c-.066,1.046-.136,2.091-.2,3.137q-3.543-.23-7.1-.367-.07,1.791-.139,3.582c1.089.042,2.175.09,3.264.146q-.081,1.569-.16,3.139-1.614-.081-3.226-.144c-.045,1.194-.094,2.387-.139,3.58q3.417.133,6.831.353Q8333.036,2549.011,8332.937,2550.579Z" fill="#fff"/>
            <path id="Path_408" data-name="Path 408" d="M8345.192,2549.042q-1.45,1.147-2.877,2.31-2.342-.235-4.687-.429-1.189-1.4-2.408-2.792.094-1.317.191-2.634,1.6.115,3.2.251-.05.6-.1,1.19.419.487.835.977c.606.053,1.215.109,1.821.167q.508-.405,1.019-.808c.059-.591.115-1.181.174-1.772q-.425-.495-.854-.988-1.652-.156-3.306-.293-1.235-1.416-2.494-2.821.17-2.32.337-4.64,1.465-1.2,2.947-2.378,2.495.205,4.981.455,1.25,1.431,2.47,2.873c-.1.869-.19,1.737-.287,2.6q-1.626-.18-3.249-.339.057-.6.116-1.189l-.88-.97q-.946-.09-1.892-.173c-.342.272-.684.544-1.021.817q-.075.876-.148,1.754.431.5.856,1,1.683.148,3.363.317,1.217,1.428,2.4,2.866Q8345.45,2546.721,8345.192,2549.042Z" fill="#fff"/>
          </g>
        </g>
        <path id="Path_409" data-name="Path 409" d="M8340.469,2550.538l-.111,1.783,1.962.15-.23,3.671-4.2-.32.085-1.364,2.673.2.059-.944-1.962-.15.2-3.147-.961-.073" fill="#fff"/>
      </g>
    </g>
    <path id="Path_419" data-name="Path 419" d="M8301.174,2428.97s9.945,1.181,8.221,12.019c-.941,5.761-8.607,9.176-13.043,7.5C8296.352,2448.487,8313.92,2440.344,8301.174,2428.97Z" transform="translate(-5701.464 -2702.821)" fill="#b5311b"/>
    <path id="Path_420" data-name="Path 420" d="M8298.173,2428.945s-4.565.271-7.578,5.657A21.987,21.987,0,0,1,8298.173,2428.945Z" transform="translate(-5701.464 -2702.821)" fill="#fff"/>
    <path id="Path_421" data-name="Path 421" d="M8342.542,2438.323s9.946,1.181,8.221,12.018c-.941,5.762-8.607,9.177-13.043,7.5C8337.72,2457.84,8355.289,2449.7,8342.542,2438.323Z" transform="translate(-5701.464 -2702.821)" fill="#b5311b"/>
    <path id="Path_422" data-name="Path 422" d="M8339.542,2438.3s-4.567.271-7.578,5.656A21.98,21.98,0,0,1,8339.542,2438.3Z" transform="translate(-5701.464 -2702.821)" fill="#fff"/>
    <g id="Group_84" data-name="Group 84" transform="translate(-5701.464 -2702.821)" clip-path="url(#clip-path)">
      <path id="Path_423" data-name="Path 423" d="M8316.116,2449.939s13.524,5.419,28.226,12.009,7.26,24.322,18.949,32.527,1.994,40.468,1.994,40.468-31.729,22.32-40.288-1.648-16-59.86-12.242-67.086S8316.116,2449.939,8316.116,2449.939Z" fill="#b5311b" opacity="0.33"/>
    </g>
    <path id="Path_445" data-name="Path 445" d="M8340.919,2461.948s-3.014,3.576-7.514,11.915C8333.405,2473.863,8336.295,2470.551,8340.919,2461.948Z" transform="translate(-5701.464 -2702.821)" fill="#fff"/>
    <path id="Path_446" data-name="Path 446" d="M8330,2481.867a14.162,14.162,0,0,0,10.308-3.2c3.154-3.083,2.322-5.4,2.322-5.4S8340.212,2481.325,8330,2481.867Z" transform="translate(-5701.464 -2702.821)" fill="#b5311b"/>
    <path id="Path_447" data-name="Path 447" d="M8323.262,2492.269s-6,2.384-3.6,6.831,7.717,2.547,9.432,1.061C8329.09,2500.161,8316.793,2504.194,8323.262,2492.269Z" transform="translate(-5701.464 -2702.821)" fill="#b5311b"/>
    <path id="Path_448" data-name="Path 448" d="M8344.566,2459.73s9.688-6.385,21.742,18.991C8366.309,2478.721,8358.657,2460.776,8344.566,2459.73Z" transform="translate(-5701.464 -2702.821)" fill="#b5311b"/>
    <path id="Path_449" data-name="Path 449" d="M8375.464,2528.394s-4.087-18.814-2.74-31.326-4.55-14.329-4.55-14.329,4.594,4.155,2.582,13.541S8375.206,2527.48,8375.464,2528.394Z" transform="translate(-5701.464 -2702.821)" fill="#b5311b"/>
    <path id="Path_450" data-name="Path 450" d="M8360.894,2499.1" transform="translate(-5701.464 -2702.821)" fill="#b5311b"/>
    <path id="Path_451" data-name="Path 451" d="M8359.548,2501.2s-11.826,5.291-13.84,10.823C8345.708,2512.018,8343.365,2507.547,8359.548,2501.2Z" transform="translate(-5701.464 -2702.821)" fill="#b5311b"/>
    <path id="Path_452" data-name="Path 452" d="M8335.7,2510.565a7.949,7.949,0,0,1,4.652-8.23S8335.346,2505.913,8335.7,2510.565Z" transform="translate(-5701.464 -2702.821)" fill="#fff"/>
    <path id="Path_453" data-name="Path 453" d="M8319.967,2476.865s-.743-4.495,6.42-3.594C8326.387,2473.271,8320.318,2472.932,8319.967,2476.865Z" transform="translate(-5701.464 -2702.821)" fill="#fff"/>
    <path id="Path_454" data-name="Path 454" d="M8319.945,2477.608s1.226,5.864,8,4.259C8327.942,2481.867,8324.554,2482.771,8319.945,2477.608Z" transform="translate(-5701.464 -2702.821)" fill="#b5311b"/>
    <path id="Path_455" data-name="Path 455" d="M8337.052,2494.923s12.413-.225,14.973-7.4C8352.024,2487.521,8350.979,2492.079,8337.052,2494.923Z" transform="translate(-5701.464 -2702.821)" fill="url(#linear-gradient)"/>
    <path id="Path_456" data-name="Path 456" d="M8252.316,2526.474s6.048,6.026,11.553-3.056C8263.869,2523.418,8259.478,2529.915,8252.316,2526.474Z" transform="translate(-5701.464 -2702.821)" fill="#b5311b"/>
    <path id="Path_457" data-name="Path 457" d="M8279.546,2466.209" transform="translate(-5701.464 -2702.821)" fill="#fff"/>
    <path id="Path_458" data-name="Path 458" d="M8300.144,2456.427s1.01,8.849,10.275,6.213C8310.419,2462.64,8301.52,2467.987,8300.144,2456.427Z" transform="translate(-5701.464 -2702.821)" fill="#b5311b"/>
    <path id="Path_459" data-name="Path 459" d="M8314.786,2468.152s8.146.61,6.22-6.2C8321.006,2461.948,8318.777,2467,8314.786,2468.152Z" transform="translate(-5701.464 -2702.821)" fill="#b5311b"/>
    <path id="Path_460" data-name="Path 460" d="M8310.7,2482.377s1.468,3-1.024,3.911a5.439,5.439,0,0,1-6.535-2.884S8307.315,2489.408,8310.7,2482.377Z" transform="translate(-5701.464 -2702.821)" fill="#b5311b"/>
    <path id="Path_461" data-name="Path 461" d="M8293.964,2449.262s-8.572-2.413-13.2,11.239-2.375,7.1-3.62,10.953C8276.294,2474.09,8283.864,2447.152,8293.964,2449.262Z" transform="translate(-5701.464 -2702.821)" fill="#fff"/>
    <path id="Path_462" data-name="Path 462" d="M8293.373,2480.671a45.452,45.452,0,0,0-3.479,7.573c.121,1.871,5.838.455,13.466,7.576,0,0-7.619-5.209-13.345-5.705S8293.373,2480.671,8293.373,2480.671Z" transform="translate(-5701.464 -2702.821)" fill="#b5311b"/>
    <path id="Path_463" data-name="Path 463" d="M8294.639,2501.62a13.11,13.11,0,0,0,3.688,2.312c1.266.11-1.431,1.761-.605,5.229a5.976,5.976,0,0,1,1.706-4.238C8301.245,2503.216,8294.639,2501.62,8294.639,2501.62Z" transform="translate(-5701.464 -2702.821)" fill="#b5311b"/>
  </g>
</svg>
