<svg xmlns="http://www.w3.org/2000/svg" width="80" height="80" viewBox="0 0 80 80"><g transform="translate(7.719 7.711)"><path d="M40,0A40,40,0,1,1,0,40,40,40,0,0,1,40,0ZM13.5,59.144l-.475-.666L9.7,60.792l.475.666ZM9.95,61.585l-.444-.634-.6.412L9.35,62l.6-.412Zm1.521-2.853a1.426,1.426,0,0,0,.666-.919,1.777,1.777,0,0,0-.254-1.2,1.831,1.831,0,0,0-.571-.7,1.023,1.023,0,0,0-.666-.254,1.155,1.155,0,0,0-.666.158,1.146,1.146,0,0,0-.633,1.044,4.609,4.609,0,0,0,.158.919,2.379,2.379,0,0,1,.127.792c-.032.1-.063.19-.158.222a.238.238,0,0,1-.285,0,1.024,1.024,0,0,1-.412-.412.672.672,0,0,1-.127-.507.7.7,0,0,1,.285-.412l-.38-.729a1.121,1.121,0,0,0-.571.792A1.887,1.887,0,0,0,8.241,58.7a2.122,2.122,0,0,0,.507.634,1.126,1.126,0,0,0,.6.254,1.286,1.286,0,0,0,.6-.127,1.079,1.079,0,0,0,.539-.729,2.022,2.022,0,0,0-.1-1.014,4.227,4.227,0,0,1-.158-.666.64.64,0,0,1,0-.349.325.325,0,0,1,.158-.19.54.54,0,0,1,.444,0,.991.991,0,0,1,.444.444.873.873,0,0,1,.127.6.861.861,0,0,1-.38.539l.444.634ZM10.3,53.788l-.317-.761L6.91,54.39l-.476-1.11-.634.285,1.3,2.948.634-.285-.475-1.109Zm-2.029-5.42-3.36,2.789.254.824,4.342.254-.254-.824-.983-.032-.507-1.553.761-.634-.254-.824ZM7.227,50.3l-1.268.983,1.585.063Zm.887-2.345-.127-.761-2.6.444L7.7,45.578l-.127-.824-3.994.7.127.761,2.662-.475L3.994,47.829l.127.792,3.994-.666ZM3.328,44.247l4.025-.285-.1-1.363a8.141,8.141,0,0,0-.1-.983,1.381,1.381,0,0,0-.222-.539,1.137,1.137,0,0,0-.444-.317,1.61,1.61,0,0,0-.539-.1,1.033,1.033,0,0,0-.6.254,1.015,1.015,0,0,0-.317.6,1.093,1.093,0,0,0-.38-.38,1.042,1.042,0,0,0-.539-.127.943.943,0,0,0-.475.158.843.843,0,0,0-.317.349,1.032,1.032,0,0,0-.127.444,5.447,5.447,0,0,0,0,.729L3.32,44.24Zm.634-.887.919-.063-.032-.539a4.875,4.875,0,0,0-.063-.6.743.743,0,0,0-.158-.317.535.535,0,0,0-.317-.1.4.4,0,0,0-.285.127.484.484,0,0,0-.127.317c0,.1,0,.317.032.7l.032.475Zm1.585-.1,1.077-.06-.063-.761A4.916,4.916,0,0,0,6.5,41.87a.462.462,0,0,0-.19-.285.639.639,0,0,0-.349-.1.535.535,0,0,0-.317.1.436.436,0,0,0-.158.254,2.618,2.618,0,0,0,0,.729l.063.7ZM3.106,39.746l2.155.063a4.768,4.768,0,0,0,1.014-.032.845.845,0,0,0,.444-.222.937.937,0,0,0,.349-.475,2.012,2.012,0,0,0,.158-.887,2.854,2.854,0,0,0-.1-.792,1.254,1.254,0,0,0-.317-.475.861.861,0,0,0-.507-.254,3.712,3.712,0,0,0-1.014-.1L3.17,36.513l-.032.824,2.25.063a3.471,3.471,0,0,1,.7.063.6.6,0,0,1,.349.222.848.848,0,0,1,.127.539.907.907,0,0,1-.158.539.542.542,0,0,1-.412.222,2.154,2.154,0,0,1-.666,0l-2.187-.063-.032.824Zm4.247-3.994.539-2.789-.666-.127-.38,2L3.582,34.2l-.158.792,3.93.761ZM4.532,29.667,8.368,31l.444-1.3q.238-.761.285-.951a1.151,1.151,0,0,0,0-.571,1.892,1.892,0,0,0-.285-.475,1.193,1.193,0,0,0-.475-.285.874.874,0,0,0-.634,0,1.3,1.3,0,0,0-.539.412,1.4,1.4,0,0,0-.19-.507A.889.889,0,0,0,6.529,27a.815.815,0,0,0-.475-.032.982.982,0,0,0-.412.19.775.775,0,0,0-.285.349q-.1.19-.285.666l-.539,1.49Zm.919-.571.887.317.158-.507c.1-.317.158-.475.19-.571a.436.436,0,0,0-.032-.349.587.587,0,0,0-.254-.222.537.537,0,0,0-.317,0,.362.362,0,0,0-.222.254,6.207,6.207,0,0,0-.254.666l-.158.412Zm1.521.539,1.014.349.254-.729a2.589,2.589,0,0,0,.158-.539.464.464,0,0,0-.063-.349.69.69,0,0,0-.285-.222,1.189,1.189,0,0,0-.317-.032.493.493,0,0,0-.254.19,3.909,3.909,0,0,0-.285.666l-.222.666Zm-.919-4.247,1.965.919a4,4,0,0,0,.951.349.941.941,0,0,0,.507-.032.917.917,0,0,0,.507-.285,3.13,3.13,0,0,0,.507-.729,2.016,2.016,0,0,0,.222-.761,1.535,1.535,0,0,0-.1-.571,1.141,1.141,0,0,0-.349-.444,6.445,6.445,0,0,0-.919-.507L7.411,22.44l-.349.729L9.1,24.12a4.534,4.534,0,0,1,.6.317.457.457,0,0,1,.222.349.887.887,0,0,1-.1.539.7.7,0,0,1-.38.412.831.831,0,0,1-.475.063c-.1-.032-.317-.127-.634-.254l-2-.919-.285.761Zm.063-.729.285-.6-.6-.285-.285.6Zm.507-1.078.285-.6-.6-.285-.285.6Zm5.483-1.046.444-.7-1.426-.919L9.952,18.384l-.507.792.824,1.648L8.4,20.761l-.507.792,2.789.032,1.426.951Zm-1.68-4.786,1.68,1.363a3.933,3.933,0,0,0,.856.571,1.314,1.314,0,0,0,.507.1,1.292,1.292,0,0,0,.571-.158,2.167,2.167,0,0,0,.666-.6,1.7,1.7,0,0,0,.38-.7,1.183,1.183,0,0,0,.032-.571,1.1,1.1,0,0,0-.254-.507,6.225,6.225,0,0,0-.761-.7l-1.648-1.331-.507.634,1.743,1.4a2.528,2.528,0,0,1,.507.475.505.505,0,0,1,.127.38,1.033,1.033,0,0,1-.666.824.633.633,0,0,1-.475-.063,4.872,4.872,0,0,1-.539-.412l-1.712-1.331-.507.634Zm.254-.7.412-.507-.507-.412-.412.507Zm.761-.919.412-.507-.507-.412-.412.507ZM16.2,17.147l.6-.571-.824-.887.032-.951,2.124.634.761-.729-2.853-.7.032-2.187-.792.761.032,2.441-1.268-1.331-.6.571Zm2.06-3.772a1.528,1.528,0,0,0,.983.571,1.834,1.834,0,0,0,1.173-.38,2.006,2.006,0,0,0,.634-.634,1.357,1.357,0,0,0,.19-.7,1.1,1.1,0,0,0-.222-.634,1.318,1.318,0,0,0-.507-.444,1.271,1.271,0,0,0-.6-.1,5.814,5.814,0,0,0-.887.254,2.406,2.406,0,0,1-.761.222A.391.391,0,0,1,18,11.41a.308.308,0,0,1-.032-.285.991.991,0,0,1,.38-.444.92.92,0,0,1,.507-.19.651.651,0,0,1,.444.254l.634-.507a1.219,1.219,0,0,0-.856-.507,1.755,1.755,0,0,0-1.141.38,2.421,2.421,0,0,0-.571.571,1.143,1.143,0,0,0-.19.634.885.885,0,0,0,.19.571,1.06,1.06,0,0,0,.761.444,2.185,2.185,0,0,0,.983-.19c.317-.127.539-.19.634-.222a.708.708,0,0,1,.349-.032.367.367,0,0,1,.222.158.521.521,0,0,1,.063.444,1.008,1.008,0,0,1-.38.475,1.12,1.12,0,0,1-.6.19,1.043,1.043,0,0,1-.571-.317l-.571.539Zm2.155,1.458a1.326,1.326,0,0,0,.475-.285,1.109,1.109,0,0,0,.507-.6.445.445,0,0,0-.063-.444.452.452,0,0,0-.38-.19.729.729,0,0,0-.507.19,1.661,1.661,0,0,0-.349.317l.1.254a.965.965,0,0,1,.254-.254.506.506,0,0,1,.254-.1.174.174,0,0,1,.158.1.21.21,0,0,1,.032.19.686.686,0,0,1-.254.285,4.316,4.316,0,0,1-.444.285l.222.254Zm1.807-2.662,2.694-1.49-.317-.6L22.634,11.19l-.539-.951,1.775-.983-.317-.6-1.775.983-.444-.792,1.9-1.046-.317-.6-2.632,1.42,1.933,3.55Zm3.36-1.838.761-.349L25.61,8.368,27.068,7.7,27.8,9.319,28.558,9,26.91,5.293l-.761.317.634,1.458-1.458.666-.634-1.458-.761.349,1.648,3.708Zm3.74-1.553.792-.254L28.843,4.691l-.792.254L29.319,8.78Zm-1.3-4.057.729-.222-.222-.7-.729.222.222.7Zm2.789,3.518.792-.19L31.22,6.4l.158-.032a3.329,3.329,0,0,1,.412-.063.511.511,0,0,1,.285.1,4.271,4.271,0,0,1,.539.475l.761.729.951-.222-.666-.666a6.268,6.268,0,0,0-.6-.539,1.879,1.879,0,0,0-.507-.222,1.255,1.255,0,0,0,.7-.539,1.117,1.117,0,0,0,.1-.792,1.268,1.268,0,0,0-.317-.571,1,1,0,0,0-.539-.285,2.848,2.848,0,0,0-.951.1l-1.68.38.951,3.994ZM31.062,5.8l.6-.127a2.919,2.919,0,0,0,.7-.222.426.426,0,0,0,.19-.222.537.537,0,0,0,0-.317.462.462,0,0,0-.19-.285.569.569,0,0,0-.349-.1,2.663,2.663,0,0,0-.571.127l-.634.158.254.983ZM36.07,3.138l.285,4.025,1.363-.1a8.141,8.141,0,0,0,.983-.1,1.381,1.381,0,0,0,.539-.222,1.137,1.137,0,0,0,.317-.444,1.61,1.61,0,0,0,.1-.539,1.033,1.033,0,0,0-.254-.6,1.015,1.015,0,0,0-.6-.317,1.093,1.093,0,0,0,.38-.38A1.042,1.042,0,0,0,39.3,3.93a.943.943,0,0,0-.158-.475.843.843,0,0,0-.349-.317,1.032,1.032,0,0,0-.444-.127,5.447,5.447,0,0,0-.729,0l-1.553.127Zm.856.634.063.919.539-.032a4.875,4.875,0,0,0,.6-.063.743.743,0,0,0,.317-.158.535.535,0,0,0,.1-.317.4.4,0,0,0-.127-.285.484.484,0,0,0-.317-.127c-.1,0-.317,0-.7.032l-.475.032Zm.127,1.585.063,1.078.761-.063a4.916,4.916,0,0,0,.571-.063.462.462,0,0,0,.285-.19.639.639,0,0,0,.1-.349.535.535,0,0,0-.1-.317.436.436,0,0,0-.254-.158,2.618,2.618,0,0,0-.729,0l-.7.063Zm3.391,1.616,3.074.222.063-.666-2.25-.158.063-1.109,2.029.127.063-.666L41.458,4.6l.063-.887,2.187.158.063-.7-2.979-.222-.349,4.025Zm3.772.254,2.821.507.127-.666-2-.349.571-3.3-.79-.119-.729,3.93Zm3.36.666,2.979.792.19-.666-2.187-.571.285-1.078,1.965.539L51,6.244,49.035,5.7l.222-.856,2.124.571.19-.666-2.884-.792-1.109,3.93Zm5.1-2.662L51.22,9l1.426.539a4.765,4.765,0,0,0,.7.19,2.107,2.107,0,0,0,.666-.1,1.7,1.7,0,0,0,.666-.507,2.16,2.16,0,0,0,.412-.761,2.92,2.92,0,0,0,.222-.951,1.918,1.918,0,0,0-.127-.761,1.549,1.549,0,0,0-.444-.571,2.819,2.819,0,0,0-.7-.349l-1.363-.5Zm.539.919-.951,2.5.571.222A1.307,1.307,0,0,0,53.312,9a.78.78,0,0,0,.38-.032.856.856,0,0,0,.349-.285,3.171,3.171,0,0,0,.349-.666,2.925,2.925,0,0,0,.19-.7,1.652,1.652,0,0,0-.063-.444.9.9,0,0,0-.285-.317,3.677,3.677,0,0,0-.6-.285l-.412-.127Zm1.712,4.469.729.38L57.5,7.385,56.767,7l-1.838,3.613Zm2-3.8.666.349L57.94,6.5l-.666-.349-.349.666Zm.317,5.071.7.444.887-1.426,2.5-1.2L60.539,9.2l-1.648.856.032-1.87L58.1,7.67v2.79l-.856,1.426Zm2.219,1.521,2.441,1.9.412-.539-1.775-1.4.666-.856,1.616,1.236.412-.539-1.616-1.236.539-.7,1.712,1.331.412-.539L61.9,10.238l-2.441,3.17Zm3.772,1.363a1.646,1.646,0,0,0-.412,1.078,1.97,1.97,0,0,0,.571,1.109,2.16,2.16,0,0,0,.729.539,1.337,1.337,0,0,0,.7.1,1.27,1.27,0,0,0,.951-.887,1.289,1.289,0,0,0,0-.6,3.269,3.269,0,0,0-.412-.824,1.718,1.718,0,0,1-.317-.729.36.36,0,0,1,.1-.254.387.387,0,0,1,.285-.1,1.191,1.191,0,0,1,.507.285.659.659,0,0,1,.1.951l.6.571a1.128,1.128,0,0,0,.349-.919,1.588,1.588,0,0,0-.571-1.046,2.171,2.171,0,0,0-.666-.475,1.078,1.078,0,0,0-1.173.222,1.01,1.01,0,0,0-.317.824,2.337,2.337,0,0,0,.349.951,3.82,3.82,0,0,1,.317.6.488.488,0,0,1,.063.349.321.321,0,0,1-.127.222.469.469,0,0,1-.412.127,1.086,1.086,0,0,1-.539-.317,1.212,1.212,0,0,1-.285-.571,1.1,1.1,0,0,1,.222-.634l-.6-.571Zm1.743,3.772.539.6,3.043-2.662-.539-.6Zm3.233-2.789.507.571.539-.475-.507-.571-.539.475Zm-.317,4.437a1.564,1.564,0,0,0-.6.983,1.623,1.623,0,0,0,.349,1.173,2.485,2.485,0,0,0,.6.666,1.117,1.117,0,0,0,.666.222,1.247,1.247,0,0,0,.666-.19,1.042,1.042,0,0,0,.444-.475.976.976,0,0,0,.1-.6,5.086,5.086,0,0,0-.222-.887,2.953,2.953,0,0,1-.19-.792.267.267,0,0,1,.127-.222.308.308,0,0,1,.285-.032.93.93,0,0,1,.412.38.683.683,0,0,1,.158.507.651.651,0,0,1-.254.444l.475.666a1.2,1.2,0,0,0,.539-.824,1.706,1.706,0,0,0-.349-1.141,2.512,2.512,0,0,0-.539-.6,1.143,1.143,0,0,0-.634-.19,1.1,1.1,0,0,0-.571.158,1.037,1.037,0,0,0-.475.761,2.575,2.575,0,0,0,.158.983c.127.317.19.539.222.634a.64.64,0,0,1,0,.349c-.032.1-.063.158-.158.19a.441.441,0,0,1-.444.032,1.108,1.108,0,0,1-.475-.412.911.911,0,0,1-.158-.6.938.938,0,0,1,.349-.571l-.475-.6Zm.983,4.057.38.729,1.363-.729.254.475a4.322,4.322,0,0,0,.444.729.865.865,0,0,0,.38.285,1.329,1.329,0,0,0,.507.127,1.12,1.12,0,0,0,.6-.19,1.236,1.236,0,0,0,.571-.571,1.065,1.065,0,0,0,.063-.7,3.665,3.665,0,0,0-.412-.887l-.6-1.173-3.55,1.9Zm3.36-.856-1.014.539.222.38a3.121,3.121,0,0,0,.349.539.524.524,0,0,0,.6.063.45.45,0,0,0,.254-.285.772.772,0,0,0,0-.38,5.538,5.538,0,0,0-.254-.539l-.158-.317Zm.1,3.487a2.269,2.269,0,0,0-1.268.983A1.935,1.935,0,0,0,71,29.382a1.843,1.843,0,0,0,.983,1.173,2.04,2.04,0,0,0,1.616,0,2.161,2.161,0,0,0,1.3-1.014,1.935,1.935,0,0,0,.063-1.521,1.793,1.793,0,0,0-.444-.761,1.525,1.525,0,0,0-.507-.38,2.415,2.415,0,0,0-.634-.19,3.332,3.332,0,0,0-1.046.19Zm.317.792a1.508,1.508,0,0,0-.887.634.974.974,0,0,0-.063.887,1,1,0,0,0,.6.634,1.676,1.676,0,0,0,1.109-.032,1.508,1.508,0,0,0,.887-.634,1.072,1.072,0,0,0,.063-.887,1.05,1.05,0,0,0-.6-.666,1.522,1.522,0,0,0-1.109.063Zm-.792,4.216.158.792,1.648-.317.032.158a2.274,2.274,0,0,1,.032.412.57.57,0,0,1-.127.285,3.2,3.2,0,0,1-.507.539l-.761.761.19.951.7-.634c.285-.254.444-.444.571-.571a1.894,1.894,0,0,0,.254-.507,1.434,1.434,0,0,0,.507.729,1.121,1.121,0,0,0,.792.127,1.33,1.33,0,0,0,.6-.285.9.9,0,0,0,.285-.539,3.674,3.674,0,0,0-.063-.951l-.317-1.68-3.994.729Zm2.441.349.127.6a1.9,1.9,0,0,0,.19.7.426.426,0,0,0,.222.19.977.977,0,0,0,.317.032.992.992,0,0,0,.317-.158.569.569,0,0,0,.1-.349,5.965,5.965,0,0,0-.1-.6l-.127-.634-1.046.222Zm-1.553,5.2.032.824,1.236-.032.7.634-1.87,1.173.032,1.046,2.409-1.68L76.9,40.862l-.032-1.109L75,38.168l1.8-.068-.032-.824-4.025.158Zm3.994,4.406L74.58,41.68a5.275,5.275,0,0,0-1.014,0,1.494,1.494,0,0,0-.475.19,1.054,1.054,0,0,0-.38.444,2.45,2.45,0,0,0-.19.856,2.063,2.063,0,0,0,.063.792,1.322,1.322,0,0,0,.285.507,1.194,1.194,0,0,0,.475.285,5,5,0,0,0,1.014.127l2.124.158.063-.824-2.219-.158a6.012,6.012,0,0,1-.7-.1.581.581,0,0,1-.317-.222.726.726,0,0,1-.1-.539.915.915,0,0,1,.19-.539.663.663,0,0,1,.412-.222c.1,0,.317,0,.666.032l2.187.158.063-.792Zm-4.469,3.74-.6,2.789.666.127.412-2,3.265.7.158-.792-3.9-.824Zm3.074,4.628-2.06-.666a7.733,7.733,0,0,0-1.014-.254,1.024,1.024,0,0,0-.507.1,1.518,1.518,0,0,0-.475.349,2.016,2.016,0,0,0-.412.792,2.708,2.708,0,0,0-.127.792,1.2,1.2,0,0,0,.158.539.963.963,0,0,0,.412.38,9.551,9.551,0,0,0,.951.38l2.029.666.254-.761-2.124-.7a3.62,3.62,0,0,1-.634-.254.436.436,0,0,1-.254-.317.81.81,0,0,1,.032-.539.753.753,0,0,1,.317-.475.728.728,0,0,1,.444-.127A2.79,2.79,0,0,1,73,50.3l2.092.666.254-.761Zm.032.729-.19.634.634.19.222-.634ZM75,52.051l-.222.634.634.19.222-.634Zm-1.236,2.631-3.613-1.838-.634,1.236c-.222.475-.38.761-.412.887a1.221,1.221,0,0,0-.063.571,1.042,1.042,0,0,0,.222.507,1.058,1.058,0,0,0,.412.349,1.115,1.115,0,0,0,.634.1.916.916,0,0,0,.571-.349,1.042,1.042,0,0,0,.127.539,1.093,1.093,0,0,0,.38.38.653.653,0,0,0,.475.1,1.032,1.032,0,0,0,.444-.127.991.991,0,0,0,.349-.285A3.509,3.509,0,0,0,73,56.1l.761-1.426Zm-.983.412-.824-.412-.254.475a5.242,5.242,0,0,0-.254.539.459.459,0,0,0-.032.349.564.564,0,0,0,.222.254.384.384,0,0,0,.317.032A.424.424,0,0,0,72.2,56.1c.032-.063.158-.285.317-.6l.254-.412Zm-1.426-.729L70.4,53.89l-.349.666a2.329,2.329,0,0,0-.222.507.651.651,0,0,0,0,.349.491.491,0,0,0,.254.254.571.571,0,0,0,.317.063.438.438,0,0,0,.285-.158,2.256,2.256,0,0,0,.38-.634l.285-.571Zm.349,4.216L69.867,57.44a3.632,3.632,0,0,0-.919-.475.905.905,0,0,0-.507-.032,1.3,1.3,0,0,0-.539.222,2.062,2.062,0,0,0-.571.666,2.308,2.308,0,0,0-.317.729,1.117,1.117,0,0,0,.032.571,1.384,1.384,0,0,0,.317.475,4.607,4.607,0,0,0,.824.6l1.807,1.141.444-.7-1.9-1.173a2.849,2.849,0,0,1-.571-.38.723.723,0,0,1-.19-.38.683.683,0,0,1,.158-.507.93.93,0,0,1,.412-.38.618.618,0,0,1,.475,0,5.687,5.687,0,0,1,.6.349l1.87,1.173.412-.761Zm-.158.7-.349.571.571.349.349-.571Zm-.647,1-.349.571.571.349.349-.571Zm-36,17.053V72.2h-.824a1.934,1.934,0,0,1-.634.824,3.974,3.974,0,0,1-.856.475v.887a3.732,3.732,0,0,0,1.3-.729v3.677Zm1.521-1.2a1.519,1.519,0,0,0,.475.951,1.412,1.412,0,0,0,.983.317,1.7,1.7,0,0,0,1.363-.634,3.109,3.109,0,0,0,.539-2.029,2.925,2.925,0,0,0-.507-1.965,1.592,1.592,0,0,0-1.3-.6,1.649,1.649,0,0,0-1.2.475,1.893,1.893,0,0,0-.032,2.472,1.4,1.4,0,0,0,1.046.475,1.234,1.234,0,0,0,.951-.444,2.221,2.221,0,0,1-.285,1.173.663.663,0,0,1-.539.285.5.5,0,0,1-.38-.127.725.725,0,0,1-.19-.444l-.919.1Zm2.25-2.124a1.006,1.006,0,0,0-.222-.729.714.714,0,0,0-.507-.254.48.48,0,0,0-.444.222,1.077,1.077,0,0,0-.19.7,1.177,1.177,0,0,0,.19.729.591.591,0,0,0,.5.218.57.57,0,0,0,.475-.222,1.04,1.04,0,0,0,.19-.666Zm1.775,2.124a1.519,1.519,0,0,0,.475.951,1.412,1.412,0,0,0,.983.317,1.7,1.7,0,0,0,1.363-.634,3.109,3.109,0,0,0,.539-2.029,2.925,2.925,0,0,0-.507-1.965,1.592,1.592,0,0,0-1.3-.6,1.649,1.649,0,0,0-1.2.475,1.893,1.893,0,0,0-.032,2.472,1.354,1.354,0,0,0,1.046.475,1.234,1.234,0,0,0,.951-.444,2.221,2.221,0,0,1-.285,1.173.663.663,0,0,1-.539.285.5.5,0,0,1-.38-.127.725.725,0,0,1-.19-.444l-.919.1Zm2.25-2.124a1.006,1.006,0,0,0-.222-.729.714.714,0,0,0-.507-.254.48.48,0,0,0-.444.222,1.077,1.077,0,0,0-.19.7,1.177,1.177,0,0,0,.19.729.591.591,0,0,0,.507.222.57.57,0,0,0,.475-.222,1.04,1.04,0,0,0,.19-.666ZM46.149,72.2a1.431,1.431,0,0,0-1.173.539,3.269,3.269,0,0,0-.507,2.092,3.223,3.223,0,0,0,.475,2.029,1.533,1.533,0,0,0,1.236.571,1.408,1.408,0,0,0,1.173-.507,3.269,3.269,0,0,0,.507-2.092,3.329,3.329,0,0,0-.507-2.092,1.445,1.445,0,0,0-1.2-.539Zm0,.792a.407.407,0,0,0-.317.127.827.827,0,0,0-.222.412,5.806,5.806,0,0,0-.1,1.268,5.281,5.281,0,0,0,.1,1.236.816.816,0,0,0,.222.444.563.563,0,0,0,.317.127.407.407,0,0,0,.317-.127.827.827,0,0,0,.222-.412,5.805,5.805,0,0,0,.1-1.268,5.281,5.281,0,0,0-.1-1.236.816.816,0,0,0-.222-.444A.563.563,0,0,0,46.149,73ZM40,9.033A30.967,30.967,0,1,0,70.967,40,30.967,30.967,0,0,0,40,9.033Z" transform="translate(-7.718 -7.711)" fill="#0b0539" fill-rule="evenodd"/><path d="M81.946,59.089h1.2s.032.1.032-1.046V54.366h0L84.1,47.9h.285L85.4,53.89h0a10.1,10.1,0,0,1,.127,1.078c0,.317.032,4.089.032,4.089v-.032l2.345.032.063-3.994h0l.127-1.236.919-5.927h.254l.919,6.022h0a5.625,5.625,0,0,1,.127.983l.1,4.152v-.032l1.268.032v.919l-1.268,1.743-.032,4.6h2.282V62.2h0s.158-1.363.254-1.9l.824-5.61h.222l.792,5.61h0L95,62.765c0,1.141.063,3.518.063,3.518h1.2V67.52l-1.2,1.458v3.994h0s1.49-2.6,4.089-2.536a4.274,4.274,0,0,1,4.247,2.979h0l-8.368.1.032,4.184h0a5.846,5.846,0,0,1,4.881-2.377c.951.1,3.994.19,5.008,3.455h-9.82l-.032.063s1.2,10.555-8.906,10.713c-.761-.032-8.463-.887-7.892-10.681h0L68,78.993h0a5.317,5.317,0,0,1,5.261-3.772,5.535,5.535,0,0,1,4.849,2.694h.158l-.032-4.469L70,73.352h0a4.411,4.411,0,0,1,4.12-2.789,4.3,4.3,0,0,1,3.962,2.472h0L78.238,73V69.041l-1.173-1.458V66.347h1.173l.063-4.089h0s.158-1.712.222-2.092c.063-.412.761-5.42.761-5.42H79.6l.856,5.42h0a21.307,21.307,0,0,1,.254,2.694c-.032.824.032,3.518.032,3.518h2.377v-4.6l-1.2-1.743.032-.951Zm3.74,2.662v4.6h2.282v-4.6L86.8,60.61l-1.109,1.141Zm-4.881,7.29v6.244a8.7,8.7,0,0,1,2.472-1.743l-.032-4.5-1.3-1.268L80.8,69.042Zm4.913,0,.063,3.835a9.614,9.614,0,0,1,2.124.032l.063-3.867L86.8,67.8l-1.078,1.236ZM90.441,73.7a7.565,7.565,0,0,1,2.187,1.585V69.041l-1.141-1.268-1.109,1.268Zm-8.177,4.881h4.12l-2.06-3.55-2.06,3.55Zm4.818-.032H91.2L89.141,75l-2.06,3.55ZM79.76,82.955h4.12L81.82,79.4l-2.06,3.55Zm4.976-.1h4.12L86.8,79.31l-2.06,3.55Zm4.976,0h4.12l-2.06-3.55-2.06,3.55Zm-2.536,4.184H91.3l-2.06-3.55-2.06,3.55Zm-4.881,0h4.12l-2.06-3.55-2.06,3.55ZM70.124,80.1c-.38,6.117,1.743,8.78,2.441,9.889a16.012,16.012,0,0,0,13.344,7.544h0V91.2h0c-9.731-1.176-9.256-11.1-9.256-11.1h-1.3v1.236l-1.078.032V80.135l-1.553.032L72.691,81.4l-.983.032v-1.3ZM87.683,91.07V97.5h0s13.693-.158,15.563-14.739a19.637,19.637,0,0,0-.063-2.694h-1.426l.032,1.268h-1.173v-1.3l-1.363.032-.032,1.268-1.014.032V80.039H96.685v-.032C96.653,80.039,97.445,90.024,87.683,91.07Z" transform="translate(-54.165 -40.429)" fill="#0b0539" fill-rule="evenodd"/></g></svg>