<svg xmlns="http://www.w3.org/2000/svg" width="19.998" height="20" viewBox="0 0 19.998 20"><g transform="translate(-1106.904 -44.4)"><path d="M1109.76,47.538a.109.109,0,0,1-.041-.012,10.136,10.136,0,0,0-2.5,4.686,20.759,20.759,0,0,1,5.934-1.853C1112.54,48.025,1109.88,47.555,1109.76,47.538Zm13.081-1.226a9.9,9.9,0,0,0-5.312-1.912v5.531c.575.012,1.149.041,1.712.094a5.319,5.319,0,0,1,3.6-3.713Zm-9.376,4.962a20.388,20.388,0,0,0-6.52,2.117c-.023.287-.041.581-.041.874a9.926,9.926,0,0,0,1.243,4.821,5.417,5.417,0,0,1,1.953-2.416c.21-.153,3.24-2.481,3.36-5.4Zm7.189-.891a20.79,20.79,0,0,1,5.934,1.83,10.288,10.288,0,0,0-2.492-4.686.108.108,0,0,1-.041.012c-.135.016-2.785.491-3.405,2.843Zm6.2,2.968a20.605,20.605,0,0,0-6.514-2.076c.106,2.921,3.149,5.243,3.366,5.4a5.389,5.389,0,0,1,1.953,2.411,9.9,9.9,0,0,0,1.243-4.809c-.012-.317-.022-.622-.052-.927Zm-15.931,4.639-.035.023a3.28,3.28,0,0,0-1.454,2.88.311.311,0,0,1,.006.076,9.743,9.743,0,0,0,6.837,3.431V51.274c-.528.012-1.05.047-1.565.094.008,3.742-3.632,6.5-3.792,6.621Zm11.991.023-.029-.023c-.164-.123-3.805-2.886-3.794-6.628q-.774-.07-1.566-.088V64.4a9.687,9.687,0,0,0,6.837-3.431.361.361,0,0,1,.006-.076,3.281,3.281,0,0,0-1.458-2.88Zm-8.349-7.988c.563-.053,1.137-.088,1.712-.1V44.4a9.92,9.92,0,0,0-5.312,1.912,5.308,5.308,0,0,1,3.6,3.713Z" fill="#0b0539"/></g></svg>