<svg xmlns="http://www.w3.org/2000/svg" width="27.476" height="30" viewBox="0 0 27.476 30"><g transform="translate(0 0)"><g transform="translate(0 0)"><path d="M27.257,97.688a.6.6,0,0,0-.961-.278A13.718,13.718,0,0,0,29.6,120.334a.6.6,0,0,0,.5,0,.6.6,0,0,0,.322-.382c.959-3.457.966-10.613,0-13.02C29.029,103.295,27.932,99.9,27.257,97.688Z" transform="translate(-21.51 -91.558)" fill="#333"/><path d="M140.339,28.3c-5.573-11.9,2.2-24.723,2.282-24.85a.627.627,0,0,0-.3-.91l-6.258-2.5a.512.512,0,0,0-.076-.014.609.609,0,0,0-.1-.018.6.6,0,0,0-.206.015c-.018,0-.036,0-.053,0l-7.509,2.5a.625.625,0,0,0-.406.762s.176.627.478,1.675c.72,2.407,1.985,6.389,3.617,10.565.935,3.242.715,10.167-.207,13.346a.6.6,0,0,0,.437.748A13.8,13.8,0,0,0,135.2,30c.149,0,.3-.009.443-.02l.21-.012h0a10.845,10.845,0,0,0,3.88-.741.785.785,0,0,0,.113-.019c.064-.024.124-.049.181-.075h.006l.01,0a.7.7,0,0,0,.109-.084.666.666,0,0,0,.081-.063.706.706,0,0,0,.05-.084.657.657,0,0,0,.071-.125l0-.006a.785.785,0,0,0,.012-.094.693.693,0,0,0,.018-.14.573.573,0,0,0-.035-.141C140.35,28.357,140.35,28.327,140.339,28.3Zm-4.06-25.124c.033-.687.07-1.245.1-1.663l4.809,1.924a35.019,35.019,0,0,0-4.07,14.451A71.826,71.826,0,0,1,136.279,3.173Zm.118,25.575a37.041,37.041,0,0,0-.577-4.486,31.1,31.1,0,0,0,2.677,4.121A10,10,0,0,1,136.4,28.748Z" transform="translate(-121.464 0.001)" fill="#333"/><path d="M334.887,92.062a.6.6,0,0,0-.91.2c-1.788,3.665-5.5,13.143-1.368,22a.6.6,0,0,0,.368.319.582.582,0,0,0,.173.025.6.6,0,0,0,.312-.086,13.715,13.715,0,0,0,1.426-22.461Z" transform="translate(-312.589 -86.538)" fill="#333"/></g></g></svg>