<svg xmlns="http://www.w3.org/2000/svg" width="181" height="180.95" viewBox="0 0 181 180.95">
  <g id="bilekguresi" transform="translate(-2747.039 300.674)">
    <g id="Group_3388" data-name="Group 3388" transform="translate(-5701.464 -2702.821)">
      <g id="Group_3095" data-name="Group 3095">
        <path id="Path_10858" data-name="Path 10858" d="M8543.406,2542.405a.386.386,0,0,1,.428-.339l.016,0a22.71,22.71,0,0,0,5.729-.12c3.286-.364,6.521.562,6.408,4.75a.384.384,0,0,1-.395.372.31.31,0,0,1-.055-.006c-.665-.119-2.318-.189-6.277.447C8544.68,2548.245,8543.037,2545.561,8543.406,2542.405Z" fill="#142266"/>
        <path id="Path_10859" data-name="Path 10859" d="M8539.825,2541.885a.385.385,0,0,0,.489.241l.011,0a22.681,22.681,0,0,1,5.632-1.056c3.291-.317,6.269-1.884,5.3-5.962a.384.384,0,0,0-.464-.282.4.4,0,0,0-.051.016c-.626.254-2.23.66-6.236.849C8539.88,2535.905,8538.821,2538.871,8539.825,2541.885Z" fill="#142266"/>
      </g>
      <g id="Group_3096" data-name="Group 3096">
        <path id="Path_10860" data-name="Path 10860" d="M8557.355,2540.045a.384.384,0,0,1,.349-.42h.016a22.8,22.8,0,0,0,5.579-1.308c3.138-1.039,6.5-.807,7.256,3.314a.384.384,0,0,1-.31.446.431.431,0,0,1-.053.006c-.676.021-2.308.3-6.049,1.741C8559.818,2545.487,8557.654,2543.207,8557.355,2540.045Z" fill="#142266"/>
        <path id="Path_10861" data-name="Path 10861" d="M8553.748,2540.278a.386.386,0,0,0,.528.137l.014-.008a22.742,22.742,0,0,1,5.289-2.2c3.153-.993,5.74-3.146,3.945-6.933a.384.384,0,0,0-.513-.181.449.449,0,0,0-.047.027c-.56.378-2.044,1.109-5.923,2.127C8552.558,2534.42,8552.139,2537.539,8553.748,2540.278Z" fill="#142266"/>
      </g>
      <g id="Group_3097" data-name="Group 3097">
        <path id="Path_10862" data-name="Path 10862" d="M8570.512,2534.835a.387.387,0,0,1,.253-.484l.017,0a22.8,22.8,0,0,0,5.185-2.439c2.854-1.669,6.187-2.14,7.786,1.733a.383.383,0,0,1-.211.5.426.426,0,0,1-.05.017c-.656.161-2.194.77-5.553,2.96C8574.059,2539.65,8571.459,2537.865,8570.512,2534.835Z" fill="#142266"/>
        <path id="Path_10863" data-name="Path 10863" d="M8567.031,2535.815a.386.386,0,0,0,.545.023l.012-.011a22.668,22.668,0,0,1,4.716-3.255c2.877-1.627,4.96-4.271,2.417-7.6a.383.383,0,0,0-.537-.071.517.517,0,0,0-.041.036c-.469.486-1.769,1.51-5.351,3.312C8564.65,2530.332,8564.889,2533.469,8567.031,2535.815Z" fill="#142266"/>
      </g>
      <g id="Group_3098" data-name="Group 3098">
        <path id="Path_10864" data-name="Path 10864" d="M8582.3,2527a.387.387,0,0,1,.148-.526l.014-.007a22.785,22.785,0,0,0,4.564-3.464c2.443-2.226,5.6-3.379,7.976.076a.383.383,0,0,1-.1.532.486.486,0,0,1-.049.028c-.607.294-1.985,1.21-4.815,4.05C8586.765,2530.977,8583.859,2529.771,8582.3,2527Z" fill="#142266"/>
        <path id="Path_10865" data-name="Path 10865" d="M8579.1,2528.685a.387.387,0,0,0,.539-.088l.009-.012a22.688,22.688,0,0,1,3.936-4.164c2.476-2.19,3.964-5.209.784-7.938a.383.383,0,0,0-.573.087c-.358.573-1.417,1.844-4.546,4.352C8575.629,2523.817,8576.515,2526.837,8579.1,2528.685Z" fill="#142266"/>
      </g>
      <g id="Group_3099" data-name="Group 3099">
        <path id="Path_10866" data-name="Path 10866" d="M8592.2,2516.893a.386.386,0,0,1,.035-.545l.012-.01a22.786,22.786,0,0,0,3.744-4.338c1.928-2.685,4.781-4.47,7.817-1.584a.385.385,0,0,1,.013.543c-.014.013-.026.025-.04.036-.533.414-1.692,1.6-3.869,4.963C8597.393,2519.85,8594.3,2519.276,8592.2,2516.893Z" fill="#142266"/>
        <path id="Path_10867" data-name="Path 10867" d="M8589.418,2519.2a.385.385,0,0,0,.508-.2l.006-.014a22.746,22.746,0,0,1,2.984-4.891c1.967-2.657,2.795-5.919-.883-7.928a.384.384,0,0,0-.521.153.4.4,0,0,0-.021.047c-.231.635-1,2.1-3.542,5.2C8585.012,2515.162,8586.5,2517.932,8589.418,2519.2Z" fill="#142266"/>
      </g>
      <g id="Group_3100" data-name="Group 3100">
        <path id="Path_10868" data-name="Path 10868" d="M8599.781,2504.949a.388.388,0,0,1-.079-.541l.01-.012a22.783,22.783,0,0,0,2.761-5.021c1.327-3.028,3.746-5.367,7.318-3.175a.382.382,0,0,1,.125.526.28.28,0,0,1-.032.046c-.436.516-1.323,1.912-2.753,5.659C8605.477,2506.758,8602.331,2506.84,8599.781,2504.949Z" fill="#142266"/>
        <path id="Path_10869" data-name="Path 10869" d="M8597.542,2507.783a.386.386,0,0,0,.455-.3l0-.016a22.743,22.743,0,0,1,1.9-5.405c1.371-3.008,1.5-6.37-2.514-7.569a.381.381,0,0,0-.476.258.438.438,0,0,0-.012.054c-.095.668-.544,2.261-2.383,5.824C8592.392,2504.748,8594.43,2507.146,8597.542,2507.783Z" fill="#142266"/>
      </g>
      <g id="Group_3101" data-name="Group 3101">
        <path id="Path_10870" data-name="Path 10870" d="M8604.713,2491.681a.385.385,0,0,1-.189-.511l.008-.015a22.78,22.78,0,0,0,1.655-5.486c.67-3.237,2.549-6.029,6.5-4.626a.383.383,0,0,1,.231.49c-.006.017-.014.033-.021.05-.319.6-.9,2.146-1.517,6.108C8610.662,2492.272,8607.6,2493,8604.713,2491.681Z" fill="#142266"/>
        <path id="Path_10871" data-name="Path 10871" d="M8603.112,2494.923a.386.386,0,0,0,.382-.39v-.016a22.719,22.719,0,0,1,.737-5.682c.716-3.228.145-6.544-4.032-6.884a.386.386,0,0,0-.412.355.462.462,0,0,0,0,.052c.047.674-.062,2.325-1.119,6.193C8597.444,2493.023,8599.936,2494.947,8603.112,2494.923Z" fill="#142266"/>
      </g>
      <g id="Group_3102" data-name="Group 3102">
        <path id="Path_10872" data-name="Path 10872" d="M8606.78,2477.682a.387.387,0,0,1-.292-.462l0-.015a22.792,22.792,0,0,0,.479-5.71c-.019-3.306,1.239-6.427,5.395-5.877a.382.382,0,0,1,.328.43.265.265,0,0,1-.012.055c-.187.649-.43,2.286-.213,6.29C8612.721,2477.022,8609.88,2478.375,8606.78,2477.682Z" fill="#142266"/>
        <path id="Path_10873" data-name="Path 10873" d="M8605.891,2481.185a.387.387,0,0,0,.293-.461l0-.015a22.748,22.748,0,0,1-.461-5.711c.029-3.306-1.219-6.431-5.375-5.894a.385.385,0,0,0-.33.431.254.254,0,0,0,.012.053c.186.649.423,2.287.192,6.29C8599.949,2480.507,8602.786,2481.869,8605.891,2481.185Z" fill="#142266"/>
      </g>
      <g id="Group_3103" data-name="Group 3103">
        <path id="Path_10874" data-name="Path 10874" d="M8605.891,2463.56a.387.387,0,0,1-.381-.392v-.015a22.734,22.734,0,0,0-.718-5.685c-.706-3.229-.124-6.544,4.054-6.87a.384.384,0,0,1,.411.355.484.484,0,0,1,0,.053c-.049.674.054,2.325,1.1,6.2C8611.566,2461.679,8609.068,2463.594,8605.891,2463.56Z" fill="#142266"/>
        <path id="Path_10875" data-name="Path 10875" d="M8605.747,2467.172a.387.387,0,0,0,.191-.512l-.008-.014a22.8,22.8,0,0,1-1.639-5.49c-.658-3.24-2.529-6.037-6.483-4.648a.382.382,0,0,0-.233.488.514.514,0,0,0,.022.052c.317.6.89,2.149,1.5,6.113C8599.8,2467.747,8602.855,2468.486,8605.747,2467.172Z" fill="#142266"/>
      </g>
      <g id="Group_3104" data-name="Group 3104">
        <path id="Path_10876" data-name="Path 10876" d="M8602.085,2449.931a.387.387,0,0,1-.454-.3l0-.016a22.792,22.792,0,0,0-1.884-5.411c-1.362-3.012-1.482-6.375,2.537-7.562a.381.381,0,0,1,.475.259.51.51,0,0,1,.012.055c.093.669.536,2.263,2.364,5.833C8607.249,2446.912,8605.2,2449.3,8602.085,2449.931Z" fill="#142266"/>
        <path id="Path_10877" data-name="Path 10877" d="M8602.7,2453.494a.386.386,0,0,0,.081-.54l-.011-.013a22.737,22.737,0,0,1-2.743-5.03c-1.318-3.032-3.729-5.379-7.308-3.2a.382.382,0,0,0-.125.528.45.45,0,0,0,.031.044c.434.517,1.317,1.917,2.734,5.668C8596.993,2455.29,8600.139,2455.38,8602.7,2453.494Z" fill="#142266"/>
      </g>
      <g id="Group_3105" data-name="Group 3105">
        <path id="Path_10878" data-name="Path 10878" d="M8595.529,2437.39a.386.386,0,0,1-.507-.2l-.007-.014a22.679,22.679,0,0,0-2.968-4.9c-1.958-2.663-2.774-5.928.91-7.925a.384.384,0,0,1,.52.156.338.338,0,0,1,.022.05c.229.635,1,2.1,3.524,5.214C8599.947,2433.364,8598.444,2436.129,8595.529,2437.39Z" fill="#142266"/>
        <path id="Path_10879" data-name="Path 10879" d="M8596.866,2440.749a.386.386,0,0,0-.034-.545l-.012-.01a22.749,22.749,0,0,1-3.73-4.35c-1.919-2.692-4.766-4.487-7.812-1.609a.382.382,0,0,0-.014.542l.039.037c.532.416,1.688,1.6,3.854,4.976C8591.662,2443.691,8594.758,2443.126,8596.866,2440.749Z" fill="#142266"/>
      </g>
      <g id="Group_3106" data-name="Group 3106">
        <path id="Path_10880" data-name="Path 10880" d="M8586.508,2426.486a.387.387,0,0,1-.538-.093l-.009-.013a22.759,22.759,0,0,0-3.922-4.177c-2.469-2.2-3.947-5.222-.758-7.94a.384.384,0,0,1,.541.045.41.41,0,0,1,.031.043c.356.574,1.411,1.849,4.531,4.367C8589.993,2421.63,8589.1,2424.646,8586.508,2426.486Z" fill="#142266"/>
        <path id="Path_10881" data-name="Path 10881" d="M8588.515,2429.5a.386.386,0,0,0-.146-.526l-.013-.007a22.8,22.8,0,0,1-4.554-3.479c-2.437-2.234-5.594-3.4-7.976.05a.383.383,0,0,0,.1.532.478.478,0,0,0,.048.029c.607.3,1.982,1.216,4.8,4.066C8584.037,2433.453,8586.947,2432.256,8588.515,2429.5Z" fill="#142266"/>
      </g>
      <g id="Group_3107" data-name="Group 3107">
        <path id="Path_10882" data-name="Path 10882" d="M8575.419,2417.7a.388.388,0,0,1-.546.022l-.011-.011a22.752,22.752,0,0,0-4.7-3.271c-2.872-1.637-4.946-4.287-2.393-7.609a.383.383,0,0,1,.537-.069.246.246,0,0,1,.041.037c.469.487,1.765,1.516,5.341,3.329C8577.818,2412.223,8577.569,2415.359,8575.419,2417.7Z" fill="#142266"/>
        <path id="Path_10883" data-name="Path 10883" d="M8578.007,2420.222a.386.386,0,0,0-.252-.485l-.016,0a22.81,22.81,0,0,1-5.178-2.456c-2.848-1.678-6.178-2.16-7.792,1.708a.384.384,0,0,0,.207.5.494.494,0,0,0,.054.018c.654.163,2.191.777,5.544,2.978C8574.449,2425.026,8577.048,2423.25,8578.007,2420.222Z" fill="#142266"/>
      </g>
      <g id="Group_3108" data-name="Group 3108">
        <path id="Path_10884" data-name="Path 10884" d="M8562.742,2411.405a.387.387,0,0,1-.529.134l-.014-.008a22.687,22.687,0,0,0-5.282-2.221c-3.15-1-5.729-3.165-3.922-6.946a.384.384,0,0,1,.513-.179.353.353,0,0,1,.046.027c.56.379,2.041,1.116,5.916,2.146C8563.951,2405.551,8564.36,2408.671,8562.742,2411.405Z" fill="#142266"/>
        <path id="Path_10885" data-name="Path 10885" d="M8565.795,2413.337a.386.386,0,0,0-.348-.421h-.016a22.8,22.8,0,0,1-5.573-1.326c-3.136-1.05-6.493-.829-7.267,3.29a.385.385,0,0,0,.309.447.425.425,0,0,0,.054.006c.675.024,2.306.3,6.042,1.76C8563.318,2418.776,8565.5,2416.5,8565.795,2413.337Z" fill="#142266"/>
      </g>
      <g id="Group_3109" data-name="Group 3109">
        <path id="Path_10886" data-name="Path 10886" d="M8534.9,2542.405a.388.388,0,0,0-.43-.339l-.015,0a22.71,22.71,0,0,1-5.729-.12c-3.285-.364-6.521.562-6.407,4.75a.383.383,0,0,0,.394.372.321.321,0,0,0,.055-.006c.665-.119,2.318-.189,6.277.447C8533.621,2548.245,8535.264,2545.561,8534.9,2542.405Z" fill="#142266"/>
        <path id="Path_10887" data-name="Path 10887" d="M8538.475,2541.885a.385.385,0,0,1-.488.241l-.012,0a22.681,22.681,0,0,0-5.632-1.056c-3.291-.317-6.269-1.884-5.3-5.962a.384.384,0,0,1,.464-.282.4.4,0,0,1,.051.016c.626.254,2.23.66,6.236.849C8538.424,2535.905,8539.479,2538.871,8538.475,2541.885Z" fill="#142266"/>
      </g>
      <g id="Group_3110" data-name="Group 3110">
        <path id="Path_10888" data-name="Path 10888" d="M8520.945,2540.045a.386.386,0,0,0-.35-.42h-.016a22.8,22.8,0,0,1-5.579-1.308c-3.138-1.039-6.5-.807-7.256,3.314a.384.384,0,0,0,.309.446.463.463,0,0,0,.055.006c.675.021,2.306.3,6.047,1.741C8518.482,2545.487,8520.647,2543.207,8520.945,2540.045Z" fill="#142266"/>
        <path id="Path_10889" data-name="Path 10889" d="M8524.553,2540.278a.386.386,0,0,1-.528.137l-.014-.008a22.742,22.742,0,0,0-5.289-2.2c-3.152-.993-5.739-3.146-3.944-6.933a.383.383,0,0,1,.512-.181.449.449,0,0,1,.047.027c.561.378,2.044,1.109,5.923,2.127C8525.742,2534.42,8526.161,2537.539,8524.553,2540.278Z" fill="#142266"/>
      </g>
      <g id="Group_3111" data-name="Group 3111">
        <path id="Path_10890" data-name="Path 10890" d="M8507.788,2534.835a.387.387,0,0,0-.254-.484l-.016,0a22.8,22.8,0,0,1-5.185-2.439c-2.854-1.669-6.186-2.14-7.786,1.733a.383.383,0,0,0,.211.5.5.5,0,0,0,.05.017c.656.161,2.194.77,5.554,2.96C8504.245,2539.65,8506.839,2537.865,8507.788,2534.835Z" fill="#142266"/>
        <path id="Path_10891" data-name="Path 10891" d="M8511.268,2535.815a.386.386,0,0,1-.545.023l-.012-.011a22.668,22.668,0,0,0-4.716-3.255c-2.877-1.627-4.96-4.271-2.417-7.6a.383.383,0,0,1,.537-.071.517.517,0,0,1,.041.036c.469.486,1.769,1.51,5.351,3.312C8513.653,2530.332,8513.411,2533.469,8511.268,2535.815Z" fill="#142266"/>
      </g>
      <g id="Group_3112" data-name="Group 3112">
        <path id="Path_10892" data-name="Path 10892" d="M8496,2527a.386.386,0,0,0-.147-.526l-.015-.007a22.779,22.779,0,0,1-4.563-3.464c-2.444-2.226-5.605-3.379-7.977.076a.384.384,0,0,0,.148.56c.607.294,1.985,1.21,4.816,4.05C8491.537,2530.977,8494.447,2529.771,8496,2527Z" fill="#142266"/>
        <path id="Path_10893" data-name="Path 10893" d="M8499.2,2528.685a.387.387,0,0,1-.539-.088l-.008-.012a22.694,22.694,0,0,0-3.937-4.164c-2.476-2.19-3.964-5.209-.784-7.938a.382.382,0,0,1,.54.042.3.3,0,0,1,.033.045c.358.573,1.417,1.844,4.546,4.352C8502.672,2523.817,8501.786,2526.837,8499.2,2528.685Z" fill="#142266"/>
      </g>
      <g id="Group_3113" data-name="Group 3113">
        <path id="Path_10894" data-name="Path 10894" d="M8486.1,2516.893a.386.386,0,0,0-.035-.545l-.013-.01a22.786,22.786,0,0,1-3.744-4.338c-1.928-2.685-4.78-4.47-7.817-1.584a.385.385,0,0,0-.013.543c.014.013.026.025.04.036.534.414,1.692,1.6,3.869,4.963C8480.907,2519.85,8484,2519.276,8486.1,2516.893Z" fill="#142266"/>
        <path id="Path_10895" data-name="Path 10895" d="M8488.883,2519.2a.385.385,0,0,1-.508-.2l-.006-.014a22.746,22.746,0,0,0-2.984-4.891c-1.967-2.657-2.794-5.919.884-7.928a.384.384,0,0,1,.521.153.4.4,0,0,1,.021.047c.231.635,1,2.1,3.541,5.2C8493.289,2515.162,8491.794,2517.932,8488.883,2519.2Z" fill="#142266"/>
      </g>
      <g id="Group_3114" data-name="Group 3114">
        <path id="Path_10896" data-name="Path 10896" d="M8478.519,2504.949a.387.387,0,0,0,.079-.541l-.01-.012a22.783,22.783,0,0,1-2.761-5.021c-1.328-3.028-3.746-5.367-7.318-3.175a.384.384,0,0,0-.126.526.5.5,0,0,0,.033.046c.436.516,1.323,1.912,2.753,5.659C8472.819,2506.758,8475.97,2506.84,8478.519,2504.949Z" fill="#142266"/>
        <path id="Path_10897" data-name="Path 10897" d="M8480.759,2507.783a.386.386,0,0,1-.455-.3l0-.016a22.74,22.74,0,0,0-1.9-5.405c-1.371-3.008-1.5-6.37,2.513-7.569a.381.381,0,0,1,.476.258.436.436,0,0,1,.013.054c.094.668.544,2.261,2.383,5.824C8485.909,2504.748,8483.875,2507.146,8480.759,2507.783Z" fill="#142266"/>
      </g>
      <g id="Group_3115" data-name="Group 3115">
        <path id="Path_10898" data-name="Path 10898" d="M8473.588,2491.681a.387.387,0,0,0,.19-.511l-.009-.015a22.78,22.78,0,0,1-1.655-5.486c-.669-3.237-2.548-6.029-6.5-4.626a.383.383,0,0,0-.232.489.29.29,0,0,0,.022.051c.318.6.9,2.146,1.516,6.108C8467.639,2492.272,8470.7,2493,8473.588,2491.681Z" fill="#142266"/>
        <path id="Path_10899" data-name="Path 10899" d="M8475.19,2494.923a.388.388,0,0,1-.384-.39v-.016a22.762,22.762,0,0,0-.735-5.682c-.716-3.228-.146-6.544,4.03-6.884a.384.384,0,0,1,.412.352.515.515,0,0,1,0,.055c-.047.674.063,2.325,1.12,6.193C8480.857,2493.023,8478.365,2494.947,8475.19,2494.923Z" fill="#142266"/>
      </g>
      <g id="Group_3116" data-name="Group 3116">
        <path id="Path_10900" data-name="Path 10900" d="M8471.52,2477.682a.386.386,0,0,0,.292-.462l0-.015a22.746,22.746,0,0,1-.479-5.71c.019-3.306-1.239-6.427-5.395-5.877a.382.382,0,0,0-.328.43.51.51,0,0,0,.012.055c.188.649.43,2.286.213,6.29C8465.579,2477.022,8468.42,2478.375,8471.52,2477.682Z" fill="#142266"/>
        <path id="Path_10901" data-name="Path 10901" d="M8472.413,2481.185a.387.387,0,0,1-.293-.461l0-.015a22.748,22.748,0,0,0,.461-5.711c-.029-3.306,1.219-6.431,5.375-5.894a.384.384,0,0,1,.33.431.5.5,0,0,1-.011.053c-.187.649-.423,2.287-.193,6.29C8478.352,2480.507,8475.515,2481.869,8472.413,2481.185Z" fill="#142266"/>
      </g>
      <g id="Group_3117" data-name="Group 3117">
        <path id="Path_10902" data-name="Path 10902" d="M8472.407,2463.56a.386.386,0,0,0,.38-.392v-.015a22.78,22.78,0,0,1,.718-5.685c.706-3.229.124-6.544-4.054-6.87a.383.383,0,0,0-.411.353.52.52,0,0,0,0,.055c.049.674-.055,2.325-1.1,6.2C8466.736,2461.679,8469.234,2463.594,8472.407,2463.56Z" fill="#142266"/>
        <path id="Path_10903" data-name="Path 10903" d="M8472.555,2467.172a.388.388,0,0,1-.19-.512l.007-.014a22.754,22.754,0,0,0,1.639-5.49c.659-3.24,2.529-6.037,6.483-4.648a.382.382,0,0,1,.233.488.514.514,0,0,1-.022.052c-.317.6-.889,2.149-1.5,6.113C8478.5,2467.747,8475.447,2468.486,8472.555,2467.172Z" fill="#142266"/>
      </g>
      <g id="Group_3118" data-name="Group 3118">
        <path id="Path_10904" data-name="Path 10904" d="M8476.215,2449.931a.387.387,0,0,0,.454-.3l0-.016a22.749,22.749,0,0,1,1.884-5.411c1.362-3.012,1.482-6.375-2.537-7.562a.382.382,0,0,0-.475.259.349.349,0,0,0-.012.055c-.092.669-.536,2.263-2.364,5.833C8471.056,2446.912,8473.1,2449.3,8476.215,2449.931Z" fill="#142266"/>
        <path id="Path_10905" data-name="Path 10905" d="M8475.605,2453.494a.385.385,0,0,1-.081-.54l.01-.013a22.78,22.78,0,0,0,2.744-5.03c1.317-3.032,3.729-5.379,7.307-3.2a.383.383,0,0,1,.127.526.364.364,0,0,1-.033.046c-.434.517-1.315,1.917-2.733,5.668C8481.307,2455.29,8478.161,2455.38,8475.605,2453.494Z" fill="#142266"/>
      </g>
      <g id="Group_3119" data-name="Group 3119">
        <path id="Path_10906" data-name="Path 10906" d="M8482.772,2437.39a.386.386,0,0,0,.507-.2l.006-.014a22.718,22.718,0,0,1,2.968-4.9c1.958-2.663,2.775-5.928-.91-7.925a.381.381,0,0,0-.519.156.29.29,0,0,0-.022.05c-.229.635-1,2.1-3.524,5.214C8478.353,2433.364,8479.856,2436.129,8482.772,2437.39Z" fill="#142266"/>
        <path id="Path_10907" data-name="Path 10907" d="M8481.434,2440.749a.386.386,0,0,1,.034-.545l.013-.01a22.744,22.744,0,0,0,3.729-4.35c1.919-2.692,4.766-4.487,7.813-1.609a.385.385,0,0,1,.013.542c-.013.013-.026.025-.04.037-.532.416-1.687,1.6-3.854,4.976C8486.638,2443.691,8483.542,2443.126,8481.434,2440.749Z" fill="#142266"/>
      </g>
      <g id="Group_3120" data-name="Group 3120">
        <path id="Path_10908" data-name="Path 10908" d="M8491.793,2426.486a.387.387,0,0,0,.538-.093l.009-.013a22.759,22.759,0,0,1,3.922-4.177c2.47-2.2,3.947-5.222.758-7.94a.384.384,0,0,0-.541.045.41.41,0,0,0-.031.043c-.356.574-1.411,1.849-4.532,4.367C8488.308,2421.63,8489.2,2424.646,8491.793,2426.486Z" fill="#142266"/>
        <path id="Path_10909" data-name="Path 10909" d="M8489.786,2429.5a.386.386,0,0,1,.146-.526l.014-.007a22.857,22.857,0,0,0,4.553-3.479c2.437-2.234,5.594-3.4,7.976.05a.383.383,0,0,1-.1.533.3.3,0,0,1-.046.028c-.607.3-1.983,1.216-4.8,4.066C8494.265,2433.453,8491.354,2432.256,8489.786,2429.5Z" fill="#142266"/>
      </g>
      <g id="Group_3121" data-name="Group 3121">
        <path id="Path_10910" data-name="Path 10910" d="M8502.883,2417.7a.387.387,0,0,0,.545.022l.013-.011a22.745,22.745,0,0,1,4.7-3.271c2.872-1.637,4.946-4.287,2.393-7.609a.383.383,0,0,0-.539-.067.222.222,0,0,0-.039.035c-.468.487-1.764,1.516-5.34,3.329C8500.484,2412.223,8500.732,2415.359,8502.883,2417.7Z" fill="#142266"/>
        <path id="Path_10911" data-name="Path 10911" d="M8500.295,2420.222a.387.387,0,0,1,.252-.485l.017,0a22.823,22.823,0,0,0,5.177-2.456c2.848-1.678,6.179-2.16,7.792,1.708a.383.383,0,0,1-.207.5c-.018.007-.035.013-.053.018-.655.163-2.192.777-5.545,2.978C8503.852,2425.026,8501.254,2423.25,8500.295,2420.222Z" fill="#142266"/>
      </g>
      <g id="Group_3122" data-name="Group 3122">
        <path id="Path_10912" data-name="Path 10912" d="M8515.559,2411.405a.387.387,0,0,0,.529.134l.014-.008a22.687,22.687,0,0,1,5.282-2.221c3.15-1,5.729-3.165,3.922-6.946a.384.384,0,0,0-.513-.179.433.433,0,0,0-.046.027c-.559.379-2.041,1.116-5.916,2.146C8514.35,2405.551,8513.941,2408.671,8515.559,2411.405Z" fill="#142266"/>
        <path id="Path_10913" data-name="Path 10913" d="M8512.5,2413.337a.386.386,0,0,1,.348-.421h.017a22.815,22.815,0,0,0,5.574-1.326c3.135-1.05,6.492-.829,7.266,3.29a.381.381,0,0,1-.306.446.345.345,0,0,1-.057.007c-.675.024-2.3.3-6.042,1.76C8514.983,2418.776,8512.81,2416.5,8512.5,2413.337Z" fill="#142266"/>
      </g>
    </g>
    <g id="Group_3389" data-name="Group 3389" transform="translate(-5701.464 -2702.821)">
      <g id="Group_3124" data-name="Group 3124">
        <path id="Path_10914" data-name="Path 10914" d="M8539,2562.664l-76.121-77.573-2.5,10.058L8539,2575.27l78.621-80.121-2.5-10.058Z" fill="#e65416"/>
        <path id="Path_10915" data-name="Path 10915" d="M8615.125,2485.09l-2.833-11.4c-31.187-3.9-51.662-17.144-63.632-28.04a99.245,99.245,0,0,1-9.656-10.114,99.139,99.139,0,0,1-9.656,10.114c-11.97,10.9-32.443,24.144-63.632,28.04l-2.833,11.4L8539,2562.663Z" fill="#b5311b"/>
      </g>
      <path id="Path_10916" data-name="Path 10916" d="M8621.447,2463.321c-62.61-4.005-82.444-46.74-82.444-46.74s-19.835,42.735-82.444,46.74l-8.056,31.144L8539,2583.1l90.5-88.632Zm-161.066,31.828,5.334-21.457c31.188-3.9,51.662-17.144,63.632-28.04a99.164,99.164,0,0,0,9.656-10.114,99.27,99.27,0,0,0,9.656,10.114c11.97,10.9,32.443,24.144,63.632,28.04l5.334,21.457L8539,2575.27Z" fill="#142266"/>
    </g>
    <g id="Group_86" data-name="Group 86" transform="translate(-5701.464 -2702.821)">
      <g id="Path_7346" data-name="Path 7346">
        <path id="Path_425" data-name="Path 425" d="M8594.19,2457.041c-15.158-14.819-29.8-28.817-34.334-33.1-.781-.745-1.6-1.489-2.379-2.16-.26-2.01-1.3-7.334-4.532-8.376-4.273-1.377-48.6-2.979-47.116,19.4.143,2.457.372,4.952.706,7.186-5.2,2.755-3.2,10.61,5.8,7.633,6.8,1.488,20.475,3.462,23.738,2.085,2.936-1.229,5.388-9.756,6.5-14.223,10.59,14.893,7.84,17.536,13.191,39.131,1.374,5.547,2.192,7,2.415,7.335l.074.074-.074-.074c-.669-.82-6.391-7.186-22.89-4.99-17.65,2.346-20.511,13.255-20.511,13.255a42.891,42.891,0,0,0-20.511-6.255h0a21.484,21.484,0,0,0-19.491,9.982l-.053.082a27.8,27.8,0,0,0,4.833,35.416c9.021,8.18,14.734,13.181,21.23,13.3a10.931,10.931,0,0,0,4.6-1.105c3.621-1.62,7.9-1.761,10.211-5.024a100.867,100.867,0,0,0,38.569,1.154c20.919-3.5,26.642-15.191,34.444-21.819a83.689,83.689,0,0,1,14.751-10.127S8609.386,2471.86,8594.19,2457.041Z" fill="none" stroke="#142266" stroke-width="14"/>
        <path id="Path_426" data-name="Path 426" d="M8594.19,2457.041c-15.158-14.819-29.8-28.817-34.334-33.1-.781-.745-1.6-1.489-2.379-2.16-.26-2.01-1.3-7.334-4.532-8.376-4.273-1.377-48.6-2.979-47.116,19.4.143,2.457.372,4.952.706,7.186-5.2,2.755-3.2,10.61,5.8,7.633,6.8,1.488,20.475,3.462,23.738,2.085,2.936-1.229,5.388-9.756,6.5-14.223,10.59,14.893,7.84,17.536,13.191,39.131,1.374,5.547,2.192,7,2.415,7.335l.074.074-.074-.074c-.669-.82-6.391-7.186-22.89-4.99-17.65,2.346-20.511,13.255-20.511,13.255a42.891,42.891,0,0,0-20.511-6.255h0a21.484,21.484,0,0,0-19.491,9.982l-.053.082a27.8,27.8,0,0,0,4.833,35.416c9.021,8.18,14.734,13.181,21.23,13.3a10.931,10.931,0,0,0,4.6-1.105c3.621-1.62,7.9-1.761,10.211-5.024a100.867,100.867,0,0,0,38.569,1.154c20.919-3.5,26.642-15.191,34.444-21.819a83.689,83.689,0,0,1,14.751-10.127S8609.386,2471.86,8594.19,2457.041Z" fill="#e65416" fill-rule="evenodd"/>
      </g>
      <path id="Path_427" data-name="Path 427" d="M8538.853,2415.2s-34.871-4.128-31.047,24.6C8507.806,2439.8,8505.471,2419,8538.853,2415.2Z" fill="#fff" fill-rule="evenodd"/>
      <path id="Path_428" data-name="Path 428" d="M8551.648,2415.583s-.991,8.808,10.349,13.982,21.676,21.358,22.122,23.449c0,0-16.948-21.14-26.856-20.863S8551.648,2415.583,8551.648,2415.583Z" fill="#b5311b" fill-rule="evenodd"/>
      <path id="Path_429" data-name="Path 429" d="M8473.5,2512.678s-1.948-27.712,23.292-27.587C8496.793,2485.091,8480.454,2483.994,8473.5,2512.678Z" fill="#fff" fill-rule="evenodd"/>
      <path id="Path_430" data-name="Path 430" d="M8515.88,2493.647s20.621-25.6,42.913-8.427C8558.793,2485.22,8539.023,2476.731,8515.88,2493.647Z" fill="#fff" fill-rule="evenodd"/>
      <path id="Path_431" data-name="Path 431" d="M8591.35,2460.28s13.536,6.937,8.551,41.78A108.664,108.664,0,0,0,8591.35,2460.28Z" fill="#b5311b" fill-rule="evenodd"/>
      <path id="Path_432" data-name="Path 432" d="M8572.331,2522s12-16.691,23.576-18.653C8595.907,2503.352,8575.148,2506.669,8572.331,2522Z" fill="#b5311b" fill-rule="evenodd"/>
    </g>
    <g id="Group_3391" data-name="Group 3391" transform="translate(-5701.464 -2702.821)">
      <ellipse id="Ellipse_224" data-name="Ellipse 224" cx="17.219" cy="9.559" rx="17.219" ry="9.559" transform="translate(8591.964 2549.093)" fill="#142266"/>
      <ellipse id="Ellipse_225" data-name="Ellipse 225" cx="17.219" cy="9.559" rx="17.219" ry="9.559" transform="translate(8451.549 2549.093)" fill="#142266"/>
      <ellipse id="Ellipse_226" data-name="Ellipse 226" cx="10.228" cy="5.678" rx="10.228" ry="5.678" transform="translate(8461.886 2553.88)" fill="#dc2648"/>
      <ellipse id="Ellipse_227" data-name="Ellipse 227" cx="10.228" cy="5.678" rx="10.228" ry="5.678" transform="translate(8595.61 2553.88)" fill="#dc2648"/>
      <path id="Path_10918" data-name="Path 10918" d="M8538.858,2526.474c-27.59,0-55.179,5.5-82.769,6.093a4.807,4.807,0,0,0-4.7,4.811v19.99a5.888,5.888,0,0,0,5.882,5.893l.154,0c27.143-.735,54.285-6.06,81.427-6.06s54.285,5.326,81.428,6.06a5.887,5.887,0,0,0,6.034-5.736c0-.052,0-.1,0-.155v-19.99a4.805,4.805,0,0,0-4.7-4.811C8594.036,2531.976,8566.447,2526.474,8538.858,2526.474Z" fill="#142266"/>
      <g id="Group_89" data-name="Group 89">
        <g id="Group_88" data-name="Group 88">
          <g id="Group_87" data-name="Group 87">
            <path id="Path_433" data-name="Path 433" d="M8485.4,2552.965q-3.573.315-7.143.679-.822-8.084-1.64-16.168,3.677-.375,7.358-.7,1.422,1.152,2.832,2.311.188,2.28.379,4.559l-.938,1.089q.555.466,1.106.935.188,2.271.377,4.54Q8486.555,2551.585,8485.4,2552.965Zm-.865-3.9-.152-1.717c-.325-.273-.647-.546-.975-.819q-1.349.122-2.7.252l.334,3.493q1.332-.127,2.663-.249Zm-.737-8.3-1-.8q-1.358.125-2.714.254l.334,3.492q1.358-.13,2.717-.254l.819-.96Q8483.871,2541.637,8483.794,2540.768Z" fill="#fff"/>
            <path id="Path_434" data-name="Path 434" d="M8488.712,2536.378q1.586-.126,3.174-.243.593,8.1,1.19,16.207-1.541.112-3.081.236Q8489.352,2544.478,8488.712,2536.378Z" fill="#fff"/>
            <path id="Path_435" data-name="Path 435" d="M8502.9,2551.708q-3.885.215-7.771.487-.564-8.106-1.128-16.212,1.588-.111,3.176-.213l.838,13.145q2.354-.15,4.715-.281C8502.787,2549.658,8502.846,2550.683,8502.9,2551.708Z" fill="#fff"/>
            <path id="Path_436" data-name="Path 436" d="M8514.663,2551.186q-4.856.162-9.706.412-.417-8.115-.83-16.23,5-.256,10-.424.05,1.539.1,3.077-3.394.112-6.785.267.081,1.752.159,3.5,1.572-.072,3.141-.135.06,1.539.122,3.075-1.563.063-3.124.135.079,1.752.159,3.5,3.33-.152,6.661-.262Q8514.611,2549.647,8514.663,2551.186Z" fill="#fff"/>
            <path id="Path_437" data-name="Path 437" d="M8526.45,2550.924q-1.583.018-3.168.045-.99-3.842-2.008-7.679-.8,1.422-1.584,2.846.057,2.453.115,4.9-1.542.037-3.085.083-.236-8.121-.473-16.244,1.589-.047,3.18-.085.059,2.565.118,5.129,1.441-2.6,2.913-5.192,1.834-.033,3.667-.054-1.342,2.324-2.661,4.655Q8524.985,2545.124,8526.45,2550.924Z" fill="#fff"/>
            <path id="Path_438" data-name="Path 438" d="M8543.431,2548.458q-1.307,1.245-2.6,2.5-2.3-.036-4.606-.053-1.274-1.281-2.564-2.556.013-5.581.031-11.162,1.32-1.269,2.654-2.532,2.373.016,4.745.055,1.293,1.292,2.575,2.591-.028,1.293-.056,2.585-1.572-.033-3.147-.056l.018-1.17-.892-.894-1.813-.021q-.457.437-.912.874-.037,4.166-.07,8.33c.294.3.591.593.883.89q.889.008,1.778.02.45-.435.9-.869c.008-.452.014-.9.021-1.355l-2.159-.027q.018-1.539.034-3.078,2.653.03,5.3.083Q8543.493,2545.535,8543.431,2548.458Z" fill="#fff"/>
            <path id="Path_439" data-name="Path 439" d="M8555.244,2548.83q-1.333,1.217-2.655,2.44-2.3-.087-4.605-.154-1.236-1.31-2.487-2.611.168-6.852.339-13.7,1.589.039,3.178.086-.192,6.142-.375,12.285l.863.909q.889.029,1.777.059.458-.425.922-.849.226-6.141.454-12.282c1.061.039,2.117.081,3.178.126Q8555.535,2541.983,8555.244,2548.83Zm-5.4-18.125-.076,2.338q-1.213-.037-2.425-.07.032-1.168.065-2.338Q8548.631,2530.667,8549.848,2530.705Zm4.693.167q-.05,1.168-.1,2.337-1.211-.048-2.422-.091c.026-.779.058-1.558.085-2.337Q8553.324,2530.825,8554.541,2530.872Z" fill="#fff"/>
            <path id="Path_440" data-name="Path 440" d="M8565.065,2544.957q.768,3.512,1.512,7.023c-1.066-.068-2.137-.133-3.2-.2q-.722-3.341-1.468-6.68l-1.289-.068q-.171,3.288-.345,6.578c-1.025-.054-2.055-.1-3.08-.151q.376-8.116.757-16.233,3.681.171,7.365.391,1.245,1.348,2.478,2.7-.148,2.273-.3,4.545Q8566.276,2543.91,8565.065,2544.957Zm-.618-3.7q.053-.869.1-1.74-.437-.456-.875-.913-1.358-.078-2.714-.149-.091,1.752-.185,3.5,1.349.071,2.7.147C8563.8,2541.826,8564.125,2541.544,8564.447,2541.261Z" fill="#fff"/>
            <path id="Path_441" data-name="Path 441" d="M8578.636,2552.889q-4.834-.42-9.679-.751.555-8.106,1.114-16.212,4.989.341,9.975.773-.135,1.533-.269,3.067-3.384-.294-6.765-.545-.132,1.749-.261,3.5,1.567.115,3.132.242l-.246,3.067c-1.037-.083-2.078-.163-3.115-.24q-.13,1.749-.261,3.5,3.322.247,6.64.535Q8578.77,2551.355,8578.636,2552.889Z" fill="#fff"/>
            <path id="Path_442" data-name="Path 442" d="M8590.624,2551.5q-1.414,1.127-2.812,2.259-2.291-.238-4.588-.457-1.148-1.387-2.309-2.77.116-1.289.233-2.576,1.55.141,3.1.289l-.111,1.165q.4.483.8.964l1.771.177c.333-.261.663-.524,1-.785q.091-.867.179-1.735c-.272-.324-.548-.647-.82-.971q-1.6-.16-3.192-.314-1.17-1.4-2.36-2.795.207-2.266.413-4.535,1.418-1.149,2.848-2.291,2.364.225,4.726.472,1.175,1.4,2.338,2.808-.141,1.275-.278,2.549-1.556-.17-3.113-.33.059-.582.121-1.164-.419-.476-.834-.951c-.6-.062-1.2-.121-1.8-.18-.331.263-.656.526-.987.79q-.083.857-.167,1.714.407.494.811.987,1.617.159,3.23.327,1.16,1.4,2.306,2.8Q8590.873,2549.23,8590.624,2551.5Z" fill="#fff"/>
            <path id="Path_443" data-name="Path 443" d="M8594.222,2538.114q1.581.178,3.158.365-.959,8.067-1.92,16.136-1.532-.18-3.065-.354Q8593.306,2546.188,8594.222,2538.114Z" fill="#fff"/>
          </g>
        </g>
        <circle id="Ellipse_8" data-name="Ellipse 8" cx="1.622" cy="1.622" r="1.622" transform="matrix(0.863, -0.505, 0.505, 0.863, 8487.771, 2532.847)" fill="#fff"/>
        <circle id="Ellipse_9" data-name="Ellipse 9" cx="1.622" cy="1.622" r="1.622" transform="matrix(0.863, -0.505, 0.505, 0.863, 8594.172, 2535.063)" fill="#fff"/>
        <path id="Path_444" data-name="Path 444" d="M8585.668,2552.976l-.166,1.544,1.7.206-.342,3.18-3.632-.44.127-1.182,2.313.281.088-.817-1.7-.207.293-2.726-.831-.1" fill="#fff"/>
      </g>
    </g>
    <path id="Path_464" data-name="Path 464" d="M8485.13,2526.474s27.415-9.643,76.746-3.9C8561.876,2522.574,8522.868,2509.878,8485.13,2526.474Z" transform="translate(-5701.464 -2702.821)" fill="#b5311b" fill-rule="evenodd"/>
  </g>
</svg>
