<svg xmlns="http://www.w3.org/2000/svg" width="81" height="100" viewBox="0 0 81 100">
  <g id="Group_911" data-name="Group 911" transform="translate(0)">
    <path id="Path_7347" data-name="Path 7347" d="M406.576,624.822a13.078,13.078,0,0,0,3.193,3.138c1.07.712,1,.675.2,1.66a12.381,12.381,0,0,0-2.34,5.108,27.328,27.328,0,0,0-.617,7.68c.054.821-.218,1.168-1.016,1.241-.762.055-1.506.237-2.268.31-.544.055-.726.347-.744.839-.018,1.131-.073,2.28-.073,3.411,0,.474-.109.73-.617.8-.6.091-1.2.237-1.8.383a.623.623,0,0,1-.671-.164,14.59,14.59,0,0,1-1.85-2.372,1.376,1.376,0,0,1,.236-1.842c1.4-1.24,1.6-2.718,1.451-4.542a51.144,51.144,0,0,1,.961-13.08,76.947,76.947,0,0,1,3.973-14.466,24.788,24.788,0,0,1,1.288-2.718c.254-.456.29-.693-.181-1.04a7.855,7.855,0,0,1-3.338-7.99,5.383,5.383,0,0,1,3.537-4.214c4.372-1.824,6.984.42,8.508,3.922a6.02,6.02,0,0,1,.526,1.551c.091.62.363.529.726.31,1.107-.639,2.177-1.332,3.3-1.916a18.057,18.057,0,0,1,6.821-1.551c5.714-.6,11.429-1.022,17.143-1.514,1.524-.128,1.76.073,1.941,1.569.054.456.091.912.109,1.386a2.139,2.139,0,0,1-2.413,2.116c-.562-.073-.345-.438-.363-.748-.018-.292.2-.73-.308-.821-.526-.091-.454.328-.49.657-.073.584-.4.4-.708.219-.671-.383-1.088-.255-1.2.566-.036.2-.145.4-.2.6-.417,1.35-.435,1.441-1.814,1.095A7.925,7.925,0,0,0,430.631,606c-.29.219-.581.42-.889.639-1.143.839-1.143.839-.308,1.952,2.05,2.773,4.463,3.247,7.4,1.459,5.37-3.266,10.685-6.6,15.764-10.307a28.755,28.755,0,0,0,2.83-2.937,88.742,88.742,0,0,1,13.134-10.344,41.241,41.241,0,0,1,7.365-4.141c1.8-.73,1.923-.219,2.249,1.2a19.789,19.789,0,0,1,.544,3.266c.054.784-.2,1.113-1.034,1.076a16.314,16.314,0,0,0-5.769.748A6.527,6.527,0,0,0,467.8,592.2a15.015,15.015,0,0,1-3.882,5.655c-.4.328-.29.657-.2,1.058.272,1.222.508,2.444.762,3.685.127.639-.127.857-.78,1.022-3.338.876-6.6,1.97-8.8,4.907a16.386,16.386,0,0,0-2.485,5.947c-.889,3.411-1.633,6.841-2.63,10.216a118.608,118.608,0,0,0-3.356,13.226,33.291,33.291,0,0,0-.218,10.818c.2,1.332.345,2.682.653,4,.127.584,0,.894-.653,1.021-1.107.2-2.2.493-3.3.712a.852.852,0,0,0-.6.438c-.526.784-.4,2.025-1.6,2.372-.272.073-.218.365.054.456a1.618,1.618,0,0,0,.726.018c.526-.128.617.055.562.566-.218,1.715-.653,3.357-1.016,5.035-.49,2.171-1.161,4.323-1.451,6.531a6.854,6.854,0,0,0,.907,4.031c1.433,2.919,1.2,2.426-1.088,3.794-2.213,1.332-4.481,2.572-6.712,3.867a3.716,3.716,0,0,1-2.921.219c-.272-.073-.635-.146-.726-.474-.109-.4.218-.62.472-.821a32.519,32.519,0,0,0,3.991-3.758,7.043,7.043,0,0,0,1.9-4.962c0-8.173-.181-16.327-.363-24.5a38.929,38.929,0,0,0-1.125-7.06c-.889-4.2-1.887-8.373-1.85-12.7,0-.748-.29-.839-.871-.638a34.087,34.087,0,0,1-6.313,1.459,29.539,29.539,0,0,1-11.175-.292A26.338,26.338,0,0,1,406.576,624.822ZM434.4,622.25a1.349,1.349,0,0,1,.381.237,21.4,21.4,0,0,1,3.356,6.64,45.815,45.815,0,0,1,1.487,7.826c.073.547.145,1.022.835.42a6.74,6.74,0,0,1,1.161-.693.591.591,0,0,0,.272-.784,45.649,45.649,0,0,0-3.755-10.362,11.4,11.4,0,0,0-4.481-4.816,16.968,16.968,0,0,1-.091,3.484.985.985,0,0,0,.345-.456C434.1,623.253,434.241,622.779,434.4,622.25Zm5.7-23.223a1.32,1.32,0,0,0-1.342,1.605c.018.274.036.493.381.493.327,0,.417-.182.4-.474-.036-.511.073-.912.689-.949.218-.018.454-.073.417-.365C440.608,598.954,440.3,599.064,440.1,599.027Zm-1.361,55.767c.054.328-.091.821.435.839.58.036.308-.456.308-.748a.551.551,0,0,1,.4-.62c.254-.091.744-.018.562-.493-.145-.4-.58-.237-.889-.164A1.087,1.087,0,0,0,438.74,654.795Z" transform="translate(-397.729 -581.986)" fill="#fff"/>
    <path id="Path_7348" data-name="Path 7348" d="M560.733,836.1a12.408,12.408,0,0,0-.617,3.43,14.558,14.558,0,0,0,.816,3.849,13.6,13.6,0,0,1,.4,7.425,16.055,16.055,0,0,1-1.85,3.959c-.29.456-.617.4-1.016.164a16.58,16.58,0,0,0-1.742-1c-.671-.31-.617-.6-.163-1.076a9.075,9.075,0,0,0,2.286-4.068,16.106,16.106,0,0,0,.091-5.746,11.3,11.3,0,0,1,.145-4.743A3.833,3.833,0,0,1,560.733,836.1Z" transform="translate(-527.468 -789.743)" fill="#fff"/>
  </g>
</svg>
