<svg xmlns="http://www.w3.org/2000/svg" viewBox="0 0 20 20">
  <defs>
    <style>
      .cls-1 {
        fill: #fff;
      }
    </style>
  </defs>
  <g id="Group_1042" data-name="Group 1042" transform="translate(-1106.9 -44.4)">
    <path id="Path_7331" data-name="Path 7331" class="cls-1" d="M1109.756,47.538a.109.109,0,0,1-.041-.012,10.136,10.136,0,0,0-2.5,4.686,20.759,20.759,0,0,1,5.934-1.853C1112.541,48.025,1109.879,47.555,1109.756,47.538Zm13.081-1.226a9.9,9.9,0,0,0-5.312-1.912v5.531c.575.012,1.149.041,1.712.094A5.319,5.319,0,0,1,1122.837,46.312Zm-9.376,4.962a20.389,20.389,0,0,0-6.52,2.117c-.023.287-.041.581-.041.874a9.927,9.927,0,0,0,1.243,4.821,5.418,5.418,0,0,1,1.953-2.416C1110.307,56.517,1113.344,54.189,1113.461,51.274Zm7.189-.891a20.79,20.79,0,0,1,5.934,1.83,10.289,10.289,0,0,0-2.492-4.686.109.109,0,0,1-.041.012C1123.922,47.555,1121.265,48.03,1120.65,50.382Zm6.2,2.968a20.606,20.606,0,0,0-6.514-2.076c.106,2.921,3.149,5.243,3.366,5.4a5.389,5.389,0,0,1,1.953,2.411,9.9,9.9,0,0,0,1.243-4.809C1126.894,53.96,1126.883,53.655,1126.853,53.35Zm-15.931,4.639-.035.023a3.28,3.28,0,0,0-1.454,2.88.31.31,0,0,1,.006.076,9.743,9.743,0,0,0,6.837,3.431V51.274c-.528.012-1.05.047-1.565.094C1114.716,55.11,1111.081,57.872,1110.922,57.989Zm11.991.023-.029-.023c-.164-.123-3.805-2.886-3.794-6.628q-.774-.07-1.566-.088V64.4a9.687,9.687,0,0,0,6.837-3.431.361.361,0,0,1,.006-.076A3.281,3.281,0,0,0,1122.913,58.013Zm-8.349-7.988c.563-.053,1.137-.088,1.712-.1V44.4a9.92,9.92,0,0,0-5.312,1.912A5.308,5.308,0,0,1,1114.564,50.025Z"/>
  </g>
</svg>
