<svg xmlns="http://www.w3.org/2000/svg" width="100.082" height="99.981" viewBox="0 0 100.082 99.981"><g transform="translate(-0.057 0.038)"><path d="M94.4,27c-4.7,1.8-10.8,2.7-16.5,3.1l-1.6,1.6a32.49,32.49,0,1,1-8.1-8l1.6-1.6c.4-5.6,1.3-11.7,3.1-16.5A49.842,49.842,0,1,0,94.4,27ZM50.8,49.2a2.656,2.656,0,0,0,3.8,0L77.7,26.1c6.8-.4,20.2-2,21-8.3.7-5-2.5-6.7-5.2-7.4l5.8-5.8A2.688,2.688,0,0,0,95.6.7h0L89.7,6.5c-.6-2.7-2.3-6.1-7.4-5.4-6.2.8-7.9,14.2-8.3,21L50.8,45.4a2.6,2.6,0,0,0,0,3.8ZM56.1,36a13.366,13.366,0,0,0-5.2-1A14.2,14.2,0,1,0,65,49.2a13.859,13.859,0,0,0-1-5.3l-9.3,9.3a5.555,5.555,0,0,1-7.9-.2,5.493,5.493,0,0,1,0-7.7Z" fill="#0b0539"/></g></svg>