<svg xmlns="http://www.w3.org/2000/svg" width="80.072" height="80" viewBox="0 0 80.072 80"><path d="M283.633,173.559h2.857v2.857h-2.857Zm0,0" transform="translate(-239.276 -146.416)" fill="#0b0539"/><path d="M324.458,12.857a1.429,1.429,0,0,1,1.01.418l3.276,3.276V0h-8.572V16.551l3.276-3.276A1.43,1.43,0,0,1,324.458,12.857Zm0,0" transform="translate(-270.1)" fill="#0b0539"/><path d="M8067.143,353.428h-8.571L8040,350.571V285.958a3.965,3.965,0,0,1,3.958-3.958h28.9v20a1.439,1.439,0,0,0,.418,1.009,1.428,1.428,0,0,0,2.021,0l4.7-4.705,4.705,4.705a1.428,1.428,0,0,0,2.437-1.009V282h4.287v68.57l-24.285,2.857ZM8045.715,342h0v2.857h40V342Zm0-10h0v2.857h40V332ZM8070,322h0v2.857h15.714V322Zm-13.25-26.21a13.28,13.28,0,0,0-.021,26.559h.021a13.28,13.28,0,1,0,0-26.559ZM8058.8,321.5a.516.516,0,0,1-.413-.189,1.089,1.089,0,0,1-.158-.674,1.07,1.07,0,0,1,.17-.692.466.466,0,0,1,.388-.181.477.477,0,0,1,.4.181,1.516,1.516,0,0,1,0,1.389A.468.468,0,0,1,8058.8,321.5Zm-.012-1.472a.134.134,0,0,0-.106.043.29.29,0,0,0-.073.136,1.97,1.97,0,0,0-.033.42,1.8,1.8,0,0,0,.033.412.285.285,0,0,0,.073.146l.01.006a.174.174,0,0,0,.1.036.138.138,0,0,0,.105-.043.281.281,0,0,0,.075-.138,1.987,1.987,0,0,0,.03-.42,1.842,1.842,0,0,0-.03-.41c-.024-.078-.044-.126-.075-.146A.174.174,0,0,0,8058.791,320.023Zm-1.41,1.462a.461.461,0,0,1-.327-.106.5.5,0,0,1-.156-.315l.3-.03a.253.253,0,0,0,.063.146.174.174,0,0,0,.126.043.222.222,0,0,0,.179-.1.728.728,0,0,0,.1-.39.407.407,0,0,1-.317.148.444.444,0,0,1-.345-.158.625.625,0,0,1,.01-.82.545.545,0,0,1,.4-.158.527.527,0,0,1,.431.2.96.96,0,0,1,.168.652,1.033,1.033,0,0,1-.179.672A.56.56,0,0,1,8057.381,321.485Zm.021-1.452a.153.153,0,0,0-.146.075.346.346,0,0,0-.063.229.386.386,0,0,0,.063.244.2.2,0,0,0,.168.073.2.2,0,0,0,.158-.073.363.363,0,0,0,.063-.221.34.34,0,0,0-.075-.244A.241.241,0,0,0,8057.4,320.033Zm-1.356,1.452a.468.468,0,0,1-.327-.106.505.505,0,0,1-.156-.315l.3-.03a.237.237,0,0,0,.063.146.168.168,0,0,0,.126.043.222.222,0,0,0,.179-.1.728.728,0,0,0,.1-.39.409.409,0,0,1-.314.148.469.469,0,0,1-.35-.158.632.632,0,0,1,.01-.82.547.547,0,0,1,.4-.158.527.527,0,0,1,.431.2.96.96,0,0,1,.168.652,1.023,1.023,0,0,1-.181.672A.553.553,0,0,1,8056.045,321.485Zm.021-1.452a.159.159,0,0,0-.148.075.363.363,0,0,0-.063.229.41.41,0,0,0,.063.244.206.206,0,0,0,.168.073.192.192,0,0,0,.159-.073.346.346,0,0,0,.063-.221.34.34,0,0,0-.073-.244A.241.241,0,0,0,8056.066,320.033Zm-1.009,1.432h-.337v-1.22a1.226,1.226,0,0,1-.433.242v-.294a1.294,1.294,0,0,0,.287-.158.618.618,0,0,0,.209-.274h.274v1.7Zm1.693-2.116a10.28,10.28,0,1,1,10.281-10.279A10.291,10.291,0,0,1,8056.75,319.349Zm-5.418-7.828a4.7,4.7,0,0,0,.743,3.181l.018.027.048.075a5.343,5.343,0,0,0,4.392,2.5h.039v-2.1a3.235,3.235,0,0,1-2.748-1.988,4.341,4.341,0,0,1-.325-1.7h-.433v.41l-.357.01v-.41l-.516.012-.01.41-.327.01v-.433l-.524-.01Zm8.817-.033h0s0,.008,0,.03a3.305,3.305,0,0,1-2.989,3.644V317.3a5.937,5.937,0,0,0,2.351-.632,5.237,5.237,0,0,0,2.817-4.262,6.521,6.521,0,0,0-.022-.893h-.473l.01.42h-.39V311.5l-.453.01-.008.42-.337.01V311.5h-.506v-.012Zm-6.1-.377h0a3.484,3.484,0,0,0,.758,2.637,2.935,2.935,0,0,0,1.861.907,2.868,2.868,0,0,0,2.216-.895,3.88,3.88,0,0,0,.743-2.661l.01-.022h3.261a1.659,1.659,0,0,0-1.608-1.141l-.053,0c-.046,0-.093-.006-.139-.006a2,2,0,0,0-1.482.793l-.012-1.388,2.778-.03a1.389,1.389,0,0,0-1.409-.991h-.03a1.736,1.736,0,0,0-1.327.843v-1.326l.4-.483v-.41h-.4s0-.059,0-.145c-.006-.243-.018-.747-.018-1.023l-.083-.822-.264-1.862h-.073l-.274,1.862c-.03.178-.083.628-.083.632v1.369h-.757l.01-1.525.42-.579v-.307l-.42-.01v.01l-.033-1.379a1.922,1.922,0,0,0-.041-.325l-.307-2h-.083l-.3,1.968-.042.412-.021,1.324-.78-.01v.01c0-.017,0-.5-.007-.894,0-.23,0-.423,0-.462a3.307,3.307,0,0,0-.042-.357l-.337-1.99h-.094l-.307,2.146V304.2a2.588,2.588,0,0,1-.01.348h-.4l-.01.315.4.579v1.525h-.79s0-.046,0-.112c0-.252-.016-.843-.007-1.056a7.175,7.175,0,0,0-.083-.894l-.285-1.8h-.105c0,.007-.048.344-.1.735-.064.464-.138.99-.149,1.064-.022.124-.075.689-.075.695l-.02,1.356h-.39v.41l.39.485v1.314l-.053.012a1.426,1.426,0,0,0-1.314-.822,1.469,1.469,0,0,0-1.369.926l2.735.033.01,1.482h-.053a1.842,1.842,0,0,0-1.58-.894h-.031a1.776,1.776,0,0,0-1.747,1.253l3.418-.043Zm-7.2,5.083h0l-.158-.221,1.1-.768.158.221-1.1.767Zm19.856-.043h0l-.6-.377a1.568,1.568,0,0,1-.274-.2.456.456,0,0,1-.105-.158.38.38,0,0,1-.01-.189.739.739,0,0,1,.105-.241.685.685,0,0,1,.189-.222.417.417,0,0,1,.179-.073h.006a.456.456,0,0,1,.067-.007.253.253,0,0,1,.1.018,1.211,1.211,0,0,1,.3.156l.611.38-.136.254-.622-.39-.064-.039-.018-.011a.748.748,0,0,0-.12-.066.191.191,0,0,0-.156,0,.3.3,0,0,0-.138.126.228.228,0,0,0-.053.169.265.265,0,0,0,.063.126,1.037,1.037,0,0,0,.191.126l.629.39-.146.231Zm-20.13-.579h0a.379.379,0,0,1-.2-.083.772.772,0,0,1-.169-.211.64.64,0,0,1-.085-.39.369.369,0,0,1,.191-.262l.126.242a.237.237,0,0,0-.1.136.222.222,0,0,0,.042.169.356.356,0,0,0,.136.136.084.084,0,0,0,.048.017.082.082,0,0,0,.047-.017c.034-.01.043-.042.053-.073a.819.819,0,0,0-.043-.262l-.009-.04a1.387,1.387,0,0,1-.044-.267.46.46,0,0,1,.053-.2.45.45,0,0,1,.159-.148.374.374,0,0,1,.221-.051.346.346,0,0,1,.221.083.613.613,0,0,1,.189.232.6.6,0,0,1,.083.4.467.467,0,0,1-.222.3l-.146-.211a.278.278,0,0,0,.126-.179.287.287,0,0,0-.043-.2.339.339,0,0,0-.146-.148.216.216,0,0,0-.078-.015.164.164,0,0,0-.071.015.117.117,0,0,0-.053.065.21.21,0,0,0,0,.114.784.784,0,0,0,.032.145l.021.076a.681.681,0,0,1,.033.337.366.366,0,0,1-.179.242A.413.413,0,0,1,8046.574,315.572Zm20.712-.806a.224.224,0,0,1-.119-.036.355.355,0,0,1-.126-.126.336.336,0,0,1-.042-.179.3.3,0,0,1-.189.116.407.407,0,0,1-.054,0,.4.4,0,0,1-.157-.034.372.372,0,0,1-.136-.116.336.336,0,0,1-.073-.169.41.41,0,0,1,.021-.191.92.92,0,0,1,.059-.134c.021-.044.047-.1.077-.161l.211-.41,1.2.611-.254.473a1.184,1.184,0,0,1-.116.211.319.319,0,0,1-.116.093.322.322,0,0,1-.146.043A.205.205,0,0,1,8067.287,314.765Zm.07-.824h0l-.083.158a1.338,1.338,0,0,0-.068.139l0,.011a.211.211,0,0,1-.012.026.163.163,0,0,0-.01.118.187.187,0,0,0,.073.083.152.152,0,0,0,.065.018.132.132,0,0,0,.041-.008.14.14,0,0,0,.085-.073l.018-.033.013-.024c.019-.036.046-.085.076-.145l.083-.136-.274-.136Zm-.516-.264h0l-.116.221-.02.042a.572.572,0,0,0-.053.127.222.222,0,0,0,0,.116.174.174,0,0,0,.083.085.2.2,0,0,0,.105.02.141.141,0,0,0,.1-.053.74.74,0,0,0,.126-.211l.1-.189-.317-.158Zm-21.013.873h0l-.43-.978.209-.093.159.368,1.021-.453.105.254-1.011.441.158.37-.21.093Zm12.533-.725h-1.369l.684-1.18.684,1.178Zm-1.621,0h-1.369l.685-1.18.683,1.178Zm11.4-.347h0l-.673-.221c-.164-.058-.263-.1-.317-.126a.336.336,0,0,1-.136-.126.43.43,0,0,1-.053-.176.928.928,0,0,1,.042-.266.643.643,0,0,1,.138-.264.5.5,0,0,1,.156-.114.333.333,0,0,1,.168-.033,2.333,2.333,0,0,1,.336.083l.685.221-.085.252-.694-.219a.905.905,0,0,0-.219-.063.246.246,0,0,0-.254.2.28.28,0,0,0-.01.179.141.141,0,0,0,.085.106l0,0a1.105,1.105,0,0,0,.2.081l.7.231-.083.253Zm-21.509-.347h0l-1.44-.085-.083-.274,1.115-.924.085.274-.254.209.168.516.327.01.083.273Zm-.757-.642-.42.325.526.022Zm10.027-.022h-1.367l.685-1.178.681,1.176Zm3.3-.03h-1.367l.682-1.178.684,1.176Zm-1.651,0h-1.369l.684-1.178.684,1.176Zm-12.712-.506h0l-.042-.261.79-.7-.883.158-.043-.252,1.326-.231.042.274-.768.684.861-.148.042.252-1.325.221Zm22.646-.043h0l-.221-.04.2-.926,1.293.274-.051.262-1.084-.232-.136.661Zm-10.755-.873h-1.369l.685-1.178.683,1.176Zm1.6-.01h-1.366l.684-1.178.681,1.176Zm10.533-.262h0l-.7-.053a1.6,1.6,0,0,1-.335-.043.434.434,0,0,1-.161-.093.451.451,0,0,1-.093-.171.678.678,0,0,1-.02-.262.765.765,0,0,1,.063-.284.349.349,0,0,1,.125-.148.531.531,0,0,1,.157-.063,1.333,1.333,0,0,1,.142-.008c.05,0,.1,0,.167.007l.027,0,.717.053-.022.264-.725-.053c-.116-.01-.19-.01-.222-.01a.2.2,0,0,0-.136.073.287.287,0,0,0-.063.179.241.241,0,0,0,.03.179.184.184,0,0,0,.105.073,1.874,1.874,0,0,0,.231.032l.737.053-.022.273Zm-24.285-.264h0l-.042-.515c0-.031,0-.06,0-.087v-.019a.649.649,0,0,1,0-.135.32.32,0,0,1,.042-.148.269.269,0,0,1,.105-.114.294.294,0,0,1,.156-.055.359.359,0,0,1,.179.043.391.391,0,0,1,.128.126.332.332,0,0,1,.1-.2.343.343,0,0,1,.2-.083.546.546,0,0,1,.179.03.354.354,0,0,1,.146.106l0,.007a.415.415,0,0,1,.07.172,2.8,2.8,0,0,1,.031.327l.032.451-1.335.1Zm.325-.831a.13.13,0,0,0-.093.041.158.158,0,0,0-.042.106c0,.032,0,.106.01.231l.01.158.307-.02-.012-.181c0-.039-.006-.073-.008-.1a.574.574,0,0,0-.012-.1.248.248,0,0,0-.053-.106A.183.183,0,0,0,8044.9,309.648Zm.548-.085a.167.167,0,0,0-.105.032.13.13,0,0,0-.051.079.86.86,0,0,0,0,.245l.02.232.359-.02-.022-.252c0-.036-.006-.068-.008-.1a.5.5,0,0,0-.012-.1.146.146,0,0,0-.063-.093A.2.2,0,0,0,8045.449,309.563Zm13.354.357v0a2.493,2.493,0,0,0-.726-.524l-.021-1.545.368-.422.38.422v2.071Zm-3.925,0v-2.071l.377-.422.433.422.01,1.493a2.887,2.887,0,0,0-.819.577Zm12.783-.493v0l-.008-.345.619-.39-.231-.211-.41.012-.01-.274,1.336-.053.01.274-.6.02.619.526.012.37-.538-.485-.8.557Zm-10.425-.294h0a3.153,3.153,0,0,0-.405-.026c-.092,0-.19,0-.3.014l-.021-1.271.357-.41.391.41-.021,1.282Zm-11.9-.122c-.039,0-.079,0-.119,0l-.717-.022.012-.274.725.022c.058.005.105.008.143.008a.279.279,0,0,0,.079-.008.189.189,0,0,0,.138-.073.315.315,0,0,0,.051-.181.276.276,0,0,0-.043-.179.194.194,0,0,0-.114-.073,1.205,1.205,0,0,0-.231-.02l-.747-.022.01-.272.7.02a1.266,1.266,0,0,1,.337.03.3.3,0,0,1,.168.085.45.45,0,0,1,.106.158.989.989,0,0,1,.03.264.654.654,0,0,1-.053.292.3.3,0,0,1-.116.158.271.271,0,0,1-.146.073A1.361,1.361,0,0,1,8045.337,309.011Zm.575-1.353h0l-1.3-.252.053-.264,1.084.211.126-.662.221.041-.179.925Zm21.635-.093v0l-.062-.315.251-.252a1.183,1.183,0,0,0,.169-.179l.008-.013a.165.165,0,0,0,.034-.082.649.649,0,0,0-.012-.136l-.01-.053-.546.106-.053-.264,1.326-.242.1.558a1.192,1.192,0,0,1,.022.315.3.3,0,0,1-.1.179.431.431,0,0,1-.2.1.369.369,0,0,1-.076.008.383.383,0,0,1-.188-.051.483.483,0,0,1-.168-.242.658.658,0,0,1-.083.168l-.022.023-.018.019c-.04.043-.085.09-.148.147l-.23.21Zm.936-1.147-.347.073.042.2a.568.568,0,0,0,.063.231.147.147,0,0,0,.073.063.333.333,0,0,0,.105.01.327.327,0,0,0,.1-.052.177.177,0,0,0,.035-.117,1.7,1.7,0,0,0-.033-.2Zm-11.228.536h-.76v-1.525l.37-.38.39.38v1.524Zm-11.006-.873h0l-1.272-.442.179-.493c.032-.084.064-.159.093-.221a.266.266,0,0,1,.1-.116.345.345,0,0,1,.136-.063.372.372,0,0,1,.067-.006.24.24,0,0,1,.091.016.312.312,0,0,1,.148.106.473.473,0,0,1,.063.169.447.447,0,0,1,.179-.138.2.2,0,0,1,.091-.019.468.468,0,0,1,.121.019.388.388,0,0,1,.156.1.608.608,0,0,1,.1.158.4.4,0,0,1,0,.189c-.011.045-.048.165-.1.317l-.146.43Zm-.211-.956h0a.167.167,0,0,0-.084.063,1.486,1.486,0,0,0-.094.219l-.073.221.335.116.085-.242.018-.051a.47.47,0,0,0,.036-.128.16.16,0,0,0-.021-.116.23.23,0,0,0-.1-.073A.409.409,0,0,0,8046.038,305.124Zm-.5-.125a.129.129,0,0,0-.048.009.12.12,0,0,0-.075.083,1.8,1.8,0,0,0-.083.221l-.053.136.294.106.053-.169c.02-.064.038-.117.054-.162l.009-.027a.148.148,0,0,0-.01-.116.181.181,0,0,0-.083-.073A.207.207,0,0,0,8045.54,305Zm22.08.99a.587.587,0,0,1-.251-.055.619.619,0,0,1-.327-.39.644.644,0,0,1,.021-.506.736.736,0,0,1,.422-.325,1.08,1.08,0,0,1,.345-.065.74.74,0,0,1,.211.065.461.461,0,0,1,.168.126.6.6,0,0,1,.148.252.647.647,0,0,1-.022.506.725.725,0,0,1-.43.337A.843.843,0,0,1,8067.62,305.989Zm.2-1.06a.684.684,0,0,0-.229.047.5.5,0,0,0-.294.211.362.362,0,0,0,.179.5.355.355,0,0,0,.142.028.833.833,0,0,0,.228-.039.5.5,0,0,0,.294-.211.348.348,0,0,0,.02-.294.344.344,0,0,0-.2-.219A.368.368,0,0,0,8067.817,304.929Zm-21.3-.284a.348.348,0,0,1-.066-.007,1.271,1.271,0,0,1-.314-.116l-.654-.3.1-.254.664.307.107.043.016.006.086.034a.191.191,0,0,0,.043,0,.323.323,0,0,0,.115-.025.243.243,0,0,0,.126-.136.3.3,0,0,0,.032-.181.157.157,0,0,0-.075-.116,1.652,1.652,0,0,0-.2-.106l-.674-.315.116-.242.642.294a1.85,1.85,0,0,1,.3.169.366.366,0,0,1,.118.148.5.5,0,0,1,.031.189.634.634,0,0,1-.073.252,1.048,1.048,0,0,1-.168.242.306.306,0,0,1-.169.1A.327.327,0,0,1,8046.515,304.645Zm20.927-.271a.461.461,0,0,1-.168-.041.305.305,0,0,1-.128-.1A1.486,1.486,0,0,1,8067,304l-.083-.158-.453.242-.126-.242,1.178-.63.2.388a1.223,1.223,0,0,1,.136.294.353.353,0,0,1-.022.232.387.387,0,0,1-.189.189A.366.366,0,0,1,8067.441,304.375Zm.01-.818h0l-.337.177.073.128a1.185,1.185,0,0,0,.118.179.191.191,0,0,0,.093.041.2.2,0,0,0,.105-.02.144.144,0,0,0,.083-.1.261.261,0,0,0,0-.126,1.756,1.756,0,0,0-.083-.179l-.053-.1Zm-1.1-.055a.373.373,0,0,1-.222-.073.842.842,0,0,1-.2-.219.53.53,0,0,1-.116-.39.515.515,0,0,1,.2-.327l.159.2a.309.309,0,0,0-.116.189.293.293,0,0,0,.053.2.374.374,0,0,0,.156.136.183.183,0,0,0,.072.016.129.129,0,0,0,.076-.024.089.089,0,0,0,.053-.063.226.226,0,0,0,0-.118l-.007-.021c-.007-.023-.029-.092-.066-.188a.8.8,0,0,1-.053-.327.345.345,0,0,1,.156-.252.358.358,0,0,1,.191-.053.367.367,0,0,1,.209.063.928.928,0,0,1,.181.2.572.572,0,0,1,.113.38.4.4,0,0,1-.178.274l-.159-.221a.219.219,0,0,0,.085-.148.226.226,0,0,0-.053-.169.319.319,0,0,0-.136-.126.131.131,0,0,0-.04-.007.1.1,0,0,0-.056.017.094.094,0,0,0-.043.075,1,1,0,0,0,.063.262,1.871,1.871,0,0,1,.075.294.324.324,0,0,1-.033.2.334.334,0,0,1-.146.156A.412.412,0,0,1,8066.347,303.5Zm-18.857-.229h0l-.472-.316-.926-.01.169-.264.619.02-.272-.546.168-.262.388.841.475.307-.147.231Zm.453-.916a.412.412,0,0,1-.168-.033,1.3,1.3,0,0,1-.284-.189l-.557-.453.167-.209.569.441c.071.061.127.1.161.125l.018.013a.2.2,0,0,0,.1.026.3.3,0,0,0,.058-.006.278.278,0,0,0,.148-.106.268.268,0,0,0,.073-.169.162.162,0,0,0-.042-.126.835.835,0,0,0-.168-.158l-.579-.463.168-.211.548.443a2.106,2.106,0,0,1,.251.232.354.354,0,0,1,.083.169.359.359,0,0,1-.01.189.543.543,0,0,1-.126.232.731.731,0,0,1-.221.2A.431.431,0,0,1,8047.943,302.356Zm17.279-.211h0l-.18-.2,1.011-.883.179.2-1.009.883Zm-.289-.512a.473.473,0,0,1-.176-.034.751.751,0,0,1-.242-.181.649.649,0,0,1-.188-.368.556.556,0,0,1,.136-.357l.2.189a.374.374,0,0,0-.075.211.427.427,0,0,0,.1.189.351.351,0,0,0,.179.106l.028,0a.149.149,0,0,0,.108-.045.1.1,0,0,0,.043-.073.152.152,0,0,0-.021-.116,1.412,1.412,0,0,0-.105-.2.774.774,0,0,1-.116-.317.339.339,0,0,1,.105-.274.294.294,0,0,1,.179-.093.212.212,0,0,1,.071-.011.367.367,0,0,1,.14.032.757.757,0,0,1,.22.158.533.533,0,0,1,.191.347.376.376,0,0,1-.116.3l-.2-.189a.237.237,0,0,0,.053-.158.232.232,0,0,0-.083-.158.4.4,0,0,0-.168-.093.134.134,0,0,0-.1.03.124.124,0,0,0-.033.085.605.605,0,0,0,.105.242,1.053,1.053,0,0,1,.138.272.443.443,0,0,1,0,.2.424.424,0,0,1-.314.294A.429.429,0,0,1,8064.933,301.633Zm-16.086-.152h0l-.913-.976.2-.191.422.443-.012-.81.264-.252-.01.725.946.231-.252.242-.707-.209-.01.315.274.294-.2.188Zm15.175-.609h0l-.81-.631.811-1.052.788.611-.136.177-.569-.441-.179.231.536.41-.136.179-.536-.41-.222.284.589.463-.135.178Zm-13.776-.158h0l-.07-.083.041-.026.006,0h0a1.054,1.054,0,0,0,.1-.066.237.237,0,0,0,.085-.093.065.065,0,0,0-.012-.063.055.055,0,0,0-.051-.032.155.155,0,0,0-.085.032.271.271,0,0,0-.083.083l-.033-.083a.369.369,0,0,1,.039-.045.571.571,0,0,1-.284.087l-.039,0a.512.512,0,0,1-.327-.189l.191-.179a.36.36,0,0,0,.189.106.381.381,0,0,0,.2-.063.357.357,0,0,0,.128-.158.19.19,0,0,0-.022-.148.128.128,0,0,0-.073-.053.091.091,0,0,0-.028,0,.312.312,0,0,0-.068.012l-.02,0-.018.006c-.042.013-.106.033-.193.067a.848.848,0,0,1-.285.066l-.04,0a.348.348,0,0,1-.254-.148.286.286,0,0,1-.063-.189.382.382,0,0,1,.063-.211.827.827,0,0,1,.191-.189.609.609,0,0,1,.343-.127l.035,0a.4.4,0,0,1,.284.169l-.211.169a.219.219,0,0,0-.146-.085.317.317,0,0,0-.168.063.331.331,0,0,0-.126.148.105.105,0,0,0,.01.1.133.133,0,0,0,.083.043.815.815,0,0,0,.254-.075,1.778,1.778,0,0,1,.294-.083.445.445,0,0,1,.2.03.431.431,0,0,1,.167.148.359.359,0,0,1,.073.209.443.443,0,0,1-.063.231.526.526,0,0,1-.118.142.235.235,0,0,0-.082.049l-.021.016a.687.687,0,0,0-.056.045.664.664,0,0,0,.065-.041.9.9,0,0,0,.094-.069.227.227,0,0,1,.087-.014.148.148,0,0,1,.126.063.144.144,0,0,1,.022.146.389.389,0,0,1-.168.2.43.43,0,0,1-.16.093Zm12.46-.831h0l-.23-.148.284-.473v-.926l.274.169-.012.621.548-.284.262.169-.831.4-.294.472Zm-11.859-.053h0l-.641-1.177.873-.473.106.2-.632.347.148.262.589-.325.105.2-.591.327.179.315.654-.368.105.2-.895.495Zm11.1-.39h0l-.241-.125.609-1.2.242.128-.608,1.2Zm-9.987-.219h0l-.546-1.232.252-.116.211.485.485-.221-.211-.485.252-.1.546,1.231-.252.106-.242-.538-.483.221.242.538-.252.115Zm9.219-.2h0a1.625,1.625,0,0,1-.231-.063l-.476-.179.485-1.253.451.169a.942.942,0,0,1,.233.116.5.5,0,0,1,.146.189.616.616,0,0,1,.043.254,1.019,1.019,0,0,1-.073.315.747.747,0,0,1-.138.254.554.554,0,0,1-.219.167A.669.669,0,0,1,8061.181,299.02Zm-.043-1.19h0l-.314.832.188.073a.4.4,0,0,0,.157.043.251.251,0,0,0,.039,0,.336.336,0,0,0,.068-.01l.021,0a.291.291,0,0,0,.114-.1.982.982,0,0,0,.111-.208l.006-.014a.916.916,0,0,0,.055-.191l0-.01c0-.011,0-.021.006-.031a.524.524,0,0,0-.02-.136l0-.01a.288.288,0,0,0-.093-.106,1.4,1.4,0,0,0-.2-.1l-.136-.043Zm-7.934.875h0l-.42-1.272.262-.085.42,1.273-.261.085Zm7.048-.033h0l-.988-.264.37-1.3.956.264-.063.219-.7-.189-.073.284.652.179-.063.221-.652-.179-.1.357.725.189-.062.22Zm-6.555-.146h0l-.314-1.325.556-.128a1.368,1.368,0,0,1,.258-.035.533.533,0,0,1,.059,0,.333.333,0,0,1,.179.1.4.4,0,0,1,.105.189.38.38,0,0,1-.03.262.41.41,0,0,1-.233.179l.013,0a.536.536,0,0,1,.156.071,1.863,1.863,0,0,1,.2.179l.221.221-.317.073-.252-.242a1.4,1.4,0,0,0-.179-.158.161.161,0,0,0-.1-.03.836.836,0,0,0-.136.02l-.055.01.128.548-.263.063Zm.4-1.233a1,1,0,0,0-.189.043l-.211.053.085.327.2-.043a1.07,1.07,0,0,0,.231-.073.143.143,0,0,0,.063-.075.193.193,0,0,0,0-.106.144.144,0,0,0-.063-.093A.193.193,0,0,0,8054.1,297.294Zm4.989,1.064h0l-.937-.168.241-1.306.264.043-.189,1.095.662.116-.041.22Zm-1.17-.179h0l-1.018-.075.116-1.336.989.073-.022.232-.725-.051-.021.292.672.043-.021.221-.674-.043-.02.37.745.051-.021.222Zm-2.378-.012h0l-.1-1.335.516-.041c.039,0,.075,0,.108,0l.073,0a.289.289,0,0,1,.063.006.358.358,0,0,1,.146.041.285.285,0,0,1,.114.1.328.328,0,0,1,.055.161.336.336,0,0,1-.042.179.127.127,0,1,0,.075.231.346.346,0,0,1,.083.2.508.508,0,0,1-.033.181.342.342,0,0,1-.1.141l0,.005a.451.451,0,0,1-.177.073,2.685,2.685,0,0,1-.327.033l-.452.03Zm.616-.629c-.04,0-.089,0-.153.009l-.231.02.02.357.254-.02c.045-.006.083-.009.113-.011a.5.5,0,0,0,.076-.009.167.167,0,0,0,.1-.063.22.22,0,0,0,.031-.118.177.177,0,0,0-.031-.1.142.142,0,0,0-.084-.053A.326.326,0,0,0,8056.156,297.538Zm-.037-.517c-.034,0-.1,0-.231.01l-.159.01.022.3.179-.01.089-.007a.451.451,0,0,0,.11-.015.223.223,0,0,0,.106-.051.19.19,0,0,0,.032-.106.139.139,0,0,0-.042-.1A.164.164,0,0,0,8056.119,297.022Z" transform="translate(-8025.642 -282)" fill="#0b0539"/><path d="M356.711,173.559h2.857v2.857h-2.857Zm0,0" transform="translate(-300.925 -146.416)" fill="#0b0539"/><path d="M31.5,462.588,4.358,465.3a4.286,4.286,0,0,1-.143-8.572L31.5,459.445Zm8.571-.143H34.357v-2.857h5.714Zm2.857.119v-3.111l25.714-2.571v4.136a7.1,7.1,0,0,0,1.083,3.777Zm0,0" transform="translate(0 -385.303)" fill="#0b0539"/><path d="M465.763,465.867v2.857a4.286,4.286,0,0,1-8.572,0v-2.857Zm0,0" transform="translate(-385.691 -393.01)" fill="#0b0539"/></svg>