<svg xmlns="http://www.w3.org/2000/svg" width="117.498" height="80" viewBox="0 0 117.498 80"><path d="M117.5,80H0V71.469H7.127a4.142,4.142,0,0,1-.215-1.309V22.081a4.142,4.142,0,0,1,4.147-4.127H33.59V69.128A6.888,6.888,0,0,0,34,71.469H36.71a4.143,4.143,0,0,1-.216-1.309V4.127A4.141,4.141,0,0,1,40.639,0H76.856A4.142,4.142,0,0,1,81,4.127V70.16a4.155,4.155,0,0,1-.215,1.309H83.5a6.9,6.9,0,0,0,.414-2.341V17.954h23.083a4.143,4.143,0,0,1,4.149,4.127V70.16a4.144,4.144,0,0,1-.218,1.309H117.5V80ZM50.524,49.525V71.193H67.977V49.525ZM99.806,48.7h0v5.915h5.943V48.7Zm-9.262,0h0v5.915h5.944V48.7Zm-67.875,0h0v5.915h5.946V48.7Zm-9.261,0h0v5.915h5.943V48.7Zm86.4-10.385h0v5.915h5.943V38.313Zm-9.262,0h0v5.915h5.944V38.313Zm-67.875,0h0v5.915h5.946V38.313Zm-9.261,0h0v5.915h5.943V38.313ZM58.748,5a16.25,16.25,0,0,0-.025,32.5h.025a16.25,16.25,0,1,0,0-32.5ZM99.806,28.271v5.915h5.943V28.271Zm-9.262,0v5.915h5.944V28.271Zm-67.875,0v5.915h5.946V28.271Zm-9.261,0v5.915h5.943V28.271Zm47.851,8.186a.63.63,0,0,1-.5-.231,1.308,1.308,0,0,1-.192-.827,1.322,1.322,0,0,1,.205-.847.64.64,0,0,1,.967,0,1.351,1.351,0,0,1,.205.847,1.332,1.332,0,0,1-.205.852A.573.573,0,0,1,61.259,36.456Zm-.012-1.8a.171.171,0,0,0-.13.051.363.363,0,0,0-.089.167,2.441,2.441,0,0,0-.038.517,2.16,2.16,0,0,0,.038.5.336.336,0,0,0,.089.183.238.238,0,0,0,.13.051.166.166,0,0,0,.129-.051.311.311,0,0,0,.089-.167,2.2,2.2,0,0,0,.041-.515,1.976,1.976,0,0,0-.041-.5.327.327,0,0,0-.089-.183A.232.232,0,0,0,61.247,34.653Zm-1.726,1.791a.561.561,0,0,1-.4-.129.606.606,0,0,1-.192-.386l.373-.041a.3.3,0,0,0,.076.183.2.2,0,0,0,.154.051A.265.265,0,0,0,59.753,36a.878.878,0,0,0,.116-.477.493.493,0,0,1-.386.18.554.554,0,0,1-.426-.193.7.7,0,0,1-.181-.49.682.682,0,0,1,.2-.512.668.668,0,0,1,.487-.2.654.654,0,0,1,.527.243,1.184,1.184,0,0,1,.206.8,1.273,1.273,0,0,1-.218.824A.691.691,0,0,1,59.521,36.444Zm.025-1.778a.187.187,0,0,0-.18.091.437.437,0,0,0-.079.284.481.481,0,0,0,.079.294.265.265,0,0,0,.4,0,.427.427,0,0,0,.076-.269.4.4,0,0,0-.091-.3A.279.279,0,0,0,59.547,34.665Zm-1.659,1.778a.565.565,0,0,1-.4-.129.6.6,0,0,1-.192-.386l.372-.041a.292.292,0,0,0,.079.183.2.2,0,0,0,.152.051.267.267,0,0,0,.22-.117.9.9,0,0,0,.117-.477.5.5,0,0,1-.388.18.57.57,0,0,1-.427-.193.7.7,0,0,1-.18-.49.679.679,0,0,1,.2-.512.7.7,0,0,1,1.018.048,1.218,1.218,0,0,1,.205.8,1.264,1.264,0,0,1-.219.824A.688.688,0,0,1,57.888,36.444Zm.022-1.778a.194.194,0,0,0-.18.091.441.441,0,0,0-.076.284.476.476,0,0,0,.076.294.249.249,0,0,0,.206.091.239.239,0,0,0,.2-.091.428.428,0,0,0,.076-.269.4.4,0,0,0-.09-.3A.288.288,0,0,0,57.91,34.665Zm-1.235,1.753h-.413V34.924a1.5,1.5,0,0,1-.524.294v-.358a1.642,1.642,0,0,0,.345-.2.762.762,0,0,0,.259-.335h.334v2.086Zm2.073-2.59A12.58,12.58,0,1,1,71.329,21.249,12.593,12.593,0,0,1,58.748,33.828ZM52.5,24.354a6.38,6.38,0,0,0,.861,4.036c.027.045.052.085.072.121A6,6,0,0,0,58.5,31.685h.043V29.019A3.759,3.759,0,0,1,55.374,26.5,6.074,6.074,0,0,1,55,24.354h-.5v.52l-.414.013v-.52l-.594.015-.013.52-.375.013v-.548l-.606-.013Zm10.172-.041h0a.181.181,0,0,0,0,.039,6.017,6.017,0,0,1-.395,2.31,3.52,3.52,0,0,1-3.056,2.3v2.707a6.356,6.356,0,0,0,2.713-.8,6.643,6.643,0,0,0,3.249-5.4,9.257,9.257,0,0,0-.026-1.131h-.545l.013.533h-.449v-.545l-.521.013-.014.533-.388.013v-.558h-.581v-.015Zm-7.042-.479h0a4.612,4.612,0,0,0,.974,3.456,2.973,2.973,0,0,0,4.507.017,5.17,5.17,0,0,0,.953-3.488l.013-.028H65.84a1.922,1.922,0,0,0-1.853-1.444l-.017,0-.051-.005c-.053,0-.105-.007-.157-.007a2.278,2.278,0,0,0-1.712,1.006l-.011-1.76,3.2-.041a1.622,1.622,0,0,0-1.626-1.251h-.037a2.02,2.02,0,0,0-1.53,1.066V19.677l.461-.614v-.517h-.461s0-.086,0-.21c-.007-.325-.018-.931-.018-1.272l-.1-1.037-.3-2.359h-.084l-.317,2.359c-.034.218-.094.773-.1.8v1.733h-.875l.012-1.93.485-.733V15.5l-.485-.013V15.5l-.035-1.745a2.739,2.739,0,0,0-.048-.413l-.353-2.532h-.1l-.353,2.494-.048.517L59.309,15.5l-.9-.013V15.5c0-.022,0-.639-.009-1.135,0-.29,0-.534,0-.582,0-.133-.048-.451-.048-.454l-.388-2.519h-.109L57.5,13.533v1.545a3.688,3.688,0,0,1-.009.442h-.463l-.014.4.463.733v1.933h-.911s0-.059,0-.142c0-.32-.02-1.069-.009-1.337a9.56,9.56,0,0,0-.1-1.134l-.327-2.278h-.122l-.106.843c-.076.6-.17,1.337-.184,1.435-.023.15-.079.8-.086.879l-.022,1.721h-.451v.52l.451.611v1.667l-.061.013a1.626,1.626,0,0,0-1.517-1.037,1.722,1.722,0,0,0-1.578,1.172l3.155.041.01,1.88H55.56A2.074,2.074,0,0,0,53.737,22.3H53.7a2.113,2.113,0,0,0-2.014,1.585l3.943-.053Zm-9,6.131h0L46.44,29.7l1.352-.941.193.271-1.352.938Zm24.3-.051h0l-.732-.461a1.922,1.922,0,0,1-.334-.246.514.514,0,0,1-.127-.193.427.427,0,0,1-.016-.233,1,1,0,0,1,.13-.294.832.832,0,0,1,.23-.271.541.541,0,0,1,.221-.089.548.548,0,0,1,.091-.01.3.3,0,0,1,.114.023,1.455,1.455,0,0,1,.373.193l.746.464-.165.307-.761-.474-.044-.027-.046-.028a1.038,1.038,0,0,0-.154-.087.268.268,0,0,0-.1-.019.273.273,0,0,0-.1.019.37.37,0,0,0-.165.152.272.272,0,0,0-.065.208A.3.3,0,0,0,70.1,29a1.274,1.274,0,0,0,.233.155l.771.477-.18.281ZM46.3,29.207h0a.45.45,0,0,1-.246-.1.83.83,0,0,1-.205-.256.752.752,0,0,1-.1-.477.455.455,0,0,1,.23-.322l.155.3a.253.253,0,0,0-.066.373.418.418,0,0,0,.168.167.11.11,0,0,0,.059.019.1.1,0,0,0,.058-.019c.037-.012.049-.044.061-.079l0-.01a.871.871,0,0,0-.05-.318A1.966,1.966,0,0,1,46.3,28.1a.56.56,0,0,1,.063-.246.536.536,0,0,1,.193-.18.486.486,0,0,1,.271-.063.419.419,0,0,1,.269.1.739.739,0,0,1,.233.284.72.72,0,0,1,.1.49.588.588,0,0,1-.271.373l-.18-.259a.345.345,0,0,0,.155-.218.356.356,0,0,0-.052-.244.394.394,0,0,0-.183-.18.249.249,0,0,0-.094-.019.193.193,0,0,0-.086.019.136.136,0,0,0-.063.076.264.264,0,0,0,0,.142,1.424,1.424,0,0,0,.05.221l0,.007.012.044a.81.81,0,0,1,.038.411.44.44,0,0,1-.218.3A.517.517,0,0,1,46.3,29.207Zm25.343-.987a.271.271,0,0,1-.144-.043.413.413,0,0,1-.208-.373.356.356,0,0,1-.231.139.384.384,0,0,1-.066.006.471.471,0,0,1-.189-.044.393.393,0,0,1-.167-.142.42.42,0,0,1-.092-.205.517.517,0,0,1,.025-.231,1.391,1.391,0,0,1,.07-.155l.021-.043q.034-.07.076-.162l.259-.5,1.47.746-.31.581a1.378,1.378,0,0,1-.143.256.382.382,0,0,1-.142.117.418.418,0,0,1-.181.051A.268.268,0,0,1,71.641,28.22Zm.087-1.009h0l-.1.2a1.34,1.34,0,0,0-.09.191l0,.01-.007.018a.185.185,0,0,0-.013.14.219.219,0,0,0,.088.1.185.185,0,0,0,.082.023.17.17,0,0,0,.048-.01.181.181,0,0,0,.1-.089c0-.01.014-.026.025-.049l.011-.019.017-.032c.021-.04.048-.089.076-.146l.1-.167-.335-.167Zm-.629-.322h0l-.142.271a.879.879,0,0,0-.092.205.27.27,0,0,0,0,.142.212.212,0,0,0,.1.1.229.229,0,0,0,.129.025.168.168,0,0,0,.114-.066.892.892,0,0,0,.154-.256l.117-.231-.386-.2ZM45.385,27.959h0l-.53-1.2.257-.114.2.452,1.248-.556.129.31-1.235.54.193.452-.256.116Zm15.223-.685H59.029l.789-1.492.788,1.49Zm-1.87,0H57.16l.789-1.492.788,1.49Zm13.944-.629h0l-.824-.271a3.684,3.684,0,0,1-.385-.152.389.389,0,0,1-.168-.157.478.478,0,0,1-.065-.218,1.135,1.135,0,0,1,.051-.322.833.833,0,0,1,.17-.322.574.574,0,0,1,.192-.139.4.4,0,0,1,.205-.041,2.87,2.87,0,0,1,.342.084l.07.02.837.269L73,25.7l-.85-.269a1.2,1.2,0,0,0-.271-.079.281.281,0,0,0-.181.053.3.3,0,0,0-.129.193.313.313,0,0,0-.013.218.184.184,0,0,0,.1.129,1.458,1.458,0,0,0,.255.1l.863.284-.1.308Zm-26.32-.424h0l-1.761-.1-.1-.335,1.365-1.134.1.335-.31.259.206.629.4.013.1.336Zm-.926-.786-.515.4.645.025Zm12.333.119h-1.58l.789-1.494.791,1.492Zm3.811-.041H60l.789-1.492.788,1.49Zm-1.905,0H58.1l.786-1.492.791,1.49Zm-15.5-.761h0l-.051-.321.967-.85L44,23.773l-.051-.309,1.621-.284.054.335-.941.837,1.058-.18.051.309-1.622.271ZM71.883,24.7h0l-.268-.051.243-1.134,1.584.335-.063.322L72.05,23.89l-.167.808Zm-13.157-.984H57.146l.79-1.494.788,1.492Zm1.846-.013H58.994l.789-1.494.788,1.492Zm13-.406h0l-.861-.063a2,2,0,0,1-.414-.053.444.444,0,0,1-.188-.117.453.453,0,0,1-.118-.205.814.814,0,0,1-.025-.322,1.046,1.046,0,0,1,.076-.348.427.427,0,0,1,.155-.18.616.616,0,0,1,.192-.076,1.074,1.074,0,0,1,.172-.01c.08,0,.161,0,.241.01l.875.063-.027.322-.888-.063c-.143-.013-.231-.013-.27-.013a.26.26,0,0,0-.167.089.376.376,0,0,0-.079.221.288.288,0,0,0,.041.218.229.229,0,0,0,.127.089,2.251,2.251,0,0,0,.284.041l.9.063-.025.334Zm-29.72-.322h0l-.051-.63c0-.037,0-.072,0-.1v-.03a.816.816,0,0,1,0-.159.409.409,0,0,1,.051-.18.362.362,0,0,1,.129-.142.385.385,0,0,1,.193-.066.4.4,0,0,1,.219.053.405.405,0,0,1,.154.155.425.425,0,0,1,.13-.246.4.4,0,0,1,.246-.1.6.6,0,0,1,.218.038.445.445,0,0,1,.181.129.6.6,0,0,1,.091.218,3.762,3.762,0,0,1,.038.4l.038.553-1.635.117Zm.4-1.017a.164.164,0,0,0-.116.051.2.2,0,0,0-.051.129c0,.042,0,.129.013.284l.012.193.373-.025-.012-.221c0-.047-.008-.087-.011-.121a.512.512,0,0,0-.016-.122A.279.279,0,0,0,44.378,22,.214.214,0,0,0,44.251,21.957Zm.67-.1a.221.221,0,0,0-.13.038.177.177,0,0,0-.065.1,1.409,1.409,0,0,0,0,.3l.027.284.437-.025-.025-.309c0-.043-.008-.081-.01-.113a.615.615,0,0,0-.016-.12.184.184,0,0,0-.076-.114A.268.268,0,0,0,44.921,21.856Zm16.2.472,0,0a2.92,2.92,0,0,0-.835-.662L60.255,19.7l.426-.533.437.533v2.625Zm-4.528,0V19.7l.439-.533.5.533.012,1.895a3.3,3.3,0,0,0-.945.728ZM72.1,21.688v0l-.016-.424.761-.477-.284-.256-.5.013-.013-.335,1.637-.066.013.335-.736.028.761.642.013.452L73.08,21l-.975.684ZM59.309,21.33h0a3.317,3.317,0,0,0-.465-.033c-.107,0-.218.006-.348.018L58.472,19.7l.41-.52.452.52-.025,1.627Zm-14.53-.153c-.044,0-.092,0-.142,0l-.875-.028.013-.335.888.025a1.7,1.7,0,0,0,.175.011.29.29,0,0,0,.1-.011.222.222,0,0,0,.167-.089.375.375,0,0,0,.063-.218.339.339,0,0,0-.053-.221.232.232,0,0,0-.141-.089,1.428,1.428,0,0,0-.283-.025l-.913-.028.013-.332.862.025a1.533,1.533,0,0,1,.413.038.362.362,0,0,1,.206.1.536.536,0,0,1,.127.2,1.216,1.216,0,0,1,.04.322.8.8,0,0,1-.065.36.375.375,0,0,1-.143.193.346.346,0,0,1-.18.089A1.691,1.691,0,0,1,44.778,21.177Zm.708-1.653h0l-1.595-.309.063-.322,1.326.259.155-.812.27.051-.219,1.133Zm26.475-.117v0l-.078-.383.31-.309a1.331,1.331,0,0,0,.205-.218l.011-.017a.209.209,0,0,0,.043-.1.761.761,0,0,0-.016-.167l-.013-.063-.67.129-.063-.322,1.621-.3.13.682a1.548,1.548,0,0,1,.024.386.365.365,0,0,1-.114.218.515.515,0,0,1-.245.117.451.451,0,0,1-.093.01.473.473,0,0,1-.229-.061.607.607,0,0,1-.205-.3.736.736,0,0,1-.1.205l-.037.04a2.579,2.579,0,0,1-.194.193l-.279.255ZM73.105,18l-.424.089.051.246a.712.712,0,0,0,.078.284.173.173,0,0,0,.09.076.245.245,0,0,0,.25-.046l.008-.005a.236.236,0,0,0,.038-.142,2.351,2.351,0,0,0-.038-.246Zm-13.771.566h-.875V16.638l.423-.479.452.479v1.932ZM45.9,17.591h0l-1.559-.54.218-.606c.056-.133.093-.22.117-.269a.3.3,0,0,1,.116-.142.444.444,0,0,1,.168-.079.413.413,0,0,1,.079-.008.307.307,0,0,1,.113.023.368.368,0,0,1,.181.127.632.632,0,0,1,.078.208.491.491,0,0,1,.219-.167.225.225,0,0,1,.108-.025.537.537,0,0,1,.147.025.486.486,0,0,1,.2.117.763.763,0,0,1,.114.19.488.488,0,0,1,0,.233c-.014.057-.057.2-.114.386l-.18.526Zm-.259-1.172h0a.228.228,0,0,0-.1.079,1.726,1.726,0,0,0-.117.271l-.088.269.413.142.1-.3.018-.052a.692.692,0,0,0,.046-.166.19.19,0,0,0-.025-.142.273.273,0,0,0-.114-.089A.425.425,0,0,0,45.642,16.42Zm-.611-.151a.162.162,0,0,0-.06.011.156.156,0,0,0-.091.1,2.455,2.455,0,0,0-.1.271l-.063.167.359.129.063-.208c.022-.075.041-.127.056-.169.01-.026.016-.046.021-.061a.19.19,0,0,0-.01-.142.252.252,0,0,0-.1-.089A.256.256,0,0,0,45.03,16.269ZM72.05,17.48a.717.717,0,0,1-.31-.068.736.736,0,0,1-.4-.477.8.8,0,0,1,.024-.616.945.945,0,0,1,.516-.4,1.372,1.372,0,0,1,.426-.076,1,1,0,0,1,.256.076.622.622,0,0,1,.206.155.741.741,0,0,1,.18.309.779.779,0,0,1-.025.619.862.862,0,0,1-.527.411A1,1,0,0,1,72.05,17.48Zm.243-1.3a.857.857,0,0,0-.281.057.607.607,0,0,0-.36.259.4.4,0,0,0-.027.36.415.415,0,0,0,.246.259.465.465,0,0,0,.175.03.975.975,0,0,0,.276-.046.6.6,0,0,0,.36-.256.449.449,0,0,0,.025-.36.429.429,0,0,0-.243-.271A.463.463,0,0,0,72.293,16.183Zm-26.068-.346a.414.414,0,0,1-.081-.008,1.49,1.49,0,0,1-.386-.142l-.8-.373L45.075,15l.81.373.159.064c.046.019.08.033.1.04a.265.265,0,0,0,.052,0,.38.38,0,0,0,.141-.03.3.3,0,0,0,.155-.167.361.361,0,0,0,.037-.218.182.182,0,0,0-.088-.142,1.615,1.615,0,0,0-.246-.129l-.824-.386.142-.3.786.36a2.682,2.682,0,0,1,.373.205.472.472,0,0,1,.143.18.649.649,0,0,1,.037.233.747.747,0,0,1-.091.307,1.179,1.179,0,0,1-.205.3.359.359,0,0,1-.206.117A.386.386,0,0,1,46.225,15.837Zm25.607-.33a.549.549,0,0,1-.2-.048.37.37,0,0,1-.157-.119,1.6,1.6,0,0,1-.183-.3l-.1-.193-.553.3-.155-.3,1.44-.774.246.477a1.579,1.579,0,0,1,.168.36.438.438,0,0,1-.025.284.493.493,0,0,1-.233.231A.441.441,0,0,1,71.832,15.506Zm.013-1h0l-.414.218.092.155a1.1,1.1,0,0,0,.143.221.222.222,0,0,0,.113.051.229.229,0,0,0,.129-.025.182.182,0,0,0,.1-.117.319.319,0,0,0,0-.155,1.883,1.883,0,0,0-.1-.218l-.062-.129Zm-1.353-.063a.458.458,0,0,1-.271-.091.949.949,0,0,1-.243-.271.659.659,0,0,1-.143-.474.645.645,0,0,1,.244-.4l.2.246a.382.382,0,0,0-.145.231.392.392,0,0,0,.065.246.479.479,0,0,0,.193.167.236.236,0,0,0,.085.017.146.146,0,0,0,.095-.033c.04-.012.05-.037.064-.074a.252.252,0,0,0,0-.144c-.006-.014-.013-.034-.021-.06-.018-.054-.039-.118-.07-.2a1.056,1.056,0,0,1-.063-.4.423.423,0,0,1,.192-.309.451.451,0,0,1,.231-.063.457.457,0,0,1,.259.079,1.072,1.072,0,0,1,.218.243.7.7,0,0,1,.143.464.489.489,0,0,1-.219.335l-.2-.271a.258.258,0,0,0,.1-.18.275.275,0,0,0-.063-.205.385.385,0,0,0-.167-.155.164.164,0,0,0-.05-.008.118.118,0,0,0-.067.021.107.107,0,0,0-.051.089,1.223,1.223,0,0,0,.076.325,2.135,2.135,0,0,1,.092.36.444.444,0,0,1-.221.436A.49.49,0,0,1,70.492,14.438Zm-23.075-.284h0l-.578-.385-1.133-.013.205-.322.761.025-.335-.67.206-.322.477,1.03.578.373-.18.283Zm.556-1.121A.557.557,0,0,1,47.764,13a1.654,1.654,0,0,1-.347-.231l-.68-.553.205-.259.694.54a1.789,1.789,0,0,0,.21.161l.009.006a.224.224,0,0,0,.12.035.317.317,0,0,0,.073-.009.415.415,0,0,0,.271-.335.209.209,0,0,0-.051-.155A1.152,1.152,0,0,0,48.062,12l-.708-.566.205-.259.67.543a2.4,2.4,0,0,1,.31.282.494.494,0,0,1,.1.208.449.449,0,0,1-.015.231.672.672,0,0,1-.152.284.915.915,0,0,1-.271.244A.526.526,0,0,1,47.973,13.033Zm21.143-.256h0l-.218-.245L70.13,11.45l.221.244-1.234,1.082Zm-.354-.627a.535.535,0,0,1-.211-.043.891.891,0,0,1-.3-.218.821.821,0,0,1-.231-.452A.663.663,0,0,1,68.187,11l.246.233a.438.438,0,0,0-.092.256.5.5,0,0,0,.117.233.448.448,0,0,0,.219.127.143.143,0,0,0,.035,0,.193.193,0,0,0,.132-.055.134.134,0,0,0,.053-.091.187.187,0,0,0-.027-.142,1.468,1.468,0,0,0-.129-.244.939.939,0,0,1-.141-.386.407.407,0,0,1,.13-.335.365.365,0,0,1,.218-.117.279.279,0,0,1,.086-.013.446.446,0,0,1,.171.039.917.917,0,0,1,.271.2.635.635,0,0,1,.23.424.449.449,0,0,1-.143.373l-.243-.231a.292.292,0,0,0,.063-.193.28.28,0,0,0-.1-.193.47.47,0,0,0-.208-.117.158.158,0,0,0-.114.038.148.148,0,0,0-.04.1.734.734,0,0,0,.129.3,1.26,1.26,0,0,1,.168.335.5.5,0,0,1,0,.244.543.543,0,0,1-.143.231.534.534,0,0,1-.243.129A.512.512,0,0,1,68.761,12.15Zm-19.683-.185h0l-1.118-1.2.244-.231.515.54-.013-.992.322-.309-.013.888,1.159.284-.31.3L49,10.986l-.013.388.335.36-.245.23Zm18.568-.748h0l-.991-.77.992-1.289.967.748-.168.218-.7-.54-.221.284.657.5-.168.218-.654-.5-.271.348.721.566-.166.217Zm-16.856-.19h0l-.088-.1a2.108,2.108,0,0,0,.18-.117.283.283,0,0,0,.1-.117.087.087,0,0,0-.015-.076.067.067,0,0,0-.063-.038.22.22,0,0,0-.1.038.388.388,0,0,0-.1.1l-.038-.1a.247.247,0,0,1,.045-.051.724.724,0,0,1-.348.1l-.048,0a.621.621,0,0,1-.4-.231l.232-.218a.4.4,0,0,0,.231.127.462.462,0,0,0,.243-.076.418.418,0,0,0,.157-.193.22.22,0,0,0-.028-.18.147.147,0,0,0-.086-.065.116.116,0,0,0-.037-.006.355.355,0,0,0-.083.015l-.024.006a2.448,2.448,0,0,0-.259.089,1.067,1.067,0,0,1-.352.082.34.34,0,0,1-.047,0,.434.434,0,0,1-.31-.183.352.352,0,0,1-.075-.231.458.458,0,0,1,.075-.259,1.037,1.037,0,0,1,.231-.231.752.752,0,0,1,.421-.157l.043,0a.5.5,0,0,1,.348.205l-.256.208a.265.265,0,0,0-.181-.1.37.37,0,0,0-.205.076.4.4,0,0,0-.154.183.116.116,0,0,0,.01.114.171.171,0,0,0,.1.051,1.012,1.012,0,0,0,.309-.089l.045-.015a1.8,1.8,0,0,1,.315-.087.531.531,0,0,1,.246.038.542.542,0,0,1,.206.18.447.447,0,0,1,.088.256.561.561,0,0,1-.076.284.675.675,0,0,1-.146.172.34.34,0,0,0-.1.058c-.032.026-.065.051-.094.079a.64.64,0,0,0,.081-.053.943.943,0,0,0,.112-.084.285.285,0,0,1,.108-.018.189.189,0,0,1,.155.076.186.186,0,0,1,.025.18.452.452,0,0,1-.206.246.6.6,0,0,1-.194.116Zm15.248-1.017h0l-.282-.182.348-.578V8.115l.335.206-.013.761.669-.348.32.206-1.015.49-.36.58ZM51.526,9.944h0L50.739,8.5l1.068-.578.13.246-.771.424.181.322.72-.4.129.243-.72.4.218.388.8-.452.129.244-1.092.606Zm13.583-.477h0l-.3-.154.749-1.466L65.855,8,65.11,9.466ZM52.891,9.2h0l-.67-1.5.31-.142.256.591.595-.269-.259-.594.309-.127.67,1.507-.31.127L53.5,8.127,52.9,8.4l.295.657-.306.139Zm11.277-.244h0a1.963,1.963,0,0,1-.281-.076l-.581-.218L63.9,7.125l.554.205a1.107,1.107,0,0,1,.283.142.61.61,0,0,1,.181.231.779.779,0,0,1,.051.307,1.234,1.234,0,0,1-.089.388.944.944,0,0,1-.167.309.694.694,0,0,1-.272.205A.868.868,0,0,1,64.168,8.952ZM64.117,7.5h0l-.385,1.017.23.089a.566.566,0,0,0,.2.053.218.218,0,0,0,.043.005.407.407,0,0,0,.109-.02.357.357,0,0,0,.143-.114,1.164,1.164,0,0,0,.133-.251l.009-.02a.946.946,0,0,0,.069-.25c0-.009,0-.018,0-.026l0-.008a.761.761,0,0,0-.019-.158l0-.022a.423.423,0,0,0-.119-.129,1.714,1.714,0,0,0-.244-.114L64.117,7.5ZM54.41,8.566h0l-.517-1.556.324-.1.516,1.557-.321.1Zm8.627-.038h0l-1.209-.322.449-1.6,1.172.322-.076.271-.862-.233-.091.348.8.221-.079.269-.8-.218-.116.439.888.231-.075.27Zm-8.023-.18h0l-.385-1.622.682-.155a1.635,1.635,0,0,1,.314-.043.58.58,0,0,1,.071.005.4.4,0,0,1,.221.117.526.526,0,0,1,.13.231.466.466,0,0,1-.041.322.505.505,0,0,1-.281.218.831.831,0,0,1,.205.091,2.231,2.231,0,0,1,.244.218L56.444,8l-.388.089-.308-.3a2.131,2.131,0,0,0-.218-.193.219.219,0,0,0-.116-.038.677.677,0,0,0-.107.015l-.018,0-.043.008-.065.013.154.67-.321.078ZM55.5,6.841a1.092,1.092,0,0,0-.23.051l-.259.063.1.4.243-.051a1.287,1.287,0,0,0,.284-.091.194.194,0,0,0,.079-.089.224.224,0,0,0,0-.129.2.2,0,0,0-.079-.117A.239.239,0,0,0,55.5,6.841Zm6.1,1.3h0l-1.144-.205.295-1.6.322.051-.231,1.339.813.142-.054.268Zm-1.428-.218h0l-1.247-.089L59.072,6.2l1.208.091-.023.282-.89-.063-.026.36.822.051-.022.271-.824-.053-.028.452.915.066-.024.268Zm-2.91-.013h0l-.116-1.635.632-.051c.046,0,.09,0,.129,0l.089,0a.334.334,0,0,1,.076.005.417.417,0,0,1,.181.051A.328.328,0,0,1,58.4,6.4l0,.007a.372.372,0,0,1,.066.193.41.41,0,0,1-.054.221.427.427,0,0,1-.154.152.4.4,0,0,1,.347.375.638.638,0,0,1-.038.218.447.447,0,0,1-.126.18l-.017.01a.539.539,0,0,1-.205.082,3.205,3.205,0,0,1-.4.038l-.552.038Zm.752-.77c-.047,0-.105,0-.186.011l-.284.025.027.436.31-.025L58,7.577a.6.6,0,0,0,.115-.015.19.19,0,0,0,.117-.079.276.276,0,0,0,.038-.14.229.229,0,0,0-.038-.129.187.187,0,0,0-.1-.063A.417.417,0,0,0,58.021,7.139Zm-.044-.633c-.042,0-.129,0-.284.013l-.192.013.025.373.221-.013.121-.01a.6.6,0,0,0,.122-.015.324.324,0,0,0,.129-.063.224.224,0,0,0,.039-.129.159.159,0,0,0-.052-.117A.2.2,0,0,0,57.977,6.506Z" transform="translate(0 0)" fill="#0b0539"/></svg>