<svg xmlns="http://www.w3.org/2000/svg" width="181" height="180.956" viewBox="0 0 181 180.956">
  <g id="basketbol" transform="translate(1199 294.716)">
    <g id="Group_3058" data-name="Group 3058" transform="translate(-5701.464 -2702.821)">
      <g id="Group_3086" data-name="Group 3086">
        <g id="Group_3058-2" data-name="Group 3058-2">
          <path id="Path_10767" data-name="Path 10767" d="M4597.371,2548.367a.386.386,0,0,1,.428-.338l.016,0a22.694,22.694,0,0,0,5.729-.12c3.286-.364,6.522.561,6.408,4.75a.383.383,0,0,1-.394.372.5.5,0,0,1-.055-.006c-.665-.119-2.318-.189-6.278.445C4598.645,2554.207,4597,2551.523,4597.371,2548.367Z" fill="#142266"/>
          <path id="Path_10768" data-name="Path 10768" d="M4593.79,2547.847a.386.386,0,0,0,.489.242l.011,0a22.736,22.736,0,0,1,5.632-1.056c3.291-.316,6.269-1.884,5.3-5.961a.383.383,0,0,0-.461-.284.319.319,0,0,0-.054.017c-.626.253-2.23.659-6.236.849C4593.845,2541.867,4592.786,2544.833,4593.79,2547.847Z" fill="#142266"/>
        </g>
        <g id="Group_3059" data-name="Group 3059">
          <path id="Path_10769" data-name="Path 10769" d="M4611.322,2546.007a.386.386,0,0,1,.349-.42h.016a22.719,22.719,0,0,0,5.579-1.308c3.138-1.039,6.5-.807,7.256,3.314a.384.384,0,0,1-.31.446.239.239,0,0,1-.053.006c-.675.022-2.307.3-6.048,1.741C4613.785,2551.449,4611.621,2549.17,4611.322,2546.007Z" fill="#142266"/>
          <path id="Path_10770" data-name="Path 10770" d="M4607.714,2546.241a.386.386,0,0,0,.528.137l.014-.009a22.776,22.776,0,0,1,5.289-2.2c3.153-.993,5.74-3.146,3.945-6.933a.384.384,0,0,0-.511-.181.417.417,0,0,0-.048.027c-.56.378-2.044,1.109-5.923,2.127C4606.524,2540.383,4606.1,2543.5,4607.714,2546.241Z" fill="#142266"/>
        </g>
        <g id="Group_3060" data-name="Group 3060">
          <path id="Path_10771" data-name="Path 10771" d="M4624.478,2540.8a.385.385,0,0,1,.253-.483l.016,0a22.741,22.741,0,0,0,5.185-2.439c2.854-1.669,6.186-2.14,7.786,1.733a.384.384,0,0,1-.211.5.4.4,0,0,1-.05.016c-.656.161-2.194.77-5.553,2.96C4628.025,2545.613,4625.425,2543.829,4624.478,2540.8Z" fill="#142266"/>
          <path id="Path_10772" data-name="Path 10772" d="M4621,2541.777a.385.385,0,0,0,.545.023l.012-.011a22.744,22.744,0,0,1,4.716-3.255c2.877-1.628,4.96-4.271,2.417-7.6a.385.385,0,0,0-.539-.07.35.35,0,0,0-.04.036c-.469.486-1.769,1.51-5.351,3.312C4618.616,2536.294,4618.855,2539.432,4621,2541.777Z" fill="#142266"/>
        </g>
        <g id="Group_3061" data-name="Group 3061">
          <path id="Path_10773" data-name="Path 10773" d="M4636.266,2532.965a.385.385,0,0,1,.148-.525l.014-.008a22.739,22.739,0,0,0,4.565-3.464c2.444-2.226,5.606-3.38,7.976.076a.383.383,0,0,1-.1.532.335.335,0,0,1-.047.028c-.608.294-1.986,1.21-4.817,4.051C4640.731,2536.94,4637.825,2535.734,4636.266,2532.965Z" fill="#142266"/>
          <path id="Path_10774" data-name="Path 10774" d="M4633.065,2534.648a.386.386,0,0,0,.539-.088l.008-.012a22.753,22.753,0,0,1,3.936-4.164c2.476-2.19,3.964-5.209.784-7.938a.384.384,0,0,0-.54.042c-.012.015-.023.03-.033.045-.358.573-1.417,1.844-4.546,4.352C4629.6,2529.78,4630.481,2532.8,4633.065,2534.648Z" fill="#142266"/>
        </g>
        <g id="Group_3062" data-name="Group 3062">
          <path id="Path_10775" data-name="Path 10775" d="M4646.167,2522.854a.384.384,0,0,1,.033-.543l.014-.012a22.785,22.785,0,0,0,3.744-4.338c1.928-2.685,4.781-4.471,7.818-1.584a.384.384,0,0,1,.011.543.322.322,0,0,1-.039.036c-.533.414-1.692,1.6-3.87,4.963C4651.361,2525.811,4648.267,2525.238,4646.167,2522.854Z" fill="#142266"/>
          <path id="Path_10776" data-name="Path 10776" d="M4643.385,2525.165a.386.386,0,0,0,.508-.2l.006-.015a22.747,22.747,0,0,1,2.984-4.892c1.967-2.657,2.8-5.919-.883-7.928a.385.385,0,0,0-.521.154.393.393,0,0,0-.021.046c-.231.634-1,2.1-3.542,5.2C4638.979,2521.124,4640.469,2523.894,4643.385,2525.165Z" fill="#142266"/>
        </g>
        <g id="Group_3063" data-name="Group 3063">
          <path id="Path_10777" data-name="Path 10777" d="M4653.748,2510.909a.385.385,0,0,1-.079-.54l.01-.013a22.739,22.739,0,0,0,2.761-5.021c1.327-3.028,3.747-5.367,7.318-3.175a.383.383,0,0,1,.125.527.287.287,0,0,1-.032.045c-.436.516-1.323,1.913-2.753,5.659C4659.444,2512.719,4656.3,2512.8,4653.748,2510.909Z" fill="#142266"/>
          <path id="Path_10778" data-name="Path 10778" d="M4651.509,2513.744a.385.385,0,0,0,.455-.3l0-.016a22.747,22.747,0,0,1,1.9-5.405c1.371-3.008,1.5-6.371-2.513-7.571a.384.384,0,0,0-.476.258.271.271,0,0,0-.012.054c-.094.669-.544,2.261-2.383,5.825C4646.359,2510.708,4648.4,2513.106,4651.509,2513.744Z" fill="#142266"/>
        </g>
        <g id="Group_3064" data-name="Group 3064">
          <path id="Path_10779" data-name="Path 10779" d="M4658.681,2497.642a.384.384,0,0,1-.19-.51l.008-.016a22.767,22.767,0,0,0,1.656-5.486c.669-3.237,2.548-6.029,6.5-4.627a.384.384,0,0,1,.231.49.44.44,0,0,1-.022.05c-.319.6-.9,2.146-1.516,6.108C4664.63,2498.233,4661.569,2498.966,4658.681,2497.642Z" fill="#142266"/>
          <path id="Path_10780" data-name="Path 10780" d="M4657.079,2500.884a.385.385,0,0,0,.382-.389v-.017a22.733,22.733,0,0,1,.737-5.683c.716-3.227.145-6.544-4.032-6.883a.384.384,0,0,0-.412.352.52.52,0,0,0,0,.055c.047.674-.062,2.325-1.119,6.193C4651.411,2498.986,4653.9,2500.908,4657.079,2500.884Z" fill="#142266"/>
        </g>
        <g id="Group_3065" data-name="Group 3065">
          <path id="Path_10781" data-name="Path 10781" d="M4660.747,2483.642a.386.386,0,0,1-.292-.461l0-.016a22.764,22.764,0,0,0,.48-5.71c-.019-3.306,1.239-6.427,5.394-5.877a.384.384,0,0,1,.328.431.353.353,0,0,1-.011.054c-.188.649-.43,2.286-.213,6.29C4666.689,2482.983,4663.847,2484.336,4660.747,2483.642Z" fill="#142266"/>
          <path id="Path_10782" data-name="Path 10782" d="M4659.858,2487.146a.385.385,0,0,0,.292-.461l0-.015a22.718,22.718,0,0,1-.461-5.711c.03-3.306-1.219-6.431-5.375-5.9a.385.385,0,0,0-.33.432.287.287,0,0,0,.011.052c.186.649.423,2.287.193,6.29C4653.916,2486.467,4656.753,2487.829,4659.858,2487.146Z" fill="#142266"/>
        </g>
        <g id="Group_3066" data-name="Group 3066">
          <path id="Path_10783" data-name="Path 10783" d="M4659.858,2469.519a.386.386,0,0,1-.381-.391v-.016a22.808,22.808,0,0,0-.718-5.685c-.706-3.23-.124-6.544,4.054-6.87a.383.383,0,0,1,.411.353.52.52,0,0,1,0,.055c-.049.674.055,2.325,1.1,6.2C4665.533,2467.639,4663.035,2469.553,4659.858,2469.519Z" fill="#142266"/>
          <path id="Path_10784" data-name="Path 10784" d="M4659.714,2473.131a.385.385,0,0,0,.191-.511l-.007-.015a22.706,22.706,0,0,1-1.639-5.491c-.659-3.24-2.529-6.038-6.483-4.648a.384.384,0,0,0-.234.489.421.421,0,0,0,.023.051c.317.6.889,2.149,1.5,6.113C4653.768,2473.706,4656.822,2474.445,4659.714,2473.131Z" fill="#142266"/>
        </g>
        <g id="Group_3067" data-name="Group 3067">
          <path id="Path_10785" data-name="Path 10785" d="M4656.052,2455.89a.385.385,0,0,1-.454-.3l0-.016a22.729,22.729,0,0,0-1.884-5.412c-1.362-3.013-1.482-6.376,2.537-7.562a.383.383,0,0,1,.475.26.548.548,0,0,1,.012.054c.092.669.536,2.263,2.364,5.833C4661.216,2452.871,4659.166,2455.263,4656.052,2455.89Z" fill="#142266"/>
          <path id="Path_10786" data-name="Path 10786" d="M4656.662,2459.453a.385.385,0,0,0,.082-.538l-.011-.015a22.74,22.74,0,0,1-2.744-5.03c-1.318-3.032-3.729-5.38-7.307-3.2a.384.384,0,0,0-.126.529.415.415,0,0,0,.032.043c.434.517,1.317,1.917,2.734,5.668C4650.961,2461.249,4654.106,2461.34,4656.662,2459.453Z" fill="#142266"/>
        </g>
        <g id="Group_3068" data-name="Group 3068">
          <path id="Path_10787" data-name="Path 10787" d="M4649.5,2443.348a.386.386,0,0,1-.507-.2l-.006-.015a22.741,22.741,0,0,0-2.968-4.9c-1.958-2.663-2.775-5.928.91-7.925a.384.384,0,0,1,.52.157c.008.016.015.032.022.049.229.635,1,2.1,3.524,5.214C4653.915,2439.322,4652.411,2442.087,4649.5,2443.348Z" fill="#142266"/>
          <path id="Path_10788" data-name="Path 10788" d="M4650.834,2446.708a.386.386,0,0,0-.034-.545l-.012-.01a22.717,22.717,0,0,1-3.73-4.35c-1.919-2.692-4.766-4.487-7.813-1.609a.384.384,0,0,0-.014.543.458.458,0,0,0,.04.036c.532.416,1.687,1.6,3.853,4.976C4645.63,2449.649,4648.725,2449.084,4650.834,2446.708Z" fill="#142266"/>
        </g>
        <g id="Group_3069" data-name="Group 3069">
          <path id="Path_10789" data-name="Path 10789" d="M4640.474,2432.446a.386.386,0,0,1-.538-.092l-.009-.014a22.766,22.766,0,0,0-3.922-4.177c-2.469-2.2-3.947-5.221-.758-7.94a.384.384,0,0,1,.541.046.349.349,0,0,1,.032.043c.356.574,1.411,1.849,4.532,4.367C4643.96,2427.589,4643.064,2430.606,4640.474,2432.446Z" fill="#142266"/>
          <path id="Path_10790" data-name="Path 10790" d="M4642.481,2435.457a.387.387,0,0,0-.147-.526l-.013-.007a22.756,22.756,0,0,1-4.553-3.479c-2.437-2.234-5.594-3.4-7.977.05a.382.382,0,0,0,.1.533.258.258,0,0,0,.048.028c.607.3,1.982,1.216,4.8,4.066C4638,2439.412,4640.913,2438.215,4642.481,2435.457Z" fill="#142266"/>
        </g>
        <g id="Group_3070" data-name="Group 3070">
          <path id="Path_10791" data-name="Path 10791" d="M4629.385,2423.655a.386.386,0,0,1-.546.022l-.011-.011a22.765,22.765,0,0,0-4.7-3.271c-2.873-1.637-4.946-4.287-2.393-7.61a.383.383,0,0,1,.537-.069.378.378,0,0,1,.042.037c.468.487,1.764,1.516,5.341,3.329C4631.785,2418.181,4631.536,2421.318,4629.385,2423.655Z" fill="#142266"/>
          <path id="Path_10792" data-name="Path 10792" d="M4631.973,2426.18a.386.386,0,0,0-.252-.484l-.016-.005a22.7,22.7,0,0,1-5.177-2.456c-2.848-1.678-6.179-2.16-7.792,1.708a.384.384,0,0,0,.207.5.337.337,0,0,0,.053.017c.655.163,2.192.777,5.544,2.978C4628.416,2430.984,4631.014,2429.208,4631.973,2426.18Z" fill="#142266"/>
        </g>
        <g id="Group_3071" data-name="Group 3071">
          <path id="Path_10793" data-name="Path 10793" d="M4616.708,2417.363a.385.385,0,0,1-.529.135l-.014-.009a22.762,22.762,0,0,0-5.282-2.221c-3.15-1-5.73-3.165-3.922-6.946a.384.384,0,0,1,.513-.178.425.425,0,0,1,.046.026c.559.379,2.041,1.116,5.916,2.146C4617.917,2411.509,4618.326,2414.629,4616.708,2417.363Z" fill="#142266"/>
          <path id="Path_10794" data-name="Path 10794" d="M4619.761,2419.295a.388.388,0,0,0-.348-.421h-.015a22.758,22.758,0,0,1-5.575-1.326c-3.135-1.05-6.493-.829-7.267,3.29a.383.383,0,0,0,.306.447.327.327,0,0,0,.056.006c.675.024,2.306.3,6.042,1.761C4617.285,2424.734,4619.461,2422.457,4619.761,2419.295Z" fill="#142266"/>
        </g>
        <g id="Group_3072" data-name="Group 3072">
          <path id="Path_10795" data-name="Path 10795" d="M4588.863,2548.367a.386.386,0,0,0-.429-.338l-.015,0a22.694,22.694,0,0,1-5.729-.12c-3.286-.364-6.522.561-6.408,4.75a.382.382,0,0,0,.394.372.529.529,0,0,0,.055-.006c.665-.119,2.318-.189,6.278.445C4587.586,2554.207,4589.229,2551.523,4588.863,2548.367Z" fill="#142266"/>
          <path id="Path_10796" data-name="Path 10796" d="M4592.441,2547.847a.387.387,0,0,1-.49.242l-.01,0a22.749,22.749,0,0,0-5.632-1.056c-3.291-.316-6.269-1.884-5.3-5.961a.384.384,0,0,1,.463-.283.318.318,0,0,1,.052.016c.626.253,2.23.659,6.236.849C4592.39,2541.867,4593.445,2544.833,4592.441,2547.847Z" fill="#142266"/>
        </g>
        <g id="Group_3073" data-name="Group 3073">
          <path id="Path_10797" data-name="Path 10797" d="M4574.91,2546.007a.387.387,0,0,0-.349-.42h-.016a22.719,22.719,0,0,1-5.579-1.308c-3.138-1.039-6.5-.807-7.256,3.314a.383.383,0,0,0,.309.446.256.256,0,0,0,.054.006c.675.022,2.306.3,6.048,1.741C4572.447,2551.449,4574.612,2549.17,4574.91,2546.007Z" fill="#142266"/>
          <path id="Path_10798" data-name="Path 10798" d="M4578.518,2546.241a.387.387,0,0,1-.529.137l-.013-.009a22.811,22.811,0,0,0-5.289-2.2c-3.153-.993-5.74-3.146-3.945-6.933a.382.382,0,0,1,.51-.181.43.43,0,0,1,.049.027c.56.378,2.044,1.109,5.923,2.127C4579.708,2540.383,4580.127,2543.5,4578.518,2546.241Z" fill="#142266"/>
        </g>
        <g id="Group_3074" data-name="Group 3074">
          <path id="Path_10799" data-name="Path 10799" d="M4561.753,2540.8a.386.386,0,0,0-.254-.483l-.015,0a22.721,22.721,0,0,1-5.185-2.439c-2.854-1.669-6.186-2.14-7.786,1.733a.384.384,0,0,0,.21.5.509.509,0,0,0,.051.016c.656.161,2.194.77,5.554,2.96C4558.209,2545.613,4560.8,2543.829,4561.753,2540.8Z" fill="#142266"/>
          <path id="Path_10800" data-name="Path 10800" d="M4565.233,2541.777a.386.386,0,0,1-.546.023l-.011-.011a22.77,22.77,0,0,0-4.716-3.255c-2.877-1.628-4.96-4.271-2.417-7.6a.384.384,0,0,1,.538-.07.36.36,0,0,1,.041.036c.469.486,1.769,1.51,5.351,3.312C4567.617,2536.294,4567.376,2539.432,4565.233,2541.777Z" fill="#142266"/>
        </g>
        <g id="Group_3075" data-name="Group 3075">
          <path id="Path_10801" data-name="Path 10801" d="M4549.966,2532.965a.386.386,0,0,0-.148-.525l-.014-.008a22.673,22.673,0,0,1-4.565-3.464c-2.444-2.226-5.606-3.38-7.976.076a.382.382,0,0,0,.1.532.3.3,0,0,0,.048.028c.608.294,1.986,1.21,4.817,4.051C4545.5,2536.94,4548.41,2535.734,4549.966,2532.965Z" fill="#142266"/>
          <path id="Path_10802" data-name="Path 10802" d="M4553.167,2534.648a.386.386,0,0,1-.539-.088l-.008-.012a22.787,22.787,0,0,0-3.936-4.164c-2.476-2.19-3.964-5.209-.784-7.938a.385.385,0,0,1,.541.044.448.448,0,0,1,.032.043c.358.573,1.417,1.844,4.546,4.352C4556.636,2529.78,4555.751,2532.8,4553.167,2534.648Z" fill="#142266"/>
        </g>
        <g id="Group_3076" data-name="Group 3076">
          <path id="Path_10803" data-name="Path 10803" d="M4540.062,2522.854a.386.386,0,0,0-.036-.544l-.012-.011a22.715,22.715,0,0,1-3.744-4.338c-1.928-2.685-4.781-4.471-7.818-1.584a.384.384,0,0,0-.012.543.33.33,0,0,0,.04.036c.533.414,1.692,1.6,3.869,4.963C4534.87,2525.811,4537.962,2525.238,4540.062,2522.854Z" fill="#142266"/>
          <path id="Path_10804" data-name="Path 10804" d="M4542.846,2525.165a.386.386,0,0,1-.508-.2l-.006-.015a22.786,22.786,0,0,0-2.984-4.892c-1.967-2.657-2.794-5.919.884-7.928a.385.385,0,0,1,.521.154.327.327,0,0,1,.021.046c.231.634,1,2.1,3.541,5.2C4547.252,2521.124,4545.757,2523.894,4542.846,2525.165Z" fill="#142266"/>
        </g>
        <g id="Group_3077" data-name="Group 3077">
          <path id="Path_10805" data-name="Path 10805" d="M4532.482,2510.909a.386.386,0,0,0,.079-.54l-.01-.013a22.739,22.739,0,0,1-2.761-5.021c-1.327-3.028-3.746-5.367-7.318-3.175a.383.383,0,0,0-.126.527.378.378,0,0,0,.033.045c.436.516,1.323,1.913,2.753,5.659C4526.782,2512.719,4529.933,2512.8,4532.482,2510.909Z" fill="#142266"/>
          <path id="Path_10806" data-name="Path 10806" d="M4534.723,2513.744a.385.385,0,0,1-.455-.3l0-.016a22.81,22.81,0,0,0-1.9-5.405c-1.371-3.008-1.5-6.371,2.513-7.571a.384.384,0,0,1,.476.258c0,.018.009.036.012.054.094.669.544,2.261,2.383,5.825C4539.872,2510.708,4537.838,2513.106,4534.723,2513.744Z" fill="#142266"/>
        </g>
        <g id="Group_3078" data-name="Group 3078">
          <path id="Path_10807" data-name="Path 10807" d="M4527.551,2497.642a.384.384,0,0,0,.189-.51l-.007-.016a22.724,22.724,0,0,1-1.656-5.486c-.669-3.237-2.548-6.029-6.5-4.627a.383.383,0,0,0-.233.49.371.371,0,0,0,.023.05c.319.6.9,2.146,1.516,6.108C4521.6,2498.233,4524.665,2498.966,4527.551,2497.642Z" fill="#142266"/>
          <path id="Path_10808" data-name="Path 10808" d="M4529.153,2500.884a.386.386,0,0,1-.383-.389v-.017a22.754,22.754,0,0,0-.736-5.683c-.716-3.227-.145-6.544,4.032-6.883a.382.382,0,0,1,.411.352.349.349,0,0,1,0,.055c-.047.674.062,2.325,1.12,6.193C4534.82,2498.986,4532.328,2500.908,4529.153,2500.884Z" fill="#142266"/>
        </g>
        <g id="Group_3079" data-name="Group 3079">
          <path id="Path_10809" data-name="Path 10809" d="M4525.484,2483.642a.387.387,0,0,0,.292-.461l0-.016a22.719,22.719,0,0,1-.48-5.71c.019-3.306-1.239-6.427-5.394-5.877a.384.384,0,0,0-.329.431.536.536,0,0,0,.012.054c.188.649.43,2.286.213,6.29C4519.542,2482.983,4522.383,2484.336,4525.484,2483.642Z" fill="#142266"/>
          <path id="Path_10810" data-name="Path 10810" d="M4526.376,2487.146a.386.386,0,0,1-.293-.461l0-.015a22.809,22.809,0,0,0,.461-5.711c-.029-3.306,1.219-6.431,5.375-5.9a.385.385,0,0,1,.33.432.5.5,0,0,1-.011.052c-.186.649-.423,2.287-.193,6.29C4532.315,2486.467,4529.479,2487.829,4526.376,2487.146Z" fill="#142266"/>
        </g>
        <g id="Group_3080" data-name="Group 3080">
          <path id="Path_10811" data-name="Path 10811" d="M4526.37,2469.519a.385.385,0,0,0,.38-.391v-.016a22.785,22.785,0,0,1,.718-5.685c.706-3.23.124-6.544-4.054-6.87a.385.385,0,0,0-.411.355.479.479,0,0,0,0,.053c.049.674-.054,2.325-1.1,6.2C4520.7,2467.639,4523.2,2469.553,4526.37,2469.519Z" fill="#142266"/>
          <path id="Path_10812" data-name="Path 10812" d="M4526.518,2473.131a.387.387,0,0,1-.186-.513l.006-.012a22.793,22.793,0,0,0,1.639-5.491c.659-3.24,2.529-6.038,6.483-4.648a.383.383,0,0,1,.233.489.342.342,0,0,1-.022.051c-.317.6-.889,2.149-1.5,6.113C4532.468,2473.706,4529.41,2474.445,4526.518,2473.131Z" fill="#142266"/>
        </g>
        <g id="Group_3081" data-name="Group 3081">
          <path id="Path_10813" data-name="Path 10813" d="M4530.178,2455.89a.386.386,0,0,0,.454-.3l0-.016a22.751,22.751,0,0,1,1.884-5.412c1.362-3.013,1.482-6.376-2.537-7.562a.385.385,0,0,0-.476.26.358.358,0,0,0-.011.054c-.092.669-.537,2.263-2.364,5.833C4525.019,2452.871,4527.064,2455.263,4530.178,2455.89Z" fill="#142266"/>
          <path id="Path_10814" data-name="Path 10814" d="M4529.568,2459.453a.385.385,0,0,1-.081-.54l.01-.013a22.74,22.74,0,0,0,2.744-5.03c1.318-3.032,3.729-5.38,7.307-3.2a.383.383,0,0,1,.126.527.287.287,0,0,1-.032.045c-.434.517-1.317,1.917-2.734,5.668C4535.27,2461.249,4532.124,2461.34,4529.568,2459.453Z" fill="#142266"/>
        </g>
        <g id="Group_3082" data-name="Group 3082">
          <path id="Path_10815" data-name="Path 10815" d="M4536.736,2443.348a.386.386,0,0,0,.507-.2l.006-.015a22.741,22.741,0,0,1,2.968-4.9c1.958-2.663,2.775-5.928-.91-7.925a.384.384,0,0,0-.519.156.291.291,0,0,0-.022.05c-.229.635-1,2.1-3.525,5.214C4532.317,2439.322,4533.82,2442.087,4536.736,2443.348Z" fill="#142266"/>
          <path id="Path_10816" data-name="Path 10816" d="M4535.4,2446.708a.386.386,0,0,1,.034-.545l.012-.01a22.734,22.734,0,0,0,3.73-4.35c1.919-2.692,4.766-4.487,7.813-1.609a.385.385,0,0,1,.013.543.34.34,0,0,1-.039.036c-.532.416-1.686,1.6-3.853,4.976C4540.6,2449.649,4537.506,2449.084,4535.4,2446.708Z" fill="#142266"/>
        </g>
        <g id="Group_3083" data-name="Group 3083">
          <path id="Path_10817" data-name="Path 10817" d="M4545.757,2432.446a.386.386,0,0,0,.538-.092l.009-.014a22.766,22.766,0,0,1,3.922-4.177c2.469-2.2,3.947-5.221.758-7.94a.384.384,0,0,0-.541.046.271.271,0,0,0-.032.043c-.356.574-1.411,1.849-4.532,4.367C4542.271,2427.589,4543.167,2430.606,4545.757,2432.446Z" fill="#142266"/>
          <path id="Path_10818" data-name="Path 10818" d="M4543.75,2435.457a.387.387,0,0,1,.146-.526l.014-.007a22.756,22.756,0,0,0,4.553-3.479c2.437-2.234,5.594-3.4,7.977.05a.383.383,0,0,1-.1.533.294.294,0,0,1-.048.028c-.607.3-1.983,1.216-4.8,4.066C4548.229,2439.412,4545.318,2438.215,4543.75,2435.457Z" fill="#142266"/>
        </g>
        <g id="Group_3084" data-name="Group 3084">
          <path id="Path_10819" data-name="Path 10819" d="M4556.847,2423.655a.385.385,0,0,0,.545.022l.012-.011a22.783,22.783,0,0,1,4.705-3.271c2.872-1.637,4.946-4.287,2.392-7.61a.383.383,0,0,0-.537-.069.428.428,0,0,0-.042.037c-.468.487-1.764,1.516-5.34,3.329C4554.448,2418.181,4554.7,2421.318,4556.847,2423.655Z" fill="#142266"/>
          <path id="Path_10820" data-name="Path 10820" d="M4554.259,2426.18a.385.385,0,0,1,.252-.484l.016-.005a22.724,22.724,0,0,0,5.177-2.456c2.848-1.678,6.179-2.16,7.792,1.708a.384.384,0,0,1-.209.5.349.349,0,0,1-.051.017c-.656.163-2.192.777-5.544,2.978C4557.817,2430.984,4555.218,2429.208,4554.259,2426.18Z" fill="#142266"/>
        </g>
        <g id="Group_3085" data-name="Group 3085">
          <path id="Path_10821" data-name="Path 10821" d="M4569.523,2417.363a.385.385,0,0,0,.529.135l.014-.009a22.744,22.744,0,0,1,5.282-2.221c3.15-1,5.73-3.165,3.922-6.946a.387.387,0,0,0-.559-.152c-.559.379-2.041,1.116-5.916,2.146C4568.314,2411.509,4567.9,2414.629,4569.523,2417.363Z" fill="#142266"/>
          <path id="Path_10822" data-name="Path 10822" d="M4566.466,2419.295a.387.387,0,0,1,.347-.421h.017a22.761,22.761,0,0,0,5.574-1.326c3.135-1.05,6.493-.829,7.267,3.29a.384.384,0,0,1-.306.447.349.349,0,0,1-.056.006c-.675.024-2.306.3-6.042,1.761C4568.947,2424.734,4566.774,2422.457,4566.466,2419.295Z" fill="#142266"/>
        </g>
      </g>
      <g id="Group_3088" data-name="Group 3088">
        <g id="Group_3087" data-name="Group 3087">
          <path id="Path_10823" data-name="Path 10823" d="M4592.968,2568.63l-76.119-77.579-2.5,10.059,78.619,80.12,78.624-80.124-2.5-10.059Z" fill="#e65416"/>
          <path id="Path_10824" data-name="Path 10824" d="M4669.092,2491.051l-2.834-11.4c-31.188-3.9-51.664-17.144-63.634-28.041a99.02,99.02,0,0,1-9.656-10.115,99.174,99.174,0,0,1-9.656,10.115c-11.97,10.9-32.445,24.145-63.634,28.041l-2.834,11.4,76.123,77.576Z" fill="#b5311b"/>
        </g>
        <path id="Path_10825" data-name="Path 10825" d="M4675.414,2469.281c-62.612-4.005-82.447-46.742-82.447-46.742s-19.835,42.737-82.447,46.742l-8.056,31.145,90.5,88.635,90.5-88.635Zm-161.07,31.828,5.334-21.458c31.188-3.9,51.663-17.144,63.634-28.041a99.174,99.174,0,0,0,9.656-10.115,99.02,99.02,0,0,0,9.656,10.115c11.97,10.9,32.445,24.145,63.634,28.041l5.334,21.458-78.624,80.124Z" fill="#142266"/>
      </g>
      <path id="Path_10826" data-name="Path 10826" d="M4592.827,2422.15" fill="#dc2648"/>
      <g id="Group_3089" data-name="Group 3089">
        <circle id="Ellipse_217" data-name="Ellipse 217" cx="57.689" cy="57.689" r="57.689" transform="translate(4535.278 2422.15)" fill="#142266"/>
        <path id="Path_10827" data-name="Path 10827" d="M4570.885,2490.531c-.922,1.479-1.894,2.91-2.9,4.289a51.587,51.587,0,0,0,18.4,5.906l3.373,24.575.294-25.837.457-40.215a66.46,66.46,0,0,0-11.3,1.943C4580.166,2469.871,4577.227,2480.367,4570.885,2490.531Zm16.868-28.144-.082,6.06a4.992,4.992,0,0,1-5.576-4.33,4.851,4.851,0,0,1-.038-.546Z" fill="#e65416"/>
        <path id="Path_10828" data-name="Path 10828" d="M4547.189,2503.753a51.65,51.65,0,0,0,8,11.17,38.725,38.725,0,0,1-3.079-6.765,54.928,54.928,0,0,1-8.057-11.633A50.838,50.838,0,0,0,4547.189,2503.753Z" fill="#dc2648"/>
        <path id="Path_10829" data-name="Path 10829" d="M4618.407,2437.238a36.705,36.705,0,0,1,8.82,3.9,51.758,51.758,0,0,0-7.73-5.73,51.2,51.2,0,0,0-24.822-7.362l.346,24.65a71.286,71.286,0,0,1,12.775,2.078C4610.584,2445.3,4614.952,2440.063,4618.407,2437.238Zm-20.546,11.84-.023-17.274a24.512,24.512,0,0,1,12.124,3.511,39.478,39.478,0,0,0-12.1,13.763Z" fill="#e65416"/>
        <path id="Path_10830" data-name="Path 10830" d="M4558.348,2441.234a36.7,36.7,0,0,1,8.81-3.928c3.467,2.816,7.849,8.047,10.658,17.513a71.2,71.2,0,0,1,12.769-2.112l.281-24.651a51.212,51.212,0,0,0-24.8,7.428A51.739,51.739,0,0,0,4558.348,2441.234Zm29.394-9.869.024,18.148-7.776,1.578s-2.666-9.7-9.425-14.217C4570.565,2436.874,4576.467,2431.319,4587.742,2431.365Z" fill="#e65416"/>
        <path id="Path_10831" data-name="Path 10831" d="M4632.643,2451.474a25.114,25.114,0,0,0-10.335-9.062c-2.524,2.114-5.961,6.285-8.282,14.263.5.178,1,.361,1.512.555a56.342,56.342,0,0,1,21.942,14.685,51.289,51.289,0,0,1,3.94,4.921,59.952,59.952,0,0,1,2.86,6.984,26.828,26.828,0,0,0-4.45-12.559,51.692,51.692,0,0,0,2.5-6.362,51.184,51.184,0,0,0-10.468-19.06A15.491,15.491,0,0,1,4632.643,2451.474Z" fill="#e65416"/>
        <path id="Path_10832" data-name="Path 10832" d="M4630.586,2514.823a51.63,51.63,0,0,0,7.969-11.191,51.076,51.076,0,0,0,3.117-7.237,54.971,54.971,0,0,1-8.026,11.655A38.65,38.65,0,0,1,4630.586,2514.823Z" fill="#dc2648"/>
        <path id="Path_10833" data-name="Path 10833" d="M4617.737,2494.752c-1.01-1.376-1.985-2.8-2.911-4.281-6.364-10.146-9.336-20.634-8.4-29.318a66.539,66.539,0,0,0-11.31-1.913l.564,40.214.362,25.836,3.308-24.584A51.609,51.609,0,0,0,4617.737,2494.752Z" fill="#e65416"/>
        <path id="Path_10834" data-name="Path 10834" d="M4628.883,2506.485a60.3,60.3,0,0,1-11.146-11.733,51.611,51.611,0,0,1-18.387,5.955l-3.308,24.584.013.873.07,4.967a51.2,51.2,0,0,0,32.513-14.328,51.783,51.783,0,0,1-13.938,4.92h-.01A37.261,37.261,0,0,0,4628.883,2506.485Z" fill="#b5311b"/>
        <path id="Path_10835" data-name="Path 10835" d="M4639.806,2486.868a45.53,45.53,0,0,0-4.643-7.621,52.259,52.259,0,0,1-9.26,9.958,36.25,36.25,0,0,0,8.931,13.582,23.887,23.887,0,0,1-1.187,5.263,54.953,54.953,0,0,0,8.026-11.655c.436-1.275.827-2.566,1.162-3.875-2.2,2.816-4.147,4.845-4.147,4.845A49.966,49.966,0,0,0,4639.806,2486.868Z" fill="#b5311b"/>
        <path id="Path_10836" data-name="Path 10836" d="M4559.8,2489.292a52.178,52.178,0,0,1-9.29-9.938,45.549,45.549,0,0,0-4.622,7.633,49.876,49.876,0,0,0,1.146,10.493s-1.952-2.023-4.16-4.834c.339,1.308.733,2.6,1.173,3.872a55,55,0,0,0,8.063,11.636,23.846,23.846,0,0,1-1.2-5.26A36.253,36.253,0,0,0,4559.8,2489.292Z" fill="#b5311b"/>
        <path id="Path_10837" data-name="Path 10837" d="M4543.315,2465.03a51.709,51.709,0,0,0-2.037,12.376h.131l-.134.076c-.03.735-.047,1.471-.047,2.211,0,1.431.065,2.852.181,4.262a26.808,26.808,0,0,1,4.417-12.57A51.558,51.558,0,0,1,4543.315,2465.03Z" fill="#b5311b"/>
        <path id="Path_10838" data-name="Path 10838" d="M4567.985,2494.816a60.339,60.339,0,0,1-11.115,11.762,37.245,37.245,0,0,0,14.23,15.2h-.006a51.8,51.8,0,0,1-13.951-4.883,51.192,51.192,0,0,0,32.551,14.242l.057-4.967.01-.873-3.373-24.575A51.6,51.6,0,0,1,4567.985,2494.816Z" fill="#b5311b"/>
        <path id="Path_10839" data-name="Path 10839" d="M4644.287,2483.82q.169-2.115.17-4.262c0-.74-.021-1.476-.052-2.211l-.135-.076h.132a51.756,51.756,0,0,0-2.07-12.37,51.537,51.537,0,0,1-2.5,6.362A26.838,26.838,0,0,1,4644.287,2483.82Z" fill="#b5311b"/>
        <path id="Path_10840" data-name="Path 10840" d="M4625.9,2489.205a52.259,52.259,0,0,0,9.26-9.958c-5.275-6.99-12.548-12.3-21.752-15.859-.209-.081-.417-.157-.625-.235-.37,6.977,2.282,15.45,7.555,23.857q.776,1.239,1.6,2.428a52.452,52.452,0,0,0,12.891,13.348A36.25,36.25,0,0,1,4625.9,2489.205Z" fill="#e65416"/>
        <path id="Path_10841" data-name="Path 10841" d="M4563.765,2489.516q.819-1.191,1.594-2.432c5.251-8.421,7.88-16.9,7.492-23.877-.208.078-.415.155-.624.237-9.195,3.582-16.454,8.912-21.71,15.916a52.2,52.2,0,0,0,9.287,9.934,36.246,36.246,0,0,1-8.9,13.6A52.45,52.45,0,0,0,4563.765,2489.516Zm5.635-22.041c.28,6.421-4.7,2.448-4.7,2.448a20.451,20.451,0,0,1,4.7-2.444Z" fill="#e65416"/>
        <path id="Path_10842" data-name="Path 10842" d="M4548.175,2472.036a56.342,56.342,0,0,1,21.905-14.745c.507-.2,1.01-.379,1.51-.559-2.343-7.972-5.791-12.133-8.32-14.241a25.108,25.108,0,0,0-10.311,9.089,15.468,15.468,0,0,1,.769-5.636,51.165,51.165,0,0,0-10.417,19.088,51.545,51.545,0,0,0,2.512,6.356,26.814,26.814,0,0,0-4.417,12.57,59.922,59.922,0,0,1,2.843-6.99A51.242,51.242,0,0,1,4548.175,2472.036Zm14.589-26.619a44.4,44.4,0,0,1,4.986,9.038s-7.956,2.362-13.647,7.344c0,0-1.274-9.5,8.665-16.383Z" fill="#e65416"/>
        <path id="Path_10843" data-name="Path 10843" d="M4579.991,2451.091l7.776-1.578-.024-18.148c-11.275-.045-17.177,5.51-17.177,5.51C4577.328,2441.387,4579.991,2451.091,4579.991,2451.091Z" fill="#fff"/>
        <path id="Path_10844" data-name="Path 10844" d="M4567.755,2454.454a44.376,44.376,0,0,0-4.986-9.038c-9.939,6.887-8.66,16.382-8.66,16.382C4559.8,2456.816,4567.755,2454.454,4567.755,2454.454Z" fill="#fff"/>
        <path id="Path_10845" data-name="Path 10845" d="M4597.842,2431.8l.023,17.274a39.483,39.483,0,0,1,12.1-13.763A24.5,24.5,0,0,0,4597.842,2431.8Z" fill="#fff"/>
        <path id="Path_10846" data-name="Path 10846" d="M4587.671,2468.446l.082-6.06-5.7,1.183a4.991,4.991,0,0,0,5.067,4.916A5.138,5.138,0,0,0,4587.671,2468.446Z" fill="#fff"/>
        <path id="Path_10847" data-name="Path 10847" d="M4569.4,2467.475a20.465,20.465,0,0,0-4.7,2.448S4569.681,2473.9,4569.4,2467.475Z" fill="#fff"/>
      </g>
      <g id="Group_3091" data-name="Group 3091">
        <ellipse id="Ellipse_218" data-name="Ellipse 218" cx="17.22" cy="9.559" rx="17.22" ry="9.559" transform="translate(4645.932 2555.053)" fill="#142266"/>
        <ellipse id="Ellipse_219" data-name="Ellipse 219" cx="17.22" cy="9.559" rx="17.22" ry="9.559" transform="translate(4505.512 2555.053)" fill="#142266"/>
        <ellipse id="Ellipse_220" data-name="Ellipse 220" cx="10.228" cy="5.678" rx="10.228" ry="5.678" transform="translate(4515.849 2559.84)" fill="#dc2648"/>
        <ellipse id="Ellipse_221" data-name="Ellipse 221" cx="10.228" cy="5.678" rx="10.228" ry="5.678" transform="translate(4649.577 2559.84)" fill="#dc2648"/>
        <path id="Path_10848" data-name="Path 10848" d="M4592.823,2532.434c-27.59,0-55.18,5.5-82.77,6.093a4.806,4.806,0,0,0-4.7,4.811v19.99a5.886,5.886,0,0,0,5.881,5.893l.155,0c27.143-.735,54.286-6.061,81.429-6.061s54.286,5.326,81.429,6.061a5.887,5.887,0,0,0,6.04-5.73c0-.053,0-.107,0-.161v-19.99a4.807,4.807,0,0,0-4.7-4.81C4648,2537.937,4620.413,2532.434,4592.823,2532.434Z" fill="#142266"/>
        <g id="Group_96" data-name="Group 96">
          <g id="Group_95" data-name="Group 95">
            <path id="Path_500" data-name="Path 500" d="M4545.82,2558.156q-3.921.371-7.838.8-.979-8.888-1.961-17.773,4.055-.447,8.114-.832,1.58,1.257,3.142,2.522.225,2.508.447,5.015-.515.6-1.026,1.2.613.51,1.224,1.023.223,2.5.445,4.992Q4547.086,2556.63,4545.82,2558.156Zm-1.853-13.409-1.112-.867q-1.5.146-2.988.3.2,1.92.4,3.84,1.5-.155,2.989-.3c.3-.354.6-.708.9-1.062C4544.088,2546.021,4544.029,2545.384,4543.967,2544.747Zm.874,9.124q-.09-.944-.181-1.887-.538-.448-1.077-.894-1.487.145-2.97.3.2,1.92.4,3.84,1.462-.152,2.925-.295Z" fill="#fff"/>
            <path id="Path_501" data-name="Path 501" d="M4558.067,2557.146c-.1-.407-.21-.815-.313-1.223q-1.652.117-3.3.244c-.052.419-.1.839-.153,1.258q-1.715.133-3.428.278,1.015-9.058,2.161-18.114,1.856-.146,3.715-.275,2.462,8.79,4.8,17.6Q4559.8,2557.025,4558.067,2557.146Zm-1.234-4.529q-.666-2.407-1.34-4.815-.313,2.48-.618,4.96Q4555.854,2552.687,4556.833,2552.617Z" fill="#fff"/>
            <path id="Path_502" data-name="Path 502" d="M4574.359,2553.465q-1.357,1.453-2.7,2.911-2.531.109-5.06.244-1.474-1.323-2.965-2.638-.084-1.421-.167-2.84,1.712-.1,3.426-.19l.066,1.286q.516.459,1.029.919.979-.049,1.956-.094.478-.508.957-1.015-.042-.959-.085-1.917-.524-.464-1.05-.924-1.764.081-3.529.175-1.508-1.334-3.03-2.657-.147-2.5-.293-5,1.359-1.482,2.735-2.957,2.619-.14,5.239-.252,1.51,1.337,3.006,2.68.054,1.41.106,2.82-1.723.064-3.448.141l-.057-1.285-1.064-.9q-1,.047-2,.1-.475.51-.949,1.02.05.947.1,1.894c.349.313.7.627,1.044.941q1.786-.088,3.574-.167,1.49,1.338,2.967,2.683Z" fill="#fff"/>
            <path id="Path_503" data-name="Path 503" d="M4587.417,2555.943q-1.742.021-3.481.053-1.1-4.224-2.229-8.444-.873,1.566-1.735,3.137.072,2.7.142,5.394-1.695.045-3.39.1-.3-8.936-.591-17.871,1.756-.057,3.511-.1.073,2.822.148,5.642,1.581-2.865,3.2-5.72,2.024-.039,4.05-.065-1.479,2.558-2.929,5.124Q4585.8,2549.561,4587.417,2555.943Z" fill="#fff"/>
            <path id="Path_504" data-name="Path 504" d="M4600.351,2555.954q-5.337-.072-10.673-.033-.068-8.94-.133-17.88,5.525-.042,11.05.034-.024,1.694-.047,3.386-3.744-.051-7.489-.048,0,1.93,0,3.86,1.731,0,3.463.009-.01,1.693-.02,3.387-1.72-.01-3.441-.009,0,1.931,0,3.86,3.664,0,7.33.047Q4600.374,2554.261,4600.351,2555.954Z" fill="#fff"/>
            <path id="Path_505" data-name="Path 505" d="M4612.849,2541.775q-1.616-.06-3.232-.111-.227,7.243-.45,14.488-1.695-.054-3.39-.1.177-7.245.353-14.49-1.627-.039-3.256-.069.033-1.692.062-3.386,5.019.092,10.04.279Q4612.912,2540.083,4612.849,2541.775Z" fill="#fff"/>
            <path id="Path_506" data-name="Path 506" d="M4622.429,2556.739q-3.929-.227-7.861-.39.374-8.933.747-17.866,4.071.171,8.14.4,1.37,1.481,2.723,2.968-.16,2.513-.317,5.025c-.4.345-.8.689-1.195,1.035q.528.6,1.055,1.2-.159,2.5-.315,5Q4623.911,2555.421,4622.429,2556.739Zm.2-13.534q-.483-.515-.967-1.026-1.5-.081-3-.154-.093,1.928-.188,3.855,1.5.074,3,.155.521-.459,1.046-.914Q4622.571,2544.162,4622.625,2543.205Zm-.515,9.151c.036-.631.07-1.262.106-1.893q-.463-.523-.929-1.046-1.49-.081-2.978-.154-.093,1.928-.187,3.856,1.466.072,2.933.151Q4621.581,2552.813,4622.11,2552.356Z" fill="#fff"/>
            <path id="Path_507" data-name="Path 507" d="M4635.316,2557.644q-2.514-.209-5.03-.392-1.3-1.5-2.61-2.991.416-6.126.827-12.254,1.534-1.3,3.086-2.589,2.606.19,5.209.407,1.344,1.516,2.67,3.039-.543,6.117-1.086,12.234Q4636.842,2556.367,4635.316,2557.644Zm-.208-4.389q.375-4.578.751-9.158c-.3-.342-.613-.684-.92-1.026q-1-.079-2-.155l-1.093.891q-.339,4.571-.678,9.141.465.52.927,1.043.976.074,1.953.152C4634.4,2553.847,4634.756,2553.551,4635.108,2553.255Z" fill="#fff"/>
            <path id="Path_508" data-name="Path 508" d="M4648.9,2558.959q-4.254-.469-8.513-.867.829-8.9,1.66-17.8,1.749.163,3.5.338l-1.443,14.423q2.585.258,5.168.544Z" fill="#fff"/>
          </g>
        </g>
      </g>
    </g>
  </g>
</svg>
