<svg xmlns="http://www.w3.org/2000/svg" width="18" height="18" viewBox="0 0 18 18"><path d="M1109.469,47.224a.1.1,0,0,1-.037-.011,9.121,9.121,0,0,0-2.248,4.218,18.682,18.682,0,0,1,5.34-1.668A3.878,3.878,0,0,0,1109.469,47.224Zm11.773-1.1a8.911,8.911,0,0,0-4.781-1.721v4.978c.517.011,1.035.037,1.541.084A4.787,4.787,0,0,1,1121.242,46.121Zm-8.438,4.466a18.353,18.353,0,0,0-5.868,1.906c-.021.259-.037.523-.037.787a8.935,8.935,0,0,0,1.119,4.339,4.877,4.877,0,0,1,1.757-2.175C1109.965,55.306,1112.7,53.21,1112.8,50.587Zm6.47-.8a18.711,18.711,0,0,1,5.34,1.647,9.26,9.26,0,0,0-2.243-4.218.1.1,0,0,1-.037.011A3.891,3.891,0,0,0,1119.274,49.784Zm5.583,2.671a18.546,18.546,0,0,0-5.863-1.869c.095,2.629,2.834,4.719,3.029,4.862a4.85,4.85,0,0,1,1.757,2.17,8.912,8.912,0,0,0,1.119-4.328C1124.894,53,1124.884,52.73,1124.857,52.455Zm-14.338,4.175-.032.021a2.952,2.952,0,0,0-1.309,2.592.28.28,0,0,1,.005.069,8.768,8.768,0,0,0,6.153,3.088V50.587c-.475.011-.944.042-1.409.084C1113.934,54.039,1110.662,56.525,1110.519,56.63Zm10.792.021-.026-.021c-.148-.111-3.425-2.6-3.414-5.965q-.7-.063-1.409-.079V62.4a8.719,8.719,0,0,0,6.153-3.088.334.334,0,0,1,.005-.069A2.952,2.952,0,0,0,1121.311,56.652Zm-7.514-7.189c.506-.048,1.024-.079,1.541-.09V44.4a8.928,8.928,0,0,0-4.781,1.721A4.778,4.778,0,0,1,1113.8,49.462Z" transform="translate(-1106.899 -44.4)" fill="#0b0539"/></svg>