<svg xmlns="http://www.w3.org/2000/svg" width="36" height="30" viewBox="0 0 36 30"><g transform="translate(0 0)"><g transform="translate(0 0)"><g transform="translate(0 0)"><rect width="1.286" height="1.304" transform="translate(17.357 11.087)" fill="#333"/><rect width="1.286" height="2.609" transform="translate(17.357 13.696)" fill="#333"/><rect width="1.286" height="1.304" transform="translate(19.928 17.609)" fill="#333"/><rect width="1.286" height="1.304" transform="translate(17.357 17.609)" fill="#333"/><rect width="1.286" height="1.304" transform="translate(14.786 11.087)" fill="#333"/><rect width="1.286" height="1.304" transform="translate(22.5 11.087)" fill="#333"/><rect width="1.286" height="2.609" transform="translate(19.928 13.696)" fill="#333"/><rect width="1.286" height="2.609" transform="translate(22.5 13.696)" fill="#333"/><rect width="1.286" height="1.304" transform="translate(22.5 17.609)" fill="#333"/><rect width="1.286" height="1.304" transform="translate(19.928 11.087)" fill="#333"/><rect width="1.286" height="1.304" transform="translate(14.786 17.609)" fill="#333"/><rect width="1.286" height="2.609" transform="translate(14.786 13.696)" fill="#333"/><path d="M429.524,115.213a5.889,5.889,0,0,0-1.376-3.791l-2.1,2.833a1.953,1.953,0,0,1,.258.958v5.87h2.572v-1.3a1.3,1.3,0,0,1,.643-1.123Z" transform="translate(-396.095 -106.735)" fill="#333"/><path d="M426.308,265.142v5.87a1.961,1.961,0,0,1-.258.958l2.1,2.833a5.887,5.887,0,0,0,1.376-3.791v-3.442a1.3,1.3,0,0,1-.642-1.123v-1.3Z" transform="translate(-396.094 -249.49)" fill="#333"/><path d="M136.755,240.323h1.3v-2.609h-1.314Z" transform="translate(-127.126 -224.019)" fill="#333"/><path d="M356.571,82.937V86.2h3.214a1.886,1.886,0,0,1,.7.138l2.124-2.87a5.7,5.7,0,0,0-3.466-1.181h-.179a1.278,1.278,0,0,1-1.107.652h-1.285Z" transform="translate(-331.5 -79.676)" fill="#333"/><path d="M137.049,293.875h1.286v-1.3h-1.293Z" transform="translate(-127.406 -274.962)" fill="#333"/><rect width="1.286" height="1.304" transform="translate(25.071 17.609)" fill="#333"/><rect width="1.286" height="1.304" transform="translate(12.214 11.087)" fill="#333"/><rect width="1.286" height="2.609" transform="translate(12.214 13.696)" fill="#333"/><path d="M136.546,202.447h1.321v-1.3h-1.328Z" transform="translate(-126.939 -190.056)" fill="#333"/><rect width="1.286" height="1.304" transform="translate(12.214 17.609)" fill="#333"/><path d="M36.571,271.012a5.889,5.889,0,0,0,1.376,3.791l2.1-2.833a1.954,1.954,0,0,1-.258-.959v-5.869H37.214v1.3a1.3,1.3,0,0,1-.643,1.123Z" transform="translate(-34 -249.491)" fill="#333"/><rect width="3.857" height="1.957" transform="translate(9.643 28.043)" fill="#333"/><path d="M185.285,378.118v-3.261H173.714v3.261H175a1.277,1.277,0,0,1,1.107.652h6.786a1.277,1.277,0,0,1,1.107-.652Z" transform="translate(-161.5 -351.379)" fill="#333"/><rect width="6.429" height="1.304" transform="translate(14.786 28.696)" fill="#333"/><path d="M3.619,310.3a.614.614,0,0,1-.052-.059,7.2,7.2,0,0,1-2.281-5.262v-3.261H0v3.261a8.427,8.427,0,0,0,8.357,8.478v-1.3a6.977,6.977,0,0,1-4.709-1.837C3.639,310.305,3.628,310.3,3.619,310.3Z" transform="translate(0 -283.453)" fill="#333"/><path d="M75.6,376.319v-3.261H72.387a1.88,1.88,0,0,1-.7-.138l-2.123,2.87a5.7,5.7,0,0,0,3.466,1.181h.179a1.278,1.278,0,0,1,1.107-.652Z" transform="translate(-64.673 -349.58)" fill="#333"/><rect width="1.286" height="2.609" transform="translate(25.071 13.696)" fill="#333"/><rect width="3.857" height="1.957" transform="translate(22.5 28.043)" fill="#333"/><path d="M393.143,45.714v1.3a6.978,6.978,0,0,1,4.712,1.84c.008.006.018.006.026.012a.629.629,0,0,1,.053.06,7.2,7.2,0,0,1,2.281,5.262v3.261H401.5V54.192A8.428,8.428,0,0,0,393.143,45.714Z" transform="translate(-365.5 -45.714)" fill="#333"/><rect width="1.929" height="3.913" transform="translate(34.071 13.043)" fill="#333"/><path d="M1.929,228.559H0v3.913H1.929Z" transform="translate(0 -215.515)" fill="#333"/><path d="M400.214,304.976a7.2,7.2,0,0,1-2.281,5.262.579.579,0,0,1-.052.06c-.009.007-.02.009-.029.015a6.978,6.978,0,0,1-4.709,1.837v1.3a8.428,8.428,0,0,0,8.357-8.478v-3.261h-1.286Z" transform="translate(-365.5 -283.454)" fill="#333"/><path d="M362.609,375.791l-2.124-2.87a1.885,1.885,0,0,1-.7.138h-3.215v3.261h1.286a1.278,1.278,0,0,1,1.107.653h.179A5.7,5.7,0,0,0,362.609,375.791Z" transform="translate(-331.501 -349.581)" fill="#333"/><path d="M117.928,155.428H101.214a.648.648,0,0,0-.643.652v13.043a.648.648,0,0,0,.643.652h20.571a.648.648,0,0,0,.643-.652V156.08a.649.649,0,0,0-.643-.652h-3.857Zm3.214,11.087a1.276,1.276,0,0,1-1.243,1.3H103.1a1.276,1.276,0,0,1-1.243-1.3v-7.826a1.276,1.276,0,0,1,1.243-1.3h16.8a1.276,1.276,0,0,1,1.243,1.3v7.826Z" transform="translate(-93.5 -147.602)" fill="#333"/><rect width="3.857" height="1.957" transform="translate(22.5)" fill="#333"/><rect width="1.286" height="1.304" transform="translate(25.071 11.087)" fill="#333"/><rect width="6.429" height="1.304" transform="translate(14.786)" fill="#333"/><rect width="3.857" height="1.957" transform="translate(9.643)" fill="#333"/><path d="M69.564,83.467l2.123,2.87a1.886,1.886,0,0,1,.7-.138H75.6V82.938H74.316a1.278,1.278,0,0,1-1.107-.652H73.03A5.7,5.7,0,0,0,69.564,83.467Z" transform="translate(-64.673 -79.677)" fill="#333"/><path d="M39.786,121.083v-5.869a1.955,1.955,0,0,1,.258-.959l-2.1-2.833a5.89,5.89,0,0,0-1.376,3.791v3.442a1.3,1.3,0,0,1,.643,1.123v1.3Z" transform="translate(-34.001 -106.735)" fill="#333"/><path d="M1.286,54.192a7.2,7.2,0,0,1,2.281-5.262.6.6,0,0,1,.052-.06c.008-.006.018-.007.026-.013a6.978,6.978,0,0,1,4.712-1.84v-1.3A8.428,8.428,0,0,0,0,54.192v3.261H1.286Z" transform="translate(0 -45.714)" fill="#333"/><path d="M173.714,82.938V86.2h11.571V82.938H184a1.278,1.278,0,0,1-1.107-.652h-6.786a1.279,1.279,0,0,1-1.107.652Z" transform="translate(-161.5 -79.677)" fill="#333"/></g></g></g></svg>