<svg xmlns="http://www.w3.org/2000/svg" width="93.922" height="100.002" viewBox="0 0 93.922 100.002"><g transform="translate(-0.002 0.002)"><path d="M89.7,30.7A101.692,101.692,0,0,0,49.8,51.1l-1.2,1-3.8,5.1A100.591,100.591,0,0,0,27.5,93.5L27,95.6a5.686,5.686,0,0,1-5.6,4.4,3.4,3.4,0,0,1-1.4-.2,5.834,5.834,0,0,1-4.2-7h0l.5-2.1A113.417,113.417,0,0,1,35.6,50.3l.8-1.1-.6-.6-12-13.8A69.575,69.575,0,0,0,11.8,56l-.7,1.9a5.8,5.8,0,0,1-5.4,3.9,5.663,5.663,0,0,1-1.8-.3A5.777,5.777,0,0,1,.3,54.2L1,52.3C5,40.7,12,29.8,21.8,20l.1-.1a2.651,2.651,0,0,1,.6-.5L29.6,14c.1-.1.2-.2.3-.2A18.934,18.934,0,0,1,56,19a12.81,12.81,0,0,1,1.1,2,5.747,5.747,0,1,1-10.3,5.1A7.291,7.291,0,0,0,37,22.9c-.2.1-.3.2-.5.3L48.7,37.5a113.168,113.168,0,0,1,38-17.8,5.772,5.772,0,0,1,7,4.1A5.575,5.575,0,0,1,89.7,30.7Zm-78-11a9.713,9.713,0,0,0,9.8-9.9A9.713,9.713,0,0,0,11.6,0a9.85,9.85,0,1,0,.1,19.7Z" fill="#0b0539"/></g></svg>