<svg xmlns="http://www.w3.org/2000/svg" width="102.686" height="90" viewBox="0 0 102.686 90"><defs><style>.a{fill:#ed6b06;}</style></defs><g transform="translate(0 -26.576)"><g transform="translate(0 26.576)"><g transform="translate(0 0)"><path class="a" d="M184.464,159.668a10.475,10.475,0,1,0,10.475,10.475A10.475,10.475,0,0,0,184.464,159.668Zm0,15.961a5.487,5.487,0,0,1,0-10.973h0a5.487,5.487,0,1,1,0,10.973Z" transform="translate(-132.462 -127.902)"/><path class="a" d="M93.775,34.4,25.691,26.669a9.351,9.351,0,0,0-7.357,2.12,9.477,9.477,0,0,0-3.616,6.484L13.471,45.5H9.6C4.118,45.5,0,50.361,0,55.848v51a9.477,9.477,0,0,0,9.223,9.724q.189,0,.378,0H78.063c5.487,0,10.475-4.24,10.475-9.726v-2a12.469,12.469,0,0,0,4.738-2,10.351,10.351,0,0,0,3.616-6.734L102.629,45.5A10.1,10.1,0,0,0,93.775,34.4ZM83.55,106.849c0,2.743-2.743,4.738-5.487,4.738H9.6a4.489,4.489,0,0,1-4.619-4.355q-.006-.191.005-.383V97.621L24.319,83.406a5.986,5.986,0,0,1,7.731.374L45.642,95.751A11.722,11.722,0,0,0,53,98.494a11.347,11.347,0,0,0,5.986-1.621L83.55,82.657v24.191Zm0-30.052L56.366,92.633a6.36,6.36,0,0,1-7.357-.623l-13.716-12.1a11.1,11.1,0,0,0-13.841-.5L4.991,91.386V55.848c0-2.743,1.871-5.362,4.614-5.362H78.063a5.736,5.736,0,0,1,5.487,5.362V76.8Zm14.1-31.972c0,.016,0,.033,0,.05L91.78,95.5a4.24,4.24,0,0,1-1.621,3.367c-.5.5-1.621.748-1.621,1V55.848A10.724,10.724,0,0,0,78.063,45.5h-59.6l1.122-9.726a5.736,5.736,0,0,1,1.871-3.242,5.736,5.736,0,0,1,3.741-1l67.96,7.856A4.988,4.988,0,0,1,97.645,44.825Z" transform="translate(0 -26.576)"/></g></g></g></svg>