<svg xmlns="http://www.w3.org/2000/svg" width="181" height="180.95" viewBox="0 0 181 180.95">
  <g id="voleybol" transform="translate(970.774 294.717)">
    <g id="Group_3095" data-name="Group 3095" transform="translate(-5701.464 -2702.821)">
      <path id="Path_10858" data-name="Path 10858" d="M4825.593,2548.362a.388.388,0,0,1,.428-.339l.016,0a22.785,22.785,0,0,0,5.729-.12c3.286-.364,6.521.561,6.408,4.75a.384.384,0,0,1-.4.371.339.339,0,0,1-.054-.005c-.665-.119-2.318-.189-6.277.446C4826.867,2554.2,4825.224,2551.518,4825.593,2548.362Z" fill="#142266"/>
      <path id="Path_10859" data-name="Path 10859" d="M4822.012,2547.842a.385.385,0,0,0,.489.242l.011,0a22.721,22.721,0,0,1,5.632-1.056c3.291-.316,6.269-1.884,5.3-5.961a.385.385,0,0,0-.464-.283.335.335,0,0,0-.051.017c-.626.253-2.23.659-6.236.849C4822.067,2541.862,4821.008,2544.828,4822.012,2547.842Z" fill="#142266"/>
    </g>
    <g id="Group_3096" data-name="Group 3096" transform="translate(-5701.464 -2702.821)">
      <path id="Path_10860" data-name="Path 10860" d="M4839.542,2546a.386.386,0,0,1,.349-.42h.016a22.766,22.766,0,0,0,5.579-1.308c3.138-1.039,6.5-.807,7.256,3.314a.385.385,0,0,1-.31.446.493.493,0,0,1-.053.006c-.675.021-2.307.3-6.048,1.741C4842,2551.444,4839.841,2549.164,4839.542,2546Z" fill="#142266"/>
      <path id="Path_10861" data-name="Path 10861" d="M4835.935,2546.236a.386.386,0,0,0,.528.136l.014-.008a22.765,22.765,0,0,1,5.289-2.2c3.153-.993,5.74-3.146,3.945-6.933a.385.385,0,0,0-.513-.181.44.44,0,0,0-.046.027c-.56.378-2.044,1.109-5.923,2.127C4834.745,2540.378,4834.326,2543.5,4835.935,2546.236Z" fill="#142266"/>
    </g>
    <g id="Group_3097" data-name="Group 3097" transform="translate(-5701.464 -2702.821)">
      <path id="Path_10862" data-name="Path 10862" d="M4852.7,2540.792a.386.386,0,0,1,.253-.484l.016,0a22.794,22.794,0,0,0,5.185-2.439c2.854-1.669,6.186-2.14,7.786,1.733a.384.384,0,0,1-.211.5.414.414,0,0,1-.05.017c-.656.161-2.194.77-5.553,2.96C4856.246,2545.607,4853.646,2543.823,4852.7,2540.792Z" fill="#142266"/>
      <path id="Path_10863" data-name="Path 10863" d="M4849.218,2541.772a.386.386,0,0,0,.545.023l.012-.011a22.675,22.675,0,0,1,4.716-3.255c2.877-1.627,4.96-4.271,2.417-7.6a.383.383,0,0,0-.537-.071.273.273,0,0,0-.041.037c-.469.486-1.769,1.51-5.351,3.312C4846.837,2536.289,4847.076,2539.427,4849.218,2541.772Z" fill="#142266"/>
    </g>
    <g id="Group_3098" data-name="Group 3098" transform="translate(-5701.464 -2702.821)">
      <path id="Path_10864" data-name="Path 10864" d="M4864.487,2532.96a.387.387,0,0,1,.148-.526l.014-.007a22.8,22.8,0,0,0,4.564-3.464c2.444-2.226,5.6-3.379,7.976.076a.383.383,0,0,1-.1.532.305.305,0,0,1-.047.028c-.608.294-1.986,1.21-4.816,4.05C4868.952,2536.934,4866.046,2535.728,4864.487,2532.96Z" fill="#142266"/>
      <path id="Path_10865" data-name="Path 10865" d="M4861.286,2534.642a.386.386,0,0,0,.538-.088l.009-.012a22.674,22.674,0,0,1,3.936-4.164c2.476-2.19,3.964-5.209.784-7.938a.383.383,0,0,0-.573.087c-.358.573-1.417,1.844-4.546,4.352C4857.816,2529.774,4858.7,2532.794,4861.286,2534.642Z" fill="#142266"/>
    </g>
    <g id="Group_3099" data-name="Group 3099" transform="translate(-5701.464 -2702.821)">
      <path id="Path_10866" data-name="Path 10866" d="M4874.386,2522.85a.385.385,0,0,1,.035-.545l.012-.01a22.807,22.807,0,0,0,3.744-4.337c1.928-2.685,4.781-4.471,7.818-1.584a.384.384,0,0,1,.011.543.3.3,0,0,1-.039.036c-.533.414-1.692,1.6-3.869,4.963C4879.58,2525.807,4876.486,2525.233,4874.386,2522.85Z" fill="#142266"/>
      <path id="Path_10867" data-name="Path 10867" d="M4871.6,2525.16a.386.386,0,0,0,.508-.2l.006-.015a22.686,22.686,0,0,1,2.984-4.891c1.967-2.657,2.795-5.919-.883-7.928a.383.383,0,0,0-.521.154.324.324,0,0,0-.021.046c-.231.635-1,2.1-3.542,5.2C4867.2,2521.12,4868.689,2523.89,4871.6,2525.16Z" fill="#142266"/>
    </g>
    <g id="Group_3100" data-name="Group 3100" transform="translate(-5701.464 -2702.821)">
      <path id="Path_10868" data-name="Path 10868" d="M4881.968,2510.906a.385.385,0,0,1-.079-.54l.01-.013a22.784,22.784,0,0,0,2.761-5.021c1.327-3.028,3.746-5.367,7.318-3.175a.383.383,0,0,1,.125.527.367.367,0,0,1-.032.045c-.436.516-1.323,1.913-2.753,5.659C4887.664,2512.716,4884.518,2512.8,4881.968,2510.906Z" fill="#142266"/>
      <path id="Path_10869" data-name="Path 10869" d="M4879.729,2513.74a.387.387,0,0,0,.455-.3l0-.015a22.712,22.712,0,0,1,1.9-5.405c1.371-3.008,1.5-6.37-2.513-7.57a.382.382,0,0,0-.476.258.284.284,0,0,0-.012.054c-.094.669-.544,2.261-2.382,5.825C4874.579,2510.705,4876.617,2513.1,4879.729,2513.74Z" fill="#142266"/>
    </g>
    <g id="Group_3101" data-name="Group 3101" transform="translate(-5701.464 -2702.821)">
      <path id="Path_10870" data-name="Path 10870" d="M4886.9,2497.638a.385.385,0,0,1-.19-.511l.008-.015a22.76,22.76,0,0,0,1.656-5.486c.669-3.237,2.548-6.029,6.5-4.626a.383.383,0,0,1,.231.49.457.457,0,0,1-.022.05c-.319.6-.9,2.146-1.516,6.108C4892.849,2498.229,4889.788,2498.961,4886.9,2497.638Z" fill="#142266"/>
      <path id="Path_10871" data-name="Path 10871" d="M4885.3,2500.88a.386.386,0,0,0,.382-.39v-.016a22.74,22.74,0,0,1,.737-5.682c.716-3.227.145-6.544-4.032-6.883a.384.384,0,0,0-.412.354.479.479,0,0,0,0,.053c.047.674-.062,2.325-1.119,6.193C4879.631,2498.981,4882.123,2500.9,4885.3,2500.88Z" fill="#142266"/>
    </g>
    <g id="Group_3102" data-name="Group 3102" transform="translate(-5701.464 -2702.821)">
      <path id="Path_10872" data-name="Path 10872" d="M4888.967,2483.639a.387.387,0,0,1-.292-.462l0-.015a22.771,22.771,0,0,0,.48-5.71c-.019-3.306,1.239-6.427,5.394-5.877a.382.382,0,0,1,.328.43.345.345,0,0,1-.011.055c-.188.649-.43,2.286-.213,6.29C4894.908,2482.979,4892.067,2484.332,4888.967,2483.639Z" fill="#142266"/>
      <path id="Path_10873" data-name="Path 10873" d="M4888.078,2487.142a.386.386,0,0,0,.292-.461l0-.015a22.726,22.726,0,0,1-.461-5.711c.029-3.306-1.219-6.431-5.375-5.894a.383.383,0,0,0-.33.431.313.313,0,0,0,.011.053c.186.649.423,2.287.193,6.29C4882.136,2486.464,4884.973,2487.826,4888.078,2487.142Z" fill="#142266"/>
    </g>
    <g id="Group_3103" data-name="Group 3103" transform="translate(-5701.464 -2702.821)">
      <path id="Path_10874" data-name="Path 10874" d="M4888.078,2469.517a.387.387,0,0,1-.381-.392v-.015a22.756,22.756,0,0,0-.718-5.685c-.706-3.229-.124-6.544,4.054-6.87a.382.382,0,0,1,.41.355.321.321,0,0,1,0,.053c-.049.674.054,2.325,1.1,6.2C4893.753,2467.636,4891.255,2469.551,4888.078,2469.517Z" fill="#142266"/>
      <path id="Path_10875" data-name="Path 10875" d="M4887.934,2473.129a.387.387,0,0,0,.191-.512l-.007-.014a22.68,22.68,0,0,1-1.639-5.49c-.658-3.24-2.529-6.037-6.483-4.648a.382.382,0,0,0-.234.488.3.3,0,0,0,.023.052c.317.6.889,2.149,1.5,6.113C4881.988,2473.7,4885.042,2474.443,4887.934,2473.129Z" fill="#142266"/>
    </g>
    <g id="Group_3104" data-name="Group 3104" transform="translate(-5701.464 -2702.821)">
      <path id="Path_10876" data-name="Path 10876" d="M4884.272,2455.888a.387.387,0,0,1-.455-.3l0-.016a22.792,22.792,0,0,0-1.884-5.411c-1.362-3.012-1.482-6.375,2.537-7.562a.382.382,0,0,1,.475.259.416.416,0,0,1,.012.055c.092.669.536,2.263,2.364,5.833C4889.436,2452.869,4887.386,2455.261,4884.272,2455.888Z" fill="#142266"/>
      <path id="Path_10877" data-name="Path 10877" d="M4884.882,2459.451a.386.386,0,0,0,.081-.54l-.01-.013a22.78,22.78,0,0,1-2.744-5.03c-1.318-3.032-3.729-5.379-7.307-3.2a.383.383,0,0,0-.125.528.329.329,0,0,0,.031.044c.434.517,1.317,1.917,2.734,5.668C4879.18,2461.247,4882.326,2461.337,4884.882,2459.451Z" fill="#142266"/>
    </g>
    <g id="Group_3105" data-name="Group 3105" transform="translate(-5701.464 -2702.821)">
      <path id="Path_10878" data-name="Path 10878" d="M4877.716,2443.347a.386.386,0,0,1-.507-.2l-.006-.014a22.743,22.743,0,0,0-2.968-4.9c-1.958-2.663-2.775-5.928.91-7.925a.384.384,0,0,1,.52.157.374.374,0,0,1,.022.049c.229.635,1,2.1,3.524,5.214C4882.134,2439.321,4880.631,2442.086,4877.716,2443.347Z" fill="#142266"/>
      <path id="Path_10879" data-name="Path 10879" d="M4879.053,2446.706a.387.387,0,0,0-.034-.545l-.012-.01a22.755,22.755,0,0,1-3.73-4.35c-1.919-2.692-4.766-4.487-7.813-1.609a.384.384,0,0,0-.014.543.4.4,0,0,0,.04.036c.532.416,1.687,1.6,3.853,4.976C4873.849,2449.648,4876.945,2449.083,4879.053,2446.706Z" fill="#142266"/>
    </g>
    <g id="Group_3106" data-name="Group 3106" transform="translate(-5701.464 -2702.821)">
      <path id="Path_10880" data-name="Path 10880" d="M4868.695,2432.443a.386.386,0,0,1-.538-.093l-.009-.013a22.742,22.742,0,0,0-3.922-4.177c-2.469-2.2-3.947-5.221-.758-7.94a.384.384,0,0,1,.541.045.514.514,0,0,1,.032.044c.356.574,1.411,1.849,4.531,4.367C4872.18,2427.587,4871.285,2430.6,4868.695,2432.443Z" fill="#142266"/>
      <path id="Path_10881" data-name="Path 10881" d="M4870.7,2435.455a.386.386,0,0,0-.147-.526l-.013-.007a22.759,22.759,0,0,1-4.553-3.479c-2.437-2.234-5.594-3.4-7.976.05a.382.382,0,0,0,.1.532.4.4,0,0,0,.048.029c.607.3,1.982,1.216,4.8,4.066C4866.224,2439.41,4869.134,2438.213,4870.7,2435.455Z" fill="#142266"/>
    </g>
    <g id="Group_3107" data-name="Group 3107" transform="translate(-5701.464 -2702.821)">
      <path id="Path_10882" data-name="Path 10882" d="M4857.606,2423.654a.388.388,0,0,1-.546.022l-.011-.011a22.762,22.762,0,0,0-4.7-3.271c-2.872-1.637-4.946-4.287-2.392-7.609a.382.382,0,0,1,.537-.069.417.417,0,0,1,.041.037c.468.487,1.764,1.516,5.34,3.329C4860,2418.18,4859.756,2421.316,4857.606,2423.654Z" fill="#142266"/>
      <path id="Path_10883" data-name="Path 10883" d="M4860.194,2426.179a.387.387,0,0,0-.252-.485l-.016,0a22.753,22.753,0,0,1-5.177-2.456c-2.848-1.678-6.178-2.16-7.792,1.708a.383.383,0,0,0,.207.5.463.463,0,0,0,.053.018c.655.163,2.192.777,5.544,2.978C4856.636,2430.983,4859.235,2429.207,4860.194,2426.179Z" fill="#142266"/>
    </g>
    <g id="Group_3108" data-name="Group 3108" transform="translate(-5701.464 -2702.821)">
      <path id="Path_10884" data-name="Path 10884" d="M4844.929,2417.362a.387.387,0,0,1-.529.134l-.014-.008a22.72,22.72,0,0,0-5.282-2.221c-3.15-1-5.729-3.165-3.922-6.946a.384.384,0,0,1,.513-.179.4.4,0,0,1,.046.027c.559.379,2.041,1.116,5.916,2.146C4846.138,2411.508,4846.547,2414.628,4844.929,2417.362Z" fill="#142266"/>
      <path id="Path_10885" data-name="Path 10885" d="M4847.982,2419.294a.386.386,0,0,0-.348-.421h-.015a22.772,22.772,0,0,1-5.574-1.326c-3.135-1.05-6.493-.829-7.266,3.29a.383.383,0,0,0,.308.447.511.511,0,0,0,.054.006c.675.024,2.306.3,6.042,1.76C4845.5,2424.733,4847.682,2422.456,4847.982,2419.294Z" fill="#142266"/>
    </g>
    <g id="Group_3109" data-name="Group 3109" transform="translate(-5701.464 -2702.821)">
      <path id="Path_10886" data-name="Path 10886" d="M4817.085,2548.362a.387.387,0,0,0-.429-.339l-.015,0a22.785,22.785,0,0,1-5.729-.12c-3.286-.364-6.521.561-6.408,4.75a.383.383,0,0,0,.394.371.351.351,0,0,0,.055-.005c.665-.119,2.318-.189,6.277.446C4815.808,2554.2,4817.451,2551.518,4817.085,2548.362Z" fill="#142266"/>
      <path id="Path_10887" data-name="Path 10887" d="M4820.662,2547.842a.387.387,0,0,1-.49.242l-.01,0a22.746,22.746,0,0,0-5.632-1.056c-3.291-.316-6.269-1.884-5.3-5.961a.384.384,0,0,1,.464-.283.467.467,0,0,1,.051.017c.626.253,2.23.659,6.236.849C4820.611,2541.862,4821.666,2544.828,4820.662,2547.842Z" fill="#142266"/>
    </g>
    <g id="Group_3110" data-name="Group 3110" transform="translate(-5701.464 -2702.821)">
      <path id="Path_10888" data-name="Path 10888" d="M4803.132,2546a.387.387,0,0,0-.349-.42h-.016a22.754,22.754,0,0,1-5.579-1.308c-3.138-1.039-6.5-.807-7.256,3.314a.384.384,0,0,0,.309.446.488.488,0,0,0,.054.006c.675.021,2.306.3,6.047,1.741C4800.669,2551.444,4802.834,2549.164,4803.132,2546Z" fill="#142266"/>
      <path id="Path_10889" data-name="Path 10889" d="M4806.74,2546.236a.388.388,0,0,1-.529.136l-.013-.008a22.809,22.809,0,0,0-5.289-2.2c-3.153-.993-5.74-3.146-3.945-6.933a.385.385,0,0,1,.512-.181.447.447,0,0,1,.047.027c.56.378,2.044,1.109,5.923,2.127C4807.929,2540.378,4808.348,2543.5,4806.74,2546.236Z" fill="#142266"/>
    </g>
    <g id="Group_3111" data-name="Group 3111" transform="translate(-5701.464 -2702.821)">
      <path id="Path_10890" data-name="Path 10890" d="M4789.975,2540.792a.387.387,0,0,0-.254-.484l-.015,0a22.765,22.765,0,0,1-5.185-2.439c-2.854-1.669-6.186-2.14-7.786,1.733a.384.384,0,0,0,.21.5.407.407,0,0,0,.051.017c.656.161,2.193.77,5.553,2.96C4786.432,2545.607,4789.026,2543.823,4789.975,2540.792Z" fill="#142266"/>
      <path id="Path_10891" data-name="Path 10891" d="M4793.455,2541.772a.387.387,0,0,1-.546.023l-.011-.011a22.7,22.7,0,0,0-4.716-3.255c-2.877-1.627-4.96-4.271-2.417-7.6a.382.382,0,0,1,.537-.071.42.42,0,0,1,.041.037c.469.486,1.769,1.51,5.351,3.312C4795.84,2536.289,4795.6,2539.427,4793.455,2541.772Z" fill="#142266"/>
    </g>
    <g id="Group_3112" data-name="Group 3112" transform="translate(-5701.464 -2702.821)">
      <path id="Path_10892" data-name="Path 10892" d="M4778.19,2532.96a.387.387,0,0,0-.148-.526l-.014-.007a22.788,22.788,0,0,1-4.564-3.464c-2.444-2.226-5.6-3.379-7.976.076a.383.383,0,0,0,.1.532.3.3,0,0,0,.048.028c.608.294,1.986,1.21,4.817,4.05C4773.724,2536.934,4776.634,2535.728,4778.19,2532.96Z" fill="#142266"/>
      <path id="Path_10893" data-name="Path 10893" d="M4781.39,2534.642a.387.387,0,0,1-.539-.088l-.008-.012a22.738,22.738,0,0,0-3.936-4.164c-2.476-2.19-3.964-5.209-.784-7.938a.38.38,0,0,1,.573.087c.358.573,1.417,1.844,4.546,4.352C4784.859,2529.774,4783.973,2532.794,4781.39,2534.642Z" fill="#142266"/>
    </g>
    <g id="Group_3113" data-name="Group 3113" transform="translate(-5701.464 -2702.821)">
      <path id="Path_10894" data-name="Path 10894" d="M4768.286,2522.85a.387.387,0,0,0-.036-.545l-.012-.01a22.76,22.76,0,0,1-3.744-4.337c-1.928-2.685-4.781-4.471-7.818-1.584a.384.384,0,0,0-.012.543.313.313,0,0,0,.04.036c.534.414,1.692,1.6,3.869,4.963C4763.094,2525.807,4766.186,2525.233,4768.286,2522.85Z" fill="#142266"/>
      <path id="Path_10895" data-name="Path 10895" d="M4771.07,2525.16a.386.386,0,0,1-.508-.2l-.006-.015a22.785,22.785,0,0,0-2.984-4.891c-1.967-2.657-2.794-5.919.884-7.928a.382.382,0,0,1,.52.154.282.282,0,0,1,.022.046c.231.635,1,2.1,3.541,5.2C4775.476,2521.12,4773.981,2523.89,4771.07,2525.16Z" fill="#142266"/>
    </g>
    <g id="Group_3114" data-name="Group 3114" transform="translate(-5701.464 -2702.821)">
      <path id="Path_10896" data-name="Path 10896" d="M4760.706,2510.906a.386.386,0,0,0,.079-.54l-.01-.013a22.783,22.783,0,0,1-2.761-5.021c-1.328-3.028-3.746-5.367-7.318-3.175a.384.384,0,0,0-.126.527c.01.015.021.03.033.045.436.516,1.323,1.913,2.753,5.659C4755.006,2512.716,4758.157,2512.8,4760.706,2510.906Z" fill="#142266"/>
      <path id="Path_10897" data-name="Path 10897" d="M4762.946,2513.74a.386.386,0,0,1-.455-.3l0-.015a22.755,22.755,0,0,0-1.9-5.405c-1.371-3.008-1.5-6.37,2.513-7.57a.383.383,0,0,1,.476.258.469.469,0,0,1,.012.054c.094.669.544,2.261,2.383,5.825C4768.1,2510.705,4766.062,2513.1,4762.946,2513.74Z" fill="#142266"/>
    </g>
    <g id="Group_3115" data-name="Group 3115" transform="translate(-5701.464 -2702.821)">
      <path id="Path_10898" data-name="Path 10898" d="M4755.775,2497.638a.385.385,0,0,0,.189-.511l-.007-.015a22.782,22.782,0,0,1-1.656-5.486c-.669-3.237-2.548-6.029-6.5-4.626a.385.385,0,0,0-.233.489c.007.018.014.034.023.051.319.6.9,2.146,1.516,6.108C4749.826,2498.229,4752.889,2498.961,4755.775,2497.638Z" fill="#142266"/>
      <path id="Path_10899" data-name="Path 10899" d="M4757.377,2500.88a.387.387,0,0,1-.383-.39v-.016a22.717,22.717,0,0,0-.736-5.682c-.716-3.227-.146-6.544,4.031-6.883a.382.382,0,0,1,.411.352.342.342,0,0,1,0,.055c-.047.674.062,2.325,1.12,6.193C4763.044,2498.981,4760.552,2500.9,4757.377,2500.88Z" fill="#142266"/>
    </g>
    <g id="Group_3116" data-name="Group 3116" transform="translate(-5701.464 -2702.821)">
      <path id="Path_10900" data-name="Path 10900" d="M4753.707,2483.639a.387.387,0,0,0,.292-.462l0-.015a22.68,22.68,0,0,1-.48-5.71c.019-3.306-1.239-6.427-5.394-5.877a.383.383,0,0,0-.329.43.411.411,0,0,0,.012.055c.188.649.43,2.286.213,6.29C4747.766,2482.979,4750.607,2484.332,4753.707,2483.639Z" fill="#142266"/>
      <path id="Path_10901" data-name="Path 10901" d="M4754.6,2487.142a.387.387,0,0,1-.293-.461l0-.015a22.725,22.725,0,0,0,.461-5.711c-.029-3.306,1.219-6.431,5.375-5.894a.384.384,0,0,1,.33.431.371.371,0,0,1-.011.053c-.186.649-.423,2.287-.193,6.29C4760.539,2486.464,4757.7,2487.826,4754.6,2487.142Z" fill="#142266"/>
    </g>
    <g id="Group_3117" data-name="Group 3117" transform="translate(-5701.464 -2702.821)">
      <path id="Path_10902" data-name="Path 10902" d="M4754.594,2469.517a.386.386,0,0,0,.38-.392v-.015a22.755,22.755,0,0,1,.718-5.685c.706-3.229.124-6.544-4.054-6.87a.383.383,0,0,0-.411.353.515.515,0,0,0,0,.055c.049.674-.055,2.325-1.1,6.2C4748.923,2467.636,4751.421,2469.551,4754.594,2469.517Z" fill="#142266"/>
      <path id="Path_10903" data-name="Path 10903" d="M4754.742,2473.129a.386.386,0,0,1-.191-.512l.007-.014a22.788,22.788,0,0,0,1.639-5.49c.659-3.24,2.529-6.037,6.483-4.648a.382.382,0,0,1,.233.488.335.335,0,0,1-.022.052c-.317.6-.889,2.149-1.5,6.113C4760.692,2473.7,4757.634,2474.443,4754.742,2473.129Z" fill="#142266"/>
    </g>
    <g id="Group_3118" data-name="Group 3118" transform="translate(-5701.464 -2702.821)">
      <path id="Path_10904" data-name="Path 10904" d="M4758.4,2455.888a.386.386,0,0,0,.454-.3l0-.016a22.707,22.707,0,0,1,1.884-5.411c1.362-3.012,1.482-6.375-2.537-7.562a.383.383,0,0,0-.476.259.347.347,0,0,0-.011.055c-.092.669-.536,2.263-2.364,5.833C4753.243,2452.869,4755.288,2455.261,4758.4,2455.888Z" fill="#142266"/>
      <path id="Path_10905" data-name="Path 10905" d="M4757.792,2459.451a.386.386,0,0,1-.081-.54l.01-.013a22.758,22.758,0,0,0,2.744-5.03c1.318-3.032,3.729-5.379,7.307-3.2a.382.382,0,0,1,.126.526.351.351,0,0,1-.032.046c-.434.517-1.316,1.917-2.734,5.668C4763.494,2461.247,4760.348,2461.337,4757.792,2459.451Z" fill="#142266"/>
    </g>
    <g id="Group_3119" data-name="Group 3119" transform="translate(-5701.464 -2702.821)">
      <path id="Path_10906" data-name="Path 10906" d="M4764.959,2443.347a.386.386,0,0,0,.507-.2l.006-.014a22.683,22.683,0,0,1,2.968-4.9c1.958-2.663,2.775-5.928-.91-7.925a.383.383,0,0,0-.519.156.327.327,0,0,0-.022.05c-.229.635-1,2.1-3.525,5.214C4760.54,2439.321,4762.043,2442.086,4764.959,2443.347Z" fill="#142266"/>
      <path id="Path_10907" data-name="Path 10907" d="M4763.621,2446.706a.386.386,0,0,1,.034-.545l.012-.01a22.755,22.755,0,0,0,3.73-4.35c1.919-2.692,4.766-4.487,7.813-1.609a.386.386,0,0,1-.027.579c-.532.416-1.686,1.6-3.853,4.976C4768.825,2449.648,4765.729,2449.083,4763.621,2446.706Z" fill="#142266"/>
    </g>
    <g id="Group_3120" data-name="Group 3120" transform="translate(-5701.464 -2702.821)">
      <path id="Path_10908" data-name="Path 10908" d="M4773.98,2432.443a.387.387,0,0,0,.538-.093l.009-.013a22.745,22.745,0,0,1,3.922-4.177c2.469-2.2,3.947-5.221.758-7.94a.384.384,0,0,0-.541.045.284.284,0,0,0-.032.044c-.356.574-1.411,1.849-4.532,4.367C4770.5,2427.587,4771.39,2430.6,4773.98,2432.443Z" fill="#142266"/>
      <path id="Path_10909" data-name="Path 10909" d="M4771.973,2435.455a.386.386,0,0,1,.146-.526l.014-.007a22.759,22.759,0,0,0,4.553-3.479c2.437-2.234,5.594-3.4,7.976.05a.384.384,0,0,1-.1.534.433.433,0,0,1-.046.027c-.607.3-1.983,1.216-4.8,4.066C4776.452,2439.41,4773.541,2438.213,4771.973,2435.455Z" fill="#142266"/>
    </g>
    <g id="Group_3121" data-name="Group 3121" transform="translate(-5701.464 -2702.821)">
      <path id="Path_10910" data-name="Path 10910" d="M4785.07,2423.654a.387.387,0,0,0,.545.022l.012-.011a22.726,22.726,0,0,1,4.7-3.271c2.872-1.637,4.946-4.287,2.392-7.609a.383.383,0,0,0-.539-.067.3.3,0,0,0-.039.035c-.468.487-1.764,1.516-5.34,3.329C4782.671,2418.18,4782.919,2421.316,4785.07,2423.654Z" fill="#142266"/>
      <path id="Path_10911" data-name="Path 10911" d="M4782.482,2426.179a.386.386,0,0,1,.252-.485l.016,0a22.753,22.753,0,0,0,5.177-2.456c2.848-1.678,6.179-2.16,7.792,1.708a.383.383,0,0,1-.207.5.506.506,0,0,1-.053.018c-.655.163-2.192.777-5.544,2.978C4786.039,2430.983,4783.441,2429.207,4782.482,2426.179Z" fill="#142266"/>
    </g>
    <g id="Group_3122" data-name="Group 3122" transform="translate(-5701.464 -2702.821)">
      <path id="Path_10912" data-name="Path 10912" d="M4797.746,2417.362a.386.386,0,0,0,.529.134l.014-.008a22.707,22.707,0,0,1,5.282-2.221c3.15-1,5.729-3.165,3.922-6.946a.385.385,0,0,0-.513-.179.4.4,0,0,0-.046.027c-.559.379-2.041,1.116-5.916,2.146C4796.537,2411.508,4796.128,2414.628,4797.746,2417.362Z" fill="#142266"/>
      <path id="Path_10913" data-name="Path 10913" d="M4794.689,2419.294a.386.386,0,0,1,.348-.421h.016a22.8,22.8,0,0,0,5.574-1.326c3.135-1.05,6.493-.829,7.266,3.29a.383.383,0,0,1-.306.447.548.548,0,0,1-.056.006c-.675.024-2.3.3-6.042,1.76C4797.17,2424.733,4795,2422.456,4794.689,2419.294Z" fill="#142266"/>
    </g>
    <g id="Group_3124" data-name="Group 3124" transform="translate(-5701.464 -2702.821)">
      <path id="Path_10914" data-name="Path 10914" d="M4821.191,2568.621l-76.121-77.573-2.5,10.058,78.621,80.121,78.621-80.121-2.5-10.058Z" fill="#e65416"/>
      <path id="Path_10915" data-name="Path 10915" d="M4897.312,2491.047l-2.833-11.4c-31.187-3.9-51.662-17.144-63.632-28.04a99.09,99.09,0,0,1-9.656-10.114,99.245,99.245,0,0,1-9.656,10.114c-11.97,10.9-32.444,24.144-63.632,28.04l-2.833,11.4,76.121,77.573Z" fill="#b5311b"/>
    </g>
    <path id="Path_10916" data-name="Path 10916" d="M4903.634,2469.278c-62.61-4.005-82.444-46.74-82.444-46.74s-19.835,42.735-82.444,46.74l-8.056,31.144,90.5,88.632,90.5-88.632Zm-161.066,31.828,5.334-21.457c31.188-3.9,51.662-17.144,63.632-28.04a99.242,99.242,0,0,0,9.656-10.114,99.088,99.088,0,0,0,9.656,10.114c11.97,10.9,32.444,24.144,63.632,28.04l5.334,21.457-78.621,80.121Z" transform="translate(-5701.464 -2702.821)" fill="#142266"/>
    <ellipse id="Ellipse_224" data-name="Ellipse 224" cx="17.219" cy="9.559" rx="17.219" ry="9.559" transform="translate(-827.313 -147.771)" fill="#142266"/>
    <ellipse id="Ellipse_225" data-name="Ellipse 225" cx="17.219" cy="9.559" rx="17.219" ry="9.559" transform="translate(-967.728 -147.771)" fill="#142266"/>
    <ellipse id="Ellipse_226" data-name="Ellipse 226" cx="10.228" cy="5.678" rx="10.228" ry="5.678" transform="translate(-957.391 -142.984)" fill="#dc2648"/>
    <ellipse id="Ellipse_227" data-name="Ellipse 227" cx="10.228" cy="5.678" rx="10.228" ry="5.678" transform="translate(-823.667 -142.984)" fill="#dc2648"/>
    <path id="Path_10918" data-name="Path 10918" d="M4821.045,2532.431c-27.589,0-55.178,5.5-82.768,6.093a4.807,4.807,0,0,0-4.7,4.811v19.99a5.887,5.887,0,0,0,5.881,5.893l.155,0c27.142-.735,54.285-6.06,81.427-6.06s54.285,5.326,81.427,6.06a5.887,5.887,0,0,0,6.034-5.736c0-.052,0-.1,0-.155v-19.99a4.806,4.806,0,0,0-4.695-4.811C4876.223,2537.933,4848.634,2532.431,4821.045,2532.431Z" transform="translate(-5701.464 -2702.821)" fill="#142266"/>
    <g id="Group_94" data-name="Group 94" transform="translate(-5701.464 -2702.821)">
      <g id="Group_93" data-name="Group 93">
        <path id="Path_492" data-name="Path 492" d="M4781.315,2540.949q-1.271,9.082-2.381,18.167-1.578.147-3.153.308-2.85-8.7-5.859-17.36,1.793-.2,3.585-.381,1.526,4.473,3.006,8.956.573-4.684,1.19-9.367Q4779.509,2541.1,4781.315,2540.949Z" fill="#fff"/>
        <path id="Path_493" data-name="Path 493" d="M4792.921,2558.022q-2.517.156-5.033.342-1.5-1.293-3.021-2.575-.491-6.122-.981-12.244,1.333-1.51,2.687-3.013,2.617-.193,5.237-.356,1.554,1.3,3.093,2.621l.684,12.263Q4794.246,2556.536,4792.921,2558.022Zm-.841-4.314q-.291-4.584-.583-9.169-.531-.443-1.062-.882-1,.066-2,.137-.479.519-.955,1.041.33,4.571.662,9.142.537.447,1.071.9c.651-.046,1.3-.09,1.956-.133Q4791.62,2554.224,4792.08,2553.708Z" fill="#fff"/>
        <path id="Path_494" data-name="Path 494" d="M4806.544,2557.384q-4.272.135-8.541.351-.453-8.93-.906-17.858,1.762-.09,3.526-.165.312,7.239.623,14.48,2.6-.111,5.192-.193Q4806.492,2555.692,4806.544,2557.384Z" fill="#fff"/>
        <path id="Path_495" data-name="Path 495" d="M4819.476,2557.168q-5.336.012-10.671.151-.236-8.937-.469-17.874,5.55-.146,11.1-.157,0,1.693.007,3.386-3.76.007-7.519.078.037,1.931.072,3.86,1.735-.033,3.473-.051.018,1.692.037,3.386-1.725.019-3.447.051.036,1.929.071,3.859,3.669-.067,7.336-.075Q4819.474,2555.475,4819.476,2557.168Z" fill="#fff"/>
        <path id="Path_496" data-name="Path 496" d="M4832.777,2539.431q-2.034,6.077-3.97,12.171-.054,2.821-.106,5.644-1.7-.033-3.392-.051l.063-5.644q-1.743-6.15-3.581-12.285,1.835.006,3.67.026.873,2.991,1.723,5.983.938-2.965,1.9-5.929Q4830.93,2539.382,4832.777,2539.431Z" fill="#fff"/>
        <path id="Path_497" data-name="Path 497" d="M4842.419,2557.717q-3.93-.2-7.863-.323l.573-17.871q4.091.131,8.181.335,1.387,1.47,2.757,2.949-.141,2.514-.282,5.027-.6.52-1.192,1.043.535.594,1.066,1.189-.143,2.5-.282,5Q4843.887,2556.388,4842.419,2557.717Zm.092-13.536-.979-1.018q-1.505-.069-3.01-.13-.078,1.929-.154,3.858,1.5.06,3.008.13.519-.462,1.042-.923Q4842.465,2545.14,4842.511,2544.181Zm-.445,9.155q.047-.946.092-1.894l-.939-1.039q-1.493-.069-2.985-.128-.078,1.929-.153,3.857,1.469.058,2.936.127Q4841.541,2553.8,4842.066,2553.336Z" fill="#fff"/>
        <path id="Path_498" data-name="Path 498" d="M4855.31,2558.549q-2.516-.2-5.032-.37-1.3-1.491-2.628-2.975.375-6.131.753-12.26,1.533-1.307,3.084-2.6,2.621.178,5.235.385,1.356,1.51,2.695,3.03-.525,6.12-1.049,12.238Q4856.83,2557.266,4855.31,2558.549Zm-.226-4.389q.359-4.579.715-9.16-.463-.513-.928-1.023-1-.077-2-.147c-.366.3-.729.6-1.093.9q-.316,4.572-.631,9.145.468.517.934,1.038.976.069,1.954.144Z" fill="#fff"/>
        <path id="Path_499" data-name="Path 499" d="M4868.9,2559.837q-4.254-.469-8.514-.857.809-8.9,1.618-17.807,1.756.16,3.517.333-.713,7.212-1.422,14.424,2.587.255,5.173.541Z" fill="#fff"/>
      </g>
    </g>
    <g id="Group_3129" data-name="Group 3129" transform="translate(-5701.464 -2702.821)">
      <circle id="Ellipse_228" data-name="Ellipse 228" cx="57.687" cy="57.687" r="57.687" transform="translate(4763.502 2422.15)" fill="#142266"/>
      <g id="Group_909" data-name="Group 909">
        <path id="Path_7345" data-name="Path 7345" d="M4819.371,2431.741a49.6,49.6,0,0,0-36.657,19.238c14.525-9.258,32.925-11.423,38.489-11.9A46.815,46.815,0,0,0,4819.371,2431.741Zm32.716,65.741c2.315-7.274,8.753-31.653-.3-54.949a48.655,48.655,0,0,0-10.1-5.982c8.57,25.461.872,48.967-1.263,54.649A110.2,110.2,0,0,0,4852.087,2497.482Zm-32.506-32.074c-6.83-.18-28.716.872-45.735,19.839a2.782,2.782,0,0,1-.751.571,49.383,49.383,0,0,0,4.66,16.443c11.938-12.925,32.866-21.072,39.841-23.567C4817.989,2476.74,4818.92,2471.751,4819.581,2465.408ZM4836,2486.239c2.5-7.124,8.991-29.88-.842-52.875a51.483,51.483,0,0,0-10.408-1.623c5.2,17.133.962,39.829-.361,46.081,1.8,1.443,6.048,4.78,11.615,8.417Zm-15.065-27.625a99.762,99.762,0,0,0,.03-14.068c-6.043.542-32.534,3.818-45.043,19.84a3.117,3.117,0,0,1-.751.661,47.631,47.631,0,0,0-2.075,11.574C4791.738,2459.065,4813.778,2458.343,4820.934,2458.614Zm-35.09,43.677a47.345,47.345,0,0,0-4.51,4.3.822.822,0,0,1-.24.211,48.945,48.945,0,0,0,48.111,20.5,81.39,81.39,0,0,1-43.36-25.01Zm20.9-13.707c4.841,4.839,22.792,21.1,47.9,24.919a47.2,47.2,0,0,0,6.645-8c-17.5-3.728-35.692-18.186-40.773-22.455a134.42,134.42,0,0,0-13.775,5.532Zm52.531-37.6c4.721,22.124-.751,42.594-2.8,48.967a46.475,46.475,0,0,0,7.4,2.135,2.063,2.063,0,0,1,.6.211,49.814,49.814,0,0,0-5.2-51.318Zm-57.462,40.069a96.519,96.519,0,0,0-11.1,6.734,77.633,77.633,0,0,0,51.508,25.34,46.452,46.452,0,0,0,7.848-4.569c-27.724-5.957-45.823-24.835-48.258-27.51Z" fill="#e65416"/>
      </g>
    </g>
    <path id="Path_10927" data-name="Path 10927" d="M4781.389,2478.159l11.116,8.08s-11.5,4.554-14.751,16.023a38.073,38.073,0,0,1-4.66-16.443S4779.276,2479.749,4781.389,2478.159Z" transform="translate(-5701.464 -2702.821)" fill="#b5311b"/>
    <path id="Path_10928" data-name="Path 10928" d="M4869.286,2478.159s-1.793,1.6-9.088,4.867c0,0-1.235,6.429-3.724,16.9a72.044,72.044,0,0,0,8,2.368A50.422,50.422,0,0,0,4869.286,2478.159Z" transform="translate(-5701.464 -2702.821)" fill="#b5311b"/>
    <path id="Path_10929" data-name="Path 10929" d="M4806.175,2448.741s7.371-2.144,12.865-2.278a44.571,44.571,0,0,0,0,8.979S4818.5,2448.339,4806.175,2448.741Z" transform="translate(-5701.464 -2702.821)" fill="#fff"/>
    <path id="Path_10930" data-name="Path 10930" d="M4814.886,2433.431a15.825,15.825,0,0,1,3.719-.4,7.226,7.226,0,0,0,.678,2.588S4817.072,2433.154,4814.886,2433.431Z" transform="translate(-5701.464 -2702.821)" fill="#fff"/>
    <path id="Path_10931" data-name="Path 10931" d="M4796.338,2484.991s9.045-6.5,18.548-6.832c0,0-.3-7.757,2.2-10.254C4817.084,2467.905,4810.4,2475.493,4796.338,2484.991Z" transform="translate(-5701.464 -2702.821)" fill="#fff"/>
    <path id="Path_10932" data-name="Path 10932" d="M4794.637,2501.817s9.812,10.3,55.435,16.736c0,0-6.665,4.672-7.848,4.569A76.682,76.682,0,0,1,4794.637,2501.817Z" transform="translate(-5701.464 -2702.821)" fill="#b5311b"/>
    <path id="Path_10933" data-name="Path 10933" d="M4809.335,2491.048s6.022,6.765,51.951,14.459a44.379,44.379,0,0,1-6.645,8S4832.073,2511.628,4809.335,2491.048Z" transform="translate(-5701.464 -2702.821)" fill="#b5311b"/>
    <path id="Path_10934" data-name="Path 10934" d="M4789.209,2515.886a100.787,100.787,0,0,0,40,11.415A47.643,47.643,0,0,1,4789.209,2515.886Z" transform="translate(-5701.464 -2702.821)" fill="#b5311b"/>
    <path id="Path_10935" data-name="Path 10935" d="M4834.016,2434.316a73.2,73.2,0,0,1,1.3,47.861,17.157,17.157,0,0,0-7.362-5.542S4840.083,2476.309,4834.016,2434.316Z" transform="translate(-5701.464 -2702.821)" fill="#fff"/>
    <path id="Path_10936" data-name="Path 10936" d="M4846.512,2491.048a12.489,12.489,0,0,1,4.556,2.855s7.639-20.236,2.144-36.451C4853.212,2457.452,4856.473,2486.931,4846.512,2491.048Z" transform="translate(-5701.464 -2702.821)" fill="#fff"/>
  </g>
</svg>
