<svg xmlns="http://www.w3.org/2000/svg" width="18" height="18" viewBox="0 0 18 18"><path d="M1547.659,71.4A9.281,9.281,0,0,0,1540.8,75a17.1,17.1,0,0,1,7.2-2.227A8.731,8.731,0,0,0,1547.659,71.4Zm6.122,12.3a16.329,16.329,0,0,0-.056-10.283,9.1,9.1,0,0,0-1.891-1.119,15.955,15.955,0,0,1-.236,10.226A20.593,20.593,0,0,0,1553.781,83.7Zm-6.083-6a11.264,11.264,0,0,0-8.558,3.713.518.518,0,0,1-.141.107,9.235,9.235,0,0,0,.872,3.077c2.234-2.419,6.15-3.943,7.456-4.41C1547.4,79.821,1547.575,78.887,1547.7,77.7Zm3.072,3.9a14.164,14.164,0,0,0-.157-9.894,9.626,9.626,0,0,0-1.947-.3c.973,3.206.18,7.453-.068,8.623C1548.937,80.293,1549.73,80.917,1550.771,81.6Zm-2.819-5.169a18.626,18.626,0,0,0,.006-2.632c-1.131.1-6.088.714-8.429,3.712a.586.586,0,0,1-.141.124A8.923,8.923,0,0,0,1539,79.8,12.592,12.592,0,0,1,1547.952,76.429Zm-6.567,8.173a8.862,8.862,0,0,0-.844.8.15.15,0,0,1-.045.039,9.159,9.159,0,0,0,9,3.836A15.234,15.234,0,0,1,1541.385,84.6Zm3.911-2.565a17.081,17.081,0,0,0,8.963,4.663,8.839,8.839,0,0,0,1.244-1.5c-3.275-.7-6.679-3.4-7.63-4.2A25.154,25.154,0,0,0,1545.3,82.037Zm9.83-7.037a18.831,18.831,0,0,1-.523,9.163,8.713,8.713,0,0,0,1.384.4.379.379,0,0,1,.113.039,9.321,9.321,0,0,0-.973-9.6Zm-10.753,7.5a18.059,18.059,0,0,0-2.076,1.26,14.526,14.526,0,0,0,9.638,4.742,8.693,8.693,0,0,0,1.469-.855A18.29,18.29,0,0,1,1544.374,82.5Z" transform="translate(-1539 -71.4)" fill="#0b0539"/></svg>