<svg xmlns="http://www.w3.org/2000/svg" width="98" height="80" viewBox="0 0 98 80"><g transform="translate(0 -3)"><g transform="translate(0 3)"><path d="M85.75,15.308V3H0V70.692S0,83,12.25,83H88.813S98,82.809,98,70.692V15.308ZM12.25,76.846c-6.125,0-6.125-6.154-6.125-6.154V9.154h73.5V70.692a8.924,8.924,0,0,0,2.07,6.154Z" transform="translate(0 -3)" fill="#0b0539"/><rect width="61.25" height="6.154" transform="translate(12.25 18.462)" fill="#0b0539"/><rect width="21.438" height="6.154" transform="translate(45.938 55.385)" fill="#0b0539"/><rect width="27.563" height="6.154" transform="translate(45.938 43.077)" fill="#0b0539"/><rect width="27.563" height="6.154" transform="translate(45.938 30.769)" fill="#0b0539"/><g transform="translate(12.567 30.769)"><path d="M15.154,0A15.154,15.154,0,1,1,0,15.154,15.154,15.154,0,0,1,15.154,0ZM5.115,22.406l-.18-.252-1.261.877.18.252Zm-1.345.925-.168-.24-.228.156.168.24Zm.576-1.081A.54.54,0,0,0,4.6,21.9a.673.673,0,0,0-.1-.456.694.694,0,0,0-.216-.264.388.388,0,0,0-.252-.1.438.438,0,0,0-.252.06.492.492,0,0,0-.18.168.5.5,0,0,0-.06.228,1.746,1.746,0,0,0,.06.348.9.9,0,0,1,.048.3c-.012.036-.024.072-.06.084a.09.09,0,0,1-.108,0,.388.388,0,0,1-.156-.156.254.254,0,0,1-.048-.192.267.267,0,0,1,.108-.156l-.144-.276a.425.425,0,0,0-.216.3.715.715,0,0,0,.1.444.8.8,0,0,0,.192.24.426.426,0,0,0,.228.1.487.487,0,0,0,.228-.048.409.409,0,0,0,.2-.276.766.766,0,0,0-.036-.384,1.6,1.6,0,0,1-.06-.252.242.242,0,0,1,0-.132.123.123,0,0,1,.06-.072.2.2,0,0,1,.168,0,.375.375,0,0,1,.168.168.331.331,0,0,1,.048.228.326.326,0,0,1-.144.2l.168.24ZM3.9,20.377l-.12-.288-1.165.516-.18-.42-.24.108L2.69,21.41l.24-.108-.18-.42,1.153-.5Zm-.768-2.053L1.861,19.38l.1.312,1.645.1-.1-.312-.372-.012-.192-.588.288-.24-.1-.312Zm-.4.732-.48.372.6.024-.12-.4Zm.336-.889-.048-.288-.985.168.877-.781-.048-.312-1.513.264.048.288,1.009-.18-.9.793.048.3,1.513-.252Zm-1.813-1.4,1.525-.108-.036-.516a3.084,3.084,0,0,0-.036-.372.523.523,0,0,0-.084-.2.431.431,0,0,0-.168-.12.61.61,0,0,0-.2-.036.391.391,0,0,0-.228.1.385.385,0,0,0-.12.228.414.414,0,0,0-.144-.144.4.4,0,0,0-.2-.048.357.357,0,0,0-.18.06.319.319,0,0,0-.12.132.391.391,0,0,0-.048.168,2.063,2.063,0,0,0,0,.276l.048.588Zm.24-.336.348-.024-.012-.2a1.847,1.847,0,0,0-.024-.228.282.282,0,0,0-.06-.12.2.2,0,0,0-.12-.036.152.152,0,0,0-.108.048.183.183,0,0,0-.048.12c0,.036,0,.12.012.264l.012.18Zm.6-.036.408-.024-.024-.288a1.862,1.862,0,0,0-.024-.216.175.175,0,0,0-.072-.108.242.242,0,0,0-.132-.036.2.2,0,0,0-.12.036.165.165,0,0,0-.06.1.992.992,0,0,0,0,.276L2.1,16.4ZM1.17,15.062l.817.024a1.807,1.807,0,0,0,.384-.012.32.32,0,0,0,.168-.084.355.355,0,0,0,.132-.18.762.762,0,0,0,.06-.336,1.081,1.081,0,0,0-.036-.3.475.475,0,0,0-.12-.18.326.326,0,0,0-.192-.1A1.406,1.406,0,0,0,2,13.858l-.8-.024-.012.312.853.024a1.315,1.315,0,0,1,.264.024.228.228,0,0,1,.132.084.321.321,0,0,1,.048.2.343.343,0,0,1-.06.2.2.2,0,0,1-.156.084.816.816,0,0,1-.252,0l-.829-.024-.012.312Zm1.609-1.513.2-1.057-.252-.048-.144.756-1.237-.24-.06.3,1.489.288Zm-1.062-2.31,1.453.5.168-.492q.09-.288.108-.36a.436.436,0,0,0,0-.216.717.717,0,0,0-.108-.18.452.452,0,0,0-.18-.108.331.331,0,0,0-.24,0,.491.491,0,0,0-.2.156.53.53,0,0,0-.072-.192.337.337,0,0,0-.168-.12.309.309,0,0,0-.18-.012.372.372,0,0,0-.156.072.294.294,0,0,0-.108.132q-.036.072-.108.252l-.2.564Zm.348-.216.336.12.06-.192c.036-.12.06-.18.072-.216a.165.165,0,0,0-.012-.132.222.222,0,0,0-.1-.084.2.2,0,0,0-.12,0,.137.137,0,0,0-.084.1,2.352,2.352,0,0,0-.1.252l-.06.156Zm.576.2.384.132.1-.276a.981.981,0,0,0,.06-.2.176.176,0,0,0-.024-.132.262.262,0,0,0-.108-.084.451.451,0,0,0-.12-.012.187.187,0,0,0-.1.072,1.481,1.481,0,0,0-.108.252l-.084.252ZM2.293,9.618l.744.348a1.514,1.514,0,0,0,.36.132.356.356,0,0,0,.192-.012.348.348,0,0,0,.192-.108A1.186,1.186,0,0,0,3.975,9.7a.764.764,0,0,0,.084-.288A.582.582,0,0,0,4.023,9.2a.432.432,0,0,0-.132-.168,2.442,2.442,0,0,0-.348-.192L2.81,8.5l-.132.276.768.36a1.718,1.718,0,0,1,.228.12.173.173,0,0,1,.084.132.336.336,0,0,1-.036.2.266.266,0,0,1-.144.156.315.315,0,0,1-.18.024c-.036-.012-.12-.048-.24-.1L2.4,9.33l-.108.288Zm.024-.276.108-.228L2.2,9.006l-.108.228.228.108Zm.192-.408.108-.228L2.39,8.6l-.108.228.228.108Zm2.077-.4.168-.264-.54-.348L3.77,6.964l-.192.3.312.624-.708-.024-.192.3,1.057.012.54.36Zm-.635-1.81.636.516a1.49,1.49,0,0,0,.324.216.5.5,0,0,0,.192.036.489.489,0,0,0,.216-.06A.821.821,0,0,0,5.572,7.2a.646.646,0,0,0,.144-.264.448.448,0,0,0,.012-.216.416.416,0,0,0-.1-.192,2.358,2.358,0,0,0-.288-.264l-.624-.5L4.527,6l.66.528a.958.958,0,0,1,.192.18.191.191,0,0,1,.048.144.391.391,0,0,1-.252.312A.24.24,0,0,1,5,7.145a1.845,1.845,0,0,1-.2-.156l-.648-.5-.192.24Zm.1-.264L4.2,6.268l-.192-.156L3.854,6.3l.192.156Zm.288-.348L4.5,5.92l-.2-.156-.156.192.192.156Zm1.8.384.228-.216-.312-.336.012-.36.8.24.288-.276L6.076,5.283l.012-.829-.3.288.012.925-.48-.5-.228.216L6.136,6.5ZM6.92,5.067a.579.579,0,0,0,.372.216.7.7,0,0,0,.444-.144.76.76,0,0,0,.24-.24.514.514,0,0,0,.072-.264.415.415,0,0,0-.084-.24.5.5,0,0,0-.192-.168.482.482,0,0,0-.228-.036,2.2,2.2,0,0,0-.336.1.911.911,0,0,1-.288.084.148.148,0,0,1-.1-.048.117.117,0,0,1-.012-.108.375.375,0,0,1,.144-.168.348.348,0,0,1,.192-.072.247.247,0,0,1,.168.1l.24-.192A.462.462,0,0,0,7.228,3.7.665.665,0,0,0,6.8,3.83a.917.917,0,0,0-.216.216.433.433,0,0,0-.072.24A.335.335,0,0,0,6.58,4.5a.4.4,0,0,0,.288.168A.828.828,0,0,0,7.241,4.6c.12-.048.2-.072.24-.084A.268.268,0,0,1,7.613,4.5a.139.139,0,0,1,.084.06.2.2,0,0,1,.024.168.382.382,0,0,1-.144.18.424.424,0,0,1-.228.072.4.4,0,0,1-.216-.12l-.216.2Zm.817.552a.5.5,0,0,0,.18-.108.42.42,0,0,0,.192-.228.169.169,0,0,0-.024-.168.171.171,0,0,0-.144-.072.276.276,0,0,0-.192.072.629.629,0,0,0-.132.12l.036.1a.365.365,0,0,1,.1-.1.192.192,0,0,1,.1-.036.066.066,0,0,1,.06.036.079.079,0,0,1,.012.072.26.26,0,0,1-.1.108c-.048.036-.108.072-.168.108l.084.1ZM8.421,4.61l1.021-.564-.12-.228-.744.42-.2-.36.672-.372-.12-.228-.672.372-.168-.3.72-.4-.12-.228-1,.54.732,1.345Zm1.273-.7.288-.132L9.7,3.17l.552-.252.276.612.288-.12-.624-1.4L9.9,2.13l.24.552-.552.252-.24-.552-.288.132.624,1.4Zm1.417-.588.3-.1-.48-1.453-.3.1Zm-.492-1.537.276-.084-.084-.264-.276.084Zm1.057,1.333.3-.072-.144-.624.06-.012a1.261,1.261,0,0,1,.156-.024.194.194,0,0,1,.108.036,1.618,1.618,0,0,1,.2.18l.288.276L13,2.8l-.252-.252a2.374,2.374,0,0,0-.228-.2.712.712,0,0,0-.192-.084.476.476,0,0,0,.264-.2.423.423,0,0,0,.036-.3.48.48,0,0,0-.12-.216.378.378,0,0,0-.2-.108,1.079,1.079,0,0,0-.36.036l-.636.144.36,1.513Zm.1-.925L12,2.149a1.106,1.106,0,0,0,.264-.084.161.161,0,0,0,.072-.084.2.2,0,0,0,0-.12.175.175,0,0,0-.072-.108.216.216,0,0,0-.132-.036,1.009,1.009,0,0,0-.216.048l-.24.06.1.372Zm1.9-1.009.108,1.525.516-.036a3.084,3.084,0,0,0,.372-.036.523.523,0,0,0,.2-.084.431.431,0,0,0,.12-.168.61.61,0,0,0,.036-.2.391.391,0,0,0-.1-.228.385.385,0,0,0-.228-.12.414.414,0,0,0,.144-.144.4.4,0,0,0,.048-.2.357.357,0,0,0-.06-.18.319.319,0,0,0-.132-.12.391.391,0,0,0-.168-.048,2.063,2.063,0,0,0-.276,0l-.588.048Zm.324.24.024.348.2-.012a1.847,1.847,0,0,0,.228-.024.282.282,0,0,0,.12-.06.2.2,0,0,0,.036-.12.152.152,0,0,0-.048-.108.183.183,0,0,0-.12-.048c-.036,0-.12,0-.264.012L14,1.424Zm.048.6.024.408.288-.024a1.862,1.862,0,0,0,.216-.024.175.175,0,0,0,.108-.072.242.242,0,0,0,.036-.132.2.2,0,0,0-.036-.12.165.165,0,0,0-.1-.06.992.992,0,0,0-.276,0l-.264.024Zm1.285.612L16.5,2.72l.024-.252-.853-.06.024-.42.768.048.024-.252-.768-.048L15.73,1.4l.829.06.024-.264-1.129-.084-.132,1.525Zm1.429.1,1.069.192.048-.252-.756-.132.2-1.244-.3-.048-.276,1.489Zm1.273.252,1.129.3.072-.252L18.4,2.822l.108-.408.744.2.072-.252-.744-.2.084-.324.8.216.072-.252-1.093-.3-.42,1.489Zm1.933-1.009L19.4,3.41l.54.2a1.8,1.8,0,0,0,.264.072.8.8,0,0,0,.252-.036.644.644,0,0,0,.252-.192.818.818,0,0,0,.156-.288,1.106,1.106,0,0,0,.084-.36.727.727,0,0,0-.048-.288.587.587,0,0,0-.168-.216,1.068,1.068,0,0,0-.264-.132l-.516-.192Zm.2.348-.36.949.216.084a.5.5,0,0,0,.18.048.3.3,0,0,0,.144-.012.324.324,0,0,0,.132-.108,1.2,1.2,0,0,0,.132-.252,1.108,1.108,0,0,0,.072-.264A.626.626,0,0,0,20.66,2.6a.341.341,0,0,0-.108-.12,1.393,1.393,0,0,0-.228-.108l-.156-.048Zm.648,1.693.276.144.7-1.369-.276-.144Zm.756-1.441.252.132.132-.252-.256-.13-.132.252Zm.12,1.921.264.168.336-.54.949-.456-.3-.192-.624.324.012-.708L22.017,2.9V3.963l-.324.54Zm.841.576.925.72.156-.2-.672-.528.252-.324.612.468.156-.2-.612-.468.2-.264.648.5.156-.2-.9-.7-.925,1.2Zm1.429.516A.624.624,0,0,0,23.8,6a.746.746,0,0,0,.216.42.818.818,0,0,0,.276.2.507.507,0,0,0,.264.036.481.481,0,0,0,.36-.336.488.488,0,0,0,0-.228,1.238,1.238,0,0,0-.156-.312.651.651,0,0,1-.12-.276.136.136,0,0,1,.036-.1.147.147,0,0,1,.108-.036.451.451,0,0,1,.192.108.25.25,0,0,1,.036.36l.228.216a.428.428,0,0,0,.132-.348.6.6,0,0,0-.216-.4.823.823,0,0,0-.252-.18.408.408,0,0,0-.444.084.383.383,0,0,0-.12.312.885.885,0,0,0,.132.36,1.447,1.447,0,0,1,.12.228.185.185,0,0,1,.024.132.122.122,0,0,1-.048.084.178.178,0,0,1-.156.048.411.411,0,0,1-.2-.12.459.459,0,0,1-.108-.216.416.416,0,0,1,.084-.24l-.233-.2Zm.66,1.429.2.228L25.975,6.24l-.2-.228L24.616,7.024Zm1.225-1.057.192.216.2-.18-.192-.216Zm-.12,1.681a.592.592,0,0,0-.228.372.615.615,0,0,0,.132.444.941.941,0,0,0,.228.252A.423.423,0,0,0,26.1,8.8a.473.473,0,0,0,.252-.072.4.4,0,0,0,.168-.18.37.37,0,0,0,.036-.228,1.927,1.927,0,0,0-.084-.336,1.118,1.118,0,0,1-.072-.3.1.1,0,0,1,.048-.084.117.117,0,0,1,.108-.012.352.352,0,0,1,.156.144.259.259,0,0,1,.06.192.247.247,0,0,1-.1.168l.18.252a.454.454,0,0,0,.2-.312A.646.646,0,0,0,26.92,7.6a.952.952,0,0,0-.2-.228.433.433,0,0,0-.24-.072.415.415,0,0,0-.216.06.393.393,0,0,0-.18.288.975.975,0,0,0,.06.372c.048.12.072.2.084.24a.242.242,0,0,1,0,.132c-.012.036-.024.06-.06.072A.167.167,0,0,1,26,8.476a.42.42,0,0,1-.18-.156.345.345,0,0,1-.06-.228.355.355,0,0,1,.132-.216l-.18-.228ZM26.1,9.182l.144.276.516-.276.1.18a1.638,1.638,0,0,0,.168.276.328.328,0,0,0,.144.108.5.5,0,0,0,.192.048.424.424,0,0,0,.228-.072A.468.468,0,0,0,27.8,9.51a.4.4,0,0,0,.024-.264,1.388,1.388,0,0,0-.156-.336l-.228-.444-1.345.72Zm1.273-.324-.384.2.084.144a1.183,1.183,0,0,0,.132.2.2.2,0,0,0,.228.024.17.17,0,0,0,.1-.108.293.293,0,0,0,0-.144,1.474,1.474,0,0,0-.1-.2l-.06-.12Zm.036,1.321a.86.86,0,0,0-.48.372.733.733,0,0,0-.024.576.7.7,0,0,0,.372.444.773.773,0,0,0,.612,0,.819.819,0,0,0,.492-.384.733.733,0,0,0,.024-.576.679.679,0,0,0-.168-.288.578.578,0,0,0-.192-.144.915.915,0,0,0-.24-.072,1.262,1.262,0,0,0-.4.072Zm.12.3a.571.571,0,0,0-.336.24.369.369,0,0,0-.024.336.378.378,0,0,0,.228.24.635.635,0,0,0,.42-.012.571.571,0,0,0,.336-.24.406.406,0,0,0,.024-.336.4.4,0,0,0-.228-.252A.577.577,0,0,0,27.528,10.479Zm-.3,1.6.06.3.624-.12.012.06a.861.861,0,0,1,.012.156.216.216,0,0,1-.048.108,1.215,1.215,0,0,1-.192.2l-.288.288.072.36.264-.24c.108-.1.168-.168.216-.216a.718.718,0,0,0,.1-.192.543.543,0,0,0,.192.276.425.425,0,0,0,.3.048A.5.5,0,0,0,28.771,13a.341.341,0,0,0,.108-.2,1.392,1.392,0,0,0-.024-.36l-.12-.636-1.513.276Zm.925.132.048.228a.718.718,0,0,0,.072.264.161.161,0,0,0,.084.072.37.37,0,0,0,.12.012.376.376,0,0,0,.12-.06.216.216,0,0,0,.036-.132,2.258,2.258,0,0,0-.036-.228l-.048-.24-.4.084Zm-.588,1.969.012.312.468-.012.264.24-.708.444.012.4.913-.636.612.552-.012-.42-.708-.6.684-.024-.012-.312-1.525.06Zm1.513,1.669-.817-.06a2,2,0,0,0-.384,0,.566.566,0,0,0-.18.072.4.4,0,0,0-.144.168.928.928,0,0,0-.072.324.782.782,0,0,0,.024.3.5.5,0,0,0,.108.192.452.452,0,0,0,.18.108A1.9,1.9,0,0,0,28.17,17l.8.06.03-.309-.841-.06c-.12-.012-.2-.024-.264-.036a.22.22,0,0,1-.12-.084.275.275,0,0,1-.036-.2.347.347,0,0,1,.072-.2.251.251,0,0,1,.156-.084c.036,0,.12,0,.252.012l.829.06.024-.3Zm-1.693,1.417-.228,1.057.252.048.156-.756,1.237.264.06-.3-1.477-.312Zm1.165,1.753-.781-.252a2.93,2.93,0,0,0-.384-.1.388.388,0,0,0-.192.036.575.575,0,0,0-.18.132.764.764,0,0,0-.156.3,1.026,1.026,0,0,0-.048.3.456.456,0,0,0,.06.2.365.365,0,0,0,.156.144,3.62,3.62,0,0,0,.36.144l.768.252.1-.288-.8-.264a1.371,1.371,0,0,1-.24-.1.165.165,0,0,1-.1-.12.307.307,0,0,1,.012-.2.285.285,0,0,1,.12-.18.276.276,0,0,1,.168-.048,1.057,1.057,0,0,1,.252.072l.793.252.1-.288Zm.012.276-.072.24.24.072.084-.24-.252-.072Zm-.144.42-.084.24.24.072.084-.24Zm-.468,1-1.369-.7-.24.468c-.084.18-.144.288-.156.336a.462.462,0,0,0-.024.216.458.458,0,0,0,.24.324.423.423,0,0,0,.24.036.347.347,0,0,0,.216-.132.4.4,0,0,0,.048.2.414.414,0,0,0,.144.144.247.247,0,0,0,.18.036.391.391,0,0,0,.168-.048.375.375,0,0,0,.132-.108,1.329,1.329,0,0,0,.132-.24l.288-.54Zm-.372.156-.312-.156-.1.18a1.985,1.985,0,0,0-.1.2.174.174,0,0,0-.012.132.214.214,0,0,0,.084.1.145.145,0,0,0,.12.012.161.161,0,0,0,.1-.084c.012-.024.06-.108.12-.228l.1-.156Zm-.54-.276-.36-.18-.132.252a.882.882,0,0,0-.084.192.247.247,0,0,0,0,.132.186.186,0,0,0,.1.1.217.217,0,0,0,.12.024.166.166,0,0,0,.108-.06.855.855,0,0,0,.144-.24l.108-.216Zm.132,1.6-.7-.432a1.376,1.376,0,0,0-.348-.18.343.343,0,0,0-.192-.012.493.493,0,0,0-.2.084.781.781,0,0,0-.216.252.874.874,0,0,0-.12.276.423.423,0,0,0,.012.216.524.524,0,0,0,.12.18,1.745,1.745,0,0,0,.312.228l.684.432.168-.264-.72-.444a1.079,1.079,0,0,1-.216-.144.274.274,0,0,1-.072-.144.259.259,0,0,1,.06-.192.352.352,0,0,1,.156-.144.234.234,0,0,1,.18,0,2.155,2.155,0,0,1,.228.132l.708.444.156-.288Zm-.06.264-.132.216.216.132.132-.216Zm-.24.384-.132.216.216.132.132-.216ZM13.221,29.3V27.354h-.312a.733.733,0,0,1-.24.312,1.506,1.506,0,0,1-.324.18v.336a1.414,1.414,0,0,0,.492-.276V29.3Zm.576-.456a.576.576,0,0,0,.18.36.535.535,0,0,0,.372.12.644.644,0,0,0,.516-.24,1.178,1.178,0,0,0,.2-.768,1.108,1.108,0,0,0-.192-.744.6.6,0,0,0-.492-.228.625.625,0,0,0-.456.18.717.717,0,0,0-.012.937.531.531,0,0,0,.4.18.468.468,0,0,0,.36-.168.841.841,0,0,1-.108.444.251.251,0,0,1-.2.108.191.191,0,0,1-.144-.048.275.275,0,0,1-.072-.168l-.348.036Zm.853-.8a.381.381,0,0,0-.084-.276.271.271,0,0,0-.192-.1.182.182,0,0,0-.168.084.408.408,0,0,0-.072.264.446.446,0,0,0,.072.276.224.224,0,0,0,.192.084.216.216,0,0,0,.18-.084.394.394,0,0,0,.072-.252Zm.672.8a.576.576,0,0,0,.18.36.535.535,0,0,0,.372.12.644.644,0,0,0,.516-.24,1.178,1.178,0,0,0,.2-.768,1.108,1.108,0,0,0-.192-.744.6.6,0,0,0-.492-.228.625.625,0,0,0-.456.18.717.717,0,0,0-.012.937.513.513,0,0,0,.4.18.468.468,0,0,0,.36-.168.841.841,0,0,1-.108.444.251.251,0,0,1-.2.108.191.191,0,0,1-.144-.048.275.275,0,0,1-.072-.168l-.348.036Zm.853-.8a.381.381,0,0,0-.084-.276.271.271,0,0,0-.192-.1.182.182,0,0,0-.168.084.408.408,0,0,0-.072.264.446.446,0,0,0,.072.276.224.224,0,0,0,.192.084.216.216,0,0,0,.18-.084.394.394,0,0,0,.072-.252Zm1.309-.684a.542.542,0,0,0-.444.2,1.238,1.238,0,0,0-.192.793,1.221,1.221,0,0,0,.18.768.581.581,0,0,0,.468.216.534.534,0,0,0,.444-.192,1.238,1.238,0,0,0,.192-.793,1.261,1.261,0,0,0-.192-.793.548.548,0,0,0-.456-.2Zm0,.3a.154.154,0,0,0-.12.048.313.313,0,0,0-.084.156,2.2,2.2,0,0,0-.036.48,2,2,0,0,0,.036.468.309.309,0,0,0,.084.168.213.213,0,0,0,.12.048.154.154,0,0,0,.12-.048.313.313,0,0,0,.084-.156,2.2,2.2,0,0,0,.036-.48,2,2,0,0,0-.036-.468A.309.309,0,0,0,17.6,27.7a.213.213,0,0,0-.12-.048ZM15.154,3.422A11.732,11.732,0,1,0,26.885,15.154,11.732,11.732,0,0,0,15.154,3.422Z" fill="#0b0539" fill-rule="evenodd"/><path d="M73.283,52.139h.456s.012.036.012-.4V50.35h0L74.1,47.9h.108l.384,2.269h0a3.829,3.829,0,0,1,.048.408c0,.12.012,1.549.012,1.549v-.012l.889.012.024-1.513h0l.048-.468.348-2.245h.1l.348,2.281h0a2.13,2.13,0,0,1,.048.372l.036,1.573v-.012l.48.012v.348l-.48.66-.012,1.741h.865v-1.56h0s.06-.516.1-.72l.312-2.125h.084l.3,2.125h0l.1.937c0,.432.024,1.333.024,1.333h.456v.468l-.456.552V57.4h0a1.943,1.943,0,0,1,1.549-.961,1.619,1.619,0,0,1,1.609,1.129h0l-3.17.036.012,1.585h0a2.215,2.215,0,0,1,1.849-.9A1.923,1.923,0,0,1,82,59.6H78.279l-.012.024s.456,4-3.374,4.059c-.288-.012-3.206-.336-2.99-4.047h0L68,59.68h0a2.014,2.014,0,0,1,1.993-1.429,2.1,2.1,0,0,1,1.837,1.021h.06l-.012-1.693-3.122-.036h0a1.671,1.671,0,0,1,1.561-1.057,1.627,1.627,0,0,1,1.5.937h0l.06-.012v-1.5l-.444-.552v-.468h.444l.024-1.549h0s.06-.648.084-.793.288-2.053.288-2.053h.12l.324,2.053h0a8.075,8.075,0,0,1,.1,1.021c-.012.312.012,1.333.012,1.333h.9V53.159l-.456-.66.012-.36ZM74.7,53.147v1.741h.865V53.147l-.444-.432-.42.432Zm-1.849,2.762v2.366a3.3,3.3,0,0,1,.937-.66l-.012-1.7-.492-.48-.432.48Zm1.861,0,.024,1.453a3.642,3.642,0,0,1,.8.012l.024-1.465-.444-.468-.408.468ZM76.5,57.674a2.866,2.866,0,0,1,.829.6V55.909l-.432-.48-.42.48.024,1.765Zm-3.1,1.849h1.561l-.78-1.345Zm1.825-.012H76.79l-.781-1.345-.781,1.345ZM72.451,61.18h1.561l-.781-1.345L72.45,61.18Zm1.885-.036H75.9L75.121,59.8l-.78,1.345Zm1.885,0h1.561L77,59.8Zm-.961,1.585h1.561l-.781-1.345-.781,1.345Zm-1.849,0h1.561L74.2,61.385l-.78,1.345ZM68.8,60.1a5.362,5.362,0,0,0,.925,3.746A6.066,6.066,0,0,0,74.784,66.7h0V64.3h0c-3.686-.444-3.506-4.2-3.506-4.2h-.492v.468l-.408.012v-.468l-.588.012-.012.468L69.4,60.6v-.492l-.6-.012Zm6.652,4.155v2.438h0a6.126,6.126,0,0,0,5.9-5.584,7.442,7.442,0,0,0-.024-1.021h-.54l.012.48h-.444v-.492l-.516.012-.012.48-.384.012v-.5h-.576v-.012c-.013.008.287,3.79-3.411,4.186Z" transform="translate(-59.835 -42.148)" fill="#0b0539" fill-rule="evenodd"/></g></g></g></svg>