<svg id="Group_728" data-name="Group 728" xmlns="http://www.w3.org/2000/svg" viewBox="0 0 305.943 68.727">
  <defs>
    <style>
      .cls-1 {
        fill: #aa3339;
      }

      .cls-2 {
        fill: #a73439;
      }
    </style>
  </defs>
  <g id="Group_723" data-name="Group 723" transform="translate(115.937 0)">
    <g id="Group_721" data-name="Group 721" transform="translate(0.017)">
      <path id="Path_7225" data-name="Path 7225" class="cls-1" d="M180.052,3.27A1.561,1.561,0,0,1,178.4,1.618a1.592,1.592,0,0,1,.463-1.189A1.655,1.655,0,0,1,180.052-.1,1.622,1.622,0,0,1,181.7,1.486,1.633,1.633,0,0,1,180.052,3.27Z" transform="translate(-176.484 0.1)"/>
      <path id="Path_7226" data-name="Path 7226" class="cls-1" d="M175.9,24.816a.523.523,0,0,1-.33-.529.708.708,0,0,1,.2-.661l.066-.066.132-.066.661-.066c1.123-.132,1.189-.132,1.189-2.775V11.863c0-2.643-.066-2.709-1.189-2.842l-.793-.066-.066-.066a.644.644,0,0,1-.264-.595.7.7,0,0,1,.33-.595h.132c1.256.066,2.049.066,3.106.066s1.916,0,3.04-.066h.132a.694.694,0,0,1,.33.595.644.644,0,0,1-.264.595h-.132l-.661.066c-1.057.132-1.057.264-1.057,2.908v8.789c0,2.643.066,2.643,1.19,2.775l.727.132h.066a.644.644,0,0,1,.264.595.7.7,0,0,1-.33.595h-.2c-1.189-.066-2.049-.066-3.04-.066-1.057,0-1.916,0-3.106.066h-.066Z" transform="translate(-175.5 -2.546)"/>
      <path id="Path_7227" data-name="Path 7227" class="cls-1" d="M196.59,24.976a7.789,7.789,0,0,1-4.031-.991h-.066l-.066-.066a13.067,13.067,0,0,1-.727-3.635v-.066l.066-.132a.8.8,0,0,1,.661-.33.6.6,0,0,1,.529.264v.066c.463,1.586,1.52,3.436,3.965,3.436a2.5,2.5,0,0,0,2.775-2.511,3.4,3.4,0,0,0-1.85-3.172l-2.379-1.52a5.66,5.66,0,0,1-2.842-4.56c0-2.775,2.181-4.56,5.353-4.56a11.461,11.461,0,0,1,2.379.33,3.957,3.957,0,0,0,.793.132h.264l.066.2a12.36,12.36,0,0,1,.463,3.106V11.1a.732.732,0,0,1-.661.33.515.515,0,0,1-.463-.2h0l-.066-.066a2.882,2.882,0,0,0-3.04-2.577c-2.247,0-2.577,1.52-2.577,2.379a3.681,3.681,0,0,0,1.916,2.775L199.035,15c2.181,1.322,3.238,2.974,3.238,5.022C202.141,22.994,199.894,24.976,196.59,24.976Z" transform="translate(-180.995 -2.376)"/>
      <path id="Path_7228" data-name="Path 7228" class="cls-1" d="M216.724,24.409a.694.694,0,0,1-.33-.595.766.766,0,0,1,.264-.661h.066l.925-.066c1.057-.066,1.256-.132,1.256-2.775V8.747h-1.784a5.091,5.091,0,0,0-2.842.529,5.531,5.531,0,0,0-1.057,1.586v.066l-.066.066a.558.558,0,0,1-.463.132.9.9,0,0,1-.727-.4l-.066-.066v-.132a23.264,23.264,0,0,0,.925-3.7V6.764l.066-.132a.889.889,0,0,1,.529-.132.955.955,0,0,1,.463.132l.066.066.066.066c.066.463.463.529,1.586.529h10.177c1.322,0,1.388-.066,1.652-.529L227.5,6.7l.066-.066a.719.719,0,0,1,.33-.066c.132,0,.463,0,.595.264v.2a15.711,15.711,0,0,0-.4,3.7v.132a.727.727,0,0,1-.661.4c-.264,0-.463-.066-.529-.2l-.066-.066-.066-.066c-.132-1.057-.33-1.52-.463-1.586a4.522,4.522,0,0,0-2.643-.529h-2.181v11.5c0,2.643.066,2.643,1.189,2.775l.925.132h.066a.644.644,0,0,1,.264.595.7.7,0,0,1-.33.595h-.2c-1.454-.066-2.247-.066-3.238-.066s-1.916,0-3.436.066h0Z" transform="translate(-187.846 -2.139)"/>
      <path id="Path_7229" data-name="Path 7229" class="cls-1" d="M245.952,3.27A1.561,1.561,0,0,1,244.3,1.618a1.593,1.593,0,0,1,.463-1.189A1.692,1.692,0,0,1,246.018-.1a1.622,1.622,0,0,1,1.652,1.586A1.763,1.763,0,0,1,245.952,3.27Z" transform="translate(-198.835 0.1)"/>
      <path id="Path_7230" data-name="Path 7230" class="cls-1" d="M241.727,24.816a.523.523,0,0,1-.33-.529c0-.066-.066-.463.2-.661l.066-.066.132-.066.661-.066c1.123-.132,1.189-.132,1.189-2.775V11.863c0-2.643-.066-2.709-1.189-2.842l-.727-.066-.066-.066a.644.644,0,0,1-.264-.595.619.619,0,0,1,.33-.595h.132c1.256.066,2.049.066,3.106.066s1.916,0,3.04-.066h.132a.62.62,0,0,1,.33.595c0,.132,0,.463-.264.595h-.132l-.661.066c-1.123.066-1.19.2-1.19,2.842v8.789c0,2.643.066,2.643,1.19,2.775l.727.132h.066a.644.644,0,0,1,.264.595.7.7,0,0,1-.33.595h-.2c-1.189-.066-2.049-.066-3.04-.066-1.057,0-1.916,0-3.106.066h-.066Z" transform="translate(-197.848 -2.546)"/>
      <path id="Path_7231" data-name="Path 7231" class="cls-1" d="M273.481,25.146l-.132-.132c-.33-.463-1.256-1.52-3.172-3.7l-5.749-6.542c-.264-.264-.595-.727-1.057-1.189-.463-.595-.991-1.189-1.388-1.652v6.344c0,3.965.33,4.758.4,4.956a1.666,1.666,0,0,0,.991.33l.925.066.066.066a.868.868,0,0,1,.2.661.556.556,0,0,1-.264.463l-.066.066H264.1c-1.256-.066-2.049-.066-2.908-.066-1.057,0-1.718,0-2.577.066h-.066l-.132-.066a.694.694,0,0,1-.33-.595.922.922,0,0,1,.2-.595l.066-.066.132-.066.727-.066c.661-.066.793-.264.793-.33.33-.793.264-3.568.264-4.758V11.07a1.844,1.844,0,0,0-.463-1.52,2.225,2.225,0,0,0-1.322-.463l-.529-.066-.066-.066a.746.746,0,0,1-.2-.727c.066-.2.132-.4.33-.463h.132c1.057.066,2.379.066,2.775.066a5.014,5.014,0,0,0,1.057-.066l.264-.066.264.2q.5,1.189,4.163,5.353l3.3,3.7c1.057,1.189,1.916,2.181,2.709,2.974V14.308c0-3.833-.33-4.758-.463-4.956-.066-.066-.33-.2-1.322-.33l-.463-.066V8.889a.844.844,0,0,1-.264-.727.58.58,0,0,1,.4-.463h.132c1.256.066,2.049.066,2.908.066,1.057,0,1.718,0,2.511-.066h.132a.674.674,0,0,1,.33.529.808.808,0,0,1-.2.595v.066l-.132.066-.4.066c-.925.132-1.123.33-1.123.33a19.444,19.444,0,0,0-.33,4.56V20.19c0,3.04.066,4.031.066,4.3v.132a.8.8,0,0,1-.793.529h-.2Z" transform="translate(-203.367 -2.546)"/>
      <path id="Path_7232" data-name="Path 7232" class="cls-1" d="M295.549,24.816a.523.523,0,0,1-.33-.529.708.708,0,0,1,.2-.661l.066-.066.132-.066.793-.066c1.123-.132,1.189-.132,1.189-2.775V19.4a4.784,4.784,0,0,0-.727-2.908l-2.908-5.683c-.793-1.52-1.057-1.586-1.718-1.718l-.793-.132-.066-.066a.746.746,0,0,1-.2-.727c.066-.2.132-.4.33-.463h.132c.859.066,1.718.066,2.908.066,1.123,0,2.049,0,2.643-.066h.132a.7.7,0,0,1,.4.463.746.746,0,0,1-.2.727l-.066.066-.066.066-.4.066c-.463.066-.661.132-.727.132A16.445,16.445,0,0,0,297,10.938c.264.463.463.991.727,1.454.595,1.189,1.189,2.379,1.784,3.5.793-1.388,1.454-2.577,2.049-3.635l.132-.264a26.978,26.978,0,0,0,1.388-2.775,1.541,1.541,0,0,0-.727-.132l-.727-.132-.066-.066a.994.994,0,0,1-.264-.727c.066-.2.132-.4.33-.463h.132c.925.066,1.652.066,2.379.066s1.388,0,2.247-.066h.132a.694.694,0,0,1,.33.595.808.808,0,0,1-.2.595l-.066.066-.066.066-.727.132c-.991.2-1.652,1.388-2.643,3.04-.132.264-1.982,3.436-1.982,3.436-1.057,1.85-1.123,1.982-1.123,3.833v1.256c0,2.709.2,2.709,1.19,2.775l1.057.066.066.066a.87.87,0,0,1,.2.727c-.066.2-.132.4-.33.463h-.2c-1.454-.066-2.313-.066-3.37-.066s-1.916,0-3.238.066h.132Z" transform="translate(-214.729 -2.546)"/>
      <path id="Path_7233" data-name="Path 7233" class="cls-1" d="M331.384,24.816c-2.247-.066-4.428-.066-6.608-.066h-2.247c-1.057,0-1.85,0-3.37.066h-.132a.523.523,0,0,1-.33-.529.708.708,0,0,1,.2-.661l.066-.066.132-.066.859-.066c1.057-.066,1.256-.132,1.256-2.775V11.8c0-2.643-.066-2.643-1.189-2.775l-.529-.066h-.066a.644.644,0,0,1-.264-.595.62.62,0,0,1,.33-.595h.132c1.19.066,1.982.066,2.908.066h4.626c1.322,0,2.974,0,3.238-.066l.264-.066.132.264a21.428,21.428,0,0,1,.4,3.04l.066.463-.066.066a.8.8,0,0,1-.661.33.75.75,0,0,1-.529-.2h0l-.066-.066-.066-.2c-.33-1.057-.529-1.718-1.586-1.982a10.43,10.43,0,0,0-2.313-.132h-2.181a1.3,1.3,0,0,0-.066.595v5.287h1.916a10.686,10.686,0,0,0,1.983-.132c.132-.066.264-.066.4-.595l.264-1.123v-.066a.808.808,0,0,1,.595-.2.619.619,0,0,1,.595.33v.132a5,5,0,0,1-.066.991c0,.463-.066.991-.066,1.52a10.7,10.7,0,0,0,.066,1.454c0,.4.066.661.066.925v.132a.729.729,0,0,1-.661.33.808.808,0,0,1-.595-.2h0l-.066-.066-.264-.991c-.066-.463-.264-.595-.529-.661a10.6,10.6,0,0,0-1.85-.132h-1.916v3.833c0,1.189.066,1.982.4,2.313.264.264.727.463,2.776.463a7.21,7.21,0,0,0,3.04-.33,6.147,6.147,0,0,0,1.586-2.247h0l.066-.066a.558.558,0,0,1,.463-.132.771.771,0,0,1,.727.463v.2a25.133,25.133,0,0,1-1.123,3.568l-.066.2Z" transform="translate(-224.065 -2.546)"/>
    </g>
    <g id="Group_722" data-name="Group 722" transform="translate(0 28.019)">
      <path id="Path_7234" data-name="Path 7234" class="cls-1" d="M222.662,67.412l-.132-.132c-.33-.463-1.256-1.52-3.106-3.7L213.74,57.1a12.773,12.773,0,0,1-1.057-1.256l-.132-.2c-.4-.463-.793-.991-1.123-1.322v6.146c0,3.9.33,4.758.4,4.89,0,.066.264.2.925.264l.925.066.132.132a.768.768,0,0,1,.132.661c-.066.2-.132.4-.33.463l-.066.066h-.132c-.925-.066-1.916-.066-2.908-.066s-1.652,0-2.511.066h-.066l-.132-.066a.788.788,0,0,1-.33-.595.808.808,0,0,1,.2-.595l.066-.066.132-.066.727-.066c.661-.066.793-.264.793-.264a26.047,26.047,0,0,0,.264-4.692V53.336a1.922,1.922,0,0,0-.463-1.52,2.307,2.307,0,0,0-1.322-.463l-.529-.066-.066-.066a.994.994,0,0,1-.264-.727.744.744,0,0,1,.33-.529h.132c1.057.066,2.379.066,2.775.066a5.015,5.015,0,0,0,1.057-.066l.33-.066.132.264c.2.529,1.123,1.916,4.1,5.287l3.5,3.9c.925,1.057,1.718,1.916,2.445,2.643V56.508c0-3.9-.33-4.758-.463-4.89,0-.066-.2-.2-1.256-.33l-.529-.066v.066a.722.722,0,0,1-.264-.793.685.685,0,0,1,.4-.529h.132c1.189.066,1.982.066,2.908.066,1.123,0,1.718,0,2.511-.066h.2a.962.962,0,0,1,.4.595,1.117,1.117,0,0,1-.2.661l-.066.066-.132.066-.4.066c-.925.132-1.123.33-1.123.33a19.163,19.163,0,0,0-.33,4.56v6.212c0,3.04.066,3.965.066,4.229v.132a.853.853,0,0,1-.859.595h-.132Z" transform="translate(-186.167 -44.878)"/>
      <path id="Path_7235" data-name="Path 7235" class="cls-1" d="M246.362,67.116c-1.322-.066-2.115-.066-3.04-.066-.991,0-1.718,0-3.106.066h-.132a1.028,1.028,0,0,1-.4-.529.787.787,0,0,1,.2-.727l.066-.066.132-.066.661-.066c1.123-.132,1.189-.132,1.189-2.775V54.163c0-2.643-.066-2.709-1.123-2.775l-.727-.066h-.066a.7.7,0,0,1-.264-.661.892.892,0,0,1,.33-.661h.132c1.322.066,2.115.066,3.106.066.925,0,1.718,0,3.04-.066h.132a.735.735,0,0,1,.4.661.766.766,0,0,1-.264.661h-.132l-.661.066c-1.057.066-1.123.066-1.123,2.775v8.723c0,2.577.066,2.643,1.189,2.775l.727.132h.066a.7.7,0,0,1,.264.661.892.892,0,0,1-.33.661h-.264Z" transform="translate(-197.245 -44.912)"/>
      <path id="Path_7236" data-name="Path 7236" class="cls-1" d="M244.318,45.67a1.651,1.651,0,0,1-1.718-1.652,1.593,1.593,0,0,1,.463-1.189,1.806,1.806,0,0,1,1.256-.529,1.677,1.677,0,0,1,1.652,1.652A1.614,1.614,0,0,1,244.318,45.67Z" transform="translate(-198.241 -42.3)"/>
      <path id="Path_7237" data-name="Path 7237" class="cls-1" d="M263.614,67.412a1.555,1.555,0,0,1-.529-.132l-.2-.066-.066-.2a21.276,21.276,0,0,0-1.123-3.238l-4.3-10.639c-.529-1.388-.859-1.718-1.652-1.784l-.529-.066-.066-.066a.675.675,0,0,1-.264-.661.694.694,0,0,1,.33-.595l.066-.066h.132c.727.066,1.52.066,2.577.066s1.916,0,2.974-.066h.2a.635.635,0,0,1,.4.595.766.766,0,0,1-.264.661l-.066.066-.132.066-.4.066a2.051,2.051,0,0,0-.793.2A33.821,33.821,0,0,0,261.1,54.79c.991,2.511,2.049,5.154,3.172,7.666.463-.991.991-2.247,1.322-3.172.264-.595.463-1.123.661-1.52.661-1.586,1.85-4.428,2.247-5.485a3,3,0,0,0,.2-.727c-.066-.066-.264-.132-.793-.2l-.529-.066-.066-.066a.675.675,0,0,1-.264-.661.694.694,0,0,1,.33-.595h.2c.661.066,1.586.066,2.577.066.859,0,1.586,0,2.379-.066h.2a1.028,1.028,0,0,1,.4.529c0,.2,0,.529-.2.661l-.132.132-.859.066a1.244,1.244,0,0,0-.991.661,45.822,45.822,0,0,0-2.709,5.617l-1.322,3.04c-.925,2.181-2.115,5.088-2.511,6.344v.066l-.066.066A1.6,1.6,0,0,1,263.614,67.412Z" transform="translate(-202.404 -44.878)"/>
      <path id="Path_7238" data-name="Path 7238" class="cls-1" d="M184.879,45.736a1.479,1.479,0,0,1-1.586-1.652,1.787,1.787,0,0,1,.4-1.256,1.655,1.655,0,0,1,1.189-.529,1.719,1.719,0,0,1,0,3.436Z" transform="translate(-178.122 -42.3)"/>
      <path id="Path_7239" data-name="Path 7239" class="cls-1" d="M193.152,45.736a1.561,1.561,0,0,1-1.652-1.652,1.7,1.7,0,0,1,1.652-1.784,1.636,1.636,0,0,1,1.586,1.718A1.6,1.6,0,0,1,193.152,45.736Z" transform="translate(-180.91 -42.3)"/>
      <path id="Path_7240" data-name="Path 7240" class="cls-1" d="M184.545,67.412a7.02,7.02,0,0,1-4.824-1.454c-1.388-1.189-2.049-3.106-2.049-6.08V54.063c0-2.643-.066-2.643-1.123-2.709l-.727-.066h-.066a.628.628,0,0,1-.264-.661.7.7,0,0,1,.33-.595h.132c1.322.066,2.181.066,3.106.066.991,0,1.784,0,2.974-.066h.132a.807.807,0,0,1,.4.661c0,.264-.066.529-.264.595h-.132l-.661.066c-1.057.066-1.123.066-1.123,2.709V59.35c0,4.229,1.454,6.212,4.626,6.212,3.767,0,4.56-3.37,4.56-6.146V56.574c0-3.767-.264-4.692-.4-4.89-.066-.132-.33-.264-.925-.33l-.793-.066-.132-.132a.987.987,0,0,1-.2-.661.908.908,0,0,1,.33-.529l.066-.066h.132c.991.066,1.85.066,2.842.066s1.586,0,2.577-.066h.2a.674.674,0,0,1,.33.529.634.634,0,0,1-.2.661l-.132.132-.727.066c-.529.066-.859.2-.925.4a21.841,21.841,0,0,0-.33,4.824v2.775c0,2.842-.595,4.824-1.85,6.146A6.544,6.544,0,0,1,184.545,67.412Z" transform="translate(-175.474 -44.878)"/>
      <path id="Path_7241" data-name="Path 7241" class="cls-1" d="M416.943,67.082c-2.379-.066-4.494-.066-6.542-.066H408.22c-1.057,0-1.85,0-3.172.066h-.264a.821.821,0,0,1-.4-.529.787.787,0,0,1,.2-.727l.132-.066.925-.066c1.057-.066,1.19-.132,1.19-2.709V54.063c0-2.577-.066-2.577-1.19-2.709l-.529-.066h-.066a.7.7,0,0,1-.264-.661.732.732,0,0,1,.33-.661h.132c1.123.066,1.916.066,2.908.066h4.626c1.322,0,2.974,0,3.238-.066l.33-.066.132.33a21.426,21.426,0,0,1,.4,3.04l.066.463-.066.066a.842.842,0,0,1-.727.33.75.75,0,0,1-.529-.2h0l-.066-.066-.066-.2c-.33-1.057-.529-1.652-1.586-1.916a11.422,11.422,0,0,0-2.313-.132h-2.115v5.815h1.85a10.686,10.686,0,0,0,1.982-.132c.132-.066.264-.066.33-.595l.264-1.123v-.066a.838.838,0,0,1,.595-.264.813.813,0,0,1,.661.33v.132a6.051,6.051,0,0,1-.066,1.057c0,.463-.066.991-.066,1.52a9.3,9.3,0,0,0,.066,1.388c0,.4.066.727.066.925v.132a.727.727,0,0,1-.661.4.644.644,0,0,1-.595-.264l-.066-.132-.264-.991c-.066-.4-.2-.595-.463-.661a9.7,9.7,0,0,0-1.784-.132H409.41v3.7a4.507,4.507,0,0,0,.33,2.313c.2.2.727.463,2.709.463a6.831,6.831,0,0,0,2.974-.33,5.2,5.2,0,0,0,1.586-2.247l.066-.132a.629.629,0,0,1,.463-.132.771.771,0,0,1,.727.463v.2a25.145,25.145,0,0,1-1.123,3.568l-.132.2Z" transform="translate(-253.106 -44.878)"/>
      <path id="Path_7242" data-name="Path 7242" class="cls-1" d="M435.39,67.276a7.755,7.755,0,0,1-4.031-.991h-.066l-.066-.066a12.576,12.576,0,0,1-.727-3.635v-.066l.066-.132a1.016,1.016,0,0,1,.727-.4.6.6,0,0,1,.529.264h0v.066c.463,1.586,1.52,3.436,3.9,3.436a2.47,2.47,0,0,0,2.709-2.445,3.311,3.311,0,0,0-1.85-3.106l-2.313-1.52a5.66,5.66,0,0,1-2.842-4.56c0-2.775,2.181-4.626,5.419-4.626a11.462,11.462,0,0,1,2.379.33,4.88,4.88,0,0,0,.793.132h.264l.066.264a11.882,11.882,0,0,1,.463,3.106V53.4l-.066.132a.842.842,0,0,1-.727.33.75.75,0,0,1-.529-.2l-.066-.132a2.859,2.859,0,0,0-2.974-2.511c-2.115,0-2.577,1.256-2.577,2.379a3.562,3.562,0,0,0,1.916,2.709l1.982,1.256c2.181,1.322,3.238,2.974,3.238,5.022C441.007,65.294,438.76,67.276,435.39,67.276Z" transform="translate(-261.971 -44.742)"/>
      <path id="Path_7243" data-name="Path 7243" class="cls-1" d="M456.618,45.67a1.651,1.651,0,0,1-1.718-1.652,1.592,1.592,0,0,1,.463-1.189,1.805,1.805,0,0,1,1.256-.529,1.677,1.677,0,0,1,1.652,1.652A1.652,1.652,0,0,1,456.618,45.67Z" transform="translate(-270.247 -42.3)"/>
      <path id="Path_7244" data-name="Path 7244" class="cls-1" d="M458.671,67.116c-1.256-.066-2.049-.066-3.04-.066s-1.718,0-3.106.066h-.132a1.028,1.028,0,0,1-.4-.529.87.87,0,0,1,.2-.727l.066-.066.132-.066.661-.066c1.123-.132,1.189-.132,1.189-2.775V54.163c0-2.643-.066-2.709-1.123-2.775l-.727-.066h-.066a.628.628,0,0,1-.264-.661.729.729,0,0,1,.33-.661h.132c1.322.066,2.115.066,3.106.066.925,0,1.718,0,3.04-.066h.132a.677.677,0,0,1,.4.661.766.766,0,0,1-.264.661H458.8l-.661.066c-1.057.066-1.123.066-1.123,2.775v8.723c0,2.577.066,2.643,1.189,2.775l.727.132H459a.644.644,0,0,1,.264.595.729.729,0,0,1-.33.661h-.066l-.2.066Z" transform="translate(-269.259 -44.912)"/>
      <path id="Path_7245" data-name="Path 7245" class="cls-1" d="M379.826,66.744a.724.724,0,0,1-.066-1.256l.132-.066.925-.066c1.057-.066,1.19-.132,1.19-2.709V51.281h-1.652a4.852,4.852,0,0,0-2.775.529,3.75,3.75,0,0,0-.991,1.586l-.066.132a.714.714,0,0,1-.463.2.917.917,0,0,1-.793-.463l-.066-.132.066-.132a28.51,28.51,0,0,0,.925-3.568V49.3l.132-.066a1.681,1.681,0,0,1,.463-.132.955.955,0,0,1,.463.132l.066.066.066.132c.066.4.4.529,1.52.529h10.045c1.322,0,1.322-.066,1.586-.529l.066-.066.066-.066a.719.719,0,0,1,.33-.066.575.575,0,0,1,.595.33l.066.132-.066.132a14.318,14.318,0,0,0-.33,3.568v.2a.759.759,0,0,1-.727.4.644.644,0,0,1-.595-.264l-.066-.066-.066-.132c-.132-1.057-.33-1.52-.463-1.586a4.264,4.264,0,0,0-2.643-.529H384.65V62.845c0,2.577.066,2.577,1.123,2.709l.925.132h.066a.644.644,0,0,1,.264.595.729.729,0,0,1-.33.661h-.2c-1.388-.066-2.247-.066-3.172-.066s-1.784,0-3.238.066l-.264-.2Z" transform="translate(-243.215 -44.606)"/>
      <path id="Path_7246" data-name="Path 7246" class="cls-1" d="M296.818,67.082c-2.379-.066-4.494-.066-6.608-.066h-2.181c-1.057,0-1.85,0-3.172.066h-.264a.821.821,0,0,1-.4-.529.87.87,0,0,1,.2-.727l.132-.066.925-.066c1.057-.066,1.189-.132,1.189-2.709V54.063c0-2.577-.066-2.577-1.189-2.709l-.529-.066h-.066a.7.7,0,0,1-.264-.661.892.892,0,0,1,.33-.661h.132c1.123.066,1.916.066,2.908.066h4.626c1.322,0,2.974,0,3.238-.066l.33-.066.132.33a21.729,21.729,0,0,1,.4,2.908l.066.529-.066.066a.842.842,0,0,1-.727.33.75.75,0,0,1-.529-.2h0l-.066-.066-.066-.2c-.33-1.057-.529-1.718-1.586-1.916a11.421,11.421,0,0,0-2.313-.132h-2.115v5.815h1.85a10.685,10.685,0,0,0,1.982-.132c.132-.066.264-.066.33-.595l.264-1.123v-.066a.838.838,0,0,1,.595-.264.813.813,0,0,1,.661.33v.132a6.043,6.043,0,0,1-.066,1.057c0,.463-.066.991-.066,1.52a9.312,9.312,0,0,0,.066,1.388c0,.4.066.727.066.925v.132a.727.727,0,0,1-.661.4.644.644,0,0,1-.595-.264l-.066-.132-.264-.991c-.066-.4-.2-.595-.463-.661a9.7,9.7,0,0,0-1.784-.132h-1.916v3.7c0,1.189.066,1.982.4,2.313.2.2.727.463,2.709.463a6.831,6.831,0,0,0,2.974-.33,5.2,5.2,0,0,0,1.586-2.247l.066-.132a.629.629,0,0,1,.463-.132.771.771,0,0,1,.727.463v.2a22.709,22.709,0,0,1-1.123,3.568l-.132.2Z" transform="translate(-212.347 -44.878)"/>
      <path id="Path_7247" data-name="Path 7247" class="cls-1" d="M325.654,67.348c-2.379,0-3.635-.793-5.419-3.238-.33-.463-.793-1.123-1.189-1.784s-.859-1.388-1.256-1.916c-.33-.463-.595-.595-1.454-.595a2.073,2.073,0,0,0-.793.066h0v3.238c0,2.511.066,2.511,1.123,2.709l.595.066.066.066a.9.9,0,0,1,.264.727.89.89,0,0,1-.33.595h-.132c-1.123-.066-1.983-.066-2.974-.066-1.057,0-1.916,0-3.04.066h-.132a.888.888,0,0,1-.4-.463.968.968,0,0,1,.132-.727l.066-.066.132-.066.661-.066c1.123-.132,1.123-.132,1.123-2.709V54.2c0-2.379-.132-2.445-.727-2.511l-.925-.132h-.066a.628.628,0,0,1-.264-.661.694.694,0,0,1,.33-.595h.066c1.586-.132,3.3-.2,5.551-.2a8.746,8.746,0,0,1,4.3.793,4.018,4.018,0,0,1,2.247,3.767,4.818,4.818,0,0,1-3.106,4.361c0,.066.066.066.066.132,1.85,2.974,3.172,5.022,4.89,6.476a2.846,2.846,0,0,0,1.454.595h.066a.7.7,0,0,1,.4.463.751.751,0,0,1-.2.529l-.066.066C326.579,67.282,326.182,67.348,325.654,67.348Zm-9.979-9.119c.2,0,.529.066,1.388.066a3.7,3.7,0,0,0,2.313-.595,3.641,3.641,0,0,0-2.511-6.212c-1.189,0-1.189,0-1.189.4v5.749A.911.911,0,0,0,315.675,58.228Z" transform="translate(-221.291 -44.946)"/>
      <path id="Path_7248" data-name="Path 7248" class="cls-1" d="M364.118,45.67a1.651,1.651,0,0,1-1.718-1.652,1.593,1.593,0,0,1,.463-1.189,1.805,1.805,0,0,1,1.256-.529,1.677,1.677,0,0,1,1.652,1.652A1.579,1.579,0,0,1,364.118,45.67Z" transform="translate(-238.874 -42.3)"/>
      <path id="Path_7249" data-name="Path 7249" class="cls-1" d="M366.162,67.116c-1.322-.066-2.115-.066-3.04-.066-.991,0-1.718,0-3.106.066h-.132a.821.821,0,0,1-.4-.529.787.787,0,0,1,.2-.727l.066-.066.132-.066.661-.066c1.123-.132,1.189-.132,1.189-2.775V54.163c0-2.643-.066-2.709-1.123-2.775l-.727-.066h-.066a.628.628,0,0,1-.264-.661.892.892,0,0,1,.33-.661h.132c1.322.066,2.115.066,3.106.066.925,0,1.718,0,3.04-.066h.132a.807.807,0,0,1,.4.661.766.766,0,0,1-.264.661l-.132.066-.661.066c-1.057.066-1.123.066-1.123,2.775v8.723c0,2.577.066,2.643,1.189,2.775l.727.132h.066a.644.644,0,0,1,.264.595.729.729,0,0,1-.33.661h-.264Z" transform="translate(-237.877 -44.912)"/>
      <path id="Path_7250" data-name="Path 7250" class="cls-1" d="M342.59,67.31a8.663,8.663,0,0,1-4.031-.925h-.066l-.066-.066a13.068,13.068,0,0,1-.727-3.635v-.066l.066-.132a1.016,1.016,0,0,1,.727-.4.6.6,0,0,1,.529.264h0v.066c.463,1.586,1.52,3.436,3.9,3.436a2.47,2.47,0,0,0,2.709-2.445,3.312,3.312,0,0,0-1.85-3.106l-2.313-1.52a5.66,5.66,0,0,1-2.842-4.56c0-2.775,2.181-4.626,5.419-4.626a11.46,11.46,0,0,1,2.379.33,3.958,3.958,0,0,0,.793.132h.264l.066.264a11.884,11.884,0,0,1,.463,3.106V53.5l-.066.132a.842.842,0,0,1-.727.33.75.75,0,0,1-.529-.2l-.066-.132a2.859,2.859,0,0,0-2.974-2.511c-2.115,0-2.577,1.256-2.577,2.379a3.562,3.562,0,0,0,1.916,2.709l1.983,1.256c2.181,1.322,3.238,2.974,3.238,5.022C348.207,65.328,345.96,67.31,342.59,67.31Z" transform="translate(-230.496 -44.776)"/>
    </g>
  </g>
  <g id="Group_724" data-name="Group 724" transform="translate(115.97 58.682)">
    <path id="Path_7251" data-name="Path 7251" class="cls-1" d="M176.632,92.4c0-1.322,0-1.52-.727-1.586h-.33a.3.3,0,0,1,0-.33c.595,0,.991.066,1.52.066a12.754,12.754,0,0,0,1.52-.066.3.3,0,0,1,0,.33h-.33c-.727.066-.727.264-.727,1.586v4.361c0,1.256,0,1.454.727,1.52l.33.066a.3.3,0,0,1,0,.33c-.595,0-.991-.066-1.52-.066a12.217,12.217,0,0,0-1.52.066.3.3,0,0,1,0-.33l.33-.066c.727-.066.727-.264.727-1.52Zm-.132-3.04a.624.624,0,0,1,.661-.661.653.653,0,0,1,.661.595.624.624,0,0,1-.661.661C176.764,89.956,176.5,89.757,176.5,89.361Z" transform="translate(-175.525 -88.7)"/>
    <path id="Path_7252" data-name="Path 7252" class="cls-1" d="M212.747,99.525a4.11,4.11,0,0,1-1.916-.463,5.259,5.259,0,0,1-.33-1.718c.066-.066.264-.132.264-.066a2.217,2.217,0,0,0,2.115,1.784,1.391,1.391,0,0,0,1.52-1.388,1.924,1.924,0,0,0-.991-1.718l-1.123-.727a2.676,2.676,0,0,1-1.322-2.115A2.246,2.246,0,0,1,213.474,91a5.82,5.82,0,0,1,1.123.132.982.982,0,0,0,.4.066,4.541,4.541,0,0,1,.2,1.454c-.066.066-.264.132-.33.066a1.558,1.558,0,0,0-1.652-1.388,1.275,1.275,0,0,0-1.454,1.322,2,2,0,0,0,1.057,1.52l.991.595a2.68,2.68,0,0,1,1.52,2.313A2.3,2.3,0,0,1,212.747,99.525Z" transform="translate(-187.387 -89.48)"/>
    <path id="Path_7253" data-name="Path 7253" class="cls-1" d="M252.028,97.561c0,1.256,0,1.454.727,1.52l.4.066a.3.3,0,0,1,0,.33c-.661,0-1.123-.066-1.586-.066s-.925,0-1.718.066a.3.3,0,0,1,0-.33l.463-.066c.727-.066.727-.264.727-1.52V92.142c0-.4,0-.4-.4-.4h-.661a2.271,2.271,0,0,0-1.52.33,2.332,2.332,0,0,0-.529.859c-.066.066-.264,0-.33-.066a10.175,10.175,0,0,0,.463-1.784c.066,0,.2-.066.264,0,.066.4.463.4,1.057.4h4.956c.661,0,.793,0,.925-.33.066,0,.2,0,.2.066a9.825,9.825,0,0,0-.2,1.85.3.3,0,0,1-.33,0c-.066-.33-.132-.727-.33-.859a2.363,2.363,0,0,0-1.388-.33h-.859c-.4,0-.33,0-.33.4v5.287Z" transform="translate(-199.971 -89.499)"/>
    <path id="Path_7254" data-name="Path 7254" class="cls-1" d="M292,96.585c-.066-.264-.132-.33-.529-.33h-1.85c-.33,0-.4.066-.463.264l-.4,1.256a3.549,3.549,0,0,0-.264.991c0,.132.066.2.33.264l.4.066a.3.3,0,0,1,0,.33,9.355,9.355,0,0,1-1.256-.066,6.8,6.8,0,0,0-1.19.066.3.3,0,0,1,0-.33l.4-.066c.264,0,.529-.132.727-.595.2-.529.529-1.322,1.057-2.709l1.256-3.3c.2-.463.264-.661.2-.859a1.687,1.687,0,0,0,.661-.463c.066,0,.132,0,.2.132a15.955,15.955,0,0,0,.529,1.652l1.652,4.89c.33,1.057.529,1.256,1.057,1.322l.33.066a.3.3,0,0,1,0,.33c-.529,0-.925-.066-1.454-.066a8.042,8.042,0,0,0-1.388.066c-.066-.066-.132-.264,0-.33l.33-.066q.4,0,.4-.2a5.534,5.534,0,0,0-.132-.661Zm-2.445-1.123c-.066.264-.066.264.264.264h1.52c.33,0,.4-.066.264-.4l-.661-1.982c-.066-.264-.2-.595-.264-.793h0a3.52,3.52,0,0,0-.264.727Z" transform="translate(-213.241 -89.514)"/>
    <path id="Path_7255" data-name="Path 7255" class="cls-1" d="M335.572,97.414c0,.4,0,1.784.066,2.115,0,.066-.066.132-.264.132-.132-.2-.529-.661-1.586-1.85l-2.842-3.238c-.33-.4-1.123-1.388-1.388-1.652h0a2.281,2.281,0,0,0-.066.793v2.643a9.672,9.672,0,0,0,.2,2.511c.066.132.33.2.595.264l.4.066a.3.3,0,0,1,0,.33c-.529,0-.991-.066-1.454-.066a7.2,7.2,0,0,0-1.256.066.3.3,0,0,1,0-.33l.33-.066c.264-.066.463-.132.529-.264a10.314,10.314,0,0,0,.132-2.511v-3.5a1.041,1.041,0,0,0-.264-.859.994.994,0,0,0-.727-.264h-.2a.3.3,0,0,1,0-.33,11.8,11.8,0,0,0,1.388.066,1.288,1.288,0,0,0,.529-.066,20.8,20.8,0,0,0,2.049,2.709l1.189,1.322c.859.925,1.454,1.586,1.983,2.181h0c.066-.066.066-.264.066-.529V94.506a7.334,7.334,0,0,0-.264-2.511c-.066-.132-.264-.2-.727-.264h-.2a.3.3,0,0,1,0-.33c.529,0,.991.066,1.454.066A7.2,7.2,0,0,0,336.5,91.4a.3.3,0,0,1,0,.33h-.2c-.4.066-.661.132-.661.264a10.2,10.2,0,0,0-.2,2.511v2.908Z" transform="translate(-227.146 -89.616)"/>
    <path id="Path_7256" data-name="Path 7256" class="cls-1" d="M372.366,93.052c0-.925-.066-1.123-.595-1.189l-.4-.066a.3.3,0,0,1,0-.33c.661-.066,1.454-.066,2.643-.066a4.764,4.764,0,0,1,2.049.33,1.582,1.582,0,0,1,.925,1.52,1.766,1.766,0,0,1-1.256,1.652c0,.132.066.132.264.2a2.037,2.037,0,0,1,1.652,2.049c0,1.388-1.057,2.379-3.238,2.379-.33,0-.925-.066-1.454-.066a9.307,9.307,0,0,0-1.388.066.3.3,0,0,1,0-.33l.2-.066c.661-.132.661-.264.661-1.52v-4.56Zm.991,1.586c0,.33,0,.4.661.33,1.256-.066,1.916-.4,1.916-1.586a1.593,1.593,0,0,0-1.784-1.652c-.264,0-.463,0-.529.066-.132.066-.2.066-.2.33v2.511Zm0,2.842a2.075,2.075,0,0,0,.264,1.322,1.3,1.3,0,0,0,.991.33c1.057,0,1.916-.463,1.916-1.718,0-.991-.463-2.049-2.445-2.049-.661,0-.727.066-.727.33V97.48Z" transform="translate(-241.934 -89.616)"/>
    <path id="Path_7257" data-name="Path 7257" class="cls-1" d="M417.779,94.54a6.957,6.957,0,0,0-.264-2.511c-.066-.132-.33-.2-.595-.264h-.33c-.066-.066-.066-.264,0-.264.463,0,.925.066,1.388.066a7.2,7.2,0,0,0,1.256-.066.2.2,0,0,1,0,.264h-.264a.637.637,0,0,0-.595.264,9.419,9.419,0,0,0-.2,2.511v1.388a4.345,4.345,0,0,1-.859,2.908,3.141,3.141,0,0,1-2.313.859,3.248,3.248,0,0,1-2.247-.661c-.661-.529-.925-1.454-.925-2.842V93.35c0-1.256,0-1.454-.727-1.52h-.33c-.066-.066-.066-.264,0-.264.595,0,.991.066,1.52.066a12.215,12.215,0,0,0,1.52-.066c.066.066.066.264,0,.264h-.264c-.727.066-.727.264-.727,1.52v2.643c0,1.982.595,3.238,2.445,3.238,1.784,0,2.445-1.388,2.445-3.238V94.54Z" transform="translate(-255.298 -89.65)"/>
    <path id="Path_7258" data-name="Path 7258" class="cls-1" d="M454.4,93.35c0-1.256,0-1.454-.793-1.52h-.33a.3.3,0,0,1,0-.33c.661,0,1.123.066,1.586.066a13.319,13.319,0,0,0,1.52-.066.3.3,0,0,1,0,.33h-.264c-.727.066-.727.264-.727,1.52V97.58c0,.793.066,1.057.264,1.322.132.132.4.264,1.322.264a3.743,3.743,0,0,0,1.454-.132,2.6,2.6,0,0,0,.793-1.189c.066-.066.33,0,.33.066a8.148,8.148,0,0,1-.529,1.718c-.595,0-1.784-.066-3.04-.066h-1.123a13.835,13.835,0,0,0-1.586.066.3.3,0,0,1,0-.33l.4-.066c.727-.066.727-.264.727-1.52Z" transform="translate(-269.712 -89.65)"/>
  </g>
  <g id="Group_727" data-name="Group 727" transform="translate(0 0.066)">
    <g id="Group_725" data-name="Group 725" transform="translate(102.142)">
      <line id="Line_17" data-name="Line 17" class="cls-2" y2="68.66" transform="translate(0.463)"/>
      <rect id="Rectangle_60" data-name="Rectangle 60" class="cls-1" width="0.925" height="68.66"/>
    </g>
    <g id="Group_726" data-name="Group 726" transform="translate(0 9.45)">
      <path id="Path_7259" data-name="Path 7259" class="cls-1" d="M9.768,21.371a3.383,3.383,0,0,1-3.568-3.5,3.438,3.438,0,0,1,.991-2.511A3.69,3.69,0,0,1,9.835,14.3a3.536,3.536,0,1,1-.066,7.071Z" transform="translate(-2.125 -14.3)"/>
      <path id="Path_7260" data-name="Path 7260" class="cls-1" d="M96.065,21.669a3.163,3.163,0,0,1-3.37-3.5,3.562,3.562,0,0,1,.859-2.643A3.309,3.309,0,0,1,96.065,14.4a3.588,3.588,0,0,1,3.5,3.635A3.437,3.437,0,0,1,96.065,21.669Z" transform="translate(-31.458 -14.334)"/>
      <path id="Path_7261" data-name="Path 7261" class="cls-1" d="M113.869,21.669a3.383,3.383,0,0,1-3.568-3.5,3.633,3.633,0,0,1,3.568-3.767,3.481,3.481,0,0,1,3.37,3.635A3.373,3.373,0,0,1,113.869,21.669Z" transform="translate(-37.432 -14.334)"/>
      <path id="Path_7262" data-name="Path 7262" class="cls-1" d="M.8,67.1a1.379,1.379,0,0,1-.727-1.057,1.569,1.569,0,0,1,.4-1.454l.132-.132.2-.066,1.388-.132c2.445-.264,2.577-.33,2.577-6.014V39.282c0-5.617-.066-5.881-2.577-6.08l-1.52-.066L.606,33.07a1.321,1.321,0,0,1-.529-1.322,1.582,1.582,0,0,1,.661-1.256L.8,30.427H1c2.643.132,4.428.132,6.74.132,2.247,0,4.1-.066,6.542-.132h.132l.2.066a1.552,1.552,0,0,1,.793,1.322,1.321,1.321,0,0,1-.529,1.322l-.066.066-.264-.066-1.388.132c-2.445.2-2.577.463-2.577,6.08v18.9c0,5.683.132,5.749,2.577,6.014l1.586.2.066.066a1.59,1.59,0,0,1,.529,1.256,1.684,1.684,0,0,1-.727,1.322l-.066.066h-.264c-2.577-.132-4.428-.132-6.542-.132-2.247,0-4.031.066-6.674.132H.936Zm44.606-9.78c0-4.361-2.313-7.93-7-10.838l-4.229-2.643c-1.586-.991-4.163-3.04-4.163-5.881,0-1.916.727-5.154,5.617-5.154,4.428,0,5.815,2.775,6.542,5.551l.066.132h0a1.438,1.438,0,0,0,1.057.463,1.868,1.868,0,0,0,1.52-.727l.066-.2v-.132a24.7,24.7,0,0,0-.991-6.74l-.2-.463h-.529a10.364,10.364,0,0,1-1.652-.264,21.961,21.961,0,0,0-5.154-.727c-6.939,0-11.565,3.965-11.565,9.846,0,4.758,3.3,7.93,6.08,9.714l5.022,3.3c3.5,2.247,4.031,4.626,4.031,6.807,0,2.709-1.85,5.353-5.881,5.353-5.154,0-7.467-4.031-8.459-7.467l-.066-.132a1.2,1.2,0,0,0-1.057-.529,1.931,1.931,0,0,0-1.454.727l-.132.33v.132c.132,2.511.793,6.41,1.586,7.8l.132.132.132.066a17.653,17.653,0,0,0,8.657,2.049C40.52,67.83,45.41,63.6,45.41,57.323ZM80.368,63.8c2.643-2.842,3.9-7.137,3.9-13.151V44.7c0-2.445,0-8.855.661-10.441.132-.33.859-.727,1.982-.793l1.586-.132.2-.264a1.892,1.892,0,0,0,.4-1.454,1.772,1.772,0,0,0-.727-1.123l-.264-.066h-.132c-2.049.132-3.436.132-5.485.132s-4.031-.066-6.08-.132l-.264.066-.132.066a1.5,1.5,0,0,0-.661,1.123,1.991,1.991,0,0,0,.33,1.388l.2.264,1.652.132c1.256.066,1.85.4,1.982.727.264.463.925,2.445.925,10.507v6.08C80.434,56.794,78.716,64,70.72,64c-6.74,0-9.912-4.229-9.912-13.283V39.282c0-5.617.2-5.683,2.445-5.815l1.388-.132.2-.066L64.9,33.2a1.321,1.321,0,0,0,.529-1.322,1.707,1.707,0,0,0-.793-1.388l-.2-.066H64.31c-2.709.132-4.361.132-6.476.132-1.982,0-3.7-.066-6.608-.132l-.2.066-.132.066a1.508,1.508,0,0,0-.727,1.322,1.443,1.443,0,0,0,.661,1.388l.066.066,1.52.132c2.247.2,2.445.2,2.445,5.815V51.706c0,6.41,1.388,10.573,4.428,13.084,2.379,2.049,5.881,3.106,10.375,3.106C73.958,67.9,78.055,66.31,80.368,63.8Z" transform="translate(-0.033 -19.523)"/>
    </g>
  </g>
</svg>