<svg xmlns="http://www.w3.org/2000/svg" viewBox="0 0 451.121 68.727">
  <defs>
    <style>
      .cls-1 {
        fill: #ed1b23;
      }
    </style>
  </defs>
  <path id="Path_7263" data-name="Path 7263" class="cls-1" d="M337.859,19.931,330.23,35.875h15.257Zm61.166,5.223c0-6.254-3.3-9.347-9.9-9.347H371.672V34.844h17.457C395.727,34.776,399.026,31.614,399.026,25.154Zm-86.252,0c0-6.254-3.3-9.347-9.9-9.347H285.421V34.844h17.457C309.475,34.776,312.774,31.614,312.774,25.154ZM285.421,68.726h-7.9V7.835h24.4c12.371,0,18.556,5.7,18.556,17.182,0,11.752-6.185,17.663-18.556,17.663H285.49V68.726ZM439.23,58.692l-20.343-17.8V58.761h-7.9V7.835h7.9V25.772L439.23,7.835h11.89l-28.659,25.5,28.659,25.36Zm-376.9-7.9h23.23v7.9h-31.2V7.835h31.2v7.9H62.335V24.4h23.23v7.9H62.335ZM126.594,32.37c0-11.065-4.948-16.632-14.776-16.632H99.241V50.72h12.577C121.646,50.72,126.594,44.6,126.594,32.37ZM91.337,7.835h18.281q25.051,0,25.085,24.535c0,17.594-8.316,26.322-24.879,26.322H91.406V7.835Zm48.864,0h7.9V58.692h-7.9ZM40.274,58.761V24.123L26.253,51.132H21.992L7.972,24.123V58.692H0V7.835H7.972l16.151,31.2,16.151-31.2h7.972V58.692H40.274Zm174.634-38.83-7.629,15.945h15.257Zm25.91,34.982V0h7.972V50.789h23.642v7.9H242.879l5.086,9.965h-9.072l-8.866-17.25-3.643-7.629H203.5l-.619,1.237-.137.206a39.832,39.832,0,0,1-5.292,7.148,26.647,26.647,0,0,1-7.766,5.086,25.782,25.782,0,0,1-20.206,0,27.77,27.77,0,0,1-8.453-5.7,27.452,27.452,0,0,1-5.7-8.385,25.632,25.632,0,0,1-2.062-10.172,25.062,25.062,0,0,1,2.062-10.1,27.453,27.453,0,0,1,5.7-8.385A26.59,26.59,0,0,1,169.479,9a25.182,25.182,0,0,1,20.274,0c.481.206.893.412,1.306.619a7.835,7.835,0,0,1,1.306.687l-4.33,6.6a7.128,7.128,0,0,1-.687-.275,6.044,6.044,0,0,0-.687-.412,14.343,14.343,0,0,0-3.436-1.1,15.406,15.406,0,0,0-3.574-.412,16.678,16.678,0,0,0-7.148,1.512,17.314,17.314,0,0,0-5.842,3.986,20.667,20.667,0,0,0-4.055,5.842,18.25,18.25,0,0,0,0,14.226,19.36,19.36,0,0,0,4.055,5.842A19.161,19.161,0,0,0,172.5,50.1a17.714,17.714,0,0,0,7.148,1.443A17.387,17.387,0,0,0,186.73,50.1a17.731,17.731,0,0,0,5.773-3.986l.137-.137A32.181,32.181,0,0,0,196.558,40L214.633,3.643Zm122.952,0V7.835h24.4c12.371,0,18.556,5.7,18.556,17.182,0,8.453-3.23,13.883-9.622,16.288l10.1,17.388h-8.591l-9.278-16.013H371.672V58.692h-5.979l5.086,9.965h-9.072l-8.866-17.25L349.2,43.779H326.313l-7.285,14.845h-9.072L337.584,3.78Z" transform="translate(0.001)"/>
</svg>