<svg xmlns="http://www.w3.org/2000/svg" width="477.867" height="477.867" viewBox="0 0 477.867 477.867">
  <g id="Group_1" data-name="Group 1" transform="translate(-456 -274)">
    <path id="Path_1" data-name="Path 1" d="M916.8,393.467H831.467v-102.4A17.067,17.067,0,0,0,814.4,274H473.067A17.067,17.067,0,0,0,456,291.067V683.6a68.267,68.267,0,0,0,68.267,68.267H865.6A68.267,68.267,0,0,0,933.867,683.6h0V410.533A17.068,17.068,0,0,0,916.8,393.467ZM746.133,683.6h-204.8a17.067,17.067,0,1,1,0-34.134h204.8a17.067,17.067,0,1,1,0,34.134Zm0-68.267h-204.8a17.067,17.067,0,0,1,0-34.134h204.8a17.067,17.067,0,0,1,0,34.134Zm0-68.266h-204.8a17.067,17.067,0,0,1,0-34.134h204.8a17.067,17.067,0,0,1,0,34.134Zm0-68.267h-204.8a17.067,17.067,0,1,1,0-34.134h204.8a17.067,17.067,0,1,1,0,34.134Zm153.6,204.8a34.133,34.133,0,0,1-68.266,0v-256h68.267v256Z" fill="#1e1946"/>
    <g id="GENEL">
      <g id="Group_2" data-name="Group 2">
        <path id="Path_2" data-name="Path 2" d="M587.083,350.236a3.109,3.109,0,0,1-1.175.735q-4.557,1.666-12.543,1.666-7.447,0-10.975-3.846t-3.528-13.548q0-9.8,3.723-14.159t12.249-4.361a37.453,37.453,0,0,1,9.555.98,1.488,1.488,0,0,1,1.274,1.519,14.121,14.121,0,0,1-.931,4.85,1.2,1.2,0,0,1-1.176.833q-.294,0-1.666-.2a32.421,32.421,0,0,0-5.635-.539,11.913,11.913,0,0,0-3.234.368,5.925,5.925,0,0,0-2.4,1.421,6.261,6.261,0,0,0-1.642,3.185,23.7,23.7,0,0,0-.514,5.414,20.378,20.378,0,0,0,.882,6.761,5.544,5.544,0,0,0,2.3,3.16,8.4,8.4,0,0,0,3.919.759,12.392,12.392,0,0,0,3.626-.391.942.942,0,0,0,.686-1.03v-3.282h-4.067q-1.077,0-1.078-1.176V333.97q0-1.275,1.127-1.275H586.3a1.17,1.17,0,0,1,1.323,1.324v14.4A2.5,2.5,0,0,1,587.083,350.236Z" fill="#fff"/>
        <path id="Path_3" data-name="Path 3" d="M603.451,352q-5.83,0-5.83-5.732V323.337a5.913,5.913,0,0,1,1.543-4.409,5.847,5.847,0,0,1,4.287-1.519h15.14a1.826,1.826,0,0,1,1.274.367,1.661,1.661,0,0,1,.392,1.249v4.851q0,1.372-1.666,1.372H608.5q-1.47,0-1.47,1.715v3.283h10.534a1.826,1.826,0,0,1,1.274.367,1.66,1.66,0,0,1,.392,1.249v4.851q0,1.372-1.666,1.372H607.028V342.4a1.916,1.916,0,0,0,.392,1.373,2,2,0,0,0,1.421.391h10.681a1.828,1.828,0,0,1,1.274.368,1.66,1.66,0,0,1,.391,1.249v4.851q0,1.373-1.665,1.372Z" fill="#fff"/>
        <path id="Path_4" data-name="Path 4" d="M639.024,351.534A1.707,1.707,0,0,1,637.8,352h-5.782q-1.617,0-1.617-1.764V323.288a6.394,6.394,0,0,1,1.47-4.6q1.47-1.52,4.851-1.519h2.6a5.653,5.653,0,0,1,3.8,1.028,8.14,8.14,0,0,1,1.984,3.284q5.586,14.893,6.909,19.108-.2-5-.2-20.921a2.553,2.553,0,0,1,.49-1.642,1.656,1.656,0,0,1,1.371-.612h5.439q1.667,0,1.666,2.107v27.83q0,5.094-5.341,5.1h-2.008a7.333,7.333,0,0,1-4.361-1.053,8.553,8.553,0,0,1-2.5-3.945l-7.2-19.549q.147,3.871.147,22.342A1.7,1.7,0,0,1,639.024,351.534Z" fill="#fff"/>
        <path id="Path_5" data-name="Path 5" d="M677.44,352q-5.831,0-5.831-5.732V323.337a5.913,5.913,0,0,1,1.544-4.409,5.847,5.847,0,0,1,4.287-1.519h15.14a1.83,1.83,0,0,1,1.274.367,1.661,1.661,0,0,1,.392,1.249v4.851q0,1.372-1.666,1.372H682.486q-1.469,0-1.469,1.715v3.283h10.534a1.828,1.828,0,0,1,1.274.367,1.66,1.66,0,0,1,.392,1.249v4.851q0,1.372-1.666,1.372H681.017V342.4a1.911,1.911,0,0,0,.392,1.373,2,2,0,0,0,1.421.391h10.681a1.827,1.827,0,0,1,1.274.368,1.659,1.659,0,0,1,.391,1.249v4.851q0,1.373-1.665,1.372Z" fill="#fff"/>
        <path id="Path_6" data-name="Path 6" d="M710.122,352q-5.733,0-5.733-5.487v-27.34q0-1.764,1.666-1.764h6.174q1.567,0,1.567,1.715v23.42q0,1.617,1.715,1.616H725.8a1.826,1.826,0,0,1,1.274.368,1.659,1.659,0,0,1,.392,1.249v4.851q0,1.373-1.666,1.372Z" fill="#fff"/>
      </g>
    </g>
    <path id="Rectangle_1" data-name="Rectangle 1" d="M609.5,379h67A17.5,17.5,0,0,1,694,396.5h0A17.5,17.5,0,0,1,676.5,414h-67A17.5,17.5,0,0,1,592,396.5h0A17.5,17.5,0,0,1,609.5,379Z" fill="#fff"/>
  </g>
</svg>