<svg xmlns="http://www.w3.org/2000/svg" width="17.986" height="30.002" viewBox="0 0 17.986 30.002">
  <g id="rate" transform="translate(-116.201 -22.82)">
    <g id="Group_2561" data-name="Group 2561" transform="translate(116.201 22.821)">
      <g id="Group_2560" data-name="Group 2560" transform="translate(0 0)">
        <path id="Path_10512" data-name="Path 10512" d="M124.234,23.42l-1.887,3.824a1.338,1.338,0,0,1-1.008.732l-4.22.613a1.071,1.071,0,0,0-.593,1.826l3.054,2.977a1.338,1.338,0,0,1,.385,1.184l-.721,4.2a1.071,1.071,0,0,0,1.553,1.129l3.775-1.985a1.338,1.338,0,0,1,1.245,0l3.775,1.985a1.071,1.071,0,0,0,1.553-1.129l-.721-4.2a1.338,1.338,0,0,1,.385-1.184l3.054-2.977a1.071,1.071,0,0,0-.593-1.826l-4.22-.613a1.338,1.338,0,0,1-1.008-.732l-1.887-3.824A1.071,1.071,0,0,0,124.234,23.42Z" transform="translate(-116.201 -22.823)" fill="#ffc34c"/>
      </g>
    </g>
    <g id="Group_2564" data-name="Group 2564" transform="translate(116.201 22.821)">
      <g id="Group_2563" data-name="Group 2563" transform="translate(0 0)">
        <g id="Group_2562" data-name="Group 2562">
          <path id="Path_10513" data-name="Path 10513" d="M121.3,39.229l.721-4.2a1.338,1.338,0,0,0-.385-1.184l-3.054-2.977a1.071,1.071,0,0,1,.593-1.826l4.22-.613a1.338,1.338,0,0,0,1.008-.732l1.887-3.824c.013-.027.028-.053.043-.079l-.184-.372a1.071,1.071,0,0,0-1.92,0l-1.887,3.824a1.338,1.338,0,0,1-1.008.732l-4.22.613a1.071,1.071,0,0,0-.593,1.826l3.054,2.977a1.338,1.338,0,0,1,.385,1.184l-.721,4.2a1.071,1.071,0,0,0,1.553,1.129l.514-.27A1.077,1.077,0,0,1,121.3,39.229Z" transform="translate(-116.201 -22.821)" fill="#ffb74b"/>
        </g>
      </g>
    </g>
    <g id="Group_2566" data-name="Group 2566" transform="translate(128.436 28.624)">
      <g id="Group_2565" data-name="Group 2565" transform="translate(0 0)">
        <path id="Path_10514" data-name="Path 10514" d="M310.942,114.266l-.044,0-4.164-.472a.386.386,0,1,1,.087-.767l4.164.472a.386.386,0,0,1-.043.77Z" transform="translate(-306.391 -113.021)" fill="#ffd551"/>
      </g>
    </g>
    <g id="Group_2568" data-name="Group 2568" transform="translate(119.233 29.39)">
      <g id="Group_2567" data-name="Group 2567" transform="translate(0 0)">
        <circle id="Ellipse_181" data-name="Ellipse 181" cx="1.018" cy="1.018" r="1.018" fill="#ffb74b"/>
      </g>
    </g>
    <g id="Group_2570" data-name="Group 2570" transform="translate(121.018 28.677)">
      <g id="Group_2569" data-name="Group 2569">
        <path id="Path_10515" data-name="Path 10515" d="M202.3,119.627h-.585a.74.74,0,0,0-.259.046.14.14,0,0,1-.169-.052.682.682,0,0,0-.594-.321h-.858a.715.715,0,0,0-.443.15.144.144,0,0,1-.184-.008.707.707,0,0,0-.489-.189h-.831a.719.719,0,0,0-.416.129.146.146,0,0,1-.193-.021.624.624,0,0,0-.071-.07v-4.555a.889.889,0,1,0-1.778,0v6.106h.009v3.677a.635.635,0,0,1-.669.594h-2.082a1.528,1.528,0,0,0-1.611,1.429h0a.689.689,0,0,0,.726.644h2.511a2.608,2.608,0,0,1,1.8.694l.874.833v5.153h5.438v-5.183l.728-.83h0a.778.778,0,0,0,.19-.5v-6.8A.985.985,0,0,0,202.3,119.627Z" transform="translate(-191.078 -113.847)" fill="#ffeacf"/>
      </g>
    </g>
    <g id="Group_2575" data-name="Group 2575" transform="translate(121.018 28.677)">
      <g id="Group_2572" data-name="Group 2572" transform="translate(0 0)">
        <g id="Group_2571" data-name="Group 2571">
          <path id="Path_10516" data-name="Path 10516" d="M191.808,127.091a1.528,1.528,0,0,1,1.611-1.429H195.5a.635.635,0,0,0,.669-.594v-3.677h-.009v-6.106a.889.889,0,0,1,.979-.885.889.889,0,0,0-1.713.335v6.106h.009v3.677a.635.635,0,0,1-.669.594h-2.082a1.528,1.528,0,0,0-1.611,1.429.689.689,0,0,0,.726.644h.016A.581.581,0,0,1,191.808,127.091Z" transform="translate(-191.075 -113.846)" fill="#ffd59a"/>
        </g>
      </g>
      <g id="Group_2574" data-name="Group 2574" transform="translate(5.907 14.865)">
        <g id="Group_2573" data-name="Group 2573">
          <path id="Path_10517" data-name="Path 10517" d="M283.633,350.083v-4.6l-.733-.55v5.153Z" transform="translate(-282.9 -344.931)" fill="#ffd59a"/>
        </g>
      </g>
    </g>
    <g id="Group_2577" data-name="Group 2577" transform="translate(125.561 45.041)">
      <g id="Group_2576" data-name="Group 2576" transform="translate(0 0)">
        <path id="Path_10518" data-name="Path 10518" d="M269.6,369.2v5.85a.965.965,0,0,1-.965.965h-5.972a.965.965,0,0,1-.965-.965V369.2a.965.965,0,0,1,.965-.965h5.972A.965.965,0,0,1,269.6,369.2Z" transform="translate(-261.7 -368.231)" fill="#ccc033"/>
      </g>
    </g>
    <g id="Group_2579" data-name="Group 2579" transform="translate(125.561 45.041)">
      <g id="Group_2578" data-name="Group 2578" transform="translate(0 0)">
        <path id="Path_10519" data-name="Path 10519" d="M264.45,369.148H269.6a.917.917,0,0,0-.917-.917h-6.069a.917.917,0,0,0-.917.917v5.947a.917.917,0,0,0,.917.917h.917v-5.947A.917.917,0,0,1,264.45,369.148Z" transform="translate(-261.7 -368.231)" fill="#99af17"/>
      </g>
    </g>
    <g id="Group_2581" data-name="Group 2581" transform="translate(131.973 37.593)">
      <g id="Group_2580" data-name="Group 2580" transform="translate(0)">
        <path id="Path_10520" data-name="Path 10520" d="M361.766,256.915a.386.386,0,0,1-.386-.386v-3.687a.386.386,0,0,1,.772,0v3.687A.386.386,0,0,1,361.766,256.915Z" transform="translate(-361.38 -252.456)" fill="#fcf9de"/>
      </g>
    </g>
    <g id="Group_2583" data-name="Group 2583" transform="translate(132.103 47.094)">
      <g id="Group_2582" data-name="Group 2582" transform="translate(0)">
        <path id="Path_10521" data-name="Path 10521" d="M363.779,404.784a.386.386,0,0,1-.386-.386v-3.864a.386.386,0,1,1,.772,0V404.4A.386.386,0,0,1,363.779,404.784Z" transform="translate(-363.393 -400.148)" fill="#eacf32"/>
      </g>
    </g>
    <g id="Group_2585" data-name="Group 2585" transform="translate(127.848 46.462)">
      <g id="Group_2584" data-name="Group 2584">
        <circle id="Ellipse_182" data-name="Ellipse 182" cx="1.018" cy="1.018" r="1.018" fill="#99af17"/>
      </g>
    </g>
  </g>
</svg>
