<svg xmlns="http://www.w3.org/2000/svg" width="82" height="80.002" viewBox="0 0 82 80.002"><g transform="translate(0 -5.645)"><g transform="translate(29.485 8.924)"><path d="M230.181,26.171H185.835A1.736,1.736,0,0,0,184.1,27.9v8.468a10.5,10.5,0,0,1,3.476,3.213V29.639h40.87V58.958H191.266c-5.255,3.255-5.055,3.168-5.733,3.44.241.042-2.322.028,44.648.028a1.736,1.736,0,0,0,1.738-1.734V27.9a1.736,1.736,0,0,0-1.738-1.729Z" transform="translate(-184.097 -26.171)" fill="#0b0539"/></g><g transform="translate(9.363 5.644)"><path d="M64.961,5.644a6.488,6.488,0,1,0,6.5,6.488,6.488,6.488,0,0,0-6.5-6.488Z" transform="translate(-58.457 -5.644)" fill="#0b0539"/></g><g transform="translate(0.001 20.688)"><path d="M42.438,110.1a3.142,3.142,0,0,0-4.321-1.008l-6.327,3.919v-5.836A7.463,7.463,0,0,0,24.306,99.8H17.775a.459.459,0,0,1,.082.551l-1.132,2.054L18,104.722a1.3,1.3,0,0,1,.133.9l-2.025,9.514a.285.285,0,0,1-.557,0l-1.895-9.519a1.3,1.3,0,0,1,.137-.883l1.278-2.319-1.134-2.059a.459.459,0,0,1,.082-.551H7.427A7.437,7.437,0,0,0,0,107.189v23a3.138,3.138,0,1,0,6.276,0V107.2a.623.623,0,0,1,1.245,0v36.23a8.077,8.077,0,0,1,7.531-6.186V129.8H16.68v7.54A8.036,8.036,0,0,1,22,149.87a9.889,9.889,0,0,1,2.211.177c0-27.69-.067-11.387-.068-42.854a.686.686,0,0,1,1.371,0h0v11.449a3.142,3.142,0,0,0,4.793,2.66l11.12-6.888a3.126,3.126,0,0,0,1.011-4.314Z" transform="translate(-0.001 -99.802)" fill="#0b0539"/></g><g transform="translate(37.528 18.222)"><path d="M239.059,87.263l.675-.673a1.3,1.3,0,0,0-1.844-1.839l-.675.673-.675-.673a1.3,1.3,0,1,0-1.84,1.839l.675.673-.675.673a1.3,1.3,0,1,0,1.844,1.839l.675-.673.675.673a1.3,1.3,0,0,0,1.844-1.839Z" transform="translate(-234.315 -84.37)" fill="#0b0539"/></g><g transform="translate(63.207 16.074)"><path d="M399.4,73.82l.675-.673a1.3,1.3,0,1,0-1.844-1.839l-.675.673-.675-.673a1.3,1.3,0,0,0-1.844,1.839l.675.673-.675.673a1.3,1.3,0,1,0,1.844,1.839l.675-.673.675.673a1.3,1.3,0,0,0,1.844-1.839Z" transform="translate(-394.654 -70.927)" fill="#0b0539"/></g><g transform="translate(44.023 20.47)"><path d="M294.85,113.4a1.3,1.3,0,0,0-1.495-1.077c-4.71.759-6.987.042-8.891-6.368-2.361-7.95-8.158-7.537-8.4-7.515a1.3,1.3,0,0,0,.228,2.591c.038,0,3.913-.271,5.676,5.663,2.114,7.117,5.2,9.26,11.806,8.2a1.3,1.3,0,0,0,1.076-1.494Z" transform="translate(-274.871 -98.435)" fill="#0b0539"/></g><g transform="translate(61.665 28.007)"><ellipse cx="2.178" cy="2.172" rx="2.178" ry="2.172" transform="translate(0 0)" fill="#0b0539"/></g><g transform="translate(9.912 60.721)"><path d="M68.01,350.406A5.448,5.448,0,1,0,72.8,356.1,5.448,5.448,0,0,0,68.01,350.406Z" transform="translate(-61.883 -350.365)" fill="#0b0539"/></g><g transform="translate(36.563 60.722)"><path d="M233.751,350.37a5.449,5.449,0,1,0,5.462,5.449,5.449,5.449,0,0,0-5.462-5.449Z" transform="translate(-228.289 -350.37)" fill="#0b0539"/></g><g transform="translate(63.214 60.722)"><path d="M400.157,350.37a5.449,5.449,0,1,0,5.462,5.449,5.449,5.449,0,0,0-5.462-5.449Z" transform="translate(-394.695 -350.37)" fill="#0b0539"/></g><g transform="translate(2.047 73.356)"><path d="M86.481,429.444H72.333a6.261,6.261,0,0,0-6.252,6.19,6.259,6.259,0,0,0-6.252-6.19H45.682a6.256,6.256,0,0,0-6.252,6.19,6.257,6.257,0,0,0-6.252-6.19H19.031a6.257,6.257,0,0,0-6.252,6.19v6.1h5.256l.03-6.01a.532.532,0,1,1,1.061-.058v6.068H33.084c0-.083-.006-6.093.011-6.174a.531.531,0,0,1,1.05.1c.019,3.674.012,2.4.031,6.07h10.51l.031-6.07a.53.53,0,0,1,1.06,0v6.068H59.735V435.66a.532.532,0,1,1,1.061.058l.03,6.01H71.337c.016-3.213.014-2.831.031-6.07a.53.53,0,1,1,1.06,0v6.068H86.386v-6.068a.53.53,0,1,1,1.06,0c.016,3.157.014,2.863.031,6.07h5.255v-6.1A6.256,6.256,0,0,0,86.481,429.444Z" transform="translate(-12.779 -429.444)" fill="#0b0539"/></g></g></svg>