<svg xmlns="http://www.w3.org/2000/svg" width="58.268" height="100.135" viewBox="0 0 58.268 100.135"><g transform="translate(0.168 0.016)"><path d="M15.9,86.9a4.064,4.064,0,0,1,3-1c.6,0,1.4-.1,1.7.6a2.55,2.55,0,0,1,0,2.4c-1.1,1.3-2.1,2.7-4.1,2.7-.7,0-.9.5-1.1,1.1a2.939,2.939,0,0,1-3.6,2,3.128,3.128,0,0,1-1-.5.67.67,0,0,1-.4-.7c.1-1.3-.5-2.7.8-3.8.4-.3.3-.9.3-1.4.1-2.5,0-5,.3-7.5.2-1.8-.5-3.6-.3-5.5-.5,0-.1.7-.7.7-.3-.8.4-1.6.4-2.4-.4-.2-.4.2-.4.3-.1.4-.3.3-.6.1-.4-.2-.1-.3,0-.5,0-.1.1-.1.1-.2,1.4-.8,1.7-2.3,2-3.7A10,10,0,0,1,14,66.8a3.12,3.12,0,0,0,.2-3.1A26.559,26.559,0,0,1,13,55.8c-.1-1.1-.7-2.2-.1-3.3.2-.3-.3-.7-.6-1a2.832,2.832,0,0,1-.7-3A27.221,27.221,0,0,1,13.4,43c.3-.7-.3-1.6.7-2.1a8.6,8.6,0,0,0-1.6-.1,2.576,2.576,0,0,1-1.9-1,1.953,1.953,0,0,0-2.3-.3c-1.6.6-2.6-.3-3.5-1.2a19.354,19.354,0,0,1-2.3-2.7C2,34.8.9,34.8.4,33.9A6.686,6.686,0,0,1-.1,32a3.692,3.692,0,0,1,1.8-3.9,2.94,2.94,0,0,0,1-1.2,1.311,1.311,0,0,1,1.6-.8c.1,0,.5,0,.5-.1.6-1.4,2.2-1.7,2.8-3,.1-.2,0-.4,0-.6,0-.4.1-.8.6-.8,1.2-.1,1.9-1,2.8-1.7.1-.1.3-.3.3-.4,0-1.7,1.4-2.3,2.5-3.3a4.887,4.887,0,0,1,1.8-1.4c-.5-.5-.9-1.1-1.6-1.1-.1,0-.2-.1-.3-.1-.6-1.4-1.5-.6-2.3-.2-.9.4-1.9.8-2.8,1.2a1.051,1.051,0,0,1-1.2,0c-.3-.4.1-.9.4-1.2a13.723,13.723,0,0,1,2.9-2.5,1.2,1.2,0,0,0,.6-1.4,10.462,10.462,0,0,0-.4-1.7,3.542,3.542,0,0,1,.4-3,9.017,9.017,0,0,0,.6-2.2A3.7,3.7,0,0,1,12.7.8a1.63,1.63,0,0,1,2-.7,30.636,30.636,0,0,0,5.1,1c.8.1,1.2.7,1.6,1.3,1.2,1.4,1.2,1.4,2.8.5A9.494,9.494,0,0,1,26.3,2c.3-.1.8-.2,1,.1.3.4,0,.8-.3,1a18.519,18.519,0,0,1-2.8,2.8c-.5.4-.9.7-.1,1.1.3.2.2.6.2.9a.951.951,0,0,0,.4,1c.9.8.9,1.8,1,2.9.2,1.6.2,3-1.7,3.7-.4.1-.6.8-.9,1.3-.2.4,0,.6.3.8a5.194,5.194,0,0,1,1.7,1.9A4.08,4.08,0,0,0,27.2,21a3.709,3.709,0,0,1,2.3,2.7,13.824,13.824,0,0,0,3.1,5.7c1.1,1.3,2.5,2,3.8,3.1a13.089,13.089,0,0,0,2.7,1.9c.4.2.6.4,1.1.1.8-.4,1.7-.8,2.3.3,0,.1.1.1.2.1,1.6-.3,3.3.6,4.9,0a.642.642,0,0,0,.5-.5c.2-.9,1.1-1.3,1.5-2,.2-.4.7-.4,1.2-.3.7.1,1.1-.2,1.2-1,.5-4.3,1.1-8.6,1.7-12.8a69.681,69.681,0,0,1,1.1-7.8c.1-.5.2-1,.8-.9s.5.6.5,1c-.1,2.1-.3,4.2-.4,6.2a17.044,17.044,0,0,0,1.5,8.3,4.128,4.128,0,0,1,.1,3.6,4.126,4.126,0,0,0,.2,2.9,19.093,19.093,0,0,1,.6,3.3c-.5-.7-.9-1.4-1.5-2.3-.1,1.3-.1,2.3-.1,3.4h-.2L56,34.2a5.224,5.224,0,0,0-.7-2.1,3.281,3.281,0,0,1-.4-1.9,9.857,9.857,0,0,0-.7-3.8c.1,2.1-1.4,4.1-.3,6.3a6.636,6.636,0,0,1,.2,4.6,1.063,1.063,0,0,1-.8.9c-.6.1-.7.5-.8,1-.9,5.1-2,10.3-2.7,15.5-1,7.5-2.1,15-2.9,22.5-.6,5.5-1.6,11.1-2.4,16.6-.3,1.8-.5,3.7-.7,5.5-.1.6-.3.9-1,.8s-.6-.6-.5-1c.1-.5.2-.7-.6-.6a24.575,24.575,0,0,1-5.4-.4,1.374,1.374,0,0,1-.8-.5,3.743,3.743,0,0,0-2.8-1c-.3,0-.5,0-.5.4,0,.8-.5.8-1.1.8h-.7c-1,0-2.4.2-2.7-.6-.5-1.3-1.3-2.7-.5-4.2a4.359,4.359,0,0,0,.1-3.7,2.332,2.332,0,0,1,0-2,1.81,1.81,0,0,0-.1-1.6,66.225,66.225,0,0,0-2.4-6.2,16.672,16.672,0,0,1-1.4-9.6c.1-1.2.9-2.3.7-3.6-.2-1.1-1.1-1.9-1.4-3-.1-.3-1.6.5-1.6,1,.1,1.6-.8,2.8-1.5,4.1-.6,1.1-.2,2.4-.6,3.6-1,2.8-1.3,5.8-2.4,8.5a14.6,14.6,0,0,0-1,4.5A2.724,2.724,0,0,0,15.9,86.9Zm15.4-9.4a5.832,5.832,0,0,1,.2,2.3c.3,3.6.4,7.3,2.2,10.6a1.943,1.943,0,0,0,.9,1.1,6.667,6.667,0,0,1,2.5,1.9,2.585,2.585,0,0,0,3,.7,2.22,2.22,0,0,1,1.6-.1c1,.4,1.1-.2,1.2-.9v-.3c1-7.7,2.2-15.3,3.3-23,1.3-10,2.8-19.9,4.5-29.9.1-.7.1-.8-.7-1-1.6-.4-3.1.5-4.6.1-.3-.1-.4.2-.5.4a1.189,1.189,0,0,1-1.5.7h-.1a1.249,1.249,0,0,0-1.3.4,3.7,3.7,0,0,1-2.2,1.2,7.612,7.612,0,0,1-4.4-1.1c-1.1-.8-2.5-.9-3.7-1.4a.453.453,0,0,0-.7.2c-.5,1.2-.3,1.7.8,2.6a6.243,6.243,0,0,1,1.7,2.8c.2,1.5.4,3,.7,4.4.1.3.2.7-.3.9-.4.2-.6-.2-.8-.5-.3-.4-.2-1-.7-1.3a2.77,2.77,0,0,0-.1,2c.9,3.3.8,6.7,1.3,10.1.3,2.1-.7,2.8-2,3.8-.1.1-.3.2-.4.3a.517.517,0,0,0-.3.7,7.625,7.625,0,0,1-.2,3c-.1.4-.3.8,0,1.1a2.56,2.56,0,0,1,.4,1.9c.1,1.8-.4,3.7.7,5.4a1.448,1.448,0,0,1,.1,1.1c-.2,0-.3-.2-.6-.2ZM12.8,35.8c-1.4-1.9-2.3-4.1-3.6-6.2a4.521,4.521,0,0,1-2.4,2.5c.3.2.4.5.7.3a.668.668,0,0,1,1,.1c.1.1.1.1.1.2a3.37,3.37,0,0,0,2.1,2.1c.2.1.3.2.3.4.4.9,1,.9,1.8.6Z" fill="#0b0539"/></g></svg>