<svg xmlns="http://www.w3.org/2000/svg" width="181" height="180.95" viewBox="0 0 181 180.95">
  <g id="taekwondo" transform="translate(-2113.758 300.674)">
    <g id="Group_3388" data-name="Group 3388" transform="translate(-5701.464 -2702.821)">
      <g id="Group_3095" data-name="Group 3095">
        <path id="Path_10858" data-name="Path 10858" d="M7910.125,2542.405a.386.386,0,0,1,.428-.339l.016,0a22.705,22.705,0,0,0,5.729-.12c3.286-.364,6.521.562,6.408,4.75a.384.384,0,0,1-.394.372.315.315,0,0,1-.055-.006c-.665-.119-2.318-.189-6.277.447C7911.4,2548.245,7909.756,2545.561,7910.125,2542.405Z" fill="#142266"/>
        <path id="Path_10859" data-name="Path 10859" d="M7906.544,2541.885a.385.385,0,0,0,.489.241l.011,0a22.685,22.685,0,0,1,5.632-1.056c3.291-.317,6.269-1.884,5.3-5.962a.384.384,0,0,0-.464-.282.359.359,0,0,0-.051.016c-.626.254-2.23.66-6.236.849C7906.6,2535.905,7905.54,2538.871,7906.544,2541.885Z" fill="#142266"/>
      </g>
      <g id="Group_3096" data-name="Group 3096">
        <path id="Path_10860" data-name="Path 10860" d="M7924.074,2540.045a.384.384,0,0,1,.349-.42h.016a22.8,22.8,0,0,0,5.579-1.308c3.138-1.039,6.5-.807,7.256,3.314a.385.385,0,0,1-.31.446.431.431,0,0,1-.053.006c-.675.021-2.307.3-6.048,1.741C7926.537,2545.487,7924.373,2543.207,7924.074,2540.045Z" fill="#142266"/>
        <path id="Path_10861" data-name="Path 10861" d="M7920.467,2540.278a.386.386,0,0,0,.528.137l.014-.008a22.742,22.742,0,0,1,5.289-2.2c3.153-.993,5.74-3.146,3.945-6.933a.384.384,0,0,0-.512-.181.367.367,0,0,0-.047.027c-.56.378-2.044,1.109-5.923,2.127C7919.277,2534.42,7918.858,2537.539,7920.467,2540.278Z" fill="#142266"/>
      </g>
      <g id="Group_3097" data-name="Group 3097">
        <path id="Path_10862" data-name="Path 10862" d="M7937.231,2534.835a.386.386,0,0,1,.253-.484l.016,0a22.8,22.8,0,0,0,5.185-2.439c2.854-1.669,6.186-2.14,7.786,1.733a.384.384,0,0,1-.211.5.4.4,0,0,1-.05.017c-.656.161-2.194.77-5.553,2.96C7940.778,2539.65,7938.178,2537.865,7937.231,2534.835Z" fill="#142266"/>
        <path id="Path_10863" data-name="Path 10863" d="M7933.75,2535.815a.386.386,0,0,0,.545.023l.012-.011a22.668,22.668,0,0,1,4.716-3.255c2.877-1.627,4.96-4.271,2.417-7.6a.383.383,0,0,0-.537-.071.443.443,0,0,0-.041.036c-.469.486-1.769,1.51-5.351,3.312C7931.369,2530.332,7931.608,2533.469,7933.75,2535.815Z" fill="#142266"/>
      </g>
      <g id="Group_3098" data-name="Group 3098">
        <path id="Path_10864" data-name="Path 10864" d="M7949.019,2527a.387.387,0,0,1,.148-.526l.014-.007a22.8,22.8,0,0,0,4.564-3.464c2.444-2.226,5.6-3.379,7.976.076a.384.384,0,0,1-.1.532c-.016.01-.032.02-.048.028-.608.294-1.986,1.21-4.816,4.05C7953.484,2530.977,7950.578,2529.771,7949.019,2527Z" fill="#142266"/>
        <path id="Path_10865" data-name="Path 10865" d="M7945.818,2528.685a.387.387,0,0,0,.539-.088l.008-.012a22.7,22.7,0,0,1,3.936-4.164c2.476-2.19,3.964-5.209.784-7.938a.38.38,0,0,0-.573.087c-.358.573-1.417,1.844-4.546,4.352C7942.348,2523.817,7943.234,2526.837,7945.818,2528.685Z" fill="#142266"/>
      </g>
      <g id="Group_3099" data-name="Group 3099">
        <path id="Path_10866" data-name="Path 10866" d="M7958.918,2516.893a.386.386,0,0,1,.035-.545l.012-.01a22.751,22.751,0,0,0,3.744-4.338c1.928-2.685,4.781-4.47,7.818-1.584a.385.385,0,0,1,.012.543.5.5,0,0,1-.04.036c-.533.414-1.692,1.6-3.869,4.963C7964.112,2519.85,7961.018,2519.276,7958.918,2516.893Z" fill="#142266"/>
        <path id="Path_10867" data-name="Path 10867" d="M7956.137,2519.2a.385.385,0,0,0,.508-.2l.006-.014a22.725,22.725,0,0,1,2.984-4.891c1.967-2.657,2.8-5.919-.883-7.928a.384.384,0,0,0-.521.153.4.4,0,0,0-.021.047c-.231.635-1,2.1-3.542,5.2C7951.731,2515.162,7953.221,2517.932,7956.137,2519.2Z" fill="#142266"/>
      </g>
      <g id="Group_3100" data-name="Group 3100">
        <path id="Path_10868" data-name="Path 10868" d="M7966.5,2504.949a.387.387,0,0,1-.079-.541l.01-.012a22.783,22.783,0,0,0,2.761-5.021c1.327-3.028,3.746-5.367,7.318-3.175a.381.381,0,0,1,.125.526.309.309,0,0,1-.032.046c-.436.516-1.323,1.912-2.753,5.659C7972.2,2506.758,7969.05,2506.84,7966.5,2504.949Z" fill="#142266"/>
        <path id="Path_10869" data-name="Path 10869" d="M7964.261,2507.783a.386.386,0,0,0,.455-.3l0-.016a22.72,22.72,0,0,1,1.9-5.405c1.371-3.008,1.5-6.37-2.513-7.569a.382.382,0,0,0-.476.258.311.311,0,0,0-.012.054c-.094.668-.544,2.261-2.382,5.824C7959.111,2504.748,7961.149,2507.146,7964.261,2507.783Z" fill="#142266"/>
      </g>
      <g id="Group_3101" data-name="Group 3101">
        <path id="Path_10870" data-name="Path 10870" d="M7971.432,2491.681a.385.385,0,0,1-.19-.511l.008-.015a22.781,22.781,0,0,0,1.656-5.486c.669-3.237,2.548-6.029,6.5-4.626a.383.383,0,0,1,.231.49c-.006.017-.014.033-.022.05-.319.6-.9,2.146-1.516,6.108C7977.381,2492.272,7974.32,2493,7971.432,2491.681Z" fill="#142266"/>
        <path id="Path_10871" data-name="Path 10871" d="M7969.831,2494.923a.386.386,0,0,0,.382-.39v-.016a22.719,22.719,0,0,1,.737-5.682c.716-3.228.145-6.544-4.032-6.884a.385.385,0,0,0-.412.355.462.462,0,0,0,0,.052c.047.674-.062,2.325-1.119,6.193C7964.163,2493.023,7966.655,2494.947,7969.831,2494.923Z" fill="#142266"/>
      </g>
      <g id="Group_3102" data-name="Group 3102">
        <path id="Path_10872" data-name="Path 10872" d="M7973.5,2477.682a.387.387,0,0,1-.292-.462l0-.015a22.769,22.769,0,0,0,.48-5.71c-.019-3.306,1.239-6.427,5.394-5.877a.383.383,0,0,1,.328.43.3.3,0,0,1-.011.055c-.188.649-.43,2.286-.213,6.29C7979.44,2477.022,7976.6,2478.375,7973.5,2477.682Z" fill="#142266"/>
        <path id="Path_10873" data-name="Path 10873" d="M7972.61,2481.185a.386.386,0,0,0,.292-.461l0-.015a22.725,22.725,0,0,1-.461-5.711c.029-3.306-1.219-6.431-5.375-5.894a.384.384,0,0,0-.33.431.289.289,0,0,0,.011.053c.186.649.423,2.287.193,6.29C7966.668,2480.507,7969.5,2481.869,7972.61,2481.185Z" fill="#142266"/>
      </g>
      <g id="Group_3103" data-name="Group 3103">
        <path id="Path_10874" data-name="Path 10874" d="M7972.61,2463.56a.387.387,0,0,1-.381-.392v-.015a22.757,22.757,0,0,0-.718-5.685c-.706-3.229-.124-6.544,4.054-6.87a.384.384,0,0,1,.411.355.484.484,0,0,1,0,.053c-.049.674.054,2.325,1.1,6.2C7978.285,2461.679,7975.787,2463.594,7972.61,2463.56Z" fill="#142266"/>
        <path id="Path_10875" data-name="Path 10875" d="M7972.466,2467.172a.387.387,0,0,0,.191-.512l-.007-.014a22.71,22.71,0,0,1-1.639-5.49c-.658-3.24-2.529-6.037-6.483-4.648a.383.383,0,0,0-.234.488.362.362,0,0,0,.023.052c.317.6.889,2.149,1.5,6.113C7966.52,2467.747,7969.574,2468.486,7972.466,2467.172Z" fill="#142266"/>
      </g>
      <g id="Group_3104" data-name="Group 3104">
        <path id="Path_10876" data-name="Path 10876" d="M7968.8,2449.931a.386.386,0,0,1-.454-.3l0-.016a22.793,22.793,0,0,0-1.884-5.411c-1.362-3.012-1.482-6.375,2.537-7.562a.382.382,0,0,1,.475.259.51.51,0,0,1,.012.055c.092.669.536,2.263,2.364,5.833C7973.968,2446.912,7971.918,2449.3,7968.8,2449.931Z" fill="#142266"/>
        <path id="Path_10877" data-name="Path 10877" d="M7969.414,2453.494a.386.386,0,0,0,.081-.54l-.01-.013a22.758,22.758,0,0,1-2.744-5.03c-1.318-3.032-3.729-5.379-7.307-3.2a.382.382,0,0,0-.125.528.325.325,0,0,0,.031.044c.434.517,1.317,1.917,2.734,5.668C7963.712,2455.29,7966.858,2455.38,7969.414,2453.494Z" fill="#142266"/>
      </g>
      <g id="Group_3105" data-name="Group 3105">
        <path id="Path_10878" data-name="Path 10878" d="M7962.248,2437.39a.386.386,0,0,1-.507-.2l-.006-.014a22.718,22.718,0,0,0-2.968-4.9c-1.958-2.663-2.775-5.928.91-7.925a.384.384,0,0,1,.52.156.482.482,0,0,1,.022.05c.229.635,1,2.1,3.524,5.214C7966.666,2433.364,7965.163,2436.129,7962.248,2437.39Z" fill="#142266"/>
        <path id="Path_10879" data-name="Path 10879" d="M7963.585,2440.749a.386.386,0,0,0-.034-.545l-.012-.01a22.746,22.746,0,0,1-3.73-4.35c-1.919-2.692-4.766-4.487-7.813-1.609a.383.383,0,0,0-.014.542c.013.013.026.025.04.037.532.416,1.687,1.6,3.853,4.976C7958.381,2443.691,7961.477,2443.126,7963.585,2440.749Z" fill="#142266"/>
      </g>
      <g id="Group_3106" data-name="Group 3106">
        <path id="Path_10880" data-name="Path 10880" d="M7953.227,2426.486a.387.387,0,0,1-.538-.093l-.009-.013a22.745,22.745,0,0,0-3.922-4.177c-2.469-2.2-3.947-5.222-.758-7.94a.384.384,0,0,1,.541.045c.011.014.022.028.032.043.356.574,1.411,1.849,4.531,4.367C7956.712,2421.63,7955.817,2424.646,7953.227,2426.486Z" fill="#142266"/>
        <path id="Path_10881" data-name="Path 10881" d="M7955.234,2429.5a.386.386,0,0,0-.147-.526l-.013-.007a22.8,22.8,0,0,1-4.553-3.479c-2.437-2.234-5.594-3.4-7.976.05a.383.383,0,0,0,.1.532.388.388,0,0,0,.048.029c.607.3,1.982,1.216,4.8,4.066C7950.756,2433.453,7953.666,2432.256,7955.234,2429.5Z" fill="#142266"/>
      </g>
      <g id="Group_3107" data-name="Group 3107">
        <path id="Path_10882" data-name="Path 10882" d="M7942.138,2417.7a.388.388,0,0,1-.546.022l-.011-.011a22.752,22.752,0,0,0-4.7-3.271c-2.872-1.637-4.946-4.287-2.392-7.609a.383.383,0,0,1,.537-.069.267.267,0,0,1,.041.037c.468.487,1.764,1.516,5.34,3.329C7944.537,2412.223,7944.288,2415.359,7942.138,2417.7Z" fill="#142266"/>
        <path id="Path_10883" data-name="Path 10883" d="M7944.726,2420.222a.387.387,0,0,0-.252-.485l-.016,0a22.817,22.817,0,0,1-5.177-2.456c-2.848-1.678-6.178-2.16-7.792,1.708a.383.383,0,0,0,.207.5.486.486,0,0,0,.053.018c.655.163,2.192.777,5.544,2.978C7941.168,2425.026,7943.767,2423.25,7944.726,2420.222Z" fill="#142266"/>
      </g>
      <g id="Group_3108" data-name="Group 3108">
        <path id="Path_10884" data-name="Path 10884" d="M7929.461,2411.405a.386.386,0,0,1-.529.134l-.014-.008a22.683,22.683,0,0,0-5.282-2.221c-3.15-1-5.729-3.165-3.922-6.946a.385.385,0,0,1,.513-.179.433.433,0,0,1,.046.027c.559.379,2.041,1.116,5.916,2.146C7930.67,2405.551,7931.079,2408.671,7929.461,2411.405Z" fill="#142266"/>
        <path id="Path_10885" data-name="Path 10885" d="M7932.514,2413.337a.386.386,0,0,0-.348-.421h-.015a22.8,22.8,0,0,1-5.574-1.326c-3.135-1.05-6.493-.829-7.266,3.29a.384.384,0,0,0,.308.447.447.447,0,0,0,.054.006c.675.024,2.306.3,6.042,1.76C7930.037,2418.776,7932.214,2416.5,7932.514,2413.337Z" fill="#142266"/>
      </g>
      <g id="Group_3109" data-name="Group 3109">
        <path id="Path_10886" data-name="Path 10886" d="M7901.617,2542.405a.387.387,0,0,0-.429-.339l-.015,0a22.706,22.706,0,0,1-5.729-.12c-3.286-.364-6.521.562-6.408,4.75a.383.383,0,0,0,.394.372.321.321,0,0,0,.055-.006c.665-.119,2.318-.189,6.277.447C7900.34,2548.245,7901.983,2545.561,7901.617,2542.405Z" fill="#142266"/>
        <path id="Path_10887" data-name="Path 10887" d="M7905.194,2541.885a.386.386,0,0,1-.49.241l-.01,0a22.693,22.693,0,0,0-5.632-1.056c-3.291-.317-6.269-1.884-5.3-5.962a.384.384,0,0,1,.464-.282.452.452,0,0,1,.051.016c.626.254,2.23.66,6.236.849C7905.143,2535.905,7906.2,2538.871,7905.194,2541.885Z" fill="#142266"/>
      </g>
      <g id="Group_3110" data-name="Group 3110">
        <path id="Path_10888" data-name="Path 10888" d="M7887.664,2540.045a.386.386,0,0,0-.349-.42h-.016a22.789,22.789,0,0,1-5.579-1.308c-3.138-1.039-6.5-.807-7.256,3.314a.384.384,0,0,0,.309.446.455.455,0,0,0,.054.006c.675.021,2.306.3,6.047,1.741C7885.2,2545.487,7887.366,2543.207,7887.664,2540.045Z" fill="#142266"/>
        <path id="Path_10889" data-name="Path 10889" d="M7891.272,2540.278a.387.387,0,0,1-.529.137l-.013-.008a22.769,22.769,0,0,0-5.289-2.2c-3.153-.993-5.74-3.146-3.945-6.933a.383.383,0,0,1,.512-.181.456.456,0,0,1,.047.027c.56.378,2.044,1.109,5.923,2.127C7892.461,2534.42,7892.88,2537.539,7891.272,2540.278Z" fill="#142266"/>
      </g>
      <g id="Group_3111" data-name="Group 3111">
        <path id="Path_10890" data-name="Path 10890" d="M7874.507,2534.835a.387.387,0,0,0-.254-.484l-.015,0a22.761,22.761,0,0,1-5.185-2.439c-2.854-1.669-6.186-2.14-7.786,1.733a.383.383,0,0,0,.21.5c.017.007.034.012.051.017.656.161,2.194.77,5.553,2.96C7870.964,2539.65,7873.558,2537.865,7874.507,2534.835Z" fill="#142266"/>
        <path id="Path_10891" data-name="Path 10891" d="M7877.987,2535.815a.387.387,0,0,1-.546.023l-.011-.011a22.71,22.71,0,0,0-4.716-3.255c-2.877-1.627-4.96-4.271-2.417-7.6a.383.383,0,0,1,.537-.071.517.517,0,0,1,.041.036c.469.486,1.769,1.51,5.351,3.312C7880.372,2530.332,7880.13,2533.469,7877.987,2535.815Z" fill="#142266"/>
      </g>
      <g id="Group_3112" data-name="Group 3112">
        <path id="Path_10892" data-name="Path 10892" d="M7862.722,2527a.387.387,0,0,0-.148-.526l-.014-.007a22.782,22.782,0,0,1-4.564-3.464c-2.444-2.226-5.6-3.379-7.976.076a.382.382,0,0,0,.1.532.352.352,0,0,0,.048.028c.608.294,1.986,1.21,4.817,4.05C7858.256,2530.977,7861.166,2529.771,7862.722,2527Z" fill="#142266"/>
        <path id="Path_10893" data-name="Path 10893" d="M7865.922,2528.685a.387.387,0,0,1-.539-.088l-.008-.012a22.707,22.707,0,0,0-3.936-4.164c-2.476-2.19-3.964-5.209-.784-7.938a.383.383,0,0,1,.573.087c.358.573,1.417,1.844,4.546,4.352C7869.391,2523.817,7868.5,2526.837,7865.922,2528.685Z" fill="#142266"/>
      </g>
      <g id="Group_3113" data-name="Group 3113">
        <path id="Path_10894" data-name="Path 10894" d="M7852.818,2516.893a.387.387,0,0,0-.036-.545l-.012-.01a22.768,22.768,0,0,1-3.744-4.338c-1.928-2.685-4.781-4.47-7.818-1.584a.384.384,0,0,0-.012.543.431.431,0,0,0,.04.036c.534.414,1.692,1.6,3.869,4.963C7847.626,2519.85,7850.718,2519.276,7852.818,2516.893Z" fill="#142266"/>
        <path id="Path_10895" data-name="Path 10895" d="M7855.6,2519.2a.385.385,0,0,1-.508-.2l-.006-.014a22.744,22.744,0,0,0-2.984-4.891c-1.967-2.657-2.794-5.919.884-7.928a.384.384,0,0,1,.521.153.335.335,0,0,1,.021.047c.231.635,1,2.1,3.541,5.2C7860.008,2515.162,7858.513,2517.932,7855.6,2519.2Z" fill="#142266"/>
      </g>
      <g id="Group_3114" data-name="Group 3114">
        <path id="Path_10896" data-name="Path 10896" d="M7845.238,2504.949a.387.387,0,0,0,.079-.541l-.01-.012a22.784,22.784,0,0,1-2.761-5.021c-1.328-3.028-3.746-5.367-7.318-3.175a.383.383,0,0,0-.126.526.491.491,0,0,0,.033.046c.436.516,1.323,1.912,2.753,5.659C7839.538,2506.758,7842.689,2506.84,7845.238,2504.949Z" fill="#142266"/>
        <path id="Path_10897" data-name="Path 10897" d="M7847.478,2507.783a.386.386,0,0,1-.455-.3l0-.016a22.742,22.742,0,0,0-1.9-5.405c-1.371-3.008-1.5-6.37,2.513-7.569a.382.382,0,0,1,.476.258.437.437,0,0,1,.012.054c.094.668.544,2.261,2.383,5.824C7852.628,2504.748,7850.594,2507.146,7847.478,2507.783Z" fill="#142266"/>
      </g>
      <g id="Group_3115" data-name="Group 3115">
        <path id="Path_10898" data-name="Path 10898" d="M7840.307,2491.681a.386.386,0,0,0,.189-.511l-.007-.015a22.781,22.781,0,0,1-1.656-5.486c-.669-3.237-2.548-6.029-6.5-4.626a.382.382,0,0,0-.232.489.328.328,0,0,0,.022.051c.319.6.9,2.146,1.516,6.108C7834.358,2492.272,7837.421,2493,7840.307,2491.681Z" fill="#142266"/>
        <path id="Path_10899" data-name="Path 10899" d="M7841.909,2494.923a.387.387,0,0,1-.383-.39v-.016a22.74,22.74,0,0,0-.736-5.682c-.716-3.228-.146-6.544,4.031-6.884a.383.383,0,0,1,.411.352.346.346,0,0,1,0,.055c-.047.674.062,2.325,1.12,6.193C7847.576,2493.023,7845.084,2494.947,7841.909,2494.923Z" fill="#142266"/>
      </g>
      <g id="Group_3116" data-name="Group 3116">
        <path id="Path_10900" data-name="Path 10900" d="M7838.239,2477.682a.387.387,0,0,0,.292-.462l0-.015a22.678,22.678,0,0,1-.48-5.71c.019-3.306-1.239-6.427-5.394-5.877a.383.383,0,0,0-.329.43.51.51,0,0,0,.012.055c.188.649.43,2.286.213,6.29C7832.3,2477.022,7835.139,2478.375,7838.239,2477.682Z" fill="#142266"/>
        <path id="Path_10901" data-name="Path 10901" d="M7839.132,2481.185a.387.387,0,0,1-.293-.461l0-.015a22.726,22.726,0,0,0,.461-5.711c-.029-3.306,1.219-6.431,5.375-5.894a.383.383,0,0,1,.33.431.5.5,0,0,1-.011.053c-.186.649-.423,2.287-.193,6.29C7845.071,2480.507,7842.234,2481.869,7839.132,2481.185Z" fill="#142266"/>
      </g>
      <g id="Group_3117" data-name="Group 3117">
        <path id="Path_10902" data-name="Path 10902" d="M7839.126,2463.56a.386.386,0,0,0,.38-.392v-.015a22.757,22.757,0,0,1,.718-5.685c.706-3.229.124-6.544-4.054-6.87a.383.383,0,0,0-.411.353.52.52,0,0,0,0,.055c.049.674-.055,2.325-1.1,6.2C7833.455,2461.679,7835.953,2463.594,7839.126,2463.56Z" fill="#142266"/>
        <path id="Path_10903" data-name="Path 10903" d="M7839.274,2467.172a.387.387,0,0,1-.191-.512l.007-.014a22.777,22.777,0,0,0,1.639-5.49c.659-3.24,2.529-6.037,6.483-4.648a.381.381,0,0,1,.233.488.31.31,0,0,1-.022.052c-.317.6-.889,2.149-1.5,6.113C7845.224,2467.747,7842.166,2468.486,7839.274,2467.172Z" fill="#142266"/>
      </g>
      <g id="Group_3118" data-name="Group 3118">
        <path id="Path_10904" data-name="Path 10904" d="M7842.934,2449.931a.387.387,0,0,0,.454-.3l0-.016a22.706,22.706,0,0,1,1.884-5.411c1.362-3.012,1.482-6.375-2.537-7.562a.381.381,0,0,0-.475.259.238.238,0,0,0-.012.055c-.092.669-.536,2.263-2.364,5.833C7837.775,2446.912,7839.82,2449.3,7842.934,2449.931Z" fill="#142266"/>
        <path id="Path_10905" data-name="Path 10905" d="M7842.324,2453.494a.385.385,0,0,1-.081-.54l.01-.013a22.78,22.78,0,0,0,2.744-5.03c1.318-3.032,3.729-5.379,7.307-3.2a.382.382,0,0,1,.126.526.355.355,0,0,1-.032.046c-.434.517-1.316,1.917-2.734,5.668C7848.026,2455.29,7844.88,2455.38,7842.324,2453.494Z" fill="#142266"/>
      </g>
      <g id="Group_3119" data-name="Group 3119">
        <path id="Path_10906" data-name="Path 10906" d="M7849.491,2437.39a.386.386,0,0,0,.507-.2l.006-.014a22.681,22.681,0,0,1,2.968-4.9c1.958-2.663,2.775-5.928-.91-7.925a.382.382,0,0,0-.519.156.288.288,0,0,0-.022.05c-.229.635-1,2.1-3.525,5.214C7845.072,2433.364,7846.575,2436.129,7849.491,2437.39Z" fill="#142266"/>
        <path id="Path_10907" data-name="Path 10907" d="M7848.153,2440.749a.386.386,0,0,1,.034-.545l.012-.01a22.764,22.764,0,0,0,3.73-4.35c1.919-2.692,4.766-4.487,7.813-1.609a.383.383,0,0,1,.012.542.4.4,0,0,1-.039.037c-.532.416-1.686,1.6-3.853,4.976C7853.357,2443.691,7850.261,2443.126,7848.153,2440.749Z" fill="#142266"/>
      </g>
      <g id="Group_3120" data-name="Group 3120">
        <path id="Path_10908" data-name="Path 10908" d="M7858.512,2426.486a.386.386,0,0,0,.538-.093l.009-.013a22.742,22.742,0,0,1,3.922-4.177c2.469-2.2,3.947-5.222.758-7.94a.383.383,0,0,0-.541.045.278.278,0,0,0-.032.043c-.356.574-1.411,1.849-4.532,4.367C7855.027,2421.63,7855.922,2424.646,7858.512,2426.486Z" fill="#142266"/>
        <path id="Path_10909" data-name="Path 10909" d="M7856.5,2429.5a.386.386,0,0,1,.146-.526l.014-.007a22.815,22.815,0,0,0,4.553-3.479c2.437-2.234,5.594-3.4,7.976.05a.383.383,0,0,1-.1.533.3.3,0,0,1-.046.028c-.607.3-1.983,1.216-4.8,4.066C7860.984,2433.453,7858.073,2432.256,7856.5,2429.5Z" fill="#142266"/>
      </g>
      <g id="Group_3121" data-name="Group 3121">
        <path id="Path_10910" data-name="Path 10910" d="M7869.6,2417.7a.386.386,0,0,0,.545.022l.012-.011a22.735,22.735,0,0,1,4.7-3.271c2.872-1.637,4.946-4.287,2.392-7.609a.383.383,0,0,0-.539-.067.29.29,0,0,0-.039.035c-.468.487-1.764,1.516-5.34,3.329C7867.2,2412.223,7867.451,2415.359,7869.6,2417.7Z" fill="#142266"/>
        <path id="Path_10911" data-name="Path 10911" d="M7867.014,2420.222a.386.386,0,0,1,.252-.485l.016,0a22.8,22.8,0,0,0,5.177-2.456c2.848-1.678,6.179-2.16,7.792,1.708a.383.383,0,0,1-.207.5c-.018.007-.035.013-.053.018-.655.163-2.192.777-5.544,2.978C7870.571,2425.026,7867.973,2423.25,7867.014,2420.222Z" fill="#142266"/>
      </g>
      <g id="Group_3122" data-name="Group 3122">
        <path id="Path_10912" data-name="Path 10912" d="M7882.278,2411.405a.387.387,0,0,0,.529.134l.014-.008a22.678,22.678,0,0,1,5.282-2.221c3.15-1,5.729-3.165,3.922-6.946a.384.384,0,0,0-.513-.179.44.44,0,0,0-.046.027c-.559.379-2.041,1.116-5.916,2.146C7881.069,2405.551,7880.66,2408.671,7882.278,2411.405Z" fill="#142266"/>
        <path id="Path_10913" data-name="Path 10913" d="M7879.221,2413.337a.385.385,0,0,1,.348-.421h.016a22.81,22.81,0,0,0,5.574-1.326c3.135-1.05,6.493-.829,7.266,3.29a.381.381,0,0,1-.306.446.34.34,0,0,1-.056.007c-.675.024-2.305.3-6.042,1.76C7881.7,2418.776,7879.529,2416.5,7879.221,2413.337Z" fill="#142266"/>
      </g>
    </g>
    <g id="Group_3389" data-name="Group 3389" transform="translate(-5701.464 -2702.821)">
      <g id="Group_3124" data-name="Group 3124">
        <path id="Path_10914" data-name="Path 10914" d="M7905.723,2562.664l-76.121-77.573-2.5,10.058,78.621,80.121,78.621-80.121-2.5-10.058Z" fill="#e65416"/>
        <path id="Path_10915" data-name="Path 10915" d="M7981.844,2485.09l-2.833-11.4c-31.187-3.9-51.662-17.144-63.632-28.04a99.187,99.187,0,0,1-9.656-10.114,99.3,99.3,0,0,1-9.656,10.114c-11.97,10.9-32.444,24.144-63.632,28.04l-2.833,11.4,76.121,77.573Z" fill="#b5311b"/>
      </g>
      <path id="Path_10916" data-name="Path 10916" d="M7988.166,2463.321c-62.61-4.005-82.444-46.74-82.444-46.74s-19.835,42.735-82.444,46.74l-8.056,31.144,90.5,88.632,90.5-88.632ZM7827.1,2495.149l5.334-21.457c31.188-3.9,51.662-17.144,63.632-28.04a99.324,99.324,0,0,0,9.656-10.114,99.212,99.212,0,0,0,9.656,10.114c11.97,10.9,32.444,24.144,63.632,28.04l5.334,21.457-78.621,80.121Z" fill="#142266"/>
    </g>
    <g id="Path_7371" data-name="Path 7371" transform="translate(-5701.464 -2702.821)">
      <path id="Path_333" data-name="Path 333" d="M7959.071,2463.644a115.706,115.706,0,0,0-45.139,23.134l-1.347,1.127-4.344,5.8a113.777,113.777,0,0,0-19.591,41.108l-.608,2.378a6.524,6.524,0,0,1-6.3,4.949,6.419,6.419,0,0,1-1.563-.173,6.5,6.5,0,0,1-4.739-7.876l0-.01.608-2.378a126.007,126.007,0,0,1,21.81-45.8l.955-1.256c-.217-.216-.434-.434-.651-.693l-13.642-15.684a77.957,77.957,0,0,0-13.6,24l-.738,2.166a6.571,6.571,0,0,1-6.17,4.417,7.04,7.04,0,0,1-2.085-.347,6.538,6.538,0,0,1-4.083-8.229l.738-2.161c4.519-13.175,12.425-25.48,23.59-36.569.043-.043.087-.088.13-.088a4.684,4.684,0,0,1,.7-.607l8.038-6.109a.928.928,0,0,1,.348-.216,21.271,21.271,0,0,1,30.8,8.143,6.505,6.505,0,0,1-11.643,5.805,8.239,8.239,0,0,0-11.073-3.627q-.269.135-.526.291l13.859,16.162a128.666,128.666,0,0,1,43.01-20.145,6.545,6.545,0,0,1,7.951,4.679A6.442,6.442,0,0,1,7959.071,2463.644Zm-88.323-12.39a11.177,11.177,0,1,0-11.211-11.177,11.177,11.177,0,0,0,11.211,11.177Z" fill="none" stroke="#142266" stroke-width="14"/>
      <path id="Path_334" data-name="Path 334" d="M7959.071,2463.644a115.706,115.706,0,0,0-45.139,23.134l-1.347,1.127-4.344,5.8a113.777,113.777,0,0,0-19.591,41.108l-.608,2.378a6.524,6.524,0,0,1-6.3,4.949,6.419,6.419,0,0,1-1.563-.173,6.5,6.5,0,0,1-4.739-7.876l0-.01.608-2.378a126.007,126.007,0,0,1,21.81-45.8l.955-1.256c-.217-.216-.434-.434-.651-.693l-13.642-15.684a77.957,77.957,0,0,0-13.6,24l-.738,2.166a6.571,6.571,0,0,1-6.17,4.417,7.04,7.04,0,0,1-2.085-.347,6.538,6.538,0,0,1-4.083-8.229l.738-2.161c4.519-13.175,12.425-25.48,23.59-36.569.043-.043.087-.088.13-.088a4.684,4.684,0,0,1,.7-.607l8.038-6.109a.928.928,0,0,1,.348-.216,21.271,21.271,0,0,1,30.8,8.143,6.505,6.505,0,0,1-11.643,5.805,8.239,8.239,0,0,0-11.073-3.627q-.269.135-.526.291l13.859,16.162a128.666,128.666,0,0,1,43.01-20.145,6.545,6.545,0,0,1,7.951,4.679A6.442,6.442,0,0,1,7959.071,2463.644Zm-88.323-12.39a11.177,11.177,0,1,0-11.211-11.177,11.177,11.177,0,0,0,11.211,11.177Z" fill="#e65416"/>
    </g>
    <g id="Group_3391" data-name="Group 3391" transform="translate(-5701.464 -2702.821)">
      <ellipse id="Ellipse_224" data-name="Ellipse 224" cx="17.219" cy="9.559" rx="17.219" ry="9.559" transform="translate(7958.683 2549.093)" fill="#142266"/>
      <ellipse id="Ellipse_225" data-name="Ellipse 225" cx="17.219" cy="9.559" rx="17.219" ry="9.559" transform="translate(7818.268 2549.093)" fill="#142266"/>
      <ellipse id="Ellipse_226" data-name="Ellipse 226" cx="10.228" cy="5.678" rx="10.228" ry="5.678" transform="translate(7828.605 2553.88)" fill="#dc2648"/>
      <ellipse id="Ellipse_227" data-name="Ellipse 227" cx="10.228" cy="5.678" rx="10.228" ry="5.678" transform="translate(7962.329 2553.88)" fill="#dc2648"/>
      <path id="Path_10918" data-name="Path 10918" d="M7905.577,2526.474c-27.589,0-55.178,5.5-82.768,6.093a4.807,4.807,0,0,0-4.7,4.811v19.99a5.888,5.888,0,0,0,5.881,5.893l.155,0c27.142-.735,54.285-6.06,81.427-6.06s54.285,5.326,81.427,6.06a5.887,5.887,0,0,0,6.034-5.736c0-.052,0-.1,0-.155v-19.99a4.805,4.805,0,0,0-4.7-4.811C7960.755,2531.976,7933.166,2526.474,7905.577,2526.474Z" fill="#142266"/>
      <g id="Group_68" data-name="Group 68">
        <g id="Group_67" data-name="Group 67">
          <path id="Path_335" data-name="Path 335" d="M7853.785,2538.408q-1.737.149-3.473.307.708,7.77,1.419,15.538-1.822.168-3.643.346-.762-7.764-1.522-15.529-1.749.172-3.5.355-.187-1.813-.378-3.626,5.39-.562,10.784-1.024Q7853.631,2536.592,7853.785,2538.408Z" fill="#fff"/>
          <path id="Path_336" data-name="Path 336" d="M7861.966,2553.412c-.113-.439-.228-.877-.341-1.316q-1.781.131-3.56.273-.081.677-.161,1.354-1.848.149-3.695.309,1.072-9.754,2.285-19.506,2-.16,4-.307,2.673,9.454,5.217,18.932Q7863.838,2553.275,7861.966,2553.412Zm-1.342-4.871q-.724-2.592-1.457-5.18-.333,2.67-.653,5.341Q7859.568,2548.62,7860.624,2548.541Z" fill="#fff"/>
          <path id="Path_337" data-name="Path 337" d="M7879.636,2552.406q-5.747.235-11.49.59-.593-9.606-1.181-19.212,5.943-.367,11.889-.61.075,1.821.148,3.642-4.031.167-8.06.388.113,2.074.227,4.15,1.866-.1,3.727-.194.087,1.821.175,3.642-1.851.09-3.7.192.114,2.075.228,4.149,3.945-.218,7.891-.379Q7879.562,2550.585,7879.636,2552.406Z" fill="#fff"/>
          <path id="Path_338" data-name="Path 338" d="M7893.591,2552.012q-1.876.03-3.75.072-1.2-4.544-2.433-9.082-.935,1.69-1.856,3.384.087,2.9.173,5.8-1.829.054-3.654.121-.351-9.618-.7-19.236,1.89-.067,3.78-.125.089,3.038.179,6.074,1.693-3.09,3.425-6.17,2.18-.049,4.36-.086-1.583,2.76-3.135,5.527Q7891.825,2545.148,7893.591,2552.012Z" fill="#fff"/>
          <path id="Path_339" data-name="Path 339" d="M7911.062,2532.763q-1.148,9.608-2.223,19.22-1.839-.021-3.679-.031-.869-3.382-1.762-6.762-.9,3.375-1.769,6.755-1.838,0-3.677.016-1.039-9.616-2.138-19.229,1.892-.019,3.782-.03.483,4.41.954,8.819,1.155-4.416,2.346-8.825l1.059,0q1.184,4.4,2.329,8.81.48-4.4.972-8.79Q7909.159,2532.734,7911.062,2532.763Z" fill="#fff"/>
          <path id="Path_340" data-name="Path 340" d="M7921.646,2552.283q-2.714-.094-5.429-.163-1.471-1.545-2.961-3.082.133-6.609.265-13.218,1.584-1.476,3.185-2.943,2.808.072,5.617.17,1.521,1.56,3.026,3.13-.272,6.6-.539,13.21Q7923.219,2550.832,7921.646,2552.283Zm-.45-4.709q.168-4.942.337-9.886c-.346-.352-.694-.7-1.04-1.055q-1.077-.034-2.153-.064l-1.13,1.014q-.129,4.932-.261,9.864l1.051,1.074,2.106.063C7920.468,2548.248,7920.832,2547.91,7921.2,2547.574Z" fill="#fff"/>
          <path id="Path_341" data-name="Path 341" d="M7938.527,2553.132q-1.786-.117-3.573-.223-1.813-4.842-3.7-9.671-.242,4.72-.487,9.44-1.825-.093-3.65-.176.431-9.615.867-19.229,1.863.084,3.726.179,1.909,4.821,3.746,9.652.279-4.707.558-9.414,1.885.112,3.773.236Q7939.16,2543.529,7938.527,2553.132Z" fill="#fff"/>
          <path id="Path_342" data-name="Path 342" d="M7949.41,2553.953q-4.224-.36-8.453-.656.672-9.6,1.348-19.2,4.374.306,8.746.679,1.431,1.635,2.842,3.276-.6,6.583-1.2,13.167Q7951.045,2552.58,7949.41,2553.953Zm-.238-4.727q.417-4.917.831-9.833-.491-.565-.984-1.13-1.611-.132-3.222-.256-.457,5.959-.917,11.921c1.052.081,2.1.165,3.154.252Q7948.6,2549.7,7949.172,2549.226Z" fill="#fff"/>
          <path id="Path_343" data-name="Path 343" d="M7963.258,2555.312q-2.7-.3-5.4-.572-1.351-1.65-2.722-3.295.628-6.58,1.259-13.162,1.69-1.351,3.4-2.694,2.8.283,5.593.592,1.4,1.671,2.784,3.35-.767,6.565-1.532,13.132Q7964.937,2553.981,7963.258,2555.312Zm-.095-4.729q.538-4.919,1.08-9.833-.48-.565-.959-1.132c-.715-.076-1.427-.152-2.143-.226q-.6.463-1.2.927-.5,4.908-1,9.816.483.575.967,1.15,1.049.108,2.1.222Q7962.581,2551.043,7963.163,2550.583Z" fill="#fff"/>
        </g>
      </g>
    </g>
    <path id="Path_386" data-name="Path 386" d="M7869.845,2430.216s9.177-1.049,9.927,9.045c.377,5.372-5.78,10.064-10.117,9.5C7869.655,2448.759,7883.7,2437.723,7869.845,2430.216Z" transform="translate(-5701.464 -2702.821)" fill="#b5311b"/>
    <path id="Path_387" data-name="Path 387" d="M7867.146,2430.83s-4.041,1.212-5.6,6.686A20.277,20.277,0,0,1,7867.146,2430.83Z" transform="translate(-5701.464 -2702.821)" fill="#fff"/>
    <path id="Path_388" data-name="Path 388" d="M7871.172,2486.47s-2.923,18.3-12.581,5.8C7858.591,2492.269,7868.53,2499.889,7871.172,2486.47Z" transform="translate(-5701.464 -2702.821)" fill="#b5311b"/>
    <path id="Path_389" data-name="Path 389" d="M7874.722,2463.033a64.467,64.467,0,0,0-13.821,23.437S7861.648,2483.62,7874.722,2463.033Z" transform="translate(-5701.464 -2702.821)" fill="#fff"/>
    <path id="Path_390" data-name="Path 390" d="M7899.466,2442.611s7.156-4.179,18.991,5.864c0,0-13.074-9-18.991-5.864" transform="translate(-5701.464 -2702.821)" fill="#fff"/>
    <path id="Path_391" data-name="Path 391" d="M7910.31,2455.106s2.835,7.789,8.477,5.863a5,5,0,0,0,2.78-3.771S7915.814,2462.124,7910.31,2455.106Z" transform="translate(-5701.464 -2702.821)" fill="#b5311b"/>
    <path id="Path_392" data-name="Path 392" d="M7897.7,2504.207s5.615-18.716,31.156-29.945C7928.86,2474.262,7902.879,2490.776,7897.7,2504.207Z" transform="translate(-5701.464 -2702.821)" fill="#b5311b"/>
    <path id="Path_393" data-name="Path 393" d="M7944.383,2456.143s14.532-6.982,17.45-1.973C7961.833,2454.17,7951.869,2452.555,7944.383,2456.143Z" transform="translate(-5701.464 -2702.821)" fill="#fff"/>
    <path id="Path_394" data-name="Path 394" d="M7958.255,2462.675a5.306,5.306,0,0,0,4.211-4.484S7959.245,2462.51,7958.255,2462.675Z" transform="translate(-5701.464 -2702.821)" fill="#b5311b"/>
    <path id="Path_410" data-name="Path 410" d="M7880.906,2469.776a5.792,5.792,0,0,0,3.7-3.551s2.065,3.964,4.046,4.707c0,0-3.945-4.459-3.871-7.019C7884.778,2463.913,7883.278,2468.455,7880.906,2469.776Z" transform="translate(-5701.464 -2702.821)" fill="#b5311b"/>
    <path id="Path_411" data-name="Path 411" d="M7900.6,2457.713s-1.917-2.738-2.936-2.706a8.01,8.01,0,0,1,3.529-1.377,6.746,6.746,0,0,0-4.393,1.284A9.022,9.022,0,0,1,7900.6,2457.713Z" transform="translate(-5701.464 -2702.821)" fill="#b5311b"/>
  </g>
</svg>
