<svg xmlns="http://www.w3.org/2000/svg" width="86.021" height="100.005" viewBox="0 0 86.021 100.005"><path d="M78.8,31C68.2,20.6,58,10.8,54.8,7.9c-.5-.5-1.1-1-1.7-1.5C52.9,5,52.2,1.3,49.9.5c-3-1-34-2.1-32.9,13.6.1,1.7.3,3.5.5,5-3.6,1.9-2.2,7.4,4.1,5.3,4.8,1,14.3,2.4,16.6,1.5,2.1-.9,3.8-6.8,4.5-9.9,7.4,10.4,5.5,12.3,9.2,27.4,1,3.9,1.5,4.9,1.7,5.1l.1.1-.1-.1c-.5-.6-4.5-5-16-3.5-12.3,1.6-14.3,9.3-14.3,9.3A29.723,29.723,0,0,0,8.9,49.8L0,49.3V100s12.1-3.5,16.9-6.8a25.111,25.111,0,0,0,6.9-6.5,70.118,70.118,0,0,0,27,.8C65.4,85,69.4,76.8,74.9,72.2a60.812,60.812,0,0,1,10.3-7.1S89.4,41.4,78.8,31ZM26.6,62.1c-.3-1.4-.7-2.8-1-4.3,6.7-8.7,13.9-8.3,24.1-7.4C44.5,50.9,32.4,52.1,26.6,62.1Zm55.7,0-4.7-.9c2.5-12,1.4-18.2-3.7-29.4C84.5,42.8,83.4,47.7,82.3,62.1Z" transform="translate(0 0.005)" fill="#0b0539" fill-rule="evenodd"/></svg>