<svg xmlns="http://www.w3.org/2000/svg" width="181" height="180.95" viewBox="0 0 181 180.95">
  <g id="okculuk" transform="translate(-368.52 306)">
    <g id="Group_3393" data-name="Group 3393" transform="translate(-5701.464 -2702.821)">
      <g id="Group_3388" data-name="Group 3388">
        <g id="Group_3095" data-name="Group 3095">
          <path id="Path_10858" data-name="Path 10858" d="M6164.887,2537.079a.387.387,0,0,1,.429-.339l.015,0a22.785,22.785,0,0,0,5.729-.12c3.286-.364,6.521.561,6.408,4.75a.382.382,0,0,1-.394.371.351.351,0,0,1-.055,0c-.665-.119-2.318-.189-6.277.446C6166.161,2542.919,6164.518,2540.235,6164.887,2537.079Z" fill="#142266"/>
          <path id="Path_10859" data-name="Path 10859" d="M6161.306,2536.559a.386.386,0,0,0,.489.242l.011,0a22.73,22.73,0,0,1,5.632-1.056c3.291-.316,6.269-1.884,5.3-5.961a.384.384,0,0,0-.464-.283.515.515,0,0,0-.051.017c-.626.253-2.23.659-6.236.849C6161.361,2530.579,6160.3,2533.545,6161.306,2536.559Z" fill="#142266"/>
        </g>
        <g id="Group_3096" data-name="Group 3096">
          <path id="Path_10860" data-name="Path 10860" d="M6178.836,2534.719a.387.387,0,0,1,.349-.42h.016a22.766,22.766,0,0,0,5.579-1.308c3.138-1.039,6.5-.807,7.256,3.314a.384.384,0,0,1-.31.446l-.053.006c-.675.021-2.307.3-6.048,1.741C6181.3,2540.161,6179.135,2537.881,6178.836,2534.719Z" fill="#142266"/>
          <path id="Path_10861" data-name="Path 10861" d="M6175.229,2534.953a.387.387,0,0,0,.529.136l.013-.008a22.755,22.755,0,0,1,5.289-2.2c3.153-.993,5.74-3.146,3.945-6.933a.385.385,0,0,0-.512-.181.413.413,0,0,0-.047.027c-.56.378-2.044,1.109-5.923,2.127C6174.039,2529.095,6173.62,2532.214,6175.229,2534.953Z" fill="#142266"/>
        </g>
        <g id="Group_3097" data-name="Group 3097">
          <path id="Path_10862" data-name="Path 10862" d="M6191.993,2529.509a.386.386,0,0,1,.253-.484l.016,0a22.8,22.8,0,0,0,5.185-2.439c2.854-1.669,6.186-2.14,7.786,1.733a.383.383,0,0,1-.211.5.461.461,0,0,1-.05.017c-.656.161-2.194.77-5.553,2.96C6195.54,2534.324,6192.94,2532.54,6191.993,2529.509Z" fill="#142266"/>
          <path id="Path_10863" data-name="Path 10863" d="M6188.512,2530.489a.386.386,0,0,0,.545.023l.012-.011a22.675,22.675,0,0,1,4.716-3.255c2.877-1.627,4.96-4.271,2.417-7.6a.383.383,0,0,0-.537-.071.485.485,0,0,0-.041.037c-.469.486-1.769,1.51-5.351,3.312C6186.131,2525.006,6186.37,2528.144,6188.512,2530.489Z" fill="#142266"/>
        </g>
        <g id="Group_3098" data-name="Group 3098">
          <path id="Path_10864" data-name="Path 10864" d="M6203.781,2521.677a.387.387,0,0,1,.148-.526l.014-.007a22.76,22.76,0,0,0,4.564-3.464c2.444-2.226,5.6-3.379,7.976.076a.382.382,0,0,1-.1.532.258.258,0,0,1-.048.028c-.608.294-1.986,1.21-4.816,4.05C6208.246,2525.651,6205.34,2524.445,6203.781,2521.677Z" fill="#142266"/>
          <path id="Path_10865" data-name="Path 10865" d="M6200.58,2523.359a.387.387,0,0,0,.539-.088l.008-.012a22.707,22.707,0,0,1,3.936-4.164c2.476-2.19,3.964-5.209.784-7.938a.384.384,0,0,0-.573.087c-.358.573-1.417,1.844-4.546,4.352C6197.11,2518.491,6198,2521.511,6200.58,2523.359Z" fill="#142266"/>
        </g>
        <g id="Group_3099" data-name="Group 3099">
          <path id="Path_10866" data-name="Path 10866" d="M6213.68,2511.567a.386.386,0,0,1,.035-.545l.012-.01a22.793,22.793,0,0,0,3.744-4.337c1.928-2.685,4.781-4.471,7.818-1.584a.384.384,0,0,1,.012.543.453.453,0,0,1-.04.036c-.533.414-1.692,1.6-3.869,4.963C6218.874,2514.524,6215.78,2513.95,6213.68,2511.567Z" fill="#142266"/>
          <path id="Path_10867" data-name="Path 10867" d="M6210.9,2513.877a.387.387,0,0,0,.508-.2l.006-.015a22.763,22.763,0,0,1,2.984-4.891c1.967-2.657,2.795-5.919-.883-7.928a.383.383,0,0,0-.521.154.324.324,0,0,0-.021.046c-.231.635-1,2.1-3.542,5.2C6206.493,2509.837,6207.983,2512.607,6210.9,2513.877Z" fill="#142266"/>
        </g>
        <g id="Group_3100" data-name="Group 3100">
          <path id="Path_10868" data-name="Path 10868" d="M6221.262,2499.623a.386.386,0,0,1-.079-.54l.01-.013a22.784,22.784,0,0,0,2.761-5.021c1.327-3.028,3.746-5.367,7.318-3.175a.384.384,0,0,1,.126.527c-.01.015-.021.03-.033.045-.436.516-1.323,1.913-2.753,5.659C6226.958,2501.433,6223.812,2501.514,6221.262,2499.623Z" fill="#142266"/>
          <path id="Path_10869" data-name="Path 10869" d="M6219.023,2502.457a.386.386,0,0,0,.455-.3l0-.015a22.753,22.753,0,0,1,1.9-5.4c1.371-3.008,1.5-6.37-2.513-7.57a.382.382,0,0,0-.476.258.469.469,0,0,0-.012.054c-.094.669-.544,2.261-2.382,5.825C6213.873,2499.422,6215.911,2501.82,6219.023,2502.457Z" fill="#142266"/>
        </g>
        <g id="Group_3101" data-name="Group 3101">
          <path id="Path_10870" data-name="Path 10870" d="M6226.194,2486.355a.387.387,0,0,1-.19-.511l.008-.015a22.787,22.787,0,0,0,1.656-5.486c.669-3.237,2.548-6.029,6.5-4.626a.382.382,0,0,1,.231.49.283.283,0,0,1-.022.05c-.319.6-.9,2.146-1.516,6.108C6232.143,2486.946,6229.082,2487.678,6226.194,2486.355Z" fill="#142266"/>
          <path id="Path_10871" data-name="Path 10871" d="M6224.593,2489.6a.387.387,0,0,0,.383-.39v-.016a22.739,22.739,0,0,1,.737-5.682c.716-3.227.145-6.544-4.032-6.883a.383.383,0,0,0-.411.354.318.318,0,0,0,0,.053c.047.674-.062,2.325-1.119,6.193C6218.925,2487.7,6221.417,2489.621,6224.593,2489.6Z" fill="#142266"/>
        </g>
        <g id="Group_3102" data-name="Group 3102">
          <path id="Path_10872" data-name="Path 10872" d="M6228.261,2472.356a.386.386,0,0,1-.292-.462l0-.015a22.723,22.723,0,0,0,.48-5.71c-.019-3.306,1.239-6.427,5.394-5.877a.381.381,0,0,1,.328.43.345.345,0,0,1-.011.055c-.188.649-.43,2.286-.213,6.29C6234.2,2471.7,6231.361,2473.049,6228.261,2472.356Z" fill="#142266"/>
          <path id="Path_10873" data-name="Path 10873" d="M6227.372,2475.859a.387.387,0,0,0,.293-.461l0-.015a22.7,22.7,0,0,1-.461-5.711c.029-3.306-1.219-6.431-5.375-5.894a.384.384,0,0,0-.33.431.452.452,0,0,0,.011.053c.186.649.423,2.287.193,6.29C6221.43,2475.181,6224.267,2476.543,6227.372,2475.859Z" fill="#142266"/>
        </g>
        <g id="Group_3103" data-name="Group 3103">
          <path id="Path_10874" data-name="Path 10874" d="M6227.372,2458.234a.385.385,0,0,1-.38-.392v-.015a22.755,22.755,0,0,0-.718-5.685c-.706-3.229-.124-6.544,4.054-6.87a.382.382,0,0,1,.411.355.32.32,0,0,1,0,.053c-.049.674.054,2.325,1.1,6.2C6233.047,2456.353,6230.549,2458.268,6227.372,2458.234Z" fill="#142266"/>
          <path id="Path_10875" data-name="Path 10875" d="M6227.228,2461.846a.387.387,0,0,0,.191-.512l-.007-.014a22.792,22.792,0,0,1-1.639-5.49c-.658-3.24-2.529-6.037-6.483-4.648a.383.383,0,0,0-.234.488.4.4,0,0,0,.023.052c.317.6.889,2.149,1.5,6.113C6221.282,2462.421,6224.336,2463.16,6227.228,2461.846Z" fill="#142266"/>
        </g>
        <g id="Group_3104" data-name="Group 3104">
          <path id="Path_10876" data-name="Path 10876" d="M6223.566,2444.6a.386.386,0,0,1-.454-.3l0-.016a22.7,22.7,0,0,0-1.884-5.411c-1.362-3.012-1.482-6.375,2.537-7.562a.381.381,0,0,1,.475.259.3.3,0,0,1,.012.055c.092.669.536,2.263,2.364,5.833C6228.73,2441.586,6226.68,2443.978,6223.566,2444.6Z" fill="#142266"/>
          <path id="Path_10877" data-name="Path 10877" d="M6224.176,2448.168a.385.385,0,0,0,.081-.54l-.01-.013a22.78,22.78,0,0,1-2.744-5.03c-1.318-3.032-3.729-5.379-7.307-3.2a.385.385,0,0,0-.125.528.45.45,0,0,0,.031.044c.434.517,1.317,1.917,2.734,5.668C6218.474,2449.964,6221.62,2450.054,6224.176,2448.168Z" fill="#142266"/>
        </g>
        <g id="Group_3105" data-name="Group 3105">
          <path id="Path_10878" data-name="Path 10878" d="M6217.01,2432.064a.386.386,0,0,1-.507-.2l-.006-.014a22.724,22.724,0,0,0-2.968-4.9c-1.958-2.663-2.775-5.928.91-7.925a.383.383,0,0,1,.52.157.278.278,0,0,1,.022.049c.229.635,1,2.1,3.524,5.214C6221.428,2428.038,6219.925,2430.8,6217.01,2432.064Z" fill="#142266"/>
          <path id="Path_10879" data-name="Path 10879" d="M6218.347,2435.423a.387.387,0,0,0-.034-.545l-.012-.01a22.762,22.762,0,0,1-3.73-4.35c-1.919-2.692-4.766-4.487-7.813-1.609a.383.383,0,0,0-.013.543.289.289,0,0,0,.039.036c.532.416,1.687,1.6,3.853,4.976C6213.143,2438.365,6216.239,2437.8,6218.347,2435.423Z" fill="#142266"/>
        </g>
        <g id="Group_3106" data-name="Group 3106">
          <path id="Path_10880" data-name="Path 10880" d="M6207.989,2421.16a.386.386,0,0,1-.538-.093l-.009-.013a22.735,22.735,0,0,0-3.922-4.177c-2.469-2.2-3.947-5.221-.758-7.94a.384.384,0,0,1,.541.045.291.291,0,0,1,.032.044c.356.574,1.411,1.849,4.531,4.367C6211.474,2416.3,6210.579,2419.32,6207.989,2421.16Z" fill="#142266"/>
          <path id="Path_10881" data-name="Path 10881" d="M6210,2424.172a.386.386,0,0,0-.146-.526l-.014-.007a22.738,22.738,0,0,1-4.553-3.479c-2.437-2.234-5.594-3.4-7.976.05a.382.382,0,0,0,.1.532.4.4,0,0,0,.048.029c.607.3,1.982,1.216,4.8,4.066C6205.518,2428.127,6208.428,2426.93,6210,2424.172Z" fill="#142266"/>
        </g>
        <g id="Group_3107" data-name="Group 3107">
          <path id="Path_10882" data-name="Path 10882" d="M6196.9,2412.371a.386.386,0,0,1-.545.022l-.012-.011a22.752,22.752,0,0,0-4.7-3.271c-2.872-1.637-4.946-4.287-2.392-7.609a.383.383,0,0,1,.537-.069.368.368,0,0,1,.041.037c.468.487,1.764,1.516,5.34,3.329C6199.3,2406.9,6199.05,2410.033,6196.9,2412.371Z" fill="#142266"/>
          <path id="Path_10883" data-name="Path 10883" d="M6199.488,2414.9a.387.387,0,0,0-.252-.485l-.016,0a22.766,22.766,0,0,1-5.177-2.456c-2.848-1.678-6.178-2.16-7.792,1.708a.383.383,0,0,0,.207.5.506.506,0,0,0,.053.018c.655.163,2.192.777,5.544,2.978C6195.93,2419.7,6198.529,2417.924,6199.488,2414.9Z" fill="#142266"/>
        </g>
        <g id="Group_3108" data-name="Group 3108">
          <path id="Path_10884" data-name="Path 10884" d="M6184.223,2406.079a.386.386,0,0,1-.529.134l-.014-.008a22.731,22.731,0,0,0-5.282-2.221c-3.15-1-5.729-3.165-3.922-6.946a.384.384,0,0,1,.513-.179.442.442,0,0,1,.046.027c.559.379,2.041,1.116,5.916,2.146C6185.432,2400.225,6185.841,2403.345,6184.223,2406.079Z" fill="#142266"/>
          <path id="Path_10885" data-name="Path 10885" d="M6187.276,2408.011a.386.386,0,0,0-.348-.421h-.015a22.794,22.794,0,0,1-5.574-1.326c-3.135-1.05-6.493-.829-7.266,3.29a.384.384,0,0,0,.308.447l.054.006c.675.024,2.306.3,6.042,1.76C6184.8,2413.45,6186.976,2411.173,6187.276,2408.011Z" fill="#142266"/>
        </g>
        <g id="Group_3109" data-name="Group 3109">
          <path id="Path_10886" data-name="Path 10886" d="M6156.379,2537.079a.387.387,0,0,0-.428-.339l-.016,0a22.785,22.785,0,0,1-5.729-.12c-3.286-.364-6.521.561-6.408,4.75a.383.383,0,0,0,.394.371.341.341,0,0,0,.055,0c.665-.119,2.318-.189,6.277.446C6155.1,2542.919,6156.745,2540.235,6156.379,2537.079Z" fill="#142266"/>
          <path id="Path_10887" data-name="Path 10887" d="M6159.956,2536.559a.386.386,0,0,1-.489.242l-.011,0a22.738,22.738,0,0,0-5.632-1.056c-3.291-.316-6.269-1.884-5.3-5.961a.385.385,0,0,1,.464-.283.523.523,0,0,1,.051.017c.626.253,2.23.659,6.236.849C6159.9,2530.579,6160.96,2533.545,6159.956,2536.559Z" fill="#142266"/>
        </g>
        <g id="Group_3110" data-name="Group 3110">
          <path id="Path_10888" data-name="Path 10888" d="M6142.426,2534.719a.386.386,0,0,0-.349-.42h-.016a22.764,22.764,0,0,1-5.579-1.308c-3.138-1.039-6.5-.807-7.256,3.314a.384.384,0,0,0,.31.446l.053.006c.675.021,2.306.3,6.047,1.741C6139.963,2540.161,6142.128,2537.881,6142.426,2534.719Z" fill="#142266"/>
          <path id="Path_10889" data-name="Path 10889" d="M6146.034,2534.953a.388.388,0,0,1-.529.136l-.013-.008a22.764,22.764,0,0,0-5.289-2.2c-3.153-.993-5.74-3.146-3.945-6.933a.385.385,0,0,1,.512-.181.407.407,0,0,1,.047.027c.56.378,2.044,1.109,5.923,2.127C6147.223,2529.095,6147.642,2532.214,6146.034,2534.953Z" fill="#142266"/>
        </g>
        <g id="Group_3111" data-name="Group 3111">
          <path id="Path_10890" data-name="Path 10890" d="M6129.269,2529.509a.386.386,0,0,0-.253-.484l-.016,0a22.8,22.8,0,0,1-5.185-2.439c-2.854-1.669-6.186-2.14-7.786,1.733a.383.383,0,0,0,.211.5.4.4,0,0,0,.05.017c.656.161,2.194.77,5.553,2.96C6125.726,2534.324,6128.32,2532.54,6129.269,2529.509Z" fill="#142266"/>
          <path id="Path_10891" data-name="Path 10891" d="M6132.749,2530.489a.386.386,0,0,1-.545.023l-.012-.011a22.659,22.659,0,0,0-4.716-3.255c-2.877-1.627-4.96-4.271-2.417-7.6a.383.383,0,0,1,.537-.071.42.42,0,0,1,.041.037c.469.486,1.769,1.51,5.351,3.312C6135.134,2525.006,6134.892,2528.144,6132.749,2530.489Z" fill="#142266"/>
        </g>
        <g id="Group_3112" data-name="Group 3112">
          <path id="Path_10892" data-name="Path 10892" d="M6117.484,2521.677a.387.387,0,0,0-.148-.526l-.014-.007a22.788,22.788,0,0,1-4.564-3.464c-2.444-2.226-5.6-3.379-7.976.076a.384.384,0,0,0,.1.532.377.377,0,0,0,.048.028c.608.294,1.986,1.21,4.817,4.05C6113.018,2525.651,6115.928,2524.445,6117.484,2521.677Z" fill="#142266"/>
          <path id="Path_10893" data-name="Path 10893" d="M6120.684,2523.359a.387.387,0,0,1-.539-.088l-.008-.012a22.724,22.724,0,0,0-3.936-4.164c-2.476-2.19-3.964-5.209-.784-7.938a.384.384,0,0,1,.573.087c.358.573,1.417,1.844,4.546,4.352C6124.153,2518.491,6123.267,2521.511,6120.684,2523.359Z" fill="#142266"/>
        </g>
        <g id="Group_3113" data-name="Group 3113">
          <path id="Path_10894" data-name="Path 10894" d="M6107.58,2511.567a.386.386,0,0,0-.035-.545l-.013-.01a22.745,22.745,0,0,1-3.744-4.337c-1.928-2.685-4.781-4.471-7.818-1.584a.385.385,0,0,0-.012.543.458.458,0,0,0,.04.036c.534.414,1.692,1.6,3.869,4.963C6102.388,2514.524,6105.48,2513.95,6107.58,2511.567Z" fill="#142266"/>
          <path id="Path_10895" data-name="Path 10895" d="M6110.364,2513.877a.386.386,0,0,1-.508-.2l-.006-.015a22.725,22.725,0,0,0-2.984-4.891c-1.967-2.657-2.794-5.919.884-7.928a.383.383,0,0,1,.521.154.39.39,0,0,1,.021.046c.231.635,1,2.1,3.541,5.2C6114.77,2509.837,6113.275,2512.607,6110.364,2513.877Z" fill="#142266"/>
        </g>
        <g id="Group_3114" data-name="Group 3114">
          <path id="Path_10896" data-name="Path 10896" d="M6100,2499.623a.386.386,0,0,0,.079-.54l-.01-.013a22.783,22.783,0,0,1-2.761-5.021c-1.328-3.028-3.746-5.367-7.318-3.175a.382.382,0,0,0-.125.527.363.363,0,0,0,.032.045c.436.516,1.323,1.913,2.753,5.659C6094.3,2501.433,6097.451,2501.514,6100,2499.623Z" fill="#142266"/>
          <path id="Path_10897" data-name="Path 10897" d="M6102.24,2502.457a.386.386,0,0,1-.455-.3l0-.015a22.711,22.711,0,0,0-1.9-5.4c-1.371-3.008-1.5-6.37,2.513-7.57a.382.382,0,0,1,.476.258.469.469,0,0,1,.012.054c.094.669.544,2.261,2.383,5.825C6107.39,2499.422,6105.356,2501.82,6102.24,2502.457Z" fill="#142266"/>
        </g>
        <g id="Group_3115" data-name="Group 3115">
          <path id="Path_10898" data-name="Path 10898" d="M6095.069,2486.355a.386.386,0,0,0,.19-.511l-.008-.015a22.787,22.787,0,0,1-1.656-5.486c-.669-3.237-2.548-6.029-6.5-4.626a.383.383,0,0,0-.232.489.486.486,0,0,0,.022.051c.319.6.9,2.146,1.516,6.108C6089.12,2486.946,6092.183,2487.678,6095.069,2486.355Z" fill="#142266"/>
          <path id="Path_10899" data-name="Path 10899" d="M6096.671,2489.6a.386.386,0,0,1-.382-.39v-.016a22.738,22.738,0,0,0-.736-5.682c-.716-3.227-.146-6.544,4.031-6.883a.383.383,0,0,1,.412.352.515.515,0,0,1,0,.055c-.047.674.062,2.325,1.12,6.193C6102.338,2487.7,6099.846,2489.621,6096.671,2489.6Z" fill="#142266"/>
        </g>
        <g id="Group_3116" data-name="Group 3116">
          <path id="Path_10900" data-name="Path 10900" d="M6093,2472.356a.387.387,0,0,0,.292-.462l0-.015a22.768,22.768,0,0,1-.48-5.71c.019-3.306-1.239-6.427-5.394-5.877a.382.382,0,0,0-.328.43.3.3,0,0,0,.011.055c.188.649.43,2.286.213,6.29C6087.06,2471.7,6089.9,2473.049,6093,2472.356Z" fill="#142266"/>
          <path id="Path_10901" data-name="Path 10901" d="M6093.894,2475.859a.386.386,0,0,1-.292-.461l0-.015a22.726,22.726,0,0,0,.461-5.711c-.029-3.306,1.219-6.431,5.375-5.894a.384.384,0,0,1,.33.431.272.272,0,0,1-.011.053c-.186.649-.423,2.287-.193,6.29C6099.833,2475.181,6097,2476.543,6093.894,2475.859Z" fill="#142266"/>
        </g>
        <g id="Group_3117" data-name="Group 3117">
          <path id="Path_10902" data-name="Path 10902" d="M6093.888,2458.234a.386.386,0,0,0,.381-.392v-.015a22.755,22.755,0,0,1,.718-5.685c.706-3.229.124-6.544-4.054-6.87a.383.383,0,0,0-.411.353.515.515,0,0,0,0,.055c.049.674-.055,2.325-1.1,6.2C6088.217,2456.353,6090.715,2458.268,6093.888,2458.234Z" fill="#142266"/>
          <path id="Path_10903" data-name="Path 10903" d="M6094.036,2461.846a.386.386,0,0,1-.191-.512l.007-.014a22.748,22.748,0,0,0,1.639-5.49c.659-3.24,2.529-6.037,6.483-4.648a.383.383,0,0,1,.234.488.34.34,0,0,1-.023.052c-.317.6-.889,2.149-1.5,6.113C6099.986,2462.421,6096.928,2463.16,6094.036,2461.846Z" fill="#142266"/>
        </g>
        <g id="Group_3118" data-name="Group 3118">
          <path id="Path_10904" data-name="Path 10904" d="M6097.7,2444.6a.386.386,0,0,0,.454-.3l0-.016a22.748,22.748,0,0,1,1.884-5.411c1.362-3.012,1.482-6.375-2.537-7.562a.382.382,0,0,0-.475.259.5.5,0,0,0-.012.055c-.092.669-.536,2.263-2.364,5.833C6092.537,2441.586,6094.582,2443.978,6097.7,2444.6Z" fill="#142266"/>
          <path id="Path_10905" data-name="Path 10905" d="M6097.086,2448.168a.387.387,0,0,1-.081-.54l.01-.013a22.758,22.758,0,0,0,2.744-5.03c1.318-3.032,3.729-5.379,7.307-3.2a.382.382,0,0,1,.127.526.5.5,0,0,1-.033.046c-.434.517-1.316,1.917-2.734,5.668C6102.788,2449.964,6099.642,2450.054,6097.086,2448.168Z" fill="#142266"/>
        </g>
        <g id="Group_3119" data-name="Group 3119">
          <path id="Path_10906" data-name="Path 10906" d="M6104.253,2432.064a.386.386,0,0,0,.507-.2l.006-.014a22.722,22.722,0,0,1,2.968-4.9c1.958-2.663,2.775-5.928-.91-7.925a.384.384,0,0,0-.519.156.379.379,0,0,0-.022.05c-.229.635-1,2.1-3.525,5.214C6099.834,2428.038,6101.337,2430.8,6104.253,2432.064Z" fill="#142266"/>
          <path id="Path_10907" data-name="Path 10907" d="M6102.915,2435.423a.386.386,0,0,1,.034-.545l.012-.01a22.745,22.745,0,0,0,3.73-4.35c1.919-2.692,4.766-4.487,7.813-1.609a.384.384,0,0,1,.013.543.425.425,0,0,1-.04.036c-.532.416-1.686,1.6-3.853,4.976C6108.119,2438.365,6105.023,2437.8,6102.915,2435.423Z" fill="#142266"/>
        </g>
        <g id="Group_3120" data-name="Group 3120">
          <path id="Path_10908" data-name="Path 10908" d="M6113.274,2421.16a.386.386,0,0,0,.538-.093l.009-.013a22.737,22.737,0,0,1,3.922-4.177c2.469-2.2,3.947-5.221.758-7.94a.384.384,0,0,0-.541.045c-.011.014-.022.028-.032.044-.356.574-1.411,1.849-4.532,4.367C6109.789,2416.3,6110.684,2419.32,6113.274,2421.16Z" fill="#142266"/>
          <path id="Path_10909" data-name="Path 10909" d="M6111.267,2424.172a.386.386,0,0,1,.147-.526l.013-.007a22.727,22.727,0,0,0,4.553-3.479c2.437-2.234,5.594-3.4,7.976.05a.384.384,0,0,1-.1.534.355.355,0,0,1-.046.027c-.607.3-1.983,1.216-4.8,4.066C6115.746,2428.127,6112.835,2426.93,6111.267,2424.172Z" fill="#142266"/>
        </g>
        <g id="Group_3121" data-name="Group 3121">
          <path id="Path_10910" data-name="Path 10910" d="M6124.364,2412.371a.387.387,0,0,0,.545.022l.012-.011a22.755,22.755,0,0,1,4.7-3.271c2.872-1.637,4.946-4.287,2.392-7.609a.383.383,0,0,0-.539-.067.3.3,0,0,0-.039.035c-.468.487-1.764,1.516-5.34,3.329C6121.965,2406.9,6122.213,2410.033,6124.364,2412.371Z" fill="#142266"/>
          <path id="Path_10911" data-name="Path 10911" d="M6121.776,2414.9a.388.388,0,0,1,.252-.485l.016,0a22.766,22.766,0,0,0,5.177-2.456c2.848-1.678,6.179-2.16,7.792,1.708a.383.383,0,0,1-.207.5.44.44,0,0,1-.053.018c-.655.163-2.192.777-5.544,2.978C6125.333,2419.7,6122.735,2417.924,6121.776,2414.9Z" fill="#142266"/>
        </g>
        <g id="Group_3122" data-name="Group 3122">
          <path id="Path_10912" data-name="Path 10912" d="M6137.04,2406.079a.386.386,0,0,0,.529.134l.014-.008a22.731,22.731,0,0,1,5.282-2.221c3.15-1,5.729-3.165,3.922-6.946a.385.385,0,0,0-.513-.179.435.435,0,0,0-.046.027c-.559.379-2.041,1.116-5.916,2.146C6135.831,2400.225,6135.422,2403.345,6137.04,2406.079Z" fill="#142266"/>
          <path id="Path_10913" data-name="Path 10913" d="M6133.983,2408.011a.387.387,0,0,1,.348-.421h.016a22.785,22.785,0,0,0,5.574-1.326c3.135-1.05,6.493-.829,7.266,3.29a.383.383,0,0,1-.306.447l-.056.006c-.675.024-2.305.3-6.042,1.76C6136.464,2413.45,6134.291,2411.173,6133.983,2408.011Z" fill="#142266"/>
        </g>
      </g>
      <g id="Group_3389" data-name="Group 3389">
        <g id="Group_3124" data-name="Group 3124">
          <path id="Path_10914" data-name="Path 10914" d="M6160.485,2557.338l-76.121-77.573-2.5,10.058,78.621,80.121,78.621-80.121-2.5-10.058Z" fill="#e65416"/>
          <path id="Path_10915" data-name="Path 10915" d="M6236.606,2479.764l-2.833-11.4c-31.187-3.9-51.662-17.144-63.632-28.04a99.2,99.2,0,0,1-9.656-10.114,99.086,99.086,0,0,1-9.656,10.114c-11.97,10.9-32.444,24.144-63.632,28.04l-2.833,11.4,76.121,77.573Z" fill="#b5311b"/>
        </g>
        <path id="Path_10916" data-name="Path 10916" d="M6242.928,2458c-62.61-4.005-82.444-46.74-82.444-46.74s-19.835,42.735-82.444,46.74l-8.056,31.144,90.5,88.632,90.5-88.632Zm-161.066,31.828,5.334-21.457c31.188-3.9,51.662-17.144,63.632-28.04a99.139,99.139,0,0,0,9.656-10.114,99.2,99.2,0,0,0,9.656,10.114c11.97,10.9,32.444,24.144,63.632,28.04l5.334,21.457-78.621,80.121Z" fill="#142266"/>
      </g>
      <g id="Group_31" data-name="Group 31">
        <g id="Group_30" data-name="Group 30">
          <g id="Group_3129" data-name="Group 3129">
            <circle id="Ellipse_228" data-name="Ellipse 228" cx="60.01" cy="60.01" r="60.01" transform="translate(6100.385 2413.51)" fill="#142266"/>
          </g>
          <path id="Path_7333" data-name="Path 7333" d="M6206.522,2449.659c-4.94,1.918-11.277,2.827-17.129,3.249l-1.625,1.625a33.652,33.652,0,1,1-8.45-8.382l1.657-1.658c.39-5.848,1.3-12.184,3.218-17.122a51.952,51.952,0,1,0,22.328,22.289Zm-45.373,23.069a2.782,2.782,0,0,0,1.983.813,2.658,2.658,0,0,0,1.95-.813l24.019-24.077c7.085-.422,20.963-2.111,21.808-8.642.682-5.166-2.6-7.019-5.428-7.7l6.045-6.011a2.781,2.781,0,1,0-3.877-3.987l-.023.023-6.143,6.076c-.618-2.86-2.437-6.3-7.7-5.617-6.5.844-8.191,14.783-8.613,21.867l-24.019,24.076a2.884,2.884,0,0,0,0,3.991Zm5.494-13.744a14.424,14.424,0,0,0-5.428-1.04,14.749,14.749,0,1,0,13.651,9.227l-9.718,9.715a5.8,5.8,0,0,1-8.191-8.218Z" fill="#e65416"/>
        </g>
        <path id="Path_136" data-name="Path 136" d="M6181.025,2427.058s-3.865,8.245-1.632,16.319c0,0-14.172-13.743-40.627,1.031C6138.766,2444.408,6148.472,2434.7,6181.025,2427.058Z" fill="#b5311b"/>
        <path id="Path_137" data-name="Path 137" d="M6118.667,2445.782s16.942-25.293,49.474-22.5C6168.141,2423.278,6141.171,2421.732,6118.667,2445.782Z" fill="#fff"/>
        <path id="Path_138" data-name="Path 138" d="M6165,2522.372s36.221-1.615,43.719-42.525C6208.72,2479.847,6201.846,2508.663,6165,2522.372Z" fill="#b5311b"/>
        <path id="Path_139" data-name="Path 139" d="M6188.011,2433.929s2.6-13.657,10.995-8.589C6199.006,2425.34,6192.363,2426.027,6188.011,2433.929Z" fill="#fff"/>
        <path id="Path_140" data-name="Path 140" d="M6191.59,2446.126s21.817-.344,16.921-11.08C6208.511,2435.046,6208.168,2442.776,6191.59,2446.126Z" fill="#b5311b"/>
        <path id="Path_141" data-name="Path 141" d="M6206.535,2424.511s1.17-2.991,3.978-2.489A7.236,7.236,0,0,0,6206.535,2424.511Z" fill="#fff"/>
        <path id="Path_142" data-name="Path 142" d="M6211.2,2422.877s1.8,2.606-1.975,4.753A6.65,6.65,0,0,0,6211.2,2422.877Z" fill="#b5311b"/>
        <path id="Path_143" data-name="Path 143" d="M6161.1,2469.9s.408,6.377,6.807-.623C6167.9,2469.274,6163.2,2473.161,6161.1,2469.9Z" fill="#b5311b"/>
        <path id="Path_144" data-name="Path 144" d="M6190,2453.513s9.025,1.073,16.534-2.921a33.062,33.062,0,0,1,3.522,9.878S6203.916,2455.188,6190,2453.513Z" fill="#b5311b"/>
      </g>
      <g id="Group_3391" data-name="Group 3391">
        <ellipse id="Ellipse_224" data-name="Ellipse 224" cx="17.219" cy="9.559" rx="17.219" ry="9.559" transform="translate(6213.445 2543.767)" fill="#142266"/>
        <ellipse id="Ellipse_225" data-name="Ellipse 225" cx="17.219" cy="9.559" rx="17.219" ry="9.559" transform="translate(6073.03 2543.767)" fill="#142266"/>
        <ellipse id="Ellipse_226" data-name="Ellipse 226" cx="10.228" cy="5.678" rx="10.228" ry="5.678" transform="translate(6083.367 2548.554)" fill="#dc2648"/>
        <ellipse id="Ellipse_227" data-name="Ellipse 227" cx="10.228" cy="5.678" rx="10.228" ry="5.678" transform="translate(6217.091 2548.554)" fill="#dc2648"/>
        <path id="Path_10918" data-name="Path 10918" d="M6160.339,2521.148c-27.589,0-55.178,5.5-82.768,6.093a4.808,4.808,0,0,0-4.7,4.811v19.99a5.888,5.888,0,0,0,5.881,5.893l.155,0c27.142-.735,54.285-6.06,81.427-6.06s54.285,5.326,81.427,6.06a5.888,5.888,0,0,0,6.035-5.736c0-.052,0-.1,0-.155v-19.99a4.8,4.8,0,0,0-4.695-4.811C6215.517,2526.65,6187.928,2521.148,6160.339,2521.148Z" fill="#142266"/>
        <g id="Group_34" data-name="Group 34">
          <g id="Group_33" data-name="Group 33">
            <g id="Group_32" data-name="Group 32">
              <path id="Path_145" data-name="Path 145" d="M6127.286,2544.662q-2.442.22-4.883.472-1.493-1.194-3.007-2.375-.645-5.844-1.291-11.689,1.26-1.488,2.541-2.967,2.552-.264,5.1-.494,1.553,1.206,3.085,2.424.486,5.86.971,11.72Q6128.535,2543.2,6127.286,2544.662Zm-.928-4.105q-.4-4.381-.8-8.762-.528-.408-1.059-.814c-.651.061-1.3.124-1.952.189q-.453.513-.9,1.025l.888,8.732q.532.414,1.065.827c.634-.063,1.266-.124,1.9-.184C6125.781,2541.232,6126.068,2540.9,6126.358,2540.557Z" fill="#fff"/>
              <path id="Path_146" data-name="Path 146" d="M6142.6,2543.591q-1.693.084-3.381.184-1.225-4-2.493-7.992-.792,1.534-1.568,3.072.177,2.577.353,5.155-1.645.112-3.29.239-.657-8.535-1.316-17.071,1.719-.132,3.437-.25l.369,5.393q1.433-2.808,2.91-5.6,1.983-.12,3.968-.219-1.357,2.5-2.679,5.015Q6140.8,2537.544,6142.6,2543.591Z" fill="#fff"/>
              <path id="Path_147" data-name="Path 147" d="M6150.129,2543.292q.027.918.055,1.837,1.028-.031,2.055-.056.047,1.89.093,3.782-2.175.052-4.35.132c-.017-.468-.033-.936-.051-1.405q1.389-.051,2.78-.09c-.01-.324-.02-.648-.028-.972-.681.02-1.365.041-2.047.064q-.056-1.62-.111-3.241l-1.01.036q-1.41-1.29-2.841-2.568l-.516-11.75q1.354-1.4,2.728-2.792,2.572-.1,5.142-.156,1.467,1.3,2.914,2.622.024,1.362.046,2.724-1.7.029-3.4.071c-.01-.41-.021-.821-.031-1.232q-.512-.452-1.025-.9-.98.027-1.958.059-.476.48-.947.962.155,4.386.309,8.772.5.447.986.9c.636-.021,1.27-.041,1.906-.058.316-.319.634-.636.951-.954-.01-.411-.021-.821-.031-1.232q1.671-.044,3.343-.07c.014.907.031,1.815.045,2.723q-1.359,1.364-2.7,2.736Q6151.282,2543.257,6150.129,2543.292Z" fill="#fff"/>
              <path id="Path_148" data-name="Path 148" d="M6167.8,2540.492q-1.392,1.319-2.768,2.645-2.462-.021-4.923-.013-1.367-1.335-2.754-2.661-.08-7.219-.157-14.44,1.72-.019,3.444-.023.013,6.475.029,12.95l.955.928q.951,0,1.906.006.479-.462.96-.923l.1-12.95q1.723.014,3.445.041Q6167.915,2533.271,6167.8,2540.492Z" fill="#fff"/>
              <path id="Path_149" data-name="Path 149" d="M6178.252,2543.489q-4.151-.183-8.3-.274l.378-17.118q1.723.038,3.443.091-.213,6.936-.427,13.872,2.526.078,5.052.189Q6178.323,2541.869,6178.252,2543.489Z" fill="#fff"/>
              <path id="Path_150" data-name="Path 150" d="M6191.009,2541.575q-1.471,1.232-2.925,2.473-2.456-.171-4.915-.312-1.284-1.415-2.589-2.822.358-7.212.717-14.424,1.72.086,3.44.187-.376,6.464-.754,12.927l.9.984c.633.039,1.269.079,1.9.121q.505-.432,1.015-.863.441-6.459.883-12.92,1.719.118,3.438.25Z" fill="#fff"/>
              <path id="Path_151" data-name="Path 151" d="M6203.354,2545.424q-1.685-.186-3.37-.357-.574-4.144-1.193-8.286-1.025,1.388-2.038,2.783-.234,2.573-.471,5.145-1.643-.15-3.285-.286.706-8.532,1.413-17.064,1.718.143,3.433.3-.245,2.691-.492,5.383,1.86-2.544,3.766-5.07,1.978.2,3.956.415-1.74,2.256-3.446,4.526Q6202.539,2539.167,6203.354,2545.424Z" fill="#fff"/>
            </g>
          </g>
        </g>
      </g>
    </g>
    <path id="Path_152" data-name="Path 152" d="M6174.717,2468.262s3.239,13.762-10.215,17.34C6164.5,2485.6,6176.533,2480.482,6174.717,2468.262Z" transform="translate(-5701.464 -2702.821)" fill="#b5311b"/>
    <path id="Path_153" data-name="Path 153" d="M6165.359,2458.877s-15.11-3.344-18.206,12.757C6147.153,2471.634,6152.189,2456.978,6165.359,2458.877Z" transform="translate(-5701.464 -2702.821)" fill="#fff"/>
    <path id="Path_154" data-name="Path 154" d="M6179.616,2468.262" transform="translate(-5701.464 -2702.821)" fill="none" stroke="#142266" stroke-miterlimit="10" stroke-width="1"/>
    <path id="Path_155" data-name="Path 155" d="M6173.726,2457.06s-7.431,8.134-12.11,12.214C6161.616,2469.274,6165.744,2466.858,6173.726,2457.06Z" transform="translate(-5701.464 -2702.821)" fill="#fff"/>
  </g>
</svg>
