<svg xmlns="http://www.w3.org/2000/svg" xmlns:xlink="http://www.w3.org/1999/xlink" width="181" height="180.951" viewBox="0 0 181 180.951">
  <defs>
    <clipPath id="clip-path">
      <path id="Path_10973" data-name="Path 10973" d="M5230.621,2510.975v7.291c0,9.162,8.642,18.039,18.135,18.039h.694c9.494,0,16.527-8.908,16.527-18.039v-7.291Zm55.321-69.776-11.227-12.3a.858.858,0,0,0-.6-.254,1.326,1.326,0,0,0-.347.064l-7.758,3.709-4.259-3.836a.9.9,0,0,0-.54-.222.636.636,0,0,0-.41.127l-6.623,3.994-5.551-4.121a.943.943,0,0,0-.474-.158.845.845,0,0,0-.473.158l-5.488,4.09-6.528-3.963a1.021,1.021,0,0,0-.41-.127.739.739,0,0,0-.54.222l-4.195,3.773-7.632-3.646a.67.67,0,0,0-.347-.064.861.861,0,0,0-.6.254l-11.224,12.3a.784.784,0,0,0-.158.856l11.892,28.025a.993.993,0,0,0,.284.349l5.867,4.184,4.636,24.126a.813.813,0,0,0-.663.792v7.351c0,.444.347,2.346.821,2.346H5263.2c.441,0,.915-1.9.915-2.346v-7.351a.85.85,0,0,0-.6-.757l4.6-24.156,5.867-4.185a.777.777,0,0,0,.284-.349l11.891-28.025A1.214,1.214,0,0,0,5285.942,2441.2Zm-53.619,36.647,1.577-2.379,3.974,3.329,1.166,11.891h-4.163Zm6.434,26.377-1.388-8.432h2.681l.694,8.432Zm8.7,0h-2.582l-.757-8.432h3.375v8.432Zm0-13.537h-4l-1.041-12.142,2.208-3.043,2.838,3.3Zm4.29,13.537h-2.618v-8.432h3.375Zm1.388-13.537h-4.005v-11.857l2.839-3.328,2.207,3.107Zm5.772,13.537h-3.06l.973-8.432h4.069Zm2.87-13.537h-4.227l1.136-11.793,4-3.423,1.609,2.472Z" fill="none"/>
    </clipPath>
  </defs>
  <g id="badminton" transform="translate(541.956 299.213)">
    <g id="Group_3388" data-name="Group 3388" transform="translate(-5701.464 -2702.821)">
      <g id="Group_3095" data-name="Group 3095">
        <path id="Path_10858" data-name="Path 10858" d="M5254.411,2543.866a.385.385,0,0,1,.428-.338l.016,0a22.751,22.751,0,0,0,5.729-.12c3.286-.364,6.521.561,6.408,4.75a.384.384,0,0,1-.394.372.449.449,0,0,1-.055-.006c-.665-.119-2.318-.189-6.277.446C5255.685,2549.706,5254.042,2547.022,5254.411,2543.866Z" fill="#142266"/>
        <path id="Path_10859" data-name="Path 10859" d="M5250.83,2543.346a.385.385,0,0,0,.489.242l.011,0a22.732,22.732,0,0,1,5.632-1.056c3.291-.316,6.269-1.884,5.3-5.961a.385.385,0,0,0-.464-.282.28.28,0,0,0-.051.016c-.626.253-2.23.659-6.236.849C5250.885,2537.366,5249.826,2540.332,5250.83,2543.346Z" fill="#142266"/>
      </g>
      <g id="Group_3096" data-name="Group 3096">
        <path id="Path_10860" data-name="Path 10860" d="M5268.36,2541.506a.386.386,0,0,1,.349-.42h.016a22.774,22.774,0,0,0,5.579-1.308c3.138-1.039,6.5-.807,7.256,3.314a.383.383,0,0,1-.31.446.467.467,0,0,1-.053.006c-.675.021-2.307.3-6.048,1.741C5270.823,2546.948,5268.659,2544.668,5268.36,2541.506Z" fill="#142266"/>
        <path id="Path_10861" data-name="Path 10861" d="M5264.753,2541.74a.384.384,0,0,0,.528.136l.014-.008a22.776,22.776,0,0,1,5.289-2.2c3.153-.993,5.74-3.146,3.945-6.933a.384.384,0,0,0-.512-.181.336.336,0,0,0-.047.027c-.56.378-2.044,1.109-5.923,2.127C5263.563,2535.882,5263.144,2539,5264.753,2541.74Z" fill="#142266"/>
      </g>
      <g id="Group_3097" data-name="Group 3097">
        <path id="Path_10862" data-name="Path 10862" d="M5281.517,2536.3a.385.385,0,0,1,.253-.483l.016,0a22.773,22.773,0,0,0,5.185-2.439c2.854-1.669,6.186-2.14,7.786,1.733a.384.384,0,0,1-.211.5.423.423,0,0,1-.05.016c-.656.161-2.194.77-5.553,2.96C5285.064,2541.111,5282.464,2539.327,5281.517,2536.3Z" fill="#142266"/>
        <path id="Path_10863" data-name="Path 10863" d="M5278.036,2537.276a.385.385,0,0,0,.545.023l.012-.011a22.723,22.723,0,0,1,4.716-3.255c2.877-1.627,4.96-4.271,2.417-7.6a.382.382,0,0,0-.537-.07.36.36,0,0,0-.041.036c-.469.486-1.769,1.51-5.351,3.312C5275.655,2531.793,5275.894,2534.931,5278.036,2537.276Z" fill="#142266"/>
      </g>
      <g id="Group_3098" data-name="Group 3098">
        <path id="Path_10864" data-name="Path 10864" d="M5293.305,2528.464a.386.386,0,0,1,.148-.525l.014-.008a22.759,22.759,0,0,0,4.564-3.464c2.444-2.226,5.605-3.379,7.976.076a.383.383,0,0,1-.1.532.411.411,0,0,1-.048.028c-.608.294-1.986,1.21-4.816,4.05C5297.77,2532.438,5294.864,2531.232,5293.305,2528.464Z" fill="#142266"/>
        <path id="Path_10865" data-name="Path 10865" d="M5290.1,2530.146a.386.386,0,0,0,.539-.088l.008-.012a22.793,22.793,0,0,1,3.936-4.164c2.476-2.19,3.964-5.209.784-7.938a.384.384,0,0,0-.54.042.362.362,0,0,0-.033.045c-.358.573-1.417,1.844-4.546,4.352C5286.634,2525.278,5287.52,2528.3,5290.1,2530.146Z" fill="#142266"/>
      </g>
      <g id="Group_3099" data-name="Group 3099">
        <path id="Path_10866" data-name="Path 10866" d="M5303.2,2518.354a.386.386,0,0,1,.035-.545l.012-.01a22.727,22.727,0,0,0,3.744-4.337c1.928-2.685,4.781-4.471,7.818-1.584a.385.385,0,0,1,.012.543.5.5,0,0,1-.04.036c-.533.414-1.692,1.6-3.869,4.963C5308.4,2521.311,5305.3,2520.737,5303.2,2518.354Z" fill="#142266"/>
        <path id="Path_10867" data-name="Path 10867" d="M5300.423,2520.664a.387.387,0,0,0,.508-.2l.006-.015a22.741,22.741,0,0,1,2.984-4.891c1.967-2.657,2.795-5.919-.883-7.928a.385.385,0,0,0-.521.154.327.327,0,0,0-.021.046c-.231.635-1,2.1-3.542,5.2C5296.017,2516.624,5297.507,2519.394,5300.423,2520.664Z" fill="#142266"/>
      </g>
      <g id="Group_3100" data-name="Group 3100">
        <path id="Path_10868" data-name="Path 10868" d="M5310.786,2506.41a.386.386,0,0,1-.079-.54l.01-.013a22.715,22.715,0,0,0,2.761-5.021c1.327-3.028,3.746-5.367,7.318-3.175a.383.383,0,0,1,.125.527.276.276,0,0,1-.032.045c-.436.516-1.323,1.913-2.753,5.659C5316.482,2508.22,5313.336,2508.3,5310.786,2506.41Z" fill="#142266"/>
        <path id="Path_10869" data-name="Path 10869" d="M5308.547,2509.244a.385.385,0,0,0,.455-.3l0-.016a22.737,22.737,0,0,1,1.9-5.405c1.371-3.008,1.5-6.37-2.513-7.57a.383.383,0,0,0-.476.258c0,.018-.009.036-.012.054-.094.669-.544,2.261-2.382,5.825C5303.4,2506.209,5305.435,2508.607,5308.547,2509.244Z" fill="#142266"/>
      </g>
      <g id="Group_3101" data-name="Group 3101">
        <path id="Path_10870" data-name="Path 10870" d="M5315.718,2493.142a.386.386,0,0,1-.19-.51l.008-.016a22.781,22.781,0,0,0,1.656-5.486c.669-3.237,2.548-6.029,6.5-4.626a.383.383,0,0,1,.231.49.366.366,0,0,1-.022.05c-.319.6-.9,2.146-1.516,6.108C5321.667,2493.733,5318.606,2494.465,5315.718,2493.142Z" fill="#142266"/>
        <path id="Path_10871" data-name="Path 10871" d="M5314.117,2496.384a.386.386,0,0,0,.382-.39v-.016a22.747,22.747,0,0,1,.737-5.682c.716-3.227.145-6.544-4.032-6.883a.385.385,0,0,0-.412.354.479.479,0,0,0,0,.053c.047.674-.062,2.325-1.119,6.193C5308.449,2494.485,5310.941,2496.408,5314.117,2496.384Z" fill="#142266"/>
      </g>
      <g id="Group_3102" data-name="Group 3102">
        <path id="Path_10872" data-name="Path 10872" d="M5317.785,2479.143a.386.386,0,0,1-.292-.461l0-.016a22.764,22.764,0,0,0,.48-5.71c-.019-3.306,1.239-6.427,5.394-5.877a.382.382,0,0,1,.328.431.424.424,0,0,1-.011.054c-.188.649-.43,2.286-.213,6.29C5323.726,2478.483,5320.885,2479.836,5317.785,2479.143Z" fill="#142266"/>
        <path id="Path_10873" data-name="Path 10873" d="M5316.9,2482.646a.387.387,0,0,0,.293-.461l0-.015a22.722,22.722,0,0,1-.461-5.711c.029-3.306-1.219-6.431-5.375-5.894a.385.385,0,0,0-.33.432.334.334,0,0,0,.011.052c.186.649.423,2.287.193,6.29C5310.954,2481.968,5313.791,2483.33,5316.9,2482.646Z" fill="#142266"/>
      </g>
      <g id="Group_3103" data-name="Group 3103">
        <path id="Path_10874" data-name="Path 10874" d="M5316.9,2465.021a.386.386,0,0,1-.381-.391v-.016a22.757,22.757,0,0,0-.718-5.685c-.706-3.229-.124-6.544,4.054-6.87a.385.385,0,0,1,.411.355.479.479,0,0,1,0,.053c-.049.674.054,2.325,1.1,6.2C5322.571,2463.14,5320.073,2465.055,5316.9,2465.021Z" fill="#142266"/>
        <path id="Path_10875" data-name="Path 10875" d="M5316.752,2468.633a.386.386,0,0,0,.191-.511l-.007-.015a22.742,22.742,0,0,1-1.639-5.49c-.658-3.24-2.529-6.037-6.483-4.648a.383.383,0,0,0-.234.489.34.34,0,0,0,.023.051c.317.6.889,2.149,1.5,6.113C5310.806,2469.208,5313.86,2469.947,5316.752,2468.633Z" fill="#142266"/>
      </g>
      <g id="Group_3104" data-name="Group 3104">
        <path id="Path_10876" data-name="Path 10876" d="M5313.09,2451.392a.385.385,0,0,1-.454-.3l0-.016a22.787,22.787,0,0,0-1.884-5.411c-1.362-3.012-1.482-6.375,2.537-7.562a.383.383,0,0,1,.475.26.519.519,0,0,1,.012.054c.092.669.536,2.263,2.364,5.833C5318.254,2448.373,5316.2,2450.765,5313.09,2451.392Z" fill="#142266"/>
        <path id="Path_10877" data-name="Path 10877" d="M5313.7,2454.955a.386.386,0,0,0,.081-.54l-.01-.013a22.748,22.748,0,0,1-2.744-5.03c-1.318-3.032-3.729-5.379-7.307-3.2a.382.382,0,0,0-.125.528.237.237,0,0,0,.031.044c.434.517,1.317,1.917,2.734,5.668C5308,2456.751,5311.144,2456.841,5313.7,2454.955Z" fill="#142266"/>
      </g>
      <g id="Group_3105" data-name="Group 3105">
        <path id="Path_10878" data-name="Path 10878" d="M5306.534,2438.851a.386.386,0,0,1-.507-.2l-.006-.015a22.753,22.753,0,0,0-2.968-4.9c-1.958-2.663-2.775-5.928.91-7.925a.384.384,0,0,1,.52.157.364.364,0,0,1,.022.049c.229.635,1,2.1,3.524,5.214C5310.952,2434.825,5309.449,2437.59,5306.534,2438.851Z" fill="#142266"/>
        <path id="Path_10879" data-name="Path 10879" d="M5307.871,2442.21a.386.386,0,0,0-.034-.545l-.012-.01a22.7,22.7,0,0,1-3.73-4.35c-1.919-2.692-4.766-4.487-7.813-1.609a.384.384,0,0,0-.014.543.4.4,0,0,0,.04.036c.532.416,1.687,1.6,3.853,4.976C5302.667,2445.152,5305.763,2444.587,5307.871,2442.21Z" fill="#142266"/>
      </g>
      <g id="Group_3106" data-name="Group 3106">
        <path id="Path_10880" data-name="Path 10880" d="M5297.513,2427.947a.385.385,0,0,1-.538-.093l-.009-.013a22.766,22.766,0,0,0-3.922-4.177c-2.469-2.2-3.947-5.221-.758-7.94a.383.383,0,0,1,.541.045.455.455,0,0,1,.032.044c.356.574,1.411,1.849,4.531,4.367C5301,2423.091,5300.1,2426.107,5297.513,2427.947Z" fill="#142266"/>
        <path id="Path_10881" data-name="Path 10881" d="M5299.52,2430.959a.386.386,0,0,0-.147-.526l-.013-.007a22.756,22.756,0,0,1-4.553-3.479c-2.437-2.234-5.594-3.4-7.976.05a.383.383,0,0,0,.1.533.352.352,0,0,0,.048.028c.607.3,1.982,1.216,4.8,4.066C5295.042,2434.914,5297.952,2433.717,5299.52,2430.959Z" fill="#142266"/>
      </g>
      <g id="Group_3107" data-name="Group 3107">
        <path id="Path_10882" data-name="Path 10882" d="M5286.424,2419.158a.386.386,0,0,1-.546.022l-.011-.011a22.765,22.765,0,0,0-4.7-3.271c-2.872-1.637-4.946-4.287-2.392-7.609a.383.383,0,0,1,.537-.068.339.339,0,0,1,.041.036c.468.487,1.764,1.516,5.34,3.329C5288.823,2413.684,5288.574,2416.82,5286.424,2419.158Z" fill="#142266"/>
        <path id="Path_10883" data-name="Path 10883" d="M5289.012,2421.683a.386.386,0,0,0-.252-.484l-.016,0a22.735,22.735,0,0,1-5.177-2.456c-2.848-1.678-6.178-2.16-7.792,1.708a.384.384,0,0,0,.207.5.338.338,0,0,0,.053.017c.655.163,2.192.777,5.544,2.978C5285.454,2426.487,5288.053,2424.711,5289.012,2421.683Z" fill="#142266"/>
      </g>
      <g id="Group_3108" data-name="Group 3108">
        <path id="Path_10884" data-name="Path 10884" d="M5273.747,2412.866a.386.386,0,0,1-.529.135l-.014-.009a22.762,22.762,0,0,0-5.282-2.221c-3.15-1-5.729-3.165-3.922-6.946a.383.383,0,0,1,.513-.178.334.334,0,0,1,.046.026c.559.379,2.041,1.116,5.916,2.146C5274.956,2407.012,5275.365,2410.132,5273.747,2412.866Z" fill="#142266"/>
        <path id="Path_10885" data-name="Path 10885" d="M5276.8,2414.8a.387.387,0,0,0-.348-.421h-.015a22.743,22.743,0,0,1-5.574-1.326c-3.135-1.05-6.493-.829-7.266,3.29a.384.384,0,0,0,.308.447l.054.006c.675.024,2.306.3,6.042,1.76C5274.323,2420.237,5276.5,2417.96,5276.8,2414.8Z" fill="#142266"/>
      </g>
      <g id="Group_3109" data-name="Group 3109">
        <path id="Path_10886" data-name="Path 10886" d="M5245.9,2543.866a.386.386,0,0,0-.429-.338l-.015,0a22.751,22.751,0,0,1-5.729-.12c-3.286-.364-6.521.561-6.408,4.75a.384.384,0,0,0,.394.372.471.471,0,0,0,.055-.006c.665-.119,2.318-.189,6.277.446C5244.626,2549.706,5246.269,2547.022,5245.9,2543.866Z" fill="#142266"/>
        <path id="Path_10887" data-name="Path 10887" d="M5249.48,2543.346a.386.386,0,0,1-.49.242l-.01,0a22.745,22.745,0,0,0-5.632-1.056c-3.291-.316-6.269-1.884-5.3-5.961a.385.385,0,0,1,.464-.282.358.358,0,0,1,.051.016c.626.253,2.23.659,6.236.849C5249.429,2537.366,5250.484,2540.332,5249.48,2543.346Z" fill="#142266"/>
      </g>
      <g id="Group_3110" data-name="Group 3110">
        <path id="Path_10888" data-name="Path 10888" d="M5231.95,2541.506a.387.387,0,0,0-.349-.42h-.016a22.759,22.759,0,0,1-5.579-1.308c-3.138-1.039-6.5-.807-7.256,3.314a.383.383,0,0,0,.309.446l.054.006c.675.021,2.306.3,6.047,1.741C5229.487,2546.948,5231.652,2544.668,5231.95,2541.506Z" fill="#142266"/>
        <path id="Path_10889" data-name="Path 10889" d="M5235.558,2541.74a.385.385,0,0,1-.529.136l-.013-.008a22.793,22.793,0,0,0-5.289-2.2c-3.153-.993-5.74-3.146-3.945-6.933a.384.384,0,0,1,.512-.181.4.4,0,0,1,.047.027c.56.378,2.044,1.109,5.923,2.127C5236.747,2535.882,5237.166,2539,5235.558,2541.74Z" fill="#142266"/>
      </g>
      <g id="Group_3111" data-name="Group 3111">
        <path id="Path_10890" data-name="Path 10890" d="M5218.793,2536.3a.386.386,0,0,0-.254-.483l-.015,0a22.753,22.753,0,0,1-5.185-2.439c-2.854-1.669-6.186-2.14-7.786,1.733a.384.384,0,0,0,.211.5.4.4,0,0,0,.05.016c.656.161,2.194.77,5.553,2.96C5215.25,2541.111,5217.844,2539.327,5218.793,2536.3Z" fill="#142266"/>
        <path id="Path_10891" data-name="Path 10891" d="M5222.273,2537.276a.385.385,0,0,1-.545.023l-.012-.011a22.707,22.707,0,0,0-4.716-3.255c-2.877-1.627-4.96-4.271-2.417-7.6a.382.382,0,0,1,.537-.07c.014.011.028.023.041.036.469.486,1.769,1.51,5.351,3.312C5224.658,2531.793,5224.416,2534.931,5222.273,2537.276Z" fill="#142266"/>
      </g>
      <g id="Group_3112" data-name="Group 3112">
        <path id="Path_10892" data-name="Path 10892" d="M5207.008,2528.464a.386.386,0,0,0-.148-.525l-.014-.008a22.759,22.759,0,0,1-4.564-3.464c-2.444-2.226-5.605-3.379-7.976.076a.383.383,0,0,0,.1.532.3.3,0,0,0,.048.028c.608.294,1.986,1.21,4.817,4.05C5202.542,2532.438,5205.452,2531.232,5207.008,2528.464Z" fill="#142266"/>
        <path id="Path_10893" data-name="Path 10893" d="M5210.208,2530.146a.386.386,0,0,1-.539-.088l-.008-.012a22.793,22.793,0,0,0-3.936-4.164c-2.476-2.19-3.964-5.209-.784-7.938a.384.384,0,0,1,.54.042.362.362,0,0,1,.033.045c.358.573,1.417,1.844,4.546,4.352C5213.677,2525.278,5212.791,2528.3,5210.208,2530.146Z" fill="#142266"/>
      </g>
      <g id="Group_3113" data-name="Group 3113">
        <path id="Path_10894" data-name="Path 10894" d="M5197.1,2518.354a.385.385,0,0,0-.036-.545l-.012-.01a22.71,22.71,0,0,1-3.744-4.337c-1.928-2.685-4.781-4.471-7.818-1.584a.385.385,0,0,0-.012.543.425.425,0,0,0,.04.036c.534.414,1.692,1.6,3.869,4.963C5191.912,2521.311,5195,2520.737,5197.1,2518.354Z" fill="#142266"/>
        <path id="Path_10895" data-name="Path 10895" d="M5199.888,2520.664a.387.387,0,0,1-.508-.2l-.006-.015a22.78,22.78,0,0,0-2.984-4.891c-1.967-2.657-2.794-5.919.884-7.928a.385.385,0,0,1,.521.154.327.327,0,0,1,.021.046c.231.635,1,2.1,3.541,5.2C5204.294,2516.624,5202.8,2519.394,5199.888,2520.664Z" fill="#142266"/>
      </g>
      <g id="Group_3114" data-name="Group 3114">
        <path id="Path_10896" data-name="Path 10896" d="M5189.524,2506.41a.386.386,0,0,0,.079-.54l-.01-.013a22.783,22.783,0,0,1-2.761-5.021c-1.328-3.028-3.746-5.367-7.318-3.175a.384.384,0,0,0-.126.527.359.359,0,0,0,.033.045c.436.516,1.323,1.913,2.753,5.659C5183.824,2508.22,5186.975,2508.3,5189.524,2506.41Z" fill="#142266"/>
        <path id="Path_10897" data-name="Path 10897" d="M5191.764,2509.244a.385.385,0,0,1-.455-.3l0-.016a22.717,22.717,0,0,0-1.9-5.405c-1.371-3.008-1.5-6.37,2.513-7.57a.383.383,0,0,1,.476.258c0,.018.009.036.012.054.094.669.544,2.261,2.383,5.825C5196.914,2506.209,5194.88,2508.607,5191.764,2509.244Z" fill="#142266"/>
      </g>
      <g id="Group_3115" data-name="Group 3115">
        <path id="Path_10898" data-name="Path 10898" d="M5184.593,2493.142a.386.386,0,0,0,.19-.51l-.008-.016a22.781,22.781,0,0,1-1.656-5.486c-.669-3.237-2.548-6.029-6.5-4.626a.382.382,0,0,0-.232.489.257.257,0,0,0,.022.051c.319.6.9,2.146,1.516,6.108C5178.644,2493.733,5181.707,2494.465,5184.593,2493.142Z" fill="#142266"/>
        <path id="Path_10899" data-name="Path 10899" d="M5186.195,2496.384a.386.386,0,0,1-.383-.39v-.016a22.746,22.746,0,0,0-.736-5.682c-.716-3.227-.146-6.544,4.031-6.883a.383.383,0,0,1,.412.352.52.52,0,0,1,0,.055c-.047.674.062,2.325,1.12,6.193C5191.862,2494.485,5189.37,2496.408,5186.195,2496.384Z" fill="#142266"/>
      </g>
      <g id="Group_3116" data-name="Group 3116">
        <path id="Path_10900" data-name="Path 10900" d="M5182.525,2479.143a.386.386,0,0,0,.292-.461l0-.016a22.719,22.719,0,0,1-.48-5.71c.019-3.306-1.239-6.427-5.394-5.877a.383.383,0,0,0-.329.431.536.536,0,0,0,.012.054c.188.649.43,2.286.213,6.29C5176.584,2478.483,5179.425,2479.836,5182.525,2479.143Z" fill="#142266"/>
        <path id="Path_10901" data-name="Path 10901" d="M5183.418,2482.646a.387.387,0,0,1-.293-.461l0-.015a22.7,22.7,0,0,0,.461-5.711c-.029-3.306,1.219-6.431,5.375-5.894a.384.384,0,0,1,.33.432.5.5,0,0,1-.011.052c-.186.649-.423,2.287-.193,6.29C5189.357,2481.968,5186.52,2483.33,5183.418,2482.646Z" fill="#142266"/>
      </g>
      <g id="Group_3117" data-name="Group 3117">
        <path id="Path_10902" data-name="Path 10902" d="M5183.412,2465.021a.385.385,0,0,0,.38-.391v-.016a22.78,22.78,0,0,1,.718-5.685c.706-3.229.124-6.544-4.054-6.87a.383.383,0,0,0-.411.353.515.515,0,0,0,0,.055c.049.674-.055,2.325-1.1,6.2C5177.741,2463.14,5180.239,2465.055,5183.412,2465.021Z" fill="#142266"/>
        <path id="Path_10903" data-name="Path 10903" d="M5183.56,2468.633a.385.385,0,0,1-.191-.511l.007-.015a22.786,22.786,0,0,0,1.639-5.49c.659-3.24,2.529-6.037,6.483-4.648a.385.385,0,0,1,.234.489.479.479,0,0,1-.023.051c-.317.6-.889,2.149-1.5,6.113C5189.51,2469.208,5186.452,2469.947,5183.56,2468.633Z" fill="#142266"/>
      </g>
      <g id="Group_3118" data-name="Group 3118">
        <path id="Path_10904" data-name="Path 10904" d="M5187.22,2451.392a.386.386,0,0,0,.454-.3l0-.016a22.723,22.723,0,0,1,1.884-5.411c1.362-3.012,1.482-6.375-2.537-7.562a.383.383,0,0,0-.475.26.263.263,0,0,0-.012.054c-.092.669-.536,2.263-2.364,5.833C5182.061,2448.373,5184.106,2450.765,5187.22,2451.392Z" fill="#142266"/>
        <path id="Path_10905" data-name="Path 10905" d="M5186.61,2454.955a.386.386,0,0,1-.081-.54l.01-.013a22.748,22.748,0,0,0,2.744-5.03c1.318-3.032,3.729-5.379,7.307-3.2a.382.382,0,0,1,.126.527.276.276,0,0,1-.032.045c-.434.517-1.316,1.917-2.734,5.668C5192.312,2456.751,5189.166,2456.841,5186.61,2454.955Z" fill="#142266"/>
      </g>
      <g id="Group_3119" data-name="Group 3119">
        <path id="Path_10906" data-name="Path 10906" d="M5193.777,2438.851a.386.386,0,0,0,.507-.2l.006-.015a22.753,22.753,0,0,1,2.968-4.9c1.958-2.663,2.775-5.928-.91-7.925a.383.383,0,0,0-.519.156.281.281,0,0,0-.022.05c-.229.635-1,2.1-3.525,5.214C5189.358,2434.825,5190.861,2437.59,5193.777,2438.851Z" fill="#142266"/>
        <path id="Path_10907" data-name="Path 10907" d="M5192.439,2442.21a.386.386,0,0,1,.034-.545l.012-.01a22.7,22.7,0,0,0,3.73-4.35c1.919-2.692,4.766-4.487,7.813-1.609a.384.384,0,0,1,.012.543.34.34,0,0,1-.039.036c-.532.416-1.686,1.6-3.853,4.976C5197.643,2445.152,5194.547,2444.587,5192.439,2442.21Z" fill="#142266"/>
      </g>
      <g id="Group_3120" data-name="Group 3120">
        <path id="Path_10908" data-name="Path 10908" d="M5202.8,2427.947a.385.385,0,0,0,.538-.093l.009-.013a22.766,22.766,0,0,1,3.922-4.177c2.469-2.2,3.947-5.221.758-7.94a.383.383,0,0,0-.541.045.455.455,0,0,0-.032.044c-.356.574-1.411,1.849-4.532,4.367C5199.313,2423.091,5200.208,2426.107,5202.8,2427.947Z" fill="#142266"/>
        <path id="Path_10909" data-name="Path 10909" d="M5200.791,2430.959a.386.386,0,0,1,.147-.526l.013-.007a22.756,22.756,0,0,0,4.553-3.479c2.437-2.234,5.594-3.4,7.976.05a.384.384,0,0,1-.1.534.391.391,0,0,1-.046.027c-.607.3-1.983,1.216-4.8,4.066C5205.27,2434.914,5202.359,2433.717,5200.791,2430.959Z" fill="#142266"/>
      </g>
      <g id="Group_3121" data-name="Group 3121">
        <path id="Path_10910" data-name="Path 10910" d="M5213.888,2419.158a.385.385,0,0,0,.545.022l.012-.011a22.739,22.739,0,0,1,4.7-3.271c2.872-1.637,4.946-4.287,2.392-7.609a.385.385,0,0,0-.539-.067.453.453,0,0,0-.039.035c-.468.487-1.764,1.516-5.34,3.329C5211.489,2413.684,5211.737,2416.82,5213.888,2419.158Z" fill="#142266"/>
        <path id="Path_10911" data-name="Path 10911" d="M5211.3,2421.683a.387.387,0,0,1,.252-.484l.016,0a22.735,22.735,0,0,0,5.177-2.456c2.848-1.678,6.179-2.16,7.792,1.708a.384.384,0,0,1-.207.5.338.338,0,0,1-.053.017c-.655.163-2.192.777-5.544,2.978C5214.857,2426.487,5212.259,2424.711,5211.3,2421.683Z" fill="#142266"/>
      </g>
      <g id="Group_3122" data-name="Group 3122">
        <path id="Path_10912" data-name="Path 10912" d="M5226.564,2412.866a.386.386,0,0,0,.529.135l.014-.009a22.762,22.762,0,0,1,5.282-2.221c3.15-1,5.729-3.165,3.922-6.946a.383.383,0,0,0-.513-.178.334.334,0,0,0-.046.026c-.559.379-2.041,1.116-5.916,2.146C5225.355,2407.012,5224.946,2410.132,5226.564,2412.866Z" fill="#142266"/>
        <path id="Path_10913" data-name="Path 10913" d="M5223.507,2414.8a.386.386,0,0,1,.348-.421h.016a22.75,22.75,0,0,0,5.574-1.326c3.135-1.05,6.493-.829,7.266,3.29a.383.383,0,0,1-.306.447.524.524,0,0,1-.056.006c-.675.024-2.305.3-6.042,1.76C5225.988,2420.237,5223.815,2417.96,5223.507,2414.8Z" fill="#142266"/>
      </g>
    </g>
    <g id="Group_3389" data-name="Group 3389" transform="translate(-5701.464 -2702.821)">
      <g id="Group_3124" data-name="Group 3124">
        <path id="Path_10914" data-name="Path 10914" d="M5250.009,2564.126l-76.121-77.573-2.5,10.058,78.621,80.121,78.621-80.121-2.5-10.058Z" fill="#e65416"/>
        <path id="Path_10915" data-name="Path 10915" d="M5326.13,2486.552l-2.833-11.4c-31.187-3.9-51.662-17.144-63.632-28.04a99.217,99.217,0,0,1-9.656-10.114,99.159,99.159,0,0,1-9.656,10.114c-11.97,10.9-32.444,24.144-63.632,28.04l-2.833,11.4,76.121,77.573Z" fill="#b5311b"/>
      </g>
      <path id="Path_10916" data-name="Path 10916" d="M5332.452,2464.783c-62.61-4-82.444-46.74-82.444-46.74s-19.835,42.735-82.444,46.74l-8.056,31.144,90.5,88.632,90.5-88.632Zm-161.066,31.828,5.334-21.457c31.188-3.9,51.662-17.144,63.632-28.04a99.293,99.293,0,0,0,9.656-10.114,99.192,99.192,0,0,0,9.656,10.114c11.97,10.9,32.444,24.144,63.632,28.04l5.334,21.457-78.621,80.121Z" fill="#142266"/>
    </g>
    <g id="Path_10973-2" data-name="Path 10973" transform="translate(-5701.464 -2702.821)">
      <path id="Path_1" data-name="Path 1" d="M5230.621,2510.975v7.291c0,9.162,8.642,18.039,18.135,18.039h.694c9.494,0,16.527-8.908,16.527-18.039v-7.291Zm55.321-69.776-11.227-12.3a.858.858,0,0,0-.6-.254,1.326,1.326,0,0,0-.347.064l-7.758,3.709-4.259-3.836a.9.9,0,0,0-.54-.222.636.636,0,0,0-.41.127l-6.623,3.994-5.551-4.121a.943.943,0,0,0-.474-.158.845.845,0,0,0-.473.158l-5.488,4.09-6.528-3.963a1.021,1.021,0,0,0-.41-.127.739.739,0,0,0-.54.222l-4.195,3.773-7.632-3.646a.67.67,0,0,0-.347-.064.861.861,0,0,0-.6.254l-11.224,12.3a.784.784,0,0,0-.158.856l11.892,28.025a.993.993,0,0,0,.284.349l5.867,4.184,4.636,24.126a.813.813,0,0,0-.663.792v7.351c0,.444.347,2.346.821,2.346H5263.2c.441,0,.915-1.9.915-2.346v-7.351a.85.85,0,0,0-.6-.757l4.6-24.156,5.867-4.185a.777.777,0,0,0,.284-.349l11.891-28.025A1.214,1.214,0,0,0,5285.942,2441.2Zm-53.619,36.647,1.577-2.379,3.974,3.329,1.166,11.891h-4.163Zm6.434,26.377-1.388-8.432h2.681l.694,8.432Zm8.7,0h-2.582l-.757-8.432h3.375v8.432Zm0-13.537h-4l-1.041-12.142,2.208-3.043,2.838,3.3Zm4.29,13.537h-2.618v-8.432h3.375Zm1.388-13.537h-4.005v-11.857l2.839-3.328,2.207,3.107Zm5.772,13.537h-3.06l.973-8.432h4.069Zm2.87-13.537h-4.227l1.136-11.793,4-3.423,1.609,2.472Z" fill="none" stroke="#142266" stroke-linecap="square" stroke-linejoin="bevel" stroke-width="15"/>
      <path id="Path_2" data-name="Path 2" d="M5230.621,2510.975v7.291c0,9.162,8.642,18.039,18.135,18.039h.694c9.494,0,16.527-8.908,16.527-18.039v-7.291Zm55.321-69.776-11.227-12.3a.858.858,0,0,0-.6-.254,1.326,1.326,0,0,0-.347.064l-7.758,3.709-4.259-3.836a.9.9,0,0,0-.54-.222.636.636,0,0,0-.41.127l-6.623,3.994-5.551-4.121a.943.943,0,0,0-.474-.158.845.845,0,0,0-.473.158l-5.488,4.09-6.528-3.963a1.021,1.021,0,0,0-.41-.127.739.739,0,0,0-.54.222l-4.195,3.773-7.632-3.646a.67.67,0,0,0-.347-.064.861.861,0,0,0-.6.254l-11.224,12.3a.784.784,0,0,0-.158.856l11.892,28.025a.993.993,0,0,0,.284.349l5.867,4.184,4.636,24.126a.813.813,0,0,0-.663.792v7.351c0,.444.347,2.346.821,2.346H5263.2c.441,0,.915-1.9.915-2.346v-7.351a.85.85,0,0,0-.6-.757l4.6-24.156,5.867-4.185a.777.777,0,0,0,.284-.349l11.891-28.025A1.214,1.214,0,0,0,5285.942,2441.2Zm-53.619,36.647,1.577-2.379,3.974,3.329,1.166,11.891h-4.163Zm6.434,26.377-1.388-8.432h2.681l.694,8.432Zm8.7,0h-2.582l-.757-8.432h3.375v8.432Zm0-13.537h-4l-1.041-12.142,2.208-3.043,2.838,3.3Zm4.29,13.537h-2.618v-8.432h3.375Zm1.388-13.537h-4.005v-11.857l2.839-3.328,2.207,3.107Zm5.772,13.537h-3.06l.973-8.432h4.069Zm2.87-13.537h-4.227l1.136-11.793,4-3.423,1.609,2.472Z" fill="#df3b0e"/>
    </g>
    <g id="Group_2" data-name="Group 2" transform="translate(-5701.464 -2702.821)">
      <g id="Group_1" data-name="Group 1" clip-path="url(#clip-path)">
        <path id="Path_3" data-name="Path 3" d="M5242.283,2509.228s-.817-51.655,37-84.408l-103.01-5.6-4.789,49.5s56.162,42.562,60.467,40.4" fill="#b5311b"/>
        <path id="Path_4" data-name="Path 4" d="M5216.688,2426.449l-12.541,26.753s16.564,31.128,18.545,37.844c0,0-8.4-42.688,25.462-62.844" fill="#aa2817"/>
        <path id="Path_5" data-name="Path 5" d="M5264.889,2511.784h-32.938s-2,13.356,5.949,19.858C5237.9,2531.642,5231.236,2515.927,5264.889,2511.784Z" fill="#b5311b"/>
      </g>
    </g>
    <g id="Group_3391" data-name="Group 3391" transform="translate(-5701.464 -2702.821)">
      <ellipse id="Ellipse_224" data-name="Ellipse 224" cx="17.219" cy="9.559" rx="17.219" ry="9.559" transform="translate(5302.969 2550.554)" fill="#142266"/>
      <ellipse id="Ellipse_225" data-name="Ellipse 225" cx="17.219" cy="9.559" rx="17.219" ry="9.559" transform="translate(5162.554 2550.554)" fill="#142266"/>
      <ellipse id="Ellipse_226" data-name="Ellipse 226" cx="10.228" cy="5.678" rx="10.228" ry="5.678" transform="translate(5172.891 2555.341)" fill="#dc2648"/>
      <ellipse id="Ellipse_227" data-name="Ellipse 227" cx="10.228" cy="5.678" rx="10.228" ry="5.678" transform="translate(5306.615 2555.341)" fill="#dc2648"/>
      <path id="Path_10918" data-name="Path 10918" d="M5249.863,2527.935c-27.589,0-55.178,5.5-82.768,6.093a4.807,4.807,0,0,0-4.7,4.811v19.99a5.887,5.887,0,0,0,5.881,5.893c.052,0,.1,0,.155,0,27.142-.735,54.285-6.06,81.427-6.06s54.285,5.326,81.427,6.06a5.886,5.886,0,0,0,6.034-5.736c0-.051,0-.1,0-.155v-19.99a4.806,4.806,0,0,0-4.695-4.811C5305.041,2533.437,5277.452,2527.935,5249.863,2527.935Z" fill="#142266"/>
      <g id="Group_5" data-name="Group 5">
        <g id="Group_4" data-name="Group 4">
          <g id="Group_3" data-name="Group 3">
            <path id="Path_6" data-name="Path 6" d="M5204.922,2556.044q-3.921.368-7.838.8-.981-8.888-1.962-17.773,4.062-.449,8.129-.83,1.58,1.257,3.145,2.524.219,2.508.441,5.016-.517.6-1.028,1.2l1.224,1.024q.22,2.5.439,4.992Q5206.188,2554.519,5204.922,2556.044Zm-1.843-13.409q-.555-.435-1.113-.869-1.5.145-2.993.3.2,1.92.4,3.84,1.5-.155,2.993-.3.449-.531.9-1.062Q5203.17,2543.589,5203.079,2542.635Zm.867,9.125q-.089-.943-.179-1.888-.538-.449-1.078-.894-1.485.144-2.972.3.2,1.92.4,3.84,1.463-.152,2.926-.293Q5203.491,2552.291,5203.946,2551.76Z" fill="#fff"/>
            <path id="Path_7" data-name="Path 7" d="M5217.17,2555.052c-.1-.407-.208-.815-.311-1.223q-1.652.114-3.3.238c-.052.419-.1.838-.155,1.257q-1.713.13-3.428.273,1.029-9.057,2.191-18.111,1.86-.141,3.722-.268,2.447,8.795,4.761,17.61Q5218.909,2554.934,5217.17,2555.052Zm-1.225-4.531q-.661-2.409-1.332-4.818-.318,2.48-.628,4.959Q5214.965,2550.59,5215.945,2550.521Z" fill="#fff"/>
            <path id="Path_8" data-name="Path 8" d="M5230.766,2554.32q-3.932.156-7.862.376l-1-17.852q4.077-.23,8.154-.391,1.509,1.34,3,2.69.207,6.138.416,12.275Q5232.112,2552.866,5230.766,2554.32Zm-.766-4.33-.375-9.159-1.041-.928q-1.5.064-3,.138.273,5.548.543,11.094,1.467-.072,2.936-.135C5229.375,2550.663,5229.686,2550.326,5230,2549.99Z" fill="#fff"/>
            <path id="Path_9" data-name="Path 9" d="M5246.432,2553.953q-1.7.011-3.391.036-.053-3.657-.1-7.315-.936,2.824-1.849,5.653-1-2.793-2.029-5.583.079,3.657.161,7.314-1.7.037-3.391.087-.261-8.937-.521-17.873,1.756-.051,3.517-.09,1.045,2.787,2.071,5.58.936-2.829,1.891-5.652,1.759-.026,3.518-.038Q5246.37,2545.013,5246.432,2553.953Z" fill="#fff"/>
            <path id="Path_10" data-name="Path 10" d="M5248.649,2536.061q1.759,0,3.518,0-.042,8.94-.083,17.881-1.695-.008-3.392,0Q5248.671,2545,5248.649,2536.061Z" fill="#fff"/>
            <path id="Path_11" data-name="Path 11" d="M5264.949,2554.177q-1.663-.051-3.324-.093-1.838-4.437-3.744-8.86-.072,4.39-.144,8.781-1.695-.027-3.391-.044.082-8.94.166-17.88,1.735.016,3.471.045,1.934,4.411,3.8,8.838.105-4.379.213-8.757,1.758.044,3.517.1Q5265.23,2545.242,5264.949,2554.177Z" fill="#fff"/>
            <path id="Path_12" data-name="Path 12" d="M5277.716,2540.23q-1.616-.092-3.235-.171-.36,7.237-.72,14.476-1.7-.084-3.388-.157.308-7.24.618-14.481-1.631-.069-3.259-.128.06-1.692.122-3.385,5.028.181,10.053.465Q5277.813,2538.54,5277.716,2540.23Z" fill="#fff"/>
            <path id="Path_13" data-name="Path 13" d="M5286.99,2555.376q-2.516-.193-5.032-.363-1.308-1.489-2.629-2.974.374-6.129.749-12.259,1.529-1.31,3.074-2.608,2.612.175,5.219.377,1.353,1.507,2.692,3.024-.51,6.12-1.02,12.24Q5288.509,2554.09,5286.99,2555.376Zm-.232-4.388q.35-4.581.7-9.162l-.928-1.021-2-.144-1.089.9q-.312,4.572-.622,9.145c.312.345.624.692.933,1.037q.979.071,1.955.141Z" fill="#fff"/>
            <path id="Path_14" data-name="Path 14" d="M5302.631,2556.845q-1.655-.183-3.31-.354-1.486-4.567-3.042-9.127-.417,4.371-.833,8.742-1.69-.16-3.381-.31l1.569-17.812q1.731.153,3.46.317,1.583,4.551,3.1,9.11.45-4.357.9-8.713,1.75.18,3.5.374Q5303.612,2547.958,5302.631,2556.845Z" fill="#fff"/>
          </g>
        </g>
        <circle id="Ellipse_1" data-name="Ellipse 1" cx="2.055" cy="2.055" r="2.055" transform="matrix(0.858, -0.514, 0.514, 0.858, 5247.667, 2532.026)" fill="#fff"/>
      </g>
    </g>
    <path id="Path_67" data-name="Path 67" d="M5274.283,2431.759s9,6,10,11a81.2,81.2,0,0,0-5,10S5284.283,2440.759,5274.283,2431.759Z" transform="translate(-5701.464 -2702.821)" fill="#fff"/>
    <path id="Path_68" data-name="Path 68" d="M5214.294,2438.449a14.316,14.316,0,0,1-2.978,3.323l1.712,4.329A17.037,17.037,0,0,1,5214.294,2438.449Z" transform="translate(-5701.464 -2702.821)" fill="#fff"/>
    <path id="Path_69" data-name="Path 69" d="M5222.692,2430.6l7.419,3.624s-9.514.97-9.679,24.311A107.654,107.654,0,0,1,5222.692,2430.6Z" transform="translate(-5701.464 -2702.821)" fill="#912012"/>
    <path id="Path_70" data-name="Path 70" d="M5235.1,2430.6l5.842,2.853s-7.492.764-7.623,19.145A84.808,84.808,0,0,1,5235.1,2430.6Z" transform="translate(-5701.464 -2702.821)" fill="#912012"/>
    <path id="Path_71" data-name="Path 71" d="M5248.759,2430.275l4.122,2.683s-5.7-.12-7.494,13.666A64.134,64.134,0,0,1,5248.759,2430.275Z" transform="translate(-5701.464 -2702.821)" fill="#912012"/>
    <path id="Path_72" data-name="Path 72" d="M5261.957,2430.267l3.976,2.894s-5.682-.417-8.2,13.256A64.119,64.119,0,0,1,5261.957,2430.267Z" transform="translate(-5701.464 -2702.821)" fill="#912012"/>
    <path id="Path_73" data-name="Path 73" d="M5251.958,2476.8s1.654,1.393,1.877,2.186a5.7,5.7,0,0,0-.425,2.72A14.159,14.159,0,0,0,5251.958,2476.8Z" transform="translate(-5701.464 -2702.821)" fill="#05144c"/>
    <path id="Path_74" data-name="Path 74" d="M5262.682,2476.49a5.878,5.878,0,0,1,1.212,1.828,4.342,4.342,0,0,0-.578,2.016A10.78,10.78,0,0,0,5262.682,2476.49Z" transform="translate(-5701.464 -2702.821)" fill="#05144c"/>
    <path id="Path_75" data-name="Path 75" d="M5244.871,2477.1s1.654,1.393,1.877,2.186a5.7,5.7,0,0,0-.425,2.72A14.133,14.133,0,0,0,5244.871,2477.1Z" transform="translate(-5701.464 -2702.821)" fill="#05144c"/>
    <path id="Path_76" data-name="Path 76" d="M5235.151,2477.33a7.747,7.747,0,0,1,2.323,1.7,5.7,5.7,0,0,0,.2,2.746A14.134,14.134,0,0,0,5235.151,2477.33Z" transform="translate(-5701.464 -2702.821)" fill="#05144c"/>
    <path id="Path_77" data-name="Path 77" d="M5265.284,2512.266s.779,10.283-2.3,14.017C5262.981,2526.283,5263.981,2524.651,5265.284,2512.266Z" transform="translate(-5701.464 -2702.821)" fill="#fff"/>
    <path id="Path_78" data-name="Path 78" d="M5261.633,2512.163s-12.5.454-21.179,8.277A29.4,29.4,0,0,1,5261.633,2512.163Z" transform="translate(-5701.464 -2702.821)" fill="#a32211"/>
  </g>
</svg>
