<svg xmlns="http://www.w3.org/2000/svg" width="30" height="29.997" viewBox="0 0 30 29.997"><g transform="translate(-1538.994 -71.4)"><path d="M1553.43,71.4a15.468,15.468,0,0,0-11.432,6c4.53-2.888,10.269-3.562,12-3.712a14.564,14.564,0,0,0-.568-2.288Zm10.2,20.5c.722-2.269,2.729-9.872-.094-17.137a15.159,15.159,0,0,0-3.151-1.866A26.589,26.589,0,0,1,1560,89.944a34.4,34.4,0,0,0,3.64,1.956Zm-10.137-10a18.773,18.773,0,0,0-14.264,6.188.86.86,0,0,1-.234.178,15.4,15.4,0,0,0,1.454,5.128c3.723-4.031,10.25-6.572,12.426-7.35.125-.61.415-2.166.625-4.144Zm5.12,6.5c.779-2.222,2.8-9.319-.262-16.491a16.044,16.044,0,0,0-3.245-.506c1.622,5.344.3,12.422-.113,14.372.567.447,1.887,1.487,3.627,2.625Zm-4.7-8.616a31.044,31.044,0,0,0,.009-4.387c-1.885.169-10.147,1.191-14.048,6.188a.977.977,0,0,1-.235.206A14.872,14.872,0,0,0,1539,85.4a20.986,20.986,0,0,1,14.92-5.619ZM1542.98,93.4a14.726,14.726,0,0,0-1.407,1.341.252.252,0,0,1-.075.066,15.265,15.265,0,0,0,15,6.394,25.385,25.385,0,0,1-13.518-7.8Zm6.518-4.275a28.466,28.466,0,0,0,14.939,7.772,14.716,14.716,0,0,0,2.073-2.494c-5.458-1.163-11.132-5.672-12.717-7a41.982,41.982,0,0,0-4.3,1.725ZM1565.88,77.4a31.384,31.384,0,0,1-.88,15.272,14.517,14.517,0,0,0,2.307.666.636.636,0,0,1,.188.066,15.535,15.535,0,0,0-1.622-16Zm-17.921,12.5a30.135,30.135,0,0,0-3.46,2.1,24.214,24.214,0,0,0,16.064,7.9,14.5,14.5,0,0,0,2.448-1.425A30.485,30.485,0,0,1,1547.96,89.9Z" fill="#0b0539"/></g></svg>