<svg xmlns="http://www.w3.org/2000/svg" width="61.512" height="80" viewBox="0 0 61.512 80"><g transform="translate(-401 -32)"><path d="M55.643,80H5.87A5.876,5.876,0,0,1,0,74.13V52.5a14.718,14.718,0,0,1,2.593-8.357A12.042,12.042,0,0,1,9.6,39.213c2.106-.524,8.588-1.443,8.762-1.443a1.4,1.4,0,0,1,1.313.921l9.475,26a1.71,1.71,0,0,0,3.214,0l9.474-26a1.4,1.4,0,0,1,1.725-.859c.063.009,6.324.887,8.35,1.382l.026.009a13.889,13.889,0,0,1,9.57,13.2v21.7A5.876,5.876,0,0,1,55.643,80ZM50.024,48.207a6.588,6.588,0,0,0-.012,13.175h.012a6.588,6.588,0,1,0,0-13.175Zm1.018,12.752a.254.254,0,0,1-.2-.094.751.751,0,0,1,.005-.679.26.26,0,0,1,.392,0,.547.547,0,0,1,.084.345.533.533,0,0,1-.084.344A.23.23,0,0,1,51.042,60.959Zm0-.731a.067.067,0,0,0-.052.021.137.137,0,0,0-.037.068.932.932,0,0,0-.015.209.846.846,0,0,0,.015.2.134.134,0,0,0,.037.073.087.087,0,0,0,.052.021.069.069,0,0,0,.052-.021.142.142,0,0,0,.036-.068.933.933,0,0,0,.016-.209.839.839,0,0,0-.016-.2.133.133,0,0,0-.036-.074l0,0A.09.09,0,0,0,51.037,60.228Zm-.7.725a.229.229,0,0,1-.161-.052.244.244,0,0,1-.078-.157l.151-.015a.117.117,0,0,0,.031.073.083.083,0,0,0,.062.021.109.109,0,0,0,.089-.047.363.363,0,0,0,.047-.193.2.2,0,0,1-.157.073.223.223,0,0,1-.172-.078.311.311,0,0,1,0-.408.274.274,0,0,1,.2-.078.262.262,0,0,1,.214.1.485.485,0,0,1,.083.323.513.513,0,0,1-.088.334A.279.279,0,0,1,50.337,60.953Zm-.662,0a.23.23,0,0,1-.162-.052.252.252,0,0,1-.078-.157l.151-.015a.122.122,0,0,0,.031.073.084.084,0,0,0,.063.021.108.108,0,0,0,.088-.047.357.357,0,0,0,.047-.193.2.2,0,0,1-.157.073.232.232,0,0,1-.172-.078.285.285,0,0,1-.073-.2.28.28,0,0,1,.078-.209.27.27,0,0,1,.2-.078.262.262,0,0,1,.214.1.473.473,0,0,1,.084.323.512.512,0,0,1-.089.334A.278.278,0,0,1,49.675,60.953Zm-.491-.01h-.167v-.606a.618.618,0,0,1-.214.12v-.146a.61.61,0,0,0,.141-.078.316.316,0,0,0,.1-.136h.136v.845Zm.84-1.049a5.1,5.1,0,1,1,5.1-5.1A5.106,5.106,0,0,1,50.024,59.894Zm-2.687-3.883a2.328,2.328,0,0,0,.37,1.579l.032.049a2.649,2.649,0,0,0,2.179,1.244h.019V57.838a1.745,1.745,0,0,1-1.525-1.827H48.2v.2l-.177.005v-.2l-.256,0-.005.2-.162,0v-.213ZM51.71,56v.01a1.641,1.641,0,0,1-1.482,1.807v1.059a2.694,2.694,0,0,0,2.562-2.427,3.206,3.206,0,0,0-.01-.444h-.235l.005.209h-.194V56l-.224.005-.005.209-.167.005V56h-.25Zm-3.027-.193h0a1.728,1.728,0,0,0,.374,1.306,1.457,1.457,0,0,0,.926.452,1.422,1.422,0,0,0,1.1-.444,1.915,1.915,0,0,0,.368-1.32l.005-.011h1.618a.824.824,0,0,0-.8-.566l-.026,0-.067,0a.986.986,0,0,0-.736.394l-.005-.689,1.378-.015a.685.685,0,0,0-.7-.491H52.1a.857.857,0,0,0-.657.418v-.658l.2-.24v-.2h-.2s0-.046,0-.106c0-.13-.008-.348-.008-.474l-.041-.407-.13-.924h-.037l-.135.924c-.016.087-.042.311-.042.313v.679h-.375l0-.757.209-.287v-.151l-.209-.005v.006l-.015-.684a.956.956,0,0,0-.021-.162l-.151-.992h-.042l-.151.977-.021.2-.011.658-.386-.005v0c0-.016,0-.308,0-.5,0-.087,0-.156,0-.172a1.672,1.672,0,0,0-.021-.178l-.167-.987h-.047l-.151,1.065v.606a1.05,1.05,0,0,1,0,.172h-.2l-.005.157.2.287v.757h-.391s0-.036,0-.081c0-.13-.006-.4,0-.5a3.608,3.608,0,0,0-.042-.444l-.14-.893h-.052s-.026.185-.053.377c-.032.225-.068.479-.073.516-.009.056-.031.295-.036.342l-.011.676h-.193v.2l.193.24v.652l-.026,0a.708.708,0,0,0-.652-.407.731.731,0,0,0-.679.459l1.357.016.005.736h-.026a.911.911,0,0,0-.782-.444h-.016a.881.881,0,0,0-.867.621l1.7-.021Zm6.279,2.5h0l-.3-.188a.739.739,0,0,1-.136-.1.22.22,0,0,1-.052-.078.177.177,0,0,1-.005-.095.382.382,0,0,1,.052-.119.353.353,0,0,1,.094-.111.206.206,0,0,1,.089-.036.269.269,0,0,1,.037,0,.139.139,0,0,1,.047.008.647.647,0,0,1,.151.078l.3.188-.068.125-.308-.193-.037-.022a.478.478,0,0,0-.062-.035.1.1,0,0,0-.078,0,.155.155,0,0,0-.068.063.108.108,0,0,0-.026.083.124.124,0,0,0,.031.063.472.472,0,0,0,.094.063l.313.193-.072.114Zm-9.985-.287h0a.187.187,0,0,1-.1-.042.337.337,0,0,1-.084-.1.3.3,0,0,1-.041-.193.181.181,0,0,1,.094-.131l.063.12a.119.119,0,0,0-.048.068.11.11,0,0,0,.022.083.172.172,0,0,0,.068.068.041.041,0,0,0,.047,0c.016-.005.02-.02.025-.035a.374.374,0,0,0-.02-.132.775.775,0,0,1-.026-.151.222.222,0,0,1,.026-.1.206.206,0,0,1,.078-.073.187.187,0,0,1,.11-.026.169.169,0,0,1,.11.041.307.307,0,0,1,.094.115.293.293,0,0,1,.041.2.233.233,0,0,1-.109.151l-.074-.1a.145.145,0,0,0,.063-.088.146.146,0,0,0-.021-.1.166.166,0,0,0-.073-.073.109.109,0,0,0-.039-.007.084.084,0,0,0-.035.007.059.059,0,0,0-.026.032.122.122,0,0,0,0,.058.478.478,0,0,0,.018.081l.008.028a.334.334,0,0,1,.016.167.18.18,0,0,1-.089.121A.213.213,0,0,1,44.977,58.02Zm-14.221-.357a.612.612,0,0,1-.589-.412l-2.056-5.468,1.043-8.806-2.229-3.361a1.932,1.932,0,0,1,.255-2.28,2.016,2.016,0,0,1,1.49-.619h4.171a2.013,2.013,0,0,1,1.49.619,1.933,1.933,0,0,1,.256,2.28l-2.23,3.361L33.4,51.783l-2.056,5.468A.613.613,0,0,1,30.756,57.663ZM55.25,57.62a.116.116,0,0,1-.059-.017.18.18,0,0,1-.062-.063.164.164,0,0,1-.021-.088.148.148,0,0,1-.095.057l-.027,0a.2.2,0,0,1-.078-.017.178.178,0,0,1-.068-.058.176.176,0,0,1-.037-.084.192.192,0,0,1,.011-.094.485.485,0,0,1,.029-.065c.011-.022.024-.049.038-.08l.1-.2.595.3-.125.235a.54.54,0,0,1-.058.1.163.163,0,0,1-.057.047.167.167,0,0,1-.074.021Zm-10.644-.106h0l-.214-.484.1-.047.078.183.507-.225.052.125-.5.22.078.183-.1.046Zm6.217-.36h-.679l.339-.585.338.583Zm-.8,0h-.679l.339-.585.338.583Zm5.653-.172h0l-.333-.109a1.444,1.444,0,0,1-.157-.063.16.16,0,0,1-.068-.062.208.208,0,0,1-.026-.089.431.431,0,0,1,.022-.131.326.326,0,0,1,.067-.131.255.255,0,0,1,.078-.058.174.174,0,0,1,.084-.015,1.178,1.178,0,0,1,.152.037l.014,0,.339.11L55.8,56.6l-.345-.11a.453.453,0,0,0-.11-.031.114.114,0,0,0-.073.021.122.122,0,0,0-.052.078.143.143,0,0,0-.005.088.072.072,0,0,0,.042.052.6.6,0,0,0,.1.042l.349.114-.041.125ZM45,56.809h0l-.714-.041-.041-.136.554-.459.041.135-.125.1.084.257.162,0,.041.135Zm4.6-.328h-.679l.339-.585.338.583Zm1.639-.016h-.679l.339-.584.338.583Zm-.82,0h-.679l.339-.584.338.583Zm-6.305-.25h0l-.021-.13.391-.345-.438.078-.022-.125.658-.115.021.136-.381.339.428-.073.021.125-.657.11Zm11.233-.021h0l-.108-.021.1-.46.642.136-.026.131-.537-.115-.068.328Zm-5.334-.434h-.679l.339-.584.338.583Zm.793,0h-.679l.339-.585.338.583Zm5.225-.131h0l-.349-.026a.794.794,0,0,1-.167-.022.19.19,0,0,1-.078-.047.211.211,0,0,1-.047-.084.329.329,0,0,1-.011-.131.4.4,0,0,1,.032-.14.165.165,0,0,1,.062-.073.237.237,0,0,1,.078-.032.491.491,0,0,1,.07,0c.032,0,.064,0,.1,0l.355.026-.01.131L55.7,55.2c-.058-.005-.094-.005-.11-.005a.107.107,0,0,0-.068.037.146.146,0,0,0-.031.088.121.121,0,0,0,.015.089.1.1,0,0,0,.052.036c.028.006.066.011.115.016l.365.026-.011.135Zm-12.047-.131h0l-.021-.256c0-.019,0-.036,0-.052a.308.308,0,0,1,0-.067.16.16,0,0,1,.021-.073.14.14,0,0,1,.052-.058.156.156,0,0,1,.078-.026.175.175,0,0,1,.089.021.18.18,0,0,1,.062.063.167.167,0,0,1,.052-.1.169.169,0,0,1,.1-.042.258.258,0,0,1,.089.016.171.171,0,0,1,.073.052.223.223,0,0,1,.037.088,1.356,1.356,0,0,1,.015.162l.016.224-.662.048Zm5.11-.277V54.189l.188-.209.214.209,0,.741a1.438,1.438,0,0,0-.405.285Zm1.947,0,0,0a1.246,1.246,0,0,0-.358-.259l-.01-.767.183-.209.187.209v1.028Zm4.4-.245v0l-.005-.171.308-.193-.114-.1-.2,0,0-.135.662-.026.005.135-.3.011.309.261,0,.183-.265-.24-.4.276Zm-5.173-.147h0a1.744,1.744,0,0,0-.2-.012c-.045,0-.094,0-.148.006l-.011-.631.177-.2.193.2-.011.635Zm-5.9-.06-.059,0-.355-.011.005-.136.36.011q.043,0,.071,0a.131.131,0,0,0,.039,0,.092.092,0,0,0,.068-.037.151.151,0,0,0,.026-.088.135.135,0,0,0-.022-.089.1.1,0,0,0-.057-.037.643.643,0,0,0-.115-.01l-.371-.011.005-.136.35.011a.638.638,0,0,1,.167.015.144.144,0,0,1,.084.042.207.207,0,0,1,.052.078.453.453,0,0,1,.015.131.328.328,0,0,1-.026.146.188.188,0,0,1-.131.115A.734.734,0,0,1,44.362,54.765Zm.286-.671h0L44,53.969l.026-.131.538.1.062-.328.11.021-.088.458Zm10.732-.047v0l-.031-.155.125-.125a.5.5,0,0,0,.084-.089.09.09,0,0,0,.021-.047.425.425,0,0,0,0-.068l-.005-.026-.272.052-.026-.131.658-.121.052.277a.636.636,0,0,1,.011.157.15.15,0,0,1-.048.088.211.211,0,0,1-.1.047.168.168,0,0,1-.038,0,.19.19,0,0,1-.093-.025.243.243,0,0,1-.084-.12.321.321,0,0,1-.041.084l-.02.021a1.009,1.009,0,0,1-.074.073l-.114.1Zm-5.1-.3H49.9v-.757l.183-.188.194.188v.756Zm-5.46-.434h0l-.631-.218.089-.246c.025-.063.041-.1.047-.11a.135.135,0,0,1,.047-.058.161.161,0,0,1,.068-.031.2.2,0,0,1,.033,0,.135.135,0,0,1,.045.008.147.147,0,0,1,.073.052.239.239,0,0,1,.031.084.207.207,0,0,1,.088-.068.1.1,0,0,1,.045-.01.205.205,0,0,1,.059.01.19.19,0,0,1,.078.047.3.3,0,0,1,.048.078.2.2,0,0,1,0,.094c-.005.021-.021.071-.048.157l-.073.213Zm10.6-.045a.291.291,0,0,1-.125-.028.3.3,0,0,1-.162-.193.319.319,0,0,1,.01-.25.381.381,0,0,1,.209-.162.562.562,0,0,1,.173-.032.429.429,0,0,1,.1.032.257.257,0,0,1,.083.063.3.3,0,0,1,.074.125.32.32,0,0,1-.011.25.358.358,0,0,1-.214.167A.4.4,0,0,1,55.416,53.266Zm.1-.526a.341.341,0,0,0-.113.023.248.248,0,0,0-.146.1.162.162,0,0,0-.011.147.179.179,0,0,0,.169.118.423.423,0,0,0,.112-.019.248.248,0,0,0,.147-.1.175.175,0,0,0,.01-.147.17.17,0,0,0-.1-.109A.178.178,0,0,0,55.514,52.74ZM44.945,52.6l-.032,0a.657.657,0,0,1-.157-.058l-.323-.151.047-.125.328.151.053.021.052.02.021,0a.15.15,0,0,0,.057-.013.112.112,0,0,0,.063-.068.144.144,0,0,0,.015-.088.072.072,0,0,0-.036-.058.725.725,0,0,0-.1-.052l-.335-.157.058-.121.319.147a.935.935,0,0,1,.151.084.189.189,0,0,1,.058.073.244.244,0,0,1,.015.094.327.327,0,0,1-.036.125.521.521,0,0,1-.084.121.15.15,0,0,1-.084.047A.171.171,0,0,1,44.945,52.6Zm10.382-.133a.214.214,0,0,1-.084-.022.136.136,0,0,1-.062-.047.72.72,0,0,1-.073-.12l-.042-.078-.224.12-.063-.12.585-.313.1.194a.624.624,0,0,1,.068.146.176.176,0,0,1-.01.115.211.211,0,0,1-.094.094A.186.186,0,0,1,55.327,52.466Zm-.543-.434a.185.185,0,0,1-.11-.036.422.422,0,0,1-.1-.11.272.272,0,0,1-.058-.194.263.263,0,0,1,.1-.161l.078.1a.15.15,0,0,0-.057.094.142.142,0,0,0,.026.1.185.185,0,0,0,.078.068.1.1,0,0,0,.034.007.063.063,0,0,0,.038-.012c.015-.005.021-.015.026-.031a.1.1,0,0,0,0-.058l-.005-.015c-.006-.019-.016-.05-.032-.089a.413.413,0,0,1-.026-.161.171.171,0,0,1,.078-.126.185.185,0,0,1,.095-.026.192.192,0,0,1,.1.031.431.431,0,0,1,.088.1.282.282,0,0,1,.058.188.2.2,0,0,1-.089.136l-.078-.11a.108.108,0,0,0,.042-.073.112.112,0,0,0-.026-.084.147.147,0,0,0-.068-.062.058.058,0,0,0-.02,0,.051.051,0,0,0-.027.008.046.046,0,0,0-.021.037.486.486,0,0,0,.031.131.8.8,0,0,1,.036.146.164.164,0,0,1-.015.1.181.181,0,0,1-.073.078A.209.209,0,0,1,54.785,52.033Zm-9.354-.114h0l-.234-.156-.46-.005.084-.131.308.011-.136-.272.084-.13.194.418.235.151-.072.114Zm.224-.455a.226.226,0,0,1-.084-.015.648.648,0,0,1-.14-.095l-.277-.224.084-.1.282.22a.9.9,0,0,0,.089.068.1.1,0,0,0,.051.013l.028,0a.172.172,0,0,0,.11-.136.082.082,0,0,0-.022-.063.422.422,0,0,0-.083-.078l-.287-.229.083-.1.272.22a.983.983,0,0,1,.125.114.187.187,0,0,1,.042.084.21.21,0,0,1-.005.094.279.279,0,0,1-.063.115.347.347,0,0,1-.11.1A.2.2,0,0,1,45.655,51.464Zm8.428-.358A.228.228,0,0,1,54,51.089a.376.376,0,0,1-.12-.089.325.325,0,0,1-.095-.183.271.271,0,0,1,.068-.177l.1.094a.182.182,0,0,0-.037.1.206.206,0,0,0,.048.095.183.183,0,0,0,.088.052h.013a.08.08,0,0,0,.056-.023.053.053,0,0,0,.021-.036.077.077,0,0,0-.011-.058.614.614,0,0,0-.052-.1.392.392,0,0,1-.058-.157.171.171,0,0,1,.052-.136.149.149,0,0,1,.089-.047.109.109,0,0,1,.035-.006.182.182,0,0,1,.069.016.377.377,0,0,1,.11.078.266.266,0,0,1,.094.173.183.183,0,0,1-.058.151l-.1-.094a.117.117,0,0,0,.026-.078.115.115,0,0,0-.041-.078.2.2,0,0,0-.084-.048.062.062,0,0,0-.047.016.056.056,0,0,0-.016.041.3.3,0,0,0,.052.121.541.541,0,0,1,.068.135.221.221,0,0,1,0,.1.235.235,0,0,1-.058.094.228.228,0,0,1-.1.052ZM46.1,51.031h0l-.454-.485.1-.094.209.22,0-.4.131-.125-.005.36.47.115-.125.12-.35-.1-.005.157.136.146-.1.094Zm7.527-.3h0l-.4-.313.4-.522.392.3-.068.088-.282-.219-.089.114.266.2-.068.088-.265-.2-.11.141.292.229-.068.087ZM46.8,50.649h0l-.036-.041a.865.865,0,0,0,.073-.047.116.116,0,0,0,.041-.047.034.034,0,0,0-.005-.032.027.027,0,0,0-.026-.016.081.081,0,0,0-.041.016.151.151,0,0,0-.041.041l-.016-.041a.219.219,0,0,1,.02-.022.287.287,0,0,1-.142.043h-.018a.256.256,0,0,1-.162-.094l.094-.089a.173.173,0,0,0,.094.052.189.189,0,0,0,.1-.032.162.162,0,0,0,.062-.078.086.086,0,0,0-.01-.073.063.063,0,0,0-.037-.026l-.014,0a.152.152,0,0,0-.031,0l-.013,0-.017.006c-.02.006-.049.015-.087.03a.424.424,0,0,1-.141.033h-.02a.177.177,0,0,1-.126-.073.147.147,0,0,1-.031-.094.185.185,0,0,1,.031-.1.4.4,0,0,1,.094-.094.3.3,0,0,1,.17-.063h.018a.2.2,0,0,1,.14.083l-.1.084a.107.107,0,0,0-.073-.041.147.147,0,0,0-.084.031.157.157,0,0,0-.062.073.051.051,0,0,0,0,.047.064.064,0,0,0,.042.021.405.405,0,0,0,.125-.036.944.944,0,0,1,.146-.042.206.206,0,0,1,.1.016.213.213,0,0,1,.083.073.174.174,0,0,1,.037.1.224.224,0,0,1-.032.114.271.271,0,0,1-.06.071.155.155,0,0,0-.039.024.43.43,0,0,0-.038.031.207.207,0,0,0,.032-.021.334.334,0,0,0,.044-.033.12.12,0,0,1,.045-.008.074.074,0,0,1,.062.031.071.071,0,0,1,.011.073.184.184,0,0,1-.084.1.211.211,0,0,1-.078.047Zm6.18-.412h0l-.113-.072.14-.235V49.47l.136.083-.005.309.272-.141.13.084-.412.2-.146.234ZM47.1,50.211h0l-.318-.583.433-.235.052.1-.313.172.074.131.292-.162.052.1-.292.161.088.157.324-.183.052.1-.443.244Zm.553-.3h0l-.27-.61.125-.058.1.24.24-.11-.1-.239.125-.052.272.61-.126.052-.12-.266-.24.11.121.266-.125.057Zm4.573-.1h0a.844.844,0,0,1-.114-.031l-.235-.089.239-.621.225.084a.434.434,0,0,1,.114.058.254.254,0,0,1,.074.094.321.321,0,0,1,.021.125.486.486,0,0,1-.037.157.343.343,0,0,1-.068.125.276.276,0,0,1-.11.084A.335.335,0,0,1,52.222,49.81Zm-.021-.59-.157.412.094.037a.217.217,0,0,0,.078.021l.018,0a.156.156,0,0,0,.045-.008.136.136,0,0,0,.058-.047.472.472,0,0,0,.052-.1l.006-.013a.419.419,0,0,0,.029-.106v-.008a.262.262,0,0,0-.01-.073.143.143,0,0,0-.047-.052.669.669,0,0,0-.1-.048l-.068-.021h0Zm-3.936.434h0l-.208-.631.131-.042.209.632-.13.042Zm3.5-.016h0l-.49-.13.183-.647.474.131-.031.11L51.548,49l-.037.141.324.089-.032.109-.323-.088-.048.177.361.094-.031.109Zm-3.253-.073h0l-.156-.657.277-.062a.626.626,0,0,1,.127-.018l.03,0a.164.164,0,0,1,.088.047.2.2,0,0,1,.052.094.182.182,0,0,1-.015.131.207.207,0,0,1-.115.088l.017,0a.306.306,0,0,1,.067.032.918.918,0,0,1,.1.089l.11.109-.157.037-.125-.12a.581.581,0,0,0-.089-.078.08.08,0,0,0-.047-.016.236.236,0,0,0-.04.006l-.027.005-.026.005.062.271-.13.031Zm2.673-.084h0l-.463-.084.12-.647.13.021-.094.544.328.057-.021.109Zm-.58-.088h0l-.5-.037.057-.663.491.037-.011.115-.36-.026-.011.146.334.021-.01.11-.334-.021-.011.183.371.026-.011.109Zm-1.18-.005h0l-.047-.662.256-.021h.089a.17.17,0,0,1,.031,0,.177.177,0,0,1,.073.021.139.139,0,0,1,.055.049.158.158,0,0,1,.028.081.175.175,0,0,1-.021.089.18.18,0,0,1-.063.062.164.164,0,0,1,.141.152.256.256,0,0,1-.016.088.174.174,0,0,1-.05.071.218.218,0,0,1-.091.039,1.215,1.215,0,0,1-.162.015l-.224.016ZM30.758,31.573A15.786,15.786,0,1,1,46.545,15.787,15.8,15.8,0,0,1,30.758,31.573Z" transform="translate(401 32)" fill="#0b0539"/></g></svg>