<svg xmlns="http://www.w3.org/2000/svg" width="109.908" height="100" viewBox="0 0 109.908 100"><path d="M2,76.7a65.319,65.319,0,0,0,30.3,7.8h0a56.186,56.186,0,0,0,9.2-.8c9.3-1.6,16.1-4.8,22.6-7.8,8-3.7,16.3-7.5,29.9-9,2-.2,7.2-.7,8-.7h.3a3.077,3.077,0,0,0,2.8-1.8l.1-.3c.4-.8,3.7-8.8-2.6-25.3-5.4-14-3.9-23.7-3.8-24.1l.1-.5a3.084,3.084,0,0,0-2.1-3.5L66.6.2a1.8,1.8,0,0,0-1-.2,2.822,2.822,0,0,0-1.5.4,2.817,2.817,0,0,0-1.5,2l-.1.5a115.244,115.244,0,0,1-4.4,12.9L64,17.9a2.943,2.943,0,0,1,1.8,3.7,2.79,2.79,0,0,1-2.7,1.9,2.92,2.92,0,0,1-.9-.2l-6.4-2.2c-1,2-2,4.1-3.2,6.1l5.6,2.9A2.837,2.837,0,0,1,59.4,34h0a2.848,2.848,0,0,1-2.5,1.6,2.768,2.768,0,0,1-1.3-.3l-6-3.1c-1.4,2.1-2.8,4-4.4,6l4.3,3.3a2.86,2.86,0,1,1-3.4,4.6l-4.8-3.7A39.6,39.6,0,0,1,35,47.6l3.3,3.6a2.9,2.9,0,1,1-4.2,4l-.1-.1-4.3-4.6a134.187,134.187,0,0,1-17.2,6.9C3.2,60.5-.9,62.4.3,73.9v.3a3.27,3.27,0,0,0,1.5,2.4ZM109.9,96.3a.838.838,0,0,0-.8-.6c-1.7-.2-5.7-.5-11.2-.8-1.6-.5-4-1.9-4-5.8V82.7h5.6l4.5-12h-.1a5.663,5.663,0,0,1-1.8.3h-.3c-.7,0-5.2.5-7.6.7a75.881,75.881,0,0,0-17,3.7v7.4h8c-.3,3.3-1.8,9.6-9.6,11.2-9.8-.4-20.6-.8-30.9-1.1A9,9,0,0,1,42.6,88c-.3,0-.5.1-.7.1a44.974,44.974,0,0,1-6.3.7,8.369,8.369,0,0,1-1.7,3.7c-6.2-.2-12-.4-17-.5h-.2c-.5,0-3-.1-3.9-1.7-.5-1-.4-2.4.5-4.1-2.1-.6-3.9-1.2-5.6-1.8L2,91.6a.91.91,0,0,0,0,1.2c1,1.4,4.3,4.7,13.4,6,7.1,1,37.8,1.2,62.4,1.2,14.3,0,26.1-.1,28.3-.1a.764.764,0,0,0,.5-.2,18.311,18.311,0,0,0,3.1-2.4.8.8,0,0,0,.2-1Z" transform="translate(-0.096)" fill="#0b0539"/></svg>