<svg xmlns="http://www.w3.org/2000/svg" width="181" height="180.95" viewBox="0 0 181 180.95">
  <g id="yuzme" transform="translate(-1677.989 300.674)">
    <g id="Group_3388" data-name="Group 3388" transform="translate(-5701.464 -2702.821)">
      <g id="Group_3095" data-name="Group 3095">
        <path id="Path_10858" data-name="Path 10858" d="M7474.356,2542.405a.386.386,0,0,1,.428-.339l.016,0a22.705,22.705,0,0,0,5.729-.12c3.286-.364,6.521.562,6.408,4.75a.384.384,0,0,1-.4.372.315.315,0,0,1-.054-.006c-.665-.119-2.318-.189-6.277.447C7475.63,2548.245,7473.987,2545.561,7474.356,2542.405Z" fill="#142266"/>
        <path id="Path_10859" data-name="Path 10859" d="M7470.775,2541.885a.385.385,0,0,0,.489.241l.011,0a22.685,22.685,0,0,1,5.632-1.056c3.291-.317,6.269-1.884,5.3-5.962a.384.384,0,0,0-.464-.282.359.359,0,0,0-.051.016c-.626.254-2.23.66-6.236.849C7470.83,2535.905,7469.771,2538.871,7470.775,2541.885Z" fill="#142266"/>
      </g>
      <g id="Group_3096" data-name="Group 3096">
        <path id="Path_10860" data-name="Path 10860" d="M7488.305,2540.045a.384.384,0,0,1,.348-.42h.017a22.808,22.808,0,0,0,5.579-1.308c3.137-1.039,6.5-.807,7.256,3.314a.385.385,0,0,1-.31.446.454.454,0,0,1-.053.006c-.676.021-2.308.3-6.048,1.741C7490.768,2545.487,7488.6,2543.207,7488.305,2540.045Z" fill="#142266"/>
        <path id="Path_10861" data-name="Path 10861" d="M7484.7,2540.278a.385.385,0,0,0,.528.137l.014-.008a22.741,22.741,0,0,1,5.288-2.2c3.153-.993,5.74-3.146,3.945-6.933a.383.383,0,0,0-.512-.181.449.449,0,0,0-.047.027c-.56.378-2.043,1.109-5.923,2.127C7483.508,2534.42,7483.089,2537.539,7484.7,2540.278Z" fill="#142266"/>
      </g>
      <g id="Group_3097" data-name="Group 3097">
        <path id="Path_10862" data-name="Path 10862" d="M7501.462,2534.835a.386.386,0,0,1,.253-.484l.016,0a22.8,22.8,0,0,0,5.185-2.439c2.854-1.669,6.186-2.14,7.786,1.733a.384.384,0,0,1-.211.5.434.434,0,0,1-.05.017c-.656.161-2.194.77-5.553,2.96C7505.009,2539.65,7502.409,2537.865,7501.462,2534.835Z" fill="#142266"/>
        <path id="Path_10863" data-name="Path 10863" d="M7497.981,2535.815a.386.386,0,0,0,.545.023l.012-.011a22.668,22.668,0,0,1,4.716-3.255c2.877-1.627,4.96-4.271,2.417-7.6a.383.383,0,0,0-.537-.071.344.344,0,0,0-.041.036c-.469.486-1.769,1.51-5.351,3.312C7495.6,2530.332,7495.839,2533.469,7497.981,2535.815Z" fill="#142266"/>
      </g>
      <g id="Group_3098" data-name="Group 3098">
        <path id="Path_10864" data-name="Path 10864" d="M7513.25,2527a.386.386,0,0,1,.148-.526l.014-.007a22.81,22.81,0,0,0,4.564-3.464c2.444-2.226,5.6-3.379,7.976.076a.383.383,0,0,1-.1.532.517.517,0,0,1-.047.028c-.608.294-1.986,1.21-4.816,4.05C7517.715,2530.977,7514.809,2529.771,7513.25,2527Z" fill="#142266"/>
        <path id="Path_10865" data-name="Path 10865" d="M7510.049,2528.685a.386.386,0,0,0,.538-.088l.009-.012a22.658,22.658,0,0,1,3.936-4.164c2.476-2.19,3.964-5.209.784-7.938a.38.38,0,0,0-.573.087c-.358.573-1.417,1.844-4.546,4.352C7506.579,2523.817,7507.465,2526.837,7510.049,2528.685Z" fill="#142266"/>
      </g>
      <g id="Group_3099" data-name="Group 3099">
        <path id="Path_10866" data-name="Path 10866" d="M7523.149,2516.893a.386.386,0,0,1,.034-.545l.013-.01a22.821,22.821,0,0,0,3.744-4.338c1.928-2.685,4.781-4.47,7.818-1.584a.384.384,0,0,1,.011.543.366.366,0,0,1-.039.036c-.533.414-1.692,1.6-3.869,4.963C7528.343,2519.85,7525.249,2519.276,7523.149,2516.893Z" fill="#142266"/>
        <path id="Path_10867" data-name="Path 10867" d="M7520.368,2519.2a.386.386,0,0,0,.508-.2l.006-.014a22.707,22.707,0,0,1,2.984-4.891c1.967-2.657,2.795-5.919-.883-7.928a.383.383,0,0,0-.521.153.4.4,0,0,0-.021.047c-.231.635-1,2.1-3.542,5.2C7515.962,2515.162,7517.452,2517.932,7520.368,2519.2Z" fill="#142266"/>
      </g>
      <g id="Group_3100" data-name="Group 3100">
        <path id="Path_10868" data-name="Path 10868" d="M7530.731,2504.949a.387.387,0,0,1-.079-.541l.01-.012a22.783,22.783,0,0,0,2.761-5.021c1.327-3.028,3.746-5.367,7.318-3.175a.382.382,0,0,1,.125.526.486.486,0,0,1-.032.046c-.436.516-1.323,1.912-2.753,5.659C7536.427,2506.758,7533.281,2506.84,7530.731,2504.949Z" fill="#142266"/>
        <path id="Path_10869" data-name="Path 10869" d="M7528.492,2507.783a.386.386,0,0,0,.455-.3l0-.016a22.742,22.742,0,0,1,1.9-5.405c1.371-3.008,1.5-6.37-2.513-7.569a.382.382,0,0,0-.476.258.241.241,0,0,0-.012.054c-.094.668-.544,2.261-2.382,5.824C7523.342,2504.748,7525.38,2507.146,7528.492,2507.783Z" fill="#142266"/>
      </g>
      <g id="Group_3101" data-name="Group 3101">
        <path id="Path_10870" data-name="Path 10870" d="M7535.663,2491.681a.385.385,0,0,1-.19-.511l.008-.015a22.826,22.826,0,0,0,1.656-5.486c.668-3.237,2.548-6.029,6.5-4.626a.383.383,0,0,1,.231.49c-.006.017-.014.033-.022.05-.319.6-.9,2.146-1.516,6.108C7541.612,2492.272,7538.551,2493,7535.663,2491.681Z" fill="#142266"/>
        <path id="Path_10871" data-name="Path 10871" d="M7534.062,2494.923a.386.386,0,0,0,.382-.39v-.016a22.742,22.742,0,0,1,.737-5.682c.716-3.228.145-6.544-4.032-6.884a.385.385,0,0,0-.412.355.462.462,0,0,0,0,.052c.047.674-.062,2.325-1.119,6.193C7528.394,2493.023,7530.886,2494.947,7534.062,2494.923Z" fill="#142266"/>
      </g>
      <g id="Group_3102" data-name="Group 3102">
        <path id="Path_10872" data-name="Path 10872" d="M7537.73,2477.682a.387.387,0,0,1-.292-.462l0-.015a22.769,22.769,0,0,0,.48-5.71c-.019-3.306,1.239-6.427,5.394-5.877a.383.383,0,0,1,.328.43.3.3,0,0,1-.011.055c-.188.649-.43,2.286-.213,6.29C7543.671,2477.022,7540.83,2478.375,7537.73,2477.682Z" fill="#142266"/>
        <path id="Path_10873" data-name="Path 10873" d="M7536.841,2481.185a.386.386,0,0,0,.292-.461l0-.015a22.725,22.725,0,0,1-.461-5.711c.029-3.306-1.219-6.431-5.375-5.894a.383.383,0,0,0-.33.431.336.336,0,0,0,.011.053c.186.649.423,2.287.193,6.29C7530.9,2480.507,7533.736,2481.869,7536.841,2481.185Z" fill="#142266"/>
      </g>
      <g id="Group_3103" data-name="Group 3103">
        <path id="Path_10874" data-name="Path 10874" d="M7536.841,2463.56a.387.387,0,0,1-.381-.392v-.015a22.8,22.8,0,0,0-.718-5.685c-.706-3.229-.124-6.544,4.054-6.87a.383.383,0,0,1,.41.355.321.321,0,0,1,0,.053c-.049.674.054,2.325,1.1,6.2C7542.516,2461.679,7540.018,2463.594,7536.841,2463.56Z" fill="#142266"/>
        <path id="Path_10875" data-name="Path 10875" d="M7536.7,2467.172a.387.387,0,0,0,.191-.512l-.007-.014a22.71,22.71,0,0,1-1.639-5.49c-.658-3.24-2.53-6.037-6.484-4.648a.383.383,0,0,0-.233.488.51.51,0,0,0,.022.052c.317.6.889,2.149,1.5,6.113C7530.751,2467.747,7533.805,2468.486,7536.7,2467.172Z" fill="#142266"/>
      </g>
      <g id="Group_3104" data-name="Group 3104">
        <path id="Path_10876" data-name="Path 10876" d="M7533.035,2449.931a.387.387,0,0,1-.455-.3l0-.016a22.793,22.793,0,0,0-1.884-5.411c-1.363-3.012-1.483-6.375,2.536-7.562a.383.383,0,0,1,.476.259.51.51,0,0,1,.012.055c.092.669.536,2.263,2.364,5.833C7538.2,2446.912,7536.149,2449.3,7533.035,2449.931Z" fill="#142266"/>
        <path id="Path_10877" data-name="Path 10877" d="M7533.645,2453.494a.386.386,0,0,0,.081-.54l-.01-.013a22.758,22.758,0,0,1-2.744-5.03c-1.318-3.032-3.729-5.379-7.307-3.2a.384.384,0,0,0-.126.528.455.455,0,0,0,.032.044c.434.517,1.317,1.917,2.734,5.668C7527.943,2455.29,7531.089,2455.38,7533.645,2453.494Z" fill="#142266"/>
      </g>
      <g id="Group_3105" data-name="Group 3105">
        <path id="Path_10878" data-name="Path 10878" d="M7526.479,2437.39a.386.386,0,0,1-.507-.2l-.006-.014a22.718,22.718,0,0,0-2.968-4.9c-1.958-2.663-2.775-5.928.91-7.925a.384.384,0,0,1,.52.156c.008.016.015.033.022.05.229.635,1,2.1,3.524,5.214C7530.9,2433.364,7529.394,2436.129,7526.479,2437.39Z" fill="#142266"/>
        <path id="Path_10879" data-name="Path 10879" d="M7527.816,2440.749a.387.387,0,0,0-.034-.545l-.012-.01a22.764,22.764,0,0,1-3.73-4.35c-1.919-2.692-4.766-4.487-7.813-1.609a.383.383,0,0,0-.014.542.484.484,0,0,0,.04.037c.532.416,1.687,1.6,3.853,4.976C7522.612,2443.691,7525.708,2443.126,7527.816,2440.749Z" fill="#142266"/>
      </g>
      <g id="Group_3106" data-name="Group 3106">
        <path id="Path_10880" data-name="Path 10880" d="M7517.458,2426.486a.387.387,0,0,1-.538-.093l-.009-.013a22.778,22.778,0,0,0-3.922-4.177c-2.469-2.2-3.947-5.222-.758-7.94a.384.384,0,0,1,.541.045c.011.014.022.028.032.043.356.574,1.411,1.849,4.531,4.367C7520.943,2421.63,7520.048,2424.646,7517.458,2426.486Z" fill="#142266"/>
        <path id="Path_10881" data-name="Path 10881" d="M7519.465,2429.5a.387.387,0,0,0-.147-.526l-.013-.007a22.768,22.768,0,0,1-4.553-3.479c-2.437-2.234-5.594-3.4-7.976.05a.382.382,0,0,0,.1.532.388.388,0,0,0,.048.029c.607.3,1.982,1.216,4.8,4.066C7514.987,2433.453,7517.9,2432.256,7519.465,2429.5Z" fill="#142266"/>
      </g>
      <g id="Group_3107" data-name="Group 3107">
        <path id="Path_10882" data-name="Path 10882" d="M7506.369,2417.7a.388.388,0,0,1-.546.022l-.011-.011a22.752,22.752,0,0,0-4.7-3.271c-2.872-1.637-4.946-4.287-2.392-7.609a.382.382,0,0,1,.537-.069.322.322,0,0,1,.041.037c.468.487,1.764,1.516,5.34,3.329C7508.768,2412.223,7508.519,2415.359,7506.369,2417.7Z" fill="#142266"/>
        <path id="Path_10883" data-name="Path 10883" d="M7508.957,2420.222a.387.387,0,0,0-.252-.485l-.016,0a22.784,22.784,0,0,1-5.177-2.456c-2.848-1.678-6.178-2.16-7.792,1.708a.382.382,0,0,0,.207.5.486.486,0,0,0,.053.018c.655.163,2.192.777,5.544,2.978C7505.4,2425.026,7508,2423.25,7508.957,2420.222Z" fill="#142266"/>
      </g>
      <g id="Group_3108" data-name="Group 3108">
        <path id="Path_10884" data-name="Path 10884" d="M7493.692,2411.405a.386.386,0,0,1-.529.134l-.014-.008a22.683,22.683,0,0,0-5.282-2.221c-3.15-1-5.729-3.165-3.922-6.946a.385.385,0,0,1,.513-.179.433.433,0,0,1,.046.027c.559.379,2.041,1.116,5.916,2.146C7494.9,2405.551,7495.31,2408.671,7493.692,2411.405Z" fill="#142266"/>
        <path id="Path_10885" data-name="Path 10885" d="M7496.745,2413.337a.386.386,0,0,0-.348-.421h-.015a22.785,22.785,0,0,1-5.574-1.326c-3.135-1.05-6.493-.829-7.266,3.29a.384.384,0,0,0,.308.447.458.458,0,0,0,.054.006c.675.024,2.306.3,6.042,1.76C7494.268,2418.776,7496.445,2416.5,7496.745,2413.337Z" fill="#142266"/>
      </g>
      <g id="Group_3109" data-name="Group 3109">
        <path id="Path_10886" data-name="Path 10886" d="M7465.848,2542.405a.387.387,0,0,0-.429-.339l-.015,0a22.706,22.706,0,0,1-5.729-.12c-3.286-.364-6.521.562-6.408,4.75a.383.383,0,0,0,.394.372.332.332,0,0,0,.055-.006c.665-.119,2.318-.189,6.277.447C7464.571,2548.245,7466.214,2545.561,7465.848,2542.405Z" fill="#142266"/>
        <path id="Path_10887" data-name="Path 10887" d="M7469.425,2541.885a.386.386,0,0,1-.49.241l-.01,0a22.693,22.693,0,0,0-5.632-1.056c-3.291-.317-6.269-1.884-5.3-5.962a.383.383,0,0,1,.464-.282.422.422,0,0,1,.051.016c.626.254,2.23.66,6.236.849C7469.374,2535.905,7470.429,2538.871,7469.425,2541.885Z" fill="#142266"/>
      </g>
      <g id="Group_3110" data-name="Group 3110">
        <path id="Path_10888" data-name="Path 10888" d="M7451.9,2540.045a.386.386,0,0,0-.349-.42h-.016a22.789,22.789,0,0,1-5.579-1.308c-3.138-1.039-6.5-.807-7.256,3.314a.384.384,0,0,0,.309.446.455.455,0,0,0,.054.006c.675.021,2.306.3,6.047,1.741C7449.432,2545.487,7451.6,2543.207,7451.9,2540.045Z" fill="#142266"/>
        <path id="Path_10889" data-name="Path 10889" d="M7455.5,2540.278a.387.387,0,0,1-.529.137l-.013-.008a22.769,22.769,0,0,0-5.289-2.2c-3.153-.993-5.74-3.146-3.945-6.933a.383.383,0,0,1,.512-.181.456.456,0,0,1,.047.027c.56.378,2.044,1.109,5.923,2.127C7456.692,2534.42,7457.111,2537.539,7455.5,2540.278Z" fill="#142266"/>
      </g>
      <g id="Group_3111" data-name="Group 3111">
        <path id="Path_10890" data-name="Path 10890" d="M7438.738,2534.835a.387.387,0,0,0-.254-.484l-.015,0a22.781,22.781,0,0,1-5.186-2.439c-2.854-1.669-6.186-2.14-7.786,1.733a.384.384,0,0,0,.211.5c.017.007.033.012.05.017.656.161,2.194.77,5.553,2.96C7435.195,2539.65,7437.789,2537.865,7438.738,2534.835Z" fill="#142266"/>
        <path id="Path_10891" data-name="Path 10891" d="M7442.218,2535.815a.387.387,0,0,1-.546.023l-.011-.011a22.71,22.71,0,0,0-4.716-3.255c-2.877-1.627-4.96-4.271-2.417-7.6a.383.383,0,0,1,.537-.071.517.517,0,0,1,.041.036c.469.486,1.769,1.51,5.351,3.312C7444.6,2530.332,7444.361,2533.469,7442.218,2535.815Z" fill="#142266"/>
      </g>
      <g id="Group_3112" data-name="Group 3112">
        <path id="Path_10892" data-name="Path 10892" d="M7426.953,2527a.387.387,0,0,0-.148-.526l-.014-.007a22.754,22.754,0,0,1-4.564-3.464c-2.444-2.226-5.6-3.379-7.976.076a.384.384,0,0,0,.148.56c.608.294,1.986,1.21,4.817,4.05C7422.487,2530.977,7425.4,2529.771,7426.953,2527Z" fill="#142266"/>
        <path id="Path_10893" data-name="Path 10893" d="M7430.153,2528.685a.387.387,0,0,1-.539-.088l-.008-.012a22.741,22.741,0,0,0-3.936-4.164c-2.476-2.19-3.964-5.209-.784-7.938a.382.382,0,0,1,.54.042.336.336,0,0,1,.033.045c.358.573,1.416,1.844,4.546,4.352C7433.622,2523.817,7432.736,2526.837,7430.153,2528.685Z" fill="#142266"/>
      </g>
      <g id="Group_3113" data-name="Group 3113">
        <path id="Path_10894" data-name="Path 10894" d="M7417.049,2516.893a.387.387,0,0,0-.036-.545l-.012-.01a22.768,22.768,0,0,1-3.744-4.338c-1.928-2.685-4.781-4.47-7.818-1.584a.384.384,0,0,0-.012.543.431.431,0,0,0,.04.036c.534.414,1.692,1.6,3.869,4.963C7411.857,2519.85,7414.949,2519.276,7417.049,2516.893Z" fill="#142266"/>
        <path id="Path_10895" data-name="Path 10895" d="M7419.833,2519.2a.385.385,0,0,1-.508-.2l-.006-.014a22.783,22.783,0,0,0-2.984-4.891c-1.967-2.657-2.794-5.919.884-7.928a.382.382,0,0,1,.52.153.413.413,0,0,1,.022.047c.231.635,1,2.1,3.541,5.2C7424.239,2515.162,7422.744,2517.932,7419.833,2519.2Z" fill="#142266"/>
      </g>
      <g id="Group_3114" data-name="Group 3114">
        <path id="Path_10896" data-name="Path 10896" d="M7409.469,2504.949a.387.387,0,0,0,.079-.541l-.01-.012a22.744,22.744,0,0,1-2.761-5.021c-1.328-3.028-3.746-5.367-7.318-3.175a.381.381,0,0,0-.126.526.42.42,0,0,0,.033.046c.436.516,1.323,1.912,2.753,5.659C7403.769,2506.758,7406.92,2506.84,7409.469,2504.949Z" fill="#142266"/>
        <path id="Path_10897" data-name="Path 10897" d="M7411.709,2507.783a.388.388,0,0,1-.456-.3l0-.016a22.785,22.785,0,0,0-1.9-5.405c-1.371-3.008-1.5-6.37,2.513-7.569a.382.382,0,0,1,.476.258.363.363,0,0,1,.012.054c.094.668.544,2.261,2.383,5.824C7416.859,2504.748,7414.825,2507.146,7411.709,2507.783Z" fill="#142266"/>
      </g>
      <g id="Group_3115" data-name="Group 3115">
        <path id="Path_10898" data-name="Path 10898" d="M7404.538,2491.681a.386.386,0,0,0,.189-.511l-.007-.015a22.716,22.716,0,0,1-1.656-5.486c-.669-3.237-2.548-6.029-6.5-4.626a.382.382,0,0,0-.233.489c.007.017.014.034.023.051.319.6.9,2.146,1.516,6.108C7398.589,2492.272,7401.652,2493,7404.538,2491.681Z" fill="#142266"/>
        <path id="Path_10899" data-name="Path 10899" d="M7406.14,2494.923a.387.387,0,0,1-.383-.39v-.016a22.786,22.786,0,0,0-.736-5.682c-.716-3.228-.146-6.544,4.031-6.884a.383.383,0,0,1,.411.352.346.346,0,0,1,0,.055c-.047.674.062,2.325,1.12,6.193C7411.807,2493.023,7409.315,2494.947,7406.14,2494.923Z" fill="#142266"/>
      </g>
      <g id="Group_3116" data-name="Group 3116">
        <path id="Path_10900" data-name="Path 10900" d="M7402.47,2477.682a.386.386,0,0,0,.291-.462l0-.015a22.678,22.678,0,0,1-.48-5.71c.019-3.306-1.239-6.427-5.394-5.877a.383.383,0,0,0-.329.43.349.349,0,0,0,.012.055c.188.649.43,2.286.213,6.29C7396.529,2477.022,7399.37,2478.375,7402.47,2477.682Z" fill="#142266"/>
        <path id="Path_10901" data-name="Path 10901" d="M7403.363,2481.185a.387.387,0,0,1-.293-.461l0-.015a22.794,22.794,0,0,0,.461-5.711c-.029-3.306,1.219-6.431,5.375-5.894a.384.384,0,0,1,.33.431c0,.018-.006.035-.011.053-.186.649-.423,2.287-.193,6.29C7409.3,2480.507,7406.465,2481.869,7403.363,2481.185Z" fill="#142266"/>
      </g>
      <g id="Group_3117" data-name="Group 3117">
        <path id="Path_10902" data-name="Path 10902" d="M7403.357,2463.56a.386.386,0,0,0,.38-.392v-.015a22.757,22.757,0,0,1,.718-5.685c.706-3.229.124-6.544-4.054-6.87a.383.383,0,0,0-.411.353.347.347,0,0,0,0,.055c.049.674-.055,2.325-1.1,6.2C7397.686,2461.679,7400.184,2463.594,7403.357,2463.56Z" fill="#142266"/>
        <path id="Path_10903" data-name="Path 10903" d="M7403.5,2467.172a.387.387,0,0,1-.191-.512l.007-.014a22.777,22.777,0,0,0,1.639-5.49c.659-3.24,2.529-6.037,6.483-4.648a.381.381,0,0,1,.233.488.42.42,0,0,1-.022.052c-.317.6-.889,2.149-1.5,6.113C7409.455,2467.747,7406.4,2468.486,7403.5,2467.172Z" fill="#142266"/>
      </g>
      <g id="Group_3118" data-name="Group 3118">
        <path id="Path_10904" data-name="Path 10904" d="M7407.165,2449.931a.387.387,0,0,0,.454-.3l0-.016a22.706,22.706,0,0,1,1.884-5.411c1.362-3.012,1.482-6.375-2.537-7.562a.383.383,0,0,0-.476.259.3.3,0,0,0-.011.055c-.092.669-.536,2.263-2.364,5.833C7402.006,2446.912,7404.051,2449.3,7407.165,2449.931Z" fill="#142266"/>
        <path id="Path_10905" data-name="Path 10905" d="M7406.555,2453.494a.386.386,0,0,1-.082-.54l.011-.013a22.78,22.78,0,0,0,2.744-5.03c1.318-3.032,3.729-5.379,7.307-3.2a.382.382,0,0,1,.126.526.486.486,0,0,1-.032.046c-.434.517-1.316,1.917-2.734,5.668C7412.257,2455.29,7409.111,2455.38,7406.555,2453.494Z" fill="#142266"/>
      </g>
      <g id="Group_3119" data-name="Group 3119">
        <path id="Path_10906" data-name="Path 10906" d="M7413.722,2437.39a.386.386,0,0,0,.507-.2l0-.014a22.743,22.743,0,0,1,2.969-4.9c1.958-2.663,2.775-5.928-.911-7.925a.381.381,0,0,0-.518.156.391.391,0,0,0-.023.05c-.229.635-1,2.1-3.525,5.214C7409.3,2433.364,7410.806,2436.129,7413.722,2437.39Z" fill="#142266"/>
        <path id="Path_10907" data-name="Path 10907" d="M7412.384,2440.749a.386.386,0,0,1,.034-.545l.012-.01a22.8,22.8,0,0,0,3.73-4.35c1.919-2.692,4.766-4.487,7.813-1.609a.383.383,0,0,1,.012.542.4.4,0,0,1-.039.037c-.532.416-1.686,1.6-3.853,4.976C7417.588,2443.691,7414.492,2443.126,7412.384,2440.749Z" fill="#142266"/>
      </g>
      <g id="Group_3120" data-name="Group 3120">
        <path id="Path_10908" data-name="Path 10908" d="M7422.743,2426.486a.386.386,0,0,0,.538-.093l.009-.013a22.742,22.742,0,0,1,3.922-4.177c2.469-2.2,3.947-5.222.758-7.94a.384.384,0,0,0-.541.045.278.278,0,0,0-.032.043c-.356.574-1.411,1.849-4.532,4.367C7419.258,2421.63,7420.153,2424.646,7422.743,2426.486Z" fill="#142266"/>
        <path id="Path_10909" data-name="Path 10909" d="M7420.736,2429.5a.386.386,0,0,1,.146-.526l.014-.007a22.832,22.832,0,0,0,4.553-3.479c2.437-2.234,5.594-3.4,7.976.05a.384.384,0,0,1-.1.533.3.3,0,0,1-.046.028c-.607.3-1.983,1.216-4.8,4.066C7425.215,2433.453,7422.3,2432.256,7420.736,2429.5Z" fill="#142266"/>
      </g>
      <g id="Group_3121" data-name="Group 3121">
        <path id="Path_10910" data-name="Path 10910" d="M7433.833,2417.7a.386.386,0,0,0,.545.022l.012-.011a22.709,22.709,0,0,1,4.7-3.271c2.871-1.637,4.946-4.287,2.392-7.609a.383.383,0,0,0-.539-.067.29.29,0,0,0-.039.035c-.469.487-1.765,1.516-5.34,3.329C7431.434,2412.223,7431.682,2415.359,7433.833,2417.7Z" fill="#142266"/>
        <path id="Path_10911" data-name="Path 10911" d="M7431.245,2420.222a.385.385,0,0,1,.252-.485l.016,0a22.823,22.823,0,0,0,5.177-2.456c2.848-1.678,6.179-2.16,7.792,1.708a.382.382,0,0,1-.208.5.462.462,0,0,1-.052.018c-.655.163-2.192.777-5.544,2.978C7434.8,2425.026,7432.2,2423.25,7431.245,2420.222Z" fill="#142266"/>
      </g>
      <g id="Group_3122" data-name="Group 3122">
        <path id="Path_10912" data-name="Path 10912" d="M7446.509,2411.405a.386.386,0,0,0,.529.134l.014-.008a22.66,22.66,0,0,1,5.282-2.221c3.15-1,5.729-3.165,3.922-6.946a.384.384,0,0,0-.513-.179.359.359,0,0,0-.046.027c-.559.379-2.041,1.116-5.916,2.146C7445.3,2405.551,7444.891,2408.671,7446.509,2411.405Z" fill="#142266"/>
        <path id="Path_10913" data-name="Path 10913" d="M7443.452,2413.337a.385.385,0,0,1,.347-.421h.017a22.8,22.8,0,0,0,5.574-1.326c3.135-1.05,6.493-.829,7.266,3.29a.383.383,0,0,1-.307.446.328.328,0,0,1-.055.007c-.675.024-2.305.3-6.042,1.76C7445.933,2418.776,7443.76,2416.5,7443.452,2413.337Z" fill="#142266"/>
      </g>
    </g>
    <g id="Group_3389" data-name="Group 3389" transform="translate(-5701.464 -2702.821)">
      <g id="Group_3124" data-name="Group 3124">
        <path id="Path_10914" data-name="Path 10914" d="M7469.954,2562.664l-76.121-77.573-2.5,10.058,78.621,80.121,78.621-80.121-2.5-10.058Z" fill="#e65416"/>
        <path id="Path_10915" data-name="Path 10915" d="M7546.075,2485.09l-2.833-11.4c-31.187-3.9-51.662-17.144-63.632-28.04a99.134,99.134,0,0,1-9.656-10.114,99.3,99.3,0,0,1-9.656,10.114c-11.97,10.9-32.444,24.144-63.632,28.04l-2.833,11.4,76.121,77.573Z" fill="#b5311b"/>
      </g>
      <path id="Path_10916" data-name="Path 10916" d="M7552.4,2463.321c-62.61-4.005-82.444-46.74-82.444-46.74s-19.835,42.735-82.444,46.74l-8.056,31.144,90.5,88.632,90.5-88.632Zm-161.066,31.828,5.334-21.457c31.188-3.9,51.662-17.144,63.632-28.04a99.324,99.324,0,0,0,9.656-10.114,99.106,99.106,0,0,0,9.656,10.114c11.97,10.9,32.444,24.144,63.632,28.04l5.334,21.457-78.621,80.121Z" fill="#142266"/>
    </g>
    <g id="Group_58" data-name="Group 58" transform="translate(-5701.464 -2702.821)">
      <g id="Group_56" data-name="Group 56">
        <path id="Path_7368" data-name="Path 7368" d="M7416.624,2500.5c5.463-3.023,10.734-5.951,16.053-8.83,10.159-5.567,20.27-11.229,30.428-16.7,1.677-.912,1.869-1.584.91-3.215-3.929-6.862-7.715-13.821-11.5-20.731-1.294-2.4-2.061-4.9-1.342-7.582.958-3.407,3.019-5.855,6.613-6.527q24.367-4.536,48.738-8.927a9.43,9.43,0,0,1,10.782,7.342,9.271,9.271,0,0,1-7.035,11.063l-.1.022c-4.169,1.008-8.434,1.632-12.7,2.447-5.942,1.1-11.932,2.255-17.922,3.215-2.108.336-2.444.768-1.342,2.735q12.721,22.82,25.3,45.686c1.294,2.351,1.342,2.447-1.342,2.879a19.244,19.244,0,0,1-11.261-1.1,23.27,23.27,0,0,0-19.886-.048,17.949,17.949,0,0,1-14.9.048,23.984,23.984,0,0,0-20.126-.048C7429.418,2505.159,7423,2503.719,7416.624,2500.5Z" fill="none" stroke="#142266" stroke-width="15"/>
        <path id="Path_7369" data-name="Path 7369" d="M7393.622,2521.428c0-1.92-.575-4.127.144-5.663.863-1.776,3.5-.672,5.175-1.488,8.05-3.935,16.053-3.6,24.247-.1,4.217,1.824,8.865,1.1,13.082-.72a23.167,23.167,0,0,1,19.455,0,19.062,19.062,0,0,0,15.621-.048,23.085,23.085,0,0,1,19.263,0,19.137,19.137,0,0,0,15.813-.048,22.368,22.368,0,0,1,19.024,0,17.969,17.969,0,0,0,6.469,1.536c1.1.048,1.533.48,1.485,1.632-.048,3.263-.048,6.575,0,9.838,0,1.2-.527,1.488-1.629,1.392a20.584,20.584,0,0,1-6.948-1.776,21.706,21.706,0,0,0-17.874,0,20.7,20.7,0,0,1-16.963.048,22.075,22.075,0,0,0-18.113,0,20.512,20.512,0,0,1-16.963-.048,21.524,21.524,0,0,0-17.874,0,20.512,20.512,0,0,1-16.963.048,21.892,21.892,0,0,0-18.113,0,21.208,21.208,0,0,1-6.709,1.68c-1.2.1-1.773-.192-1.725-1.536.1-1.536.048-3.119.1-4.751Z" fill="none" stroke="#142266" stroke-width="15"/>
        <path id="Path_7370" data-name="Path 7370" d="M7512.988,2491.194a16.084,16.084,0,0,1-16.348-15.818c-.005-.278,0-.556.008-.834a16.581,16.581,0,1,1,33.162.066c0,.074,0,.148,0,.222A16.63,16.63,0,0,1,7512.988,2491.194Z" fill="none" stroke="#142266" stroke-width="15"/>
      </g>
      <g id="Group_57" data-name="Group 57">
        <path id="Path_7368-2" data-name="Path 7368" d="M7416.624,2500.5c5.463-3.023,10.734-5.951,16.053-8.83,10.159-5.567,20.27-11.229,30.428-16.7,1.677-.912,1.869-1.584.91-3.215-3.929-6.862-7.715-13.821-11.5-20.731-1.294-2.4-2.061-4.9-1.342-7.582.958-3.407,3.019-5.855,6.613-6.527q24.367-4.536,48.738-8.927a9.43,9.43,0,0,1,10.782,7.342,9.271,9.271,0,0,1-7.035,11.063l-.1.022c-4.169,1.008-8.434,1.632-12.7,2.447-5.942,1.1-11.932,2.255-17.922,3.215-2.108.336-2.444.768-1.342,2.735q12.721,22.82,25.3,45.686c1.294,2.351,1.342,2.447-1.342,2.879a19.244,19.244,0,0,1-11.261-1.1,23.27,23.27,0,0,0-19.886-.048,17.949,17.949,0,0,1-14.9.048,23.984,23.984,0,0,0-20.126-.048C7429.418,2505.159,7423,2503.719,7416.624,2500.5Z" fill="#e65416"/>
        <path id="Path_7369-2" data-name="Path 7369" d="M7393.622,2521.428c0-1.92-.575-4.127.144-5.663.863-1.776,3.5-.672,5.175-1.488,8.05-3.935,16.053-3.6,24.247-.1,4.217,1.824,8.865,1.1,13.082-.72a23.167,23.167,0,0,1,19.455,0,19.062,19.062,0,0,0,15.621-.048,23.085,23.085,0,0,1,19.263,0,19.137,19.137,0,0,0,15.813-.048,22.368,22.368,0,0,1,19.024,0,17.969,17.969,0,0,0,6.469,1.536c1.1.048,1.533.48,1.485,1.632-.048,3.263-.048,6.575,0,9.838,0,1.2-.527,1.488-1.629,1.392a20.584,20.584,0,0,1-6.948-1.776,21.706,21.706,0,0,0-17.874,0,20.7,20.7,0,0,1-16.963.048,22.075,22.075,0,0,0-18.113,0,20.512,20.512,0,0,1-16.963-.048,21.524,21.524,0,0,0-17.874,0,20.512,20.512,0,0,1-16.963.048,21.892,21.892,0,0,0-18.113,0,21.208,21.208,0,0,1-6.709,1.68c-1.2.1-1.773-.192-1.725-1.536.1-1.536.048-3.119.1-4.751Z" fill="#e65416"/>
        <path id="Path_7370-2" data-name="Path 7370" d="M7512.988,2491.194a16.084,16.084,0,0,1-16.348-15.818c-.005-.278,0-.556.008-.834a16.581,16.581,0,1,1,33.162.066c0,.074,0,.148,0,.222A16.63,16.63,0,0,1,7512.988,2491.194Z" fill="#e65416"/>
      </g>
    </g>
    <g id="Group_3391" data-name="Group 3391" transform="translate(-5701.464 -2702.821)">
      <ellipse id="Ellipse_224" data-name="Ellipse 224" cx="17.219" cy="9.559" rx="17.219" ry="9.559" transform="translate(7522.914 2549.093)" fill="#142266"/>
      <ellipse id="Ellipse_225" data-name="Ellipse 225" cx="17.219" cy="9.559" rx="17.219" ry="9.559" transform="translate(7382.499 2549.093)" fill="#142266"/>
      <ellipse id="Ellipse_226" data-name="Ellipse 226" cx="10.228" cy="5.678" rx="10.228" ry="5.678" transform="translate(7392.836 2553.88)" fill="#dc2648"/>
      <ellipse id="Ellipse_227" data-name="Ellipse 227" cx="10.228" cy="5.678" rx="10.228" ry="5.678" transform="translate(7526.56 2553.88)" fill="#dc2648"/>
      <path id="Path_10918" data-name="Path 10918" d="M7469.808,2526.474c-27.589,0-55.178,5.5-82.768,6.093a4.807,4.807,0,0,0-4.7,4.811v19.99a5.888,5.888,0,0,0,5.881,5.893l.155,0c27.142-.735,54.285-6.06,81.427-6.06s54.285,5.326,81.427,6.06a5.887,5.887,0,0,0,6.034-5.736c0-.052,0-.1,0-.155v-19.99a4.806,4.806,0,0,0-4.7-4.811C7524.986,2531.976,7497.4,2526.474,7469.808,2526.474Z" fill="#142266"/>
    </g>
    <path id="Path_360" data-name="Path 360" d="M7522.676,2463.548s11.469,9.116.99,21.278c-5.6,6.446-17.769,4.8-22-.7C7501.668,2484.13,7529.794,2487.5,7522.676,2463.548Z" transform="translate(-5701.464 -2702.821)" fill="#b5311b"/>
    <path id="Path_361" data-name="Path 361" d="M7518.961,2461.211s-5.891-3.174-13.78,1.213A32.154,32.154,0,0,1,7518.961,2461.211Z" transform="translate(-5701.464 -2702.821)" fill="#fff"/>
    <path id="Path_362" data-name="Path 362" d="M7486.608,2477.852s12.851,20.232,14.2,22.881-14.779-6.6-23.036-3.462-17.257,4.648-22.789,1.829C7454.984,2499.1,7492.809,2496.932,7486.608,2477.852Z" transform="translate(-5701.464 -2702.821)" fill="#b5311b"/>
    <path id="Path_363" data-name="Path 363" d="M7502.728,2430.391s8.211-2.752,12.146,1.679A32.807,32.807,0,0,0,7502.728,2430.391Z" transform="translate(-5701.464 -2702.821)" fill="#fff"/>
    <path id="Path_364" data-name="Path 364" d="M7503.507,2446.629s13.747-3.72,12.706-11.852c0,0,3.711,11.26-12.706,11.852" transform="translate(-5701.464 -2702.821)" fill="#b5311b"/>
    <path id="Path_365" data-name="Path 365" d="M7403.791,2513.537s5.553-3.777,18.743,1.569c5.326,2.766,12.22.041,13.376-.454,0,0-5.387,4.637-16.534.384s-15.585-1.5-15.585-1.5" transform="translate(-5701.464 -2702.821)" fill="#fff"/>
    <path id="Path_366" data-name="Path 366" d="M7509.452,2523.693s7.486-3.8,18.165,2.037c0,0,4.018.66,4.4-5.78C7532.02,2519.95,7519.91,2519.069,7509.452,2523.693Z" transform="translate(-5701.464 -2702.821)" fill="#b5311b"/>
    <path id="Path_367" data-name="Path 367" d="M7456.662,2454.664s-12.109-17.258,11.23-18.041C7467.892,2436.623,7447.744,2439.8,7456.662,2454.664Z" transform="translate(-5701.464 -2702.821)" fill="#fff"/>
    <path id="Path_368" data-name="Path 368" d="M7481.482,2449.674s-1.762,1.9-6.539,2.222a4.174,4.174,0,0,1,2.041,3.277,8.046,8.046,0,0,0-3.781-3.794A16.591,16.591,0,0,0,7481.482,2449.674Z" transform="translate(-5701.464 -2702.821)" fill="#b5311b"/>
    <path id="Path_369" data-name="Path 369" d="M7424.092,2498.1s13.249-5.128,32.268-17.426C7456.36,2480.671,7451.575,2489.345,7424.092,2498.1Z" transform="translate(-5701.464 -2702.821)" fill="#fff"/>
    <path id="Path_370" data-name="Path 370" d="M7453.264,2513.86s6.743,5.832,18.007.677C7471.271,2514.537,7456.691,2521.751,7453.264,2513.86Z" transform="translate(-5701.464 -2702.821)" fill="#fff"/>
    <g id="Group_102" data-name="Group 102" transform="translate(-5701.464 -2702.821)">
      <path id="Path_523" data-name="Path 523" d="M7449.873,2533.86q-1.534,6.534-2.9,13.082.252,2.938.5,5.879-1.766.152-3.533.323-.286-2.936-.572-5.873-2.52-6.192-5.2-12.343,1.953-.216,3.908-.406,1.266,3.006,2.5,6.022.662-3.189,1.365-6.375Q7447.9,2534,7449.873,2533.86Z" fill="#fff"/>
      <path id="Path_524" data-name="Path 524" d="M7464.653,2548.938q-1.443,1.5-2.854,3.016-2.646.094-5.291.238-1.543-1.381-3.114-2.748-.5-7.866-1.009-15.732,1.883-.121,3.767-.219.368,7.059.733,14.118.543.48,1.081.962,1.026-.051,2.056-.093.492-.528.99-1.055-.269-7.063-.537-14.126,1.885-.072,3.771-.121Q7464.448,2541.057,7464.653,2548.938Zm-7.909-20.319q.064,1.344.132,2.687-1.443.072-2.884.156-.077-1.344-.157-2.686Q7455.289,2528.691,7456.744,2528.619Zm5.614-.226q.042,1.344.084,2.689-1.443.045-2.884.1-.056-1.345-.11-2.689Q7460.9,2528.438,7462.358,2528.393Z" fill="#fff"/>
      <path id="Path_525" data-name="Path 525" d="M7477.686,2536.686q-3.371,5.747-6.5,11.565,3.1-.011,6.195.043-.029,1.758-.06,3.516-5.117-.089-10.234,0,0-1.76.01-3.517,3.056-5.86,6.359-11.655-3.318-.012-6.638.047l-.063-3.563q5.495-.1,10.99,0Q7477.716,2534.9,7477.686,2536.686Z" fill="#fff"/>
      <path id="Path_526" data-name="Path 526" d="M7490.859,2552.357q-1.77-.112-3.542-.2.2-3.818.394-7.636-1.182,2.881-2.321,5.772-.867-2.981-1.775-5.955-.143,3.821-.289,7.641-1.77-.068-3.544-.112l.48-18.686q1.885.048,3.771.12.945,2.976,1.849,5.958,1.179-2.889,2.4-5.768,1.885.1,3.767.217Q7491.451,2543.031,7490.859,2552.357Z" fill="#fff"/>
      <path id="Path_527" data-name="Path 527" d="M7504.339,2553.53q-5.551-.613-11.122-1.013.671-9.321,1.34-18.643,5.923.424,11.833,1.078-.193,1.76-.389,3.518-3.984-.439-7.977-.775-.169,2.01-.338,4.022,1.836.153,3.669.331-.169,1.761-.339,3.524-1.812-.174-3.627-.328-.17,2.012-.338,4.021,3.842.324,7.677.747Q7504.535,2551.772,7504.339,2553.53Z" fill="#fff"/>
    </g>
  </g>
</svg>
