<svg xmlns="http://www.w3.org/2000/svg" width="181" height="180.95" viewBox="0 0 181 180.95">
  <g id="karate" transform="translate(-1883.887 300.674)">
    <g id="Group_3388" data-name="Group 3388" transform="translate(-5701.464 -2702.821)">
      <g id="Group_3095" data-name="Group 3095">
        <path id="Path_10858" data-name="Path 10858" d="M7680.254,2542.405a.386.386,0,0,1,.428-.339l.016,0a22.7,22.7,0,0,0,5.729-.12c3.286-.364,6.521.562,6.408,4.75a.384.384,0,0,1-.4.372.3.3,0,0,1-.054-.006c-.665-.119-2.318-.189-6.277.447C7681.528,2548.245,7679.885,2545.561,7680.254,2542.405Z" fill="#142266"/>
        <path id="Path_10859" data-name="Path 10859" d="M7676.673,2541.885a.386.386,0,0,0,.489.241l.011,0a22.685,22.685,0,0,1,5.632-1.056c3.291-.317,6.269-1.884,5.3-5.962a.384.384,0,0,0-.464-.282.359.359,0,0,0-.051.016c-.626.254-2.23.66-6.236.849C7676.728,2535.905,7675.669,2538.871,7676.673,2541.885Z" fill="#142266"/>
      </g>
      <g id="Group_3096" data-name="Group 3096">
        <path id="Path_10860" data-name="Path 10860" d="M7694.2,2540.045a.384.384,0,0,1,.349-.42h.016a22.8,22.8,0,0,0,5.579-1.308c3.138-1.039,6.5-.807,7.256,3.314a.385.385,0,0,1-.31.446.42.42,0,0,1-.053.006c-.675.021-2.307.3-6.048,1.741C7696.666,2545.487,7694.5,2543.207,7694.2,2540.045Z" fill="#142266"/>
        <path id="Path_10861" data-name="Path 10861" d="M7690.6,2540.278a.385.385,0,0,0,.528.137l.014-.008a22.73,22.73,0,0,1,5.289-2.2c3.153-.993,5.74-3.146,3.944-6.933a.383.383,0,0,0-.512-.181.435.435,0,0,0-.046.027c-.561.378-2.044,1.109-5.923,2.127C7689.406,2534.42,7688.987,2537.539,7690.6,2540.278Z" fill="#142266"/>
      </g>
      <g id="Group_3097" data-name="Group 3097">
        <path id="Path_10862" data-name="Path 10862" d="M7707.36,2534.835a.387.387,0,0,1,.253-.484l.016,0a22.8,22.8,0,0,0,5.185-2.439c2.854-1.669,6.186-2.14,7.786,1.733a.384.384,0,0,1-.211.5.434.434,0,0,1-.05.017c-.656.161-2.194.77-5.553,2.96C7710.907,2539.65,7708.307,2537.865,7707.36,2534.835Z" fill="#142266"/>
        <path id="Path_10863" data-name="Path 10863" d="M7703.879,2535.815a.386.386,0,0,0,.545.023l.012-.011a22.681,22.681,0,0,1,4.716-3.255c2.877-1.627,4.96-4.271,2.417-7.6a.382.382,0,0,0-.537-.071.282.282,0,0,0-.041.036c-.469.486-1.769,1.51-5.351,3.312C7701.5,2530.332,7701.737,2533.469,7703.879,2535.815Z" fill="#142266"/>
      </g>
      <g id="Group_3098" data-name="Group 3098">
        <path id="Path_10864" data-name="Path 10864" d="M7719.148,2527a.387.387,0,0,1,.148-.526l.014-.007a22.81,22.81,0,0,0,4.564-3.464c2.444-2.226,5.6-3.379,7.976.076a.383.383,0,0,1-.1.532.517.517,0,0,1-.047.028c-.608.294-1.986,1.21-4.816,4.05C7723.613,2530.977,7720.707,2529.771,7719.148,2527Z" fill="#142266"/>
        <path id="Path_10865" data-name="Path 10865" d="M7715.947,2528.685a.386.386,0,0,0,.538-.088l.009-.012a22.658,22.658,0,0,1,3.936-4.164c2.476-2.19,3.964-5.209.784-7.938a.38.38,0,0,0-.573.087c-.358.573-1.417,1.844-4.546,4.352C7712.477,2523.817,7713.363,2526.837,7715.947,2528.685Z" fill="#142266"/>
      </g>
      <g id="Group_3099" data-name="Group 3099">
        <path id="Path_10866" data-name="Path 10866" d="M7729.047,2516.893a.386.386,0,0,1,.034-.545l.013-.01a22.835,22.835,0,0,0,3.744-4.338c1.928-2.685,4.781-4.47,7.818-1.584a.384.384,0,0,1,.011.543.366.366,0,0,1-.039.036c-.533.414-1.692,1.6-3.869,4.963C7734.241,2519.85,7731.147,2519.276,7729.047,2516.893Z" fill="#142266"/>
        <path id="Path_10867" data-name="Path 10867" d="M7726.266,2519.2a.385.385,0,0,0,.508-.2l.006-.014a22.707,22.707,0,0,1,2.984-4.891c1.967-2.657,2.795-5.919-.883-7.928a.383.383,0,0,0-.521.153.507.507,0,0,0-.021.047c-.231.635-1,2.1-3.542,5.2C7721.86,2515.162,7723.35,2517.932,7726.266,2519.2Z" fill="#142266"/>
      </g>
      <g id="Group_3100" data-name="Group 3100">
        <path id="Path_10868" data-name="Path 10868" d="M7736.629,2504.949a.387.387,0,0,1-.079-.541l.01-.012a22.763,22.763,0,0,0,2.761-5.021c1.327-3.028,3.746-5.367,7.318-3.175a.382.382,0,0,1,.125.526.486.486,0,0,1-.032.046c-.436.516-1.323,1.912-2.753,5.659C7742.325,2506.758,7739.179,2506.84,7736.629,2504.949Z" fill="#142266"/>
        <path id="Path_10869" data-name="Path 10869" d="M7734.39,2507.783a.387.387,0,0,0,.455-.3l0-.016a22.742,22.742,0,0,1,1.9-5.405c1.371-3.008,1.5-6.37-2.513-7.569a.382.382,0,0,0-.476.258.241.241,0,0,0-.012.054c-.094.668-.544,2.261-2.382,5.824C7729.24,2504.748,7731.278,2507.146,7734.39,2507.783Z" fill="#142266"/>
      </g>
      <g id="Group_3101" data-name="Group 3101">
        <path id="Path_10870" data-name="Path 10870" d="M7741.561,2491.681a.385.385,0,0,1-.19-.511l.008-.015a22.826,22.826,0,0,0,1.656-5.486c.669-3.237,2.548-6.029,6.5-4.626a.383.383,0,0,1,.231.49c-.006.017-.014.033-.022.05-.319.6-.9,2.146-1.516,6.108C7747.51,2492.272,7744.449,2493,7741.561,2491.681Z" fill="#142266"/>
        <path id="Path_10871" data-name="Path 10871" d="M7739.96,2494.923a.386.386,0,0,0,.382-.39v-.016a22.764,22.764,0,0,1,.737-5.682c.716-3.228.145-6.544-4.032-6.884a.385.385,0,0,0-.412.355.462.462,0,0,0,0,.052c.047.674-.062,2.325-1.119,6.193C7734.292,2493.023,7736.784,2494.947,7739.96,2494.923Z" fill="#142266"/>
      </g>
      <g id="Group_3102" data-name="Group 3102">
        <path id="Path_10872" data-name="Path 10872" d="M7743.628,2477.682a.387.387,0,0,1-.292-.462l0-.015a22.746,22.746,0,0,0,.48-5.71c-.019-3.306,1.239-6.427,5.394-5.877a.383.383,0,0,1,.328.43.3.3,0,0,1-.011.055c-.188.649-.43,2.286-.213,6.29C7749.569,2477.022,7746.728,2478.375,7743.628,2477.682Z" fill="#142266"/>
        <path id="Path_10873" data-name="Path 10873" d="M7742.739,2481.185a.386.386,0,0,0,.292-.461l0-.015a22.725,22.725,0,0,1-.461-5.711c.029-3.306-1.219-6.431-5.375-5.894a.383.383,0,0,0-.33.431.336.336,0,0,0,.011.053c.186.649.423,2.287.193,6.29C7736.8,2480.507,7739.634,2481.869,7742.739,2481.185Z" fill="#142266"/>
      </g>
      <g id="Group_3103" data-name="Group 3103">
        <path id="Path_10874" data-name="Path 10874" d="M7742.739,2463.56a.387.387,0,0,1-.381-.392v-.015a22.8,22.8,0,0,0-.718-5.685c-.706-3.229-.124-6.544,4.054-6.87a.383.383,0,0,1,.41.355.321.321,0,0,1,0,.053c-.049.674.054,2.325,1.1,6.2C7748.414,2461.679,7745.916,2463.594,7742.739,2463.56Z" fill="#142266"/>
        <path id="Path_10875" data-name="Path 10875" d="M7742.6,2467.172a.388.388,0,0,0,.191-.512l-.007-.014a22.71,22.71,0,0,1-1.639-5.49c-.658-3.24-2.529-6.037-6.483-4.648a.383.383,0,0,0-.234.488.426.426,0,0,0,.023.052c.317.6.889,2.149,1.5,6.113C7736.649,2467.747,7739.7,2468.486,7742.6,2467.172Z" fill="#142266"/>
      </g>
      <g id="Group_3104" data-name="Group 3104">
        <path id="Path_10876" data-name="Path 10876" d="M7738.933,2449.931a.388.388,0,0,1-.455-.3l0-.016a22.793,22.793,0,0,0-1.884-5.411c-1.362-3.012-1.482-6.375,2.537-7.562a.382.382,0,0,1,.475.259c0,.018.009.036.012.055.092.669.536,2.263,2.364,5.833C7744.1,2446.912,7742.047,2449.3,7738.933,2449.931Z" fill="#142266"/>
        <path id="Path_10877" data-name="Path 10877" d="M7739.543,2453.494a.386.386,0,0,0,.081-.54l-.01-.013a22.779,22.779,0,0,1-2.744-5.03c-1.318-3.032-3.729-5.379-7.307-3.2a.382.382,0,0,0-.125.528.29.29,0,0,0,.031.044c.434.517,1.317,1.917,2.734,5.668C7733.841,2455.29,7736.987,2455.38,7739.543,2453.494Z" fill="#142266"/>
      </g>
      <g id="Group_3105" data-name="Group 3105">
        <path id="Path_10878" data-name="Path 10878" d="M7732.377,2437.39a.386.386,0,0,1-.507-.2l-.006-.014a22.718,22.718,0,0,0-2.968-4.9c-1.958-2.663-2.775-5.928.91-7.925a.384.384,0,0,1,.52.156c.008.016.016.033.022.05.229.635,1,2.1,3.524,5.214C7736.795,2433.364,7735.292,2436.129,7732.377,2437.39Z" fill="#142266"/>
        <path id="Path_10879" data-name="Path 10879" d="M7733.714,2440.749a.386.386,0,0,0-.034-.545l-.012-.01a22.764,22.764,0,0,1-3.73-4.35c-1.919-2.692-4.766-4.487-7.813-1.609a.383.383,0,0,0-.014.542c.012.013.026.025.04.037.532.416,1.687,1.6,3.853,4.976C7728.51,2443.691,7731.606,2443.126,7733.714,2440.749Z" fill="#142266"/>
      </g>
      <g id="Group_3106" data-name="Group 3106">
        <path id="Path_10880" data-name="Path 10880" d="M7723.356,2426.486a.387.387,0,0,1-.538-.093l-.009-.013a22.776,22.776,0,0,0-3.922-4.177c-2.469-2.2-3.947-5.222-.758-7.94a.384.384,0,0,1,.541.045c.011.014.022.028.032.043.356.574,1.411,1.849,4.531,4.367C7726.841,2421.63,7725.946,2424.646,7723.356,2426.486Z" fill="#142266"/>
        <path id="Path_10881" data-name="Path 10881" d="M7725.363,2429.5a.386.386,0,0,0-.147-.526l-.013-.007a22.8,22.8,0,0,1-4.553-3.479c-2.437-2.234-5.594-3.4-7.976.05a.383.383,0,0,0,.1.532.429.429,0,0,0,.048.029c.607.3,1.982,1.216,4.8,4.066C7720.885,2433.453,7723.795,2432.256,7725.363,2429.5Z" fill="#142266"/>
      </g>
      <g id="Group_3107" data-name="Group 3107">
        <path id="Path_10882" data-name="Path 10882" d="M7712.267,2417.7a.388.388,0,0,1-.546.022l-.011-.011a22.752,22.752,0,0,0-4.7-3.271c-2.872-1.637-4.946-4.287-2.392-7.609a.382.382,0,0,1,.537-.069.267.267,0,0,1,.041.037c.468.487,1.764,1.516,5.34,3.329C7714.666,2412.223,7714.417,2415.359,7712.267,2417.7Z" fill="#142266"/>
        <path id="Path_10883" data-name="Path 10883" d="M7714.855,2420.222a.387.387,0,0,0-.252-.485l-.016,0a22.784,22.784,0,0,1-5.177-2.456c-2.848-1.678-6.178-2.16-7.792,1.708a.382.382,0,0,0,.207.5.446.446,0,0,0,.053.018c.655.163,2.192.777,5.544,2.978C7711.3,2425.026,7713.9,2423.25,7714.855,2420.222Z" fill="#142266"/>
      </g>
      <g id="Group_3108" data-name="Group 3108">
        <path id="Path_10884" data-name="Path 10884" d="M7699.59,2411.405a.386.386,0,0,1-.529.134l-.014-.008a22.674,22.674,0,0,0-5.282-2.221c-3.15-1-5.729-3.165-3.922-6.946a.385.385,0,0,1,.513-.179.389.389,0,0,1,.046.027c.559.379,2.041,1.116,5.916,2.146C7700.8,2405.551,7701.208,2408.671,7699.59,2411.405Z" fill="#142266"/>
        <path id="Path_10885" data-name="Path 10885" d="M7702.643,2413.337a.386.386,0,0,0-.348-.421h-.015a22.785,22.785,0,0,1-5.574-1.326c-3.135-1.05-6.493-.829-7.266,3.29a.384.384,0,0,0,.308.447.458.458,0,0,0,.054.006c.675.024,2.306.3,6.042,1.76C7700.166,2418.776,7702.343,2416.5,7702.643,2413.337Z" fill="#142266"/>
      </g>
      <g id="Group_3109" data-name="Group 3109">
        <path id="Path_10886" data-name="Path 10886" d="M7671.746,2542.405a.387.387,0,0,0-.429-.339l-.015,0a22.7,22.7,0,0,1-5.729-.12c-3.286-.364-6.521.562-6.408,4.75a.383.383,0,0,0,.394.372.315.315,0,0,0,.055-.006c.665-.119,2.318-.189,6.277.447C7670.469,2548.245,7672.112,2545.561,7671.746,2542.405Z" fill="#142266"/>
        <path id="Path_10887" data-name="Path 10887" d="M7675.323,2541.885a.387.387,0,0,1-.49.241l-.01,0a22.7,22.7,0,0,0-5.632-1.056c-3.291-.317-6.269-1.884-5.3-5.962a.383.383,0,0,1,.464-.282.422.422,0,0,1,.051.016c.626.254,2.23.66,6.236.849C7675.272,2535.905,7676.327,2538.871,7675.323,2541.885Z" fill="#142266"/>
      </g>
      <g id="Group_3110" data-name="Group 3110">
        <path id="Path_10888" data-name="Path 10888" d="M7657.793,2540.045a.386.386,0,0,0-.349-.42h-.016a22.787,22.787,0,0,1-5.579-1.308c-3.138-1.039-6.5-.807-7.256,3.314a.385.385,0,0,0,.309.446.455.455,0,0,0,.054.006c.675.021,2.306.3,6.047,1.741C7655.33,2545.487,7657.5,2543.207,7657.793,2540.045Z" fill="#142266"/>
        <path id="Path_10889" data-name="Path 10889" d="M7661.4,2540.278a.387.387,0,0,1-.529.137l-.013-.008a22.769,22.769,0,0,0-5.289-2.2c-3.153-.993-5.74-3.146-3.945-6.933a.383.383,0,0,1,.512-.181.505.505,0,0,1,.047.027c.56.378,2.044,1.109,5.923,2.127C7662.59,2534.42,7663.009,2537.539,7661.4,2540.278Z" fill="#142266"/>
      </g>
      <g id="Group_3111" data-name="Group 3111">
        <path id="Path_10890" data-name="Path 10890" d="M7644.636,2534.835a.387.387,0,0,0-.254-.484l-.015,0a22.755,22.755,0,0,1-5.185-2.439c-2.854-1.669-6.187-2.14-7.786,1.733a.384.384,0,0,0,.21.5c.017.007.033.012.05.017.657.161,2.194.77,5.553,2.96C7641.093,2539.65,7643.687,2537.865,7644.636,2534.835Z" fill="#142266"/>
        <path id="Path_10891" data-name="Path 10891" d="M7648.116,2535.815a.387.387,0,0,1-.546.023l-.011-.011a22.71,22.71,0,0,0-4.716-3.255c-2.877-1.627-4.96-4.271-2.417-7.6a.383.383,0,0,1,.537-.071.443.443,0,0,1,.041.036c.469.486,1.769,1.51,5.351,3.312C7650.5,2530.332,7650.259,2533.469,7648.116,2535.815Z" fill="#142266"/>
      </g>
      <g id="Group_3112" data-name="Group 3112">
        <path id="Path_10892" data-name="Path 10892" d="M7632.851,2527a.387.387,0,0,0-.148-.526l-.014-.007a22.754,22.754,0,0,1-4.564-3.464c-2.444-2.226-5.6-3.379-7.976.076a.384.384,0,0,0,.148.56c.608.294,1.986,1.21,4.817,4.05C7628.385,2530.977,7631.295,2529.771,7632.851,2527Z" fill="#142266"/>
        <path id="Path_10893" data-name="Path 10893" d="M7636.051,2528.685a.386.386,0,0,1-.539-.088l-.008-.012a22.741,22.741,0,0,0-3.936-4.164c-2.476-2.19-3.964-5.209-.784-7.938a.38.38,0,0,1,.573.087c.358.573,1.417,1.844,4.546,4.352C7639.52,2523.817,7638.634,2526.837,7636.051,2528.685Z" fill="#142266"/>
      </g>
      <g id="Group_3113" data-name="Group 3113">
        <path id="Path_10894" data-name="Path 10894" d="M7622.947,2516.893a.387.387,0,0,0-.036-.545l-.012-.01a22.768,22.768,0,0,1-3.744-4.338c-1.928-2.685-4.781-4.47-7.818-1.584a.384.384,0,0,0-.012.543.334.334,0,0,0,.04.036c.534.414,1.692,1.6,3.869,4.963C7617.755,2519.85,7620.847,2519.276,7622.947,2516.893Z" fill="#142266"/>
        <path id="Path_10895" data-name="Path 10895" d="M7625.731,2519.2a.385.385,0,0,1-.508-.2l-.006-.014a22.763,22.763,0,0,0-2.984-4.891c-1.967-2.657-2.794-5.919.884-7.928a.382.382,0,0,1,.52.153.341.341,0,0,1,.022.047c.231.635,1,2.1,3.541,5.2C7630.137,2515.162,7628.642,2517.932,7625.731,2519.2Z" fill="#142266"/>
      </g>
      <g id="Group_3114" data-name="Group 3114">
        <path id="Path_10896" data-name="Path 10896" d="M7615.367,2504.949a.387.387,0,0,0,.079-.541l-.01-.012a22.784,22.784,0,0,1-2.761-5.021c-1.328-3.028-3.746-5.367-7.318-3.175a.382.382,0,0,0-.126.526.5.5,0,0,0,.033.046c.436.516,1.323,1.912,2.753,5.659C7609.667,2506.758,7612.818,2506.84,7615.367,2504.949Z" fill="#142266"/>
        <path id="Path_10897" data-name="Path 10897" d="M7617.607,2507.783a.386.386,0,0,1-.455-.3l0-.016a22.785,22.785,0,0,0-1.9-5.405c-1.371-3.008-1.5-6.37,2.513-7.569a.382.382,0,0,1,.476.258.363.363,0,0,1,.012.054c.094.668.544,2.261,2.383,5.824C7622.757,2504.748,7620.723,2507.146,7617.607,2507.783Z" fill="#142266"/>
      </g>
      <g id="Group_3115" data-name="Group 3115">
        <path id="Path_10898" data-name="Path 10898" d="M7610.436,2491.681a.386.386,0,0,0,.189-.511l-.007-.015a22.716,22.716,0,0,1-1.656-5.486c-.669-3.237-2.548-6.029-6.5-4.626a.385.385,0,0,0-.233.489c.007.017.014.034.023.051.319.6.9,2.146,1.516,6.108C7604.487,2492.272,7607.55,2493,7610.436,2491.681Z" fill="#142266"/>
        <path id="Path_10899" data-name="Path 10899" d="M7612.038,2494.923a.388.388,0,0,1-.383-.39v-.016a22.74,22.74,0,0,0-.736-5.682c-.716-3.228-.146-6.544,4.031-6.884a.383.383,0,0,1,.411.352.346.346,0,0,1,0,.055c-.047.674.062,2.325,1.12,6.193C7617.705,2493.023,7615.213,2494.947,7612.038,2494.923Z" fill="#142266"/>
      </g>
      <g id="Group_3116" data-name="Group 3116">
        <path id="Path_10900" data-name="Path 10900" d="M7608.368,2477.682a.387.387,0,0,0,.292-.462l0-.015a22.7,22.7,0,0,1-.48-5.71c.019-3.306-1.239-6.427-5.394-5.877a.383.383,0,0,0-.329.43.349.349,0,0,0,.012.055c.188.649.43,2.286.213,6.29C7602.427,2477.022,7605.268,2478.375,7608.368,2477.682Z" fill="#142266"/>
        <path id="Path_10901" data-name="Path 10901" d="M7609.261,2481.185a.388.388,0,0,1-.293-.461l0-.015a22.725,22.725,0,0,0,.461-5.711c-.029-3.306,1.219-6.431,5.375-5.894a.384.384,0,0,1,.33.431c0,.018-.006.035-.011.053-.186.649-.423,2.287-.193,6.29C7615.2,2480.507,7612.363,2481.869,7609.261,2481.185Z" fill="#142266"/>
      </g>
      <g id="Group_3117" data-name="Group 3117">
        <path id="Path_10902" data-name="Path 10902" d="M7609.255,2463.56a.386.386,0,0,0,.38-.392v-.015a22.757,22.757,0,0,1,.718-5.685c.706-3.229.124-6.544-4.054-6.87a.383.383,0,0,0-.411.353.52.52,0,0,0,0,.055c.049.674-.055,2.325-1.1,6.2C7603.584,2461.679,7606.082,2463.594,7609.255,2463.56Z" fill="#142266"/>
        <path id="Path_10903" data-name="Path 10903" d="M7609.4,2467.172a.387.387,0,0,1-.191-.512l.007-.014a22.8,22.8,0,0,0,1.639-5.49c.659-3.24,2.529-6.037,6.483-4.648a.382.382,0,0,1,.233.488.359.359,0,0,1-.022.052c-.317.6-.889,2.149-1.5,6.113C7615.353,2467.747,7612.295,2468.486,7609.4,2467.172Z" fill="#142266"/>
      </g>
      <g id="Group_3118" data-name="Group 3118">
        <path id="Path_10904" data-name="Path 10904" d="M7613.063,2449.931a.387.387,0,0,0,.454-.3l0-.016a22.706,22.706,0,0,1,1.884-5.411c1.362-3.012,1.482-6.375-2.537-7.562a.383.383,0,0,0-.476.259.348.348,0,0,0-.011.055c-.092.669-.536,2.263-2.364,5.833C7607.9,2446.912,7609.949,2449.3,7613.063,2449.931Z" fill="#142266"/>
        <path id="Path_10905" data-name="Path 10905" d="M7612.453,2453.494a.385.385,0,0,1-.081-.54l.01-.013a22.78,22.78,0,0,0,2.744-5.03c1.318-3.032,3.729-5.379,7.307-3.2a.382.382,0,0,1,.126.526.355.355,0,0,1-.032.046c-.434.517-1.316,1.917-2.734,5.668C7618.155,2455.29,7615.009,2455.38,7612.453,2453.494Z" fill="#142266"/>
      </g>
      <g id="Group_3119" data-name="Group 3119">
        <path id="Path_10906" data-name="Path 10906" d="M7619.62,2437.39a.386.386,0,0,0,.507-.2l.006-.014a22.7,22.7,0,0,1,2.968-4.9c1.958-2.663,2.775-5.928-.91-7.925a.382.382,0,0,0-.519.156.288.288,0,0,0-.022.05c-.229.635-1,2.1-3.525,5.214C7615.2,2433.364,7616.7,2436.129,7619.62,2437.39Z" fill="#142266"/>
        <path id="Path_10907" data-name="Path 10907" d="M7618.282,2440.749a.386.386,0,0,1,.034-.545l.012-.01a22.764,22.764,0,0,0,3.73-4.35c1.919-2.692,4.766-4.487,7.813-1.609a.383.383,0,0,1,.012.542.462.462,0,0,1-.039.037c-.532.416-1.686,1.6-3.853,4.976C7623.486,2443.691,7620.39,2443.126,7618.282,2440.749Z" fill="#142266"/>
      </g>
      <g id="Group_3120" data-name="Group 3120">
        <path id="Path_10908" data-name="Path 10908" d="M7628.641,2426.486a.387.387,0,0,0,.538-.093l.009-.013a22.742,22.742,0,0,1,3.922-4.177c2.469-2.2,3.947-5.222.758-7.94a.384.384,0,0,0-.541.045.313.313,0,0,0-.032.043c-.356.574-1.411,1.849-4.532,4.367C7625.156,2421.63,7626.051,2424.646,7628.641,2426.486Z" fill="#142266"/>
        <path id="Path_10909" data-name="Path 10909" d="M7626.634,2429.5a.387.387,0,0,1,.146-.526l.014-.007a22.832,22.832,0,0,0,4.553-3.479c2.437-2.234,5.594-3.4,7.976.05a.384.384,0,0,1-.1.533.3.3,0,0,1-.046.028c-.607.3-1.983,1.216-4.8,4.066C7631.113,2433.453,7628.2,2432.256,7626.634,2429.5Z" fill="#142266"/>
      </g>
      <g id="Group_3121" data-name="Group 3121">
        <path id="Path_10910" data-name="Path 10910" d="M7639.731,2417.7a.386.386,0,0,0,.545.022l.012-.011a22.709,22.709,0,0,1,4.7-3.271c2.872-1.637,4.946-4.287,2.392-7.609a.383.383,0,0,0-.539-.067.29.29,0,0,0-.039.035c-.468.487-1.764,1.516-5.34,3.329C7637.332,2412.223,7637.58,2415.359,7639.731,2417.7Z" fill="#142266"/>
        <path id="Path_10911" data-name="Path 10911" d="M7637.143,2420.222a.386.386,0,0,1,.252-.485l.016,0a22.823,22.823,0,0,0,5.177-2.456c2.848-1.678,6.179-2.16,7.792,1.708a.383.383,0,0,1-.207.5c-.018.007-.035.013-.053.018-.655.163-2.192.777-5.544,2.978C7640.7,2425.026,7638.1,2423.25,7637.143,2420.222Z" fill="#142266"/>
      </g>
      <g id="Group_3122" data-name="Group 3122">
        <path id="Path_10912" data-name="Path 10912" d="M7652.407,2411.405a.386.386,0,0,0,.529.134l.014-.008a22.648,22.648,0,0,1,5.282-2.221c3.15-1,5.729-3.165,3.922-6.946a.384.384,0,0,0-.513-.179.389.389,0,0,0-.046.027c-.559.379-2.041,1.116-5.916,2.146C7651.2,2405.551,7650.789,2408.671,7652.407,2411.405Z" fill="#142266"/>
        <path id="Path_10913" data-name="Path 10913" d="M7649.35,2413.337a.385.385,0,0,1,.348-.421h.016a22.8,22.8,0,0,0,5.574-1.326c3.135-1.05,6.493-.829,7.266,3.29a.382.382,0,0,1-.307.446.328.328,0,0,1-.055.007c-.675.024-2.3.3-6.042,1.76C7651.831,2418.776,7649.658,2416.5,7649.35,2413.337Z" fill="#142266"/>
      </g>
    </g>
    <g id="Group_3389" data-name="Group 3389" transform="translate(-5701.464 -2702.821)">
      <g id="Group_3124" data-name="Group 3124">
        <path id="Path_10914" data-name="Path 10914" d="M7675.852,2562.664l-76.121-77.573-2.5,10.058,78.621,80.121,78.621-80.121-2.5-10.058Z" fill="#e65416"/>
        <path id="Path_10915" data-name="Path 10915" d="M7751.973,2485.09l-2.833-11.4c-31.187-3.9-51.662-17.144-63.632-28.04a99.24,99.24,0,0,1-9.656-10.114,99.3,99.3,0,0,1-9.656,10.114c-11.97,10.9-32.444,24.144-63.632,28.04l-2.833,11.4,76.121,77.573Z" fill="#b5311b"/>
      </g>
      <path id="Path_10916" data-name="Path 10916" d="M7758.295,2463.321c-62.61-4.005-82.444-46.74-82.444-46.74s-19.835,42.735-82.444,46.74l-8.056,31.144,90.5,88.632,90.5-88.632Zm-161.066,31.828,5.334-21.457c31.188-3.9,51.662-17.144,63.632-28.04a99.324,99.324,0,0,0,9.656-10.114,99.159,99.159,0,0,0,9.656,10.114c11.97,10.9,32.444,24.144,63.632,28.04l5.334,21.457-78.621,80.121Z" fill="#142266"/>
    </g>
    <g id="Group_64" data-name="Group 64" transform="translate(-5701.464 -2702.821)">
      <g id="Group_61" data-name="Group 61">
        <g id="Path_7347" data-name="Path 7347">
          <g id="Group_59" data-name="Group 59">
            <path id="Path_323" data-name="Path 323" d="M7628.042,2471.532a18.35,18.35,0,0,0,4.484,4.407c1.5,1,1.4.948.281,2.331a17.368,17.368,0,0,0-3.286,7.173,38.415,38.415,0,0,0-.867,10.785c.076,1.152-.306,1.64-1.426,1.742-1.07.078-2.115.333-3.185.436-.764.077-1.02.487-1.045,1.178-.025,1.588-.1,3.2-.1,4.79,0,.665-.153,1.025-.867,1.123-.842.128-1.685.333-2.528.538a.876.876,0,0,1-.942-.23,20.521,20.521,0,0,1-2.6-3.331,1.933,1.933,0,0,1,.332-2.587c1.966-1.741,2.247-3.817,2.037-6.378a71.838,71.838,0,0,1,1.35-18.368,108.009,108.009,0,0,1,5.579-20.314,34.894,34.894,0,0,1,1.809-3.817c.356-.64.407-.973-.255-1.46a11.031,11.031,0,0,1-4.687-11.22,7.558,7.558,0,0,1,4.967-5.918c6.139-2.561,9.807.59,11.947,5.507a8.442,8.442,0,0,1,.739,2.179c.128.87.51.742,1.02.435,1.554-.9,3.057-1.871,4.634-2.691a25.366,25.366,0,0,1,9.578-2.178c8.024-.842,16.05-1.435,24.074-2.126,2.14-.18,2.471.1,2.725,2.2.076.641.128,1.281.153,1.947a3,3,0,0,1-3.011,3,2.95,2.95,0,0,1-.377-.025c-.789-.1-.485-.615-.51-1.05-.025-.41.281-1.025-.432-1.153-.739-.128-.638.461-.688.923-.1.82-.562.561-.995.307-.942-.538-1.528-.358-1.685.795-.05.281-.2.562-.281.842-.585,1.9-.611,2.024-2.547,1.538a11.128,11.128,0,0,0-9.615,2.24c-.407.307-.816.59-1.248.9-1.606,1.178-1.606,1.178-.433,2.741,2.879,3.894,6.267,4.56,10.392,2.049,7.541-4.586,15-9.268,22.137-14.474a40.542,40.542,0,0,0,3.974-4.124,124.613,124.613,0,0,1,18.443-14.526,57.923,57.923,0,0,1,10.343-5.815c2.527-1.025,2.7-.307,3.158,1.685a27.782,27.782,0,0,1,.764,4.587c.076,1.1-.281,1.563-1.452,1.511a22.9,22.9,0,0,0-8.1,1.05,9.167,9.167,0,0,0-5.782,5.04,21.092,21.092,0,0,1-5.451,7.941c-.562.461-.407.923-.281,1.486.382,1.716.713,3.432,1.07,5.175.178.9-.178,1.2-1.1,1.435-4.688,1.23-9.268,2.766-12.358,6.89a23.019,23.019,0,0,0-3.489,8.352c-1.249,4.79-2.294,9.606-3.694,14.346a166.487,166.487,0,0,0-4.712,18.573,46.723,46.723,0,0,0-.306,15.191c.28,1.87.484,3.766.917,5.617.178.82,0,1.256-.917,1.434-1.555.281-3.09.692-4.635,1a1.2,1.2,0,0,0-.842.615c-.739,1.1-.562,2.843-2.247,3.331-.382.1-.306.512.076.64a2.26,2.26,0,0,0,1.019.025c.739-.179.867.078.79.8-.307,2.408-.917,4.714-1.427,7.071-.688,3.048-1.631,6.07-2.038,9.171a9.618,9.618,0,0,0,1.274,5.66c2.012,4.1,1.685,3.407-1.528,5.328-3.108,1.871-6.292,3.612-9.425,5.431a5.218,5.218,0,0,1-4.1.307c-.382-.1-.892-.2-1.02-.665-.153-.562.306-.871.663-1.153a45.688,45.688,0,0,0,5.6-5.278,9.894,9.894,0,0,0,2.669-6.968c0-11.477-.255-22.927-.51-34.4a54.686,54.686,0,0,0-1.58-9.914c-1.248-5.9-2.65-11.758-2.6-17.835,0-1.05-.407-1.178-1.223-.9a47.872,47.872,0,0,1-8.865,2.049,41.454,41.454,0,0,1-15.693-.41A36.989,36.989,0,0,1,7628.042,2471.532Zm39.073-3.612a1.928,1.928,0,0,1,.535.333,30.037,30.037,0,0,1,4.712,9.325,64.321,64.321,0,0,1,2.089,10.989c.1.768.2,1.435,1.172.59a9.519,9.519,0,0,1,1.63-.973.83.83,0,0,0,.382-1.1,64.055,64.055,0,0,0-5.273-14.551,16,16,0,0,0-6.292-6.763,23.9,23.9,0,0,1-.128,4.893,1.387,1.387,0,0,0,.485-.641C7666.693,2469.329,7666.891,2468.663,7667.115,2467.92Zm8-32.611a1.853,1.853,0,0,0-1.927,1.777,1.888,1.888,0,0,0,.042.477c.026.385.051.692.535.692.46,0,.586-.256.562-.666-.05-.717.1-1.28.968-1.332.306-.025.637-.1.585-.513C7675.832,2435.206,7675.4,2435.361,7675.119,2435.309Zm-1.911,78.312c.076.46-.128,1.153.611,1.178.814.051.432-.64.432-1.05a.774.774,0,0,1,.562-.871c.357-.128,1.045-.025.789-.692-.2-.562-.814-.333-1.248-.231a1.527,1.527,0,0,0-1.145,1.667Z" fill="none" stroke="#142266" stroke-width="14"/>
          </g>
          <g id="Group_60" data-name="Group 60">
            <path id="Path_324" data-name="Path 324" d="M7628.042,2471.532a18.35,18.35,0,0,0,4.484,4.407c1.5,1,1.4.948.281,2.331a17.368,17.368,0,0,0-3.286,7.173,38.415,38.415,0,0,0-.867,10.785c.076,1.152-.306,1.64-1.426,1.742-1.07.078-2.115.333-3.185.436-.764.077-1.02.487-1.045,1.178-.025,1.588-.1,3.2-.1,4.79,0,.665-.153,1.025-.867,1.123-.842.128-1.685.333-2.528.538a.876.876,0,0,1-.942-.23,20.521,20.521,0,0,1-2.6-3.331,1.933,1.933,0,0,1,.332-2.587c1.966-1.741,2.247-3.817,2.037-6.378a71.838,71.838,0,0,1,1.35-18.368,108.009,108.009,0,0,1,5.579-20.314,34.894,34.894,0,0,1,1.809-3.817c.356-.64.407-.973-.255-1.46a11.031,11.031,0,0,1-4.687-11.22,7.558,7.558,0,0,1,4.967-5.918c6.139-2.561,9.807.59,11.947,5.507a8.442,8.442,0,0,1,.739,2.179c.128.87.51.742,1.02.435,1.554-.9,3.057-1.871,4.634-2.691a25.366,25.366,0,0,1,9.578-2.178c8.024-.842,16.05-1.435,24.074-2.126,2.14-.18,2.471.1,2.725,2.2.076.641.128,1.281.153,1.947a3,3,0,0,1-3.011,3,2.95,2.95,0,0,1-.377-.025c-.789-.1-.485-.615-.51-1.05-.025-.41.281-1.025-.432-1.153-.739-.128-.638.461-.688.923-.1.82-.562.561-.995.307-.942-.538-1.528-.358-1.685.795-.05.281-.2.562-.281.842-.585,1.9-.611,2.024-2.547,1.538a11.128,11.128,0,0,0-9.615,2.24c-.407.307-.816.59-1.248.9-1.606,1.178-1.606,1.178-.433,2.741,2.879,3.894,6.267,4.56,10.392,2.049,7.541-4.586,15-9.268,22.137-14.474a40.542,40.542,0,0,0,3.974-4.124,124.613,124.613,0,0,1,18.443-14.526,57.923,57.923,0,0,1,10.343-5.815c2.527-1.025,2.7-.307,3.158,1.685a27.782,27.782,0,0,1,.764,4.587c.076,1.1-.281,1.563-1.452,1.511a22.9,22.9,0,0,0-8.1,1.05,9.167,9.167,0,0,0-5.782,5.04,21.092,21.092,0,0,1-5.451,7.941c-.562.461-.407.923-.281,1.486.382,1.716.713,3.432,1.07,5.175.178.9-.178,1.2-1.1,1.435-4.688,1.23-9.268,2.766-12.358,6.89a23.019,23.019,0,0,0-3.489,8.352c-1.249,4.79-2.294,9.606-3.694,14.346a166.487,166.487,0,0,0-4.712,18.573,46.723,46.723,0,0,0-.306,15.191c.28,1.87.484,3.766.917,5.617.178.82,0,1.256-.917,1.434-1.555.281-3.09.692-4.635,1a1.2,1.2,0,0,0-.842.615c-.739,1.1-.562,2.843-2.247,3.331-.382.1-.306.512.076.64a2.26,2.26,0,0,0,1.019.025c.739-.179.867.078.79.8-.307,2.408-.917,4.714-1.427,7.071-.688,3.048-1.631,6.07-2.038,9.171a9.618,9.618,0,0,0,1.274,5.66c2.012,4.1,1.685,3.407-1.528,5.328-3.108,1.871-6.292,3.612-9.425,5.431a5.218,5.218,0,0,1-4.1.307c-.382-.1-.892-.2-1.02-.665-.153-.562.306-.871.663-1.153a45.688,45.688,0,0,0,5.6-5.278,9.894,9.894,0,0,0,2.669-6.968c0-11.477-.255-22.927-.51-34.4a54.686,54.686,0,0,0-1.58-9.914c-1.248-5.9-2.65-11.758-2.6-17.835,0-1.05-.407-1.178-1.223-.9a47.872,47.872,0,0,1-8.865,2.049,41.454,41.454,0,0,1-15.693-.41A36.989,36.989,0,0,1,7628.042,2471.532Zm39.073-3.612a1.928,1.928,0,0,1,.535.333,30.037,30.037,0,0,1,4.712,9.325,64.321,64.321,0,0,1,2.089,10.989c.1.768.2,1.435,1.172.59a9.519,9.519,0,0,1,1.63-.973.83.83,0,0,0,.382-1.1,64.055,64.055,0,0,0-5.273-14.551,16,16,0,0,0-6.292-6.763,23.9,23.9,0,0,1-.128,4.893,1.387,1.387,0,0,0,.485-.641C7666.693,2469.329,7666.891,2468.663,7667.115,2467.92Zm8-32.611a1.853,1.853,0,0,0-1.927,1.777,1.888,1.888,0,0,0,.042.477c.026.385.051.692.535.692.46,0,.586-.256.562-.666-.05-.717.1-1.28.968-1.332.306-.025.637-.1.585-.513C7675.832,2435.206,7675.4,2435.361,7675.119,2435.309Zm-1.911,78.312c.076.46-.128,1.153.611,1.178.814.051.432-.64.432-1.05a.774.774,0,0,1,.562-.871c.357-.128,1.045-.025.789-.692-.2-.562-.814-.333-1.248-.231a1.527,1.527,0,0,0-1.145,1.667Z" fill="none" stroke="#142266" stroke-width="14"/>
          </g>
          <path id="Path_325" data-name="Path 325" d="M7628.042,2471.532a18.35,18.35,0,0,0,4.484,4.407c1.5,1,1.4.948.281,2.331a17.368,17.368,0,0,0-3.286,7.173,38.415,38.415,0,0,0-.867,10.785c.076,1.152-.306,1.64-1.426,1.742-1.07.078-2.115.333-3.185.436-.764.077-1.02.487-1.045,1.178-.025,1.588-.1,3.2-.1,4.79,0,.665-.153,1.025-.867,1.123-.842.128-1.685.333-2.528.538a.876.876,0,0,1-.942-.23,20.521,20.521,0,0,1-2.6-3.331,1.933,1.933,0,0,1,.332-2.587c1.966-1.741,2.247-3.817,2.037-6.378a71.838,71.838,0,0,1,1.35-18.368,108.009,108.009,0,0,1,5.579-20.314,34.894,34.894,0,0,1,1.809-3.817c.356-.64.407-.973-.255-1.46a11.031,11.031,0,0,1-4.687-11.22,7.558,7.558,0,0,1,4.967-5.918c6.139-2.561,9.807.59,11.947,5.507a8.442,8.442,0,0,1,.739,2.179c.128.87.51.742,1.02.435,1.554-.9,3.057-1.871,4.634-2.691a25.366,25.366,0,0,1,9.578-2.178c8.024-.842,16.05-1.435,24.074-2.126,2.14-.18,2.471.1,2.725,2.2.076.641.128,1.281.153,1.947a3,3,0,0,1-3.011,3,2.95,2.95,0,0,1-.377-.025c-.789-.1-.485-.615-.51-1.05-.025-.41.281-1.025-.432-1.153-.739-.128-.638.461-.688.923-.1.82-.562.561-.995.307-.942-.538-1.528-.358-1.685.795-.05.281-.2.562-.281.842-.585,1.9-.611,2.024-2.547,1.538a11.128,11.128,0,0,0-9.615,2.24c-.407.307-.816.59-1.248.9-1.606,1.178-1.606,1.178-.433,2.741,2.879,3.894,6.267,4.56,10.392,2.049,7.541-4.586,15-9.268,22.137-14.474a40.542,40.542,0,0,0,3.974-4.124,124.613,124.613,0,0,1,18.443-14.526,57.923,57.923,0,0,1,10.343-5.815c2.527-1.025,2.7-.307,3.158,1.685a27.782,27.782,0,0,1,.764,4.587c.076,1.1-.281,1.563-1.452,1.511a22.9,22.9,0,0,0-8.1,1.05,9.167,9.167,0,0,0-5.782,5.04,21.092,21.092,0,0,1-5.451,7.941c-.562.461-.407.923-.281,1.486.382,1.716.713,3.432,1.07,5.175.178.9-.178,1.2-1.1,1.435-4.688,1.23-9.268,2.766-12.358,6.89a23.019,23.019,0,0,0-3.489,8.352c-1.249,4.79-2.294,9.606-3.694,14.346a166.487,166.487,0,0,0-4.712,18.573,46.723,46.723,0,0,0-.306,15.191c.28,1.87.484,3.766.917,5.617.178.82,0,1.256-.917,1.434-1.555.281-3.09.692-4.635,1a1.2,1.2,0,0,0-.842.615c-.739,1.1-.562,2.843-2.247,3.331-.382.1-.306.512.076.64a2.26,2.26,0,0,0,1.019.025c.739-.179.867.078.79.8-.307,2.408-.917,4.714-1.427,7.071-.688,3.048-1.631,6.07-2.038,9.171a9.618,9.618,0,0,0,1.274,5.66c2.012,4.1,1.685,3.407-1.528,5.328-3.108,1.871-6.292,3.612-9.425,5.431a5.218,5.218,0,0,1-4.1.307c-.382-.1-.892-.2-1.02-.665-.153-.562.306-.871.663-1.153a45.688,45.688,0,0,0,5.6-5.278,9.894,9.894,0,0,0,2.669-6.968c0-11.477-.255-22.927-.51-34.4a54.686,54.686,0,0,0-1.58-9.914c-1.248-5.9-2.65-11.758-2.6-17.835,0-1.05-.407-1.178-1.223-.9a47.872,47.872,0,0,1-8.865,2.049,41.454,41.454,0,0,1-15.693-.41A36.989,36.989,0,0,1,7628.042,2471.532Zm39.073-3.612a1.928,1.928,0,0,1,.535.333,30.037,30.037,0,0,1,4.712,9.325,64.321,64.321,0,0,1,2.089,10.989c.1.768.2,1.435,1.172.59a9.519,9.519,0,0,1,1.63-.973.83.83,0,0,0,.382-1.1,64.055,64.055,0,0,0-5.273-14.551,16,16,0,0,0-6.292-6.763,23.9,23.9,0,0,1-.128,4.893,1.387,1.387,0,0,0,.485-.641C7666.693,2469.329,7666.891,2468.663,7667.115,2467.92Zm8-32.611a1.853,1.853,0,0,0-1.927,1.777,1.888,1.888,0,0,0,.042.477c.026.385.051.692.535.692.46,0,.586-.256.562-.666-.05-.717.1-1.28.968-1.332.306-.025.637-.1.585-.513C7675.832,2435.206,7675.4,2435.361,7675.119,2435.309Zm-1.911,78.312c.076.46-.128,1.153.611,1.178.814.051.432-.64.432-1.05a.774.774,0,0,1,.562-.871c.357-.128,1.045-.025.789-.692-.2-.562-.814-.333-1.248-.231a1.527,1.527,0,0,0-1.145,1.667Z" fill="none" stroke="#142266" stroke-width="14"/>
        </g>
        <path id="Path_7348" data-name="Path 7348" d="M7662.332,2476.477a17.419,17.419,0,0,0-.867,4.816,20.457,20.457,0,0,0,1.146,5.405,19.1,19.1,0,0,1,.562,10.427,22.574,22.574,0,0,1-2.6,5.559c-.407.641-.867.562-1.427.231a23.425,23.425,0,0,0-2.446-1.405c-.942-.435-.866-.842-.229-1.511a12.743,12.743,0,0,0,3.21-5.712,22.633,22.633,0,0,0,.128-8.069,15.865,15.865,0,0,1,.2-6.66A5.373,5.373,0,0,1,7662.332,2476.477Z" fill="none" stroke="#142266" stroke-width="14"/>
      </g>
      <g id="Group_63" data-name="Group 63">
        <g id="Path_7347-2" data-name="Path 7347">
          <g id="Group_62" data-name="Group 62">
            <path id="Path_326" data-name="Path 326" d="M7628.042,2471.532a18.35,18.35,0,0,0,4.484,4.407c1.5,1,1.4.948.281,2.331a17.368,17.368,0,0,0-3.286,7.173,38.415,38.415,0,0,0-.867,10.785c.076,1.152-.306,1.64-1.426,1.742-1.07.078-2.115.333-3.185.436-.764.077-1.02.487-1.045,1.178-.025,1.588-.1,3.2-.1,4.79,0,.665-.153,1.025-.867,1.123-.842.128-1.685.333-2.528.538a.876.876,0,0,1-.942-.23,20.521,20.521,0,0,1-2.6-3.331,1.933,1.933,0,0,1,.332-2.587c1.966-1.741,2.247-3.817,2.037-6.378a71.838,71.838,0,0,1,1.35-18.368,108.009,108.009,0,0,1,5.579-20.314,34.894,34.894,0,0,1,1.809-3.817c.356-.64.407-.973-.255-1.46a11.031,11.031,0,0,1-4.687-11.22,7.558,7.558,0,0,1,4.967-5.918c6.139-2.561,9.807.59,11.947,5.507a8.442,8.442,0,0,1,.739,2.179c.128.87.51.742,1.02.435,1.554-.9,3.057-1.871,4.634-2.691a25.366,25.366,0,0,1,9.578-2.178c8.024-.842,16.05-1.435,24.074-2.126,2.14-.18,2.471.1,2.725,2.2.076.641.128,1.281.153,1.947a3,3,0,0,1-3.011,3,2.95,2.95,0,0,1-.377-.025c-.789-.1-.485-.615-.51-1.05-.025-.41.281-1.025-.432-1.153-.739-.128-.638.461-.688.923-.1.82-.562.561-.995.307-.942-.538-1.528-.358-1.685.795-.05.281-.2.562-.281.842-.585,1.9-.611,2.024-2.547,1.538a11.128,11.128,0,0,0-9.615,2.24c-.407.307-.816.59-1.248.9-1.606,1.178-1.606,1.178-.433,2.741,2.879,3.894,6.267,4.56,10.392,2.049,7.541-4.586,15-9.268,22.137-14.474a40.542,40.542,0,0,0,3.974-4.124,124.613,124.613,0,0,1,18.443-14.526,57.923,57.923,0,0,1,10.343-5.815c2.527-1.025,2.7-.307,3.158,1.685a27.782,27.782,0,0,1,.764,4.587c.076,1.1-.281,1.563-1.452,1.511a22.9,22.9,0,0,0-8.1,1.05,9.167,9.167,0,0,0-5.782,5.04,21.092,21.092,0,0,1-5.451,7.941c-.562.461-.407.923-.281,1.486.382,1.716.713,3.432,1.07,5.175.178.9-.178,1.2-1.1,1.435-4.688,1.23-9.268,2.766-12.358,6.89a23.019,23.019,0,0,0-3.489,8.352c-1.249,4.79-2.294,9.606-3.694,14.346a166.487,166.487,0,0,0-4.712,18.573,46.723,46.723,0,0,0-.306,15.191c.28,1.87.484,3.766.917,5.617.178.82,0,1.256-.917,1.434-1.555.281-3.09.692-4.635,1a1.2,1.2,0,0,0-.842.615c-.739,1.1-.562,2.843-2.247,3.331-.382.1-.306.512.076.64a2.26,2.26,0,0,0,1.019.025c.739-.179.867.078.79.8-.307,2.408-.917,4.714-1.427,7.071-.688,3.048-1.631,6.07-2.038,9.171a9.618,9.618,0,0,0,1.274,5.66c2.012,4.1,1.685,3.407-1.528,5.328-3.108,1.871-6.292,3.612-9.425,5.431a5.218,5.218,0,0,1-4.1.307c-.382-.1-.892-.2-1.02-.665-.153-.562.306-.871.663-1.153a45.688,45.688,0,0,0,5.6-5.278,9.894,9.894,0,0,0,2.669-6.968c0-11.477-.255-22.927-.51-34.4a54.686,54.686,0,0,0-1.58-9.914c-1.248-5.9-2.65-11.758-2.6-17.835,0-1.05-.407-1.178-1.223-.9a47.872,47.872,0,0,1-8.865,2.049,41.454,41.454,0,0,1-15.693-.41A36.989,36.989,0,0,1,7628.042,2471.532Zm39.073-3.612a1.928,1.928,0,0,1,.535.333,30.037,30.037,0,0,1,4.712,9.325,64.321,64.321,0,0,1,2.089,10.989c.1.768.2,1.435,1.172.59a9.519,9.519,0,0,1,1.63-.973.83.83,0,0,0,.382-1.1,64.055,64.055,0,0,0-5.273-14.551,16,16,0,0,0-6.292-6.763,23.9,23.9,0,0,1-.128,4.893,1.387,1.387,0,0,0,.485-.641C7666.693,2469.329,7666.891,2468.663,7667.115,2467.92Zm8-32.611a1.853,1.853,0,0,0-1.927,1.777,1.888,1.888,0,0,0,.042.477c.026.385.051.692.535.692.46,0,.586-.256.562-.666-.05-.717.1-1.28.968-1.332.306-.025.637-.1.585-.513C7675.832,2435.206,7675.4,2435.361,7675.119,2435.309Zm-1.911,78.312c.076.46-.128,1.153.611,1.178.814.051.432-.64.432-1.05a.774.774,0,0,1,.562-.871c.357-.128,1.045-.025.789-.692-.2-.562-.814-.333-1.248-.231a1.527,1.527,0,0,0-1.145,1.667Z" fill="#e65416"/>
          </g>
        </g>
        <path id="Path_7348-2" data-name="Path 7348" d="M7662.332,2476.477a17.419,17.419,0,0,0-.867,4.816,20.457,20.457,0,0,0,1.146,5.405,19.1,19.1,0,0,1,.562,10.427,22.574,22.574,0,0,1-2.6,5.559c-.407.641-.867.562-1.427.231a23.425,23.425,0,0,0-2.446-1.405c-.942-.435-.866-.842-.229-1.511a12.743,12.743,0,0,0,3.21-5.712,22.633,22.633,0,0,0,.128-8.069,15.865,15.865,0,0,1,.2-6.66A5.373,5.373,0,0,1,7662.332,2476.477Z" fill="#e65416"/>
      </g>
    </g>
    <g id="Group_3391" data-name="Group 3391" transform="translate(-5701.464 -2702.821)">
      <ellipse id="Ellipse_224" data-name="Ellipse 224" cx="17.219" cy="9.559" rx="17.219" ry="9.559" transform="translate(7728.812 2549.093)" fill="#142266"/>
      <ellipse id="Ellipse_225" data-name="Ellipse 225" cx="17.219" cy="9.559" rx="17.219" ry="9.559" transform="translate(7588.397 2549.093)" fill="#142266"/>
      <ellipse id="Ellipse_226" data-name="Ellipse 226" cx="10.228" cy="5.678" rx="10.228" ry="5.678" transform="translate(7598.734 2553.88)" fill="#dc2648"/>
      <ellipse id="Ellipse_227" data-name="Ellipse 227" cx="10.228" cy="5.678" rx="10.228" ry="5.678" transform="translate(7732.458 2553.88)" fill="#dc2648"/>
      <path id="Path_10918" data-name="Path 10918" d="M7675.706,2526.474c-27.589,0-55.178,5.5-82.768,6.093a4.807,4.807,0,0,0-4.7,4.811v19.99a5.888,5.888,0,0,0,5.881,5.893l.155,0c27.142-.735,54.285-6.06,81.427-6.06s54.285,5.326,81.427,6.06a5.887,5.887,0,0,0,6.034-5.736c0-.052,0-.1,0-.155v-19.99a4.806,4.806,0,0,0-4.695-4.811C7730.884,2531.976,7703.295,2526.474,7675.706,2526.474Z" fill="#142266"/>
      <g id="Group_66" data-name="Group 66">
        <g id="Group_65" data-name="Group 65">
          <path id="Path_327" data-name="Path 327" d="M7649.6,2552.327q-1.816.141-3.631.3-1.451-4.326-2.953-8.64-.8,1.7-1.589,3.4.281,2.807.56,5.613-1.766.177-3.53.371-1.026-9.29-2.051-18.579,1.861-.2,3.725-.391.293,2.935.586,5.871,1.452-3.109,2.968-6.208,2.153-.193,4.3-.36-1.4,2.772-2.751,5.554Q7647.486,2545.781,7649.6,2552.327Z" fill="#fff"/>
          <path id="Path_328" data-name="Path 328" d="M7659.492,2551.71q-.149-.643-.3-1.285-1.729.082-3.461.185-.092.656-.182,1.311-1.794.108-3.588.233,1.2-9.453,2.6-18.9,1.981-.117,3.962-.212,2.4,9.242,4.6,18.513Q7661.311,2551.624,7659.492,2551.71Zm-1.187-4.762q-.645-2.531-1.3-5.06-.387,2.585-.756,5.17Q7657.274,2547,7658.305,2546.948Z" fill="#fff"/>
          <path id="Path_329" data-name="Path 329" d="M7674.033,2543.373q1.155,3.972,2.259,7.95-1.845,0-3.688.014-1.086-3.778-2.218-7.549l-1.5.026q.073,3.788.148,7.574-1.773.034-3.544.088-.282-9.341-.563-18.683,4.339-.13,8.677-.156,1.566,1.453,3.11,2.922-.007,2.62-.015,5.239Q7675.356,2542.081,7674.033,2543.373Zm-1-4.2q-.01-1-.015-2c-.364-.328-.728-.655-1.1-.982q-1.592.018-3.184.049.04,2.016.079,4.035,1.575-.031,3.149-.048Q7672.5,2539.7,7673.033,2539.178Z" fill="#fff"/>
          <path id="Path_330" data-name="Path 330" d="M7686.572,2551.5c-.066-.436-.13-.87-.195-1.305q-1.731-.054-3.464-.091c-.1.431-.192.861-.287,1.292q-1.8-.036-3.593-.054,1.947-9.327,4.1-18.631,1.985.042,3.965.1,1.659,9.4,3.114,18.821Q7688.391,2551.555,7686.572,2551.5Zm-.8-4.842q-.438-2.576-.9-5.148-.59,2.547-1.166,5.094Q7684.738,2546.626,7685.768,2546.655Z" fill="#fff"/>
          <path id="Path_331" data-name="Path 331" d="M7700.525,2537.041q-1.712-.12-3.427-.224-.458,7.563-.914,15.124-1.77-.108-3.54-.195.378-7.568.756-15.133-1.726-.087-3.455-.156.071-1.768.142-3.537,5.344.215,10.686.59Q7700.648,2535.276,7700.525,2537.041Z" fill="#fff"/>
          <path id="Path_332" data-name="Path 332" d="M7712.942,2553.372q-5.552-.614-11.119-1.043.718-9.318,1.439-18.636,5.87.453,11.732,1.1-.193,1.76-.389,3.519-3.957-.437-7.921-.784-.176,2.01-.353,4.02,1.825.16,3.649.339-.172,1.763-.346,3.524-1.8-.178-3.613-.336-.177,2.01-.352,4.019,3.836.338,7.662.76Q7713.136,2551.612,7712.942,2553.372Z" fill="#fff"/>
        </g>
      </g>
    </g>
    <path id="Path_371" data-name="Path 371" d="M7636.655,2436.161s4.349,5.984-2.472,10.282c-3.639,2.271-9.367-.251-10.673-3.477C7623.51,2442.966,7636.811,2448.595,7636.655,2436.161Z" transform="translate(-5701.464 -2702.821)" fill="#b5311b"/>
    <path id="Path_372" data-name="Path 372" d="M7635.161,2434.515s-2.443-2.355-6.915-1.391A16.8,16.8,0,0,1,7635.161,2434.515Z" transform="translate(-5701.464 -2702.821)" fill="#fff"/>
    <path id="Path_373" data-name="Path 373" d="M7628.72,2469.043s19.3,12.321,34.379,2.66C7663.1,2471.7,7654.451,2479.237,7628.72,2469.043Z" transform="translate(-5701.464 -2702.821)" fill="#b5311b"/>
    <path id="Path_374" data-name="Path 374" d="M7640.861,2441.738s4.808-6.083,18.959-5.577C7659.82,2436.161,7643.338,2438.718,7640.861,2441.738Z" transform="translate(-5701.464 -2702.821)" fill="#fff"/>
    <path id="Path_375" data-name="Path 375" d="M7676.727,2434.3s4.438-1.207,4.892,1.053C7681.619,2435.355,7678.977,2433.828,7676.727,2434.3Z" transform="translate(-5701.464 -2702.821)" fill="#fff"/>
    <path id="Path_376" data-name="Path 376" d="M7681.127,2437.712s.371,2.945-2.78,2.422C7678.347,2440.134,7679.654,2440.5,7681.127,2437.712Z" transform="translate(-5701.464 -2702.821)" fill="#b5311b"/>
    <path id="Path_377" data-name="Path 377" d="M7693.705,2449.262s-13.294,34.716-12.086,47.018C7681.619,2496.28,7675.89,2481.6,7693.705,2449.262Z" transform="translate(-5701.464 -2702.821)" fill="#b5311b"/>
    <path id="Path_378" data-name="Path 378" d="M7695.631,2435.307s12.441-13.393,18.5-15.871C7714.127,2419.436,7699.6,2430.371,7695.631,2435.307Z" transform="translate(-5701.464 -2702.821)" fill="#fff"/>
    <path id="Path_379" data-name="Path 379" d="M7707.156,2434.757a21.429,21.429,0,0,1-7.864,10.065c4.6-2.971,5.352-3.027,8.254-3.5C7707.546,2441.325,7706.57,2439.177,7707.156,2434.757Z" transform="translate(-5701.464 -2702.821)" fill="#b5311b"/>
    <path id="Path_380" data-name="Path 380" d="M7723.058,2413.815s4.17-2.7,4.809-1.156a6.067,6.067,0,0,1,.6,2.312S7727.792,2410.959,7723.058,2413.815Z" transform="translate(-5701.464 -2702.821)" fill="#fff"/>
    <path id="Path_381" data-name="Path 381" d="M7721.662,2420.008a8.8,8.8,0,0,1,5.843-1.062c.911.016.421-2.511.421-2.511Z" transform="translate(-5701.464 -2702.821)" fill="#b5311b"/>
    <path id="Path_382" data-name="Path 382" d="M7617.13,2501.675s.391,4.514,3.722,3.55C7620.852,2505.225,7618.584,2504.95,7617.13,2501.675Z" transform="translate(-5701.464 -2702.821)" fill="#b5311b"/>
    <path id="Path_383" data-name="Path 383" d="M7631.367,2477.014a27.409,27.409,0,0,0-3.607,18.325S7623.525,2490,7631.367,2477.014Z" transform="translate(-5701.464 -2702.821)" fill="#b5311b"/>
    <path id="Path_384" data-name="Path 384" d="M7657.375,2446.657s2.807,11.89,14.036,4.789C7671.411,2451.446,7661.627,2457.6,7657.375,2446.657Z" transform="translate(-5701.464 -2702.821)" fill="#b5311b"/>
    <path id="Path_385" data-name="Path 385" d="M7661.709,2486.177s3.262,8.865-1.61,15.924C7660.1,2502.1,7663.237,2497.5,7661.709,2486.177Z" transform="translate(-5701.464 -2702.821)" fill="#b5311b"/>
  </g>
</svg>
