<svg xmlns="http://www.w3.org/2000/svg" width="106.1" height="100.1" viewBox="0 0 106.1 100.1"><path d="M103.1,12h-3V9.7a3.714,3.714,0,0,0-3.7-3.8H94v-3a2.85,2.85,0,0,0-5.7-.1V12H17.7V3A3.005,3.005,0,0,0,14.6.1a2.9,2.9,0,0,0-3,2.8V5.8h-2A3.691,3.691,0,0,0,5.9,9.5h0V12h-3a2.85,2.85,0,0,0-.1,5.7H5.9v2.2a3.866,3.866,0,0,0,3.7,3.9h2v2.8a3.005,3.005,0,0,0,3.1,2.9,2.968,2.968,0,0,0,2.9-2.9V17.7H28.2a4.477,4.477,0,0,0,.4,2l.3.7A50.933,50.933,0,0,0,46.7,43.3V64a4.1,4.1,0,0,0,.1,1.1A104.207,104.207,0,0,1,25.9,90.5l-.1.1a5.382,5.382,0,0,0-.5,7.6,5.277,5.277,0,0,0,4,1.9,5.6,5.6,0,0,0,3.5-1.3l.1-.1A116.23,116.23,0,0,0,55,72.3,40.78,40.78,0,0,1,71.3,95.4l.1.4a5.261,5.261,0,0,0,5.2,4,5.853,5.853,0,0,0,1.3-.2,5.331,5.331,0,0,0,3.9-6.5l-.1-.4A51.025,51.025,0,0,0,62.8,64.6V43.8a50.724,50.724,0,0,0,18.6-24l.1-.1a6.279,6.279,0,0,0,.3-1.9h6.6v8.9a2.85,2.85,0,0,0,5.7.1V23.4h2.4a3.671,3.671,0,0,0,3.7-3.6h0V17.7h3a2.818,2.818,0,0,0,2.9-2.8v-.1a2.775,2.775,0,0,0-2.7-2.8ZM62.8,29.8a8.448,8.448,0,0,0-11-4.8,8.636,8.636,0,0,0-4.7,4.5,39.112,39.112,0,0,1-7.8-11.8H70.6a36.971,36.971,0,0,1-7.8,12.1Z" fill="#0b0539"/></svg>