<svg id="Group_720" data-name="Group 720" xmlns="http://www.w3.org/2000/svg" viewBox="0 0 300.324 68.727">
  <defs>
    <style>
      .cls-1 {
        fill: #70bf46;
        fill-rule: evenodd;
      }
    </style>
  </defs>
  <path id="Path_7215" data-name="Path 7215" class="cls-1" d="M45.912,149.39a.107.107,0,0,1,.121.121,2.821,2.821,0,0,0,.2,2.145,2.212,2.212,0,0,0,1.9.769,4.28,4.28,0,0,0,2.226-.607A3.227,3.227,0,0,0,51.821,150a1.485,1.485,0,0,0-.4-1.74,6.906,6.906,0,0,0-1.862-.769l-.162-.04a5.2,5.2,0,0,1-2.1-1.012,1.865,1.865,0,0,1-.243-1.862,3.627,3.627,0,0,1,1.619-2.145,4.45,4.45,0,0,1,2.509-.729,2.7,2.7,0,0,1,2.226.85,2.487,2.487,0,0,1,.324,2.388c0,.04-.081.081-.121.081h-.4c-.081,0-.121-.081-.121-.162a1.972,1.972,0,0,0-.243-1.9,2.184,2.184,0,0,0-1.781-.648,3.7,3.7,0,0,0-2.024.567,3.223,3.223,0,0,0-1.3,1.7,1.394,1.394,0,0,0,.2,1.336,3.422,3.422,0,0,0,1.781.809.542.542,0,0,0,.2.04,7.247,7.247,0,0,1,2.1.89,1.868,1.868,0,0,1,.526,2.186,4.241,4.241,0,0,1-1.781,2.388,5.309,5.309,0,0,1-2.752.769,2.809,2.809,0,0,1-2.388-.971,3.131,3.131,0,0,1-.324-2.631c0-.04.081-.081.121-.081h.486Zm13.6-7.366.081-.04h.567c.04,0,.121.04.121.081l.85,10.645a.129.129,0,0,1-.121.121h-.486c-.04,0-.121-.04-.121-.081l-.283-3.521H55.343l-2.469,3.6-.081.04h-.486c-.121,0-.162-.081-.081-.162Zm.567,6.516-.445-5.586-3.845,5.586Zm5.221-6.516c0-.04.081-.081.121-.081h.486a.107.107,0,0,1,.121.121l-1.376,4.614h6.516l1.417-4.655c0-.04.081-.081.121-.081h.486a.107.107,0,0,1,.121.121l-3.2,10.645c0,.04-.081.081-.121.081h-.486a.107.107,0,0,1-.121-.121l1.579-5.343H64.409l-1.619,5.383c0,.04-.081.081-.121.081h-.486a.107.107,0,0,1-.121-.121ZM84.849,144.9a3.96,3.96,0,0,1-3.157,2.874,8.586,8.586,0,0,1-1.7.121H77.725l-1.457,4.857c0,.04-.081.081-.121.081h-.486a.107.107,0,0,1-.121-.121l3.2-10.645c0-.04.081-.081.121-.081h2.914C84.323,141.943,85.416,142.914,84.849,144.9Zm-5.586-2.267-1.376,4.655h1.9A7.1,7.1,0,0,0,82.3,147a3,3,0,0,0,1.821-2.186c.364-1.214-.04-1.9-1.214-2.1a8.637,8.637,0,0,0-1.659-.081Zm12.3.769a5.845,5.845,0,0,1,4.169-1.7,3.213,3.213,0,0,1,3.238,1.7,5.691,5.691,0,0,1-.081,4.007,8.744,8.744,0,0,1-2.307,3.967,5.979,5.979,0,0,1-4.169,1.659c-1.619,0-2.712-.567-3.2-1.7a5.773,5.773,0,0,1,.04-3.967A8.963,8.963,0,0,1,91.568,143.4Zm-1.7,7.528a2.562,2.562,0,0,0,2.671,1.5,4.949,4.949,0,0,0,3.643-1.5,8.332,8.332,0,0,0,2.024-3.521,5.267,5.267,0,0,0,.081-3.521,2.6,2.6,0,0,0-2.671-1.5,4.961,4.961,0,0,0-3.643,1.538,8.332,8.332,0,0,0-2.024,3.521A5.409,5.409,0,0,0,89.868,150.928Zm12.547-8.9c0-.04.081-.081.121-.081h.486a.107.107,0,0,1,.121.121l-3,10.038h5.5a.129.129,0,0,1,.121.121l-.162.486c0,.04-.081.081-.121.081H99.339a.107.107,0,0,1-.121-.121Zm7.609,0c0-.04.081-.081.121-.081h.729c.04,0,.081.04.121.081l1.579,7.285,5.828-7.326.081-.04h.688a.107.107,0,0,1,.121.121l-3.2,10.645c0,.04-.081.081-.121.081h-.445a.107.107,0,0,1-.121-.121l2.833-9.512-5.747,7.043-.081.04h-.283c-.04,0-.081-.04-.121-.081l-1.659-7.083-2.914,9.633c0,.04-.081.081-.121.081h-.445c-.081,0-.121-.04-.081-.121Zm14.369,0,.081-.04h.567c.04,0,.121.04.121.081l.85,10.645a.129.129,0,0,1-.121.121H125.4c-.04,0-.121-.04-.121-.081L125,149.228h-4.817l-2.469,3.6-.081.04h-.486c-.121,0-.162-.081-.081-.162Zm.567,6.516-.445-5.586-3.845,5.586Zm5.221-6.516c0-.04.081-.081.121-.081h.486c.04,0,.081.04.121.081l3.643,9.512,2.833-9.512c0-.04.081-.081.121-.081h.486a.107.107,0,0,1,.121.121l-3.2,10.645c0,.04-.081.081-.121.081h-.486a.087.087,0,0,1-.081-.081l-3.643-9.512-2.833,9.471c0,.04-.081.081-.121.081h-.486a.107.107,0,0,1-.121-.121Zm10.281,0c0-.04.081-.081.121-.081h.486a.107.107,0,0,1,.121.121l-3.2,10.645c0,.04-.081.081-.121.081h-.486c-.081,0-.121-.04-.081-.121Zm3.076,0c0-.04.081-.081.121-.081h.486c.04,0,.081.04.121.081l3.643,9.512,2.833-9.512c0-.04.081-.081.121-.081h.486a.107.107,0,0,1,.121.121l-3.2,10.645c0,.04-.081.081-.121.081h-.486c-.04,0-.081-.04-.121-.081L143.9,143.2l-2.833,9.471c0,.04-.081.081-.121.081h-.486c-.081,0-.121-.04-.081-.121Zm14.854,5.99L156.53,142.1c-.04-.081,0-.162.121-.162h.567c.04,0,.081.04.121.081L159,147.286l4.816-5.3.081-.04h.567c.121,0,.162.081.081.162l-5.424,5.95-1.376,4.655c0,.04-.081.081-.121.081h-.486a.107.107,0,0,1-.121-.121Zm7.285-5.99c0-.04.081-.081.121-.081h6.516a.107.107,0,0,1,.121.121l-.162.486c0,.04-.081.081-.121.081h-5.909L164.99,146.8H169.6a.107.107,0,0,1,.121.121l-.121.445c0,.04-.081.081-.121.081h-4.655l-1.376,4.614h5.909c.081,0,.121.081.081.121l-.162.486c0,.04-.081.081-.121.081h-6.638a.107.107,0,0,1-.121-.121Zm8.5,0c0-.04.081-.081.081-.081h.526c.04,0,.081.04.121.081l3.643,9.512,2.833-9.512c0-.04.081-.081.121-.081h.486a.107.107,0,0,1,.121.121l-3.2,10.645c0,.04-.081.081-.121.081h-.526a.087.087,0,0,1-.081-.081l-3.643-9.512-2.833,9.471c0,.04-.081.081-.121.081H171.1a.107.107,0,0,1-.121-.121Zm17.971,5.99-1.862-5.909c-.04-.081,0-.162.081-.162h.567a.087.087,0,0,1,.081.081l1.659,5.262,4.817-5.3.081-.04h.567c.121,0,.162.081.081.162l-5.383,5.99-1.417,4.655c0,.04-.081.081-.121.081h-.486c-.081,0-.121-.04-.081-.121Zm7.569-4.614a5.845,5.845,0,0,1,4.169-1.7,3.213,3.213,0,0,1,3.238,1.7,5.889,5.889,0,0,1-.04,4.007,8.744,8.744,0,0,1-2.307,3.967,5.979,5.979,0,0,1-4.169,1.659c-1.619,0-2.712-.567-3.2-1.7a5.773,5.773,0,0,1,.04-3.967A8.543,8.543,0,0,1,199.717,143.4Zm-1.7,7.528a2.562,2.562,0,0,0,2.671,1.5,5.014,5.014,0,0,0,3.643-1.5,8.332,8.332,0,0,0,2.024-3.521,5.267,5.267,0,0,0,.081-3.521,2.6,2.6,0,0,0-2.671-1.5,4.961,4.961,0,0,0-3.643,1.538,8.332,8.332,0,0,0-2.024,3.521A5.409,5.409,0,0,0,198.017,150.928Zm12.547-8.9c0-.04.081-.081.121-.081h.486a.107.107,0,0,1,.121.121L208.257,152.1h5.5a.129.129,0,0,1,.121.121l-.162.486c0,.04-.081.081-.121.081h-6.152a.107.107,0,0,1-.121-.121Zm8.135-.081a.107.107,0,0,1,.121.121l-2.024,6.719c-.729,2.469,0,3.6,2.1,3.6a3.957,3.957,0,0,0,2.793-1.012,5.948,5.948,0,0,0,1.579-2.671l2.024-6.678c0-.04.081-.081.121-.081h.486c.081,0,.121.04.081.121l-2.064,6.921a5.79,5.79,0,0,1-1.9,2.955,5.052,5.052,0,0,1-3.238,1.093,2.945,2.945,0,0,1-2.631-1.093,3.523,3.523,0,0,1-.162-3l2.064-6.921c0-.04.081-.081.121-.081h.526Zm-143.079.081c0-.04.081-.081.121-.081h.486a.107.107,0,0,1,.121.121l-.364,1.174c0,.04-.081.081-.121.081h-.486a.107.107,0,0,1-.121-.121Zm-.81,2.752c0-.04.081-.081.121-.081h.486c.081,0,.121.081.121.162l-2.388,7.933c0,.04-.081.081-.121.081h-.486a.107.107,0,0,1-.121-.121Zm109.647-2.752c0-.04.081-.081.121-.081h.486a.107.107,0,0,1,.121.121l-.364,1.174c0,.04-.081.081-.121.081h-.486a.107.107,0,0,1-.121-.121Zm-.809,2.752c0-.04.081-.081.121-.081h.486c.081,0,.121.081.121.162l-2.388,7.933c0,.04-.081.081-.121.081h-.486a.107.107,0,0,1-.121-.121Z" transform="translate(-26.889 -84.347)"/>
  <g id="Group_719" data-name="Group 719">
    <path id="Path_7216" data-name="Path 7216" class="cls-1" d="M24.973,2.5,9.35,70.215H0L15.623,2.5Z" transform="translate(0 -1.488)"/>
    <path id="Path_7217" data-name="Path 7217" class="cls-1" d="M74.564,5.3A24.59,24.59,0,0,1,77.4,3.157,18.94,18.94,0,0,1,87.759,0c6.314,0,13.681,3.845,13.681,12.183a28.263,28.263,0,0,1-1.052,7.569l-6.355,27.2h-9.35L91.2,18.74a19.345,19.345,0,0,0,.607-4.9c0-2.833-1.457-5.95-6.516-5.95a13.56,13.56,0,0,0-8.419,2.752c-3.521,2.833-5.019,6.436-6.8,13.923l-5.14,22.383H55.5L66.1,1.133h9.431Z" transform="translate(-33.036)"/>
    <path id="Path_7218" data-name="Path 7218" class="cls-1" d="M204.7,2.681l-1.781,7.731h-7.731L189.8,33.644a35.654,35.654,0,0,0-1.012,5.424c0,1.376.81,1.659,2.226,1.659a9.07,9.07,0,0,0,1.255-.121c.688-.121,1.7-.283,3.6-.607l1.538-.283L195.633,47.2l-.486.2a18.335,18.335,0,0,1-7.366,1.376c-5.909,0-8.257-3.117-8.257-7.164a31.585,31.585,0,0,1,1.052-7.043l5.586-24.244H179.2L180.981,2.6H204.7Z" transform="translate(-106.669 -1.548)"/>
    <path id="Path_7219" data-name="Path 7219" class="cls-1" d="M360.861,5.719a20.939,20.939,0,0,1,1.619-1.457,13.9,13.9,0,0,1,1.336-1.093A11.832,11.832,0,0,1,365.718,2a13.368,13.368,0,0,1,5.95-1.3,15.6,15.6,0,0,1,1.9.081l1.093.162L372.64,9.726l-.85-.04c-2.509-.081-4.817-.162-7.528,1.457-5.343,3.2-7.245,10.766-8.176,14.814l-4.938,21.452H342L352.523,1.55h9.309Z" transform="translate(-203.576 -0.417)"/>
    <path id="Path_7220" data-name="Path 7220" class="cls-1" d="M455.475,31.813l-.526,1.214a25.6,25.6,0,0,1-10.483,12.3,23.518,23.518,0,0,1-11.657,2.631c-2.914,0-7.852-.283-12.223-3.44-7.124-5.059-7.285-13.478-7.285-15.988C413.3,13.923,422.771,0,438.8,0c11.454,0,17.526,6.557,18.133,14.166l.081.85-8.743,2.145-.243-1.012c-.648-2.833-2.024-8.135-9.512-8.135-9.714,0-15.623,10.685-15.623,20.076,0,6.516,3.319,12.466,10.523,12.466a11.241,11.241,0,0,0,6.516-1.983c3.44-2.226,4.533-4.938,5.464-7.326l.283-.769Z" transform="translate(-246.017)"/>
    <path id="Path_7221" data-name="Path 7221" class="cls-1" d="M269.694,18.416v-.931c0-6.678-4.452-9.876-8.743-9.876-2.793,0-10.119,1.619-13.64,10.807Zm7.852,14.369-.486,1.174C272.285,45.777,261.6,48,255.083,48c-11.454,0-18.983-7.447-18.983-19.63C236.1,14.854,244.8,0,261.4,0c12.142,0,17.485,8.176,17.485,18.983a31.816,31.816,0,0,1-.567,5.95l-.162.85H245.409c-.04.769-.121,1.457-.121,2.226,0,10.321,7.69,12.264,11.333,12.264a12.177,12.177,0,0,0,4.371-.85c4.614-1.781,6.152-5.1,7.245-7.488l.324-.729Z" transform="translate(-140.539 0)"/>
    <path id="Path_7222" data-name="Path 7222" class="cls-1" d="M532.114,2.5,516.45,70.215H507.1L522.723,2.5Z" transform="translate(-301.851 -1.488)"/>
    <path id="Path_7223" data-name="Path 7223" class="cls-1" d="M598.3,2.8l-1.781,7.731h-7.731L583.4,33.723a35.651,35.651,0,0,0-1.012,5.424c0,1.376.809,1.659,2.226,1.659a9.071,9.071,0,0,0,1.255-.121c.688-.121,1.7-.283,3.6-.607l1.538-.283-1.781,7.488-.445.2a18.336,18.336,0,0,1-7.367,1.376c-5.95,0-8.3-3.117-8.3-7.164a31.577,31.577,0,0,1,1.052-7.043l5.586-24.244H572.8L574.5,2.8h23.8Z" transform="translate(-340.959 -1.667)"/>
    <path id="Path_7224" data-name="Path 7224" class="cls-1" d="M660.57,2.8l-34,57.434c-3.966,6.638-6.274,9.876-15.1,9.876a31.4,31.4,0,0,1-5.181-.364l-1.093-.162,1.983-8.338.971.162a20.259,20.259,0,0,0,3.238.243,9.232,9.232,0,0,0,1.7-.121,7.756,7.756,0,0,0,2.348-.931,7.171,7.171,0,0,0,1.943-2.024c.688-.931,1.3-1.9,1.619-2.388l5.586-9.512L619.609,2.8h9.228l3.2,32.623L650.087,2.8H660.57Z" transform="translate(-360.245 -1.667)"/>
  </g>
</svg>
