<svg xmlns="http://www.w3.org/2000/svg" xmlns:xlink="http://www.w3.org/1999/xlink" width="20" height="10" viewBox="0 0 20 10"><defs><path id="4g3pa" d="M315.124 3152.677a12.64 12.64 0 0 1-2.953 1.484c.92-.788 1.498-1.913 1.498-3.161s-.577-2.373-1.498-3.161c1.185.404 2.193.971 2.953 1.484a14.4 14.4 0 0 1 2.05 1.677c-.402.4-1.108 1.042-2.05 1.677zm-6.124 1.826c-2.092 0-3.794-1.572-3.794-3.503 0-.303.042-.596.12-.877l-.866-.134a3.99 3.99 0 0 0-.13 1.011c0 1.248.578 2.373 1.498 3.161a12.637 12.637 0 0 1-2.953-1.484 14.396 14.396 0 0 1-2.05-1.677 14.405 14.405 0 0 1 2.05-1.677c.76-.513 1.768-1.08 2.953-1.484l.581.605a3.954 3.954 0 0 1 2.59-.947c2.092 0 3.794 1.572 3.794 3.503s-1.702 3.503-3.793 3.503zm9.656-3.904c-.04-.047-1.01-1.17-2.67-2.297-2.22-1.506-4.636-2.302-6.986-2.302-2.35 0-4.766.796-6.986 2.302-1.661 1.127-2.63 2.25-2.67 2.297L299 3151l.343.401c.04.047 1.01 1.17 2.671 2.297 2.22 1.506 4.636 2.302 6.986 2.302 2.35 0 4.765-.796 6.985-2.302 1.662-1.127 2.63-2.25 2.671-2.297L319 3151z"/><path id="4g3pb" d="M306.586 3150.32c-.072.215-.11.443-.11.68 0 1.287 1.13 2.33 2.524 2.33 1.393 0 2.523-1.043 2.523-2.33 0-1.287-1.13-2.33-2.523-2.33-.68 0-1.295.248-1.749.65l1.245 1.296z"/></defs><g><g transform="translate(-299 -3146)"><use fill="#fff" xlink:href="#4g3pa"/></g><g transform="translate(-299 -3146)"><use fill="#fff" xlink:href="#4g3pb"/></g></g></svg>