<svg xmlns="http://www.w3.org/2000/svg" width="181" height="180.95" viewBox="0 0 181 180.95">
  <g id="judo" transform="translate(-171.346 306)">
    <g id="Group_3393" data-name="Group 3393" transform="translate(-5701.464 -2702.821)">
      <g id="Group_3388" data-name="Group 3388">
        <g id="Group_3095" data-name="Group 3095">
          <path id="Path_10858" data-name="Path 10858" d="M5967.713,2537.079a.388.388,0,0,1,.429-.339l.015,0a22.786,22.786,0,0,0,5.729-.12c3.286-.364,6.521.561,6.408,4.75a.383.383,0,0,1-.394.371.34.34,0,0,1-.055,0c-.665-.119-2.318-.189-6.277.446C5968.987,2542.919,5967.344,2540.235,5967.713,2537.079Z" fill="#142266"/>
          <path id="Path_10859" data-name="Path 10859" d="M5964.132,2536.559a.387.387,0,0,0,.489.242l.011,0a22.738,22.738,0,0,1,5.632-1.056c3.291-.316,6.269-1.884,5.3-5.961a.384.384,0,0,0-.464-.283.523.523,0,0,0-.051.017c-.626.253-2.23.659-6.236.849C5964.187,2530.579,5963.128,2533.545,5964.132,2536.559Z" fill="#142266"/>
        </g>
        <g id="Group_3096" data-name="Group 3096">
          <path id="Path_10860" data-name="Path 10860" d="M5981.662,2534.719a.386.386,0,0,1,.349-.42h.016a22.764,22.764,0,0,0,5.579-1.308c3.138-1.039,6.5-.807,7.256,3.314a.384.384,0,0,1-.309.446l-.054.006c-.675.021-2.307.3-6.048,1.741C5984.125,2540.161,5981.961,2537.881,5981.662,2534.719Z" fill="#142266"/>
          <path id="Path_10861" data-name="Path 10861" d="M5978.055,2534.953a.387.387,0,0,0,.529.136l.013-.008a22.764,22.764,0,0,1,5.289-2.2c3.153-.993,5.74-3.146,3.945-6.933a.385.385,0,0,0-.512-.181.453.453,0,0,0-.047.027c-.56.378-2.044,1.109-5.923,2.127C5976.865,2529.095,5976.446,2532.214,5978.055,2534.953Z" fill="#142266"/>
        </g>
        <g id="Group_3097" data-name="Group 3097">
          <path id="Path_10862" data-name="Path 10862" d="M5994.819,2529.509a.387.387,0,0,1,.254-.484l.015,0a22.784,22.784,0,0,0,5.185-2.439c2.854-1.669,6.186-2.14,7.786,1.733a.383.383,0,0,1-.211.5.435.435,0,0,1-.05.017c-.656.161-2.194.77-5.553,2.96C5998.366,2534.324,5995.766,2532.54,5994.819,2529.509Z" fill="#142266"/>
          <path id="Path_10863" data-name="Path 10863" d="M5991.338,2530.489a.387.387,0,0,0,.546.023l.011-.011a22.711,22.711,0,0,1,4.716-3.255c2.877-1.627,4.96-4.271,2.417-7.6a.382.382,0,0,0-.537-.071.42.42,0,0,0-.041.037c-.469.486-1.769,1.51-5.351,3.312C5988.957,2525.006,5989.2,2528.144,5991.338,2530.489Z" fill="#142266"/>
        </g>
        <g id="Group_3098" data-name="Group 3098">
          <path id="Path_10864" data-name="Path 10864" d="M6006.607,2521.677a.387.387,0,0,1,.148-.526l.014-.007a22.774,22.774,0,0,0,4.564-3.464c2.444-2.226,5.6-3.379,7.976.076a.383.383,0,0,1-.1.532.275.275,0,0,1-.048.028c-.608.294-1.986,1.21-4.816,4.05C6011.072,2525.651,6008.166,2524.445,6006.607,2521.677Z" fill="#142266"/>
          <path id="Path_10865" data-name="Path 10865" d="M6003.406,2523.359a.387.387,0,0,0,.539-.088l.008-.012a22.707,22.707,0,0,1,3.936-4.164c2.476-2.19,3.964-5.209.784-7.938a.383.383,0,0,0-.54.042.378.378,0,0,0-.033.045c-.358.573-1.417,1.844-4.546,4.352C5999.936,2518.491,6000.822,2521.511,6003.406,2523.359Z" fill="#142266"/>
        </g>
        <g id="Group_3099" data-name="Group 3099">
          <path id="Path_10866" data-name="Path 10866" d="M6016.506,2511.567a.386.386,0,0,1,.035-.545l.012-.01a22.79,22.79,0,0,0,3.744-4.337c1.928-2.685,4.781-4.471,7.818-1.584a.384.384,0,0,1,.012.543.313.313,0,0,1-.04.036c-.533.414-1.692,1.6-3.869,4.963C6021.7,2514.524,6018.606,2513.95,6016.506,2511.567Z" fill="#142266"/>
          <path id="Path_10867" data-name="Path 10867" d="M6013.725,2513.877a.386.386,0,0,0,.508-.2l.006-.015a22.746,22.746,0,0,1,2.984-4.891c1.967-2.657,2.795-5.919-.883-7.928a.383.383,0,0,0-.521.154.489.489,0,0,0-.021.046c-.231.635-1,2.1-3.542,5.2C6009.319,2509.837,6010.809,2512.607,6013.725,2513.877Z" fill="#142266"/>
        </g>
        <g id="Group_3100" data-name="Group 3100">
          <path id="Path_10868" data-name="Path 10868" d="M6024.088,2499.623a.386.386,0,0,1-.079-.54l.01-.013a22.763,22.763,0,0,0,2.761-5.021c1.327-3.028,3.746-5.367,7.318-3.175a.384.384,0,0,1,.126.527c-.01.015-.021.03-.033.045-.436.516-1.323,1.913-2.753,5.659C6029.784,2501.433,6026.638,2501.514,6024.088,2499.623Z" fill="#142266"/>
          <path id="Path_10869" data-name="Path 10869" d="M6021.849,2502.457a.386.386,0,0,0,.455-.3l0-.015a22.753,22.753,0,0,1,1.9-5.4c1.371-3.008,1.5-6.37-2.513-7.57a.383.383,0,0,0-.476.258.469.469,0,0,0-.012.054c-.094.669-.544,2.261-2.382,5.825C6016.7,2499.422,6018.737,2501.82,6021.849,2502.457Z" fill="#142266"/>
        </g>
        <g id="Group_3101" data-name="Group 3101">
          <path id="Path_10870" data-name="Path 10870" d="M6029.02,2486.355a.385.385,0,0,1-.189-.511l.007-.015a22.788,22.788,0,0,0,1.656-5.486c.669-3.237,2.548-6.029,6.5-4.626a.383.383,0,0,1,.231.49.324.324,0,0,1-.022.05c-.319.6-.9,2.146-1.516,6.108C6034.969,2486.946,6031.908,2487.678,6029.02,2486.355Z" fill="#142266"/>
          <path id="Path_10871" data-name="Path 10871" d="M6027.419,2489.6a.387.387,0,0,0,.383-.39v-.016a22.763,22.763,0,0,1,.737-5.682c.716-3.227.145-6.544-4.032-6.883a.383.383,0,0,0-.411.354.239.239,0,0,0,0,.053c.047.674-.062,2.325-1.119,6.193C6021.751,2487.7,6024.243,2489.621,6027.419,2489.6Z" fill="#142266"/>
        </g>
        <g id="Group_3102" data-name="Group 3102">
          <path id="Path_10872" data-name="Path 10872" d="M6031.087,2472.356a.387.387,0,0,1-.292-.462l0-.015a22.7,22.7,0,0,0,.48-5.71c-.019-3.306,1.239-6.427,5.394-5.877a.383.383,0,0,1,.329.43.5.5,0,0,1-.012.055c-.188.649-.43,2.286-.213,6.29C6037.028,2471.7,6034.187,2473.049,6031.087,2472.356Z" fill="#142266"/>
          <path id="Path_10873" data-name="Path 10873" d="M6030.2,2475.859a.387.387,0,0,0,.293-.461l0-.015a22.726,22.726,0,0,1-.461-5.711c.029-3.306-1.219-6.431-5.375-5.894a.384.384,0,0,0-.33.431c0,.018.006.036.011.053.186.649.423,2.287.193,6.29C6024.256,2475.181,6027.093,2476.543,6030.2,2475.859Z" fill="#142266"/>
        </g>
        <g id="Group_3103" data-name="Group 3103">
          <path id="Path_10874" data-name="Path 10874" d="M6030.2,2458.234a.386.386,0,0,1-.38-.392v-.015a22.755,22.755,0,0,0-.718-5.685c-.706-3.229-.124-6.544,4.054-6.87a.383.383,0,0,1,.411.355.479.479,0,0,1,0,.053c-.049.674.054,2.325,1.1,6.2C6035.873,2456.353,6033.375,2458.268,6030.2,2458.234Z" fill="#142266"/>
          <path id="Path_10875" data-name="Path 10875" d="M6030.054,2461.846a.386.386,0,0,0,.191-.512l-.007-.014a22.791,22.791,0,0,1-1.639-5.49c-.658-3.24-2.529-6.037-6.483-4.648a.382.382,0,0,0-.233.488.39.39,0,0,0,.022.052c.317.6.889,2.149,1.5,6.113C6024.108,2462.421,6027.162,2463.16,6030.054,2461.846Z" fill="#142266"/>
        </g>
        <g id="Group_3104" data-name="Group 3104">
          <path id="Path_10876" data-name="Path 10876" d="M6026.392,2444.6a.386.386,0,0,1-.454-.3l0-.016a22.705,22.705,0,0,0-1.884-5.411c-1.362-3.012-1.482-6.375,2.537-7.562a.382.382,0,0,1,.475.259.263.263,0,0,1,.012.055c.092.669.536,2.263,2.364,5.833C6031.556,2441.586,6029.506,2443.978,6026.392,2444.6Z" fill="#142266"/>
          <path id="Path_10877" data-name="Path 10877" d="M6027,2448.168a.386.386,0,0,0,.081-.54l-.01-.013a22.76,22.76,0,0,1-2.744-5.03c-1.318-3.032-3.729-5.379-7.307-3.2a.384.384,0,0,0-.125.528.38.38,0,0,0,.031.044c.434.517,1.317,1.917,2.734,5.668C6021.3,2449.964,6024.446,2450.054,6027,2448.168Z" fill="#142266"/>
        </g>
        <g id="Group_3105" data-name="Group 3105">
          <path id="Path_10878" data-name="Path 10878" d="M6019.836,2432.064a.386.386,0,0,1-.507-.2l-.006-.014a22.743,22.743,0,0,0-2.968-4.9c-1.958-2.663-2.775-5.928.91-7.925a.383.383,0,0,1,.52.157.319.319,0,0,1,.022.049c.229.635,1,2.1,3.524,5.214C6024.254,2428.038,6022.751,2430.8,6019.836,2432.064Z" fill="#142266"/>
          <path id="Path_10879" data-name="Path 10879" d="M6021.173,2435.423a.386.386,0,0,0-.034-.545l-.012-.01a22.762,22.762,0,0,1-3.73-4.35c-1.919-2.692-4.766-4.487-7.813-1.609a.385.385,0,0,0-.013.543.362.362,0,0,0,.039.036c.532.416,1.687,1.6,3.853,4.976C6015.969,2438.365,6019.065,2437.8,6021.173,2435.423Z" fill="#142266"/>
        </g>
        <g id="Group_3106" data-name="Group 3106">
          <path id="Path_10880" data-name="Path 10880" d="M6010.815,2421.16a.386.386,0,0,1-.538-.093l-.009-.013a22.735,22.735,0,0,0-3.922-4.177c-2.469-2.2-3.947-5.221-.758-7.94a.384.384,0,0,1,.541.045.294.294,0,0,1,.032.044c.356.574,1.411,1.849,4.531,4.367C6014.3,2416.3,6013.4,2419.32,6010.815,2421.16Z" fill="#142266"/>
          <path id="Path_10881" data-name="Path 10881" d="M6012.822,2424.172a.386.386,0,0,0-.146-.526l-.014-.007a22.741,22.741,0,0,1-4.553-3.479c-2.437-2.234-5.594-3.4-7.976.05a.383.383,0,0,0,.1.532.544.544,0,0,0,.048.029c.607.3,1.982,1.216,4.8,4.066C6008.344,2428.127,6011.254,2426.93,6012.822,2424.172Z" fill="#142266"/>
        </g>
        <g id="Group_3107" data-name="Group 3107">
          <path id="Path_10882" data-name="Path 10882" d="M5999.726,2412.371a.386.386,0,0,1-.545.022l-.012-.011a22.726,22.726,0,0,0-4.7-3.271c-2.872-1.637-4.946-4.287-2.392-7.609a.384.384,0,0,1,.538-.069.354.354,0,0,1,.04.037c.468.487,1.764,1.516,5.34,3.329C6002.125,2406.9,6001.876,2410.033,5999.726,2412.371Z" fill="#142266"/>
          <path id="Path_10883" data-name="Path 10883" d="M6002.314,2414.9a.387.387,0,0,0-.252-.485l-.016,0a22.763,22.763,0,0,1-5.177-2.456c-2.848-1.678-6.178-2.16-7.792,1.708a.383.383,0,0,0,.207.5.463.463,0,0,0,.053.018c.655.163,2.192.777,5.544,2.978C5998.756,2419.7,6001.355,2417.924,6002.314,2414.9Z" fill="#142266"/>
        </g>
        <g id="Group_3108" data-name="Group 3108">
          <path id="Path_10884" data-name="Path 10884" d="M5987.049,2406.079a.386.386,0,0,1-.529.134l-.014-.008a22.71,22.71,0,0,0-5.282-2.221c-3.15-1-5.729-3.165-3.922-6.946a.385.385,0,0,1,.513-.179.391.391,0,0,1,.046.027c.559.379,2.041,1.116,5.916,2.146C5988.258,2400.225,5988.667,2403.345,5987.049,2406.079Z" fill="#142266"/>
          <path id="Path_10885" data-name="Path 10885" d="M5990.1,2408.011a.386.386,0,0,0-.348-.421h-.015a22.8,22.8,0,0,1-5.574-1.326c-3.135-1.05-6.493-.829-7.266,3.29a.385.385,0,0,0,.308.447l.054.006c.675.024,2.306.3,6.042,1.76C5987.625,2413.45,5989.8,2411.173,5990.1,2408.011Z" fill="#142266"/>
        </g>
        <g id="Group_3109" data-name="Group 3109">
          <path id="Path_10886" data-name="Path 10886" d="M5959.205,2537.079a.387.387,0,0,0-.428-.339l-.016,0a22.785,22.785,0,0,1-5.729-.12c-3.286-.364-6.521.561-6.408,4.75a.383.383,0,0,0,.394.371.341.341,0,0,0,.055,0c.665-.119,2.318-.189,6.277.446C5957.928,2542.919,5959.571,2540.235,5959.205,2537.079Z" fill="#142266"/>
          <path id="Path_10887" data-name="Path 10887" d="M5962.782,2536.559a.386.386,0,0,1-.489.242l-.011,0a22.729,22.729,0,0,0-5.632-1.056c-3.291-.316-6.269-1.884-5.3-5.961a.384.384,0,0,1,.464-.283.45.45,0,0,1,.051.017c.626.253,2.23.659,6.236.849C5962.731,2530.579,5963.786,2533.545,5962.782,2536.559Z" fill="#142266"/>
        </g>
        <g id="Group_3110" data-name="Group 3110">
          <path id="Path_10888" data-name="Path 10888" d="M5945.252,2534.719a.386.386,0,0,0-.349-.42h-.016a22.764,22.764,0,0,1-5.579-1.308c-3.138-1.039-6.5-.807-7.256,3.314a.385.385,0,0,0,.31.446l.053.006c.675.021,2.306.3,6.047,1.741C5942.789,2540.161,5944.954,2537.881,5945.252,2534.719Z" fill="#142266"/>
          <path id="Path_10889" data-name="Path 10889" d="M5948.86,2534.953a.386.386,0,0,1-.528.136l-.014-.008a22.755,22.755,0,0,0-5.289-2.2c-3.153-.993-5.74-3.146-3.945-6.933a.385.385,0,0,1,.512-.181.37.37,0,0,1,.047.027c.56.378,2.044,1.109,5.923,2.127C5950.049,2529.095,5950.468,2532.214,5948.86,2534.953Z" fill="#142266"/>
        </g>
        <g id="Group_3111" data-name="Group 3111">
          <path id="Path_10890" data-name="Path 10890" d="M5932.1,2529.509a.387.387,0,0,0-.253-.484l-.016,0a22.794,22.794,0,0,1-5.185-2.439c-2.854-1.669-6.186-2.14-7.786,1.733a.383.383,0,0,0,.211.5.435.435,0,0,0,.05.017c.656.161,2.194.77,5.553,2.96C5928.552,2534.324,5931.146,2532.54,5932.1,2529.509Z" fill="#142266"/>
          <path id="Path_10891" data-name="Path 10891" d="M5935.575,2530.489a.386.386,0,0,1-.545.023l-.012-.011a22.675,22.675,0,0,0-4.716-3.255c-2.877-1.627-4.96-4.271-2.417-7.6a.383.383,0,0,1,.537-.071.331.331,0,0,1,.041.037c.469.486,1.769,1.51,5.351,3.312C5937.96,2525.006,5937.718,2528.144,5935.575,2530.489Z" fill="#142266"/>
        </g>
        <g id="Group_3112" data-name="Group 3112">
          <path id="Path_10892" data-name="Path 10892" d="M5920.31,2521.677a.387.387,0,0,0-.148-.526l-.014-.007a22.8,22.8,0,0,1-4.564-3.464c-2.444-2.226-5.6-3.379-7.976.076a.383.383,0,0,0,.1.532.333.333,0,0,0,.047.028c.608.294,1.986,1.21,4.817,4.05C5915.844,2525.651,5918.754,2524.445,5920.31,2521.677Z" fill="#142266"/>
          <path id="Path_10893" data-name="Path 10893" d="M5923.51,2523.359a.386.386,0,0,1-.539-.088l-.008-.012a22.707,22.707,0,0,0-3.936-4.164c-2.476-2.19-3.964-5.209-.784-7.938a.382.382,0,0,1,.54.042.378.378,0,0,1,.033.045c.358.573,1.417,1.844,4.546,4.352C5926.979,2518.491,5926.093,2521.511,5923.51,2523.359Z" fill="#142266"/>
        </g>
        <g id="Group_3113" data-name="Group 3113">
          <path id="Path_10894" data-name="Path 10894" d="M5910.406,2511.567a.386.386,0,0,0-.035-.545l-.013-.01a22.8,22.8,0,0,1-3.744-4.337c-1.928-2.685-4.781-4.471-7.818-1.584a.384.384,0,0,0-.011.543.3.3,0,0,0,.039.036c.534.414,1.692,1.6,3.869,4.963C5905.214,2514.524,5908.306,2513.95,5910.406,2511.567Z" fill="#142266"/>
          <path id="Path_10895" data-name="Path 10895" d="M5913.19,2513.877a.386.386,0,0,1-.508-.2l-.006-.015a22.686,22.686,0,0,0-2.984-4.891c-1.967-2.657-2.794-5.919.884-7.928a.383.383,0,0,1,.521.154.489.489,0,0,1,.021.046c.231.635,1,2.1,3.541,5.2C5917.6,2509.837,5916.1,2512.607,5913.19,2513.877Z" fill="#142266"/>
        </g>
        <g id="Group_3114" data-name="Group 3114">
          <path id="Path_10896" data-name="Path 10896" d="M5902.826,2499.623a.385.385,0,0,0,.079-.54l-.01-.013a22.784,22.784,0,0,1-2.761-5.021c-1.328-3.028-3.746-5.367-7.318-3.175a.383.383,0,0,0-.125.527.431.431,0,0,0,.032.045c.436.516,1.323,1.913,2.753,5.659C5897.126,2501.433,5900.277,2501.514,5902.826,2499.623Z" fill="#142266"/>
          <path id="Path_10897" data-name="Path 10897" d="M5905.066,2502.457a.386.386,0,0,1-.455-.3l0-.015a22.71,22.71,0,0,0-1.9-5.4c-1.371-3.008-1.5-6.37,2.513-7.57a.382.382,0,0,1,.476.258.284.284,0,0,1,.012.054c.094.669.544,2.261,2.383,5.825C5910.216,2499.422,5908.182,2501.82,5905.066,2502.457Z" fill="#142266"/>
        </g>
        <g id="Group_3115" data-name="Group 3115">
          <path id="Path_10898" data-name="Path 10898" d="M5897.9,2486.355a.387.387,0,0,0,.19-.511l-.008-.015a22.788,22.788,0,0,1-1.656-5.486c-.669-3.237-2.548-6.029-6.5-4.626a.383.383,0,0,0-.232.489.4.4,0,0,0,.022.051c.319.6.9,2.146,1.516,6.108C5891.946,2486.946,5895.009,2487.678,5897.9,2486.355Z" fill="#142266"/>
          <path id="Path_10899" data-name="Path 10899" d="M5899.5,2489.6a.386.386,0,0,1-.382-.39v-.016a22.762,22.762,0,0,0-.736-5.682c-.716-3.227-.146-6.544,4.031-6.883a.383.383,0,0,1,.412.352.344.344,0,0,1,0,.055c-.047.674.062,2.325,1.12,6.193C5905.164,2487.7,5902.672,2489.621,5899.5,2489.6Z" fill="#142266"/>
        </g>
        <g id="Group_3116" data-name="Group 3116">
          <path id="Path_10900" data-name="Path 10900" d="M5895.827,2472.356a.387.387,0,0,0,.292-.462l0-.015a22.768,22.768,0,0,1-.48-5.71c.019-3.306-1.239-6.427-5.394-5.877a.382.382,0,0,0-.328.43.345.345,0,0,0,.011.055c.188.649.43,2.286.213,6.29C5889.886,2471.7,5892.727,2473.049,5895.827,2472.356Z" fill="#142266"/>
          <path id="Path_10901" data-name="Path 10901" d="M5896.72,2475.859a.385.385,0,0,1-.292-.461l0-.015a22.726,22.726,0,0,0,.461-5.711c-.029-3.306,1.219-6.431,5.375-5.894a.383.383,0,0,1,.33.431.314.314,0,0,1-.011.053c-.186.649-.423,2.287-.193,6.29C5902.659,2475.181,5899.822,2476.543,5896.72,2475.859Z" fill="#142266"/>
        </g>
        <g id="Group_3117" data-name="Group 3117">
          <path id="Path_10902" data-name="Path 10902" d="M5896.714,2458.234a.387.387,0,0,0,.381-.392v-.015a22.732,22.732,0,0,1,.718-5.685c.706-3.229.124-6.544-4.054-6.87a.381.381,0,0,0-.41.353.342.342,0,0,0,0,.055c.049.674-.055,2.325-1.1,6.2C5891.043,2456.353,5893.541,2458.268,5896.714,2458.234Z" fill="#142266"/>
          <path id="Path_10903" data-name="Path 10903" d="M5896.862,2461.846a.387.387,0,0,1-.191-.512l.007-.014a22.7,22.7,0,0,0,1.639-5.49c.659-3.24,2.529-6.037,6.483-4.648a.383.383,0,0,1,.234.488.4.4,0,0,1-.023.052c-.317.6-.889,2.149-1.5,6.113C5902.812,2462.421,5899.754,2463.16,5896.862,2461.846Z" fill="#142266"/>
        </g>
        <g id="Group_3118" data-name="Group 3118">
          <path id="Path_10904" data-name="Path 10904" d="M5900.522,2444.6a.386.386,0,0,0,.454-.3l0-.016a22.79,22.79,0,0,1,1.884-5.411c1.362-3.012,1.482-6.375-2.537-7.562a.382.382,0,0,0-.475.259.5.5,0,0,0-.012.055c-.092.669-.536,2.263-2.364,5.833C5895.363,2441.586,5897.408,2443.978,5900.522,2444.6Z" fill="#142266"/>
          <path id="Path_10905" data-name="Path 10905" d="M5899.912,2448.168a.387.387,0,0,1-.081-.54l.01-.013a22.76,22.76,0,0,0,2.744-5.03c1.318-3.032,3.729-5.379,7.307-3.2a.382.382,0,0,1,.127.526.5.5,0,0,1-.033.046c-.434.517-1.316,1.917-2.734,5.668C5905.614,2449.964,5902.468,2450.054,5899.912,2448.168Z" fill="#142266"/>
        </g>
        <g id="Group_3119" data-name="Group 3119">
          <path id="Path_10906" data-name="Path 10906" d="M5907.079,2432.064a.386.386,0,0,0,.507-.2l.006-.014a22.743,22.743,0,0,1,2.968-4.9c1.958-2.663,2.775-5.928-.91-7.925a.384.384,0,0,0-.519.156c-.008.016-.016.033-.022.05-.229.635-1,2.1-3.525,5.214C5902.66,2428.038,5904.163,2430.8,5907.079,2432.064Z" fill="#142266"/>
          <path id="Path_10907" data-name="Path 10907" d="M5905.741,2435.423a.386.386,0,0,1,.034-.545l.012-.01a22.762,22.762,0,0,0,3.73-4.35c1.919-2.692,4.766-4.487,7.813-1.609a.384.384,0,0,1,.013.543.42.42,0,0,1-.04.036c-.532.416-1.686,1.6-3.853,4.976C5910.945,2438.365,5907.849,2437.8,5905.741,2435.423Z" fill="#142266"/>
        </g>
        <g id="Group_3120" data-name="Group 3120">
          <path id="Path_10908" data-name="Path 10908" d="M5916.1,2421.16a.386.386,0,0,0,.538-.093l.009-.013a22.735,22.735,0,0,1,3.922-4.177c2.469-2.2,3.947-5.221.758-7.94a.384.384,0,0,0-.541.045c-.011.014-.022.028-.032.044-.356.574-1.411,1.849-4.532,4.367C5912.615,2416.3,5913.51,2419.32,5916.1,2421.16Z" fill="#142266"/>
          <path id="Path_10909" data-name="Path 10909" d="M5914.093,2424.172a.386.386,0,0,1,.147-.526l.013-.007a22.741,22.741,0,0,0,4.553-3.479c2.437-2.234,5.594-3.4,7.976.05a.385.385,0,0,1-.1.534.391.391,0,0,1-.046.027c-.607.3-1.983,1.216-4.8,4.066C5918.572,2428.127,5915.661,2426.93,5914.093,2424.172Z" fill="#142266"/>
        </g>
        <g id="Group_3121" data-name="Group 3121">
          <path id="Path_10910" data-name="Path 10910" d="M5927.19,2412.371a.388.388,0,0,0,.546.022l.011-.011a22.752,22.752,0,0,1,4.7-3.271c2.872-1.637,4.946-4.287,2.392-7.609a.383.383,0,0,0-.539-.067.328.328,0,0,0-.039.035c-.468.487-1.764,1.516-5.34,3.329C5924.791,2406.9,5925.039,2410.033,5927.19,2412.371Z" fill="#142266"/>
          <path id="Path_10911" data-name="Path 10911" d="M5924.6,2414.9a.387.387,0,0,1,.252-.485l.016,0a22.763,22.763,0,0,0,5.177-2.456c2.848-1.678,6.179-2.16,7.792,1.708a.383.383,0,0,1-.207.5.406.406,0,0,1-.053.018c-.655.163-2.192.777-5.544,2.978C5928.159,2419.7,5925.561,2417.924,5924.6,2414.9Z" fill="#142266"/>
        </g>
        <g id="Group_3122" data-name="Group 3122">
          <path id="Path_10912" data-name="Path 10912" d="M5939.866,2406.079a.386.386,0,0,0,.529.134l.014-.008a22.727,22.727,0,0,1,5.282-2.221c3.15-1,5.729-3.165,3.922-6.946a.384.384,0,0,0-.513-.179.391.391,0,0,0-.046.027c-.559.379-2.041,1.116-5.916,2.146C5938.657,2400.225,5938.248,2403.345,5939.866,2406.079Z" fill="#142266"/>
          <path id="Path_10913" data-name="Path 10913" d="M5936.809,2408.011a.386.386,0,0,1,.348-.421h.016a22.783,22.783,0,0,0,5.574-1.326c3.135-1.05,6.493-.829,7.266,3.29a.383.383,0,0,1-.306.447l-.056.006c-.675.024-2.3.3-6.042,1.76C5939.29,2413.45,5937.117,2411.173,5936.809,2408.011Z" fill="#142266"/>
        </g>
      </g>
      <g id="Group_3389" data-name="Group 3389">
        <g id="Group_3124" data-name="Group 3124">
          <path id="Path_10914" data-name="Path 10914" d="M5963.311,2557.338l-76.121-77.573-2.5,10.058,78.621,80.121,78.621-80.121-2.5-10.058Z" fill="#e65416"/>
          <path id="Path_10915" data-name="Path 10915" d="M6039.432,2479.764l-2.833-11.4c-31.187-3.9-51.662-17.144-63.632-28.04a99.245,99.245,0,0,1-9.656-10.114,98.985,98.985,0,0,1-9.656,10.114c-11.97,10.9-32.444,24.144-63.632,28.04l-2.833,11.4,76.121,77.573Z" fill="#b5311b"/>
        </g>
        <path id="Path_10916" data-name="Path 10916" d="M6045.754,2458c-62.61-4.005-82.444-46.74-82.444-46.74s-19.835,42.735-82.444,46.74l-8.056,31.144,90.5,88.632,90.5-88.632Zm-161.066,31.828,5.334-21.457c31.188-3.9,51.662-17.144,63.632-28.04a99.09,99.09,0,0,0,9.656-10.114,99.245,99.245,0,0,0,9.656,10.114c11.97,10.9,32.444,24.144,63.632,28.04l5.334,21.457-78.621,80.121Z" fill="#142266"/>
      </g>
      <g id="Path_7350" data-name="Path 7350">
        <path id="Path_111" data-name="Path 111" d="M6021.819,2432.725l-4.158,5.049a44.78,44.78,0,0,0-10.04,23.7,9.909,9.909,0,0,1,3.052,6.333c.177,2.126,0,7-3.583,15.37-4.379,10.142-17.736,16.609-18.974,17.273a6.5,6.5,0,0,1-3.494.974,6.837,6.837,0,0,1-3.937-1.285,127.813,127.813,0,0,1-20.522-18.912l-3.1-3.542a4.9,4.9,0,0,1-.576-.753h0l-3.1-3.544a117.215,117.215,0,0,0-10.483-10.5l-.044.044c-2.566,1.462-11.411,9.567-10.571,17.1a58.234,58.234,0,0,1,10.792,39.021,6.635,6.635,0,0,1-13.245-.815c.006-.1.014-.195.024-.292a44.84,44.84,0,0,0-3.409-21.348,58.193,58.193,0,0,1-11.145,21.127l-4.158,5.048a6.649,6.649,0,1,1-10.26-8.459l4.157-5.048a44.752,44.752,0,0,0,10.217-25.29v-.133a9.758,9.758,0,0,1-2.479-5.714c-.176-2.126.045-7,3.627-15.369,4.028-9.3,16.055-15.812,19.018-17.363.177-.089.4-.221.575-.31a6.585,6.585,0,0,1,6.768.664,127.868,127.868,0,0,1,20.522,18.912l3.1,3.544a4.864,4.864,0,0,1,.576.753h0l3.1,3.543a123.15,123.15,0,0,0,10.438,10.5c2.388-1.638,6.59-4.562,8.271-7.747,2.565-4.827,2.123-7.263,2.079-7.662a58.072,58.072,0,0,1-11.234-39.6,6.635,6.635,0,0,1,13.245.815c-.006.1-.014.2-.024.293a44.845,44.845,0,0,0,3.409,21.348,58.191,58.191,0,0,1,11.145-21.127l4.158-5.049a6.649,6.649,0,1,1,10.26,8.459Zm-64.619,13.11a10.231,10.231,0,1,0-12.034-8.034l0,.018a10.239,10.239,0,0,0,12.029,8.017Zm9.022,54.213a10.231,10.231,0,1,0,12.035,8.034l0-.018a10.237,10.237,0,0,0-12.033-8.016Z" fill="none" stroke="#142266" stroke-width="20"/>
        <path id="Path_112" data-name="Path 112" d="M6021.819,2432.725l-4.158,5.049a44.78,44.78,0,0,0-10.04,23.7,9.909,9.909,0,0,1,3.052,6.333c.177,2.126,0,7-3.583,15.37-4.379,10.142-17.736,16.609-18.974,17.273a6.5,6.5,0,0,1-3.494.974,6.837,6.837,0,0,1-3.937-1.285,127.813,127.813,0,0,1-20.522-18.912l-3.1-3.542a4.9,4.9,0,0,1-.576-.753h0l-3.1-3.544a117.215,117.215,0,0,0-10.483-10.5l-.044.044c-2.566,1.462-11.411,9.567-10.571,17.1a58.234,58.234,0,0,1,10.792,39.021,6.635,6.635,0,0,1-13.245-.815c.006-.1.014-.195.024-.292a44.84,44.84,0,0,0-3.409-21.348,58.193,58.193,0,0,1-11.145,21.127l-4.158,5.048a6.649,6.649,0,1,1-10.26-8.459l4.157-5.048a44.752,44.752,0,0,0,10.217-25.29v-.133a9.758,9.758,0,0,1-2.479-5.714c-.176-2.126.045-7,3.627-15.369,4.028-9.3,16.055-15.812,19.018-17.363.177-.089.4-.221.575-.31a6.585,6.585,0,0,1,6.768.664,127.868,127.868,0,0,1,20.522,18.912l3.1,3.544a4.864,4.864,0,0,1,.576.753h0l3.1,3.543a123.15,123.15,0,0,0,10.438,10.5c2.388-1.638,6.59-4.562,8.271-7.747,2.565-4.827,2.123-7.263,2.079-7.662a58.072,58.072,0,0,1-11.234-39.6,6.635,6.635,0,0,1,13.245.815c-.006.1-.014.2-.024.293a44.845,44.845,0,0,0,3.409,21.348,58.191,58.191,0,0,1,11.145-21.127l4.158-5.049a6.649,6.649,0,1,1,10.26,8.459Zm-64.619,13.11a10.231,10.231,0,1,0-12.034-8.034l0,.018a10.239,10.239,0,0,0,12.029,8.017Zm9.022,54.213a10.231,10.231,0,1,0,12.035,8.034l0-.018a10.237,10.237,0,0,0-12.033-8.016Z" fill="#e65416"/>
      </g>
      <path id="Path_113" data-name="Path 113" d="M5941.951,2514.624s1.321,8.7-4.074,9.248C5937.877,2523.872,5941.038,2522.225,5941.951,2514.624Z" fill="#b5311b"/>
      <g id="Group_3391" data-name="Group 3391">
        <ellipse id="Ellipse_224" data-name="Ellipse 224" cx="17.219" cy="9.559" rx="17.219" ry="9.559" transform="translate(6016.271 2543.767)" fill="#142266"/>
        <ellipse id="Ellipse_225" data-name="Ellipse 225" cx="17.219" cy="9.559" rx="17.219" ry="9.559" transform="translate(5875.856 2543.767)" fill="#142266"/>
        <ellipse id="Ellipse_226" data-name="Ellipse 226" cx="10.228" cy="5.678" rx="10.228" ry="5.678" transform="translate(5886.193 2548.554)" fill="#dc2648"/>
        <ellipse id="Ellipse_227" data-name="Ellipse 227" cx="10.228" cy="5.678" rx="10.228" ry="5.678" transform="translate(6019.917 2548.554)" fill="#dc2648"/>
        <path id="Path_10918" data-name="Path 10918" d="M5963.165,2521.148c-27.589,0-55.178,5.5-82.768,6.093a4.808,4.808,0,0,0-4.7,4.811v19.99a5.888,5.888,0,0,0,5.882,5.893l.154,0c27.142-.735,54.286-6.06,81.427-6.06s54.286,5.326,81.427,6.06a5.888,5.888,0,0,0,6.035-5.736c0-.052,0-.1,0-.155v-19.99a4.8,4.8,0,0,0-4.694-4.811C6018.343,2526.65,5990.754,2521.148,5963.165,2521.148Z" fill="#142266"/>
        <g id="Group_26" data-name="Group 26">
          <g id="Group_25" data-name="Group 25">
            <g id="Group_24" data-name="Group 24">
              <path id="Path_114" data-name="Path 114" d="M5945.484,2543.31q-1.324,1.489-2.615,2.995-2.075.164-4.148.365-1.545-1.255-3.123-2.49-.156-1.414-.312-2.827,1.745-.193,3.488-.358.06.641.121,1.281.538.437,1.075.875c.351-.032.7-.062,1.054-.092.3-.351.6-.7.906-1.05q-.546-6.739-1.094-13.479,1.83-.149,3.659-.269Q5944.99,2535.787,5945.484,2543.31Z" fill="#fff"/>
              <path id="Path_115" data-name="Path 115" d="M5958.572,2542.834q-1.41,1.408-2.783,2.837-2.532.051-5.063.158-1.463-1.338-2.956-2.658-.418-7.528-.835-15.058,1.83-.1,3.663-.175.27,6.758.541,13.513.514.465,1.026.933.985-.036,1.973-.062.48-.5.965-1-.153-6.759-.3-13.52c1.221-.027,2.445-.045,3.666-.054Q5958.519,2535.294,5958.572,2542.834Z" fill="#fff"/>
              <path id="Path_116" data-name="Path 116" d="M5968.72,2545.793q-3.932-.152-7.866-.164l.055-17.881q4.252.014,8.5.178,1.461,1.456,2.885,2.932l-.63,12.266Q5970.174,2544.449,5968.72,2545.793Zm-.43-4.376q.165-4.579.331-9.16-.5-.5-1-1.006-1.554-.048-3.107-.077-.1,5.553-.205,11.1,1.48.027,2.961.075C5967.607,2542.041,5967.949,2541.729,5968.29,2541.417Z" fill="#fff"/>
              <path id="Path_117" data-name="Path 117" d="M5981.607,2546.67q-2.509-.243-5.027-.432-1.3-1.5-2.627-2.985l.756-12.259q1.581-1.3,3.2-2.588,2.719.2,5.435.468,1.388,1.54,2.736,3.1-.675,6.105-1.348,12.208Q5983.152,2545.414,5981.607,2546.67Zm-.151-4.392q.434-4.574.868-9.147c-.312-.347-.628-.694-.944-1.04-.688-.062-1.378-.122-2.066-.178q-.567.441-1.131.884-.354,4.57-.7,9.14c.312.348.623.7.933,1.047q.984.08,1.968.169Q5980.917,2542.715,5981.456,2542.278Z" fill="#fff"/>
            </g>
          </g>
        </g>
      </g>
    </g>
    <path id="Path_118" data-name="Path 118" d="M5956.761,2469.134" transform="translate(-5701.464 -2702.821)" fill="#fff"/>
    <g id="Group_27" data-name="Group 27" transform="translate(-5701.464 -2702.821)">
      <path id="Path_119" data-name="Path 119" d="M5945.928,2433.906s-1.83,8.856,7.963,10.533c5.214.87,10.337-4.7,10.165-8.983C5964.056,2435.456,5952.044,2448.125,5945.928,2433.906Z" fill="#b5311b"/>
      <path id="Path_120" data-name="Path 120" d="M5946.764,2431.33s1.539-3.83,7.022-4.841A19.732,19.732,0,0,0,5946.764,2431.33Z" fill="#fff"/>
    </g>
    <g id="Group_28" data-name="Group 28" transform="translate(-5701.464 -2702.821)">
      <path id="Path_121" data-name="Path 121" d="M5960.284,2512.242s1.282,7.928,9.926,6.224c4.594-.926,7.079-7.166,5.582-10.667C5975.792,2507.8,5969.844,2522.109,5960.284,2512.242Z" fill="#b5311b"/>
      <path id="Path_122" data-name="Path 122" d="M5960.163,2509.84s.065-3.664,4.288-6.236A17.5,17.5,0,0,0,5960.163,2509.84Z" fill="#fff"/>
    </g>
    <path id="Path_123" data-name="Path 123" d="M5940.585,2460.228a27.142,27.142,0,0,0-12.561,20.916s-.938-4.03-6.084-5.119C5921.94,2476.025,5930.853,2464.842,5940.585,2460.228Z" transform="translate(-5701.464 -2702.821)" fill="#b5311b"/>
    <path id="Path_124" data-name="Path 124" d="M5941.07,2447.028s-12.55-.22-21.578,14.422C5919.492,2461.45,5926.269,2450.976,5941.07,2447.028Z" transform="translate(-5701.464 -2702.821)" fill="#fff"/>
    <path id="Path_125" data-name="Path 125" d="M5980.208,2429.909s.561-8.863,8.84-6.441A8.893,8.893,0,0,0,5980.208,2429.909Z" transform="translate(-5701.464 -2702.821)" fill="#fff"/>
    <path id="Path_126" data-name="Path 126" d="M5992.082,2427.245s-2.128,8.793.871,15.237C5992.953,2442.482,5987.585,2437.522,5992.082,2427.245Z" transform="translate(-5701.464 -2702.821)" fill="#b5311b"/>
    <path id="Path_127" data-name="Path 127" d="M6004.208,2437.01s5.062-11.67,12.632-14.2C6016.84,2422.808,6012.189,2425.89,6004.208,2437.01Z" transform="translate(-5701.464 -2702.821)" fill="#fff"/>
    <path id="Path_128" data-name="Path 128" d="M6007.455,2451.752s2.719-11.383,14.406-21.54C6021.861,2430.212,6009.107,2435.67,6007.455,2451.752Z" transform="translate(-5701.464 -2702.821)" fill="#b5311b"/>
    <path id="Path_129" data-name="Path 129" d="M6008.088,2470.686s-.192,20.269-22.651,28.3C5985.437,2498.991,6002.555,2488.73,6008.088,2470.686Z" transform="translate(-5701.464 -2702.821)" fill="#b5311b"/>
    <path id="Path_130" data-name="Path 130" d="M5991.189,2471.3" transform="translate(-5701.464 -2702.821)" fill="#b5311b"/>
    <path id="Path_131" data-name="Path 131" d="M5994.689,2464.649s-.994,16.756-16.087,22.947C5978.6,2487.6,5995.231,2485.489,5994.689,2464.649Z" transform="translate(-5701.464 -2702.821)" fill="#fff"/>
    <path id="Path_132" data-name="Path 132" d="M5912.427,2518.647s-8.032,5.76-11.555,1.458C5900.872,2520.1,5908.018,2528.977,5912.427,2518.647Z" transform="translate(-5701.464 -2702.821)" fill="#b5311b"/>
    <path id="Path_133" data-name="Path 133" d="M5912.221,2500.078s-4.676,12.031-11.033,15.491C5901.188,2515.569,5908.033,2514.817,5912.221,2500.078Z" transform="translate(-5701.464 -2702.821)" fill="#fff"/>
    <path id="Path_134" data-name="Path 134" d="M5921.538,2500.713s5.568-3.961,4.736-10.642c0,0,.694,7.053,3.784,10.147,0,0-3.624-9.156-3.953-12.456C5926.1,2487.762,5925.8,2495.873,5921.538,2500.713Z" transform="translate(-5701.464 -2702.821)" fill="#b5311b"/>
    <path id="Path_135" data-name="Path 135" d="M5999.182,2447.849a7.3,7.3,0,0,0-2.281,6.671s-.8-4.215-2.827-5.914c0,0,2.678,5.325,3.053,7.3C5997.127,2455.9,5996.872,2451,5999.182,2447.849Z" transform="translate(-5701.464 -2702.821)" fill="#b5311b"/>
  </g>
</svg>
