<svg xmlns="http://www.w3.org/2000/svg" width="110" height="100" viewBox="0 0 110 100">
  <g id="Group_938" data-name="Group 938" transform="translate(0.001)">
    <g id="Group_916" data-name="Group 916" transform="translate(6.445 9.678)">
      <g id="Group_915" data-name="Group 915" transform="translate(0)">
        <path id="Path_7352" data-name="Path 7352" d="M190.051,45H173.723a3.226,3.226,0,0,0,0,6.452h16.328a3.226,3.226,0,0,0,0-6.452Z" transform="translate(-170.5 -45)" fill="#fff"/>
      </g>
    </g>
    <g id="Group_918" data-name="Group 918" transform="translate(6.445 35.485)">
      <g id="Group_917" data-name="Group 917" transform="translate(0)">
        <path id="Path_7353" data-name="Path 7353" d="M190.051,165H173.723a3.226,3.226,0,0,0,0,6.452h16.328a3.226,3.226,0,0,0,0-6.452Z" transform="translate(-170.5 -165)" fill="#fff"/>
      </g>
    </g>
    <g id="Group_920" data-name="Group 920" transform="translate(0 22.582)">
      <g id="Group_919" data-name="Group 919">
        <path id="Path_7354" data-name="Path 7354" d="M160.051,105H143.723a3.226,3.226,0,0,0,0,6.452h16.328a3.226,3.226,0,0,0,0-6.452Z" transform="translate(-140.5 -105)" fill="#fff"/>
      </g>
    </g>
    <g id="Group_922" data-name="Group 922" transform="translate(42.115 19.354)">
      <g id="Group_921" data-name="Group 921" transform="translate(0)">
        <path id="Path_7355" data-name="Path 7355" d="M397.965,109.352H378.414v-12.9a6.455,6.455,0,0,0-11-4.559L341.633,117.7a6.456,6.456,0,0,0,0,9.119l14.781,14.8-18,18.022a6.445,6.445,0,0,0,9.109,9.119l22.559-22.582a6.456,6.456,0,0,0,0-9.119l-14.781-14.8,10.227-10.237V115.8a6.44,6.44,0,0,0,6.445,6.452h26a6.452,6.452,0,0,0,0-12.9Z" transform="translate(-336.525 -89.995)" fill="#fff"/>
      </g>
    </g>
    <g id="Group_924" data-name="Group 924" transform="translate(32.426 4.832)">
      <g id="Group_923" data-name="Group 923" transform="translate(0)">
        <path id="Path_7356" data-name="Path 7356" d="M319.177,23.55a6.443,6.443,0,0,0-8.143.817L293.31,42.11a6.445,6.445,0,1,0,9.109,9.119l13.986-14,4.705,3.4,6.295-6.3a13.023,13.023,0,0,1,3.652-2.516Z" transform="translate(-291.425 -22.467)" fill="#fff"/>
      </g>
    </g>
    <g id="Group_926" data-name="Group 926" transform="translate(3.443 54.906)">
      <g id="Group_925" data-name="Group 925" transform="translate(0)">
        <path id="Path_7357" data-name="Path 7357" d="M195.75,261.128a12.9,12.9,0,0,1-3.309-5.828L158.41,289.388a6.445,6.445,0,1,0,9.109,9.119L200.3,265.688Z" transform="translate(-156.525 -255.3)" fill="#fff"/>
      </g>
    </g>
    <g id="Group_928" data-name="Group 928" transform="translate(77.559)">
      <g id="Group_927" data-name="Group 927" transform="translate(0)">
        <ellipse id="Ellipse_27" data-name="Ellipse 27" cx="9.668" cy="9.678" rx="9.668" ry="9.678" fill="#fff"/>
      </g>
    </g>
  </g>
</svg>
