<svg xmlns="http://www.w3.org/2000/svg" width="94" height="100" viewBox="0 0 94 100">
  <g id="Group_972" data-name="Group 972" transform="translate(0.001)">
    <path id="Path_7371" data-name="Path 7371" d="M89.613,30.681a102.177,102.177,0,0,0-39.86,20.428l-1.189.995L44.728,57.23a100.479,100.479,0,0,0-17.3,36.3l-.537,2.1A5.76,5.76,0,0,1,21.326,100a5.664,5.664,0,0,1-1.381-.153,5.739,5.739,0,0,1-4.182-6.963l.537-2.1A111.269,111.269,0,0,1,35.559,50.344l.844-1.109c-.192-.191-.384-.383-.575-.612L23.781,34.774A68.819,68.819,0,0,0,11.773,55.968l-.652,1.913a5.8,5.8,0,0,1-5.448,3.9,6.19,6.19,0,0,1-1.841-.306A5.774,5.774,0,0,1,.226,54.208L.878,52.3C4.868,40.666,11.85,29.8,21.709,20.008c.038-.038.077-.077.115-.077a4.1,4.1,0,0,1,.614-.536L29.536,14a.836.836,0,0,1,.307-.191A18.788,18.788,0,0,1,57.042,21a5.744,5.744,0,0,1-10.281,5.126,7.276,7.276,0,0,0-10.243-2.946L48.756,37.452a113.62,113.62,0,0,1,37.98-17.789,5.779,5.779,0,0,1,7.021,4.132A5.689,5.689,0,0,1,89.613,30.681ZM11.62,19.74a9.87,9.87,0,1,0-9.9-9.87A9.883,9.883,0,0,0,11.62,19.74Z" transform="translate(0.07)" fill="#fff"/>
  </g>
</svg>
