<svg xmlns="http://www.w3.org/2000/svg" width="181" height="180.95" viewBox="0 0 181 180.95">
  <g id="halter" transform="translate(-1045.838 300.674)">
    <g id="Group_3388" data-name="Group 3388" transform="translate(-5701.464 -2702.821)">
      <g id="Group_3095" data-name="Group 3095">
        <path id="Path_10858" data-name="Path 10858" d="M6842.205,2542.405a.385.385,0,0,1,.428-.339l.016,0a22.705,22.705,0,0,0,5.729-.12c3.286-.364,6.521.562,6.407,4.75a.383.383,0,0,1-.394.372.338.338,0,0,1-.055-.006c-.665-.119-2.317-.189-6.276.447C6843.478,2548.245,6841.836,2545.561,6842.205,2542.405Z" fill="#142266"/>
        <path id="Path_10859" data-name="Path 10859" d="M6838.623,2541.885a.386.386,0,0,0,.49.241l.01,0a22.7,22.7,0,0,1,5.632-1.056c3.291-.317,6.269-1.884,5.3-5.962a.384.384,0,0,0-.464-.282.486.486,0,0,0-.051.016c-.626.254-2.23.66-6.235.849C6838.679,2535.905,6837.619,2538.871,6838.623,2541.885Z" fill="#142266"/>
      </g>
      <g id="Group_3096" data-name="Group 3096">
        <path id="Path_10860" data-name="Path 10860" d="M6856.154,2540.045a.385.385,0,0,1,.348-.42h.017a22.8,22.8,0,0,0,5.578-1.308c3.138-1.039,6.5-.807,7.256,3.314a.383.383,0,0,1-.309.446.458.458,0,0,1-.054.006c-.675.021-2.307.3-6.048,1.741C6858.617,2545.487,6856.453,2543.207,6856.154,2540.045Z" fill="#142266"/>
        <path id="Path_10861" data-name="Path 10861" d="M6852.546,2540.278a.387.387,0,0,0,.529.137l.013-.008a22.769,22.769,0,0,1,5.289-2.2c3.153-.993,5.74-3.146,3.945-6.933a.382.382,0,0,0-.512-.181.4.4,0,0,0-.047.027c-.56.378-2.044,1.109-5.923,2.127C6851.357,2534.42,6850.937,2537.539,6852.546,2540.278Z" fill="#142266"/>
      </g>
      <g id="Group_3097" data-name="Group 3097">
        <path id="Path_10862" data-name="Path 10862" d="M6869.311,2534.835a.385.385,0,0,1,.253-.484l.016,0a22.813,22.813,0,0,0,5.185-2.439c2.854-1.669,6.186-2.14,7.786,1.733a.384.384,0,0,1-.211.5.46.46,0,0,1-.05.017c-.656.161-2.194.77-5.553,2.96C6872.857,2539.65,6870.258,2537.865,6869.311,2534.835Z" fill="#142266"/>
        <path id="Path_10863" data-name="Path 10863" d="M6865.83,2535.815a.386.386,0,0,0,.545.023l.012-.011a22.662,22.662,0,0,1,4.715-3.255c2.877-1.627,4.96-4.271,2.417-7.6a.383.383,0,0,0-.537-.071.517.517,0,0,0-.041.036c-.469.486-1.769,1.51-5.35,3.312C6863.449,2530.332,6863.688,2533.469,6865.83,2535.815Z" fill="#142266"/>
      </g>
      <g id="Group_3098" data-name="Group 3098">
        <path id="Path_10864" data-name="Path 10864" d="M6881.1,2527a.386.386,0,0,1,.148-.526l.014-.007a22.824,22.824,0,0,0,4.564-3.464c2.444-2.226,5.6-3.379,7.976.076a.383.383,0,0,1-.1.532.464.464,0,0,1-.047.028c-.608.294-1.986,1.21-4.816,4.05C6885.564,2530.977,6882.658,2529.771,6881.1,2527Z" fill="#142266"/>
        <path id="Path_10865" data-name="Path 10865" d="M6877.9,2528.685a.386.386,0,0,0,.538-.088l.009-.012a22.691,22.691,0,0,1,3.936-4.164c2.476-2.19,3.964-5.209.784-7.938a.383.383,0,0,0-.573.087c-.358.573-1.417,1.844-4.546,4.352C6874.428,2523.817,6875.314,2526.837,6877.9,2528.685Z" fill="#142266"/>
      </g>
      <g id="Group_3099" data-name="Group 3099">
        <path id="Path_10866" data-name="Path 10866" d="M6891,2516.893a.386.386,0,0,1,.034-.545l.013-.01a22.821,22.821,0,0,0,3.744-4.338c1.928-2.685,4.781-4.47,7.818-1.584a.384.384,0,0,1,.011.543.42.42,0,0,1-.039.036c-.533.414-1.692,1.6-3.869,4.963C6896.192,2519.85,6893.1,2519.276,6891,2516.893Z" fill="#142266"/>
        <path id="Path_10867" data-name="Path 10867" d="M6888.217,2519.2a.385.385,0,0,0,.507-.2l.007-.014a22.725,22.725,0,0,1,2.984-4.891c1.967-2.657,2.795-5.919-.883-7.928a.383.383,0,0,0-.521.153.4.4,0,0,0-.021.047c-.231.635-1,2.1-3.542,5.2C6883.811,2515.162,6885.3,2517.932,6888.217,2519.2Z" fill="#142266"/>
      </g>
      <g id="Group_3100" data-name="Group 3100">
        <path id="Path_10868" data-name="Path 10868" d="M6898.579,2504.949a.386.386,0,0,1-.078-.541l.01-.012a22.783,22.783,0,0,0,2.761-5.021c1.327-3.028,3.745-5.367,7.318-3.175a.381.381,0,0,1,.125.526c-.01.016-.021.031-.032.046-.437.516-1.323,1.912-2.754,5.659C6904.276,2506.758,6901.13,2506.84,6898.579,2504.949Z" fill="#142266"/>
        <path id="Path_10869" data-name="Path 10869" d="M6896.341,2507.783a.387.387,0,0,0,.455-.3l0-.016a22.743,22.743,0,0,1,1.9-5.405c1.371-3.008,1.5-6.37-2.513-7.569a.382.382,0,0,0-.476.258.241.241,0,0,0-.012.054c-.094.668-.544,2.261-2.382,5.824C6891.191,2504.748,6893.229,2507.146,6896.341,2507.783Z" fill="#142266"/>
      </g>
      <g id="Group_3101" data-name="Group 3101">
        <path id="Path_10870" data-name="Path 10870" d="M6903.511,2491.681a.385.385,0,0,1-.189-.511l.007-.015a22.737,22.737,0,0,0,1.656-5.486c.669-3.237,2.548-6.029,6.5-4.626a.382.382,0,0,1,.232.49.456.456,0,0,1-.023.05c-.319.6-.9,2.146-1.516,6.108C6909.461,2492.272,6906.4,2493,6903.511,2491.681Z" fill="#142266"/>
        <path id="Path_10871" data-name="Path 10871" d="M6901.911,2494.923a.386.386,0,0,0,.382-.39v-.016a22.741,22.741,0,0,1,.737-5.682c.716-3.228.145-6.544-4.032-6.884a.385.385,0,0,0-.412.355.462.462,0,0,0,0,.052c.047.674-.062,2.325-1.119,6.193C6896.243,2493.023,6898.735,2494.947,6901.911,2494.923Z" fill="#142266"/>
      </g>
      <g id="Group_3102" data-name="Group 3102">
        <path id="Path_10872" data-name="Path 10872" d="M6905.579,2477.682a.387.387,0,0,1-.292-.462l0-.015a22.769,22.769,0,0,0,.48-5.71c-.019-3.306,1.239-6.427,5.394-5.877a.383.383,0,0,1,.328.43.348.348,0,0,1-.011.055c-.188.649-.43,2.286-.213,6.29C6911.519,2477.022,6908.679,2478.375,6905.579,2477.682Z" fill="#142266"/>
        <path id="Path_10873" data-name="Path 10873" d="M6904.69,2481.185a.386.386,0,0,0,.292-.461l0-.015a22.725,22.725,0,0,1-.461-5.711c.029-3.306-1.219-6.431-5.375-5.894a.383.383,0,0,0-.33.431.289.289,0,0,0,.011.053c.186.649.423,2.287.193,6.29C6898.748,2480.507,6901.585,2481.869,6904.69,2481.185Z" fill="#142266"/>
      </g>
      <g id="Group_3103" data-name="Group 3103">
        <path id="Path_10874" data-name="Path 10874" d="M6904.69,2463.56a.387.387,0,0,1-.381-.392v-.015a22.8,22.8,0,0,0-.718-5.685c-.706-3.229-.124-6.544,4.054-6.87a.383.383,0,0,1,.41.355.321.321,0,0,1,0,.053c-.049.674.053,2.325,1.1,6.2C6910.365,2461.679,6907.867,2463.594,6904.69,2463.56Z" fill="#142266"/>
        <path id="Path_10875" data-name="Path 10875" d="M6904.546,2467.172a.387.387,0,0,0,.191-.512l-.007-.014a22.757,22.757,0,0,1-1.64-5.49c-.657-3.24-2.529-6.037-6.483-4.648a.382.382,0,0,0-.233.488.51.51,0,0,0,.022.052c.317.6.889,2.149,1.5,6.113C6898.6,2467.747,6901.654,2468.486,6904.546,2467.172Z" fill="#142266"/>
      </g>
      <g id="Group_3104" data-name="Group 3104">
        <path id="Path_10876" data-name="Path 10876" d="M6900.884,2449.931a.387.387,0,0,1-.455-.3l0-.016a22.706,22.706,0,0,0-1.884-5.411c-1.362-3.012-1.482-6.375,2.537-7.562a.383.383,0,0,1,.476.259.347.347,0,0,1,.011.055c.093.669.537,2.263,2.365,5.833C6906.047,2446.912,6904,2449.3,6900.884,2449.931Z" fill="#142266"/>
        <path id="Path_10877" data-name="Path 10877" d="M6901.494,2453.494a.386.386,0,0,0,.081-.54l-.01-.013a22.78,22.78,0,0,1-2.744-5.03c-1.318-3.032-3.729-5.379-7.307-3.2a.383.383,0,0,0-.126.528.455.455,0,0,0,.032.044c.434.517,1.317,1.917,2.734,5.668C6895.792,2455.29,6898.938,2455.38,6901.494,2453.494Z" fill="#142266"/>
      </g>
      <g id="Group_3105" data-name="Group 3105">
        <path id="Path_10878" data-name="Path 10878" d="M6894.328,2437.39a.386.386,0,0,1-.507-.2l-.006-.014a22.757,22.757,0,0,0-2.968-4.9c-1.958-2.663-2.775-5.928.91-7.925a.385.385,0,0,1,.52.156c.008.016.015.033.022.05.229.635,1,2.1,3.524,5.214C6898.745,2433.364,6897.243,2436.129,6894.328,2437.39Z" fill="#142266"/>
        <path id="Path_10879" data-name="Path 10879" d="M6895.665,2440.749a.387.387,0,0,0-.034-.545l-.012-.01a22.7,22.7,0,0,1-3.73-4.35c-1.919-2.692-4.766-4.487-7.813-1.609a.383.383,0,0,0-.014.542.484.484,0,0,0,.04.037c.532.416,1.687,1.6,3.853,4.976C6890.461,2443.691,6893.557,2443.126,6895.665,2440.749Z" fill="#142266"/>
      </g>
      <g id="Group_3106" data-name="Group 3106">
        <path id="Path_10880" data-name="Path 10880" d="M6885.307,2426.486a.386.386,0,0,1-.538-.093l-.009-.013a22.776,22.776,0,0,0-3.922-4.177c-2.469-2.2-3.947-5.222-.758-7.94a.384.384,0,0,1,.541.045c.011.014.022.028.032.043.355.574,1.411,1.849,4.531,4.367C6888.792,2421.63,6887.9,2424.646,6885.307,2426.486Z" fill="#142266"/>
        <path id="Path_10881" data-name="Path 10881" d="M6887.314,2429.5a.387.387,0,0,0-.147-.526l-.013-.007a22.765,22.765,0,0,1-4.553-3.479c-2.437-2.234-5.594-3.4-7.976.05a.381.381,0,0,0,.1.532.355.355,0,0,0,.048.029c.607.3,1.982,1.216,4.8,4.066C6882.836,2433.453,6885.746,2432.256,6887.314,2429.5Z" fill="#142266"/>
      </g>
      <g id="Group_3107" data-name="Group 3107">
        <path id="Path_10882" data-name="Path 10882" d="M6874.218,2417.7a.388.388,0,0,1-.546.022l-.011-.011a22.765,22.765,0,0,0-4.7-3.271c-2.872-1.637-4.946-4.287-2.392-7.609a.383.383,0,0,1,.537-.069.358.358,0,0,1,.041.037c.468.487,1.764,1.516,5.34,3.329C6876.617,2412.223,6876.368,2415.359,6874.218,2417.7Z" fill="#142266"/>
        <path id="Path_10883" data-name="Path 10883" d="M6876.806,2420.222a.387.387,0,0,0-.252-.485l-.016,0a22.787,22.787,0,0,1-5.177-2.456c-2.848-1.678-6.178-2.16-7.792,1.708a.382.382,0,0,0,.207.5.486.486,0,0,0,.053.018c.655.163,2.192.777,5.544,2.978C6873.248,2425.026,6875.847,2423.25,6876.806,2420.222Z" fill="#142266"/>
      </g>
      <g id="Group_3108" data-name="Group 3108">
        <path id="Path_10884" data-name="Path 10884" d="M6861.541,2411.405a.386.386,0,0,1-.529.134l-.014-.008a22.678,22.678,0,0,0-5.282-2.221c-3.15-1-5.729-3.165-3.922-6.946a.385.385,0,0,1,.513-.179.433.433,0,0,1,.046.027c.559.379,2.041,1.116,5.916,2.146C6862.75,2405.551,6863.159,2408.671,6861.541,2411.405Z" fill="#142266"/>
        <path id="Path_10885" data-name="Path 10885" d="M6864.594,2413.337a.387.387,0,0,0-.348-.421h-.016a22.788,22.788,0,0,1-5.573-1.326c-3.135-1.05-6.494-.829-7.266,3.29a.384.384,0,0,0,.308.447.436.436,0,0,0,.054.006c.675.024,2.306.3,6.042,1.76C6862.116,2418.776,6864.293,2416.5,6864.594,2413.337Z" fill="#142266"/>
      </g>
      <g id="Group_3109" data-name="Group 3109">
        <path id="Path_10886" data-name="Path 10886" d="M6833.7,2542.405a.387.387,0,0,0-.429-.339l-.015,0a22.7,22.7,0,0,1-5.729-.12c-3.286-.364-6.521.562-6.408,4.75a.382.382,0,0,0,.394.372.338.338,0,0,0,.055-.006c.665-.119,2.318-.189,6.277.447C6832.42,2548.245,6834.063,2545.561,6833.7,2542.405Z" fill="#142266"/>
        <path id="Path_10887" data-name="Path 10887" d="M6837.274,2541.885a.386.386,0,0,1-.49.241l-.01,0a22.693,22.693,0,0,0-5.632-1.056c-3.291-.317-6.269-1.884-5.3-5.962a.384.384,0,0,1,.464-.282.452.452,0,0,1,.051.016c.626.254,2.23.66,6.236.849C6837.223,2535.905,6838.278,2538.871,6837.274,2541.885Z" fill="#142266"/>
      </g>
      <g id="Group_3110" data-name="Group 3110">
        <path id="Path_10888" data-name="Path 10888" d="M6819.743,2540.045a.385.385,0,0,0-.348-.42h-.016a22.8,22.8,0,0,1-5.579-1.308c-3.138-1.039-6.5-.807-7.256,3.314a.383.383,0,0,0,.309.446.455.455,0,0,0,.054.006c.675.021,2.306.3,6.047,1.741C6817.281,2545.487,6819.446,2543.207,6819.743,2540.045Z" fill="#142266"/>
        <path id="Path_10889" data-name="Path 10889" d="M6823.352,2540.278a.387.387,0,0,1-.529.137l-.013-.008a22.769,22.769,0,0,0-5.289-2.2c-3.153-.993-5.74-3.146-3.945-6.933a.382.382,0,0,1,.512-.181.4.4,0,0,1,.047.027c.56.378,2.044,1.109,5.923,2.127C6824.541,2534.42,6824.96,2537.539,6823.352,2540.278Z" fill="#142266"/>
      </g>
      <g id="Group_3111" data-name="Group 3111">
        <path id="Path_10890" data-name="Path 10890" d="M6806.586,2534.835a.385.385,0,0,0-.253-.484l-.016,0a22.813,22.813,0,0,1-5.185-2.439c-2.854-1.669-6.186-2.14-7.786,1.733a.384.384,0,0,0,.211.5.5.5,0,0,0,.05.017c.656.161,2.194.77,5.553,2.96C6803.044,2539.65,6805.638,2537.865,6806.586,2534.835Z" fill="#142266"/>
        <path id="Path_10891" data-name="Path 10891" d="M6810.067,2535.815a.387.387,0,0,1-.546.023l-.011-.011a22.694,22.694,0,0,0-4.716-3.255c-2.877-1.627-4.96-4.271-2.417-7.6a.383.383,0,0,1,.537-.071.517.517,0,0,1,.041.036c.469.486,1.769,1.51,5.351,3.312C6812.452,2530.332,6812.21,2533.469,6810.067,2535.815Z" fill="#142266"/>
      </g>
      <g id="Group_3112" data-name="Group 3112">
        <path id="Path_10892" data-name="Path 10892" d="M6794.8,2527a.387.387,0,0,0-.148-.526l-.014-.007a22.741,22.741,0,0,1-4.564-3.464c-2.444-2.226-5.6-3.379-7.976.076a.381.381,0,0,0,.1.532.352.352,0,0,0,.048.028c.608.294,1.986,1.21,4.817,4.05C6790.336,2530.977,6793.246,2529.771,6794.8,2527Z" fill="#142266"/>
        <path id="Path_10893" data-name="Path 10893" d="M6798,2528.685a.387.387,0,0,1-.539-.088l-.008-.012a22.713,22.713,0,0,0-3.937-4.164c-2.475-2.19-3.963-5.209-.784-7.938a.382.382,0,0,1,.54.042.244.244,0,0,1,.033.045c.358.573,1.417,1.844,4.546,4.352C6801.471,2523.817,6800.585,2526.837,6798,2528.685Z" fill="#142266"/>
      </g>
      <g id="Group_3113" data-name="Group 3113">
        <path id="Path_10894" data-name="Path 10894" d="M6784.9,2516.893a.387.387,0,0,0-.036-.545l-.012-.01a22.751,22.751,0,0,1-3.744-4.338c-1.928-2.685-4.781-4.47-7.818-1.584a.383.383,0,0,0-.012.543.377.377,0,0,0,.04.036c.534.414,1.692,1.6,3.869,4.963C6779.706,2519.85,6782.8,2519.276,6784.9,2516.893Z" fill="#142266"/>
        <path id="Path_10895" data-name="Path 10895" d="M6787.682,2519.2a.385.385,0,0,1-.508-.2l-.006-.014a22.8,22.8,0,0,0-2.984-4.891c-1.968-2.657-2.794-5.919.884-7.928a.382.382,0,0,1,.52.153.513.513,0,0,1,.022.047c.231.635,1,2.1,3.541,5.2C6792.088,2515.162,6790.593,2517.932,6787.682,2519.2Z" fill="#142266"/>
      </g>
      <g id="Group_3114" data-name="Group 3114">
        <path id="Path_10896" data-name="Path 10896" d="M6777.318,2504.949a.388.388,0,0,0,.079-.541l-.01-.012a22.724,22.724,0,0,1-2.761-5.021c-1.328-3.028-3.746-5.367-7.318-3.175a.381.381,0,0,0-.126.526.491.491,0,0,0,.033.046c.436.516,1.323,1.912,2.753,5.659C6771.618,2506.758,6774.769,2506.84,6777.318,2504.949Z" fill="#142266"/>
        <path id="Path_10897" data-name="Path 10897" d="M6779.558,2507.783a.388.388,0,0,1-.456-.3l0-.016a22.806,22.806,0,0,0-1.9-5.405c-1.371-3.008-1.5-6.37,2.512-7.569a.383.383,0,0,1,.477.258.437.437,0,0,1,.012.054c.094.668.543,2.261,2.383,5.824C6784.707,2504.748,6782.674,2507.146,6779.558,2507.783Z" fill="#142266"/>
      </g>
      <g id="Group_3115" data-name="Group 3115">
        <path id="Path_10898" data-name="Path 10898" d="M6772.387,2491.681a.386.386,0,0,0,.189-.511l-.007-.015a22.737,22.737,0,0,1-1.656-5.486c-.669-3.237-2.548-6.029-6.5-4.626a.382.382,0,0,0-.233.489.469.469,0,0,0,.023.051c.319.6.9,2.146,1.516,6.108C6766.438,2492.272,6769.5,2493,6772.387,2491.681Z" fill="#142266"/>
        <path id="Path_10899" data-name="Path 10899" d="M6773.989,2494.923a.387.387,0,0,1-.383-.39v-.016a22.786,22.786,0,0,0-.736-5.682c-.716-3.228-.146-6.544,4.031-6.884a.383.383,0,0,1,.411.352.346.346,0,0,1,0,.055c-.047.674.062,2.325,1.12,6.193C6779.656,2493.023,6777.164,2494.947,6773.989,2494.923Z" fill="#142266"/>
      </g>
      <g id="Group_3116" data-name="Group 3116">
        <path id="Path_10900" data-name="Path 10900" d="M6770.319,2477.682a.386.386,0,0,0,.291-.462l0-.015a22.678,22.678,0,0,1-.48-5.71c.019-3.306-1.239-6.427-5.4-5.877a.383.383,0,0,0-.328.43c0,.019.006.037.011.055.188.649.431,2.286.213,6.29C6764.378,2477.022,6767.219,2478.375,6770.319,2477.682Z" fill="#142266"/>
        <path id="Path_10901" data-name="Path 10901" d="M6771.212,2481.185a.387.387,0,0,1-.293-.461l0-.015a22.794,22.794,0,0,0,.461-5.711c-.029-3.306,1.219-6.431,5.375-5.894a.382.382,0,0,1,.329.431.493.493,0,0,1-.01.053c-.186.649-.423,2.287-.193,6.29C6777.151,2480.507,6774.314,2481.869,6771.212,2481.185Z" fill="#142266"/>
      </g>
      <g id="Group_3117" data-name="Group 3117">
        <path id="Path_10902" data-name="Path 10902" d="M6771.206,2463.56a.386.386,0,0,0,.38-.392v-.015a22.757,22.757,0,0,1,.718-5.685c.706-3.229.124-6.544-4.054-6.87a.383.383,0,0,0-.411.353.26.26,0,0,0,0,.055c.049.674-.055,2.325-1.1,6.2C6765.535,2461.679,6768.033,2463.594,6771.206,2463.56Z" fill="#142266"/>
        <path id="Path_10903" data-name="Path 10903" d="M6771.354,2467.172a.387.387,0,0,1-.191-.512l.007-.014a22.8,22.8,0,0,0,1.639-5.49c.659-3.24,2.529-6.037,6.483-4.648a.381.381,0,0,1,.233.488.42.42,0,0,1-.022.052c-.317.6-.889,2.149-1.5,6.113C6777.3,2467.747,6774.246,2468.486,6771.354,2467.172Z" fill="#142266"/>
      </g>
      <g id="Group_3118" data-name="Group 3118">
        <path id="Path_10904" data-name="Path 10904" d="M6775.014,2449.931a.386.386,0,0,0,.454-.3l0-.016a22.706,22.706,0,0,1,1.884-5.411c1.362-3.012,1.482-6.375-2.537-7.562a.384.384,0,0,0-.476.259.347.347,0,0,0-.011.055c-.092.669-.536,2.263-2.364,5.833C6769.855,2446.912,6771.9,2449.3,6775.014,2449.931Z" fill="#142266"/>
        <path id="Path_10905" data-name="Path 10905" d="M6774.4,2453.494a.387.387,0,0,1-.082-.54l.011-.013a22.78,22.78,0,0,0,2.744-5.03c1.318-3.032,3.729-5.379,7.307-3.2a.382.382,0,0,1,.126.526.405.405,0,0,1-.032.046c-.434.517-1.316,1.917-2.734,5.668C6780.106,2455.29,6776.96,2455.38,6774.4,2453.494Z" fill="#142266"/>
      </g>
      <g id="Group_3119" data-name="Group 3119">
        <path id="Path_10906" data-name="Path 10906" d="M6781.57,2437.39a.386.386,0,0,0,.507-.2l.006-.014a22.757,22.757,0,0,1,2.968-4.9c1.958-2.663,2.775-5.928-.91-7.925a.381.381,0,0,0-.518.156.334.334,0,0,0-.023.05c-.229.635-1,2.1-3.525,5.214C6777.152,2433.364,6778.655,2436.129,6781.57,2437.39Z" fill="#142266"/>
        <path id="Path_10907" data-name="Path 10907" d="M6780.233,2440.749a.385.385,0,0,1,.034-.545l.012-.01a22.764,22.764,0,0,0,3.73-4.35c1.919-2.692,4.766-4.487,7.813-1.609a.382.382,0,0,1,.012.542.469.469,0,0,1-.039.037c-.532.416-1.686,1.6-3.853,4.976C6785.437,2443.691,6782.341,2443.126,6780.233,2440.749Z" fill="#142266"/>
      </g>
      <g id="Group_3120" data-name="Group 3120">
        <path id="Path_10908" data-name="Path 10908" d="M6790.592,2426.486a.387.387,0,0,0,.538-.093l.009-.013a22.742,22.742,0,0,1,3.922-4.177c2.469-2.2,3.947-5.222.758-7.94a.384.384,0,0,0-.541.045.309.309,0,0,0-.032.043c-.356.574-1.411,1.849-4.532,4.367C6787.107,2421.63,6788,2424.646,6790.592,2426.486Z" fill="#142266"/>
        <path id="Path_10909" data-name="Path 10909" d="M6788.585,2429.5a.386.386,0,0,1,.146-.526l.014-.007a22.829,22.829,0,0,0,4.553-3.479c2.437-2.234,5.594-3.4,7.976.05a.384.384,0,0,1-.1.533.277.277,0,0,1-.046.028c-.608.3-1.983,1.216-4.8,4.066C6793.064,2433.453,6790.153,2432.256,6788.585,2429.5Z" fill="#142266"/>
      </g>
      <g id="Group_3121" data-name="Group 3121">
        <path id="Path_10910" data-name="Path 10910" d="M6801.682,2417.7a.386.386,0,0,0,.545.022l.012-.011a22.745,22.745,0,0,1,4.7-3.271c2.872-1.637,4.947-4.287,2.392-7.609a.382.382,0,0,0-.538-.067.331.331,0,0,0-.04.035c-.468.487-1.764,1.516-5.34,3.329C6799.283,2412.223,6799.531,2415.359,6801.682,2417.7Z" fill="#142266"/>
        <path id="Path_10911" data-name="Path 10911" d="M6799.094,2420.222a.385.385,0,0,1,.251-.485l.017,0a22.827,22.827,0,0,0,5.177-2.456c2.848-1.678,6.179-2.16,7.792,1.708a.383.383,0,0,1-.208.5.47.47,0,0,1-.052.018c-.655.163-2.192.777-5.544,2.978C6802.651,2425.026,6800.053,2423.25,6799.094,2420.222Z" fill="#142266"/>
      </g>
      <g id="Group_3122" data-name="Group 3122">
        <path id="Path_10912" data-name="Path 10912" d="M6814.358,2411.405a.386.386,0,0,0,.529.134l.014-.008a22.66,22.66,0,0,1,5.282-2.221c3.15-1,5.729-3.165,3.922-6.946a.385.385,0,0,0-.513-.179.389.389,0,0,0-.046.027c-.559.379-2.041,1.116-5.916,2.146C6813.149,2405.551,6812.74,2408.671,6814.358,2411.405Z" fill="#142266"/>
        <path id="Path_10913" data-name="Path 10913" d="M6811.3,2413.337a.385.385,0,0,1,.347-.421h.017a22.806,22.806,0,0,0,5.574-1.326c3.135-1.05,6.493-.829,7.266,3.29a.383.383,0,0,1-.307.446.328.328,0,0,1-.055.007c-.675.024-2.305.3-6.042,1.76C6813.782,2418.776,6811.609,2416.5,6811.3,2413.337Z" fill="#142266"/>
      </g>
    </g>
    <g id="Group_3389" data-name="Group 3389" transform="translate(-5701.464 -2702.821)">
      <g id="Group_3124" data-name="Group 3124">
        <path id="Path_10914" data-name="Path 10914" d="M6837.8,2562.664l-76.121-77.573-2.5,10.058,78.621,80.121,78.621-80.121-2.5-10.058Z" fill="#e65416"/>
        <path id="Path_10915" data-name="Path 10915" d="M6913.924,2485.09l-2.833-11.4c-31.187-3.9-51.662-17.144-63.632-28.04a99.028,99.028,0,0,1-9.656-10.114,99.3,99.3,0,0,1-9.656,10.114c-11.97,10.9-32.444,24.144-63.632,28.04l-2.833,11.4,76.121,77.573Z" fill="#b5311b"/>
      </g>
      <path id="Path_10916" data-name="Path 10916" d="M6920.246,2463.321c-62.61-4.005-82.444-46.74-82.444-46.74s-19.835,42.735-82.444,46.74l-8.056,31.144,90.5,88.632,90.5-88.632Zm-161.066,31.828,5.334-21.457c31.188-3.9,51.662-17.144,63.632-28.04a99.266,99.266,0,0,0,9.656-10.114,99.111,99.111,0,0,0,9.656,10.114c11.97,10.9,32.444,24.144,63.632,28.04l5.334,21.457L6837.8,2575.27Z" fill="#142266"/>
    </g>
    <g id="Group_932" data-name="Group 932" transform="translate(-5701.464 -2702.821)">
      <g id="Path_7361" data-name="Path 7361">
        <path id="Path_58" data-name="Path 58" d="M6901.974,2438.009h-3.817v-2.874a4.834,4.834,0,0,0-4.677-4.874h-3.042v-3.736a3.633,3.633,0,0,0-7.264-.194c0,.065,0,.129,0,.194V2438h-89.9v-11.48a3.862,3.862,0,0,0-7.719,0v3.736h-2.586a4.677,4.677,0,0,0-4.677,4.679v3.066h-3.817a3.645,3.645,0,0,0-.136,7.289h3.953v2.824a4.877,4.877,0,0,0,4.676,4.92h2.588v3.554a3.862,3.862,0,0,0,7.719,0v-11.3h13.486a7.467,7.467,0,0,0,.454,2.6l.364.911a64.561,64.561,0,0,0,22.7,29.108V2504.2a13.528,13.528,0,0,0,.09,1.366,130.093,130.093,0,0,1-26.608,32.3l-.182.137a6.9,6.9,0,0,0-.681,9.656,6.815,6.815,0,0,0,5.13,2.369,6.632,6.632,0,0,0,4.453-1.685l.182-.182a142.96,142.96,0,0,0,28.015-33.39,51.907,51.907,0,0,1,20.706,29.427l.136.455a6.786,6.786,0,0,0,6.584,5.148,5.523,5.523,0,0,0,1.68-.228,6.857,6.857,0,0,0,4.949-8.29l-.136-.456a64.932,64.932,0,0,0-24.019-35.758,6.875,6.875,0,0,0,.046-.956v-25.647a64.181,64.181,0,0,0,23.61-30.565l.092-.181a6.669,6.669,0,0,0,.408-2.461h8.355v11.3a3.634,3.634,0,0,0,7.265.195q0-.1,0-.195v-4.008h3.042a4.641,4.641,0,0,0,4.677-4.6v-2.686h3.816a3.614,3.614,0,0,0,3.723-3.5c0-.048,0-.095,0-.143a3.5,3.5,0,0,0-3.4-3.6C6902.133,2438,6902.053,2438.006,6901.974,2438.009Zm-51.309,22.638a10.781,10.781,0,0,0-19.932-.319,51.382,51.382,0,0,1-9.9-15.032H6860.7a49.85,49.85,0,0,1-10.034,15.352Z" fill="none" stroke="#142266" stroke-width="18"/>
        <path id="Path_59" data-name="Path 59" d="M6901.974,2438.009h-3.817v-2.874a4.834,4.834,0,0,0-4.677-4.874h-3.042v-3.736a3.633,3.633,0,0,0-7.264-.194c0,.065,0,.129,0,.194V2438h-89.9v-11.48a3.862,3.862,0,0,0-7.719,0v3.736h-2.586a4.677,4.677,0,0,0-4.677,4.679v3.066h-3.817a3.645,3.645,0,0,0-.136,7.289h3.953v2.824a4.877,4.877,0,0,0,4.676,4.92h2.588v3.554a3.862,3.862,0,0,0,7.719,0v-11.3h13.486a7.467,7.467,0,0,0,.454,2.6l.364.911a64.561,64.561,0,0,0,22.7,29.108V2504.2a13.528,13.528,0,0,0,.09,1.366,130.093,130.093,0,0,1-26.608,32.3l-.182.137a6.9,6.9,0,0,0-.681,9.656,6.815,6.815,0,0,0,5.13,2.369,6.632,6.632,0,0,0,4.453-1.685l.182-.182a142.96,142.96,0,0,0,28.015-33.39,51.907,51.907,0,0,1,20.706,29.427l.136.455a6.786,6.786,0,0,0,6.584,5.148,5.523,5.523,0,0,0,1.68-.228,6.857,6.857,0,0,0,4.949-8.29l-.136-.456a64.932,64.932,0,0,0-24.019-35.758,6.875,6.875,0,0,0,.046-.956v-25.647a64.181,64.181,0,0,0,23.61-30.565l.092-.181a6.669,6.669,0,0,0,.408-2.461h8.355v11.3a3.634,3.634,0,0,0,7.265.195q0-.1,0-.195v-4.008h3.042a4.641,4.641,0,0,0,4.677-4.6v-2.686h3.816a3.614,3.614,0,0,0,3.723-3.5c0-.048,0-.095,0-.143a3.5,3.5,0,0,0-3.4-3.6C6902.133,2438,6902.053,2438.006,6901.974,2438.009Zm-51.309,22.638a10.781,10.781,0,0,0-19.932-.319,51.382,51.382,0,0,1-9.9-15.032H6860.7a49.85,49.85,0,0,1-10.034,15.352Z" fill="#e65416"/>
      </g>
    </g>
    <path id="Path_60" data-name="Path 60" d="M6855.077,2510.482s13.068,12.22,14.216,21.578C6869.293,2532.06,6863.382,2519.179,6855.077,2510.482Z" transform="translate(-5701.464 -2702.821)" fill="#b5311b"/>
    <g id="Group_3391" data-name="Group 3391" transform="translate(-5701.464 -2702.821)">
      <ellipse id="Ellipse_224" data-name="Ellipse 224" cx="17.219" cy="9.559" rx="17.219" ry="9.559" transform="translate(6890.763 2549.093)" fill="#142266"/>
      <ellipse id="Ellipse_225" data-name="Ellipse 225" cx="17.219" cy="9.559" rx="17.219" ry="9.559" transform="translate(6750.348 2549.093)" fill="#142266"/>
      <ellipse id="Ellipse_226" data-name="Ellipse 226" cx="10.228" cy="5.678" rx="10.228" ry="5.678" transform="translate(6760.685 2553.88)" fill="#dc2648"/>
      <ellipse id="Ellipse_227" data-name="Ellipse 227" cx="10.228" cy="5.678" rx="10.228" ry="5.678" transform="translate(6894.409 2553.88)" fill="#dc2648"/>
      <path id="Path_10918" data-name="Path 10918" d="M6837.657,2526.474c-27.589,0-55.178,5.5-82.768,6.093a4.807,4.807,0,0,0-4.7,4.811v19.99a5.888,5.888,0,0,0,5.881,5.893l.155,0c27.142-.735,54.285-6.06,81.427-6.06s54.285,5.326,81.427,6.06a5.887,5.887,0,0,0,6.034-5.736c0-.052,0-.1,0-.155v-19.99a4.806,4.806,0,0,0-4.7-4.811C6892.835,2531.976,6865.246,2526.474,6837.657,2526.474Z" fill="#142266"/>
      <g id="Group_19" data-name="Group 19">
        <g id="Group_18" data-name="Group 18">
          <g id="Group_17" data-name="Group 17">
            <path id="Path_61" data-name="Path 61" d="M6810.062,2551.552q-1.764.137-3.523.291-.333-3.783-.665-7.567-2.09.183-4.177.392.379,3.78.756,7.56-1.772.175-3.541.372-1.028-9.317-2.057-18.631,1.866-.205,3.733-.393.378,3.78.756,7.56,2.109-.21,4.219-.4-.335-3.784-.666-7.569,1.855-.162,3.714-.307Q6809.336,2542.208,6810.062,2551.552Z" fill="#fff"/>
            <path id="Path_62" data-name="Path 62" d="M6819.979,2550.926q-.152-.645-.3-1.289-1.734.086-3.469.189-.093.657-.185,1.315-1.8.108-3.6.235,1.2-9.48,2.6-18.953,1.985-.119,3.969-.216,2.418,9.266,4.634,18.56Q6821.8,2550.836,6819.979,2550.926Zm-1.2-4.775q-.647-2.536-1.312-5.073-.385,2.592-.752,5.185C6817.406,2546.224,6818.1,2546.187,6818.783,2546.151Z" fill="#fff"/>
            <path id="Path_63" data-name="Path 63" d="M6834.952,2550.522q-4.479.024-8.957.163-.292-9.368-.584-18.735,1.872-.059,3.747-.1.157,7.6.317,15.191,2.73-.057,5.459-.071Q6834.943,2548.748,6834.952,2550.522Z" fill="#fff"/>
            <path id="Path_64" data-name="Path 64" d="M6847.963,2535.5q-1.719-.054-3.438-.09-.165,7.594-.329,15.19-1.777-.037-3.554-.058.086-7.6.171-15.194-1.732-.019-3.464-.022l.006-3.55q5.36.009,10.719.176Z" fill="#fff"/>
            <path id="Path_65" data-name="Path 65" d="M6861.033,2551.375q-5.583-.394-11.174-.608.356-9.365.714-18.73,5.892.223,11.781.64-.126,1.77-.25,3.541-3.976-.281-7.958-.474-.1,2.022-.195,4.044,1.833.088,3.666.2-.1,1.772-.208,3.543-1.815-.107-3.63-.194-.1,2.022-.2,4.042,3.852.188,7.7.458Q6861.159,2549.6,6861.033,2551.375Z" fill="#fff"/>
            <path id="Path_66" data-name="Path 66" d="M6872.792,2544.389q.727,4.083,1.4,8.169-1.841-.2-3.683-.382-.678-3.884-1.405-7.765l-1.5-.135q-.333,3.783-.666,7.567-1.771-.155-3.546-.293.724-9.344,1.45-18.688,4.338.337,8.67.777,1.408,1.619,2.789,3.246-.288,2.611-.577,5.223Q6874.254,2543.242,6872.792,2544.389Zm-.548-4.29q.1-1,.2-2-.491-.547-.986-1.1-1.592-.153-3.182-.294-.177,2.016-.355,4.033,1.574.138,3.147.291Q6871.653,2540.564,6872.244,2540.1Z" fill="#fff"/>
          </g>
        </g>
      </g>
    </g>
    <path id="Path_288" data-name="Path 288" d="M6843.011,2456.019s8.165,2.939,4.63,11.795c-1.9,4.7-9.025,6.106-12.445,3.819C6835.2,2471.633,6851.584,2468.149,6843.011,2456.019Z" transform="translate(-5701.464 -2702.821)" fill="#b5311b"/>
    <path id="Path_289" data-name="Path 289" d="M6840.484,2455.413s-3.906-.66-7.48,3.321A18.931,18.931,0,0,1,6840.484,2455.413Z" transform="translate(-5701.464 -2702.821)" fill="#fff"/>
    <path id="Path_290" data-name="Path 290" d="M6785.862,2428.2s-.495-5.786,4.851-4.844A5.484,5.484,0,0,0,6785.862,2428.2Z" transform="translate(-5701.464 -2702.821)" fill="#fff"/>
    <path id="Path_291" data-name="Path 291" d="M6778.97,2436.317s-.963-5.726,4.442-5.221A5.484,5.484,0,0,0,6778.97,2436.317Z" transform="translate(-5701.464 -2702.821)" fill="#fff"/>
    <path id="Path_292" data-name="Path 292" d="M6774.83,2444.551s-4.363-.1-3.255-4.313C6771.575,2440.238,6771.537,2443.738,6774.83,2444.551Z" transform="translate(-5701.464 -2702.821)" fill="#fff"/>
    <path id="Path_293" data-name="Path 293" d="M6778.865,2448.594s.644,4.718,6.955,3.746C6785.82,2452.34,6781.078,2452.653,6778.865,2448.594Z" transform="translate(-5701.464 -2702.821)" fill="#b5311b"/>
    <path id="Path_294" data-name="Path 294" d="M6786.193,2454.664s-1.156,4.873,4.252,4.873A6.838,6.838,0,0,1,6786.193,2454.664Z" transform="translate(-5701.464 -2702.821)" fill="#b5311b"/>
    <path id="Path_295" data-name="Path 295" d="M6890.027,2427.79s.443-5.174-4.338-4.331A4.9,4.9,0,0,1,6890.027,2427.79Z" transform="translate(-5701.464 -2702.821)" fill="#b5311b"/>
    <path id="Path_296" data-name="Path 296" d="M6897.117,2436.247s.963-5.727-4.442-5.221A5.483,5.483,0,0,1,6897.117,2436.247Z" transform="translate(-5701.464 -2702.821)" fill="#b5311b"/>
    <path id="Path_297" data-name="Path 297" d="M6901.257,2444.48s4.363-.1,3.256-4.313C6904.513,2440.167,6904.55,2443.667,6901.257,2444.48Z" transform="translate(-5701.464 -2702.821)" fill="#b5311b"/>
    <path id="Path_298" data-name="Path 298" d="M6897.4,2448s-.644,4.719-6.955,3.746C6890.448,2451.745,6895.19,2452.058,6897.4,2448Z" transform="translate(-5701.464 -2702.821)" fill="#b5311b"/>
    <path id="Path_299" data-name="Path 299" d="M6889.653,2454.641s1.155,4.874-4.253,4.874A6.837,6.837,0,0,0,6889.653,2454.641Z" transform="translate(-5701.464 -2702.821)" fill="#b5311b"/>
    <path id="Path_300" data-name="Path 300" d="M6824.257,2470.808s4.17,5.408,7.968,6.4c0,0-1.115,2.271-.95,7.018,0,0,.124-5.2,2.147-7.183C6833.422,2477.042,6830.326,2476.423,6824.257,2470.808Z" transform="translate(-5701.464 -2702.821)" fill="#b5311b"/>
    <path id="Path_301" data-name="Path 301" d="M6857.422,2471.143s-4.17,5.409-7.968,6.4c0,0,1.115,2.271.95,7.019,0,0-.124-5.2-2.147-7.184C6848.257,2477.377,6851.353,2476.758,6857.422,2471.143Z" transform="translate(-5701.464 -2702.821)" fill="#b5311b"/>
    <path id="Path_302" data-name="Path 302" d="M6792.98,2438.813s5.872,2.146,63.822,0" transform="translate(-5701.464 -2702.821)" fill="#fff"/>
    <path id="Path_303" data-name="Path 303" d="M6830.986,2506.122s-7.359,13.477-12.389,17.3C6818.6,2523.418,6828.839,2514.77,6830.986,2506.122Z" transform="translate(-5701.464 -2702.821)" fill="#b5311b"/>
    <path id="Path_304" data-name="Path 304" d="M6818.312,2445.3s5.119,10.212,11.56,16.652C6829.872,2461.948,6818.56,2453.349,6818.312,2445.3Z" transform="translate(-5701.464 -2702.821)" fill="#b5311b"/>
    <path id="Path_305" data-name="Path 305" d="M6863.2,2445.3s-5.119,10.212-11.56,16.652C6851.642,2461.948,6862.954,2453.349,6863.2,2445.3Z" transform="translate(-5701.464 -2702.821)" fill="#b5311b"/>
  </g>
</svg>
